<svg width="687" height="524" viewBox="0 0 687 524" fill="none" xmlns="http://www.w3.org/2000/svg">
<path d="M93.9185 431.71C95.0255 431.069 96.1907 430.428 97.2977 429.787C98.2882 429.263 97.4143 427.748 96.4238 428.272C95.3168 428.913 94.1516 429.554 93.0446 430.195C92.0541 430.777 92.9281 432.292 93.9185 431.71Z" fill="#161616"/>
<path d="M78.3043 439.226C88.9663 434.681 99.6283 430.137 110.29 425.592C120.952 421.048 130.915 416.562 142.859 417.785C153.754 418.892 164.474 423.029 174.67 426.874C185.332 430.894 195.761 435.439 205.899 440.566C207.88 441.556 209.686 438.527 207.647 437.536C191.566 429.496 174.729 422.388 157.483 417.319C149.151 414.872 140.412 413.241 131.731 414.464C123.05 415.688 114.893 419.824 106.911 423.262C96.7734 427.573 86.6358 431.885 76.5564 436.254C74.459 437.07 76.2651 440.1 78.3043 439.226Z" fill="#161616"/>
<path d="M177.117 464.745C225.883 464.745 274.59 464.745 323.356 464.745C337.281 464.745 351.205 464.745 365.13 464.745C367.402 464.745 367.402 461.249 365.13 461.249C316.364 461.249 267.657 461.249 218.891 461.249C204.967 461.249 191.042 461.249 177.117 461.249C174.845 461.249 174.845 464.745 177.117 464.745Z" fill="#161616"/>
<path d="M333.668 476.164C394.785 476.164 455.902 476.164 517.02 476.164C534.44 476.164 551.802 476.164 569.223 476.164C571.495 476.164 571.495 472.668 569.223 472.668C508.105 472.668 446.988 472.668 385.871 472.668C368.45 472.668 351.088 472.668 333.668 472.668C331.454 472.668 331.454 476.164 333.668 476.164Z" fill="#161616"/>
<path d="M420.013 463.405C488.297 463.405 556.522 463.405 624.805 463.405C644.207 463.405 663.608 463.405 683.01 463.405C685.282 463.405 685.282 459.909 683.01 459.909C614.726 459.909 546.501 459.909 478.217 459.909C458.816 459.909 439.415 459.909 420.013 459.909C417.741 459.909 417.741 463.405 420.013 463.405Z" fill="#161616"/>
<path d="M213.299 444.993C223.669 448.664 233.982 452.568 244.178 456.704C246.275 457.578 247.149 454.199 245.11 453.325C234.914 449.188 224.601 445.285 214.231 441.614C212.133 440.857 211.201 444.236 213.299 444.993Z" fill="#161616"/>
<path d="M83.9559 473.25C110.757 473.25 137.616 473.25 164.416 473.25C166.688 473.25 166.688 469.755 164.416 469.755C137.616 469.755 110.757 469.755 83.9559 469.755C81.7419 469.755 81.7419 473.25 83.9559 473.25Z" fill="#161616"/>
<path d="M323.181 511.063C357.323 511.063 391.465 511.063 425.607 511.063C427.879 511.063 427.879 507.568 425.607 507.568C391.465 507.568 357.323 507.568 323.181 507.568C320.909 507.568 320.909 511.063 323.181 511.063Z" fill="#161616"/>
<path d="M34.6077 473.484C25.344 467.366 18.4107 458.51 13.4584 448.664C10.6618 443.187 8.50614 437.478 6.70001 431.651C5.88433 429.146 4.5443 426.116 4.36951 423.495C4.31125 422.329 3.90341 422.504 5.12692 422.446C5.76781 422.446 6.70001 422.912 7.28263 423.087C8.91398 423.553 10.4871 424.077 12.1184 424.543C13.2254 424.893 13.6332 423.203 12.5845 422.854C10.6036 422.271 8.62266 421.63 6.64174 421.048C5.7678 420.756 4.42777 420.115 3.43731 420.465C1.80596 420.989 2.33033 422.679 2.62164 423.961C4.42777 431.069 6.75826 438.06 9.67138 444.76C14.915 456.762 22.7222 467.657 33.7338 474.998C34.666 475.639 35.5399 474.125 34.6077 473.484Z" fill="#E8E8E8"/>
<path d="M11.1281 422.562C2.44702 401.355 2.09744 378.225 1.80613 355.619C1.28177 355.852 0.815674 356.027 0.291312 356.26C1.92266 357.891 3.61227 359.581 5.24362 361.212C6.05929 362.028 7.2828 360.746 6.46712 359.989C4.83578 358.357 3.14617 356.668 1.51482 355.036C0.990456 354.512 0 354.92 0 355.677C0.23305 378.4 0.640881 401.705 9.38025 423.087C9.84634 424.077 11.536 423.611 11.1281 422.562Z" fill="#E8E8E8"/>
<path d="M6.81623 359.523C6.93276 345.132 8.50584 330.799 11.652 316.758C11.2442 316.933 10.7781 317.108 10.3702 317.282C27.0333 329.11 33.5587 350.142 39.6179 368.67C46.726 390.46 52.3774 412.891 54.8244 435.73C55.5236 442.08 55.9314 448.431 56.1062 454.84C56.281 461.482 56.6306 468.415 54.8244 474.882C54.5331 475.989 56.2227 476.455 56.514 475.348C58.0288 469.755 57.9706 463.871 57.9123 458.161C57.8541 452.335 57.5628 446.508 57.0384 440.682C55.9897 428.971 54.1253 417.319 51.62 405.841C48.9982 393.839 45.7355 382.012 41.9484 370.359C38.744 360.397 35.4231 350.317 30.9368 340.82C26.2759 331.091 20.1001 322.118 11.2442 315.826C10.7781 315.535 10.0789 315.826 9.9624 316.35C6.81623 330.566 5.18488 345.015 5.06836 359.581C5.06836 360.688 6.81623 360.688 6.81623 359.523Z" fill="#E8E8E8"/>
<path d="M46.7262 388.537C55.2908 363.252 73.8182 343.035 84.422 318.739C83.8976 318.564 83.315 318.448 82.7906 318.273C83.8393 329.634 84.7133 341.054 85.5289 352.473C85.9368 358.183 86.2281 363.893 86.5777 369.602C86.6942 372.282 86.869 374.904 86.9855 377.584C87.102 379.623 87.2185 380.148 85.6455 381.488C84.5385 382.42 83.0237 383.119 81.7419 383.935C80.8097 384.517 81.6836 386.032 82.6158 385.45C84.5385 384.226 86.5194 383.003 88.4421 381.779C88.6751 381.604 88.9081 381.313 88.8499 381.022C87.8594 360.105 86.4611 339.131 84.5385 318.273C84.4802 317.516 83.315 316.933 82.9071 317.807C72.1869 342.277 53.6594 362.611 45.0366 388.013C44.687 389.178 46.3766 389.586 46.7262 388.537Z" fill="#E8E8E8"/>
<path d="M81.684 385.391C89.8408 384.925 84.4806 402.521 83.5484 406.832C82.0336 413.94 80.2275 420.99 78.13 427.923C73.8769 441.964 68.3419 455.539 61.7 468.59C61.1757 469.58 62.6905 470.454 63.2148 469.464C70.9055 454.374 77.0813 438.585 81.6258 422.271C83.898 414.056 85.7624 405.725 87.1607 397.335C87.9181 392.674 89.2581 383.177 81.7423 383.644C80.577 383.702 80.577 385.45 81.684 385.391Z" fill="#E8E8E8"/>
<path d="M82.1498 320.778C77.7801 356.318 62.2824 389.003 52.9604 423.262C52.6691 424.369 54.3587 424.835 54.65 423.728C64.0302 389.295 79.4697 356.435 83.8977 320.778C84.0142 319.613 82.2663 319.671 82.1498 320.778Z" fill="#E8E8E8"/>
<path d="M9.72996 317.049C23.3051 357.6 34.2584 399.024 42.4734 440.973C44.8039 452.859 46.9014 464.861 48.824 476.805C48.9988 477.912 50.6884 477.446 50.5136 476.339C43.8717 434.098 34.4915 392.266 22.3729 351.249C18.9354 339.597 15.2649 328.003 11.4196 316.525C11.07 315.534 9.38038 316.001 9.72996 317.049Z" fill="#E8E8E8"/>
<path d="M1.22358 370.418C16.5466 379.798 28.7234 393.548 36.2393 409.861C36.7054 410.91 38.2202 409.978 37.7541 408.987C30.1217 392.441 17.6536 378.458 2.09752 368.903C1.16532 368.32 0.233119 369.835 1.22358 370.418Z" fill="#E8E8E8"/>
<path d="M5.59358 432.816C20.8001 438.176 37.4049 444.352 45.6781 459.209C46.2025 460.2 47.7173 459.326 47.1929 458.335C38.6284 443.071 21.674 436.662 6.05968 431.127C5.01096 430.719 4.54486 432.408 5.59358 432.816Z" fill="#E8E8E8"/>
<path d="M26.7426 336.742C25.3443 345.656 24.5286 354.57 24.4121 363.601C24.4121 364.708 26.16 364.708 26.16 363.601C26.2765 354.745 27.0339 345.947 28.4322 337.208C28.607 336.101 26.9174 335.635 26.7426 336.742Z" fill="#E8E8E8"/>
<path d="M57.3891 363.426C58.904 373.913 60.3605 384.4 61.8753 394.946C62.0501 396.053 63.7397 395.587 63.565 394.48C62.0501 383.992 60.5936 373.505 59.0788 362.96C58.904 361.794 57.2143 362.319 57.3891 363.426Z" fill="#E8E8E8"/>
<path d="M72.4784 370.068C78.0716 365.058 82.8491 359.29 86.6362 352.764C87.2188 351.774 85.704 350.9 85.1214 351.891C81.3926 358.241 76.7316 363.951 71.2549 368.845C70.381 369.602 71.6628 370.826 72.4784 370.068Z" fill="#E8E8E8"/>
<path d="M596.374 458.802C591.014 443.013 587.984 426.641 587.285 409.978C586.819 410.211 586.411 410.502 585.945 410.735C588.858 412.425 591.713 414.173 594.626 415.862C595.267 416.212 596.141 415.629 595.908 414.872C593.286 407.473 592.82 399.549 594.801 391.917C596.84 384.226 601.326 377.234 605.113 370.301C612.979 355.794 620.902 341.287 628.768 326.779C628.243 326.721 627.719 326.663 627.195 326.546C629.059 338.024 630.923 349.56 632.788 361.038C633.72 366.689 634.652 372.34 635.526 377.992C635.992 380.788 637.274 384.342 635.584 386.906C634.186 389.003 631.623 390.169 629.35 391.159C628.593 391.509 628.942 392.499 629.583 392.732C632.089 393.781 635.118 395.121 636.342 397.685C637.682 400.598 636.05 404.793 635.293 407.822C633.836 413.765 632.089 419.649 630.049 425.476C625.913 437.186 620.611 448.373 614.26 459.035C613.678 460.025 615.193 460.899 615.775 459.909C623.058 447.615 629.001 434.565 633.37 420.931C634.419 417.61 635.41 414.231 636.284 410.852C637.099 407.647 638.206 404.21 638.497 400.889C638.964 395.471 634.303 392.907 629.991 391.101C630.049 391.625 630.108 392.15 630.224 392.674C633.662 391.159 637.682 389.003 638.09 384.809C638.323 382.07 637.449 379.041 637.041 376.419C636.517 373.04 635.934 369.66 635.41 366.223C633.254 352.822 631.04 339.48 628.884 326.08C628.768 325.323 627.602 325.264 627.311 325.847C618.863 341.345 610.415 356.843 601.967 372.399C598.238 379.274 594.102 386.09 592.587 393.897C591.189 401.064 591.829 408.405 594.276 415.28C594.684 414.93 595.15 414.639 595.558 414.289C592.645 412.6 589.79 410.852 586.877 409.162C586.294 408.813 585.537 409.22 585.537 409.92C586.178 426.699 589.266 443.304 594.684 459.21C595.034 460.317 596.723 459.851 596.374 458.802Z" fill="#E8E8E8"/>
<path d="M636.4 365.698C648.519 352.997 660.579 340.179 672.465 327.245C671.999 326.954 671.474 326.662 671.008 326.371C669.144 335.577 668.328 345.015 668.794 354.395C669.027 359.231 669.726 363.95 670.309 368.728C670.6 370.883 670.833 373.097 670.892 375.253C670.95 376.418 671.125 378.225 669.843 378.982C668.794 379.565 666.172 379.448 664.891 379.565C664.25 379.623 663.609 380.555 664.25 381.079C671.066 386.498 665.182 396.402 662.327 402.462C659.239 409.045 655.918 415.454 652.306 421.747C644.965 434.564 636.517 446.741 627.136 458.161C626.437 459.034 627.661 460.258 628.36 459.384C638.731 446.799 647.936 433.283 655.86 419.066C659.88 411.842 663.609 404.384 666.871 396.81C669.202 391.334 670.95 384.226 665.531 379.914C665.298 380.439 665.124 380.905 664.891 381.429C668.153 381.079 672.232 381.604 672.639 377.584C673.106 372.224 671.649 366.514 671.066 361.212C669.785 349.793 670.367 338.257 672.698 326.954C672.873 326.138 671.882 325.439 671.241 326.08C659.297 339.014 647.295 351.832 635.177 364.533C634.361 365.29 635.585 366.514 636.4 365.698Z" fill="#E8E8E8"/>
<path d="M664.25 337.325C655.685 354.862 654.17 375.02 648.169 393.431C641.818 413.007 632.846 431.593 623.233 449.713C622.708 450.703 624.223 451.577 624.748 450.587C634.07 432.933 642.809 414.872 649.16 395.937C652.306 386.498 654.636 376.943 656.792 367.213C658.948 357.309 661.278 347.346 665.764 338.199C666.23 337.208 664.774 336.334 664.25 337.325Z" fill="#E8E8E8"/>
<path d="M625.214 337.208C623.582 374.845 608.609 410.211 605.404 447.615C605.288 448.722 607.036 448.722 607.152 447.615C610.357 410.211 625.33 374.845 626.962 337.208C626.962 336.101 625.214 336.101 625.214 337.208Z" fill="#E8E8E8"/>
<path d="M595.908 384.75C599.578 395.004 604.123 404.851 609.541 414.289C610.124 415.28 611.639 414.406 611.056 413.415C605.696 404.093 601.21 394.363 597.597 384.284C597.248 383.235 595.558 383.701 595.908 384.75Z" fill="#E8E8E8"/>
<path d="M613.503 352.24C615.6 360.164 617.639 368.087 619.737 376.011C620.028 377.118 621.718 376.652 621.427 375.545C619.329 367.621 617.29 359.698 615.192 351.774C614.901 350.667 613.212 351.133 613.503 352.24Z" fill="#E8E8E8"/>
<path d="M630.573 347.812C627.951 352.647 625.388 357.541 622.766 362.377C622.242 363.368 623.756 364.242 624.281 363.251C626.903 358.415 629.466 353.521 632.088 348.686C632.612 347.695 631.098 346.821 630.573 347.812Z" fill="#E8E8E8"/>
<path d="M643.042 356.027C643.916 368.845 645.198 381.662 646.946 394.422C647.121 395.529 648.752 395.063 648.636 393.956C646.946 381.371 645.664 368.728 644.79 356.027C644.732 354.92 642.984 354.92 643.042 356.027Z" fill="#E8E8E8"/>
<path d="M656.092 368.903C656.675 365.523 659.879 362.902 662.093 360.396C664.366 357.833 666.696 355.269 668.968 352.706C669.726 351.89 668.502 350.608 667.745 351.482C664.948 354.57 662.21 357.658 659.413 360.746C657.374 363.018 654.985 365.232 654.403 368.378C654.228 369.544 655.918 370.01 656.092 368.903Z" fill="#E8E8E8"/>
<path d="M3.96177 305.455C19.4596 304.756 33.9086 299.105 48.9403 295.9C65.6034 292.346 82.1499 294.094 98.5799 297.939C114.66 301.726 130.508 306.62 146.472 310.815C162.494 315.068 178.516 319.089 194.596 322.934C259.326 338.432 324.871 350.9 390.766 360.28C427.704 365.524 464.817 369.777 501.989 373.04C503.096 373.156 503.096 371.408 501.989 371.292C435.337 365.407 369.034 356.377 303.256 344.2C270.337 338.082 237.536 331.265 204.967 323.575C172.748 316.001 140.82 307.32 108.892 298.697C91.5884 294.036 73.6436 290.249 55.6988 292.812C38.22 295.317 21.7901 302.833 4.02003 303.591C2.85478 303.707 2.85479 305.455 3.96177 305.455Z" fill="#E8E8E8"/>
<path d="M284.146 343.675C336.582 338.606 388.552 329.401 439.531 316.059C465.167 309.359 490.336 301.202 515.564 293.103C527.741 289.2 540.092 285.529 552.677 283.199C566.252 280.635 579.944 280.053 593.752 280.926C609.075 281.917 624.398 283.898 639.663 285.587C654.986 287.277 670.367 288.908 685.69 290.598C686.797 290.715 686.797 288.967 685.69 288.85C658.307 285.879 630.923 282.558 603.482 279.936C590.081 278.654 576.623 278.13 563.281 279.819C550.696 281.334 538.286 284.422 526.168 288.034C500.823 295.55 475.887 304.406 450.368 311.398C424.908 318.389 399.214 324.332 373.287 329.226C343.806 334.819 314.034 339.072 284.146 341.927C283.039 342.044 283.039 343.792 284.146 343.675Z" fill="#E8E8E8"/>
<path d="M295.449 428.738C340.311 428.447 375.093 395.762 414.537 379.274C426.015 374.496 438.075 371 450.485 370.068C451.592 370.01 451.592 368.262 450.485 368.32C406.089 371.641 372.413 404.443 332.212 419.591C320.443 424.019 308.092 426.874 295.449 426.99C294.283 426.99 294.283 428.738 295.449 428.738Z" fill="#E8E8E8"/>
<path d="M456.078 367.329C504.96 356.784 541.432 319.554 585.654 298.813C598.413 292.812 611.93 288.326 625.971 286.461C627.078 286.287 627.078 284.539 625.971 284.713C575.924 291.355 538.228 328.643 494.939 351.016C482.471 357.483 469.362 362.727 455.612 365.698C454.505 365.873 454.971 367.562 456.078 367.329Z" fill="#E8E8E8"/>
<path d="M410.167 121.579C431.782 111.617 456.194 131.193 477.402 118.783C478.392 118.2 477.518 116.685 476.528 117.268C455.554 129.561 430.967 110.102 409.293 120.065C408.245 120.531 409.118 122.046 410.167 121.579Z" fill="#E8E8E8"/>
<path d="M307.859 12.9199C331.455 7.90934 354.993 15.3087 377.657 21.5427C400.263 27.7768 423.043 31.6221 446.523 31.156C459.749 30.8647 472.916 29.3499 485.85 26.7281C486.957 26.495 486.491 24.8054 485.384 25.0385C461.438 29.9325 436.677 30.8064 412.439 27.4272C389.193 24.1645 367.286 15.6 344.272 11.4633C332.037 9.24938 319.569 8.66676 307.392 11.2886C306.344 11.4634 306.81 13.153 307.859 12.9199Z" fill="#E8E8E8"/>
<path d="M35.7153 81.4942C56.9228 69.5504 81.5678 68.5599 104.174 77.0079C115.593 81.2611 126.488 86.5047 138.257 89.7674C149.502 92.9136 161.096 94.778 172.748 95.4189C186.149 96.118 199.607 95.0693 212.833 92.4475C213.94 92.2144 213.474 90.5248 212.367 90.7579C187.838 95.7102 162.319 94.778 138.257 87.9613C126.313 84.5821 115.243 79.2219 103.649 74.9688C92.7542 71.0069 81.4513 68.9677 69.8571 69.6669C57.5637 70.4243 45.6199 73.92 34.8996 79.9793C33.8509 80.5037 34.7249 82.0185 35.7153 81.4942Z" fill="#E8E8E8"/>
<path d="M597.48 74.5613C586.935 63.0836 583.031 46.5371 586.236 31.3889C587.867 23.7565 591.246 16.4154 596.49 10.5309C599.986 6.56908 603.948 4.41338 609.133 3.42292C614.318 2.43246 619.62 1.79156 624.922 1.7333C643.391 1.61678 661.336 12.6284 666.172 31.1558C668.619 40.5943 666.813 49.9163 662.268 58.3643C657.84 66.4628 651.839 74.27 643.799 78.9892C628.534 87.9034 607.676 85.3398 595.15 72.8717C594.334 72.056 593.111 73.3378 593.926 74.0952C605.754 85.8059 624.456 89.1851 639.779 82.8928C648.343 79.3971 654.927 72.8134 660.054 65.2393C665.706 56.9078 669.784 47.5275 668.968 37.2734C667.454 18.2216 651.897 3.65596 633.487 0.62632C628.068 -0.247616 622.533 -0.131089 617.115 0.509797C612.221 1.03416 606.744 1.50026 602.258 3.71423C594.742 7.38476 589.615 16.0658 586.76 23.5817C580.118 41.0604 583.614 61.9766 596.315 75.7848C597.014 76.6005 598.238 75.377 597.48 74.5613Z" fill="#E8E8E8"/>
<path d="M96.5987 255.466C122.875 251.854 148.103 262.399 172.689 270.148C184.808 273.994 197.16 277.373 209.861 278.305C223.261 279.296 236.079 276.79 248.722 272.479C262.18 267.876 275.173 262.166 289.156 259.37C302.207 256.748 315.549 256.224 328.833 256.865C355.866 258.205 382.317 264.206 408.943 268.517C437.492 273.061 466.973 275.683 495.23 267.876C496.337 267.585 495.871 265.895 494.764 266.187C442.269 280.694 388.843 259.836 336.407 255.641C323.531 254.592 310.48 254.534 297.604 256.224C283.854 258.03 270.978 262.399 258.044 267.235C244.818 272.188 231.418 276.732 217.085 276.849C203.918 276.907 191.042 273.935 178.516 270.148C151.773 262.166 124.739 249.873 96.1326 253.835C95.0256 253.951 95.55 255.641 96.5987 255.466Z" fill="#E8E8E8"/>
<path d="M299.935 231.055C310.538 225.461 321.841 220.509 333.843 219.052C345.845 217.596 357.323 220.626 368.568 224.471C379.754 228.258 390.766 232.103 402.36 234.434C413.663 236.706 425.14 237.929 436.676 238.104C460.331 238.454 483.578 234.142 505.776 225.986C528.09 217.771 549.181 206.584 571.088 197.437C595.966 187.008 622.766 179.143 649.975 182.056C651.082 182.172 651.082 180.425 649.975 180.308C600.801 175.064 557.513 203.38 513.816 221.033C491.152 230.181 467.555 235.89 443.085 236.356C431.025 236.589 418.906 235.657 407.021 233.56C395.194 231.462 383.891 227.967 372.588 224.005C360.411 219.752 347.943 215.906 334.892 217.246C322.191 218.528 310.305 223.713 299.061 229.598C298.07 230.064 298.944 231.579 299.935 231.055Z" fill="#E8E8E8"/>
<path d="M176.652 117.676C196.169 105.965 219.125 114.529 238.934 120.705C259.442 127.114 280.825 130.144 302.382 129.095C314.5 128.512 326.502 126.648 338.213 123.677C339.32 123.385 338.854 121.696 337.747 121.987C316.074 127.522 293.468 128.978 271.27 126.124C259.909 124.667 248.839 121.987 237.885 118.491C227.806 115.287 217.727 111.791 207.123 110.509C196.403 109.228 185.216 110.451 175.836 116.102C174.845 116.743 175.719 118.258 176.652 117.676Z" fill="#E8E8E8"/>
<path d="M446.406 467.599C446.406 472.085 450.601 475.348 455.436 479.193C459.981 482.747 467.264 487.292 477.576 489.214C479.266 495.041 482.762 506.285 485.092 505.703C487.015 505.237 487.889 496.206 486.782 488.865C486.374 486.127 485.966 483.563 484.509 480.941C481.072 474.94 476.586 476.921 471.75 472.202C465.691 466.259 468.021 458.452 463.36 455.655C457.359 452.043 446.406 460.258 446.406 467.599Z" fill="#161616"/>
<path d="M446.464 476.339C445.94 480.709 449.785 484.729 454.213 489.448C461.554 497.255 469.128 501.159 474.547 503.14C475.712 511.355 477.809 523.299 480.14 523.24C482.295 523.182 484.568 513.277 484.102 504.655C483.927 501.45 483.81 499.061 482.703 496.44C479.848 489.623 474.78 491.254 470.993 485.486C466.739 478.903 470.352 472.435 466.798 468.415C461.671 462.589 447.396 468.59 446.464 476.339Z" fill="#161616"/>
<path d="M389.484 460.084C387.328 459.851 386.337 464.337 382.434 471.386C380.278 475.348 374.918 485.078 366.761 490.613C360.352 494.924 354.759 494.983 354.817 497.022C354.876 498.537 358.022 499.527 359.711 499.76C363.848 500.343 366.936 497.605 367.926 496.731C374.51 492.536 379.695 488.224 383.366 484.845C392.455 476.514 393.504 472.901 393.678 470.221C393.97 465.502 391.756 460.317 389.484 460.084Z" fill="#161616"/>
<path d="M389.658 453.967C392.804 455.656 397.407 457.812 403.117 459.443C406.729 460.434 417.857 463.172 434.87 460.201C453.689 456.88 458.466 450.238 463.593 455.132C468.953 460.259 470.002 473.892 465.982 482.049C463.535 487.001 458.524 488.924 448.562 492.828C440.754 495.857 434.928 498.129 426.538 498.304C416.692 498.537 409.468 495.682 405.214 494.051C396.359 490.497 388.61 487.409 385.58 478.495C384.298 474.766 384.24 471.154 384.415 468.765C386.221 463.813 387.969 458.861 389.658 453.967Z" fill="#161616"/>
<path d="M448.97 461.715C449.436 458.336 453.339 457.462 456.718 455.306C465.633 449.538 464.409 438.526 470.527 437.012C475.712 435.73 477.926 443.362 483.17 441.906C489.345 440.158 491.093 428.272 493.249 429.088C494.822 429.671 495.754 437.012 493.249 441.614C490.685 446.275 485.325 446.8 479.208 447.382C473.09 447.965 472.624 446.567 470.061 447.965C465.341 450.645 466.215 455.83 460.447 461.365C457.185 464.511 452.057 467.599 449.902 465.327C449.144 464.511 448.795 462.997 448.97 461.715Z" fill="#161616"/>
<path d="M392.163 466.901C390.007 466.667 389.017 471.154 385.113 478.203C382.958 482.165 377.598 491.895 369.441 497.43C363.032 501.741 357.439 501.8 357.497 503.839C357.555 505.354 360.701 506.344 362.391 506.577C366.528 507.16 369.616 504.421 370.606 503.548C377.19 499.353 382.375 495.041 386.046 491.662C395.135 483.33 396.183 479.718 396.358 477.038C396.649 472.319 394.435 467.134 392.163 466.901Z" fill="#161616"/>
<path d="M362.158 458.335C363.557 467.075 362.275 468.881 364.43 471.736C367.693 476.105 373.811 476.688 374.859 476.805C379.404 477.271 380.103 475.406 384.997 475.931C390.474 476.513 391.348 478.902 394.086 478.028C398.106 476.746 399.271 470.396 399.621 468.415C399.679 468.24 399.679 468.065 399.679 467.949C400.145 464.045 399.213 460.549 397.931 457.811C390.357 454.548 385.871 450.47 383.133 447.382C380.22 444.061 378.413 440.682 376.84 441.09C375.092 441.556 374.859 446.392 374.918 450.179C372.82 450.761 370.723 451.344 368.625 451.927C363.207 446.45 361.343 446.042 360.585 446.508C359.362 447.207 360.935 450.47 362.158 458.335Z" fill="#161616"/>
<path d="M372.063 466.143C372.529 468.007 374.277 469.231 376.199 469.114C376.491 469.114 376.491 468.648 376.199 468.648C374.51 468.823 372.937 467.716 372.529 466.026C372.412 465.793 372.005 465.91 372.063 466.143Z" fill="white"/>
<path d="M371.888 466.026C371.888 466.725 371.888 467.483 371.713 468.182C371.655 468.531 371.538 468.823 371.364 469.114C371.364 469.114 370.548 470.279 370.432 470.104C370.315 469.871 369.907 470.104 370.082 470.338C370.432 470.978 371.305 469.988 371.538 469.697C372.296 468.648 372.354 467.25 372.354 466.026C372.296 465.735 371.888 465.735 371.888 466.026Z" fill="white"/>
<path d="M372.005 465.793C371.888 465.968 372.18 465.852 372.122 465.91C371.947 466.026 371.947 465.793 372.122 465.735C372.296 465.735 372.296 465.968 372.238 466.026C372.18 466.085 372.18 466.085 372.122 466.085C372.063 466.085 372.005 466.085 372.005 466.026V465.968C371.947 465.968 371.888 465.968 371.888 465.91C371.655 465.735 371.422 466.143 371.655 466.259C371.947 466.434 372.471 466.434 372.471 465.968C372.471 465.618 372.005 465.385 371.714 465.677C371.422 465.968 371.597 466.434 371.947 466.492C372.355 466.609 372.704 466.318 372.704 465.91C372.704 465.56 372.471 465.211 372.063 465.269C371.714 465.327 371.422 465.735 371.597 466.085C371.772 466.376 372.18 466.376 372.413 466.201C372.646 466.026 372.646 465.618 372.355 465.444C372.063 465.269 371.597 465.444 371.597 465.793C371.597 466.201 372.238 466.259 372.413 465.91C372.529 465.735 372.122 465.502 372.005 465.793Z" fill="white"/>
<path d="M366.353 462.705C367.052 461.656 368.625 461.423 369.557 462.297C369.79 462.472 370.082 462.181 369.849 462.006C368.683 460.957 366.819 461.249 365.945 462.53C365.829 462.705 366.236 462.938 366.353 462.705Z" fill="white"/>
<path d="M374.743 460.957C375.617 459.792 377.19 459.442 378.53 460.025C378.763 460.141 378.996 459.792 378.763 459.675C377.19 458.976 375.442 459.442 374.393 460.782C374.219 460.957 374.568 461.132 374.743 460.957Z" fill="white"/>
<path d="M378.239 444.41C378.996 445.867 379.52 447.44 379.753 449.071C379.812 449.362 380.219 449.246 380.161 448.955C379.87 447.265 379.346 445.692 378.588 444.177C378.53 443.944 378.122 444.177 378.239 444.41Z" fill="white"/>
<path d="M376.375 449.014C376.549 449.48 376.841 449.946 377.19 450.296C377.365 450.47 377.656 450.237 377.54 450.004C377.307 449.538 377.19 449.014 377.19 448.489C377.132 448.548 377.015 448.664 376.957 448.722C377.307 448.722 377.656 448.664 377.948 448.664C378.064 448.664 378.181 448.548 378.181 448.373C378.064 448.023 378.006 447.615 377.889 447.266C377.831 447.382 377.773 447.441 377.656 447.557C378.064 447.557 378.414 447.557 378.822 447.557C379.113 447.557 379.113 447.091 378.822 447.091C378.414 447.091 378.064 447.091 377.656 447.091C377.54 447.091 377.423 447.208 377.423 447.382C377.54 447.732 377.598 448.14 377.715 448.489C377.773 448.373 377.831 448.315 377.948 448.198C377.598 448.198 377.248 448.256 376.957 448.256C376.841 448.256 376.724 448.373 376.724 448.489C376.724 449.13 376.841 449.655 377.132 450.237C377.248 450.121 377.365 450.062 377.482 449.946C377.19 449.596 376.899 449.189 376.724 448.722C376.608 448.548 376.258 448.781 376.375 449.014Z" fill="white"/>
<path d="M369.615 467.133C368.45 466.667 367.285 466.084 366.236 465.385C366.003 465.21 365.77 465.618 366.003 465.735C367.11 466.434 368.275 467.016 369.499 467.541C369.79 467.657 369.906 467.249 369.615 467.133Z" fill="white"/>
<path d="M368.684 468.007C368.043 468.123 367.46 468.298 366.936 468.59C366.703 468.706 366.878 469.114 367.169 468.939C367.694 468.648 368.218 468.473 368.8 468.415C369.034 468.356 368.917 467.949 368.684 468.007Z" fill="white"/>
<path d="M375.267 465.735C376.432 464.803 377.656 463.987 378.938 463.172C379.171 463.055 378.938 462.647 378.705 462.822C377.365 463.638 376.141 464.512 374.918 465.444C374.743 465.619 375.034 465.91 375.267 465.735Z" fill="white"/>
<path d="M376.257 466.725C377.597 466.375 378.938 466.026 380.219 465.734C380.511 465.676 380.394 465.268 380.103 465.326C378.763 465.676 377.423 466.026 376.141 466.317C375.85 466.375 375.966 466.841 376.257 466.725Z" fill="white"/>
<path d="M369.79 470.629C371.771 469.929 372.238 467.832 372.296 465.968C372.296 465.676 371.888 465.676 371.83 465.968C371.713 467.599 371.364 469.522 369.616 470.162C369.383 470.279 369.499 470.745 369.79 470.629Z" fill="white"/>
<path d="M369.791 470.629C370.898 470.221 371.713 469.288 371.946 468.123C372.005 467.832 371.597 467.715 371.539 468.007C371.364 469.055 370.723 469.871 369.732 470.221C369.441 470.337 369.558 470.745 369.791 470.629Z" fill="white"/>
<path d="M361.751 449.538C363.091 450.994 364.081 452.626 364.78 454.49C364.897 454.723 365.305 454.665 365.188 454.373C364.489 452.451 363.44 450.761 362.042 449.246C361.867 449.071 361.576 449.363 361.751 449.538Z" fill="white"/>
<path d="M364.08 452.742C363.731 452.8 363.381 452.8 363.032 452.859C362.857 452.859 362.74 453.092 362.857 453.208C363.09 453.383 363.265 453.733 363.148 454.024C363.09 454.257 362.857 454.373 362.857 454.606C362.857 454.723 362.915 454.898 363.032 454.956C363.148 455.073 363.381 455.131 363.381 455.247C363.381 455.539 363.847 455.539 363.847 455.247C363.847 455.014 363.731 454.956 363.614 454.781C363.556 454.723 363.381 454.665 363.381 454.606C363.323 454.432 363.498 454.315 363.556 454.199C363.731 453.733 363.614 453.15 363.207 452.859C363.148 452.975 363.09 453.092 363.032 453.208C363.381 453.15 363.731 453.15 364.08 453.092C364.372 453.15 364.372 452.684 364.08 452.742Z" fill="white"/>
<path d="M428.811 400.365C442.094 404.094 455.378 407.881 468.662 411.609C472.449 415.28 478.334 420.29 486.549 424.369C500.706 431.419 517.835 433.807 519.234 430.486C519.875 429.03 516.262 425.767 509.038 419.242C502.862 413.707 500.124 412.017 495.754 407.997C492.55 405.026 488.122 400.54 483.519 394.189C478.217 394.131 471.808 393.606 464.7 392.091C453.222 389.586 444.134 385.391 437.841 381.779C434.812 388.013 431.782 394.189 428.811 400.365Z" fill="#161616"/>
<path d="M300.634 253.136C291.72 266.944 298.245 284.132 305.47 303.009C315.782 330.159 331.629 348.104 339.728 356.493C375.967 394.131 420.48 410.211 446.115 417.203C448.737 405.201 451.3 393.14 453.922 381.138C436.21 371.525 423.16 361.038 414.245 352.881C399.272 339.19 374.219 316.292 363.732 280.752C357.265 258.729 361.343 248.766 351.73 241.658C338.33 231.87 311.005 236.997 300.634 253.136Z" fill="#4F4F4F"/>
<path opacity="0.14" d="M359.187 259.661C354.293 267.585 348.117 280.461 349.923 295.317C352.02 312.505 363.673 323.4 391.406 347.87C415.76 369.311 435.977 386.731 450.134 398.791C451.358 392.907 452.523 387.081 453.747 381.196C444.541 376.011 432.597 368.437 419.721 357.833C412.613 351.948 402.243 343.326 391.115 329.692C383.424 320.254 373.111 307.436 365.945 287.918C361.809 276.615 360.061 266.652 359.187 259.661Z" fill="#6D6C6C"/>
<path opacity="0.14" d="M375.15 308.311C376.723 313.729 379.52 321.536 384.589 330.101C389.017 337.558 395.251 345.715 417.041 364.242C425.722 371.584 437.258 380.964 451.532 391.276C452.348 387.955 453.106 384.634 453.921 381.313C445.881 376.885 439.414 372.69 434.811 369.486C420.537 359.581 410.749 350.201 404.864 344.491C401.252 340.996 397.29 337.092 392.338 331.499C384.647 322.585 379.054 314.428 375.15 308.311Z" fill="#6D6C6C"/>
<path d="M247.499 385.508C254.898 392.15 262.297 398.792 269.697 405.434C261.598 434.798 259.151 450.062 262.414 451.403C266.317 452.976 278.436 434.215 298.828 395.121C285.66 385.916 272.551 376.71 259.384 367.563C255.364 373.506 251.402 379.507 247.499 385.508Z" fill="#161616"/>
<path d="M299.993 239.91C274.008 258.437 254.839 272.187 245.284 279.004C210.269 304.057 192.732 316.875 191.159 329.517C188.129 354.162 216.037 379.681 223.611 386.615C230.719 393.14 237.477 397.626 242.255 400.423C246.1 399.607 256.762 396.927 265.676 387.197C273.483 378.749 275.756 369.485 276.513 365.582C266.667 356.376 256.762 347.113 246.916 337.907C266.375 328.352 282.339 321.011 293.293 316.117C308.732 309.184 314.151 307.145 322.482 301.26C333.028 293.861 347.069 283.782 351.031 266.419C352.021 262.05 354.701 250.514 348.642 242.357C341.068 232.103 321.259 230.413 299.993 239.91Z" fill="#4F4F4F"/>
<path opacity="0.12" d="M329.59 252.786C331.571 254.185 348.991 266.886 346.078 279.063C345.729 280.403 344.855 283.199 336.698 290.307C325.803 299.862 315.549 305.339 310.422 307.961C299.468 313.612 291.545 316.992 283.796 320.371C274.765 324.274 261.773 330.101 245.925 337.616C255.946 346.88 265.909 356.144 275.93 365.408C275.581 368.088 274.823 371.467 273.309 375.137C270.978 380.847 267.774 384.984 265.443 387.547C262.122 381.197 257.519 373.739 251.169 366.165C240.449 353.289 228.971 345.016 220.406 339.889C241.381 330.916 269.754 315.593 297.313 289.608C310.713 276.907 321.317 264.206 329.59 252.786Z" fill="#6D6C6C"/>
<path opacity="0.19" d="M344.505 276.557C341.592 273.411 322.89 286.112 313.801 292.171C296.672 303.649 271.561 319.671 237.652 339.073C250.761 348.103 263.87 357.192 276.979 366.223C266.958 356.668 256.878 347.113 246.857 337.558C250.062 335.985 255.48 333.363 262.239 330.159C273.6 324.74 285.835 319.089 302.265 311.398C305.12 310.058 313.509 306.096 324.113 300.153C331.046 296.25 337.863 292.171 342.291 284.189C343.573 281.917 345.787 277.955 344.505 276.557Z" fill="#6D6C6C"/>
<path d="M320.733 128.338C317.82 125.191 311.761 126.473 308.731 127.114C298.302 129.27 292.418 135.504 282.688 144.068C277.444 148.671 269.812 155.022 259.966 162.246C257.052 149.137 254.198 136.087 251.284 122.977C252.45 121.521 254.372 118.666 255.013 114.704C255.363 112.607 256.237 105.207 251.168 100.546C245.575 95.3611 235.437 96.1185 230.776 101.479C226.057 106.897 228.504 115.17 229.669 119.132C230.776 122.861 232.466 125.716 233.806 127.58C233.398 131.717 232.99 137.718 233.398 144.942C233.806 152.691 234.272 160.615 237.942 169.354C240.914 176.404 244.468 184.852 251.984 187.94C260.14 191.319 268.588 186.484 285.077 176.754C310.945 161.489 317.121 148.846 318.577 145.758C320.151 142.437 324.637 132.591 320.733 128.338Z" fill="white" stroke="#161616" stroke-width="2" stroke-miterlimit="10"/>
<path d="M249.479 117.267C247.498 115.578 245.401 113.655 244.701 111.033C244.41 109.868 244.177 108.237 246.333 108.528C246.857 108.586 247.615 109.227 248.022 109.519C249.246 110.334 250.353 111.383 251.343 112.432C251.751 112.84 252.334 112.199 251.984 111.791C250.702 110.393 245.517 105.032 243.944 108.47C242.371 111.966 246.624 115.927 248.896 117.792C249.304 118.258 249.887 117.617 249.479 117.267Z" fill="#161616"/>
<path d="M230.019 102.586C230.311 106.839 231.651 113.306 237.36 112.374C237.943 112.257 237.652 111.442 237.127 111.558C232.059 112.374 231.126 106.198 230.893 102.586C230.835 102.061 229.961 102.061 230.019 102.586Z" fill="#161616"/>
<path d="M235.845 98.9731C238.351 102.469 238.933 106.664 237.535 110.742C237.36 111.267 238.176 111.5 238.351 110.975C239.807 106.722 239.166 102.178 236.544 98.507C236.253 98.0409 235.496 98.507 235.845 98.9731Z" fill="#161616"/>
<path d="M242.371 97.5169C244.585 101.595 244.061 106.431 241.031 109.985C240.681 110.393 241.264 111.034 241.672 110.626C244.935 106.839 245.575 101.537 243.128 97.1091C242.895 96.5847 242.138 97.0508 242.371 97.5169Z" fill="#161616"/>
<path d="M249.595 100.488C250.586 102.702 250.062 105.207 248.314 106.839C247.906 107.247 248.547 107.829 248.955 107.48C250.994 105.557 251.576 102.586 250.411 100.022C250.12 99.4977 249.362 99.9639 249.595 100.488Z" fill="#161616"/>
<path opacity="0.17" d="M235.671 98.0416C236.661 97.7502 237.885 97.4007 239.05 97.8668C242.196 99.1485 243.594 105.616 240.798 108.995C239.691 110.393 238.118 110.918 237.127 111.209C237.185 112.199 237.244 113.831 237.36 115.87C237.36 115.87 237.652 121.288 238.001 125.891C238.933 138.243 239.866 150.012 244.876 162.247C246.449 166.15 249.129 171.627 253.674 177.803C256.004 177.337 260.724 176.171 266.258 173.841C298.011 160.382 313.975 124.609 319.627 127.522C320.676 128.047 321.549 130.086 321.666 130.435C322.715 132.999 322.19 135.504 321.375 138.184C319.277 144.943 316.073 149.895 315.141 151.293C311.703 156.42 308.44 159.741 307.566 160.615C303.721 164.461 300.284 166.791 293.933 170.87C282.048 178.444 276.105 182.231 272.085 183.862C263.928 187.183 256.995 190.038 250.586 187.008C246.741 185.202 244.818 182.114 242.021 177.453C236.079 167.432 234.972 157.644 234.098 148.555C233.573 143.37 233.224 136.262 233.806 127.755C230.544 122.512 229.262 117.792 228.679 114.821C227.922 110.918 227.339 107.655 228.97 104.101C229.437 103.402 231.418 99.2651 235.671 98.0416Z" fill="#6D6C6C"/>
<path opacity="0.2" d="M321.782 133.348C321.141 133.057 319.16 136.087 317.063 139.233C314.033 143.836 312.518 146.166 310.013 151.41C302.963 166.208 279.484 178.152 276.454 179.725C271.676 182.114 264.801 185.085 255.946 187.183C251.867 183.454 244.351 175.705 240.098 164.752C237.768 158.751 236.894 152.808 236.719 151.818C236.078 147.681 236.02 144.476 235.962 140.806C235.903 135.737 236.078 131.309 236.428 127.755C235.146 125.366 233.922 122.628 232.757 119.715C230.776 114.646 229.494 109.927 228.679 105.79C228.446 109.053 228.504 113.889 230.135 119.424C231.184 122.919 232.524 125.774 233.806 127.93C232.699 137.368 233.107 145.234 233.806 150.827C233.806 150.827 235.379 163.761 242.137 178.094C243.244 180.424 244.817 183.396 248.022 185.726C252.159 188.698 256.586 188.931 257.985 188.931C260.315 188.989 262.995 188.639 273.657 183.046C282.921 178.21 289.33 174.074 291.719 172.501C296.205 169.588 298.419 168.073 300.808 166.208C305.702 162.305 313.684 155.896 318.578 145.409C321.083 139.932 322.598 133.756 321.782 133.348Z" fill="#6D6C6C"/>
<path d="M325.978 114.588C314.675 122.337 301.041 134.572 295.332 152.866C291.137 166.325 293.875 175.355 293.293 197.087C292.943 209.497 291.661 227.5 287.117 249.524C289.797 252.378 305.761 268.634 330.347 268.051C345.612 267.701 356.565 261.001 361.226 257.738C357.731 235.832 358.663 218.353 360.178 206.293C362.916 184.911 370.024 172.501 369.966 148.147C369.966 136.261 368.334 126.532 366.936 120.064C363.848 117.734 357.964 113.947 349.691 112.316C338.621 110.276 329.707 113.131 325.978 114.588Z" fill="white" stroke="#161616" stroke-width="2" stroke-miterlimit="10"/>
<path opacity="0.13" d="M343.281 112.432C343.398 118.142 343.398 126.531 342.465 136.552C341.417 148.496 338.97 164.926 328.657 197.029C323.181 214.1 315.199 236.298 303.779 261.817C310.13 265.254 315.781 266.711 319.568 267.351C333.61 269.74 344.971 265.487 350.389 263.39C355.167 261.525 358.896 259.428 361.459 257.855C360.469 251.854 359.42 243.639 359.07 233.734C358.895 229.073 358.604 213.867 362.216 192.659C365.537 173.083 368.159 172.034 369.732 159.042C371.655 142.787 369.383 128.978 366.994 119.54C364.081 117.617 359.536 115.054 353.535 113.597C349.574 112.665 346.02 112.432 343.281 112.432Z" fill="#6D6C6C"/>
<path opacity="0.15" d="M353.127 114.006C353.71 124.901 353.943 139.058 352.72 155.488C352.137 163.529 350.855 179.551 346.777 197.379C343.106 213.576 335.474 238.163 318.345 266.129C322.598 267.119 328.774 268.051 336.115 267.294C348 266.07 356.623 261.176 360.993 258.205C357.497 233.385 359.128 213.926 361.401 200.525C363.556 187.824 366.062 181.532 367.751 167.724C370.14 147.74 368.45 131.076 366.586 119.89C365.246 118.667 363.032 116.86 359.886 115.52C357.206 114.53 354.817 114.18 353.127 114.006Z" fill="#6D6C6C"/>
<path d="M358.605 121.696C366.994 121.696 377.948 122.57 390.358 125.832C406.205 130.027 418.382 136.553 426.48 141.796C429.16 149.021 434.054 165.334 429.51 184.91C427.238 194.815 423.276 202.447 419.897 207.691C419.664 213.634 421.004 217.537 422.344 220.043C423.859 223.014 426.189 225.694 425.257 228.199C424.791 229.481 423.625 230.239 422.752 230.705C422.693 230.88 421.994 232.22 420.421 232.627C418.615 233.035 417.333 231.87 417.217 231.753C416.867 232.045 415.352 233.501 412.963 233.501C410.342 233.56 408.71 231.87 408.419 231.579C407.895 231.812 406.613 232.161 405.04 231.87C402.884 231.462 401.719 229.947 401.369 229.539C400.146 228.549 397 225.578 396.708 221.208C396.592 219.577 396.941 218.062 397.873 215.79C399.039 212.993 401.427 208.39 406.496 203.554C408.069 196.213 409.235 186.717 408.594 175.705C408.244 170.054 407.487 164.985 406.555 160.499C397.699 157.236 386.745 154.148 373.986 152.575C368.859 151.934 363.965 151.643 359.42 151.584C351.671 147.331 347.826 139.116 349.632 132.008C351.497 125.425 357.498 122.278 358.605 121.696Z" fill="white" stroke="#161616" stroke-width="2" stroke-miterlimit="10"/>
<path d="M399.563 216.605C398.572 221.149 398.456 225.81 401.311 229.714C401.66 230.18 402.418 229.714 402.068 229.248C399.33 225.519 399.446 221.149 400.379 216.838C400.495 216.314 399.679 216.022 399.563 216.605Z" fill="#161616"/>
<path d="M404.69 218.644C404.749 223.014 405.448 228.199 408.361 231.637C408.711 232.045 409.351 231.462 409.002 230.996C406.264 227.791 405.623 222.723 405.564 218.644C405.564 218.062 404.69 218.062 404.69 218.644Z" fill="#161616"/>
<path d="M410.866 219.402C411.274 223.771 412.964 229.423 416.867 231.928C417.333 232.219 417.799 231.462 417.333 231.171C413.721 228.84 412.148 223.422 411.74 219.402C411.682 218.819 410.808 218.819 410.866 219.402Z" fill="#161616"/>
<path d="M415.993 219.926C416.692 224.296 418.906 228.141 422.285 230.996C422.693 231.346 423.334 230.763 422.926 230.355C419.605 227.617 417.566 223.888 416.867 219.693C416.75 219.111 415.934 219.344 415.993 219.926Z" fill="#161616"/>
<path opacity="0.17" d="M350.797 130.144C360.702 129.328 377.656 129.328 396.708 136.611C407.894 140.922 416.576 146.457 422.693 151.176C426.247 184.677 421.237 198.952 415.585 205.652C414.362 207.05 409.526 212.41 408.943 220.101C408.477 225.927 410.516 233.035 413.371 233.443C414.536 233.618 415.643 232.627 416.517 231.637C418.207 232.86 419.489 232.802 419.955 232.685C420.363 232.627 420.945 232.452 423.159 230.763C424.907 229.423 425.781 228.724 425.956 228.374C427.063 226.218 424.033 223.305 422.052 219.518C420.77 217.071 419.489 213.342 419.663 207.866C423.684 201.457 431.258 187.241 431.316 168.014C431.374 156.828 428.811 147.739 426.597 141.738C421.411 138.3 416.809 135.97 413.429 134.397C412.555 133.989 412.439 133.872 398.106 128.571C392.105 126.357 390.882 125.89 388.61 125.366C385.463 124.609 385.289 124.842 378.064 123.618C374.335 122.977 370.607 122.511 366.878 121.87C365.887 121.696 362.159 121.113 358.896 122.103C358.43 122.278 357.323 122.569 356.099 123.385C355.808 123.618 354.934 124.201 353.71 125.541C352.953 126.59 351.846 128.046 350.797 130.144Z" fill="#6D6C6C"/>
<path opacity="0.14" d="M426.014 142.554C427.121 152.866 427.237 161.606 427.121 168.131C426.946 176.346 426.829 181.065 425.315 187.474C423.334 195.922 419.896 203.38 419.547 204.137C417.741 207.924 417.449 207.924 416.459 210.604C415.06 214.391 412.264 221.791 415.585 227.5C415.993 228.258 418.323 232.278 421.586 231.928C424.616 231.637 426.189 227.675 426.247 227.5C424.849 225.112 423.334 222.024 422.052 218.411C420.945 215.207 420.246 212.236 419.838 209.73C423.217 204.312 427.354 196.33 429.626 185.959C433.879 166.092 428.752 149.778 426.014 142.554Z" fill="#6D6C6C"/>
<path d="M312.344 74.7943C299.527 76.8335 295.681 94.8948 295.273 96.701C294.399 100.779 292.127 111.441 299.177 119.365C306.11 127.172 316.831 126.298 318.171 126.182C320.851 125.949 327.201 124.842 332.037 119.831C340.543 111.15 339.611 95.7687 332.794 85.9807C331.979 84.8737 323.472 73.0464 312.344 74.7943Z" fill="#303030"/>
<path d="M319.336 97.8081C319.045 100.313 320.268 101.595 323.531 108.412C326.094 113.772 327.784 118.258 328.833 121.113C330.93 121.579 336.465 122.57 342.641 119.948C346.836 118.2 349.516 115.52 350.914 113.889C349.05 110.859 346.544 106.373 344.505 100.605C341.301 91.7489 342.058 88.3114 339.145 86.5635C333.319 83.2426 320.152 90.2923 319.336 97.8081Z" fill="white" stroke="#161616" stroke-width="2" stroke-miterlimit="10"/>
<path d="M308.382 33.3115C303.838 36.4577 302.207 41.177 299.06 50.3242C295.506 60.6949 293.176 69.7255 292.593 76.1344C292.477 77.0666 293.06 77.9988 293.992 78.3484C295.215 78.8145 297.254 78.8144 298.42 78.9892C298.536 81.8441 299.061 85.8059 300.867 90.1174C304.421 98.6819 310.713 103.459 313.626 105.324C317.238 105.673 326.327 106.081 335.3 100.605C341.242 96.9341 344.33 92.3896 345.03 91.2826C349.574 84.3494 349.982 77.4162 349.982 74.4448C351.38 74.3283 353.594 73.9787 355.75 72.5221C360.178 69.5507 363.499 62.6758 360.702 58.8887C358.605 56.1504 353.361 55.393 348.409 57.84C348.292 55.6843 347.884 52.7129 346.777 49.2754C346.486 48.4597 344.447 42.1674 340.66 37.9143C333.319 29.7575 317.588 26.8444 308.382 33.3115Z" fill="white" stroke="#161616" stroke-width="2" stroke-miterlimit="10"/>
<path d="M323.006 107.072C328.774 106.548 333.959 104.159 338.096 100.081C338.912 99.265 337.63 98.0415 336.872 98.8571C333.085 102.644 328.366 104.858 323.006 105.383C321.899 105.383 321.841 107.13 323.006 107.072Z" fill="#161616"/>
<path d="M323.88 108.529C329.881 106.839 335.183 103.693 339.494 99.1485C340.252 98.3328 339.028 97.1093 338.271 97.925C334.193 102.236 329.182 105.266 323.472 106.839C322.307 107.13 322.773 108.82 323.88 108.529Z" fill="#161616"/>
<path d="M296.439 57.4323C295.623 56.6749 289.272 50.4408 290.205 41.2936C291.253 31.5638 299.701 26.9028 301.1 26.1454C308.557 22.067 315.898 23.7566 317.588 24.2227C320.21 22.5914 324.929 20.1444 331.163 19.387C340.427 18.2217 347.651 21.2513 350.564 22.7079C354.41 23.8732 359.886 26.1454 364.431 31.0394C370.781 37.8561 369.325 43.5076 375.85 54.9853C378.414 59.5297 378.297 58.0732 388.027 71.124C396.766 82.8347 401.136 88.7775 401.835 93.0889C403.292 102.527 398.223 112.315 391.931 118.083C379.696 129.27 357.905 129.736 347.535 118.491C338.97 109.228 340.893 95.0115 341.475 90.4671C342.524 82.7182 345.437 76.8337 347.535 73.3962C348.525 73.571 350.04 73.804 351.73 73.3962C354.934 72.6971 358.779 70.0752 359.478 65.8803C359.537 65.589 360.352 59.8793 356.274 57.7236C353.71 56.3836 350.331 56.9662 348.001 59.2384C345.088 58.248 340.252 56.3253 335.474 52.2469C330.697 48.1686 327.959 43.7989 326.56 41.0606C324.463 40.1284 320.326 38.7883 315.257 39.4292C305.294 40.711 299.934 48.8095 299.119 50.0912C298.245 52.48 297.312 54.927 296.439 57.4323Z" fill="#303030"/>
<path d="M309.431 62.8501C309.256 62.2675 309.14 61.7431 309.14 61.1605C309.14 60.8109 309.14 60.4613 309.198 60.1117C309.256 59.7622 309.431 59.5874 309.14 59.3543C308.732 59.063 308.965 59.6456 309.023 59.8787C309.023 60.17 309.023 60.4613 309.023 60.8109C309.023 61.1022 309.023 62.4422 308.732 62.617C308.965 62.5588 309.198 62.5588 309.431 62.5005C309.606 62.7336 309.664 62.7336 309.606 62.5005C309.606 62.3257 309.547 62.2092 309.547 62.0344C309.489 61.6848 309.431 61.3935 309.431 61.0439C309.431 60.4031 309.489 59.7622 309.839 59.2378C310.421 58.2473 308.907 57.3734 308.324 58.3639C307.858 59.1795 307.683 60.1117 307.683 61.1022C307.683 61.9179 307.741 63.1414 308.266 63.7823C308.732 64.4232 309.606 64.3649 310.13 63.7823C310.771 63.0831 310.829 61.7431 310.887 60.8109C310.946 59.9952 311.004 58.8882 310.48 58.1891C310.013 57.5482 309.198 57.4317 308.557 57.8978C307.1 59.0048 307.392 61.8596 307.858 63.3744C308.033 64.3649 309.722 63.8988 309.431 62.8501Z" fill="#161616"/>
<path d="M305.353 55.3933C308.033 53.2959 312.053 53.8785 313.975 56.6168C314.441 57.316 315.607 56.6168 315.082 55.9759C312.577 52.4802 307.741 51.8393 304.362 54.4611C303.779 54.9855 304.712 55.9177 305.353 55.3933Z" fill="#161616"/>
<path d="M300.109 86.3305C303.838 85.1652 307.042 83.0678 309.547 80.1547C310.072 79.5138 309.198 78.5816 308.615 79.2225C306.226 82.0191 303.255 84 299.759 85.107C298.943 85.2818 299.293 86.5635 300.109 86.3305Z" fill="#161616"/>
<path d="M309.373 68.5019C309.373 68.3271 309.315 68.3854 309.198 68.735C309.082 68.7932 308.965 68.7932 308.849 68.8515C308.849 68.8515 308.849 68.8515 308.907 68.8515C308.79 68.7932 308.674 68.7932 308.557 68.735L308.499 68.6767C308.441 68.5602 308.383 68.5019 308.324 68.3854C308.324 68.4436 308.324 68.4436 308.324 68.3271C308.383 68.2106 308.383 68.0941 308.441 67.9775C308.499 67.9193 308.616 67.8028 308.674 67.7445C308.849 67.7445 309.023 67.6862 309.198 67.6862C309.198 67.6862 309.198 67.6862 309.14 67.6862C308.324 67.5114 307.975 68.735 308.79 68.968C309.548 69.1428 309.956 68.2106 309.431 67.6862C309.198 67.4532 308.79 67.4532 308.499 67.5697C308.208 67.7445 308.091 68.0941 308.091 68.4437C308.033 69.3759 309.373 69.3758 309.373 68.5019Z" fill="#161616"/>
<path d="M315.141 63.6663C315.141 63.6663 315.199 63.6663 315.199 63.6081C315.316 63.6081 315.433 63.6081 315.549 63.6081C315.84 63.6663 315.957 64.0159 315.782 64.249C315.724 64.3072 315.607 64.4237 315.549 64.482C315.491 64.482 315.433 64.5403 315.316 64.5403C315.2 64.482 315.083 64.482 314.966 64.4237L314.908 64.3655C314.85 64.249 314.792 64.1907 314.733 64.0742C314.733 63.8994 314.733 63.7829 314.85 63.6663C314.966 63.6081 315.025 63.5498 315.141 63.4916C315.2 63.4916 315.2 63.4916 315.258 63.4916C314.908 63.4333 314.617 63.8411 314.617 64.1324C314.617 64.5403 314.908 64.7151 315.258 64.7733C315.724 64.8316 316.073 64.3655 316.073 63.8994C316.073 63.375 315.491 63.0255 315.025 63.2003C314.034 63.6081 314.908 65.2977 315.782 64.6568C316.073 64.482 316.19 64.0742 316.015 63.7829C315.899 63.6081 315.433 63.4916 315.141 63.6663Z" fill="#161616"/>
<path d="M315.024 69.9589C315.257 70.0754 315.257 70.425 315.024 70.5415C314.675 70.3667 314.383 70.1919 314.034 69.9589C314.034 70.1337 314.034 70.3085 314.034 70.4833C314.325 70.2502 314.558 70.0754 314.849 69.8424C314.908 69.9589 314.908 70.0172 314.966 70.0754C314.908 69.7259 314.675 69.4345 314.325 69.4345C313.975 69.4345 313.626 69.7259 313.684 70.0754C313.742 70.5415 314.034 71.0076 314.5 71.0659C314.908 71.1241 315.315 70.8911 315.315 70.425C315.315 70.2502 315.315 70.0754 315.315 69.9006C315.315 69.3763 314.733 69.085 314.325 69.318C313.684 69.6676 313.684 70.5998 314.325 71.0076C315.141 71.4737 315.782 70.3667 315.024 69.9589Z" fill="#161616"/>
<path opacity="0.15" d="M326.152 40.8857C327.142 44.0319 328.366 48.5764 329.356 54.1113C331.454 65.7055 333.493 76.1928 329.356 86.68C325.802 95.7689 319.394 101.828 314.325 105.44C318.403 105.266 323.355 104.683 328.832 103.11C331.454 102.353 333.843 101.479 335.998 100.605C336.814 103.634 337.63 107.713 337.63 112.607C337.63 116.044 337.222 119.074 336.756 121.521C337.863 121.579 339.96 121.579 342.291 120.647C344.388 119.773 345.786 118.55 346.602 117.792C347.826 119.074 349.748 120.705 352.312 122.278C361.576 127.755 371.247 126.298 373.927 125.832C376.258 125.424 388.201 123.211 395.95 112.432C398.106 109.461 402.359 103.46 401.66 95.0698C401.019 87.2043 396.3 82.0773 394.669 80.3877C393.795 82.5434 391.406 87.4374 386.104 91.1079C385.114 91.8071 376.899 97.2838 367.169 94.6619C358.138 92.2732 351.263 83.7669 349.981 73.3962C350.855 73.3962 352.312 73.3379 353.943 72.697C354.759 72.3474 357.614 71.0074 358.954 67.6864C359.187 67.0456 360.294 64.249 358.954 61.2193C358.721 60.695 357.264 57.4323 353.768 56.9079C350.622 56.4418 348.292 58.5975 348.059 58.8888C344.621 57.7818 338.62 55.3931 333.027 49.9747C329.648 46.7702 327.492 43.4493 326.152 40.8857Z" fill="#424242"/>
<path opacity="0.23" d="M353.885 72.5215C351.671 71.9971 349.457 71.4728 347.243 70.8901C346.369 72.1136 345.146 73.9198 343.864 76.2503C340.718 81.9017 340.077 85.3975 338.329 89.301C336.931 92.4472 334.426 96.7004 329.765 101.128C332.445 100.196 335.125 99.2056 337.805 98.2734C339.087 100.895 341.184 106.081 340.66 112.781C340.427 115.985 339.669 118.665 338.854 120.646C341.475 119.772 344.097 118.84 346.719 117.966C345.437 116.277 343.689 113.655 342.408 110.101C340.601 105.032 340.718 100.837 340.776 97.0499C340.835 95.3603 341.068 90.0585 343.107 83.4748C344.389 79.4547 345.903 76.192 347.243 73.8033C348.117 73.9198 349.457 73.978 350.972 73.6285C352.196 73.3372 353.186 72.9293 353.885 72.5215Z" fill="#6D6C6C"/>
<path opacity="0.25" d="M298.245 87.9036C297.72 89.2436 295.157 96.2351 298.769 103.168C301.507 108.47 308.091 114.18 314.849 112.432C319.394 111.267 321.841 107.305 322.657 105.965C324.871 111.267 327.084 116.569 329.298 121.871C328.716 122.337 327.784 123.036 326.618 123.677C318.287 128.454 309.081 125.425 308.382 125.191C306.576 124.551 300.925 122.511 297.254 116.743C293.817 111.267 294.166 105.732 294.458 101.479C294.807 95.3611 296.788 90.7002 298.245 87.9036Z" fill="#424242"/>
<path d="M2.56339 231.113C22.1978 230.122 40.7835 237.055 58.3787 244.979C76.207 253.019 93.5692 261.758 112.446 267.119C123.574 270.323 134.994 272.479 146.53 273.819C147.637 273.935 147.637 272.187 146.53 272.071C125.555 269.682 105.163 264.089 85.8203 255.641C68.5164 248.067 51.7951 238.92 33.6172 233.501C23.5378 230.472 13.1089 228.84 2.56339 229.365C1.39814 229.365 1.39814 231.113 2.56339 231.113Z" fill="#161616"/>
<path d="M116.058 241.134C150.608 256.573 189.411 254.651 225.883 248.242C237.302 246.261 248.664 243.872 259.967 241.425C261.074 241.192 260.607 239.503 259.5 239.736C222.504 247.601 184.225 255.583 146.471 248.65C136.334 246.785 126.371 243.814 116.991 239.619C115.942 239.211 115.068 240.726 116.058 241.134Z" fill="#161616"/>
<path d="M385.93 367.213C410.808 376.885 437.55 368.903 461.088 359.29C473.789 354.104 486.316 348.395 499.425 344.141C512.708 339.888 526.4 336.859 540.267 335.227C555.648 333.421 571.204 333.305 586.643 334.761C587.75 334.878 587.75 333.13 586.643 333.013C560.017 330.45 532.984 332.78 507.232 339.947C481.072 347.288 457.359 361.678 430.792 367.505C416.109 370.709 400.612 371 386.396 365.524C385.347 365.116 384.881 366.806 385.93 367.213Z" fill="#161616"/>
<path d="M548.889 308.31C582.39 298.464 618.513 299.338 651.489 310.816C652.538 311.165 653.004 309.476 651.955 309.126C618.688 297.59 582.215 296.716 548.423 306.621C547.374 306.912 547.841 308.602 548.889 308.31Z" fill="#161616"/>
<path d="M338.679 40.711C351.205 38.1475 363.731 35.5257 376.491 34.4187C389.309 33.3117 401.893 34.1274 414.478 36.5161C438.599 41.1771 462.078 48.7512 486.665 51.1982C500.124 52.5383 513.699 52.3052 526.983 49.6252C528.09 49.3921 527.624 47.7025 526.517 47.9356C501.755 52.9461 476.527 48.9843 452.232 43.4493C428.053 37.9727 404.399 30.6316 379.288 32.3795C365.421 33.37 351.788 36.1666 338.213 38.9632C337.106 39.2545 337.572 40.9441 338.679 40.711Z" fill="#161616"/>
<path d="M418.323 51.0819C457.068 63.7831 497.735 74.8529 538.927 70.3085C549.938 69.085 560.833 66.6962 571.321 63.0839C572.369 62.7344 571.903 61.0448 570.854 61.3943C532.226 74.853 490.569 69.9006 451.883 59.4717C440.755 56.5003 429.743 53.0045 418.848 49.4505C417.741 49.0427 417.275 50.7323 418.323 51.0819Z" fill="#161616"/>
</svg>
