<svg width="755" height="708" viewBox="0 0 755 708" fill="none" xmlns="http://www.w3.org/2000/svg">
<path d="M454.828 57.6786C438.973 67.0625 434.442 83.2416 432.566 89.9074C432.113 91.5253 426.806 111.393 435.996 132.103C438.714 138.251 441.626 144.593 448.227 147.635C452.045 149.447 455.475 149.317 468.936 148.152C475.214 147.635 482.009 146.987 489.257 146.211C494.37 139.674 503.171 126.602 505.76 108.222C506.213 104.792 511.52 63.8913 489.257 53.019C474.696 45.8354 457.158 56.2548 454.828 57.6786Z" fill="#8E8E8E"/>
<path d="M162.05 154.171C170.128 154.171 176.676 146.927 176.676 137.992C176.676 129.056 170.128 121.813 162.05 121.813C153.973 121.813 147.424 129.056 147.424 137.992C147.424 146.927 153.973 154.171 162.05 154.171Z" fill="#898989"/>
<path d="M493.723 413.426C499.728 413.426 504.595 408.732 504.595 402.942C504.595 397.151 499.728 392.458 493.723 392.458C487.718 392.458 482.851 397.151 482.851 402.942C482.851 408.732 487.718 413.426 493.723 413.426Z" fill="#898989"/>
<path d="M162.18 350.133C166.648 350.133 170.269 346.511 170.269 342.043C170.269 337.576 166.648 333.954 162.18 333.954C157.712 333.954 154.09 337.576 154.09 342.043C154.09 346.511 157.712 350.133 162.18 350.133Z" fill="#898989"/>
<path d="M147.101 148.799C154.213 148.799 159.979 142.744 159.979 135.274C159.979 127.804 154.213 121.748 147.101 121.748C139.988 121.748 134.222 127.804 134.222 135.274C134.222 142.744 139.988 148.799 147.101 148.799Z" fill="#262626"/>
<path d="M490.746 396.858C495.142 396.858 498.706 393.149 498.706 388.574C498.706 383.999 495.142 380.291 490.746 380.291C486.35 380.291 482.786 383.999 482.786 388.574C482.786 393.149 486.35 396.858 490.746 396.858Z" fill="#262626"/>
<path d="M597.14 168.409C601.965 168.409 605.877 164.236 605.877 159.089C605.877 153.943 601.965 149.77 597.14 149.77C592.315 149.77 588.403 153.943 588.403 159.089C588.403 164.236 592.315 168.409 597.14 168.409Z" fill="#262626"/>
<path d="M407.391 226.006C405.967 223.741 403.637 225.877 402.666 227.43C400.66 230.666 399.366 234.678 400.854 238.367C401.954 241.15 404.672 243.48 407.844 243.027C410.756 242.639 412.956 240.244 412.891 237.332C412.891 236.555 411.791 235.973 411.209 236.62C407.779 240.956 403.572 247.104 407.002 252.67C409.397 256.488 415.286 257.006 417.616 252.864C417.033 252.799 416.451 252.734 415.868 252.605C416.192 254.417 416.516 256.229 416.774 258.041C416.969 259.271 418.845 258.753 418.651 257.523C418.328 255.711 418.004 253.899 417.745 252.087C417.616 251.246 416.321 251.181 415.998 251.828C414.962 253.64 412.633 254.287 410.756 253.381C408.685 252.346 407.779 250.016 407.779 247.751C407.779 243.998 410.432 240.697 412.633 237.914C412.05 237.655 411.532 237.461 410.95 237.202C411.015 239.662 408.62 241.474 406.226 240.956C404.414 240.568 403.249 239.014 402.602 237.332C401.954 235.584 402.019 233.837 402.537 232.09C402.601 231.96 405.255 226.2 405.643 226.848C406.355 228.013 408.038 227.042 407.391 226.006Z" fill="#3A3A3A"/>
<path d="M143.153 231.831C144.577 227.948 149.301 229.631 150.79 232.349C151.308 233.255 151.566 234.29 151.696 235.326C151.955 237.267 151.761 238.044 150.078 239.209C148.266 241.021 147.813 240.309 148.784 237.073C149.237 236.879 149.754 236.685 150.207 236.491C151.437 236.167 152.861 236.232 154.09 236.62C157.197 237.655 158.75 240.956 158.297 243.998C158.167 244.774 158.944 245.551 159.721 245.098C163.927 242.703 169.493 245.357 170.464 250.081C170.722 251.311 172.599 250.793 172.34 249.563C171.111 243.609 164.057 240.503 158.75 243.48C159.203 243.868 159.721 244.192 160.174 244.58C161.015 238.885 156.679 233.578 150.66 234.484C148.589 234.808 145.483 236.102 145.224 238.561C145.03 240.568 146.907 242.056 148.784 242.25C154.349 242.768 154.22 234.678 152.408 231.443C149.948 227.042 143.153 225.942 141.212 231.378C140.823 232.478 142.7 232.996 143.153 231.831Z" fill="#3A3A3A"/>
<path d="M483.886 475.424C488.869 478.725 493.076 482.931 496.441 487.85C497.153 488.885 498.835 487.914 498.123 486.879C494.564 481.701 490.163 477.301 484.921 473.806C483.821 473.029 482.85 474.712 483.886 475.424Z" fill="#3A3A3A"/>
<path d="M496.506 478.984C497.541 480.213 498.512 481.508 499.547 482.737C500.324 483.708 501.683 482.349 500.907 481.378C499.871 480.148 498.9 478.854 497.865 477.625C497.088 476.654 495.729 478.078 496.506 478.984Z" fill="#3A3A3A"/>
<path d="M490.552 460.863C495.017 465.005 498.706 469.729 501.554 475.1C502.136 476.201 503.819 475.23 503.236 474.13C500.324 468.629 496.506 463.71 491.911 459.504C491.005 458.598 489.646 460.022 490.552 460.863Z" fill="#3A3A3A"/>
<path d="M43.1014 533.734C44.5252 547.777 46.9844 561.627 50.4144 575.347C50.738 576.576 52.6147 576.059 52.2912 574.829C48.9259 561.303 46.4667 547.583 45.0429 533.734C44.9135 532.504 42.972 532.504 43.1014 533.734Z" fill="#E8E8E8"/>
<path d="M50.8026 575.994C63.5518 579.294 76.8187 579.294 89.5679 575.994C90.7975 575.67 90.2798 573.793 89.0501 574.117C76.6246 577.353 63.7459 577.353 51.3204 574.117C50.1555 573.793 49.6377 575.67 50.8026 575.994Z" fill="#E8E8E8"/>
<path d="M91.0564 574.053C91.8977 560.268 92.9979 546.483 94.2922 532.699C94.4216 531.469 92.4801 531.469 92.3507 532.699C91.0564 546.483 89.9562 560.268 89.1149 574.053C89.0501 575.282 90.9916 575.282 91.0564 574.053Z" fill="#E8E8E8"/>
<path d="M44.2011 534.77C60.3156 538.07 76.883 537.941 92.9974 534.316C94.2271 534.058 93.7093 532.181 92.4797 532.44C76.7536 535.934 60.5097 536.129 44.7189 532.893C43.4893 532.634 42.9715 534.511 44.2011 534.77Z" fill="#E8E8E8"/>
<path d="M44.0072 539.429C44.5249 542.082 47.8902 541.953 49.9611 542.147C55.2032 542.6 60.5099 542.729 65.752 542.6C70.7999 542.47 75.8478 542.082 80.8957 541.5C84.9081 540.982 88.7911 540.464 92.3505 538.458C93.4507 537.876 92.4799 536.193 91.3797 536.775C84.9728 540.335 76.1066 540.205 68.9231 540.529C65.3637 540.658 61.7395 540.723 58.1801 540.658C56.3033 540.594 46.2723 541.047 45.884 538.911C45.6251 537.681 43.813 538.199 44.0072 539.429Z" fill="#E8E8E8"/>
<path d="M47.696 561.886C50.8024 567.387 54.7501 572.241 59.4744 576.447C60.3804 577.288 61.8042 575.929 60.8334 575.088C56.1738 571.011 52.3556 566.287 49.3786 560.915C48.7961 559.815 47.1135 560.786 47.696 561.886Z" fill="#E8E8E8"/>
<path d="M45.1724 546.936C51.7735 558.067 59.7984 568.292 68.9881 577.482C69.8942 578.388 71.2532 576.964 70.3472 576.123C61.2868 567.063 53.3914 556.967 46.855 545.965C46.2079 544.93 44.5252 545.9 45.1724 546.936Z" fill="#E8E8E8"/>
<path d="M55.9801 542.276C62.8401 554.508 70.8002 566.092 79.7958 576.9C80.5724 577.871 81.9315 576.512 81.1549 575.541C72.2887 564.863 64.3933 553.408 57.6628 541.306C57.0803 540.206 55.3977 541.176 55.9801 542.276Z" fill="#E8E8E8"/>
<path d="M68.3409 542.729C75.0068 552.696 81.7373 562.597 88.5325 572.499C89.2444 573.534 90.927 572.564 90.2151 571.528C83.4199 561.627 76.6894 551.725 70.0236 541.759C69.3117 540.723 67.6291 541.694 68.3409 542.729Z" fill="#E8E8E8"/>
<path d="M78.6954 542.147C82.0606 547.583 85.6847 552.89 89.4383 558.067C90.1502 559.038 91.8328 558.067 91.1209 557.097C87.3674 551.919 83.7432 546.613 80.378 541.176C79.7308 540.141 78.0482 541.112 78.6954 542.147Z" fill="#E8E8E8"/>
<path d="M22.7154 476.783C23.492 481.249 24.2686 485.779 25.1099 490.244C25.3688 491.474 25.5629 492.768 26.5984 493.545C27.3103 494.127 29.6401 494.063 30.0931 494.71C30.1578 494.321 30.2225 493.933 30.2225 493.545C29.2518 494.516 28.281 495.486 27.2456 496.392C26.9867 496.651 26.922 497.04 26.9867 497.363C27.5691 499.11 27.9574 501.699 29.1223 503.188C29.7048 503.964 30.7402 503.835 31.1933 504.288C31.5816 504.676 31.4521 504.417 31.258 505.582C31.1285 506.553 31.1285 507.588 31.258 508.624C31.4521 510.177 31.9051 511.665 32.4876 513.089C35.8528 521.244 42.3892 527.845 48.6667 533.928C49.5728 534.769 50.9318 533.41 50.0258 532.569C46.0134 528.686 42.0009 524.674 38.7004 520.143C35.4646 515.678 31.6463 509.659 33.6525 503.964C33.7819 503.641 33.6525 503.188 33.3936 502.993C32.164 502.023 30.9344 502.411 30.0931 500.858C28.4752 497.946 29.3812 496.975 31.4521 494.969C31.7757 494.71 31.8404 494.127 31.5816 493.804C31.0638 493.027 30.6755 492.768 29.8342 492.509C29.3165 492.315 28.5399 492.509 28.0221 492.25C26.922 491.668 26.922 490.244 26.7278 489.209C25.9512 484.938 25.1746 480.602 24.4627 476.33C24.3333 475.036 22.4565 475.554 22.7154 476.783Z" fill="#E8E8E8"/>
<path d="M24.139 476.524C49.3785 484.938 66.6578 508.494 67.1756 535.158C67.1756 536.387 69.1171 536.387 69.1171 535.158C68.5993 507.653 50.7376 483.384 24.6568 474.648C23.4919 474.259 22.9741 476.136 24.139 476.524Z" fill="#E8E8E8"/>
<path d="M62.9045 508.624C69.182 491.215 78.4365 474.389 93.2566 462.934C94.2273 462.157 93.2566 460.475 92.2858 461.251C77.0127 473.094 67.4993 490.18 61.0277 508.106C60.6394 509.271 62.5162 509.789 62.9045 508.624Z" fill="#E8E8E8"/>
<path d="M91.5738 462.546C92.0269 468.5 92.5446 474.454 92.9976 480.472C93.127 481.702 95.0685 481.702 94.9391 480.472C94.4861 474.518 93.9684 468.564 93.5153 462.546C93.4506 461.316 91.5091 461.316 91.5738 462.546Z" fill="#E8E8E8"/>
<path d="M93.8391 479.825C92.9978 480.019 92.1564 480.213 91.3798 480.472C90.1502 480.796 90.668 482.673 91.8976 482.349C92.7389 482.155 93.5802 481.961 94.3568 481.702C95.5864 481.378 95.0687 479.566 93.8391 479.825Z" fill="#E8E8E8"/>
<path d="M90.409 482.22C90.6678 483.449 91.7033 484.226 92.8682 484.355C93.3859 484.42 93.839 483.902 93.839 483.385C93.839 482.802 93.3859 482.479 92.8682 482.414C93.0624 482.414 92.8682 482.414 92.8035 482.414C92.7388 482.414 92.6093 482.349 92.7388 482.414C92.674 482.349 92.6093 482.349 92.5446 482.284C92.4152 482.22 92.674 482.414 92.4799 482.22C92.4152 482.155 92.4152 482.155 92.3505 482.09C92.4799 482.22 92.3505 482.09 92.3505 482.026C92.2857 481.961 92.2858 481.831 92.2858 481.961C92.2858 481.896 92.221 481.767 92.221 481.702C92.0916 481.184 91.5091 480.861 91.0561 481.055C90.5384 481.184 90.2795 481.702 90.409 482.22Z" fill="#E8E8E8"/>
<path d="M91.8975 483.643C91.9622 487.332 91.8328 490.956 91.4445 494.58C91.315 495.745 91.5092 498.463 90.7326 499.369C90.6679 499.434 89.503 499.628 89.2441 499.822C88.2734 500.599 89.6324 501.958 90.6032 501.181C90.9268 500.922 91.7034 501.181 92.2211 500.599C92.9977 499.822 92.8682 498.01 92.9977 497.104C93.5801 492.639 93.839 488.109 93.7743 483.578C93.839 482.414 91.8975 482.413 91.8975 483.643Z" fill="#E8E8E8"/>
<path d="M88.4674 501.505C90.5383 503.964 89.9559 508.041 89.7617 511.018C89.5028 514.448 88.9204 517.619 87.2378 520.596C84.8433 524.997 81.478 528.686 79.7306 533.475C79.2776 534.64 81.1544 535.158 81.6074 533.993C83.9372 527.715 89.3087 523.056 90.9266 516.455C92.0915 511.73 93.1917 504.158 89.8264 500.146C89.0498 499.24 87.6908 500.599 88.4674 501.505Z" fill="#E8E8E8"/>
<path d="M73.1943 534.381C75.0063 516.002 79.8601 498.075 87.6261 481.378C88.1438 480.278 86.4612 479.243 85.9434 480.408C78.048 497.493 73.0648 515.678 71.2528 534.446C71.1233 535.676 73.0648 535.611 73.1943 534.381Z" fill="#E8E8E8"/>
<path d="M35.0117 487.332C46.3371 501.57 54.6208 517.943 59.4745 535.417C59.7981 536.646 61.6749 536.129 61.3513 534.899C56.3681 517.037 47.8903 500.47 36.3707 485.973C35.5941 485.002 34.2351 486.361 35.0117 487.332Z" fill="#E8E8E8"/>
<path d="M36.2413 511.212C41.6775 510.889 46.7253 512.183 51.3202 515.031C52.3557 515.678 53.3911 513.995 52.291 513.348C47.4372 510.371 41.9363 508.947 36.2413 509.271C34.9469 509.336 34.9469 511.277 36.2413 511.212Z" fill="#E8E8E8"/>
<path d="M48.0846 502.54C47.6963 498.981 48.1493 495.551 49.5084 492.186C49.9614 491.021 48.0846 490.503 47.6316 491.668C46.2078 495.163 45.7548 498.787 46.1431 502.54C46.2725 503.77 48.214 503.77 48.0846 502.54Z" fill="#E8E8E8"/>
<path d="M69.0524 491.797C71.1881 497.039 74.2945 502.605 75.0711 508.171C75.2652 509.4 77.142 508.883 76.9479 507.653C76.1065 502.023 73.0001 496.457 70.9292 491.28C70.4762 490.115 68.5994 490.633 69.0524 491.797Z" fill="#E8E8E8"/>
<path d="M80.9602 497.946C82.837 495.81 84.649 493.286 87.0436 491.668C89.0498 490.309 91.2501 489.403 92.8033 487.526C93.5799 486.555 92.2209 485.196 91.4443 486.167C89.7617 488.173 87.3024 489.015 85.2962 490.568C83.0958 492.251 81.4132 494.516 79.6012 496.587C78.7598 497.557 80.1189 498.916 80.9602 497.946Z" fill="#E8E8E8"/>
<path d="M81.6079 533.734C84.7143 532.893 87.8854 532.569 91.1212 532.763C92.3509 532.828 92.3509 530.886 91.1212 530.822C87.6913 530.628 84.3907 530.951 81.0902 531.857C79.9253 532.181 80.3783 534.058 81.6079 533.734Z" fill="#E8E8E8"/>
<path d="M81.3485 534.511C84.9726 534.834 88.4673 534.381 91.962 533.281C93.1269 532.893 92.6092 531.016 91.4443 531.404C88.1437 532.44 84.7785 532.828 81.3485 532.569C80.1189 532.504 80.1189 534.446 81.3485 534.511Z" fill="#E8E8E8"/>
<path d="M45.0428 534.187C45.8841 534.187 46.6607 534.187 47.502 534.187C48.7317 534.187 48.7317 532.246 47.502 532.246C46.6607 532.246 45.8841 532.246 45.0428 532.246C43.8132 532.246 43.8132 534.187 45.0428 534.187Z" fill="#E8E8E8"/>
<path d="M92.4803 549.848C112.995 549.848 133.575 549.848 154.091 549.848C155.32 549.848 155.32 547.907 154.091 547.907C133.575 547.907 112.995 547.907 92.4803 547.907C91.2507 547.907 91.2507 549.848 92.4803 549.848Z" fill="#E8E8E8"/>
<path d="M439.749 537.035C451.98 537.035 464.147 537.035 476.378 537.035C477.608 537.035 477.608 535.093 476.378 535.093C464.147 535.093 451.98 535.093 439.749 535.093C438.519 535.093 438.519 537.035 439.749 537.035Z" fill="#E8E8E8"/>
<path d="M550.803 538.199C603.547 538.199 656.291 538.199 709.035 538.199C724.049 538.199 739.064 538.199 754.078 538.199C755.308 538.199 755.308 536.258 754.078 536.258C701.334 536.258 648.59 536.258 595.846 536.258C580.832 536.258 565.817 536.258 550.803 536.258C549.573 536.258 549.573 538.199 550.803 538.199Z" fill="#E8E8E8"/>
<path d="M472.69 325.735C467.772 335.895 462.465 345.862 456.835 355.634C456.576 356.152 456.77 356.993 457.417 357.058C485.18 361.264 510.032 375.049 533.977 388.963C535.077 389.61 536.048 387.927 534.947 387.28C510.808 373.301 485.828 359.452 457.87 355.181C458.064 355.634 458.258 356.152 458.452 356.605C464.148 346.832 469.39 336.866 474.308 326.706C474.891 325.605 473.273 324.57 472.69 325.735Z" fill="#E8E8E8"/>
<path d="M476.962 361.005C478.903 355.44 480.845 349.809 482.786 344.244C483.627 341.914 484.21 339.325 485.31 337.06C485.569 335.701 486.41 334.666 487.705 333.889C488.481 334.083 489.258 334.277 490.034 334.472C491.199 334.795 492.364 335.054 493.464 335.378C496.118 336.025 500.389 336.025 499.936 339.584C499.612 342.108 498.124 344.826 497.283 347.285C495.341 352.786 493.464 358.287 491.523 363.788C491.135 364.953 493.011 365.471 493.4 364.306C495.924 357.058 498.448 349.745 500.971 342.496C501.554 340.814 503.172 337.966 501.877 336.154C500.454 334.213 496.182 334.083 493.982 333.501C491.846 332.983 488.093 331.042 485.892 332.077C484.016 332.918 483.627 336.154 483.045 337.772C480.392 345.344 477.738 352.98 475.085 360.552C474.697 361.652 476.573 362.17 476.962 361.005Z" fill="#E8E8E8"/>
<path d="M501.942 367.93C506.084 359.193 510.291 350.392 514.432 341.655C516.503 337.254 518.574 332.918 520.71 328.518C521.681 326.511 522.457 324.117 523.687 322.24C524.722 320.622 524.981 320.234 526.793 320.946C527.764 321.334 528.929 322.305 529.77 322.887C530.87 323.664 532.618 324.505 533.394 325.541C534.365 326.77 533.977 328.065 533.394 329.618C532.618 331.689 531.453 333.695 530.482 335.701C528.347 340.102 526.211 344.503 523.946 348.903C519.674 357.252 515.209 365.536 510.614 373.755C509.967 374.855 511.65 375.826 512.297 374.725C517.927 364.759 523.299 354.663 528.346 344.438C530.87 339.39 533.653 334.213 535.789 328.971C537.277 325.152 534.042 323.599 531.194 321.593C528.929 320.04 525.369 316.48 522.91 319.393C521.357 321.205 520.516 324.246 519.48 326.447C518.186 329.1 516.956 331.754 515.662 334.472C510.485 345.344 505.307 356.216 500.195 367.089C499.742 368.06 501.424 369.095 501.942 367.93Z" fill="#E8E8E8"/>
<path d="M523.428 381.391C528.994 372.654 535.271 364.37 542.196 356.734C541.807 356.799 541.419 356.863 541.031 356.863C543.49 358.546 545.885 360.164 548.344 361.846C548.214 361.393 548.085 360.94 548.02 360.487C542.519 369.095 537.018 377.637 531.517 386.245C530.87 387.28 532.488 388.251 533.2 387.215C538.701 378.608 544.202 370.065 549.703 361.458C550.026 361.005 549.768 360.423 549.379 360.099C546.92 358.416 544.525 356.799 542.066 355.116C541.743 354.857 541.16 354.987 540.901 355.245C533.847 363.076 527.44 371.425 521.81 380.291C521.098 381.52 522.781 382.491 523.428 381.391Z" fill="#E8E8E8"/>
<path d="M600.635 319.845C594.163 317.386 590.086 310.914 591.251 303.99C592.416 296.936 599.341 290.658 606.459 294.865C611.378 297.777 613.902 304.378 612.025 309.749C610.084 315.509 603.741 318.939 597.852 318.033C596.623 317.839 596.105 319.716 597.334 319.91C604.259 320.945 611.572 317.127 613.902 310.267C616.232 303.407 612.478 295.124 605.748 292.341C597.852 289.105 590.669 295.9 589.31 303.472C587.886 311.497 592.61 318.875 600.053 321.722C601.282 322.175 601.8 320.298 600.635 319.845Z" fill="#E8E8E8"/>
<path d="M613.902 318.616C601.023 318.228 605.877 297.583 617.267 298.36C628.657 299.201 623.997 322.434 611.507 318.163C610.342 317.775 609.825 319.651 610.989 320.04C625.421 324.958 631.893 298.683 618.108 296.483C611.378 295.383 605.294 301.725 604.259 308.002C603.223 314.215 607.43 320.299 613.902 320.493C615.131 320.622 615.131 318.681 613.902 318.616Z" fill="#E8E8E8"/>
<path d="M604.259 260.047C603.159 258.883 602.641 257.006 603.482 255.582C604.323 254.223 606.394 253.576 607.689 254.611C608.854 255.517 609.112 257.459 608.012 258.43C606.718 259.594 604.647 259.012 603.417 258.041C602.447 257.265 601.088 258.624 602.058 259.4C604.065 260.954 607.171 261.73 609.307 259.853C611.248 258.106 611.054 254.87 609.113 253.188C607.106 251.44 603.935 251.958 602.253 253.899C600.376 256.1 600.893 259.4 602.835 261.407C603.741 262.313 605.1 260.954 604.259 260.047Z" fill="#E8E8E8"/>
<path d="M416.452 308.779C414.64 297.777 421.046 284.51 433.472 284.64C439.814 284.704 445.962 287.293 452.369 286.387C456.899 285.74 460.782 283.151 463.501 279.592C466.219 276.032 467.772 271.567 468.031 267.101C468.354 260.5 465.83 253.77 467.642 247.233C468.548 243.933 470.49 240.891 473.791 239.662C476.962 238.561 480.392 239.209 483.692 239.079C488.481 238.885 492.235 236.814 494.629 232.607C497.995 226.718 497.218 219.664 499.548 213.451C502.331 205.944 510.161 199.537 518.445 203.226C519.545 203.744 520.581 202.061 519.416 201.543C508.155 196.496 498.771 206.656 496.571 216.881C495.147 223.547 495.406 233.902 487.446 236.555C481.88 238.432 475.603 235.52 470.49 239.338C466.283 242.444 465.054 248.139 465.118 253.123C465.313 260.436 467.578 267.554 464.342 274.544C461.365 281.145 455.476 285.093 448.163 284.64C441.691 284.251 435.284 281.598 428.748 283.281C417.681 286.063 412.957 299.136 414.704 309.361C414.834 310.461 416.71 309.944 416.452 308.779Z" fill="#E8E8E8"/>
<path d="M498.253 262.636C495.859 257.2 499.159 252.023 504.401 250.275C508.219 248.981 512.426 248.916 515.727 246.328C518.315 244.321 519.157 241.797 518.833 238.562C518.509 235.52 518.509 233.125 520.904 231.054C522.91 229.307 525.563 228.66 528.152 228.53C535.271 228.272 545.043 231.896 550.221 224.971C552.615 221.735 551.903 217.723 553.003 214.099C554.492 209.051 559.346 205.944 564.523 206.203C565.752 206.268 565.752 204.326 564.523 204.262C560.575 204.068 556.757 205.556 554.039 208.404C550.673 211.963 551.126 215.975 550.091 220.441C547.308 232.672 530.288 224.065 522.263 227.883C519.286 229.307 516.891 231.831 516.633 235.196C516.309 239.144 518.121 242.38 514.109 245.098C511.973 246.522 509.514 246.975 507.054 247.557C502.977 248.528 498.965 249.758 496.894 253.705C495.211 256.812 495.211 260.371 496.635 263.542C497.088 264.772 498.706 263.736 498.253 262.636Z" fill="#E8E8E8"/>
<path d="M613.578 176.433C613.319 175.851 613.06 175.204 612.866 174.557C613.707 173.586 614.484 172.615 615.325 171.644C615.584 171.58 616.749 172.356 617.137 172.356C618.108 172.486 618.949 172.227 619.726 171.644C622.121 169.768 621.279 166.791 621.991 164.267C623.156 159.931 628.269 162.908 630.598 159.672C632.928 156.501 632.087 149.77 638.3 151.582C639.529 151.906 640.047 150.029 638.817 149.706C635.258 148.67 632.022 150.353 630.728 153.783C630.34 154.753 630.21 155.854 629.822 156.824C628.981 159.089 628.075 159.413 625.615 159.542C623.803 159.672 622.379 159.542 621.15 161.096C620.114 162.455 620.114 164.202 619.92 165.82C619.726 168.214 619.92 170.221 616.361 169.962C615.649 169.897 615.066 169.25 614.29 169.25C610.019 169.185 610.73 174.427 611.766 176.951C612.154 178.116 614.096 177.598 613.578 176.433Z" fill="#E8E8E8"/>
<path d="M625.745 181.805C624.71 180.446 622.962 176.498 626.004 175.463C627.104 175.075 628.528 175.528 629.693 175.528C630.728 175.528 631.634 175.528 632.476 174.816C635.064 172.745 633.187 169.056 634.546 166.467C636.747 162.261 641.148 165.561 644.254 163.361C646.454 161.808 647.037 158.831 647.425 156.371C647.619 155.142 645.742 154.624 645.548 155.854C645.095 158.766 644.577 162.002 640.953 162.325C639.077 162.52 637.653 161.872 635.905 162.714C633.058 164.073 632.152 166.597 632.087 169.509C632.023 171.968 632.605 173.198 628.463 173.392C627.945 173.392 627.428 173.262 626.91 173.262C625.421 173.392 624.127 174.169 623.286 175.398C621.474 177.987 622.509 180.964 624.321 183.229C625.163 184.2 626.522 182.776 625.745 181.805Z" fill="#E8E8E8"/>
<path d="M75.5243 216.882C80.8958 210.41 88.5324 205.103 97.3338 206.009C106.912 206.98 111.636 214.617 112.542 223.547C114.095 238.368 110.471 256.1 120.502 268.72C124.45 273.703 130.339 276.356 136.681 274.803C144.318 272.991 150.272 266.972 157.067 263.413C165.092 259.206 176.159 256.941 183.407 263.995C188.714 269.173 189.879 277.068 191.626 283.928C193.244 290.141 196.027 297.001 201.592 300.69C204.957 302.89 208.646 303.084 212.529 302.825C216.865 302.502 225.732 302.243 224.826 309.038C224.696 310.268 226.638 310.268 226.767 309.038C227.091 306.385 225.861 304.249 223.725 302.696C220.36 300.237 216.477 300.625 212.529 300.884C208.064 301.207 204.246 300.819 200.816 297.648C197.709 294.8 195.832 290.788 194.473 286.84C192.208 280.045 191.561 272.603 187.678 266.39C183.86 260.242 177.259 257.265 170.14 257.524C161.144 257.847 153.573 263.025 146.389 267.814C142.959 270.079 139.27 272.473 135.064 273.185C130.016 274.026 125.55 271.826 122.314 268.072C116.231 260.954 115.26 250.793 114.937 241.862C114.613 233.514 115.713 224.453 112.931 216.364C110.407 208.986 104 204.391 96.2983 204.003C87.3674 203.55 79.5367 208.921 74.0358 215.523C73.324 216.493 74.683 217.852 75.5243 216.882Z" fill="#E8E8E8"/>
<path d="M42.8423 316.739C52.9381 333.565 61.9337 350.974 69.8939 368.901C70.4116 370.066 72.0943 369.03 71.5765 367.93C63.6164 350.003 54.556 332.595 44.525 315.768C43.8778 314.668 42.1952 315.639 42.8423 316.739Z" fill="#E8E8E8"/>
<path d="M44.0719 315.963C59.798 306.19 75.9772 297.065 92.6093 288.782C93.7095 288.199 92.7388 286.516 91.6386 287.099C75.0711 295.383 58.892 304.508 43.1012 314.28C42.001 314.992 42.9717 316.674 44.0719 315.963Z" fill="#E8E8E8"/>
<path d="M91.4445 287.94C99.6635 305.219 108.336 322.24 117.525 339.001C118.108 340.102 119.79 339.131 119.208 338.031C110.018 321.269 101.281 304.249 93.1271 286.969C92.5447 285.804 90.9267 286.775 91.4445 287.94Z" fill="#E8E8E8"/>
<path d="M72.0941 369.289C87.5614 359.97 102.834 350.392 117.978 340.555C119.014 339.908 118.043 338.225 117.007 338.872C101.864 348.709 86.5906 358.287 71.1233 367.607C70.0879 368.254 71.0586 369.936 72.0941 369.289Z" fill="#E8E8E8"/>
<path d="M70.865 310.267C70.4767 322.693 71.1886 335.054 73.0006 347.35C73.1948 348.58 75.0716 348.062 74.8774 346.832C73.0653 334.73 72.4182 322.499 72.8065 310.267C72.8712 309.038 70.9297 309.038 70.865 310.267Z" fill="#E8E8E8"/>
<path d="M70.9292 309.62C79.9248 316.674 88.9204 323.599 98.0454 330.459C99.0162 331.236 99.9869 329.553 99.0162 328.776C90.0206 322.046 81.0897 315.186 72.2882 308.261C71.3175 307.485 69.9584 308.844 70.9292 309.62Z" fill="#E8E8E8"/>
<path d="M75.0063 347.738C82.4487 341.072 92.1562 337.513 99.2103 330.329C100.116 329.423 98.6926 328.064 97.8513 328.97C90.7971 336.089 81.1544 339.713 73.6473 346.379C72.6765 347.156 74.1003 348.515 75.0063 347.738Z" fill="#E8E8E8"/>
<path d="M45.4313 326.899C47.5022 325.864 49.5731 324.893 51.6441 323.858C52.7443 323.34 51.7735 321.657 50.6733 322.175C48.6024 323.211 46.5315 324.181 44.4605 325.217C43.3603 325.799 44.3311 327.417 45.4313 326.899Z" fill="#E8E8E8"/>
<path d="M52.0971 337.902C53.8444 336.737 55.7212 335.766 57.6627 334.925C58.8276 334.472 58.3099 332.595 57.145 333.048C55.0093 333.954 53.0031 334.989 51.0616 336.219C50.0909 336.931 51.0616 338.613 52.0971 337.902Z" fill="#E8E8E8"/>
<path d="M59.4098 350.586C61.2219 349.68 63.0339 348.774 64.846 347.933C65.9462 347.35 64.9754 345.732 63.8752 346.25C62.0632 347.156 60.2511 348.062 58.439 348.903C57.3389 349.421 58.3096 351.104 59.4098 350.586Z" fill="#E8E8E8"/>
<path d="M63.1632 363.27C65.1694 361.523 67.2404 360.035 69.5702 358.74C70.6703 358.093 69.6996 356.475 68.5994 357.058C66.2049 358.417 63.9398 360.035 61.8042 361.911C60.8334 362.753 62.1925 364.112 63.1632 363.27Z" fill="#E8E8E8"/>
<path d="M95.1332 300.689C96.6217 299.654 98.1749 298.942 99.9222 298.489C101.152 298.165 100.634 296.353 99.4045 296.612C97.5277 297.065 95.7157 297.842 94.0978 299.007C93.127 299.719 94.0978 301.401 95.1332 300.689Z" fill="#E8E8E8"/>
<path d="M100.893 311.756C102.964 310.462 105.035 309.167 107.041 307.808C108.077 307.161 107.106 305.478 106.071 306.126C104 307.42 101.929 308.714 99.9224 310.073C98.8223 310.785 99.793 312.468 100.893 311.756Z" fill="#E8E8E8"/>
<path d="M107.495 325.023C109.695 324.052 111.96 323.081 114.16 322.111C115.325 321.593 114.29 319.91 113.19 320.428C110.989 321.399 108.724 322.37 106.524 323.34C105.359 323.858 106.394 325.541 107.495 325.023Z" fill="#E8E8E8"/>
<path d="M112.218 333.695C113.966 332.012 115.907 330.589 118.043 329.359C119.143 328.777 118.172 327.094 117.072 327.676C114.807 328.971 112.736 330.459 110.859 332.271C109.953 333.177 111.312 334.536 112.218 333.695Z" fill="#E8E8E8"/>
<path d="M77.5953 360.746C79.2133 363.141 80.5723 365.665 81.6078 368.318C82.0608 369.483 83.9376 368.965 83.4846 367.8C82.3844 364.953 81.0253 362.235 79.278 359.711C78.5661 358.74 76.8835 359.711 77.5953 360.746Z" fill="#E8E8E8"/>
<path d="M87.4967 355.375C88.7264 357.575 89.8913 359.711 91.1209 361.912C91.7033 363.012 93.386 362.041 92.8035 360.941C91.5739 358.74 90.409 356.605 89.1794 354.404C88.5969 353.304 86.9143 354.275 87.4967 355.375Z" fill="#E8E8E8"/>
<path d="M98.9518 347.156C100.246 349.486 101.54 351.816 102.835 354.145C103.417 355.245 105.1 354.275 104.517 353.175C103.223 350.845 101.929 348.515 100.634 346.185C100.052 345.085 98.3694 346.056 98.9518 347.156Z" fill="#E8E8E8"/>
<path d="M109.242 341.008C110.277 343.467 111.313 345.926 112.413 348.321C112.931 349.486 114.549 348.45 114.096 347.35C113.06 344.891 112.025 342.432 110.924 340.037C110.407 338.937 108.724 339.908 109.242 341.008Z" fill="#E8E8E8"/>
<path d="M50.5435 305.996C51.7731 308.002 52.938 310.009 54.1676 311.95C54.8148 313.05 56.4974 312.015 55.8503 310.979C54.6206 308.973 53.4557 306.967 52.2261 305.025C51.579 303.99 49.8963 304.961 50.5435 305.996Z" fill="#E8E8E8"/>
<path d="M61.6749 299.525C62.8398 302.113 64.0047 304.702 65.1696 307.291C65.6874 308.455 67.37 307.42 66.8523 306.32C65.6874 303.731 64.5225 301.142 63.3576 298.554C62.7751 297.389 61.1572 298.36 61.6749 299.525Z" fill="#E8E8E8"/>
<path d="M71.7062 293.312C73.4535 295.641 74.8126 298.165 75.7186 300.883C76.1069 302.048 77.9837 301.531 77.5954 300.366C76.6246 297.453 75.2656 294.735 73.3888 292.341C72.6769 291.37 70.9943 292.276 71.7062 293.312Z" fill="#E8E8E8"/>
<path d="M82.5138 288.329C83.8728 290.4 85.1672 292.406 86.5262 294.477C87.1734 295.512 88.856 294.542 88.2088 293.506C86.8498 291.435 85.5555 289.429 84.1964 287.358C83.4845 286.323 81.8019 287.293 82.5138 288.329Z" fill="#E8E8E8"/>
<path d="M183.148 159.996C176.87 158.054 176.547 151.388 179.524 146.405C182.436 141.551 188.066 140.257 192.467 144.269C196.091 147.635 196.415 153.394 193.049 157.083C189.684 160.837 184.183 160.772 180.3 157.925C179.33 157.148 178.359 158.831 179.33 159.607C184.248 163.231 191.432 162.649 195.12 157.536C198.939 152.359 197.58 145.111 192.208 141.616C179.265 133.268 168.134 157.342 182.63 161.872C183.86 162.261 184.377 160.384 183.148 159.996Z" fill="#E8E8E8"/>
<path d="M193.567 161.678C188.714 163.167 187.549 157.342 189.684 154.236C191.432 151.712 194.862 150.223 197.968 151.065C200.945 151.841 203.081 154.883 202.304 157.925C201.333 161.743 197.321 163.102 193.761 162.519C192.532 162.325 192.014 164.202 193.244 164.396C198.033 165.238 203.21 163.167 204.246 157.989C205.152 153.524 201.657 149.447 197.321 148.929C192.532 148.347 187.29 151.841 186.643 156.76C186.06 161.031 189.943 164.849 194.214 163.49C195.315 163.167 194.797 161.29 193.567 161.678Z" fill="#E8E8E8"/>
<path d="M152.278 203.809C150.725 206.98 152.926 210.151 156.161 210.992C158.621 211.639 161.209 211.057 163.733 211.186C166.451 211.316 169.169 211.963 171.629 213.063C177.065 215.522 180.559 219.988 180.754 226.006C180.948 231.054 179.459 236.296 181.66 241.085C186.319 251.181 199.133 243.48 205.734 250.016C211.235 255.517 208.97 265.548 216.348 269.755C217.448 270.402 218.419 268.719 217.319 268.072C210.717 264.319 212.271 254.546 207.611 249.11C205.152 246.263 201.592 245.486 197.968 245.227C193.568 244.968 187.872 245.874 184.637 242.121C180.883 237.72 182.889 231.119 182.695 225.942C182.566 221.865 181.207 218.176 178.359 215.263C175.835 212.74 172.535 210.992 169.105 210.086C167.357 209.633 165.545 209.31 163.733 209.245C161.403 209.115 151.308 210.28 154.026 204.779C154.543 203.679 152.861 202.708 152.278 203.809Z" fill="#E8E8E8"/>
<path d="M0.970749 553.149C12.6845 553.149 24.3334 553.149 36.0471 553.149C37.2767 553.149 37.2767 551.207 36.0471 551.207C24.3334 551.207 12.6845 551.207 0.970749 551.207C-0.323583 551.207 -0.323583 553.149 0.970749 553.149Z" fill="#E8E8E8"/>
<path d="M19.8682 597.027C42.3896 597.027 64.8463 597.027 87.3676 597.027C88.5973 597.027 88.5973 595.085 87.3676 595.085C64.8463 595.085 42.3896 595.085 19.8682 595.085C18.5739 595.085 18.5739 597.027 19.8682 597.027Z" fill="#E8E8E8"/>
<path d="M84.649 584.86C105.552 584.86 126.521 584.86 147.424 584.86C148.654 584.86 148.654 582.918 147.424 582.918C126.521 582.918 105.552 582.918 84.649 582.918C83.3546 582.918 83.3546 584.86 84.649 584.86Z" fill="#E8E8E8"/>
<path d="M432.76 581.495C443.309 578.906 453.922 578.647 464.665 580.33C469.195 581.042 473.79 581.753 478.385 581.365C482.851 580.977 487.187 579.618 491.523 578.453C496.441 577.094 501.359 576.058 506.537 576.447C511.844 576.835 516.956 578.323 522.134 579.488C526.599 580.524 531.129 581.236 535.724 581.171C540.578 581.042 545.367 580.2 550.091 579.488C563.034 577.417 575.201 578.712 588.015 580.847C589.245 581.042 589.762 579.165 588.533 578.971C578.178 577.288 567.759 575.541 557.21 576.576C546.208 577.676 535.983 580.394 524.852 578.129C515.532 576.253 506.666 573.34 497.088 575.152C491.976 576.123 487.122 577.935 482.009 578.906C476.314 580.006 470.813 579.359 465.118 578.453C454.052 576.77 443.115 576.9 432.177 579.618C431.077 579.941 431.595 581.818 432.76 581.495Z" fill="#E8E8E8"/>
<path d="M532.165 561.821C552.486 560.72 572.807 559.62 593.128 558.585C603.159 558.067 612.866 558.261 622.833 559.62C627.298 560.203 631.57 560.332 636.035 559.814C641.018 559.232 646.195 558.455 650.855 560.85C651.955 561.432 652.926 559.75 651.826 559.167C643.93 555.155 634.805 558.908 626.327 558.132C621.28 557.679 616.361 556.708 611.313 556.449C606.071 556.19 600.829 556.32 595.587 556.579C574.425 557.549 553.262 558.844 532.1 559.944C530.935 559.944 530.935 561.885 532.165 561.821Z" fill="#E8E8E8"/>
<path d="M134.222 617.413C143.8 618.319 153.443 619.225 163.021 618.124C167.486 617.607 171.758 616.636 176.094 615.342C181.724 613.659 186.772 613.206 192.596 614.241C197.062 615.018 201.463 616.118 205.928 616.506C210.652 616.895 215.377 616.636 220.101 616.183C230.003 615.212 239.904 613.53 249.741 615.73C250.971 615.989 251.488 614.112 250.259 613.853C240.81 611.782 231.362 613.141 221.848 614.112C217.124 614.565 212.4 615.018 207.675 614.759C202.304 614.5 197.127 613.077 191.884 612.235C187.484 611.523 183.277 611.523 178.941 612.559C174.282 613.724 169.881 615.277 165.092 615.989C154.867 617.477 144.447 616.442 134.222 615.536C132.928 615.342 132.992 617.283 134.222 617.413Z" fill="#E8E8E8"/>
<path d="M236.604 95.2142C234.08 93.4669 230.65 90.6841 231.685 87.1894C232.786 83.5652 235.504 85.3126 238.028 84.4713C241.393 83.3711 241.199 79.2939 240.228 76.6406C239.257 74.0519 237.186 67.7744 242.558 69.91C243.787 70.4278 244.693 71.2691 246.117 70.8161C247.411 70.4278 248.059 69.2629 248.382 68.0333C248.641 66.9331 248.447 65.7682 248.382 64.6033C248.253 63.8267 248.188 62.9854 248.188 62.2088C247.929 60.332 249.094 59.5554 251.553 59.879C251.618 61.1086 253.56 61.1086 253.495 59.879C253.365 58.0669 252.006 56.7726 250.065 56.8373C247.8 56.902 246.57 59.1024 246.311 61.1733C246.117 62.5971 247.282 65.8976 246.635 67.0625C245.858 67.5802 245.082 68.1627 244.24 68.6804C243.917 68.4863 243.593 68.2921 243.27 68.098C242.687 67.9038 242.234 67.5155 241.652 67.3861C239.645 66.9331 238.028 68.1627 237.316 69.9748C236.086 73.0812 238.286 75.6698 238.934 78.5821C239.775 82.5945 236.733 82.1415 234.08 82.5945C232.915 82.7886 231.944 83.3711 231.168 84.2124C227.09 88.9367 231.815 94.1788 235.698 96.8969C236.669 97.6087 237.639 95.9261 236.604 95.2142Z" fill="#E8E8E8"/>
<path d="M249.353 93.4022C247.217 90.9429 245.599 87.5777 249.741 86.2833C250.777 85.9598 251.942 86.0892 252.912 85.442C255.048 83.9535 254.142 81.9473 253.754 79.8764C253.56 78.7115 253.107 77.1583 253.818 75.9934C254.336 75.1521 256.213 74.8285 257.184 74.6344C258.543 74.3108 259.967 74.1166 261.131 73.34C262.879 72.1104 263.526 69.91 262.361 68.0333C261.714 66.9978 260.031 67.9685 260.678 69.004C262.62 72.1104 253.56 72.9517 252.006 75.2168C250.194 77.8702 254.013 82.5298 250.842 84.2124C249.612 84.8596 248.059 84.4066 246.894 85.2479C246.052 85.8303 245.47 86.7364 245.211 87.7071C244.499 90.4899 246.376 92.8844 248.059 94.8259C248.835 95.732 250.194 94.3729 249.353 93.4022Z" fill="#E8E8E8"/>
<path d="M172.923 78.0642C171.24 76.8993 171.046 74.8284 171.564 73.0164C171.887 71.7867 173.441 68.4215 174.929 68.292C177.388 68.0332 178.618 71.1396 179.265 72.9516C179.848 74.699 180.042 76.4463 180.106 78.2584C180.106 79.488 182.048 79.488 182.048 78.2584C181.983 74.6343 179.589 63.503 173.635 66.7388C171.37 67.9685 169.687 71.5279 169.428 73.9871C169.169 76.3169 170.075 78.3878 171.952 79.7469C172.923 80.4588 173.894 78.7761 172.923 78.0642Z" fill="#E8E8E8"/>
<path d="M172.146 79.0998C169.816 79.6822 167.486 80.2647 165.092 80.8471C163.733 81.1707 161.403 81.3001 160.303 82.3356C158.426 84.083 158.944 89.4544 158.944 91.7195C158.944 92.3667 159.591 92.8197 160.173 92.6256C160.497 92.5608 160.821 92.4314 161.209 92.3667C162.892 91.4606 163.733 92.0431 163.798 93.9846C165.092 95.2789 165.092 96.0555 163.798 96.185C163.021 96.5085 162.244 96.638 161.403 96.638C160.885 96.7027 160.432 97.0263 160.432 97.6087C160.562 101.751 160.885 105.828 161.338 109.97C161.468 111.199 163.409 111.199 163.28 109.97C162.827 105.828 162.503 101.751 162.374 97.6087C162.05 97.9323 161.727 98.2559 161.403 98.5795C164.121 98.2559 168.457 97.1557 167.875 93.4669C167.228 89.5192 162.439 89.9722 159.72 90.7488C160.109 91.0723 160.562 91.3959 160.95 91.6548C160.95 90.1663 160.95 88.7426 161.08 87.2541C161.274 84.9243 161.144 84.083 163.28 83.2416C166.192 82.0767 169.622 81.6884 172.664 80.9118C173.893 80.7177 173.376 78.8409 172.146 79.0998Z" fill="#E8E8E8"/>
<path d="M181.465 79.6821C184.183 79.5527 186.966 79.5527 189.684 79.8763C192.273 80.1999 192.143 80.5882 192.532 82.8533C192.791 84.277 192.855 85.7655 192.985 87.1893C193.502 92.7549 193.891 98.3205 194.214 103.886C194.279 105.116 196.221 105.116 196.156 103.886C195.768 96.3143 195.509 88.5483 194.279 81.0412C193.955 79.1644 193.632 78.582 191.69 78.2584C188.325 77.6112 184.83 77.6112 181.465 77.8054C180.236 77.8054 180.236 79.7469 181.465 79.6821Z" fill="#E8E8E8"/>
<path d="M162.762 111.329C166.581 110.682 170.399 110.034 174.152 109.387C178.488 108.675 182.63 108.999 186.966 108.675C188.973 108.481 198.486 107.51 194.991 103.563C194.15 102.657 192.791 104.016 193.632 104.922C194.15 105.504 185.348 106.799 185.154 106.799C182.436 106.863 179.718 106.734 177 107.057C172.082 107.64 167.163 108.675 162.245 109.517C161.015 109.646 161.533 111.523 162.762 111.329Z" fill="#E8E8E8"/>
<path d="M506.537 484.032C506.342 490.827 506.148 497.622 505.954 504.482C514.561 505.065 523.104 505.582 531.711 506.165C531.711 499.175 531.711 492.186 531.711 485.197C523.298 484.808 514.95 484.42 506.537 484.032Z" fill="white" stroke="#161616" stroke-width="2" stroke-miterlimit="10"/>
<path d="M517.733 559.556C518.898 567.063 519.416 573.276 519.674 577.741C520.516 592.562 519.869 595.992 518.574 598.71C515.403 605.375 509.643 608.158 510.161 609.064C510.549 609.647 513.397 609 526.081 602.334C525.305 587.578 524.593 572.888 523.816 558.132C521.81 558.65 519.804 559.103 517.733 559.556Z" fill="white" stroke="#161616" stroke-width="2" stroke-miterlimit="10"/>
<path d="M500.971 511.99C511.973 512.054 522.974 512.184 533.976 512.248C532.747 527.004 531.582 541.694 530.352 556.45C520.774 555.673 511.131 554.961 501.553 554.185C501.294 540.141 501.1 526.098 500.971 511.99Z" fill="white" stroke="#161616" stroke-width="2" stroke-miterlimit="10"/>
<path d="M505.436 559.038C508.931 567.516 510.096 574.829 510.484 579.747C511.066 586.996 511.455 592.561 507.96 596.25C506.666 597.674 504.53 599.033 500.388 601.816C496.699 604.275 494.952 605.181 495.081 605.44C495.276 605.828 498.835 605.052 514.367 599.551C515.402 594.309 516.244 587.578 516.05 579.683C515.791 571.27 514.432 564.086 512.943 558.715C510.484 558.844 507.96 558.909 505.436 559.038Z" fill="white" stroke="#161616" stroke-width="2" stroke-miterlimit="10"/>
<path d="M511.066 609.647C513.008 608.029 514.82 606.281 516.567 604.405C518.574 602.204 521.551 598.839 524.657 601.751C524.722 601.233 524.786 600.716 524.851 600.198C520.256 602.463 515.726 604.728 511.131 606.929C510.225 607.382 510.678 608.741 511.649 608.741C515.985 608.805 518.703 601.233 523.168 602.657C524.333 603.046 524.851 601.169 523.686 600.78C521.745 600.198 520.256 600.716 518.638 601.881C516.761 603.24 514.108 606.799 511.714 606.799C511.908 607.382 512.037 608.029 512.231 608.611C516.826 606.346 521.356 604.081 525.951 601.881C526.534 601.622 526.598 600.78 526.145 600.327C524.398 598.709 521.292 598.127 519.091 599.163C517.473 599.874 516.438 601.751 515.273 602.981C513.526 604.858 511.714 606.54 509.772 608.223C508.737 609.064 510.096 610.488 511.066 609.647Z" fill="#161616"/>
<path d="M519.027 599.551C520.968 599.616 522.845 600.004 524.657 600.781C525.757 601.298 526.793 599.616 525.628 599.098C523.492 598.127 521.357 597.609 519.027 597.545C517.797 597.609 517.797 599.551 519.027 599.551Z" fill="#161616"/>
<path d="M508.414 597.286C509.902 597.674 511.196 598.451 512.232 599.616C513.073 600.522 514.432 599.163 513.591 598.257C512.297 596.898 510.679 595.927 508.867 595.474C507.766 595.085 507.249 596.962 508.414 597.286Z" fill="#161616"/>
<path d="M497.93 605.117C499.936 603.628 502.007 602.269 504.142 600.975C505.113 600.392 506.149 599.616 507.184 599.292C508.802 598.71 509.773 599.098 511.261 599.745C511.261 599.163 511.261 598.645 511.261 598.062C509.19 598.968 506.86 598.904 504.725 599.81C502.654 600.651 500.712 602.722 498.577 603.11C498.836 603.693 499.094 604.275 499.353 604.858C503.172 602.981 507.443 602.657 511.261 600.78C512.361 600.198 511.391 598.58 510.29 599.098C506.472 600.975 502.201 601.298 498.383 603.175C497.347 603.693 498.124 605.117 499.159 604.922C501.489 604.534 503.366 602.398 505.566 601.557C507.766 600.716 510.161 600.651 512.297 599.745C512.944 599.486 512.944 598.321 512.297 598.062C509.837 596.962 508.737 596.315 506.278 597.609C503.042 599.292 500 601.298 497.088 603.434C495.923 604.146 496.894 605.828 497.93 605.117Z" fill="#161616"/>
<path d="M508.996 568.94C510.614 568.358 512.232 568.422 513.72 569.199C514.82 569.781 515.791 568.099 514.691 567.516C512.749 566.481 510.549 566.287 508.478 567.063C507.313 567.516 507.831 569.393 508.996 568.94Z" fill="#161616"/>
<path d="M510.614 575.412C511.973 575.282 513.267 575.606 514.303 576.512C515.273 577.288 516.632 575.929 515.662 575.153C514.238 573.988 512.49 573.341 510.614 573.47C509.384 573.535 509.384 575.476 510.614 575.412Z" fill="#161616"/>
<path d="M511.325 583.501C512.555 583.372 513.72 583.825 514.432 584.86C515.079 585.896 516.761 584.925 516.114 583.889C515.144 582.272 513.267 581.301 511.39 581.56C510.872 581.624 510.419 581.948 510.419 582.53C510.355 582.983 510.808 583.566 511.325 583.501Z" fill="#161616"/>
<path d="M519.674 568.487C520.839 567.84 522.327 567.904 523.428 568.81C524.398 569.587 525.757 568.228 524.787 567.451C523.039 566.028 520.709 565.704 518.703 566.804C517.603 567.451 518.574 569.134 519.674 568.487Z" fill="#161616"/>
<path d="M520.775 580.718C521.81 580.265 522.975 580.459 523.816 581.236C524.722 582.077 526.146 580.718 525.175 579.877C523.687 578.518 521.616 578.194 519.739 579.1C518.639 579.553 519.674 581.236 520.775 580.718Z" fill="#161616"/>
<path d="M521.033 591.073C522.069 590.426 523.363 590.426 524.334 591.202C525.304 591.979 526.663 590.62 525.693 589.843C524.075 588.484 521.81 588.29 520.062 589.455C519.027 590.102 519.998 591.785 521.033 591.073Z" fill="#161616"/>
<path d="M535.529 512.183C534.235 527.068 532.941 541.953 531.646 556.838" stroke="#161616" stroke-width="6" stroke-miterlimit="10"/>
<path d="M501.359 554.767C512.167 555.544 522.975 556.256 533.782 557.032" stroke="#161616" stroke-width="6" stroke-miterlimit="10"/>
<path d="M533.847 484.614C533.588 491.992 533.264 499.305 533.005 506.682" stroke="#161616" stroke-width="6" stroke-miterlimit="10"/>
<path d="M535.206 520.92C541.225 519.82 547.632 524.544 548.085 530.757C548.732 538.523 539.866 539.882 534.041 539.041C532.812 538.847 532.294 540.723 533.523 540.917C540.642 541.953 550.673 539.947 550.026 530.757C549.508 523.185 541.937 517.684 534.688 519.043C533.459 519.237 533.976 521.114 535.206 520.92Z" fill="#161616"/>
<path d="M533.783 542.471C536.306 542.988 538.313 544.8 539.025 547.26C539.348 548.489 541.225 547.972 540.901 546.742C540.06 543.636 537.536 541.176 534.365 540.594C533.071 540.4 532.553 542.212 533.783 542.471Z" fill="#161616"/>
<path d="M532.811 541.824C534.365 544.089 535.077 546.613 534.818 549.396C534.753 550.625 536.694 550.625 536.759 549.396C536.953 546.354 536.177 543.377 534.429 540.853C533.782 539.818 532.1 540.788 532.811 541.824Z" fill="#161616"/>
<path d="M500.906 520.014C496.635 517.296 488.804 525.127 487.833 528.945C485.892 536.711 495.858 535.805 500 538.394C501.036 539.041 502.006 537.358 500.971 536.711C497.994 534.834 493.593 535.546 491.005 533.216C487.833 530.369 490.746 526.939 492.946 524.933C494.111 523.897 498.059 520.467 499.935 521.632C500.971 522.409 502.006 520.726 500.906 520.014Z" fill="#161616"/>
<path d="M499.871 537.487C498.188 538.135 496.635 539.105 495.341 540.464C494.37 541.5 493.14 543.118 494.111 544.542C494.823 545.577 496.506 544.606 495.794 543.571C495.341 542.924 497.023 541.5 497.476 541.112C498.318 540.335 499.288 539.753 500.389 539.364C501.553 538.911 501.1 537.034 499.871 537.487Z" fill="#161616"/>
<path d="M499.094 538.847C497.865 540.788 497.477 542.989 497.93 545.189C498.188 546.419 500.065 545.901 499.806 544.671C499.418 542.924 499.806 541.306 500.777 539.817C501.489 538.782 499.806 537.811 499.094 538.847Z" fill="#161616"/>
<path d="M505.242 518.785C504.918 523.509 504.983 528.298 505.307 533.022C505.436 534.252 507.378 534.252 507.248 533.022C506.86 528.298 506.86 523.509 507.184 518.785C507.313 517.555 505.371 517.555 505.242 518.785Z" fill="#161616"/>
<path d="M506.666 519.302C513.526 519.691 520.321 519.949 527.181 520.079C526.857 519.755 526.534 519.432 526.21 519.108C526.016 523.962 525.822 528.88 525.563 533.734C525.498 534.964 527.44 534.964 527.505 533.734C527.699 528.88 527.893 523.962 528.152 519.108C528.152 518.59 527.699 518.137 527.181 518.137C520.321 518.008 513.526 517.749 506.666 517.361C505.436 517.296 505.436 519.237 506.666 519.302Z" fill="#161616"/>
<path d="M505.889 533.864C508.737 534.64 511.908 534.446 514.755 534.64C518.25 534.834 521.809 535.093 525.304 535.287C526.534 535.352 526.534 533.411 525.304 533.346C522.198 533.152 519.091 532.958 515.985 532.763C512.879 532.569 509.384 532.763 506.342 531.987C505.242 531.663 504.724 533.54 505.889 533.864Z" fill="#161616"/>
<path d="M508.09 543.895C509.255 546.418 511.779 544.218 513.72 545.124C514.626 545.512 514.432 546.095 515.662 546.16C517.086 546.224 520.58 543.377 521.292 546.03C521.486 546.742 522.392 546.936 522.91 546.483C523.557 546.289 524.269 546.095 524.916 545.965C525.693 546.936 527.117 545.512 526.275 544.606C524.787 542.859 522.91 543.83 521.486 545.124C522.004 545.254 522.587 545.383 523.104 545.577C522.522 543.312 520.127 541.824 517.862 542.859C516.762 543.377 516.633 544.348 514.95 543.7C514.626 543.571 514.497 543.053 514.173 542.924C513.462 542.665 509.708 543.053 509.708 542.989C509.255 541.759 507.572 542.73 508.09 543.895Z" fill="#161616"/>
<path d="M511.52 492.962C511.649 492.25 512.491 492.056 513.073 492.315C513.914 492.639 514.367 493.61 514.756 494.321C515.273 495.422 516.956 494.451 516.438 493.351C515.726 491.927 514.626 490.438 512.879 490.244C511.455 490.115 509.967 490.956 509.708 492.38C509.384 493.674 511.261 494.192 511.52 492.962Z" fill="#161616"/>
<path d="M523.427 493.869C523.557 493.221 524.139 492.833 524.787 493.092C525.563 493.351 525.887 494.322 526.016 495.034C526.21 496.263 528.087 495.745 527.893 494.516C527.634 492.963 526.599 491.345 524.916 491.086C523.427 490.892 521.81 491.798 521.551 493.351C521.357 494.581 523.233 495.098 523.427 493.869Z" fill="#161616"/>
<path d="M512.491 497.04C514.691 500.923 519.933 501.505 522.781 498.01C523.557 497.04 522.198 495.681 521.422 496.651C519.351 499.175 515.791 498.981 514.173 496.069C513.591 494.969 511.908 495.939 512.491 497.04Z" fill="#161616"/>
<path d="M444.603 145.37C436.449 142.069 431.531 134.174 428.554 126.278C425.383 118.059 424.024 109.128 424.477 100.327C425.253 84.083 432.178 67.645 444.992 57.2903C457.094 47.4534 475.02 44.6706 488.481 53.6015C502.525 62.9206 505.049 82.1415 505.178 97.6087C505.308 114.823 501.295 132.879 488.546 145.24C487.64 146.081 488.999 147.505 489.905 146.599C502.007 134.821 506.602 117.994 507.055 101.556C507.508 85.442 505.566 65.0563 492.3 53.9898C479.874 43.6351 461.43 44.1528 448.163 52.566C433.472 61.8852 424.8 78.7762 422.923 95.7967C421.758 106.345 423.053 117.283 426.936 127.249C430.236 135.662 435.478 143.687 444.15 147.182C445.251 147.699 445.704 145.823 444.603 145.37Z" fill="#161616"/>
<path d="M443.697 146.599C441.497 149.706 441.95 154.301 445.186 156.63C447.645 158.378 451.269 158.637 454.181 159.025C457.676 159.543 461.236 159.737 464.795 159.737C471.137 159.672 478.385 159.219 484.275 156.76C488.546 154.948 491.782 150.676 489.517 146.081C488.999 144.981 487.316 145.952 487.834 147.052C492.688 156.954 469.713 157.795 464.73 157.795C460.135 157.795 455.54 157.407 451.075 156.566C448.939 156.177 446.545 155.789 445.186 153.912C443.827 151.971 444.086 149.447 445.38 147.635C446.092 146.535 444.409 145.564 443.697 146.599Z" fill="#161616"/>
<path d="M445.768 157.083C445.768 160.319 445.833 163.62 446.221 166.856C446.415 168.344 446.739 169.638 447.968 170.544C449.716 171.839 452.628 171.774 454.699 171.968C458.194 172.227 461.753 172.227 465.248 172.098C468.548 171.968 471.849 171.709 475.149 171.386C477.091 171.192 479.291 171.256 480.78 169.768C484.08 166.532 484.145 160.384 483.304 156.307C483.045 155.077 481.168 155.595 481.427 156.825C481.88 159.025 482.009 161.225 481.556 163.49C480.909 166.661 480.003 168.732 476.444 169.38C472.302 170.156 467.642 170.156 463.436 170.221C459.294 170.286 454.634 170.48 450.557 169.509C446.804 168.603 447.774 160.19 447.774 157.083C447.71 155.854 445.768 155.854 445.768 157.083Z" fill="#161616"/>
<path d="M446.416 87.3836C454.182 92.2373 460.071 99.3561 463.371 107.899C463.824 109.064 465.701 108.546 465.248 107.381C461.753 98.3207 455.605 90.8135 447.451 85.7009C446.351 84.989 445.38 86.6717 446.416 87.3836Z" fill="#161616"/>
<path d="M464.924 107.899C468.743 99.8738 474.308 93.0139 481.427 87.7071C482.398 86.9952 481.427 85.2479 480.456 86.0245C473.079 91.5254 467.254 98.6442 463.242 106.928C462.724 108.028 464.407 108.999 464.924 107.899Z" fill="#161616"/>
<path d="M463.371 105.634C464.342 118.965 464.795 132.297 464.601 145.629C464.601 146.858 466.542 146.858 466.542 145.629C466.736 132.297 466.283 118.901 465.312 105.634C465.183 104.339 463.242 104.339 463.371 105.634Z" fill="#161616"/>
<path d="M387.588 138.251C396.195 135.339 404.738 132.426 413.345 129.514C414.51 129.126 413.992 127.249 412.827 127.637C404.22 130.55 395.678 133.462 387.07 136.374C385.841 136.762 386.358 138.639 387.588 138.251Z" fill="#161616"/>
<path d="M397.425 125.307C400.402 124.466 403.379 123.56 406.356 122.719C407.521 122.395 407.068 120.518 405.838 120.842C402.861 121.683 399.884 122.589 396.907 123.431C395.742 123.819 396.195 125.696 397.425 125.307Z" fill="#161616"/>
<path d="M375.874 103.757C387.264 103.628 398.59 103.951 409.915 104.663C411.145 104.728 411.145 102.786 409.915 102.722C398.59 102.01 387.2 101.751 375.874 101.815C374.645 101.815 374.645 103.757 375.874 103.757Z" fill="#161616"/>
<path d="M399.949 94.9555C402.667 95.6674 405.45 95.991 408.232 96.0557C409.462 96.0557 409.462 94.1142 408.232 94.1142C405.579 94.0495 402.99 93.7259 400.466 93.0787C399.237 92.7551 398.719 94.6319 399.949 94.9555Z" fill="#161616"/>
<path d="M395.742 34.7043C405.903 43.4411 415.157 53.0191 423.506 63.5032C424.283 64.474 425.642 63.1149 424.865 62.1442C416.516 51.6601 407.262 42.0173 397.102 33.3453C396.196 32.504 394.772 33.863 395.742 34.7043Z" fill="#161616"/>
<path d="M424.153 53.0839C425.9 54.8959 427.583 56.708 429.33 58.5848C430.172 59.4908 431.531 58.1318 430.689 57.2257C428.942 55.4137 427.259 53.6016 425.512 51.7248C424.671 50.8188 423.312 52.1778 424.153 53.0839Z" fill="#161616"/>
<path d="M384.74 56.708C387.911 58.5847 391.147 60.3321 394.448 61.95C395.548 62.5324 396.519 60.8498 395.419 60.2674C392.118 58.5847 388.882 56.8374 385.711 55.0253C384.611 54.3782 383.64 56.0608 384.74 56.708Z" fill="#161616"/>
<path d="M497.347 41.9526C506.925 32.3745 516.503 22.7964 526.081 13.2184C526.987 12.3124 525.564 10.9533 524.722 11.8593C515.144 21.4374 505.566 31.0155 495.988 40.5935C495.082 41.4995 496.441 42.8586 497.347 41.9526Z" fill="#161616"/>
<path d="M506.99 46.418C509.449 44.6059 511.909 42.8586 514.368 41.0465C515.339 40.3346 514.433 38.652 513.397 39.3639C510.938 41.176 508.479 42.9233 506.019 44.7354C504.984 45.4473 505.955 47.1299 506.99 46.418Z" fill="#161616"/>
<path d="M467.449 29.2681C469.39 19.8842 470.879 10.4356 471.785 0.922211C471.914 -0.307404 469.973 -0.307404 469.843 0.922211C468.937 10.2414 467.513 19.5606 465.572 28.7503C465.313 29.98 467.19 30.4977 467.449 29.2681Z" fill="#161616"/>
<path d="M521.875 88.8073C539.478 87.1894 557.016 85.5715 574.619 83.9535C575.848 83.8241 575.848 81.8826 574.619 82.0121C557.016 83.63 539.478 85.2479 521.875 86.8658C520.645 86.9305 520.581 88.872 521.875 88.8073Z" fill="#161616"/>
<path d="M447.904 148.929C458.841 151.324 469.972 151.259 480.844 148.8C482.074 148.541 481.556 146.664 480.327 146.923C469.778 149.317 458.97 149.382 448.421 147.052C447.192 146.793 446.674 148.67 447.904 148.929Z" fill="#161616"/>
<path d="M449.522 165.367C457.87 166.467 466.219 166.726 474.632 166.144C475.861 166.079 475.861 164.137 474.632 164.202C466.219 164.785 457.87 164.526 449.522 163.426C448.292 163.296 448.292 165.238 449.522 165.367Z" fill="#161616"/>
<path d="M509.643 142.393C522.781 151.647 536.177 160.578 549.768 169.185C550.803 169.833 551.774 168.15 550.738 167.503C537.148 158.895 523.752 149.965 510.614 140.71C509.579 139.998 508.608 141.681 509.643 142.393Z" fill="#161616"/>
<path d="M344.292 597.609C331.996 612.688 319.765 627.702 307.469 642.781C321.901 693.519 330.055 706.851 334.909 706.139C338.403 705.621 340.086 698.049 341.963 689.571C346.622 668.409 343.839 650.224 340.992 638.898C348.758 630.226 356.459 621.49 364.225 612.818C357.559 607.77 350.958 602.722 344.292 597.609Z" fill="#161616" stroke="#161616" stroke-width="2" stroke-miterlimit="10"/>
<path d="M298.926 519.949C306.627 525.903 314.005 523.767 329.278 526.356C342.286 528.556 356.912 533.41 372.444 543.118C355.877 562.533 339.309 583.048 322.871 604.663C318.924 609.905 314.976 615.147 311.158 620.389C317.5 621.878 325.136 624.208 333.42 627.961C341.51 631.585 348.111 635.662 353.353 639.351C378.01 617.865 400.013 597.091 419.623 577.482C428.683 568.422 441.497 554.573 443.503 534.963C443.632 533.863 443.632 532.892 443.632 531.922C443.179 499.369 402.214 475.812 377.298 467.14C350.052 457.692 303.197 452.579 290.125 475.165C282.423 488.497 286.954 510.695 298.926 519.949Z" fill="#4C4C4C"/>
<path opacity="0.29" d="M346.751 487.396C346.298 493.545 345.198 500.858 342.933 508.947C341.315 514.707 339.374 519.819 337.432 524.156C335.297 524.997 333.226 525.838 331.09 526.679C345.004 532.18 358.983 537.681 372.897 543.182C362.542 555.025 352.123 567.451 341.639 580.394C330.831 593.726 320.541 606.799 310.769 619.677C317.694 621.942 324.554 624.207 331.478 626.408C356.265 599.097 381.051 571.722 405.838 544.412C408.426 536.969 408.297 531.145 407.52 527.068C403.961 507.135 379.563 490.891 346.751 487.396Z" fill="#282828"/>
<path opacity="0.24" d="M372.767 543.053C375.032 546.483 377.233 549.977 379.498 553.407C360.212 576.641 340.927 599.809 321.641 623.042C318.211 622.136 314.717 621.166 311.287 620.26C323.647 603.304 336.979 585.895 351.411 568.357C358.594 559.62 365.713 551.207 372.767 543.053Z" fill="#111111"/>
<path d="M308.375 573.017C327.466 576.511 346.622 579.941 365.714 583.436C387.782 631.585 390.241 647.117 386.099 649.77C383.122 651.647 376.909 646.988 369.985 641.746C352.641 628.608 342.998 612.947 337.756 602.398C326.236 600.845 314.717 599.227 303.197 597.674C304.88 589.455 306.627 581.236 308.375 573.017Z" fill="#161616" stroke="#161616" stroke-width="2" stroke-miterlimit="10"/>
<path d="M269.027 465.781C234.209 476.007 212.982 497.234 199.327 511.212C180.883 530.174 158.232 553.408 164.769 570.558C168.134 579.294 178.359 584.666 225.99 592.949C261.973 599.227 293.166 602.592 317.5 604.469C320.541 593.338 323.583 582.271 326.56 571.14C302.097 563.245 277.699 555.414 253.236 547.518C268.25 544.347 284.041 540.594 300.479 535.999C312.97 532.504 324.877 528.88 336.203 525.062C346.687 503.899 348.952 481.054 338.015 468.111C322.742 449.991 288.507 460.022 269.027 465.781Z" fill="#4C4C4C"/>
<path opacity="0.29" d="M346.492 488.173C346.169 494.58 345.069 502.799 342.092 511.859C340.28 517.36 338.209 522.149 336.138 526.097C334.39 526.226 332.643 526.421 330.896 526.55C316.14 531.404 300.414 535.999 283.782 540.27C273.039 543.053 262.555 545.447 252.395 547.648C276.922 555.349 301.45 562.985 325.977 570.687C325.46 573.34 324.812 576.123 324.036 579.035C323.13 582.4 322.094 585.507 321.124 588.354C287.277 580.006 253.43 571.657 219.583 563.309C218.03 561.432 212.917 554.637 213.694 545.641C214.535 535.869 223.855 528.945 235.762 522.602C270.192 504.352 327.919 491.991 346.492 488.173Z" fill="#282828"/>
<path opacity="0.24" d="M234.986 549.007C241.134 548.554 247.347 548.101 253.495 547.583C277.634 555.608 301.773 563.697 325.913 571.722C324.877 575.541 323.842 579.424 322.806 583.242C293.554 571.787 264.238 560.397 234.986 549.007Z" fill="#111111"/>
<path d="M259.902 319.134C269.48 313.503 286.112 305.479 308.245 303.149C342.157 299.589 368.173 311.756 378.463 317.257C376.586 342.691 373.674 363.012 371.344 376.99C368.561 393.687 366.296 402.942 365.26 418.28C363.966 437.5 365.584 453.291 367.073 463.646C355.812 467.141 338.791 470.959 317.823 470.506C297.632 470.053 281.323 465.652 270.386 461.834C273.298 438.665 272.327 420.286 270.904 407.795C269.286 393.881 267.085 387.086 264.432 370.26C261.002 348.515 260.096 330.718 259.902 319.134Z" fill="white" stroke="#161616" stroke-width="2" stroke-miterlimit="10"/>
<path opacity="0.14" d="M329.925 310.85C331.285 315.769 332.838 322.564 333.873 330.718C334.585 336.219 337.497 361.135 328.437 394.011C322.871 414.267 316.982 435.689 297.697 453.291C291.484 458.987 285.465 462.805 281.064 465.199C290.837 467.723 303.586 470.118 318.665 470.247C338.403 470.441 354.712 466.882 366.037 463.387C365.39 458.534 364.549 451.221 364.225 442.419C363.966 434.718 363.966 422.422 369.273 387.798C373.48 360.553 376.457 348.839 377.945 324.182C378.139 321.334 378.204 318.94 378.333 317.322C373.609 314.539 367.461 311.497 359.889 309.038C352.9 306.773 346.622 305.608 341.445 305.09C337.691 306.967 333.808 308.909 329.925 310.85Z" fill="#6D6C6C"/>
<path opacity="0.17" d="M376.456 327.871C372.832 348.386 368.043 364.953 364.29 376.473C353.288 410.125 345.586 432.776 324.812 449.344C311.934 459.634 298.537 463.97 289.93 466.041C298.667 468.5 311.028 470.894 325.977 470.571C343.192 470.182 357.106 466.299 366.231 462.999C365.001 455.103 363.578 443.26 363.966 428.828C364.419 410.125 367.461 398.865 370.826 378.35C372.703 366.312 375.097 349.098 376.456 327.871Z" fill="#6D6C6C"/>
<path d="M259.513 318.81C251.1 324.634 240.292 333.824 230.844 347.479C209.552 378.414 210.135 411.225 210.976 423.327C214.859 433.747 221.525 447.402 233.174 460.798C239.969 468.629 249.935 479.89 266.956 487.138C272.651 489.597 277.634 490.956 281.258 491.733C284.365 488.95 287.406 486.167 290.513 483.384C280.546 471.735 270.515 459.504 260.484 446.884C252.783 437.241 245.405 427.663 238.286 418.215C238.545 410.255 240.228 395.823 248.9 380.744C253.818 372.201 259.578 365.988 264.173 361.782C262.62 347.479 261.067 333.177 259.513 318.81Z" fill="white" stroke="#161616" stroke-width="2" stroke-miterlimit="10"/>
<path opacity="0.13" d="M260.743 333.242C242.105 354.275 233.239 374.207 228.838 386.762C221.137 408.507 222.754 419.897 223.919 425.333C224.89 429.605 227.026 436.918 234.857 448.049C241.652 457.692 255.954 474.971 283.2 489.209C285.594 486.879 287.989 484.614 290.383 482.284C282.682 473.612 274.916 464.487 267.085 454.974C256.795 442.483 247.217 430.187 238.351 418.15C238.61 411.614 239.71 402.488 243.529 392.263C249.288 376.925 258.349 366.83 263.979 361.458C262.814 352.074 261.779 342.69 260.743 333.242Z" fill="#6D6C6C"/>
<path opacity="0.16" d="M238.286 418.991C239.451 426.563 241.846 436.206 246.893 446.625C258.025 469.276 275.433 481.766 284.3 487.203C286.047 485.649 287.73 484.161 289.477 482.608C272.392 461.381 255.371 440.154 238.286 418.991Z" fill="#6D6C6C"/>
<path d="M379.433 317.645C388.882 323.405 401.049 332.401 411.597 345.797C435.543 376.149 434.831 408.378 433.925 420.286C429.524 430.511 422.081 443.907 409.009 457.11C401.372 464.746 390.176 475.813 371.085 482.996C364.678 485.391 359.048 486.75 354.97 487.526C351.54 484.808 348.046 482.09 344.616 479.372C355.747 467.917 367.072 455.945 378.333 443.519C386.94 434.006 395.224 424.622 403.249 415.367C402.925 407.601 401.113 393.428 391.341 378.544C385.775 370.13 379.369 364.047 374.191 359.905C376.003 345.797 377.751 331.753 379.433 317.645Z" fill="white" stroke="#161616" stroke-width="2" stroke-miterlimit="10"/>
<path opacity="0.16" d="M378.98 333.371C387.199 341.978 398.395 355.763 407.132 374.984C411.274 384.109 418.005 398.929 418.134 412.908C418.587 455.427 358.401 484.679 354.906 486.361C351.476 484.161 348.111 482.025 344.681 479.825C364.16 458.468 383.575 437.112 403.055 415.755C402.667 408.766 401.049 395.758 393.283 381.909C386.876 370.518 378.916 363.141 373.674 359.064C375.486 350.521 377.233 341.978 378.98 333.371Z" fill="#6D6C6C"/>
<path opacity="0.12" d="M403.702 415.95C402.731 421.58 401.113 427.728 398.589 434.07C387.199 462.805 364.16 478.531 352.511 485.261C349.728 483.449 347.01 481.637 344.228 479.825C364.031 458.533 383.834 437.241 403.702 415.95Z" fill="#6D6C6C"/>
<path d="M394.318 420.739H235.18V521.503H394.318V420.739Z" fill="white" stroke="#161616" stroke-width="2" stroke-miterlimit="10"/>
<path d="M312.451 480.731C304.038 481.767 299.961 471.541 302.162 464.746C304.297 458.016 312.257 454.845 318.729 457.174C325.136 459.504 328.242 467.335 325.977 473.612C323.453 480.602 314.652 483.449 308.18 480.343C307.08 479.825 306.044 481.508 307.209 482.026C312.969 484.808 320.023 483.773 324.618 479.243C329.084 474.777 329.731 467.723 326.948 462.222C320.606 449.667 300.997 453.68 299.638 467.464C298.926 474.842 304.232 483.708 312.451 482.737C313.681 482.543 313.681 480.602 312.451 480.731Z" fill="#161616"/>
<path opacity="0.14" d="M294.913 420.48C316.464 427.987 331.154 447.208 331.607 467.853C332.19 493.739 310.445 518.073 280.805 520.532C318.534 520.855 356.264 521.179 394.059 521.503C393.929 487.721 393.865 453.939 393.735 420.221C360.794 420.221 327.854 420.351 294.913 420.48Z" fill="#6D6C6C"/>
<path opacity="0.26" d="M394.059 420.156C393.477 440.736 389.399 456.786 385.969 467.335C380.922 482.673 377.297 493.869 366.878 503.77C352.705 517.361 335.037 519.885 327.271 520.532C349.34 520.726 371.408 520.92 393.477 521.179C393.541 501.958 393.671 482.737 393.8 463.452C393.8 449.02 393.93 434.588 394.059 420.156Z" fill="#6D6C6C"/>
<path d="M310.057 266.907C306.498 271.243 309.928 276.55 309.281 290.723C308.957 297.777 307.792 303.472 306.886 307.291C309.928 308.714 315.299 310.721 322.224 310.915C330.767 311.109 337.238 308.456 340.409 306.902C338.986 304.055 337.109 299.654 335.944 293.959C333.032 279.462 338.209 272.667 333.938 267.296C328.955 261.083 314.846 261.018 310.057 266.907Z" fill="white" stroke="#161616" stroke-width="2" stroke-miterlimit="10"/>
<path d="M287.471 204.65C283.394 215.134 284.947 224.583 285.853 228.66C285.465 228.725 277.893 230.342 275.822 236.167C273.751 242.056 278.023 250.405 286.954 253.123C290.189 261.018 298.02 276.291 314.523 284.64C317.306 285.999 319.959 287.099 322.612 287.876C325.007 286.969 328.243 285.546 331.932 283.41C343.451 276.744 349.858 268.461 351.347 266.454C354.065 262.83 357.754 257.006 360.342 248.981C361.766 249.24 364.29 249.369 366.749 248.14C372.315 245.292 375.098 236.426 371.215 230.666C367.979 225.877 361.701 225.683 360.925 225.683C361.766 222.318 364.355 210.216 357.818 198.243C350.311 184.458 334.197 177.21 319.053 179.281C296.661 182.193 287.86 203.615 287.471 204.65Z" fill="white" stroke="#161616" stroke-width="2" stroke-miterlimit="10"/>
<path d="M309.216 284.057C313.164 286.387 317.5 290.011 322.353 289.623C326.366 289.299 330.831 286.97 333.873 284.51C334.844 283.734 333.485 282.375 332.514 283.151C329.666 285.416 325.072 287.811 321.318 287.746C317.37 287.681 313.358 284.381 310.122 282.375C309.151 281.728 308.181 283.41 309.216 284.057Z" fill="#161616"/>
<path d="M308.957 284.898C312.646 288.07 316.852 291.629 322.03 291.37C327.078 291.111 331.802 287.746 335.103 284.122C335.944 283.216 334.585 281.857 333.743 282.763C330.896 285.869 326.884 288.911 322.483 289.364C317.629 289.817 313.746 286.516 310.316 283.539C309.41 282.698 308.051 284.057 308.957 284.898Z" fill="#161616"/>
<path d="M311.416 285.287C311.416 285.222 311.416 285.222 311.416 285.287C311.028 284.704 310.316 284.575 309.863 285.028C309.863 285.028 309.863 285.028 309.799 285.093C309.41 285.416 309.41 286.128 309.799 286.452C316.917 293.247 329.99 295.447 335.103 285.028C335.62 283.928 334.003 282.892 333.42 284.057C328.89 293.376 317.435 291.111 311.222 285.093C311.222 285.546 311.222 285.999 311.222 286.452C311.222 286.452 311.222 286.452 311.287 286.387C310.769 286.322 310.252 286.258 309.734 286.193V286.258C310.381 287.293 312.064 286.322 311.416 285.287Z" fill="#161616"/>
<path d="M319.182 225.424C318.341 235.908 318.794 246.327 320.477 256.682C320.541 257.2 321.189 257.523 321.642 257.329C324.166 256.488 325.978 254.999 327.337 252.734C327.984 251.634 326.301 250.663 325.654 251.764C324.554 253.64 323.195 254.741 321.124 255.452C321.512 255.647 321.9 255.905 322.289 256.1C320.606 245.939 320.218 235.649 321.059 225.359C321.253 224.13 319.312 224.13 319.182 225.424Z" fill="#161616"/>
<path d="M307.663 235.714C307.792 236.296 308.763 239.92 307.663 240.503C306.562 241.085 303.456 238.756 302.485 235.714C301.709 233.125 302.356 229.889 303.585 229.631C304.88 229.307 306.886 232.866 307.663 235.714Z" fill="#161616" stroke="#161616" stroke-miterlimit="10"/>
<path d="M341.057 235.714C341.186 236.296 342.157 239.92 341.057 240.503C339.956 241.085 336.85 238.756 335.879 235.714C335.103 233.125 335.75 229.889 336.979 229.631C338.274 229.307 340.28 232.866 341.057 235.714Z" fill="#161616" stroke="#161616" stroke-miterlimit="10"/>
<path d="M316.852 265.225C324.748 268.59 331.931 263.866 337.756 258.753C338.727 257.912 337.303 256.553 336.397 257.394C331.349 261.795 324.877 266.519 317.888 263.542C316.658 263.089 315.687 264.772 316.852 265.225Z" fill="#161616"/>
<path d="M339.633 246.004C340.862 246.004 340.862 244.062 339.633 244.062C338.403 244.062 338.403 246.004 339.633 246.004Z" fill="#161616"/>
<path d="M346.816 242.38C346.881 242.315 346.946 242.25 347.01 242.186C347.399 241.797 347.399 241.215 347.01 240.827C346.622 240.438 346.04 240.438 345.651 240.827C345.587 240.891 345.522 240.956 345.457 241.021C345.069 241.409 345.069 241.991 345.457 242.38C345.846 242.768 346.428 242.768 346.816 242.38Z" fill="#161616"/>
<path d="M344.681 247.104C344.745 247.104 344.81 247.104 344.875 247.104C345.393 247.104 345.846 246.651 345.846 246.133C345.846 245.615 345.393 245.162 344.875 245.162C344.81 245.162 344.745 245.162 344.681 245.162C344.163 245.162 343.71 245.615 343.71 246.133C343.71 246.651 344.098 247.104 344.681 247.104Z" fill="#161616"/>
<path d="M300.026 224.13C302.485 222.059 306.109 221.994 308.569 224C309.539 224.777 310.898 223.418 309.928 222.641C306.562 219.923 301.903 219.923 298.602 222.771C297.696 223.547 299.12 224.906 300.026 224.13Z" fill="#161616"/>
<path d="M331.608 223.418C334.391 220.959 338.339 220.506 341.639 222.253C342.739 222.835 343.71 221.153 342.61 220.57C338.533 218.37 333.679 218.952 330.249 222.059C329.278 222.9 330.637 224.259 331.608 223.418Z" fill="#161616"/>
<path d="M300.544 245.81C301.773 245.81 301.773 243.868 300.544 243.868C299.314 243.868 299.314 245.81 300.544 245.81Z" fill="#161616"/>
<path d="M307.404 244.904C308.634 244.904 308.634 242.962 307.404 242.962C306.175 242.962 306.175 244.904 307.404 244.904Z" fill="#161616"/>
<path d="M303.974 246.392C303.909 246.457 303.845 246.522 303.78 246.586C303.392 246.975 303.392 247.557 303.78 247.945C304.168 248.334 304.751 248.334 305.139 247.945C305.204 247.881 305.268 247.816 305.333 247.751C305.722 247.363 305.722 246.781 305.333 246.392C304.945 246.004 304.362 246.004 303.974 246.392Z" fill="#161616"/>
<path d="M298.02 183.617C294.137 186.012 285.659 191.254 279.899 201.997C274.14 212.675 274.204 222.771 274.463 227.107C265.015 244.127 260.743 259.141 258.672 269.367C255.307 285.61 257.119 291.564 259.449 295.512C265.144 305.22 276.599 307.614 279.382 308.197C293.684 311.238 305.074 303.925 307.663 302.243C308.375 300.107 309.087 297.454 309.475 294.477C310.187 289.364 309.799 284.963 309.216 281.792C305.98 279.139 302.227 275.579 298.603 270.92C293.102 263.801 289.995 256.812 288.248 251.764C282.553 251.181 278.282 247.298 277.893 242.962C277.505 238.885 280.352 233.643 284.106 233.643C286.889 233.643 288.895 236.491 289.283 237.008C291.419 235.779 294.396 233.643 297.049 230.278C300.868 225.424 301.515 221.088 303.262 216.558C304.945 212.157 308.181 206.074 315.17 199.732C321.901 202.126 327.272 204.456 330.961 206.203C342.804 211.704 349.535 214.94 354.777 221.994C357.689 225.877 359.177 229.695 359.954 232.09C365.973 227.495 368.432 228.725 368.95 228.983C372.768 231.119 372.638 242.833 366.684 246.069C364.419 247.298 361.831 246.975 360.213 246.586C358.336 253.123 354.194 263.801 344.681 273.25C341.51 276.421 338.274 278.88 335.362 280.757C335.103 283.151 334.973 286.452 335.62 290.335C336.203 293.894 337.238 296.806 338.209 298.877C353.935 309.232 373.48 307.355 384.093 296.224C393.542 286.258 393.542 271.179 389.982 260.889C386.747 251.505 380.469 245.874 377.363 243.415C378.204 239.791 382.864 218.305 369.338 198.567C365.843 193.454 356.071 181.093 338.468 176.822C319.83 172.292 304.492 179.669 298.02 183.617Z" fill="#191919"/>
<path opacity="0.17" d="M339.05 210.216C346.363 219.405 348.305 227.883 348.952 232.284C351.605 250.793 340.863 265.807 335.426 273.508C330.961 279.786 326.366 284.251 323.065 287.164C325.913 294.8 328.696 302.372 331.543 310.009C334.456 309.038 337.368 308.067 340.28 307.096C338.921 304.702 337.497 301.725 336.397 298.101C334.391 291.629 334.261 285.934 334.456 282.051C338.015 279.527 342.157 276.097 346.169 271.567C354.194 262.507 358.207 253.187 360.277 246.91C361.572 247.169 364.355 247.492 367.008 246.004C372.574 242.833 371.668 234.937 371.603 234.42C371.409 232.737 371.02 230.019 369.079 228.919C366.814 227.689 363.06 228.854 360.083 232.349C359.177 229.178 356.589 221.865 349.599 216.04C345.716 212.804 341.769 211.122 339.05 210.216Z" fill="#6D6C6C"/>
<path opacity="0.19" d="M320.088 226.007C319.7 225.942 318.406 231.572 314.458 256.423C316.723 256.423 318.988 256.423 321.253 256.423C320.8 253.123 320.282 248.334 320.024 242.509C319.7 232.543 320.477 226.071 320.088 226.007Z" fill="#6D6C6C"/>
<path opacity="0.54" d="M376.974 244.062C375.874 244.71 380.016 250.275 379.433 258.559C379.239 261.148 378.851 267.037 374.191 270.984C373.868 271.243 366.943 276.938 360.083 273.314C356.006 271.179 353.547 266.648 353.676 261.73C351.735 265.354 348.563 270.143 343.58 274.803C340.474 277.715 337.432 279.851 334.779 281.469C334.585 284.316 334.585 288.199 335.62 292.6C336.203 294.994 336.914 297.065 337.626 298.748C339.633 300.042 342.609 301.79 346.492 303.149C348.952 303.99 362.477 308.714 375.68 302.178C378.009 301.013 383.187 298.36 386.94 292.665C387.393 291.953 389.076 289.429 390.306 285.157C394.706 270.531 388.235 257.329 387.652 256.229C384.093 249.046 378.333 243.286 376.974 244.062Z" fill="#282828"/>
<path opacity="0.35" d="M288.183 252.022C287.601 252.087 288.895 257.394 287.471 262.636C286.436 266.519 283.135 272.861 277.505 274.155C271.616 275.45 264.303 271.114 260.937 263.024C259.384 266.584 257.313 272.279 256.99 279.527C256.796 284.251 256.537 289.299 258.867 294.282C264.109 305.414 279.511 309.75 290.966 308.714C298.603 308.002 304.362 305.025 307.469 303.019C308.245 300.819 309.022 298.165 309.54 295.124C310.381 289.882 310.187 285.287 309.734 281.921C304.621 278.233 301.126 274.414 298.926 271.632C295.82 267.684 291.613 262.377 289.477 254.999C289.154 254.158 288.571 251.958 288.183 252.022Z" fill="#282828"/>
</svg>
