<svg width="40" height="40" viewBox="0 0 40 40" fill="none" xmlns="http://www.w3.org/2000/svg">
<path d="M38.8281 4.6875H32.8906V1.17188C32.8906 0.524687 32.3659 0 31.7188 0H8.28125C7.63406 0 7.10938 0.524687 7.10938 1.17188V4.6875H1.17188C0.524687 4.6875 0 5.21219 0 5.85938V31.6406C0 32.2878 0.524687 32.8125 1.17188 32.8125H14.1406V37.6562H10.625C9.97781 37.6562 9.45312 38.1809 9.45312 38.8281C9.45312 39.4753 9.97781 40 10.625 40H29.375C30.0222 40 30.5469 39.4753 30.5469 38.8281C30.5469 38.1809 30.0222 37.6562 29.375 37.6562H25.8594V32.8125H38.8281C39.4753 32.8125 40 32.2878 40 31.6406V5.85938C40 5.21219 39.4753 4.6875 38.8281 4.6875ZM37.6562 7.03125V25.7812H32.8906V7.03125H37.6562ZM9.45312 2.34375H30.5469V25.7812H9.45312V2.34375ZM7.10938 7.03125V25.7812H2.34375V7.03125H7.10938ZM23.5156 37.6562H16.4844V32.8125H23.5156V37.6562ZM2.34375 30.4688V28.125H37.6562V30.4688H2.34375Z" fill="black"/>
<path d="M14.4839 10.2034C14.7127 10.4323 15.0126 10.5467 15.3125 10.5467C15.6125 10.5467 15.9124 10.4323 16.1411 10.2034L19.6568 6.68777C20.1144 6.23011 20.1144 5.48815 19.6568 5.0305C19.1992 4.57284 18.4572 4.57284 17.9995 5.0305L15.3125 7.71753L13.7974 6.20245C13.3398 5.7448 12.5978 5.7448 12.1401 6.20245C11.6825 6.66011 11.6825 7.40206 12.1401 7.85972L14.4839 10.2034Z" fill="black"/>
<path d="M14.4839 17.2346C14.7127 17.4635 15.0126 17.5779 15.3125 17.5779C15.6125 17.5779 15.9124 17.4635 16.1411 17.2346L19.6568 13.719C20.1144 13.2614 20.1144 12.5194 19.6568 12.0617C19.1992 11.6041 18.4572 11.6041 17.9995 12.0617L15.3125 14.7488L13.7974 13.2337C13.3398 12.776 12.5978 12.776 12.1401 13.2337C11.6825 13.6914 11.6825 14.4333 12.1401 14.891L14.4839 17.2346Z" fill="black"/>
<path d="M14.4839 24.2659C14.7127 24.4948 15.0126 24.6092 15.3125 24.6092C15.6125 24.6092 15.9124 24.4948 16.1411 24.2659L19.6568 20.7503C20.1144 20.2926 20.1144 19.5507 19.6568 19.093C19.1992 18.6353 18.4572 18.6353 17.9995 19.093L15.3125 21.78L13.7974 20.265C13.3398 19.8073 12.5978 19.8073 12.1401 20.265C11.6825 20.7226 11.6825 21.4646 12.1401 21.9222L14.4839 24.2659Z" fill="black"/>
<path d="M22.3438 9.375H27.0312C27.6784 9.375 28.2031 8.85031 28.2031 8.20312C28.2031 7.55594 27.6784 7.03125 27.0312 7.03125H22.3438C21.6966 7.03125 21.1719 7.55594 21.1719 8.20312C21.1719 8.85031 21.6966 9.375 22.3438 9.375Z" fill="black"/>
<path d="M22.3438 16.4062H27.0312C27.6784 16.4062 28.2031 15.8816 28.2031 15.2344C28.2031 14.5872 27.6784 14.0625 27.0312 14.0625H22.3438C21.6966 14.0625 21.1719 14.5872 21.1719 15.2344C21.1719 15.8816 21.6966 16.4062 22.3438 16.4062Z" fill="black"/>
<path d="M22.3438 23.4375H27.0312C27.6784 23.4375 28.2031 22.9128 28.2031 22.2656C28.2031 21.6184 27.6784 21.0938 27.0312 21.0938H22.3438C21.6966 21.0938 21.1719 21.6184 21.1719 22.2656C21.1719 22.9128 21.6966 23.4375 22.3438 23.4375Z" fill="black"/>
</svg>
