<svg width="40" height="40" viewBox="0 0 40 40" fill="none" xmlns="http://www.w3.org/2000/svg">
<g clip-path="url(#clip0)">
<path d="M38.7971 15.4543L38.7599 15.4115C38.4771 15.0857 37.9837 15.0508 37.6578 15.3336C37.4799 15.4879 37.3888 15.7051 37.3887 15.9235C37.3886 16.1051 37.4515 16.2877 37.5799 16.4357L37.6171 16.4786C37.7716 16.6565 37.9889 16.7477 38.2075 16.7477C38.389 16.7477 38.5714 16.6848 38.7192 16.5565C38.8971 16.4021 38.9883 16.185 38.9884 15.9665C38.9885 15.7849 38.9256 15.6024 38.7971 15.4543Z" fill="black"/>
<path d="M36.6268 13.1419C36.3635 12.8809 36.097 12.6234 35.8344 12.3764C33.6245 10.2991 31.3497 8.63031 29.073 7.41641C26.0402 5.80008 22.9877 4.98047 20.0003 4.98047C17.013 4.98047 13.9604 5.8 10.9275 7.41648C8.65094 8.63031 6.37618 10.2991 4.16602 12.3766C3.10954 13.3705 2.06969 14.4551 1.07547 15.6005C0.792739 15.9263 0.827583 16.4198 1.15344 16.7027C1.30133 16.831 1.48368 16.8939 1.66524 16.8939C1.88375 16.8939 2.1011 16.8027 2.25555 16.6248C3.2154 15.5191 4.21844 14.4727 5.23649 13.5149C7.34586 11.5321 9.5079 9.94422 11.6626 8.79539C14.4668 7.30078 17.2721 6.54305 20.0004 6.54305C22.7288 6.54305 25.534 7.30078 28.3381 8.79531C30.4929 9.94422 32.6549 11.5321 34.7641 13.5148C35.0166 13.7523 35.2731 14.0002 35.5267 14.2516C35.8331 14.5555 36.3278 14.5533 36.6316 14.2467C36.9353 13.9403 36.9332 13.4456 36.6268 13.1419Z" fill="black"/>
<path d="M39.4752 21.4155C39.4742 21.4076 39.4731 21.3998 39.4718 21.3919C39.4612 21.3251 39.4418 21.2596 39.4138 21.1969C39.411 21.1906 39.4082 21.1844 39.4052 21.1782C39.39 21.1464 39.3731 21.1151 39.3533 21.0851C39.2604 20.944 37.1662 17.7871 33.7589 14.5847C31.7437 12.6907 29.6874 11.1788 27.6471 10.091C25.0585 8.711 22.4857 8.01123 20.0004 8.01123C17.515 8.01123 14.9422 8.711 12.3536 10.091C10.3133 11.1788 8.25699 12.6906 6.24184 14.5847C2.83449 17.7871 0.740273 20.9441 0.647383 21.0852C0.627617 21.1151 0.610742 21.1464 0.595508 21.1782C0.592539 21.1844 0.589648 21.1906 0.586836 21.1969C0.558789 21.2597 0.539414 21.3252 0.528789 21.392C0.527539 21.3999 0.526445 21.4077 0.52543 21.4156C0.516914 21.4819 0.516914 21.5489 0.52543 21.6151C0.526445 21.623 0.527539 21.6309 0.528789 21.6387C0.539414 21.7055 0.558789 21.7711 0.586836 21.8338C0.589648 21.8401 0.592539 21.8463 0.595508 21.8526C0.610742 21.8844 0.627617 21.9156 0.647383 21.9455C0.740195 22.0865 2.83441 25.2436 6.24184 28.4461C8.25699 30.3401 10.3133 31.8519 12.3536 32.9397C14.9422 34.3197 17.515 35.0195 20.0004 35.0195C22.4857 35.0195 25.0585 34.3197 27.6471 32.9397C29.6874 31.8519 31.7437 30.3401 33.7589 28.4461C37.1662 25.2437 39.2604 22.0866 39.3533 21.9456C39.3731 21.9156 39.39 21.8844 39.4052 21.8525C39.4082 21.8462 39.4111 21.8401 39.4138 21.8338C39.4418 21.7711 39.4612 21.7055 39.4718 21.6387C39.4731 21.6308 39.4742 21.623 39.4752 21.6151C39.4837 21.5488 39.4837 21.4818 39.4752 21.4155ZM20.0003 9.57373C24.8576 9.57373 29.2981 12.6326 32.2819 15.3472C32.0284 15.1884 31.7711 15.0314 31.509 14.8769C27.5834 12.5641 23.7113 11.3915 20.0003 11.3915C16.2893 11.3915 12.4171 12.5642 8.49152 14.8769C8.24223 15.0238 7.99723 15.1731 7.75566 15.324C10.9919 12.3829 15.31 9.57373 20.0003 9.57373ZM20.0003 33.4569C15.1429 33.4569 10.7025 30.398 7.71863 27.6834C7.97215 27.8422 8.22949 27.9993 8.49152 28.1537C12.4172 30.4665 16.2893 31.6392 20.0003 31.6392C23.7113 31.6392 27.5834 30.4665 31.509 28.1537C31.7583 28.0069 32.0033 27.8576 32.2449 27.7067C29.0088 30.6478 24.6907 33.4569 20.0003 33.4569ZM20.0003 30.0767C12.2901 30.0767 5.47098 24.4718 2.41168 21.5153C5.47105 18.5589 12.2901 12.954 20.0003 12.954C27.7104 12.954 34.5296 18.5589 37.5889 21.5154C34.5296 24.4718 27.7104 30.0767 20.0003 30.0767Z" fill="black"/>
<path d="M27.8815 20.1743L27.8812 20.1639C27.8805 20.0836 27.8784 20.0022 27.8744 19.9192C27.8337 19.0691 27.5944 18.2368 27.1822 17.5119C27.1455 17.4474 27.1074 17.3838 27.0683 17.3214C26.4084 16.2695 25.4348 15.5489 24.3266 15.2921C24.0348 15.2245 23.7351 15.1902 23.4355 15.1902C21.9073 15.1902 20.68 15.9639 20.0002 16.5143C19.3203 15.9639 18.0929 15.1902 16.5648 15.1902C16.2653 15.1902 15.9655 15.2244 15.6738 15.2921C14.5656 15.5488 13.5919 16.2695 12.9321 17.3214C12.893 17.3839 12.8549 17.4474 12.8181 17.5121C12.406 18.2368 12.1666 19.0692 12.1259 19.9196C12.1219 20.0019 12.1198 20.0829 12.1191 20.16C12.119 20.1651 12.1189 20.1705 12.1188 20.1743C12.1188 20.1776 12.1187 20.181 12.1187 20.1843C12.1187 20.1859 12.1187 20.1875 12.1187 20.1892C12.1157 20.76 12.1898 21.2964 12.345 21.8286C12.493 22.3368 12.7176 22.8425 13.03 23.3718C13.0369 23.3839 13.0446 23.3962 13.0496 23.4039C14.1502 25.2246 19.0169 28.4172 19.5682 28.7752C19.6942 28.857 19.8381 28.8989 19.9826 28.9008C19.9906 28.9011 19.9987 28.9012 20.0067 28.9012C20.1547 28.9013 20.3027 28.8592 20.4321 28.7752C20.9834 28.4172 25.8501 25.2246 26.948 23.4084C26.9558 23.3962 26.9634 23.3839 26.9687 23.3747C27.2827 22.8425 27.5073 22.3368 27.6553 21.8289C27.8106 21.2964 27.8846 20.7599 27.8816 20.1892C27.8816 20.1875 27.8816 20.1859 27.8816 20.1843C27.8815 20.181 27.8815 20.1776 27.8815 20.1743ZM26.1552 21.3917C26.0431 21.7761 25.8754 22.1518 25.6258 22.576L25.6136 22.5957C24.9047 23.7684 21.6387 26.094 20 27.1886C18.3615 26.0943 15.0959 23.7689 14.3848 22.5927L14.3747 22.5765C14.1256 22.1538 13.9573 21.7771 13.8449 21.3914C13.7323 21.0052 13.6787 20.6138 13.6811 20.1951C13.6812 20.1903 13.6812 20.1857 13.6813 20.182C13.6819 20.1201 13.6834 20.0574 13.6865 19.9941C13.7155 19.3881 13.8849 18.7969 14.1762 18.2847C14.2018 18.2397 14.2283 18.1953 14.2556 18.1518C14.6944 17.4522 15.3234 16.9772 16.0264 16.8144C16.2026 16.7735 16.3837 16.7528 16.5647 16.7528C18.1876 16.7528 19.4064 18.0817 19.4183 18.0949C19.4227 18.0998 19.4275 18.105 19.4321 18.1099C19.5797 18.2661 19.7851 18.3547 20.0001 18.3547C20.215 18.3547 20.4205 18.2661 20.568 18.1099C20.572 18.1057 20.5777 18.0994 20.5816 18.0951C20.5937 18.0817 21.8124 16.7528 23.4355 16.7528C23.6164 16.7528 23.7975 16.7735 23.9738 16.8144C24.6769 16.9772 25.3058 17.4522 25.7446 18.1518C25.7719 18.1954 25.7984 18.2397 25.824 18.2846C26.1153 18.7969 26.2847 19.3881 26.3137 19.9937C26.3168 20.0574 26.3184 20.1201 26.3189 20.1851C26.3189 20.1878 26.319 20.1914 26.3191 20.1951C26.3214 20.6138 26.2679 21.0052 26.1552 21.3917Z" fill="black"/>
<path d="M20 0C19.5685 0 19.2188 0.349844 19.2188 0.78125V2.58086C19.2188 3.01234 19.5685 3.36211 20 3.36211C20.4315 3.36211 20.7812 3.01227 20.7812 2.58086V0.78125C20.7812 0.349844 20.4315 0 20 0Z" fill="black"/>
<path d="M20 36.6379C19.5685 36.6379 19.2188 36.9878 19.2188 37.4192V39.2188C19.2188 39.6502 19.5685 40 20 40C20.4315 40 20.7812 39.6502 20.7812 39.2188V37.4192C20.7812 36.9877 20.4315 36.6379 20 36.6379Z" fill="black"/>
<path d="M8.23514 7.13064L6.96264 5.85814C6.65756 5.55314 6.16287 5.55314 5.85771 5.85814C5.55264 6.16322 5.55264 6.65791 5.85771 6.96307L7.13029 8.23557C7.28287 8.38807 7.48279 8.46439 7.68271 8.46439C7.88264 8.46439 8.08264 8.38807 8.23514 8.23557C8.54022 7.93049 8.54022 7.4358 8.23514 7.13064Z" fill="black"/>
<path d="M34.1423 33.0371L32.8699 31.7646C32.5648 31.4596 32.0701 31.4596 31.7649 31.7646C31.4599 32.0697 31.4599 32.5644 31.7649 32.8696L33.0374 34.1421C33.19 34.2946 33.3899 34.3709 33.5899 34.3709C33.7898 34.3709 33.9898 34.2946 34.1423 34.1421C34.4474 33.837 34.4474 33.3423 34.1423 33.0371Z" fill="black"/>
<path d="M34.1424 5.85814C33.8373 5.55314 33.3426 5.55314 33.0374 5.85814L31.7649 7.13064C31.4599 7.43572 31.4599 7.93041 31.7649 8.23557C31.9176 8.38807 32.1175 8.46439 32.3174 8.46439C32.5174 8.46439 32.7174 8.38807 32.8699 8.23557L34.1424 6.96307C34.4474 6.65799 34.4474 6.1633 34.1424 5.85814Z" fill="black"/>
<path d="M8.23513 31.7646C7.93013 31.4596 7.43545 31.4596 7.13037 31.7646L5.85771 33.0371C5.55264 33.3422 5.55264 33.8369 5.85771 34.1421C6.01029 34.2946 6.21021 34.3709 6.41014 34.3709C6.61006 34.3709 6.81006 34.2946 6.96256 34.1421L8.23505 32.8696C8.54013 32.5645 8.54013 32.0698 8.23513 31.7646Z" fill="black"/>
</g>
<defs>
<clipPath id="clip0">
<rect width="40" height="40" fill="white"/>
</clipPath>
</defs>
</svg>
