<svg width="40" height="40" viewBox="0 0 40 40" fill="none" xmlns="http://www.w3.org/2000/svg">
<g clip-path="url(#clip0)">
<path d="M40 31.765V1.17676H0V31.765H14.8383L13.2696 36.4709H10.5882V38.8238H29.4118V36.4709H26.7303L25.1616 31.765H40ZM2.35294 29.4121V3.5297H37.6471V29.4121H24.3773H15.6226H2.35294ZM24.2501 36.4709H15.7499L17.3185 31.765H22.6814L24.2501 36.4709Z" fill="black"/>
<path d="M34.1176 24.7059V22.3529H16.2682C15.7826 20.9836 14.4749 20 12.9411 20C11.4074 20 10.0997 20.9836 9.61409 22.3529H5.88232V24.7059H9.61409C10.0997 26.0752 11.4074 27.0588 12.9411 27.0588C14.4749 27.0588 15.7825 26.0752 16.2682 24.7059H34.1176ZM12.9411 24.7059C12.2924 24.7059 11.7647 24.1782 11.7647 23.5294C11.7647 22.8806 12.2924 22.3529 12.9411 22.3529C13.5899 22.3529 14.1176 22.8806 14.1176 23.5294C14.1176 24.1782 13.5899 24.7059 12.9411 24.7059Z" fill="black"/>
<path d="M27.0588 20.0002C28.5925 20.0002 29.9001 19.0166 30.3859 17.6473H34.1176V15.2943H30.3859C29.9002 13.925 28.5925 12.9414 27.0588 12.9414C25.5251 12.9414 24.2174 13.925 23.7317 15.2943H5.88232V17.6473H23.7317C24.2174 19.0166 25.5251 20.0002 27.0588 20.0002ZM27.0588 15.2943C27.7075 15.2943 28.2353 15.8221 28.2353 16.4708C28.2353 17.1195 27.7075 17.6473 27.0588 17.6473C26.4101 17.6473 25.8823 17.1195 25.8823 16.4708C25.8823 15.8221 26.4101 15.2943 27.0588 15.2943Z" fill="black"/>
<path d="M12.9411 12.9414C14.4749 12.9414 15.7825 11.9578 16.2682 10.5885H34.1176V8.23551H16.2682C15.7826 6.86618 14.4749 5.88257 12.9411 5.88257C11.4074 5.88257 10.0997 6.86618 9.61409 8.23551H5.88232V10.5885H9.61409C10.0997 11.9578 11.4074 12.9414 12.9411 12.9414ZM12.9411 8.23551C13.5899 8.23551 14.1176 8.76328 14.1176 9.41198C14.1176 10.0607 13.5899 10.5885 12.9411 10.5885C12.2924 10.5885 11.7647 10.0607 11.7647 9.41198C11.7647 8.76328 12.2924 8.23551 12.9411 8.23551Z" fill="black"/>
</g>
<defs>
<clipPath id="clip0">
<rect width="40" height="40" fill="white"/>
</clipPath>
</defs>
</svg>
