<svg width="40" height="38" viewBox="0 0 40 38" fill="none" xmlns="http://www.w3.org/2000/svg">
<path d="M32.8878 13.3601C32.8891 13.287 32.8906 13.214 32.8906 13.1406C32.8906 6.03273 27.1079 0.25 20 0.25C12.8921 0.25 7.10938 6.03273 7.10938 13.1406C7.10938 13.214 7.11094 13.287 7.11219 13.3601C2.89578 15.4904 0 19.8449 0 24.8594C0 31.9673 5.81773 37.75 12.9688 37.75C15.561 37.75 17.9765 36.9802 20 35.6581C22.0235 36.9802 24.439 37.75 27.0312 37.75C34.1823 37.75 40 31.9673 40 24.8594C40 19.8449 37.1042 15.4904 32.8878 13.3601ZM20 32.7133C18.0043 30.9248 16.6921 28.3889 16.5076 25.5502C17.6187 25.8634 18.7901 26.0312 20 26.0312C21.2099 26.0312 22.3813 25.8634 23.4924 25.5502C23.3079 28.3889 21.9957 30.9248 20 32.7133ZM20 23.6875C18.8207 23.6875 17.686 23.4929 16.6262 23.1341C17.0258 20.7164 18.2501 18.5737 20 17.0055C21.7499 18.5737 22.9742 20.7165 23.3737 23.1341C22.314 23.4929 21.1793 23.6875 20 23.6875ZM14.4393 22.0985C11.9115 20.5237 10.0957 17.9095 9.59375 14.8582C10.6545 14.5045 11.7895 14.3125 12.9688 14.3125C14.8105 14.3125 16.543 14.7875 18.0515 15.6207C16.2719 17.3509 14.9891 19.5889 14.4393 22.0985ZM21.9485 15.6207C23.457 14.7875 25.1895 14.3125 27.0312 14.3125C28.2105 14.3125 29.3455 14.5045 30.4062 14.8582C29.9043 17.9095 28.0885 20.5237 25.5607 22.0985C25.0109 19.5889 23.7281 17.3509 21.9485 15.6207ZM20 2.59375C25.5815 2.59375 30.1634 6.95203 30.5233 12.444C29.4118 12.1347 28.2407 11.9688 27.0312 11.9688C24.439 11.9688 22.0235 12.7386 20 14.0606C17.9765 12.7386 15.561 11.9688 12.9688 11.9688C11.7593 11.9688 10.5882 12.1347 9.47672 12.444C9.83664 6.95203 14.4185 2.59375 20 2.59375ZM12.9688 35.4062C7.11008 35.4062 2.34375 30.6749 2.34375 24.8594C2.34375 21.0681 4.36977 17.7382 7.40313 15.879C8.23203 19.6954 10.7554 22.8872 14.1437 24.6224C14.1422 24.7013 14.1406 24.7802 14.1406 24.8594C14.1406 28.4791 15.6409 31.7544 18.0515 34.098C16.543 34.9313 14.8105 35.4062 12.9688 35.4062ZM27.0312 35.4062C25.1895 35.4062 23.457 34.9313 21.9485 34.098C24.3591 31.7544 25.8594 28.4791 25.8594 24.8594C25.8594 24.7802 25.8578 24.7013 25.8563 24.6224C29.2446 22.8872 31.768 19.6954 32.5969 15.879C35.6302 17.7382 37.6562 21.0681 37.6562 24.8594C37.6562 30.6749 32.8899 35.4062 27.0312 35.4062Z" fill="black"/>
</svg>
