<svg width="40" height="40" viewBox="0 0 40 40" fill="none" xmlns="http://www.w3.org/2000/svg">
<path d="M27.0312 25.8594C25.0927 25.8594 23.5156 24.2823 23.5156 22.3438C23.5156 20.4052 25.0927 18.8281 27.0312 18.8281C28.9698 18.8281 30.5469 20.4052 30.5469 22.3438C30.5469 24.2823 28.9698 25.8594 27.0312 25.8594ZM27.0312 21.1719C26.3851 21.1719 25.8594 21.6976 25.8594 22.3438C25.8594 22.9899 26.3851 23.5156 27.0312 23.5156C27.6774 23.5156 28.2031 22.9899 28.2031 22.3438C28.2031 21.6976 27.6775 21.1719 27.0312 21.1719Z" fill="black"/>
<path d="M24.6875 9.375H12.8906C12.2434 9.375 11.7188 8.85031 11.7188 8.20312C11.7188 7.55594 12.2434 7.03125 12.8906 7.03125H24.6875C25.3347 7.03125 25.8594 7.55594 25.8594 8.20312C25.8594 8.85031 25.3347 9.375 24.6875 9.375Z" fill="black"/>
<path d="M30.5469 29.9585V38.8281C30.5469 39.4753 30.0222 40 29.375 40H1.17188C0.524689 40 0 39.4753 0 38.8281V8.20312C0 7.88523 0.131172 7.58648 0.343281 7.37445L7.37453 0.343203C7.37461 0.343125 7.37469 0.343047 7.37484 0.342969C7.58524 0.132578 7.88359 0 8.20312 0H29.375C30.0222 0 30.5469 0.524687 30.5469 1.17188V14.729C35.7809 16.4519 39.5712 21.3839 39.7623 21.6362C40.0792 22.0547 40.0792 22.6328 39.7623 23.0512C39.5712 23.3036 35.7809 28.2356 30.5469 29.9585ZM7.03125 4.00102L4.00101 7.03125H7.03125V4.00102ZM28.2031 2.34375H9.375V8.20312C9.375 8.85031 8.85031 9.375 8.20312 9.375H2.34375V37.6562H28.2031V30.479C27.8175 30.5227 27.4269 30.5469 27.0312 30.5469C26.6354 30.5469 26.2448 30.5227 25.8594 30.4789V31.7969C25.8594 32.4441 25.3347 32.9688 24.6875 32.9688H5.85938C5.21219 32.9688 4.6875 32.4441 4.6875 31.7969V12.8906C4.6875 12.2434 5.21219 11.7188 5.85938 11.7188H24.6875C25.3347 11.7188 25.8594 12.2434 25.8594 12.8906V14.2086C26.2448 14.1648 26.6354 14.1406 27.0312 14.1406C27.4269 14.1406 27.8175 14.1648 28.2031 14.2085V2.34375ZM14.3734 23.0446C14.063 22.6289 14.063 22.0587 14.3734 21.643C14.5618 21.3905 18.2987 16.4564 23.5156 14.7309V14.0625H7.03125V30.625H23.5156V29.9566C18.2987 28.2311 14.5618 23.2971 14.3734 23.0446ZM27.0312 16.4844C22.3874 16.4844 18.2971 20.6529 16.8284 22.3449C19.3547 25.2638 23.1408 28.2031 27.0312 28.2031C31.6735 28.2031 35.8091 24.0413 37.3026 22.3438C35.8085 20.6455 31.6731 16.4844 27.0312 16.4844Z" fill="black"/>
</svg>
