<svg width="40" height="40" viewBox="0 0 40 40" fill="none" xmlns="http://www.w3.org/2000/svg">
<path d="M1.17188 40H13.131C13.7782 40 14.3029 39.4753 14.3029 38.8281V37.5225C14.3029 34.8134 12.7886 32.4512 10.562 31.238C11.3528 30.3985 11.839 29.269 11.839 28.0273C11.839 25.4427 9.73617 23.3398 7.15148 23.3398C4.5668 23.3398 2.46398 25.4427 2.46398 28.0273C2.46398 29.269 2.95016 30.3985 3.74094 31.238C1.5143 32.4512 0 34.8134 0 37.5225V38.8281C0 39.4753 0.524687 40 1.17188 40ZM4.80773 28.0273C4.80773 26.735 5.85914 25.6836 7.15148 25.6836C8.44383 25.6836 9.49523 26.735 9.49523 28.0273C9.49523 29.3197 8.44383 30.3711 7.15148 30.3711C5.85914 30.3711 4.80773 29.3197 4.80773 28.0273ZM7.15148 32.7148C9.66219 32.7148 11.9591 34.683 11.9591 37.6562H2.34375C2.34375 34.6985 4.62734 32.7148 7.15148 32.7148Z" fill="black"/>
<path d="M36.2592 31.238C37.05 30.3985 37.5362 29.269 37.5362 28.0273C37.5362 25.4427 35.4334 23.3398 32.8487 23.3398C30.264 23.3398 28.1612 25.4427 28.1612 28.0273C28.1612 29.269 28.6473 30.3985 29.4381 31.238C27.2116 32.4512 25.6973 34.8133 25.6973 37.5225V38.8281C25.6973 39.4753 26.222 40 26.8691 40H38.8282C39.4754 40 40.0001 39.4753 40.0001 38.8281V37.5225C40.0001 34.8134 38.4858 32.4512 36.2592 31.238ZM30.5048 28.0273C30.5048 26.735 31.5562 25.6836 32.8486 25.6836C34.1409 25.6836 35.1923 26.735 35.1923 28.0273C35.1923 29.3197 34.1409 30.3711 32.8486 30.3711C31.5562 30.3711 30.5048 29.3197 30.5048 28.0273ZM37.6563 37.6562H28.0409C28.0409 34.6985 30.3245 32.7148 32.8486 32.7148C35.3592 32.7148 37.6563 34.6828 37.6563 37.6562Z" fill="black"/>
<path d="M27.1515 15.4883V14.1827C27.1515 11.4735 25.6372 9.11141 23.4107 7.8982C24.2014 7.05867 24.6875 5.92914 24.6875 4.6875C24.6875 2.10281 22.5847 0 20 0C17.4154 0 15.3125 2.10281 15.3125 4.6875C15.3125 5.92914 15.7987 7.05867 16.5895 7.8982C14.3629 9.11141 12.8486 11.4735 12.8486 14.1827V15.4883C12.8486 16.1355 13.3733 16.6602 14.0205 16.6602H25.9796C26.6268 16.6602 27.1515 16.1355 27.1515 15.4883ZM17.6563 4.6875C17.6563 3.39516 18.7077 2.34375 20 2.34375C21.2924 2.34375 22.3438 3.39516 22.3438 4.6875C22.3438 5.97984 21.2924 7.03125 20 7.03125C18.7077 7.03125 17.6563 5.97984 17.6563 4.6875ZM24.8078 14.3164H15.1923C15.1923 11.3587 17.4759 9.375 20 9.375C22.5106 9.375 24.8078 11.343 24.8078 14.3164Z" fill="black"/>
<path d="M24.7344 29.6133C23.2033 30.1163 21.5889 30.3712 19.9361 30.3712C18.3412 30.3712 16.7794 30.133 15.2941 29.6633C14.6769 29.4683 14.0185 29.8101 13.8234 30.4272C13.6283 31.0442 13.9703 31.7027 14.5873 31.8979C16.3014 32.44 18.101 32.7149 19.936 32.7149C21.8378 32.7149 23.6983 32.4205 25.4658 31.84C26.0807 31.638 26.4154 30.9758 26.2134 30.3609C26.0115 29.7461 25.3493 29.4112 24.7344 29.6133Z" fill="black"/>
<path d="M9.19765 9.71191C7.90343 10.9595 6.8032 12.4098 5.9275 14.0227C5.02 15.6942 4.39093 17.4696 4.05781 19.2999C3.92726 20.0171 4.47765 20.6817 5.2121 20.6817C5.76742 20.6817 6.2607 20.2853 6.36367 19.7196C6.65226 18.1342 7.19851 16.5937 7.98718 15.141C8.74835 13.7392 9.70281 12.4803 10.8242 11.3994C11.2902 10.9503 11.3038 10.2084 10.8547 9.74238C10.4055 9.27644 9.66367 9.26277 9.19765 9.71191Z" fill="black"/>
<path d="M30.8021 9.71145C30.3361 9.26223 29.5942 9.27598 29.145 9.74192C28.6959 10.2079 28.7095 10.9498 29.1755 11.399C30.2969 12.4799 31.2515 13.7387 32.0125 15.1406C32.8013 16.5933 33.3475 18.1338 33.6361 19.7191C33.7518 20.3551 34.3612 20.7781 34.9988 20.6622C35.6355 20.5463 36.0578 19.9361 35.9419 19.2994C35.6088 17.4692 34.9797 15.6937 34.0722 14.0222C33.1965 12.4093 32.0963 10.959 30.8021 9.71145Z" fill="black"/>
</svg>
