<svg width="40" height="40" viewBox="0 0 40 40" fill="none" xmlns="http://www.w3.org/2000/svg">
<path d="M38.8281 18.8281H35.2344V15.3125C35.2344 14.6653 34.7097 14.1406 34.0625 14.1406H25.4579L21.1719 9.85461V7.03125H24.6875C25.3347 7.03125 25.8594 6.50656 25.8594 5.85938V1.17188C25.8594 0.524687 25.3347 0 24.6875 0H15.3125C14.6653 0 14.1406 0.524687 14.1406 1.17188V5.85938C14.1406 6.50656 14.6653 7.03125 15.3125 7.03125H18.8281V9.85461L14.5421 14.1406H5.9375C5.29031 14.1406 4.76562 14.6653 4.76562 15.3125V18.8281H1.17188C0.524687 18.8281 0 19.3528 0 20V24.6875C0 25.3347 0.524687 25.8594 1.17188 25.8594H4.76562V29.4531C4.76562 30.1003 5.29031 30.625 5.9375 30.625H18.8281V32.9688H15.3125C14.6653 32.9688 14.1406 33.4934 14.1406 34.1406V38.8281C14.1406 39.4753 14.6653 40 15.3125 40H24.6875C25.3347 40 25.8594 39.4753 25.8594 38.8281V34.1406C25.8594 33.4934 25.3347 32.9688 24.6875 32.9688H21.1719V30.625H34.0625C34.7097 30.625 35.2344 30.1003 35.2344 29.4531V25.8594H38.8281C39.4753 25.8594 40 25.3347 40 24.6875V20C40 19.3528 39.4753 18.8281 38.8281 18.8281ZM16.4844 2.34375H23.5156V4.6875H16.4844V2.34375ZM23.5156 37.6562H16.4844V35.3125H23.5156V37.6562ZM20 11.9973L23.3152 15.3125L20 18.6277L16.6848 15.3125L20 11.9973ZM2.34375 21.1719H9.45312V23.5156H2.34375V21.1719ZM32.8906 28.2812H7.10938V25.8594H10.625C11.2722 25.8594 11.7969 25.3347 11.7969 24.6875V20C11.7969 19.3528 11.2722 18.8281 10.625 18.8281H7.10938V16.4844H14.5421L19.1713 21.1136C19.4002 21.3424 19.7001 21.4568 19.9999 21.4568C20.2998 21.4568 20.5998 21.3424 20.8285 21.1136L25.4579 16.4844H32.8906V18.8281H29.375C28.7278 18.8281 28.2031 19.3528 28.2031 20V24.6875C28.2031 25.3347 28.7278 25.8594 29.375 25.8594H32.8906V28.2812ZM37.6562 23.5156H30.5469V21.1719H37.6562V23.5156Z" fill="black"/>
</svg>
