<svg width="40" height="40" viewBox="0 0 40 40" fill="none" xmlns="http://www.w3.org/2000/svg">
<g clip-path="url(#clip0)">
<path d="M2.38281 37.6563H11.7578C13.2178 37.6563 14.696 37.8917 16.0327 38.3373C19.3425 39.4406 22.7898 40 26.2788 40H32.9297C34.8682 40 36.4453 38.4229 36.4453 36.4844C36.4453 36.0268 36.3566 35.5899 36.1968 35.1886C37.6888 34.782 38.7891 33.4159 38.7891 31.7969C38.7891 30.8971 38.4489 30.0756 37.891 29.4531C38.449 28.8306 38.7891 28.0092 38.7891 27.1094C38.7891 26.2099 38.4495 25.3881 37.8917 24.7656C38.4495 24.1432 38.7891 23.3214 38.7891 22.4219C38.7891 20.4834 37.212 18.9063 35.2734 18.9063H29.9339C32.0325 15.1633 32.5164 11.7466 31.2452 9.39893C30.4436 7.91846 29.0413 7.06057 27.3979 7.04525C26.9969 7.04111 26.2575 7.17861 25.8032 8.13822C25.6251 8.51463 25.5095 8.96213 25.3632 9.52869C24.8431 11.5434 23.8749 15.2935 18.5456 18.9873C17.3056 19.8466 16.8001 20.5371 15.0083 22.2798C14.1855 23.1025 12.9704 23.5938 11.7578 23.5938H2.38281C1.73562 23.5938 1.21094 24.1185 1.21094 24.7656V36.4844C1.21094 37.1316 1.73562 37.6563 2.38281 37.6563ZM16.6655 23.937C18.5116 22.1335 18.8854 21.6033 19.8807 20.9135C22.4798 19.1121 24.4677 17.0592 25.7895 14.8116C26.9134 12.9003 27.3462 11.2238 27.6326 10.1146C27.6901 9.89182 27.7557 9.6376 27.8156 9.43768C28.3945 9.56479 28.8712 9.93666 29.1843 10.5149C29.5478 11.1863 30.4831 13.7694 27.255 18.8172C27.1345 19.0057 27.0704 19.2248 27.0704 19.4485C27.0704 19.6266 27.0631 19.8065 27.0487 19.9832C26.9934 20.6649 27.5323 21.2499 28.2168 21.2499H35.2734C35.9196 21.2499 36.4453 21.7756 36.4453 22.4218C36.4453 23.068 35.9196 23.5937 35.2734 23.5937H32.9297C32.2825 23.5937 31.7578 24.1184 31.7578 24.7656C31.7578 25.4128 32.2825 25.9374 32.9297 25.9374H35.2734C35.9196 25.9374 36.4453 26.4631 36.4453 27.1093C36.4453 27.7555 35.9196 28.2812 35.2734 28.2812H32.9297C32.2825 28.2812 31.7578 28.8059 31.7578 29.4531C31.7578 30.1003 32.2825 30.6249 32.9297 30.6249H35.2734C35.9196 30.6249 36.4453 31.1506 36.4453 31.7968C36.4453 32.443 35.9196 32.9687 35.2734 32.9687H32.9297C32.2825 32.9687 31.7578 33.4933 31.7578 34.1406C31.7578 34.7878 32.2824 35.3124 32.9297 35.3124C33.5759 35.3124 34.1016 35.8381 34.1016 36.4843C34.1016 37.1305 33.5759 37.6562 32.9297 37.6562H26.2788C23.0422 37.6562 19.8443 37.1372 16.7737 36.1138C15.5601 35.7092 14.25 35.4525 12.9297 35.3561V25.8374C14.3462 25.5991 15.666 24.9366 16.6655 23.937ZM3.55469 25.9375H10.5859V35.3125H3.55469V25.9375Z" fill="black"/>
<path d="M28.2422 5.85938C28.8894 5.85938 29.4141 5.33469 29.4141 4.6875V1.17188C29.4141 0.524687 28.8894 0 28.2422 0C27.595 0 27.0703 0.524687 27.0703 1.17188V4.6875C27.0703 5.33469 27.595 5.85938 28.2422 5.85938Z" fill="black"/>
<path d="M22.7261 6.68801C23.1836 7.14566 23.9257 7.14566 24.3833 6.68801C24.841 6.23035 24.841 5.4884 24.3833 5.03074L22.0396 2.68699C21.582 2.22934 20.84 2.22934 20.3823 2.68699C19.9246 3.14465 19.9246 3.8866 20.3823 4.34426L22.7261 6.68801Z" fill="black"/>
<path d="M33.7583 6.68801L36.1021 4.34426C36.5597 3.8866 36.5597 3.14465 36.1021 2.68699C35.6445 2.22934 34.9025 2.22934 34.4448 2.68699L32.1011 5.03074C31.6434 5.4884 31.6434 6.23035 32.1011 6.68801C32.5587 7.14559 33.3007 7.14566 33.7583 6.68801Z" fill="black"/>
<path d="M7.07031 32.9688C7.71752 32.9688 8.24219 32.4441 8.24219 31.7969C8.24219 31.1497 7.71752 30.625 7.07031 30.625C6.4231 30.625 5.89844 31.1497 5.89844 31.7969C5.89844 32.4441 6.4231 32.9688 7.07031 32.9688Z" fill="black"/>
</g>
<defs>
<clipPath id="clip0">
<rect width="40" height="40" fill="white"/>
</clipPath>
</defs>
</svg>
