<svg width="40" height="40" viewBox="0 0 40 40" fill="none" xmlns="http://www.w3.org/2000/svg">
<path d="M20.5979 14.4302C19.2271 15.8009 19.2271 18.0313 20.5979 19.402C21.9685 20.7727 24.199 20.7728 25.5698 19.402C26.9404 18.0313 26.9405 15.8009 25.5698 14.4302C24.199 13.0594 21.9686 13.0595 20.5979 14.4302ZM23.9125 17.7448C23.4556 18.2017 22.7121 18.2017 22.2552 17.7448C21.7982 17.2878 21.7982 16.5444 22.2552 16.0875C22.712 15.6307 23.4555 15.6305 23.9124 16.0875C24.3694 16.5443 24.3694 17.2878 23.9125 17.7448Z" fill="black"/>
<path d="M37.9995 0.343057L35.8567 2.48587C28.6287 2.48907 25.7622 2.63673 18.9408 9.45813L14.4124 13.9865L6.741 12.4522C6.25537 12.355 5.76108 12.5738 5.50631 12.9984L0.534435 21.2848C0.295763 21.6825 0.3142 22.1836 0.581388 22.5627C0.848575 22.9419 1.31428 23.1277 1.76912 23.0368L8.07537 21.7756L7.0567 24.8316C6.91639 25.2527 7.02592 25.717 7.33983 26.0309L7.34209 26.0331C6.12772 26.2047 4.95725 26.7561 4.02522 27.6881C1.96115 29.7522 0.441466 34.7894 0.0071692 38.6985C-0.0321277 39.0524 0.0915442 39.4049 0.343263 39.6566C0.595216 39.9085 0.94795 40.032 1.30131 39.9927C5.21045 39.5583 10.2476 38.0387 12.3116 35.9746C13.2205 35.0658 13.7931 33.9108 13.9692 32.6602C14.283 32.974 14.747 33.0834 15.1682 32.9432L18.2243 31.9245L16.963 38.2307C16.872 38.6856 17.0579 39.1513 17.4371 39.4184C17.8167 39.686 18.3179 39.7038 18.7151 39.4654L27.0015 34.4935C27.4262 34.2388 27.6448 33.7445 27.5476 33.2588L26.0133 25.5874L30.5417 21.0591C37.3632 14.2377 37.5108 11.3711 37.514 4.14314L39.6568 2.00032C40.1144 1.54267 40.1144 0.800713 39.6568 0.343057C39.1991 -0.114678 38.4571 -0.114678 37.9995 0.343057ZM7.09115 14.9124L12.4206 15.9782L9.24795 19.1509L3.90709 20.219L7.09115 14.9124ZM10.6543 34.3173C9.42264 35.549 5.98865 36.8474 2.55326 37.4465C3.15233 34.0111 4.45076 30.5771 5.68248 29.3455C6.36787 28.6601 7.26811 28.3174 8.16842 28.3174C9.06873 28.3174 9.96897 28.6602 10.6544 29.3455C11.3183 30.0095 11.684 30.8924 11.684 31.8314C11.684 32.7705 11.3183 33.6533 10.6543 34.3173ZM15.114 30.4906L9.5092 24.8857L10.3378 22.3998L17.6 29.662L15.114 30.4906ZM25.0874 32.9087L19.7808 36.0927L20.8489 30.7518L24.0215 27.5791L25.0874 32.9087ZM28.8844 19.4017C27.8789 20.4074 20.6194 27.6668 19.7694 28.5168L11.483 20.2304C12.3294 19.384 19.5978 12.1156 20.598 11.1154C21.944 9.76938 23.1019 8.71251 24.1625 7.88126C24.7969 9.71407 25.8384 11.384 27.2271 12.7727C28.6158 14.1614 30.2858 15.2029 32.1186 15.8374C31.2873 16.8979 30.2304 18.0558 28.8844 19.4017ZM33.5003 13.815C31.76 13.3299 30.1744 12.4055 28.8844 11.1153C27.5944 9.82532 26.67 8.23978 26.1847 6.49946C28.844 4.97509 31.2212 4.84212 35.1692 4.83056C35.1577 8.77853 35.0247 11.1558 33.5003 13.815Z" fill="black"/>
</svg>
