<svg width="190" height="190" viewBox="0 0 190 190" fill="none" xmlns="http://www.w3.org/2000/svg">
<circle cx="95" cy="95" r="95" fill="#D6FFFE"/>
<circle cx="95.0001" cy="95.0001" r="72.381" fill="#BFF1F0"/>
<circle cx="94.9998" cy="95.0001" r="45.2381" fill="#D6FFFE"/>
<path opacity="0.2" d="M147.357 44.3904H43.3334C40.8003 44.3904 38.6895 46.5093 38.6895 49.052V57.4429V142.454C38.6895 144.996 40.8003 147.115 43.3334 147.115H72.8855L67.5661 168.813C66.9751 171.186 69.2548 173.814 72.6322 174.661C76.0096 175.509 79.3025 174.237 79.8936 171.864L85.9729 147.115H147.357C149.89 147.115 152.001 144.996 152.001 142.454V57.4429V49.052C152.001 46.5093 149.89 44.3904 147.357 44.3904Z" fill="#536076"/>
<path d="M37 54.0525V139.063C37 141.606 39.1109 143.725 41.6439 143.725H145.667C148.2 143.725 150.311 141.606 150.311 139.063V54.0525H37Z" fill="#D6FFFE"/>
<path d="M72.5463 72.699H44.0918V101.94H72.5463V72.699Z" fill="#BBE3E2"/>
<path d="M107.925 72.699H79.4707V101.94H107.925V72.699Z" fill="#BBE3E2"/>
<path d="M143.218 72.699H114.764V101.94H143.218V72.699Z" fill="#BBE3E2"/>
<path d="M72.5463 106.178H44.0918V135.419H72.5463V106.178Z" fill="#BBE3E2"/>
<path d="M107.925 106.178H79.4707V135.419H107.925V106.178Z" fill="#BBE3E2"/>
<path d="M143.218 106.178H114.764V135.419H143.218V106.178Z" fill="#BBE3E2"/>
<path d="M150.311 45.6616C150.311 43.1189 148.2 41 145.667 41H41.6439C39.1109 41 37 43.1189 37 45.6616V54.0525H150.311V45.6616Z" fill="#BBE3E2"/>
<path d="M141.953 47.5262C141.953 46.0006 143.22 44.7292 144.739 44.7292C146.259 44.7292 147.526 46.0006 147.526 47.5262C147.526 49.0518 146.259 50.3232 144.739 50.3232C143.22 50.3232 141.953 49.0518 141.953 47.5262Z" fill="#D6FFFE"/>
<path d="M134.1 47.5262C134.1 46.0006 135.366 44.7292 136.886 44.7292C138.406 44.7292 139.672 46.0006 139.672 47.5262C139.672 49.0518 138.406 50.3232 136.886 50.3232C135.366 50.3232 134.1 49.0518 134.1 47.5262Z" fill="#D6FFFE"/>
<path d="M129.034 50.3232C130.573 50.3232 131.821 49.0709 131.821 47.5262C131.821 45.9815 130.573 44.7292 129.034 44.7292C127.496 44.7292 126.248 45.9815 126.248 47.5262C126.248 49.0709 127.496 50.3232 129.034 50.3232Z" fill="#D6FFFE"/>
<path d="M142.797 60.0703H44.3457V63.2911H142.797V60.0703Z" fill="#BBE3E2"/>
<path d="M142.797 65.9185H44.3457V69.1392H142.797V65.9185Z" fill="#BBE3E2"/>
<path d="M81.0113 115.351L78.9766 123.664L85.8641 125.363L87.8989 117.05L81.0113 115.351Z" fill="#536076"/>
<path d="M97.0336 65.0708C82.0042 61.3415 66.8904 70.58 63.1753 85.6666C59.4602 100.753 68.6636 115.925 83.6929 119.654C98.6379 123.383 113.836 114.145 117.551 99.1429C121.182 84.0562 112.063 68.8001 97.0336 65.0708ZM85.2972 112.958C73.9829 110.161 67.0593 98.7191 69.8456 87.3617C72.632 76.0044 84.0307 69.0543 95.3449 71.8513C106.659 74.6483 113.583 86.0904 110.796 97.4478C108.01 108.805 96.6114 115.755 85.2972 112.958Z" fill="#80ABC3"/>
<path d="M65.8765 165.507C65.2855 167.88 67.5652 170.508 70.9426 171.355C74.32 172.203 77.6129 170.932 78.204 168.558L87.8295 129.062C88.4206 126.689 86.1408 124.061 82.7634 123.214C79.386 122.366 76.0931 123.638 75.502 126.011L65.8765 165.507Z" fill="#536076"/>
<path opacity="0.6" d="M69.8449 87.3618C72.6312 76.0045 84.0299 69.0544 95.3442 71.8514C106.658 74.6484 113.582 86.0905 110.796 97.4479C108.009 108.805 96.6107 115.755 85.2964 112.958C73.9822 110.161 67.0586 98.7192 69.8449 87.3618Z" fill="#FDFBFD"/>
<path d="M108.178 96.6848C108.094 97.1934 107.925 97.7019 107.756 98.2105C109.276 88.8025 103.365 79.7335 93.9931 77.4451C84.6209 75.1567 75.2486 80.4964 72.209 89.4805C72.2934 88.972 72.3779 88.4635 72.5467 87.9549C74.9953 78.0384 84.8742 72.0207 94.753 74.4786C104.547 76.7671 110.627 86.7683 108.178 96.6848Z" fill="#BBE3E2"/>
<path opacity="0.2" d="M63.09 85.6667C59.7127 99.5668 67.2273 113.552 80.2303 118.552L79.1326 122.96C77.2751 123.299 75.9241 124.4 75.5019 125.926L65.8764 165.423C65.2853 167.796 67.5651 170.423 70.9425 171.271L97.0328 65.0709C82.0034 61.4264 66.8052 70.5801 63.09 85.6667Z" fill="#BBE3E2"/>
</svg>
