<svg width="35" height="53" viewBox="0 0 35 53" fill="none" xmlns="http://www.w3.org/2000/svg">
<g clip-path="url(#clip0)">
<path d="M8.75216 52.9999C13.5812 52.9999 17.5004 49.0426 17.5004 44.1666V35.3333H8.75216C3.92312 35.3333 0.00390625 39.2906 0.00390625 44.1666C0.00390625 49.0426 3.92312 52.9999 8.75216 52.9999Z" fill="black"/>
<path d="M0.00390625 26.5001C0.00390625 21.6241 3.92312 17.6667 8.75216 17.6667H17.5004V35.3334H8.75216C3.92312 35.3334 0.00390625 31.3761 0.00390625 26.5001Z" fill="black"/>
<path d="M0.00390625 8.83333C0.00390625 3.95733 3.92312 0 8.75216 0H17.5004V17.6667H8.75216C3.92312 17.6667 0.00390625 13.7093 0.00390625 8.83333Z" fill="black"/>
<path d="M17.5 0H26.2483C31.0773 0 34.9965 3.95733 34.9965 8.83333C34.9965 13.7093 31.0773 17.6667 26.2483 17.6667H17.5V0Z" fill="black"/>
<path d="M34.9965 26.5001C34.9965 31.3761 31.0773 35.3334 26.2483 35.3334C21.4192 35.3334 17.5 31.3761 17.5 26.5001C17.5 21.6241 21.4192 17.6667 26.2483 17.6667C31.0773 17.6667 34.9965 21.6241 34.9965 26.5001Z" fill="black"/>
</g>
<defs>
<clipPath id="clip0">
<rect width="35" height="53" fill="white"/>
</clipPath>
</defs>
</svg>
