<svg width="250" height="90" viewBox="0 0 250 90" fill="none" xmlns="http://www.w3.org/2000/svg">
<rect width="250" height="90" rx="20" fill="white"/>
<path d="M109.262 28.998V30.562H104.111V34.285H108.361V35.781H104.111V41H102.173V28.998H109.262ZM110.716 28.913C110.716 28.5843 110.83 28.3123 111.056 28.097C111.283 27.8817 111.583 27.774 111.957 27.774C112.331 27.774 112.632 27.8817 112.858 28.097C113.096 28.3123 113.215 28.5843 113.215 28.913C113.215 29.2417 113.096 29.508 112.858 29.712C112.632 29.916 112.331 30.018 111.957 30.018C111.583 30.018 111.283 29.916 111.056 29.712C110.83 29.508 110.716 29.2417 110.716 28.913ZM112.926 31.633V41H110.988V31.633H112.926ZM120.508 31.48C121.596 31.48 122.468 31.8313 123.126 32.534C123.783 33.2367 124.112 34.2397 124.112 35.543V41H122.174V35.747C122.174 34.9083 121.958 34.2623 121.528 33.809C121.097 33.3443 120.508 33.112 119.76 33.112C118.989 33.112 118.371 33.3613 117.907 33.86C117.442 34.3473 117.21 35.067 117.21 36.019V41H115.272V31.633H117.21V33.69C117.459 32.9873 117.878 32.4433 118.468 32.058C119.057 31.6727 119.737 31.48 120.508 31.48ZM130.135 31.514C130.985 31.514 131.71 31.7237 132.311 32.143C132.912 32.5623 133.337 33.1177 133.586 33.809V31.633H135.524V41H133.586V38.824C133.337 39.5153 132.912 40.0707 132.311 40.49C131.71 40.9093 130.985 41.119 130.135 41.119C129.319 41.119 128.588 40.9263 127.942 40.541C127.307 40.1557 126.809 39.6003 126.446 38.875C126.083 38.1497 125.902 37.294 125.902 36.308C125.902 35.3333 126.083 34.4833 126.446 33.758C126.809 33.0327 127.307 32.4773 127.942 32.092C128.588 31.7067 129.319 31.514 130.135 31.514ZM130.73 33.214C129.869 33.214 129.177 33.4917 128.656 34.047C128.146 34.591 127.891 35.3447 127.891 36.308C127.891 37.2713 128.146 38.0307 128.656 38.586C129.177 39.13 129.869 39.402 130.73 39.402C131.274 39.402 131.761 39.2773 132.192 39.028C132.623 38.7673 132.963 38.4047 133.212 37.94C133.461 37.4753 133.586 36.9313 133.586 36.308C133.586 35.696 133.461 35.1577 133.212 34.693C132.963 34.217 132.623 33.8543 132.192 33.605C131.761 33.3443 131.274 33.214 130.73 33.214ZM139.788 28.42V41H137.85V28.42H139.788ZM112.475 56.982C112.475 58.1947 112.226 59.2543 111.727 60.161C111.24 61.0563 110.52 61.7533 109.568 62.252C108.627 62.7507 107.5 63 106.185 63H102.173V50.998H106.185C107.5 50.998 108.627 51.2473 109.568 51.746C110.52 52.2333 111.24 52.9247 111.727 53.82C112.226 54.7153 112.475 55.7693 112.475 56.982ZM106.032 61.249C107.471 61.249 108.576 60.875 109.347 60.127C110.118 59.379 110.503 58.3307 110.503 56.982C110.503 55.6333 110.118 54.585 109.347 53.837C108.576 53.089 107.471 52.715 106.032 52.715H104.111V61.249H106.032ZM123.129 57.866C123.129 58.1833 123.106 58.461 123.061 58.699H115.853C115.887 59.6623 116.153 60.3763 116.652 60.841C117.151 61.3057 117.768 61.538 118.505 61.538C119.151 61.538 119.695 61.3737 120.137 61.045C120.59 60.7163 120.868 60.28 120.97 59.736H123.044C122.919 60.3933 122.659 60.977 122.262 61.487C121.865 61.997 121.35 62.3993 120.715 62.694C120.08 62.9773 119.372 63.119 118.59 63.119C117.683 63.119 116.879 62.9263 116.176 62.541C115.485 62.1557 114.941 61.6003 114.544 60.875C114.147 60.1497 113.949 59.294 113.949 58.308C113.949 57.3333 114.147 56.4833 114.544 55.758C114.941 55.0327 115.485 54.4773 116.176 54.092C116.879 53.7067 117.683 53.514 118.59 53.514C119.508 53.514 120.307 53.7067 120.987 54.092C121.678 54.466 122.205 54.9873 122.568 55.656C122.942 56.3133 123.129 57.05 123.129 57.866ZM121.174 57.815C121.197 57.203 121.089 56.693 120.851 56.285C120.624 55.8657 120.307 55.5597 119.899 55.367C119.502 55.163 119.066 55.061 118.59 55.061C117.831 55.061 117.196 55.2933 116.686 55.758C116.176 56.2227 115.898 56.9083 115.853 57.815H121.174ZM129.165 53.514C130.378 53.514 131.381 53.837 132.174 54.483C132.967 55.1177 133.46 55.9847 133.653 57.084H131.596C131.483 56.4947 131.205 56.0357 130.763 55.707C130.332 55.367 129.788 55.197 129.131 55.197C128.383 55.197 127.76 55.4633 127.261 55.996C126.762 56.5173 126.513 57.288 126.513 58.308C126.513 59.328 126.762 60.1043 127.261 60.637C127.76 61.1697 128.383 61.436 129.131 61.436C129.788 61.436 130.332 61.266 130.763 60.926C131.205 60.586 131.483 60.1213 131.596 59.532H133.653C133.46 60.6313 132.967 61.504 132.174 62.15C131.381 62.796 130.378 63.119 129.165 63.119C128.258 63.119 127.454 62.9263 126.751 62.541C126.06 62.1557 125.516 61.6003 125.119 60.875C124.722 60.1497 124.524 59.294 124.524 58.308C124.524 57.3333 124.722 56.4833 125.119 55.758C125.516 55.0327 126.06 54.4773 126.751 54.092C127.454 53.7067 128.258 53.514 129.165 53.514ZM135.254 50.913C135.254 50.5843 135.367 50.3123 135.594 50.097C135.82 49.8817 136.121 49.774 136.495 49.774C136.869 49.774 137.169 49.8817 137.396 50.097C137.634 50.3123 137.753 50.5843 137.753 50.913C137.753 51.2417 137.634 51.508 137.396 51.712C137.169 51.916 136.869 52.018 136.495 52.018C136.121 52.018 135.82 51.916 135.594 51.712C135.367 51.508 135.254 51.2417 135.254 50.913ZM137.464 53.633V63H135.526V53.633H137.464ZM142.886 53.514C143.985 53.514 144.863 53.7973 145.521 54.364C146.189 54.9193 146.597 55.6673 146.745 56.608H144.909C144.829 56.098 144.608 55.69 144.246 55.384C143.894 55.0667 143.424 54.908 142.835 54.908C142.347 54.908 141.968 55.027 141.696 55.265C141.435 55.4917 141.305 55.8033 141.305 56.2C141.305 56.4947 141.401 56.7327 141.594 56.914C141.786 57.0953 142.024 57.237 142.308 57.339C142.602 57.441 143.016 57.5543 143.549 57.679C144.251 57.8377 144.818 58.002 145.249 58.172C145.691 58.342 146.065 58.614 146.371 58.988C146.688 59.3507 146.847 59.8493 146.847 60.484C146.847 61.266 146.546 61.9007 145.946 62.388C145.356 62.8753 144.557 63.119 143.549 63.119C142.381 63.119 141.435 62.847 140.71 62.303C139.996 61.759 139.565 60.9997 139.418 60.025H141.305C141.361 60.535 141.588 60.9487 141.985 61.266C142.381 61.5833 142.903 61.742 143.549 61.742C144.013 61.742 144.376 61.623 144.637 61.385C144.909 61.1357 145.045 60.824 145.045 60.45C145.045 60.1213 144.943 59.8607 144.739 59.668C144.535 59.4753 144.28 59.328 143.974 59.226C143.668 59.1127 143.248 58.9993 142.716 58.886C142.036 58.7273 141.48 58.5687 141.05 58.41C140.63 58.2513 140.268 57.9963 139.962 57.645C139.667 57.2823 139.52 56.795 139.52 56.183C139.52 55.3897 139.814 54.7493 140.404 54.262C141.004 53.7633 141.832 53.514 142.886 53.514ZM148.518 50.913C148.518 50.5843 148.632 50.3123 148.858 50.097C149.085 49.8817 149.385 49.774 149.759 49.774C150.133 49.774 150.434 49.8817 150.66 50.097C150.898 50.3123 151.017 50.5843 151.017 50.913C151.017 51.2417 150.898 51.508 150.66 51.712C150.434 51.916 150.133 52.018 149.759 52.018C149.385 52.018 149.085 51.916 148.858 51.712C148.632 51.508 148.518 51.2417 148.518 50.913ZM150.728 53.633V63H148.79V53.633H150.728ZM157.357 53.514C158.264 53.514 159.08 53.7067 159.805 54.092C160.531 54.4773 161.097 55.0327 161.505 55.758C161.913 56.4833 162.117 57.3333 162.117 58.308C162.117 59.294 161.913 60.1497 161.505 60.875C161.097 61.6003 160.531 62.1557 159.805 62.541C159.08 62.9263 158.264 63.119 157.357 63.119C156.451 63.119 155.635 62.9263 154.909 62.541C154.195 62.1557 153.629 61.6003 153.209 60.875C152.801 60.1383 152.597 59.2827 152.597 58.308C152.597 57.3333 152.801 56.4833 153.209 55.758C153.629 55.0327 154.195 54.4773 154.909 54.092C155.635 53.7067 156.451 53.514 157.357 53.514ZM157.357 55.197C156.859 55.197 156.4 55.3103 155.98 55.537C155.561 55.7637 155.221 56.115 154.96 56.591C154.711 57.0557 154.586 57.628 154.586 58.308C154.586 58.9993 154.711 59.5773 154.96 60.042C155.221 60.5067 155.561 60.8523 155.98 61.079C156.4 61.3057 156.859 61.419 157.357 61.419C157.856 61.419 158.315 61.3057 158.734 61.079C159.154 60.8523 159.488 60.5067 159.737 60.042C159.998 59.5773 160.128 58.9993 160.128 58.308C160.128 57.628 159.998 57.0557 159.737 56.591C159.488 56.115 159.154 55.7637 158.734 55.537C158.315 55.3103 157.856 55.197 157.357 55.197ZM169.217 53.48C170.305 53.48 171.177 53.8313 171.835 54.534C172.492 55.2367 172.821 56.2397 172.821 57.543V63H170.883V57.747C170.883 56.9083 170.667 56.2623 170.237 55.809C169.806 55.3443 169.217 55.112 168.469 55.112C167.698 55.112 167.08 55.3613 166.616 55.86C166.151 56.3473 165.919 57.067 165.919 58.019V63H163.981V53.633H165.919V55.69C166.168 54.9873 166.587 54.4433 167.177 54.058C167.766 53.6727 168.446 53.48 169.217 53.48Z" fill="#232946"/>
<g clip-path="url(#clip0)">
<path d="M67.3651 41.16C67.089 40.76 66.4752 40.02 66.4343 39.9701C56.177 28.94 53.6305 22.5 53.0988 20.79C52.9453 20.32 52.5056 20 51.9943 20C51.4932 20 51.0432 20.32 50.9001 20.79C50.3581 22.4999 47.8116 28.9399 37.5134 40.02C37.5134 40.02 36.9101 40.76 36.6237 41.16C34.067 44.7301 32.9012 49.12 33.3409 53.51C33.7704 57.7901 35.7237 61.64 38.6588 64.5501C41.5938 67.4501 45.5003 69.4101 49.8672 69.8801C50.5934 69.9601 51.3092 70.0001 52.0251 70.0001C56.6475 70.0001 61.0142 68.3701 64.5015 65.3201C68.4695 61.85 70.7501 56.8701 70.7501 51.66C70.7501 47.88 69.5738 44.25 67.3651 41.16ZM50.4436 64.7692C44.2847 64.1031 39.1812 59.0481 38.5741 53.0109L40.6094 52.8147C41.1247 57.9324 45.449 62.217 50.6692 62.781L50.4436 64.7692Z" fill="#232946"/>
</g>
<defs>
<clipPath id="clip0">
<rect width="50" height="50" fill="white" transform="translate(27 20)"/>
</clipPath>
</defs>
</svg>
