<svg width="75" height="75" viewBox="0 0 75 75" fill="none" xmlns="http://www.w3.org/2000/svg">
<path d="M75 30.8979V44.1021C75 45.2227 74.1577 46.1631 73.0444 46.2861L62.6177 47.4434C62.521 47.688 62.4199 47.9312 62.3145 48.1743L68.8887 56.3511C69.5903 57.2241 69.5244 58.4839 68.7334 59.2778L59.4185 68.6353C58.6274 69.4292 57.3677 69.5024 56.4917 68.8037L48.2856 62.2676C48.0059 62.3892 47.7246 62.5049 47.4434 62.6177L46.2861 73.0444C46.1631 74.1577 45.2227 75 44.1021 75H30.8979C29.7773 75 28.8369 74.1577 28.7139 73.0444L27.5566 62.6177C27.312 62.521 27.0688 62.4199 26.8257 62.3145L18.6489 68.8887C17.7759 69.5903 16.5161 69.5244 15.7222 68.7334L6.36475 59.4185C5.5708 58.6274 5.49756 57.3677 6.19629 56.4917L12.7324 48.2856C12.6108 48.0059 12.4951 47.7246 12.3823 47.4434L1.95557 46.2861C0.842285 46.1631 0 45.2227 0 44.1021V30.8979C0 29.7773 0.842285 28.8369 1.95557 28.7139L12.3823 27.5566C12.479 27.312 12.5801 27.0688 12.6855 26.8257L6.11133 18.6489C5.40967 17.7759 5.47559 16.5161 6.2666 15.7222L15.5815 6.36475C16.3726 5.5708 17.6323 5.49756 18.5083 6.19629L26.7144 12.7324C26.9941 12.6108 27.2754 12.4951 27.5566 12.3823L28.7139 1.95557C28.8369 0.842285 29.7773 0 30.8979 0H44.1021C45.2227 0 46.1631 0.842285 46.2861 1.95557L47.4434 12.3823C47.688 12.479 47.9312 12.5801 48.1743 12.6855L56.3511 6.11133C57.2241 5.40967 58.4839 5.47559 59.2778 6.2666L68.6353 15.5815C69.4292 16.3726 69.5024 17.6323 68.8037 18.5083L62.2676 26.7144C62.3892 26.9941 62.5049 27.2754 62.6177 27.5566L73.0444 28.7139C74.1577 28.8369 75 29.7773 75 30.8979Z" fill="#334973"/>
<path d="M75 30.8979V44.1021C75 45.2227 74.1577 46.1631 73.0444 46.2861L62.6177 47.4434C62.521 47.688 62.4199 47.9312 62.3145 48.1743L68.8887 56.3511C69.5903 57.2241 69.5244 58.4839 68.7334 59.2778L59.4185 68.6353C58.6274 69.4292 57.3677 69.5024 56.4917 68.8037L48.2856 62.2676C48.0059 62.3892 47.7246 62.5049 47.4434 62.6177L46.2861 73.0444C46.1631 74.1577 45.2227 75 44.1021 75H37.5V0H44.1021C45.2227 0 46.1631 0.842285 46.2861 1.95557L47.4434 12.3823C47.688 12.479 47.9312 12.5801 48.1743 12.6855L56.3511 6.11133C57.2241 5.40967 58.4839 5.47559 59.2778 6.2666L68.6353 15.5815C69.4292 16.3726 69.5024 17.6323 68.8037 18.5083L62.2676 26.7144C62.3892 26.9941 62.5049 27.2754 62.6177 27.5566L73.0444 28.7139C74.1577 28.8369 75 29.7773 75 30.8979Z" fill="#1F3259"/>
<path d="M37.4985 50.1255C44.4714 50.1255 50.124 44.4729 50.124 37.5C50.124 30.5271 44.4714 24.8745 37.4985 24.8745C30.5257 24.8745 24.873 30.5271 24.873 37.5C24.873 44.4729 30.5257 50.1255 37.4985 50.1255Z" fill="#7ED8F6"/>
<path d="M50.1255 37.5C50.1255 44.4727 44.4727 50.1255 37.5 50.1255V24.8745C44.4727 24.8745 50.1255 30.5273 50.1255 37.5Z" fill="#6AA9FF"/>
<path d="M37.5 39.6973C38.7135 39.6973 39.6973 38.7135 39.6973 37.5C39.6973 36.2865 38.7135 35.3027 37.5 35.3027C36.2865 35.3027 35.3027 36.2865 35.3027 37.5C35.3027 38.7135 36.2865 39.6973 37.5 39.6973Z" fill="#F0F7FF"/>
<path d="M39.6973 37.5C39.6973 38.7129 38.7129 39.6973 37.5 39.6973V35.3027C38.7129 35.3027 39.6973 36.2871 39.6973 37.5Z" fill="#DFE7F4"/>
</svg>
