<svg width="190" height="190" viewBox="0 0 190 190" fill="none" xmlns="http://www.w3.org/2000/svg">
<circle cx="95" cy="95" r="95" fill="#F4F4F4"/>
<circle cx="95.0001" cy="95.0001" r="72.381" fill="#EBEBEB"/>
<circle cx="94.9998" cy="95.0001" r="45.2381" fill="#E3E3E3"/>
<path d="M43.182 141.807H62.2728V95.4429L35 74.9883V133.625C35 138.145 38.6614 141.807 43.182 141.807V141.807Z" fill="#4285F4"/>
<path d="M127.727 141.807H146.818C151.338 141.807 154.999 138.145 154.999 133.625V74.9883L127.727 95.4429V141.807Z" fill="#34A853"/>
<path d="M127.727 59.9885V95.4431L154.999 74.9885V64.0795C154.999 53.9681 143.456 48.1931 135.363 54.2613L127.727 59.9885Z" fill="#FBBC04"/>
<path fill-rule="evenodd" clip-rule="evenodd" d="M62.2734 95.4431V59.9885L95.0006 84.5341L127.728 59.9885V95.4431L95.0006 119.989L62.2734 95.4431Z" fill="#EA4335"/>
<path d="M35 64.0795V74.9885L62.2728 95.4431V59.9885L54.6364 54.2613C46.543 48.1931 35 53.9681 35 64.079V64.0795Z" fill="#C5221F"/>
</svg>
