<svg width="146" height="38" viewBox="0 0 146 38" fill="none" xmlns="http://www.w3.org/2000/svg">
<path d="M46.3423 9.18777H48.9806V15.6688L48.8659 17.6189H48.9806C49.382 16.9306 49.9938 16.3571 50.8159 15.8983C51.6571 15.4394 52.527 15.21 53.4255 15.21C55.1462 15.21 56.4653 15.7071 57.383 16.7012C58.3198 17.6762 58.7882 19.0719 58.7882 20.8881V29.7207H56.1499V21.4043C56.1499 18.8807 55.0315 17.6189 52.7946 17.6189C51.724 17.6189 50.8159 18.0682 50.0703 18.9667C49.3438 19.8462 48.9806 20.8785 48.9806 22.0639V29.7207H46.3423V9.18777ZM64.7242 10.8224C64.7242 11.3386 64.5425 11.7783 64.1793 12.1415C63.8161 12.5048 63.3763 12.6864 62.8601 12.6864C62.344 12.6864 61.9042 12.5048 61.541 12.1415C61.1777 11.7783 60.9961 11.3386 60.9961 10.8224C60.9961 10.3062 61.1777 9.86647 61.541 9.50322C61.9042 9.13998 62.344 8.95835 62.8601 8.95835C63.3763 8.95835 63.8161 9.13998 64.1793 9.50322C64.5425 9.86647 64.7242 10.3062 64.7242 10.8224ZM64.1793 15.6688V29.7207H61.541V15.6688H64.1793ZM69.6775 29.7207H67.0392V15.6688H69.5628V17.963H69.6775C69.9451 17.2174 70.49 16.5865 71.3121 16.0703C72.1533 15.535 72.9754 15.2674 73.7783 15.2674C74.5431 15.2674 75.1931 15.3821 75.7284 15.6115L74.9254 18.1638C74.6004 18.0299 74.0842 17.963 73.3769 17.963C72.3827 17.963 71.5128 18.3645 70.7672 19.1675C70.0407 19.9704 69.6775 20.9072 69.6775 21.9778V29.7207ZM82.3244 30.1795C80.2596 30.1795 78.5581 29.4722 77.2198 28.0574C75.8816 26.6427 75.2124 24.8551 75.2124 22.6948C75.2124 20.5535 75.8624 18.7755 77.1625 17.3608C78.4625 15.9269 80.1258 15.21 82.1523 15.21C84.2362 15.21 85.8899 15.8887 87.1135 17.2461C88.3562 18.5844 88.9775 20.4675 88.9775 22.8955L88.9488 23.1823H77.9081C77.9463 24.5588 78.4052 25.6676 79.2846 26.5088C80.164 27.35 81.2155 27.7706 82.4391 27.7706C84.1215 27.7706 85.4407 26.9294 86.3966 25.247L88.7481 26.3941C88.1172 27.5795 87.2378 28.5067 86.1098 29.1758C85.0009 29.845 83.7391 30.1795 82.3244 30.1795ZM78.1088 21.0028H86.1672C86.0907 20.0278 85.6892 19.2248 84.9627 18.5939C84.2553 17.9439 83.2994 17.6189 82.095 17.6189C81.1008 17.6189 80.2405 17.9248 79.514 18.5366C78.8067 19.1483 78.3383 19.9704 78.1088 21.0028ZM103.843 9.07306V29.7207H101.205V11.482H97.2471C95.6794 11.482 94.8956 12.3614 94.8956 14.1203V15.6688H98.5663V18.0777H94.8956V29.7207H92.2573V18.0777H89.619V15.6688H92.2573V13.8048C92.2573 12.3901 92.7161 11.2525 93.6338 10.3922C94.5514 9.51278 95.7559 9.07306 97.2471 9.07306H103.843ZM105.543 22.6948C105.543 20.5344 106.222 18.7469 107.579 17.3321C108.956 15.9174 110.686 15.21 112.77 15.21C114.854 15.21 116.574 15.9174 117.932 17.3321C119.308 18.7469 119.996 20.5344 119.996 22.6948C119.996 24.8742 119.308 26.6618 117.932 28.0574C116.574 29.4722 114.854 30.1795 112.77 30.1795C110.686 30.1795 108.956 29.4722 107.579 28.0574C106.222 26.6427 105.543 24.8551 105.543 22.6948ZM108.181 22.6948C108.181 24.2051 108.621 25.4287 109.501 26.3655C110.38 27.3023 111.47 27.7706 112.77 27.7706C114.07 27.7706 115.16 27.3023 116.039 26.3655C116.918 25.4287 117.358 24.2051 117.358 22.6948C117.358 21.2036 116.918 19.9895 116.039 19.0528C115.14 18.0968 114.051 17.6189 112.77 17.6189C111.489 17.6189 110.399 18.0968 109.501 19.0528C108.621 19.9895 108.181 21.2036 108.181 22.6948ZM141.722 15.6688L137.191 29.7207H134.495L130.996 18.938L127.526 29.7207H124.859L120.328 15.6688H123.081L126.207 26.2794H126.236L129.706 15.6688H132.43L135.9 26.2794H135.929L139.026 15.6688H141.722Z" fill="#232946"/>
<g clip-path="url(#clip0)">
<path d="M0.500363 19.4418C2.67181 21.3044 5.13289 23.4155 9.89339 23.4155C14.654 23.4154 17.1153 21.3044 19.2868 19.4418C21.3404 17.6805 23.1139 16.1592 26.8131 16.1592C30.5124 16.1592 32.286 17.6805 34.3395 19.4418C34.9406 19.9574 35.8458 19.8881 36.3614 19.2871C36.8769 18.6859 36.8077 17.7807 36.2065 17.2652C34.035 15.4027 31.5738 13.2915 26.8131 13.2915C22.0525 13.2915 19.5913 15.4026 17.4197 17.2652C15.3662 19.0265 13.5926 20.5478 9.89339 20.5478C6.19424 20.5478 4.4209 19.0266 2.36747 17.2652C1.76639 16.7496 0.861195 16.8188 0.345577 17.42C-0.17004 18.021 -0.100713 18.9263 0.500363 19.4418Z" fill="#232946"/>
<path d="M0.500363 11.5991C2.67173 13.4617 5.13282 15.5727 9.89339 15.5727C14.654 15.5727 17.1153 13.4617 19.2868 11.5991C21.3404 9.83772 23.1138 8.31646 26.8131 8.31646C30.5123 8.31646 32.2858 9.83764 34.3395 11.5991C34.9406 12.1148 35.8457 12.0453 36.3613 11.4441C36.8769 10.8431 36.8074 9.93773 36.2064 9.42225C34.0348 7.55966 31.5736 5.44873 26.8131 5.44873C22.0525 5.44873 19.5913 7.55981 17.4197 9.4224C15.3662 11.1838 13.5926 12.705 9.89339 12.705C6.19431 12.705 4.4209 11.1838 2.36747 9.4224C1.76639 8.90678 0.861123 8.97604 0.345577 9.57718C-0.17004 10.1783 -0.100713 11.0835 0.500363 11.5991Z" fill="#232946"/>
<path d="M36.2065 25.1079C34.0349 23.2454 31.5737 21.1343 26.8131 21.1343C22.0524 21.1343 19.5912 23.2454 17.4197 25.1079C15.3661 26.8693 13.5926 28.3906 9.89333 28.3906C6.19439 28.3906 4.42092 26.8694 2.36748 25.1081L2.36734 25.1079C1.76626 24.5925 0.861135 24.6618 0.345517 25.2628C-0.170028 25.8639 -0.100701 26.7692 0.500375 27.2847C2.67182 29.1473 5.13297 31.2583 9.89333 31.2583C14.654 31.2583 17.1152 29.1472 19.2867 27.2846C21.3403 25.5233 23.1138 24.002 26.8131 24.002C30.5124 24.002 32.2859 25.5233 34.3394 27.2846C34.9406 27.8002 35.8458 27.7309 36.3613 27.1298C36.8769 26.5287 36.8076 25.6235 36.2065 25.1079Z" fill="#232946"/>
</g>
<defs>
<clipPath id="clip0">
<rect width="36.7069" height="36.7069" fill="white"/>
</clipPath>
</defs>
</svg>
