<svg width="138" height="36" viewBox="0 0 138 36" fill="none" xmlns="http://www.w3.org/2000/svg">
<path d="M43.9032 8.17763H46.4027V14.3176L46.294 16.165H46.4027C46.783 15.513 47.3626 14.9696 48.1414 14.5349C48.9384 14.1002 49.7625 13.8829 50.6137 13.8829C52.2438 13.8829 53.4935 14.3538 54.3629 15.2956C55.2504 16.2193 55.6941 17.5415 55.6941 19.2622V27.6299H53.1947V19.7512C53.1947 17.3604 52.1351 16.165 50.016 16.165C49.0018 16.165 48.1414 16.5906 47.4351 17.4419C46.7468 18.2751 46.4027 19.2531 46.4027 20.376V27.6299H43.9032V8.17763ZM61.3177 9.72621C61.3177 10.2152 61.1456 10.6318 60.8015 10.9759C60.4574 11.3201 60.0408 11.4921 59.5518 11.4921C59.0627 11.4921 58.6462 11.3201 58.302 10.9759C57.9579 10.6318 57.7858 10.2152 57.7858 9.72621C57.7858 9.23718 57.9579 8.82061 58.302 8.47648C58.6462 8.13235 59.0627 7.96029 59.5518 7.96029C60.0408 7.96029 60.4574 8.13235 60.8015 8.47648C61.1456 8.82061 61.3177 9.23718 61.3177 9.72621ZM60.8015 14.3176V27.6299H58.302V14.3176H60.8015ZM66.0103 27.6299H63.5109V14.3176H65.9016V16.491H66.0103C66.2639 15.7847 66.7801 15.187 67.5589 14.6979C68.3558 14.1908 69.1346 13.9372 69.8953 13.9372C70.6198 13.9372 71.2356 14.0459 71.7427 14.2633L70.982 16.6812C70.6741 16.5544 70.1851 16.491 69.515 16.491C68.5732 16.491 67.7491 16.8714 67.0427 17.6321C66.3544 18.3928 66.0103 19.2803 66.0103 20.2945V27.6299ZM77.9916 28.0646C76.0355 28.0646 74.4235 27.3944 73.1557 26.0541C71.8879 24.7139 71.2539 23.0204 71.2539 20.9737C71.2539 18.9452 71.8697 17.2608 73.1014 15.9205C74.333 14.5621 75.9087 13.8829 77.8286 13.8829C79.8028 13.8829 81.3695 14.5259 82.5286 15.8118C83.7059 17.0797 84.2945 18.8637 84.2945 21.1639L84.2674 21.4356H73.8077C73.8439 22.7397 74.2786 23.7901 75.1118 24.5871C75.9449 25.384 76.9411 25.7825 78.1003 25.7825C79.6941 25.7825 80.9438 24.9855 81.8494 23.3917L84.0772 24.4784C83.4795 25.6013 82.6464 26.4798 81.5778 27.1137C80.5273 27.7476 79.3319 28.0646 77.9916 28.0646ZM73.9979 19.3708H81.6321C81.5596 18.4471 81.1793 17.6864 80.491 17.0887C79.8209 16.4729 78.9153 16.165 77.7742 16.165C76.8324 16.165 76.0174 16.4548 75.3291 17.0344C74.659 17.614 74.2152 18.3928 73.9979 19.3708ZM98.3775 8.06896V27.6299H95.8781V10.3511H92.1289C90.6437 10.3511 89.9011 11.1842 89.9011 12.8505V14.3176H93.3786V16.5997H89.9011V27.6299H87.4017V16.5997H84.9022V14.3176H87.4017V12.5517C87.4017 11.2114 87.8364 10.1337 88.7057 9.31869C89.5751 8.48554 90.7162 8.06896 92.1289 8.06896H98.3775ZM99.9883 20.9737C99.9883 18.9271 100.631 17.2336 101.917 15.8933C103.221 14.553 104.86 13.8829 106.835 13.8829C108.809 13.8829 110.439 14.553 111.725 15.8933C113.029 17.2336 113.681 18.9271 113.681 20.9737C113.681 23.0385 113.029 24.732 111.725 26.0541C110.439 27.3944 108.809 28.0646 106.835 28.0646C104.86 28.0646 103.221 27.3944 101.917 26.0541C100.631 24.7139 99.9883 23.0204 99.9883 20.9737ZM102.488 20.9737C102.488 22.4046 102.904 23.5637 103.737 24.4512C104.571 25.3387 105.603 25.7825 106.835 25.7825C108.066 25.7825 109.099 25.3387 109.932 24.4512C110.765 23.5637 111.181 22.4046 111.181 20.9737C111.181 19.561 110.765 18.4109 109.932 17.5234C109.08 16.6178 108.048 16.165 106.835 16.165C105.621 16.165 104.589 16.6178 103.737 17.5234C102.904 18.4109 102.488 19.561 102.488 20.9737ZM134.263 14.3176L129.97 27.6299H127.416L124.102 17.4147L120.814 27.6299H118.288L113.995 14.3176H116.603L119.565 24.3697H119.592L122.879 14.3176H125.46L128.747 24.3697H128.775L131.709 14.3176H134.263Z" fill="#FBFBFF"/>
<g clip-path="url(#clip0)">
<path d="M0.474028 18.4189C2.53118 20.1834 4.86274 22.1835 9.37269 22.1835C13.8828 22.1834 16.2145 20.1834 18.2717 18.4189C20.2172 16.7503 21.8974 15.3091 25.4019 15.3091C28.9065 15.3091 30.5867 16.7503 32.5321 18.4189C33.1016 18.9073 33.9592 18.8417 34.4476 18.2723C34.936 17.7028 34.8704 16.8452 34.3009 16.3568C32.2437 14.5923 29.912 12.5923 25.4019 12.5923C20.8918 12.5923 18.5601 14.5923 16.5029 16.3568C14.5574 18.0255 12.8772 19.4667 9.37269 19.4667C5.86822 19.4667 4.18823 18.0255 2.24286 16.3568C1.67342 15.8684 0.815868 15.9339 0.327389 16.5035C-0.161091 17.0729 -0.0954123 17.9305 0.474028 18.4189Z" fill="#FBFBFF"/>
<path d="M0.474028 10.9888C2.53112 12.7533 4.86267 14.7533 9.37268 14.7533C13.8828 14.7533 16.2145 12.7533 18.2717 10.9888C20.2172 9.3201 21.8973 7.8789 25.4019 7.8789C28.9064 7.8789 30.5866 9.32003 32.5321 10.9888C33.1016 11.4773 33.9591 11.4115 34.4475 10.842C34.936 10.2725 34.8702 9.41484 34.3008 8.9265C32.2435 7.16194 29.9119 5.16211 25.4019 5.16211C20.8918 5.16211 18.5601 7.16208 16.5029 8.92664C14.5574 10.5953 12.8772 12.0365 9.37268 12.0365C5.86829 12.0365 4.18823 10.5954 2.24286 8.92664C1.67342 8.43816 0.8158 8.50377 0.327389 9.07327C-0.161091 9.64271 -0.0954123 10.5003 0.474028 10.9888Z" fill="#FBFBFF"/>
<path d="M34.3008 23.7865C32.2436 22.022 29.9119 20.022 25.4019 20.022C20.8918 20.022 18.5601 22.0219 16.5029 23.7865C14.5574 25.4552 12.8772 26.8963 9.37263 26.8963C5.86837 26.8963 4.18824 25.4552 2.24288 23.7866L2.24274 23.7865C1.6733 23.2982 0.815812 23.3638 0.327332 23.9332C-0.16108 24.5026 -0.095401 25.3603 0.474039 25.8487C2.5312 27.6132 4.86282 29.6131 9.37263 29.6131C13.8827 29.6131 16.2144 27.6132 18.2716 25.8486C20.2171 24.18 21.8973 22.7388 25.4019 22.7388C28.9064 22.7388 30.5867 24.18 32.5321 25.8486C33.1016 26.337 33.9591 26.2714 34.4476 25.702C34.936 25.1325 34.8704 24.2749 34.3008 23.7865Z" fill="#FBFBFF"/>
</g>
<defs>
<clipPath id="clip0">
<rect width="34.775" height="34.775" fill="white"/>
</clipPath>
</defs>
</svg>
