<svg width="755" height="620" viewBox="0 0 755 620" fill="none" xmlns="http://www.w3.org/2000/svg">
<path d="M522.494 140.236C527.794 140.236 532.091 135.939 532.091 130.64C532.091 125.34 527.794 121.043 522.494 121.043C517.194 121.043 512.898 125.34 512.898 130.64C512.898 135.939 517.194 140.236 522.494 140.236Z" fill="#6D6D6D"/>
<path d="M532.679 113.625C535.151 113.625 537.154 111.622 537.154 109.151C537.154 106.68 535.151 104.676 532.679 104.676C530.208 104.676 528.205 106.68 528.205 109.151C528.205 111.622 530.208 113.625 532.679 113.625Z" fill="#6D6D6D"/>
<path d="M239.315 55.3997C241.851 55.3997 243.907 53.3437 243.907 50.8076C243.907 48.2714 241.851 46.2155 239.315 46.2155C236.779 46.2155 234.723 48.2714 234.723 50.8076C234.723 53.3437 236.779 55.3997 239.315 55.3997Z" fill="#6D6D6D"/>
<path d="M539.803 592.853C544.095 592.853 547.574 589.373 547.574 585.082C547.574 580.79 544.095 577.31 539.803 577.31C535.511 577.31 532.032 580.79 532.032 585.082C532.032 589.373 535.511 592.853 539.803 592.853Z" fill="#6D6D6D"/>
<path d="M186.152 619.463C188.135 619.463 189.743 617.855 189.743 615.872C189.743 613.889 188.135 612.281 186.152 612.281C184.168 612.281 182.561 613.889 182.561 615.872C182.561 617.855 184.168 619.463 186.152 619.463Z" fill="#6D6D6D"/>
<path d="M231.014 354.181C233.062 354.181 234.723 352.52 234.723 350.472C234.723 348.423 233.062 346.763 231.014 346.763C228.965 346.763 227.305 348.423 227.305 350.472C227.305 352.52 228.965 354.181 231.014 354.181Z" fill="#EC615B"/>
<path d="M238.314 373.079C240.297 373.079 241.905 371.471 241.905 369.488C241.905 367.504 240.297 365.897 238.314 365.897C236.331 365.897 234.723 367.504 234.723 369.488C234.723 371.471 236.331 373.079 238.314 373.079Z" fill="#333333"/>
<path d="M234.016 473.163C237.723 473.163 240.728 470.159 240.728 466.452C240.728 462.745 237.723 459.74 234.016 459.74C230.31 459.74 227.305 462.745 227.305 466.452C227.305 470.159 230.31 473.163 234.016 473.163Z" fill="#333333"/>
<path d="M517.137 91.7243C519.478 91.7243 521.376 89.8265 521.376 87.4854C521.376 85.1444 519.478 83.2466 517.137 83.2466C514.796 83.2466 512.898 85.1444 512.898 87.4854C512.898 89.8265 514.796 91.7243 517.137 91.7243Z" fill="#333333"/>
<path d="M355.883 99.1424C357.932 99.1424 359.592 97.4818 359.592 95.4334C359.592 93.3849 357.932 91.7244 355.883 91.7244C353.835 91.7244 352.174 93.3849 352.174 95.4334C352.174 97.4818 353.835 99.1424 355.883 99.1424Z" fill="#333333"/>
<path d="M25.1926 389.269C26.7533 389.269 28.0185 388.004 28.0185 386.443C28.0185 384.883 26.7533 383.617 25.1926 383.617C23.6319 383.617 22.3667 384.883 22.3667 386.443C22.3667 388.004 23.6319 389.269 25.1926 389.269Z" fill="#333333"/>
<path d="M529.971 612.281C533.873 612.281 537.036 609.118 537.036 605.216C537.036 601.314 533.873 598.151 529.971 598.151C526.069 598.151 522.906 601.314 522.906 605.216C522.906 609.118 526.069 612.281 529.971 612.281Z" fill="#333333"/>
<path d="M605.623 7.41802C607.671 7.41802 609.332 5.75743 609.332 3.70901C609.332 1.66058 607.671 0 605.623 0C603.575 0 601.914 1.66058 601.914 3.70901C601.914 5.75743 603.575 7.41802 605.623 7.41802Z" fill="#333333"/>
<path d="M245.261 170.438C244.672 166.788 244.142 159.487 249.971 160.076C252.09 160.312 253.268 162.195 255.623 161.371C260.038 159.841 259.037 154.13 260.862 150.833C263.865 145.534 269.693 153.247 274.168 150.715C275.64 149.891 275.993 148.36 275.934 146.771C275.816 140.825 281.056 141.237 285.354 142.414C286.472 142.708 286.943 141.001 285.825 140.707C281.468 139.529 274.227 139.117 274.05 145.417C273.991 146.947 274.815 148.478 272.578 149.42C271.872 149.714 270.694 149.361 270.047 149.184C268.516 148.714 267.162 147.654 265.572 147.242C263.512 146.653 261.51 147.065 260.097 148.714C258.331 150.833 258.39 153.718 257.565 156.19C256.682 158.84 254.975 160.37 252.09 159.075C250.913 158.545 249.853 158.074 248.499 158.251C242.435 159.075 242.729 166.434 243.495 170.909C243.73 172.027 245.438 171.556 245.261 170.438Z" fill="#424242"/>
<path d="M252.208 173.852C252.679 170.202 255.623 168.613 259.038 168.613C260.863 168.613 262.688 168.907 264.454 168.259C268.457 166.729 267.692 162.372 268.634 158.957C270.4 152.481 278.583 156.485 283.117 155.425C286.178 154.66 288.768 151.598 287.473 148.36C287.061 147.301 285.354 147.772 285.766 148.831C287.768 153.718 280.938 154.012 278.054 153.659C275.934 153.423 273.874 153.07 271.754 153.6C268.398 154.483 267.103 156.956 266.632 160.135C266.22 163.079 266.279 166.317 262.452 166.788C260.392 167.023 258.331 166.434 256.271 166.905C252.974 167.671 250.854 170.438 250.442 173.735C250.265 174.971 252.032 174.971 252.208 173.852Z" fill="#424242"/>
<path d="M373.84 29.2599C371.779 31.8503 369.601 35.0295 370.602 38.503C371.426 41.3289 373.663 42.3886 376.371 42.212C377.961 42.0942 379.609 41.6821 380.904 43.0951C381.905 44.1548 381.258 46.392 380.963 47.5694C380.492 49.3945 379.609 51.1607 379.786 53.1035C380.08 55.7528 382.2 57.8134 384.908 57.2246C386.026 56.9891 385.555 55.2818 384.437 55.5173C379.315 56.6948 382.847 48.1582 383.083 46.0976C383.259 44.3903 382.965 42.5063 381.67 41.27C380.375 40.0337 378.785 40.1514 377.137 40.328C374.546 40.6224 372.132 39.7982 372.015 36.6779C371.956 34.323 373.604 32.2035 375.017 30.4374C375.841 29.672 374.546 28.3768 373.84 29.2599Z" fill="#424242"/>
<path d="M387.734 28.3769C384.967 29.5543 383.201 32.4391 383.907 35.4417C384.261 36.7957 385.085 38.0909 386.262 38.9152C387.675 39.9749 389.324 39.7394 390.737 40.6225C393.386 42.2121 391.267 45.3323 391.384 47.805C391.443 49.0414 391.738 50.1599 392.797 50.9253C394.387 52.1616 396.742 51.7495 397.389 49.7478C397.743 48.6881 396.035 48.2171 395.682 49.2768C393.445 48.9825 392.68 47.9816 393.327 46.2743C393.445 45.6856 393.563 45.0968 393.68 44.5081C393.798 43.9194 393.857 43.3307 393.857 42.7419C393.857 41.5056 393.504 40.2104 392.562 39.3273C391.149 38.0321 388.971 38.5619 387.44 37.5022C384.32 35.3239 385.438 31.2028 388.617 29.8487C389.677 29.4366 388.735 27.9648 387.734 28.3769Z" fill="#424242"/>
<path d="M2.76231 376.376C1.40823 374.256 1.40823 371.666 2.76231 369.488C4.11639 367.368 6.00033 367.309 8.17864 366.485C11.1812 365.249 11.24 362.129 11.0634 359.303C11.0046 358.302 10.9457 357.242 11.24 356.241C12.0054 353.886 14.0071 354.534 15.8321 354.828C16.8919 355.005 17.8927 354.828 18.7758 354.24C19.8944 353.474 20.6009 352.12 20.9541 350.825C21.2485 349.765 21.3074 348.647 21.5429 347.587C21.6606 346.822 21.8961 346.115 22.2493 345.468C23.1913 343.996 24.3099 343.878 25.664 345.173C25.9583 346.292 27.6657 345.821 27.3713 344.702C26.3116 340.875 21.6017 342.583 20.4243 345.291C19.8944 346.527 19.8355 347.881 19.5412 349.177C19.3645 349.942 19.2468 350.766 18.8347 351.473C17.9516 353.062 16.3031 352.768 14.7724 352.591C12.9474 352.415 11.5344 352.238 10.357 353.945C9.00287 355.888 9.3561 358.184 9.3561 360.421C9.41497 363.129 8.82625 364.189 6.17695 365.072C5.11724 365.426 4.23414 365.602 3.29217 366.309C-0.12247 368.722 -1.00557 373.727 1.23161 377.2C1.82034 378.201 3.35104 377.318 2.76231 376.376Z" fill="#3F3F3F"/>
<path d="M10.1214 380.438C7.64875 380.085 8.59072 377.377 9.70931 376.317C10.5335 375.552 11.6521 375.081 12.7118 374.551C14.0071 373.903 15.3023 373.138 16.2442 372.019C18.7758 368.84 15.1256 364.601 18.658 362.07C22.1904 359.597 31.669 358.478 28.902 351.885C28.4898 350.825 26.9591 351.767 27.3713 352.768C29.3729 357.536 19.6589 358.949 17.1862 360.951C16.3031 361.658 15.5378 362.599 15.1845 363.718C14.478 366.191 16.5386 368.722 14.7135 371.077C12.5941 373.668 8.06086 373.668 7.00115 377.318C6.35354 379.378 7.47213 381.851 9.70931 382.204C10.769 382.322 11.24 380.615 10.1214 380.438Z" fill="#3F3F3F"/>
<path d="M655.489 243.617C654.724 242.263 654.842 240.791 655.666 239.496C656.961 237.612 658.492 238.024 660.493 238.201C661.848 238.318 663.084 238.613 664.379 237.847C666.675 236.434 666.322 233.491 666.734 231.254C667.676 226.014 672.209 230.783 675.271 229.134C676.389 228.545 676.801 227.427 677.037 226.249C677.449 223.953 677.567 217.124 681.982 219.891C682.924 220.48 683.866 218.949 682.865 218.36C678.921 215.947 675.742 219.95 675.388 223.659C675.153 225.778 675.388 227.839 672.562 227.545C671.562 227.427 670.561 226.897 669.56 226.779C667.97 226.603 666.557 227.074 665.674 228.487C664.673 230.135 665.027 232.196 664.615 233.962C663.731 237.965 660.317 235.728 657.55 236.199C653.841 236.847 652.133 241.321 653.9 244.441C654.488 245.501 656.019 244.618 655.489 243.617Z" fill="#3F3F3F"/>
<path d="M664.261 247.326C663.26 244.618 666.381 241.615 669.089 243.028C669.442 243.205 669.913 243.205 670.148 242.911C671.503 241.439 671.856 239.731 672.444 237.848C673.504 234.433 676.036 233.962 679.097 233.02C682.1 232.078 685.455 229.605 684.219 226.073C683.807 225.013 682.1 225.484 682.512 226.544C684.219 231.195 675.859 231.548 673.386 233.255C670.384 235.375 671.267 239.202 668.971 241.674C669.324 241.615 669.677 241.557 670.031 241.557C666.086 239.496 661.082 243.558 662.613 247.856C662.966 248.857 664.673 248.445 664.261 247.326Z" fill="#3F3F3F"/>
<path d="M426.472 262.751C426.59 262.751 427.885 265.93 428.415 266.342C429.239 266.99 430.24 267.049 431.241 266.872C433.007 266.578 434.126 265.282 435.656 264.458C438.953 262.574 438.953 265.812 440.248 267.637C441.72 269.816 443.31 268.756 445.017 267.696C446.136 266.99 447.195 266.519 448.196 267.52C448.726 268.049 449.079 268.933 449.491 269.58C450.139 270.522 450.846 271.288 451.905 271.758C452.906 272.229 453.848 270.699 452.788 270.228C450.375 269.168 450.08 265.165 447.195 264.753C445.841 264.576 445.253 265.341 444.193 265.93C442.898 266.695 442.132 267.225 441.308 265.753C440.955 265.165 440.896 264.34 440.484 263.752C438.6 260.631 435.656 262.339 433.301 263.869C432.889 264.164 432.477 264.458 432.006 264.694C431.005 264.399 429.946 264.105 428.945 263.811C428.533 263.398 428.533 262.398 428.179 261.868C427.591 261.044 427.002 260.808 426.06 260.985C424.883 261.22 425.354 262.928 426.472 262.751Z" fill="#3F3F3F"/>
<path d="M440.308 257.099C442.074 254.332 446.136 260.102 447.785 260.808C448.786 261.22 449.728 261.22 450.787 260.926C451.258 260.808 451.67 260.573 452.083 260.396C453.672 259.748 455.026 260.16 456.321 261.279C458.205 262.869 458.735 264.988 461.443 265.577C463.033 265.93 464.505 265.459 465.211 263.928C465.682 262.928 464.151 261.986 463.68 263.045C462.032 266.578 457.499 259.631 456.321 258.865C454.143 257.452 452.789 258.63 450.611 259.101C447.137 259.807 446.019 255.922 443.134 254.98C441.426 254.391 439.778 254.685 438.836 256.275C438.13 257.217 439.66 258.1 440.308 257.099Z" fill="#3F3F3F"/>
<path d="M660.317 360.009C691.579 360.009 722.84 360.009 754.161 360.009C755.279 360.009 755.279 358.243 754.161 358.243C722.899 358.243 691.637 358.243 660.317 358.243C659.198 358.243 659.198 360.009 660.317 360.009Z" fill="#E8E8E8"/>
<path d="M685.927 359.597C685.927 368.723 685.927 377.789 685.927 386.915C685.927 388.033 687.693 388.033 687.693 386.915C687.693 377.789 687.693 368.723 687.693 359.597C687.693 358.479 685.927 358.479 685.927 359.597Z" fill="#E8E8E8"/>
<path d="M729.611 358.715C729.611 345.998 729.611 333.281 729.611 320.565C729.611 319.446 727.845 319.446 727.845 320.565C727.845 333.281 727.845 345.998 727.845 358.715C727.845 359.892 729.611 359.892 729.611 358.715Z" fill="#E8E8E8"/>
<path d="M708.829 321.271C720.663 321.271 732.496 321.271 744.33 321.271C745.448 321.271 745.448 319.505 744.33 319.505C732.496 319.505 720.663 319.505 708.829 319.505C707.711 319.505 707.711 321.271 708.829 321.271Z" fill="#E8E8E8"/>
<path d="M685.574 109.269C685.574 120.278 685.574 131.287 685.574 142.238C685.574 143.356 687.34 143.356 687.34 142.238C687.34 131.228 687.34 120.219 687.34 109.269C687.34 108.15 685.574 108.15 685.574 109.269Z" fill="#E8E8E8"/>
<path d="M658.08 144.769C679.333 144.769 700.527 144.769 721.781 144.769C722.899 144.769 722.899 143.003 721.781 143.003C700.527 143.003 679.333 143.003 658.08 143.003C656.902 143.003 656.902 144.769 658.08 144.769Z" fill="#E8E8E8"/>
<path d="M721.191 144.534C721.191 151.834 721.191 159.134 721.191 166.435C721.191 167.553 722.958 167.553 722.958 166.435C722.958 159.134 722.958 151.834 722.958 144.534C722.958 143.415 721.191 143.415 721.191 144.534Z" fill="#E8E8E8"/>
<path d="M129.929 74.9458C150.711 74.9458 171.552 74.9458 192.335 74.9458C193.453 74.9458 193.453 73.1796 192.335 73.1796C171.552 73.1796 150.711 73.1796 129.929 73.1796C128.81 73.1796 128.752 74.9458 129.929 74.9458Z" fill="#E8E8E8"/>
<path d="M189.744 74.7693C189.744 80.4212 189.744 86.073 189.744 91.7248C189.744 92.8434 191.51 92.8434 191.51 91.7248C191.51 86.073 191.51 80.4212 191.51 74.7693C191.51 73.5919 189.744 73.5919 189.744 74.7693Z" fill="#E8E8E8"/>
<path d="M170.845 73.3562C170.845 64.2897 170.845 55.2821 170.845 46.2157C170.845 45.0971 169.079 45.0971 169.079 46.2157C169.079 55.2821 169.079 64.2897 169.079 73.3562C169.079 74.5336 170.845 74.5336 170.845 73.3562Z" fill="#E8E8E8"/>
<path d="M6.47175 256.393C20.8368 256.393 35.2019 256.393 49.5669 256.393C50.6855 256.393 50.6855 254.627 49.5669 254.627C35.2019 254.627 20.8368 254.627 6.47175 254.627C5.35317 254.627 5.35317 256.393 6.47175 256.393Z" fill="#E8E8E8"/>
<path d="M32.7881 238.672C32.7881 243.971 32.7881 249.269 32.7881 254.568C32.7881 255.686 34.5543 255.686 34.5543 254.568C34.5543 249.269 34.5543 243.971 34.5543 238.672C34.5543 237.553 32.7881 237.553 32.7881 238.672Z" fill="#E8E8E8"/>
<path d="M22.4261 239.555C30.0796 239.555 37.7331 239.555 45.3866 239.555C46.5052 239.555 46.5052 237.789 45.3866 237.789C37.7331 237.789 30.0796 237.789 22.4261 237.789C21.2486 237.789 21.2486 239.555 22.4261 239.555Z" fill="#E8E8E8"/>
<path d="M281.703 610.751C300.896 610.751 320.089 610.751 339.281 610.751C340.4 610.751 340.4 608.985 339.281 608.985C320.089 608.985 300.896 608.985 281.703 608.985C280.526 608.985 280.526 610.751 281.703 610.751Z" fill="#E8E8E8"/>
<path d="M317.145 608.984C317.145 604.863 317.145 600.742 317.145 596.562C317.145 595.443 315.379 595.443 315.379 596.562C315.379 600.683 315.379 604.804 315.379 608.984C315.379 610.162 317.145 610.162 317.145 608.984Z" fill="#E8E8E8"/>
<path d="M311.788 596.621C319.736 596.621 327.742 596.621 335.69 596.621C336.809 596.621 336.809 594.855 335.69 594.855C327.742 594.855 319.736 594.855 311.788 594.855C310.669 594.855 310.669 596.621 311.788 596.621Z" fill="#E8E8E8"/>
<path d="M7.82576 579.783C27.0184 579.783 46.2111 579.783 65.4037 579.783C66.5223 579.783 66.5223 578.017 65.4037 578.017C46.2111 578.017 27.0184 578.017 7.82576 578.017C6.70717 578.017 6.70717 579.783 7.82576 579.783Z" fill="#E8E8E8"/>
<path d="M34.4365 556.705C34.4365 563.475 34.4365 570.305 34.4365 577.075C34.4365 578.194 36.2027 578.194 36.2027 577.075C36.2027 570.305 36.2027 563.475 36.2027 556.705C36.2027 555.586 34.4365 555.586 34.4365 556.705Z" fill="#E8E8E8"/>
<path d="M34.436 554.055C26.7825 554.055 19.0701 554.055 11.4166 554.055C10.298 554.055 10.298 555.822 11.4166 555.822C19.0701 555.822 26.7825 555.822 34.436 555.822C35.5546 555.822 35.5546 554.055 34.436 554.055Z" fill="#E8E8E8"/>
<path d="M647.836 527.974C645.893 526.032 646.364 522.264 649.367 521.616C650.956 521.263 652.487 522.264 654.018 522.44C655.195 522.617 656.431 522.499 657.197 521.44C658.374 519.909 657.432 518.143 657.373 516.435C657.256 511.078 663.614 511.431 666.793 513.315C667.499 513.727 668.265 513.021 668.088 512.314C666.558 504.955 674.976 499.892 680.746 504.778C681.629 505.485 682.865 504.249 681.982 503.542C674.859 497.537 664.438 503.66 666.381 512.844C666.793 512.491 667.264 512.196 667.676 511.843C664.968 510.195 661.494 509.371 658.61 511.196C657.55 511.843 656.608 512.844 656.137 514.022C655.784 514.846 655.607 515.611 655.666 516.494C655.725 518.084 656.255 517.966 655.077 519.497C653.782 521.204 653.664 520.439 651.839 520.027C651.192 519.85 650.603 519.732 649.896 519.791C648.425 519.85 647.07 520.556 646.129 521.616C644.068 523.912 644.598 527.15 646.658 529.211C647.424 530.035 648.66 528.799 647.836 527.974Z" fill="#E8E8E8"/>
<path d="M659.316 529.741C658.669 524.384 667.441 524.325 669.913 520.616C670.561 519.674 670.796 518.614 671.208 517.613C671.974 515.788 673.328 514.611 675.33 514.081C678.568 513.257 681.923 514.728 684.867 515.965C685.927 516.377 686.398 514.67 685.338 514.257C679.922 512.02 672.621 510.313 669.619 516.907C668.559 519.262 668.206 520.557 665.733 521.793C664.261 522.5 662.731 522.912 661.318 523.736C659.081 525.031 657.314 527.033 657.609 529.741C657.727 530.86 659.493 530.86 659.316 529.741Z" fill="#E8E8E8"/>
<path d="M406.103 358.538C407.28 361.481 408.458 364.484 409.635 367.428C409.753 367.074 409.93 366.78 410.047 366.427C409.4 366.839 408.752 367.251 408.105 367.722C407.104 365.367 407.516 364.778 409.4 365.838C410.518 366.545 411.048 368.075 411.284 369.312C411.814 372.137 411.225 375.081 410.283 377.789C410.047 378.496 410.754 378.967 411.343 378.849C414.875 378.143 416.288 382.381 415.582 385.031C415.052 386.974 413.992 388.681 412.932 390.388C412.343 391.33 413.874 392.213 414.463 391.271C416.347 388.328 418.525 384.677 417.23 381.027C416.229 378.319 413.756 376.612 410.872 377.142C411.225 377.495 411.578 377.848 411.931 378.201C413.109 374.787 413.874 370.489 412.402 367.016C411.401 364.719 409.105 362.953 406.515 363.719C404.513 364.307 403.512 366.309 404.454 368.252C406.044 371.49 408.811 369.312 410.872 367.958C411.166 367.781 411.401 367.31 411.284 366.957C410.106 364.013 408.929 361.01 407.751 358.067C407.398 357.066 405.691 357.478 406.103 358.538Z" fill="#E8E8E8"/>
<path d="M57.927 80.009C56.8084 77.1831 60.5763 76.4178 62.3425 77.4186C63.6966 78.184 64.5797 79.538 65.4039 80.7744C66.1693 81.893 66.9935 83.1293 67.4056 84.4245C67.8766 85.5431 67.8177 86.6028 67.229 87.6625C65.1684 88.6045 64.1087 88.369 64.0498 87.0149C63.52 85.0721 65.5805 83.7769 67.3467 83.8358C69.1718 83.8947 70.8791 84.9544 72.1155 86.2496C74.2349 88.4868 75.0002 91.4304 74.7059 94.4329C75.2357 94.2563 75.8245 94.1386 76.3543 93.962C75.1769 92.2546 76.2954 90.4296 77.885 89.5465C79.2391 88.84 80.7698 89.0166 82.065 89.7231C84.1844 90.8417 85.6563 92.9022 87.0104 94.7862C87.658 95.7282 89.1887 94.8451 88.5411 93.9031C86.3039 90.7828 82.9481 86.4262 78.5326 87.427C75.2946 88.1335 72.7042 91.9014 74.8236 94.8451C75.3535 95.6104 76.3543 95.2572 76.4721 94.3741C77.0019 88.7811 72.8808 81.1276 66.287 82.0696C63.9321 82.4228 62.2248 84.0713 62.2248 86.4851C62.2248 88.369 63.4022 90.3118 65.4039 90.4296C67.7588 90.6062 69.3484 88.3101 69.4662 86.1907C69.6428 83.2471 67.3467 80.0679 65.5805 77.8896C63.9321 75.9468 61.5183 74.2983 58.9279 75.2992C56.8084 76.0645 55.3955 78.184 56.2786 80.3623C56.6318 81.5397 58.3391 81.0687 57.927 80.009Z" fill="#E8E8E8"/>
<path d="M368.07 166.376C365.598 164.904 367.364 160.547 370.131 162.372C372.78 164.139 369.248 167.141 367.54 165.081C366.834 164.197 365.598 165.434 366.304 166.317C367.658 167.965 370.249 167.848 371.779 166.494C373.546 164.904 373.075 162.314 371.249 161.018C369.424 159.723 366.775 159.959 365.657 162.078C364.538 164.08 365.303 166.788 367.246 167.906C368.129 168.436 369.012 166.964 368.07 166.376Z" fill="#E8E8E8"/>
<path d="M555.641 37.6203C554.346 35.7952 556.583 33.0282 558.643 33.8524C558.467 33.7347 558.29 33.5581 558.113 33.4403C559.232 35.3831 557.584 38.0324 555.405 37.9147C555.7 38.1502 555.994 38.3268 556.229 38.5623C555.876 37.5614 555.464 36.5017 555.111 35.5009C554.699 34.4411 552.991 34.9121 553.404 35.9719C553.757 36.9727 554.169 38.0324 554.522 39.0333C554.64 39.4454 554.934 39.6809 555.346 39.6809C557.23 39.7986 558.879 38.6211 559.703 36.9727C560.351 35.6775 560.704 32.9693 559.114 32.1451C555.641 30.4378 552.049 35.6186 554.11 38.5034C554.758 39.4454 556.288 38.5623 555.641 37.6203Z" fill="#E8E8E8"/>
<path d="M603.563 125.165C603.269 123.811 604.27 122.339 605.624 122.044C606.86 121.809 607.979 122.81 608.273 123.928C609.038 126.578 605.565 127.814 603.917 125.989C603.151 125.165 601.915 126.401 602.68 127.225C605.742 130.64 611.629 127.284 609.745 122.928C608.921 120.985 606.86 119.748 604.8 120.396C602.621 121.102 601.326 123.399 601.797 125.636C602.15 126.754 603.858 126.283 603.563 125.165Z" fill="#E8E8E8"/>
<path d="M412.461 612.458C410.224 611.398 410.4 608.336 412.461 607.159C414.463 606.04 416.347 607.041 418.172 607.865C419.702 608.572 421.469 609.22 422.823 607.865C424.059 606.688 423.823 604.863 423.882 603.332C424.118 597.386 429.887 598.564 433.832 600.035C434.892 600.447 435.363 598.74 434.303 598.328C430.829 596.974 426.002 595.679 423.235 599.093C422.411 600.094 422.175 601.272 422.116 602.508C422.057 603.332 422.411 605.157 421.94 605.923C420.644 607.865 418.878 606.099 417.524 605.511C414.934 604.392 411.225 604.686 409.635 607.394C408.281 609.691 409.105 612.811 411.519 613.929C412.579 614.459 413.462 612.929 412.461 612.458Z" fill="#E8E8E8"/>
<path d="M440.955 473.693C439.189 495.3 440.13 516.965 443.781 538.336C443.957 539.455 445.665 538.984 445.488 537.865C441.897 516.671 440.955 495.123 442.721 473.693C442.839 472.575 441.072 472.575 440.955 473.693Z" fill="#E8E8E8"/>
<path d="M442.132 475.047C451.316 478.227 460.795 480.346 470.45 481.406C479.517 482.348 489.937 483.349 498.65 479.934C499.71 479.522 499.239 477.815 498.179 478.227C489.702 481.582 479.399 480.582 470.45 479.64C460.972 478.639 451.611 476.46 442.603 473.34C441.485 472.928 441.073 474.635 442.132 475.047Z" fill="#E8E8E8"/>
<path d="M456.144 477.461C453.083 472.693 450.551 467.63 448.785 462.213C447.961 459.623 447.254 457.032 446.724 454.383C446.43 452.794 446.136 451.204 445.959 449.614C445.959 449.438 445.311 445.258 446.548 445.847C447.136 446.141 448.137 445.611 447.843 444.846C444.605 436.662 442.839 428.067 442.662 419.236C442.368 419.53 442.073 419.825 441.779 420.119C442.25 420.296 442.662 420.472 443.133 420.649C443.722 421.355 444.84 420.59 444.605 419.766C443.427 415.998 442.662 412.112 442.427 408.109C442.368 407.167 442.544 396.57 443.192 396.746C443.898 396.923 444.369 396.275 444.252 395.687C443.133 389.034 442.603 382.264 442.898 375.552C443.015 372.196 443.31 368.899 443.84 365.602C444.311 362.6 444.546 358.95 446.901 356.772C446.43 356.713 445.959 356.654 445.488 356.595C450.433 365.897 453.2 376.082 455.732 386.208C458.205 396.158 460.383 406.225 462.267 416.351C466.094 437.251 468.507 458.387 469.567 479.64C469.626 480.758 471.392 480.758 471.333 479.64C470.274 458.269 467.86 436.957 463.974 415.88C462.031 405.401 459.794 394.98 457.204 384.619C454.672 374.669 451.905 364.778 447.019 355.653C446.724 355.123 446.018 355.123 445.606 355.476C443.604 357.301 443.015 359.715 442.544 362.247C441.897 365.838 441.426 369.547 441.19 373.197C440.719 380.851 441.19 388.504 442.485 396.099C442.839 395.746 443.192 395.392 443.545 395.039C440.131 394.097 440.543 401.456 440.484 403.105C440.248 408.874 441.131 414.644 442.839 420.178C443.31 419.883 443.84 419.589 444.311 419.295C443.545 418.412 442.898 418.117 441.72 418.235C441.249 418.294 440.837 418.588 440.837 419.118C441.014 428.067 442.78 436.839 446.077 445.199C446.489 444.846 446.96 444.551 447.372 444.198C441.485 441.372 444.899 454.678 445.37 456.679C447.136 464.333 450.316 471.633 454.554 478.227C455.261 479.287 456.792 478.403 456.144 477.461Z" fill="#E8E8E8"/>
<path d="M465.505 418.647C464.975 414.879 464.857 411.052 465.328 407.285C465.446 406.343 467.683 395.274 468.802 395.745C469.391 396.04 470.097 395.686 470.156 394.98C470.509 387.444 472.864 380.733 475.631 373.786C478.398 366.898 481.106 360.245 485.699 354.299C485.286 354.299 484.874 354.299 484.462 354.299C487.818 358.125 487.406 363.954 487.582 368.723C487.818 374.08 487.995 379.437 488.053 384.795C488.171 395.333 487.995 405.872 487.524 416.41C486.523 437.957 484.109 459.446 480.459 480.699C480.282 481.818 481.989 482.289 482.166 481.17C485.993 459.034 488.407 436.603 489.408 414.114C489.878 402.81 489.996 391.507 489.761 380.203C489.643 374.551 489.525 368.899 489.113 363.247C488.878 359.538 488.289 355.888 485.699 353.003C485.404 352.65 484.757 352.65 484.462 353.003C479.929 358.891 477.103 365.367 474.395 372.255C471.392 379.673 468.861 386.856 468.449 394.98C468.92 394.745 469.332 394.45 469.803 394.215C466.211 392.625 465.034 400.279 464.563 402.339C463.268 407.873 463.15 413.466 463.974 419.059C463.915 420.237 465.623 419.766 465.505 418.647Z" fill="#E8E8E8"/>
<path d="M444.605 539.808C463.032 545.754 482.99 545.46 501.241 538.984C502.301 538.63 501.83 536.923 500.77 537.276C482.814 543.635 463.209 543.929 445.076 538.1C443.957 537.747 443.486 539.455 444.605 539.808Z" fill="#E8E8E8"/>
<path d="M498.415 479.345C499.121 488.883 499.886 498.42 500.534 507.958C501.182 517.672 501.417 527.504 499.827 537.159C499.651 538.277 501.358 538.748 501.535 537.63C503.124 528.151 503.007 518.614 502.359 509.076C501.711 499.186 500.946 489.236 500.181 479.345C500.122 478.227 498.356 478.227 498.415 479.345Z" fill="#E8E8E8"/>
<path d="M184.209 554.938C196.22 548.521 208.289 542.104 220.299 535.687C225.951 536.629 233.722 537.865 243.024 539.16C261.628 541.751 291.594 545.931 329.508 547.049C367.423 548.168 395.858 545.754 406.691 544.694C432.772 542.222 448.55 538.866 461.443 535.392C473.159 532.213 482.814 528.74 489.702 526.09C495.354 527.974 501.654 530.506 508.365 533.979C512.192 535.981 515.724 538.042 518.844 540.102C507.776 543.281 492.881 547.344 475.161 551.465C437.835 560.178 409.223 564.299 403.218 565.182C368.895 570.069 319.971 576.957 258.449 569.833C239.315 567.537 213.823 563.357 184.209 554.938Z" fill="white"/>
<path d="M183.562 554.997C183.856 557.47 184.21 559.884 184.504 562.356C188.919 563.593 195.396 565.359 203.402 567.125C218.709 570.54 234.252 572.895 254.563 574.484C329.567 580.371 389.5 575.132 389.5 575.132C419.467 572.482 448.55 569.774 486.111 558.824C500.241 554.703 511.78 550.523 520.022 547.285C519.374 544.518 518.727 541.751 518.079 538.984C515.783 539.926 512.369 541.28 508.189 542.81C479.812 553.172 456.439 556.587 435.598 559.118C389.795 564.77 366.893 567.537 333.276 568.067C295.009 568.715 243.671 566.418 183.562 554.997Z" fill="#161616"/>
<path d="M183.15 556.116C183.15 558 183.15 559.884 183.15 561.768C183.15 562.886 184.917 562.886 184.917 561.768C184.917 559.884 184.917 558 184.917 556.116C184.917 554.938 183.15 554.938 183.15 556.116Z" fill="#161616"/>
<path d="M183.797 563.416C227.776 575.309 273.697 576.839 318.97 577.487C362.477 578.076 406.279 576.192 449.139 568.244C473.277 563.769 497.061 557.234 520.022 548.345C521.082 547.932 520.611 546.225 519.551 546.637C479.046 562.356 436.01 570.363 392.738 573.719C349.113 577.075 305.076 576.309 261.451 573.66C235.37 572.012 209.525 568.597 184.268 561.768C183.15 561.414 182.679 563.122 183.797 563.416Z" fill="#161616"/>
<path d="M520.022 547.109C520.375 544.636 520.493 542.104 520.257 539.632C520.14 538.513 518.373 538.513 518.491 539.632C518.668 541.987 518.668 544.342 518.315 546.638C518.138 547.697 519.845 548.227 520.022 547.109Z" fill="#161616"/>
<path d="M184.563 555.939C196.926 550.052 209.054 543.753 220.946 536.923C221.947 536.334 221.064 534.863 220.063 535.392C208.171 542.163 196.043 548.521 183.68 554.409C182.62 554.879 183.503 556.41 184.563 555.939Z" fill="#161616"/>
<path d="M220.476 536.099C290.711 549.463 363.714 551.936 434.538 541.81C453.378 539.102 472.099 534.922 489.526 527.15C490.586 526.679 489.644 525.149 488.643 525.62C472.982 532.567 456.262 536.629 439.366 539.278C422.175 541.986 404.807 543.635 387.44 544.753C352.175 546.991 316.733 546.402 281.586 543.046C261.216 541.103 241.022 538.16 220.947 534.392C219.828 534.215 219.357 535.922 220.476 536.099Z" fill="#161616"/>
<path d="M489.173 526.856C499.652 530.271 509.484 535.039 518.668 541.103C519.61 541.751 520.493 540.22 519.551 539.573C510.249 533.45 500.241 528.622 489.644 525.149C488.525 524.795 488.054 526.503 489.173 526.856Z" fill="#161616"/>
<path d="M184.681 554.997C205.463 562.003 227.128 565.3 248.912 567.066C270.989 568.832 293.243 569.362 315.379 569.362C359.358 569.362 403.454 566.36 446.784 558.471C471.393 553.996 495.767 547.932 519.493 539.985C520.552 539.631 520.081 537.924 519.022 538.277C477.28 552.171 433.891 560.296 390.089 564.299C346.523 568.303 302.486 568.538 258.802 565.948C233.84 564.417 208.819 561.297 185.034 553.29C184.092 552.937 183.621 554.644 184.681 554.997Z" fill="#161616"/>
<path d="M218.592 218.772C290.535 202.111 364.597 198.461 438.188 197.755C459.029 197.519 479.871 197.578 500.712 197.578C501.83 197.578 501.83 195.812 500.712 195.812C426.885 195.694 352.705 195.635 279.407 205.82C258.802 208.705 238.373 212.355 218.121 217.065C217.002 217.36 217.473 219.067 218.592 218.772Z" fill="#161616"/>
<path d="M504.362 195.989C505.127 223.365 505.598 255.097 505.421 290.362C505.304 310.85 505.127 301.077 503.302 386.326C502.242 435.426 501.948 453.912 498.474 482.289C496.237 500.775 493.529 515.964 491.527 526.267C506.717 530.506 521.199 534.509 533.916 538.042C553.58 543.517 558.819 544.989 566.649 546.107C578.777 547.756 593.554 547.991 610.628 544.518C616.927 492.945 620.401 448.967 622.402 415.291C629.585 296.956 622.873 242.44 620.283 223.306C616.75 197.519 612.394 176.325 609.038 161.666C596.439 164.079 586.195 166.67 579.013 168.613C554.345 175.383 534.799 183.331 518.432 190.043C512.368 192.574 507.482 194.635 504.362 195.989Z" fill="white"/>
<path d="M98.4903 162.726C98.0193 167.789 97.4894 174.029 97.0184 179.446C87.2455 290.893 82.359 346.645 80.7695 382.499C79.121 421.002 79.0033 476.814 87.1866 546.225C87.8342 547.638 89.0117 549.581 91.1311 551.171C93.8982 553.231 96.4297 553.172 101.434 554.585C105.378 555.704 107.439 556.823 109.323 557.529C114.739 559.648 126.867 562.062 142.292 561.474C164.428 560.59 181.443 553.82 193.924 548.698C205.639 543.929 215 538.807 221.476 534.922C217.826 502.129 215.118 467.512 213.587 431.187C210.467 353.946 213.587 283.004 220.004 219.774C217.296 218.714 213.352 217.242 208.701 215.358C200.694 212.12 181.501 204.29 147.708 187.806C134.344 181.33 117.624 172.911 98.4903 162.726Z" fill="white"/>
<path d="M608.685 161.43C609.391 165.316 610.333 170.673 611.393 177.091C612.865 186.216 616.161 207.822 618.575 236.199C621.048 265.754 621.637 291.187 621.696 311.439C621.872 352.533 620.341 382.676 616.338 452.97C615.102 474.871 613.277 506.957 610.981 546.107C613.394 545.931 615.749 545.813 618.163 545.636C619.341 535.864 620.93 521.322 622.167 503.542C623.109 490.708 623.521 481.347 623.933 471.28C625.993 425.123 626.346 425.653 627.053 406.814C628.466 369.665 628.172 341.111 627.936 315.442C627.759 297.722 627.23 280.943 626.17 247.385C625.405 224.542 624.639 204.29 619.458 177.974C618.104 171.262 616.809 165.669 615.867 161.842C613.453 161.725 611.098 161.607 608.685 161.43Z" fill="#161616"/>
<path d="M89.4825 163.785C89.0704 165.846 88.4228 169.025 87.7752 172.911C85.8912 184.155 85.4202 192.633 85.2436 195.4C83.9484 215.417 81.358 225.19 77.5901 269.639C76.8836 277.764 76.3538 284.887 75.2941 299.193C73.1157 328.395 72.056 342.995 71.2907 359.48C70.4665 377.907 70.3487 390.918 70.1721 416.94C69.9955 439.429 69.8777 455.678 70.4665 476.932C70.9375 493.887 71.8794 516.906 74.1755 544.341C78.9442 545.754 83.6541 547.167 88.4228 548.58C88.3639 545.931 88.1873 541.162 87.834 535.216C86.4211 508.782 84.125 498.067 83.5952 476.048C83.4186 469.278 83.5363 464.804 83.5952 458.387C84.2428 412.348 83.4774 391.33 83.8895 361.422C84.596 312.617 87.8929 274.467 90.7188 241.969C93.3681 211.237 96.3706 184.921 98.9611 164.315C95.723 164.139 92.6028 163.962 89.4825 163.785Z" fill="#161616"/>
<path d="M502.949 196.99C505.127 240.203 504.833 283.533 504.244 326.746C503.596 369.017 503.302 411.406 500.064 453.618C498.239 477.638 495.354 501.599 490.88 525.325C490.644 526.444 492.352 526.915 492.587 525.796C500.417 484.291 503.302 442.079 504.597 399.925C505.951 356.889 506.54 313.735 506.481 270.64C506.422 246.09 506.01 221.54 504.774 196.99C504.656 195.871 502.89 195.871 502.949 196.99Z" fill="#161616"/>
<path d="M505.127 196.99C537.802 180.8 572.478 169.143 608.273 162.255C609.391 162.019 608.92 160.312 607.802 160.547C571.889 167.494 537.036 179.269 504.244 195.459C503.243 195.989 504.126 197.52 505.127 196.99Z" fill="#161616"/>
<path d="M607.684 161.725C617.398 210.648 620.342 260.631 620.283 310.438C620.165 360.245 617.222 409.934 614.808 459.682C613.395 488.353 611.982 516.965 610.569 545.636C610.51 546.755 612.276 546.755 612.335 545.636C614.867 494.888 617.516 444.139 619.812 393.332C622.049 343.525 623.462 293.6 620.107 243.853C618.223 216.123 614.867 188.512 609.451 161.312C609.156 160.135 607.449 160.606 607.684 161.725Z" fill="#161616"/>
<path d="M491.175 525.679C493.824 528.74 498.534 529.329 502.243 530.448C507.306 531.978 512.428 533.509 517.491 535.04C527.735 538.101 537.92 541.339 548.282 543.929C568.534 548.875 589.316 549.876 609.863 546.343C610.982 546.167 610.511 544.459 609.392 544.636C589.14 548.109 568.652 547.109 548.753 542.222C539.274 539.926 529.972 536.982 520.67 534.157C515.96 532.744 511.251 531.331 506.541 529.918C504.186 529.211 501.831 528.505 499.476 527.798C497.003 527.033 494.236 526.503 492.47 524.442C491.646 523.618 490.409 524.855 491.175 525.679Z" fill="#161616"/>
<path d="M608.862 161.783C611.04 162.313 613.218 162.843 615.456 163.373C616.574 163.667 617.045 161.96 615.927 161.666C613.748 161.136 611.57 160.606 609.333 160.076C608.214 159.84 607.743 161.548 608.862 161.783Z" fill="#161616"/>
<path d="M615.338 162.784C621.225 186.569 622.815 211.414 624.522 235.846C626.288 260.808 627.23 285.829 627.642 310.909C628.349 360.657 626.641 410.405 623.815 460.094C622.226 488.235 620.224 516.376 618.164 544.518C618.105 545.636 619.871 545.636 619.93 544.518C623.639 494.476 626.995 444.433 628.584 394.274C630.174 344.231 630.056 294.071 626.877 244.029C625.17 216.83 623.639 188.924 617.104 162.372C616.751 161.195 615.043 161.666 615.338 162.784Z" fill="#161616"/>
<path d="M611.511 546.637C614.102 546.402 616.633 546.166 619.224 545.931C620.342 545.813 620.342 544.047 619.224 544.164C616.633 544.4 614.102 544.635 611.511 544.871C610.393 544.989 610.393 546.755 611.511 546.637Z" fill="#161616"/>
<path d="M218.533 219.303C214.589 260.102 212.234 301.019 211.468 341.994C210.703 383.147 211.527 424.358 214 465.451C215.354 488.53 217.297 511.549 219.652 534.51C219.77 535.628 221.536 535.628 221.418 534.51C217.179 493.769 214.53 452.853 213.47 411.877C212.41 370.725 212.94 329.513 215.119 288.42C216.355 265.342 218.062 242.322 220.241 219.303C220.417 218.184 218.651 218.184 218.533 219.303Z" fill="#161616"/>
<path d="M99.6092 164.138C137.818 185.392 177.498 203.995 218.239 219.832C219.298 220.244 219.769 218.537 218.71 218.125C178.087 202.347 138.583 183.802 100.492 162.608C99.4915 162.019 98.6084 163.55 99.6092 164.138Z" fill="#161616"/>
<path d="M97.784 163.726C91.2491 213.533 86.7159 263.634 84.2432 313.853C81.7705 364.071 81.4173 414.349 83.0657 464.568C84.0077 492.768 85.5973 520.968 87.8345 549.11C87.9522 550.228 89.7184 550.228 89.6007 549.11C85.5973 499.009 83.7133 448.731 83.8311 398.512C83.9488 348.235 86.186 298.016 90.4249 247.915C92.8387 219.773 95.9001 191.75 99.5502 163.726C99.668 162.608 97.9018 162.608 97.784 163.726Z" fill="#161616"/>
<path d="M87.7754 550.229C120.568 568.067 159.836 564.24 193.158 550.111C203.167 545.872 212.822 540.75 222.124 535.157C223.066 534.568 222.183 533.038 221.241 533.626C190.215 552.407 153.831 565.536 117.153 558.706C107.204 556.881 97.5483 553.525 88.6585 548.698C87.7165 548.168 86.7745 549.699 87.7754 550.229Z" fill="#161616"/>
<path d="M74.7645 545.342C78.8856 547.285 83.1245 548.933 87.4222 550.405C88.482 550.758 88.9529 549.051 87.8932 548.698C83.7132 547.285 79.651 545.695 75.6476 543.811C74.5879 543.34 73.7048 544.871 74.7645 545.342Z" fill="#161616"/>
<path d="M88.3052 164.138C81.9469 213.474 76.6484 262.928 73.1748 312.558C69.7602 361.952 68.1118 411.465 69.1715 460.977C69.7602 489 71.1732 517.024 73.587 544.93C73.7047 546.049 75.4709 546.049 75.3532 544.93C71.1143 495.418 69.878 445.729 71.0554 396.04C72.174 346.527 75.5887 297.074 80.4751 247.738C83.2422 219.832 86.4802 191.927 90.0714 164.08C90.2481 163.02 88.4819 163.02 88.3052 164.138Z" fill="#161616"/>
<path d="M89.3059 165.375C92.7205 164.668 96.1352 164.433 99.6676 164.609C100.786 164.668 100.786 162.902 99.6676 162.843C96.0174 162.667 92.4262 162.961 88.8349 163.667C87.7163 163.903 88.1873 165.61 89.3059 165.375Z" fill="#161616"/>
<path d="M525.497 200.993C527.97 269.286 527.852 337.638 525.026 405.931C524.261 425.064 523.26 444.139 522.024 463.273C521.965 464.392 523.731 464.392 523.79 463.273C528.088 395.098 529.736 326.746 528.735 258.394C528.441 239.261 527.97 220.127 527.264 200.993C527.205 199.875 525.439 199.875 525.497 200.993Z" fill="#161616"/>
<path d="M554.051 176.502C556.406 224.012 557.584 271.641 557.525 319.21C557.525 366.78 556.347 414.408 553.992 461.919C552.697 488.824 550.99 515.67 548.929 542.516C548.87 543.635 550.636 543.635 550.695 542.516C554.346 495.064 556.818 447.554 558.172 399.984C559.467 352.415 559.644 304.786 558.643 257.217C558.055 230.312 557.113 203.407 555.817 176.502C555.758 175.383 553.992 175.383 554.051 176.502Z" fill="#161616"/>
<path d="M588.315 166.022C591.612 215.417 593.613 264.929 594.143 314.5C594.673 364.248 593.849 413.937 591.612 463.626C590.375 491.473 588.668 519.32 586.49 547.108C586.431 548.227 588.197 548.227 588.256 547.108C592.024 497.714 594.496 448.201 595.497 398.689C596.498 349 596.145 299.252 594.379 249.504C593.378 221.657 591.965 193.81 590.081 165.963C590.022 164.845 588.256 164.845 588.315 166.022Z" fill="#161616"/>
<path d="M519.433 485.35C518.079 500.775 515.606 516.082 512.015 531.154C511.78 532.272 513.428 532.743 513.722 531.625C517.373 516.377 519.845 500.952 521.199 485.35C521.317 484.232 519.551 484.232 519.433 485.35Z" fill="#161616"/>
<path d="M118.919 175.619C111.855 225.013 108.852 274.938 108.381 324.803C107.969 374.963 110.029 425.064 113.091 475.106C114.798 503.424 116.8 531.683 118.802 560.001C118.86 561.12 120.627 561.12 120.568 560.001C117.035 510.136 113.503 460.27 111.56 410.346C109.617 360.539 109.323 310.615 112.208 260.808C113.856 232.49 116.564 204.172 120.568 176.09C120.803 175.03 119.096 174.5 118.919 175.619Z" fill="#161616"/>
<path d="M152.772 192.103C148.297 239.849 145.295 287.772 144.294 335.754C143.352 383.676 144.47 431.599 148.415 479.404C150.593 505.956 153.655 532.39 157.658 558.706C157.835 559.825 159.542 559.354 159.365 558.235C152.183 510.783 148.062 462.861 146.531 414.879C145 367.545 145.883 320.093 148.474 272.818C149.946 245.913 152.006 219.008 154.538 192.162C154.656 190.984 152.889 190.985 152.772 192.103Z" fill="#161616"/>
<path d="M186.682 206.174C180.913 250.741 177.557 295.602 176.674 340.522C175.791 385.443 177.322 430.422 181.266 475.165C183.503 500.128 186.447 524.972 190.156 549.758C190.333 550.876 192.04 550.405 191.863 549.287C185.211 504.896 180.972 460.212 179.147 415.409C177.322 370.724 177.969 325.922 180.972 281.237C182.679 256.157 185.152 231.077 188.39 206.115C188.625 205.055 186.859 205.055 186.682 206.174Z" fill="#161616"/>
<path opacity="0.12" d="M575.128 170.026C581.663 196.695 586.961 227.957 588.727 262.987C593.143 352.12 572.184 424.947 553.933 471.692C541.04 492.356 528.206 513.021 515.312 533.685C527.852 539.102 546.456 545.401 569.652 547.285C585.666 548.58 599.56 547.403 610.393 545.637C610.51 543.046 612.453 503.66 612.571 501.07C618.988 369.135 619.4 360.127 619.636 351.061C620.695 314.147 620.519 261.161 614.219 195.047C612.041 183.802 609.863 172.557 607.684 161.371C596.911 164.197 586.019 167.082 575.128 170.026Z" fill="#3F3F3F"/>
<path opacity="0.13" d="M164.251 198.815C162.721 205.232 160.425 214.828 157.716 226.544C145.706 278.823 136.875 317.268 132.166 352.65C123.806 414.997 115.74 475.401 150.122 524.972C160.13 539.396 171.081 549.11 178.381 554.88C171.316 557.647 162.544 560.178 152.3 561.414C123.806 564.77 100.963 555.527 89.7769 549.993C85.538 510.96 82.5944 469.16 81.6524 424.946C79.533 327.099 87.4808 239.143 99.6087 163.491C121.097 175.265 142.645 187.04 164.251 198.815Z" fill="#3F3F3F"/>
<path d="M102.494 135.467C101.729 136.056 102.317 138.352 103.377 142.296C103.789 143.827 104.201 145.005 104.437 145.77C103.966 148.949 103.554 152.128 103.083 155.307C102.141 155.425 99.7269 155.955 97.4897 157.898C95.4291 159.723 94.6049 161.842 94.3105 162.784C96.1945 162.961 98.4905 163.373 100.963 164.138C104.554 165.257 107.38 166.788 109.441 168.083C109.441 168.789 109.559 170.143 110.501 171.144C111.325 171.968 112.326 172.086 112.914 172.204C115.034 172.557 117.565 173.028 120.803 173.735C122.216 174.559 124.571 175.913 127.456 177.503C137.229 182.801 140.761 183.684 150.534 188.865C156.834 192.221 156.304 192.339 160.719 194.458C167.49 197.755 173.318 199.698 177.263 200.816C178.911 198.991 181.561 195.459 183.032 190.337C184.21 186.275 184.151 182.742 183.915 180.446C184.916 180.976 186.506 181.565 188.331 181.329C193.041 180.799 196.043 175.442 196.985 171.615C197.81 168.259 197.044 166.14 196.397 162.196C194.925 153.365 193.63 145.476 197.28 140.471C200.341 136.291 206.641 134.349 211.704 128.756C212.175 128.226 213.058 127.225 212.763 126.754C212.233 125.871 208.112 127.401 206.111 128.285C204.815 128.873 195.101 133.348 192.158 143.474C191.687 145.063 191.628 149.656 191.569 158.781C191.51 165.434 191.628 169.201 188.979 171.38C187.624 172.498 185.623 173.146 183.798 172.734C181.09 172.145 179.794 169.496 178.617 167.73C175.555 163.079 171.199 161.136 165.841 158.487C161.661 156.426 158.07 155.661 150.829 154.071C143.999 152.599 141.939 152.776 138.995 150.598C135.698 148.125 133.873 144.651 132.931 142.708C131.989 140.883 130.518 137.999 129.87 133.878C129.517 131.464 129.576 129.756 128.987 129.639C127.927 129.403 127.397 134.29 123.806 135.997C121.628 137.057 120.215 136.056 116.388 136.174C113.915 136.232 111.089 136.762 107.91 138.175C106.851 137.41 103.554 134.702 102.494 135.467Z" fill="black"/>
<path d="M104.26 154.837C103.024 145.122 111.855 136.292 121.628 137.292C130.871 138.234 136.994 149.479 136.699 157.898C136.641 159.017 138.407 159.017 138.466 157.898C138.76 148.596 131.813 136.35 121.628 135.526C110.913 134.643 101.14 144.122 102.494 154.837C102.671 155.896 104.437 155.955 104.26 154.837Z" fill="black"/>
<path d="M104.083 160.959C107.675 167.965 115.387 172.91 123.453 171.851C130.812 170.85 137.052 164.904 138.171 157.545C138.348 156.426 136.64 155.955 136.464 157.074C135.463 163.785 129.929 169.201 123.217 170.085C115.858 171.085 108.911 166.493 105.614 160.076C105.084 159.075 103.554 159.958 104.083 160.959Z" fill="black"/>
<path d="M110.442 169.496C110.265 167.259 116.624 166.317 118.213 165.964C121.098 165.316 124.042 164.963 126.985 164.963C132.46 164.963 137.7 166.376 142.351 169.26C143.293 169.849 144.235 168.319 143.234 167.73C137.229 164.021 130.223 162.726 123.276 163.373C119.626 163.726 116.035 164.492 112.561 165.669C110.677 166.317 108.44 167.141 108.617 169.496C108.735 170.615 110.56 170.615 110.442 169.496Z" fill="black"/>
<path d="M135.757 149.126C139.466 153.6 145.471 154.66 150.828 155.837C157.952 157.486 165.311 158.957 171.552 162.902C184.445 171.026 186.859 188.747 176.674 200.11C175.908 200.934 177.145 202.229 177.91 201.346C186.977 191.279 187.212 175.854 177.851 165.846C172.906 160.547 165.841 157.78 158.953 155.955C151.947 154.13 141.88 153.835 136.934 147.83C136.287 147.006 135.05 148.243 135.757 149.126Z" fill="black"/>
<path d="M176.968 179.916C174.024 176.031 168.844 174.677 164.31 176.561C158.717 178.857 158.423 185.745 159.071 190.985C159.188 192.103 160.955 192.103 160.837 190.985C160.307 186.863 160.248 180.505 164.487 178.445C168.137 176.62 172.906 177.562 175.378 180.858C176.085 181.742 177.616 180.858 176.968 179.916Z" fill="black"/>
<path d="M160.602 190.16C157.363 187.688 154.008 185.568 149.828 186.687C149.357 186.805 149.121 187.334 149.239 187.747C150.299 191.868 156.775 193.575 160.189 195.047C165.429 197.343 170.787 199.286 176.203 200.993C177.263 201.346 177.734 199.639 176.674 199.286C172.317 197.932 168.078 196.46 163.84 194.694C161.543 193.752 159.306 192.751 157.069 191.691C155.067 190.749 151.476 189.631 150.887 187.276C150.711 187.629 150.475 187.982 150.299 188.335C153.949 187.334 156.951 189.513 159.66 191.632C160.602 192.398 161.485 190.867 160.602 190.16Z" fill="black"/>
<path d="M108.852 169.319C111.148 173.087 115.799 173.735 119.862 174.323C125.867 175.207 131.872 175.207 137.877 174.559C138.995 174.441 138.995 172.675 137.877 172.793C133.049 173.323 128.222 173.44 123.394 172.969C119.332 172.557 112.797 172.322 110.324 168.436C109.794 167.435 108.264 168.318 108.852 169.319Z" fill="black"/>
<path d="M95.1346 163.314C95.8999 159.193 99.4912 157.074 103.495 156.897C103.2 156.662 102.906 156.485 102.67 156.249C102.965 157.662 103.377 159.016 103.966 160.312C104.378 161.371 106.085 160.9 105.673 159.841C105.143 158.487 104.731 157.191 104.378 155.778C104.319 155.425 103.907 155.131 103.553 155.131C98.8436 155.366 94.3692 157.957 93.4861 162.843C93.2506 163.962 94.958 164.433 95.1346 163.314Z" fill="black"/>
<path d="M105.379 145.064C104.496 142.532 103.848 139.883 103.613 137.175C103.613 136.939 103.554 136.704 103.554 136.468C103.495 135.938 103.554 135.997 103.789 136.645C104.319 136.998 104.849 137.41 105.379 137.822C106.262 138.588 107.086 139.412 107.793 140.295C108.558 141.178 109.794 139.883 109.029 139.059C108.028 137.881 103.848 133.053 102.082 134.937C101.199 135.879 101.846 138.058 102.023 139.117C102.317 141.296 102.906 143.474 103.613 145.535C104.084 146.594 105.791 146.182 105.379 145.064Z" fill="black"/>
<path d="M125.278 136.821C125.808 135.879 126.338 134.937 126.926 133.995C127.162 133.583 127.397 133.23 127.574 132.818C127.927 132.229 127.927 131.699 128.634 131.876C129.458 132.053 129.163 133.995 129.163 134.702C129.163 135.82 129.222 136.939 129.222 138.058C129.222 139.176 130.989 139.176 130.989 138.058C130.989 136.232 131.047 134.407 130.93 132.582C130.871 131.405 130.459 130.11 129.163 129.698C127.986 129.344 127.162 130.11 126.573 130.993C125.572 132.582 124.689 134.29 123.747 135.879C123.158 136.939 124.689 137.822 125.278 136.821Z" fill="black"/>
<path d="M181.678 175.325C182.031 179.799 187.036 181.271 190.509 179.092C195.631 175.913 196.75 168.731 196.102 163.314C195.219 155.896 193.453 149.008 195.984 141.649C198.398 134.643 204.403 128.932 211.998 128.461C213.116 128.403 213.116 126.636 211.998 126.695C201.636 127.343 194.571 136.174 193.1 145.947C192.216 151.775 193.512 157.192 194.277 162.902C194.748 166.67 194.513 170.261 192.805 173.735C192.04 175.207 190.98 176.679 189.567 177.621C187.389 178.975 183.621 178.563 183.386 175.383C183.386 174.206 181.619 174.147 181.678 175.325Z" fill="black"/>
<path d="M182.62 178.503C184.445 183.39 190.804 181.211 193.571 178.386C198.104 173.793 197.103 166.14 196.75 160.311C196.691 159.193 194.925 159.193 194.984 160.311C195.219 164.02 195.572 168.024 194.925 171.733C194.63 173.499 193.983 175.147 192.805 176.56C191.51 178.15 185.858 182.153 184.328 178.032C183.916 176.973 182.208 177.444 182.62 178.503Z" fill="black"/>
<path d="M212.057 126.636C205.345 129.227 198.575 132.877 195.867 139.942C192.746 148.066 194.983 156.897 194.807 165.316C194.807 166.434 196.573 166.434 196.573 165.316C196.75 157.957 194.983 150.421 196.75 143.121C198.692 135.114 205.345 131.111 212.528 128.344C213.587 127.931 213.116 126.224 212.057 126.636Z" fill="black"/>
<path d="M210.703 127.637C204.521 130.463 198.869 135.408 195.985 141.708C194.454 145.005 194.689 148.655 194.689 152.246C194.689 156.838 194.866 161.489 195.219 166.081C195.278 167.2 197.044 167.2 196.985 166.081C196.75 162.372 196.573 158.722 196.514 155.013C196.455 151.127 195.926 146.535 197.397 142.885C199.929 136.703 205.64 131.935 211.586 129.168C212.646 128.697 211.763 127.166 210.703 127.637Z" fill="black"/>
<path d="M107.734 148.949C109.382 151.834 113.562 150.833 113.974 147.654C114.033 147.065 113.15 147.124 113.091 147.654C112.797 150.068 109.735 150.539 108.499 148.537C108.205 148.007 107.439 148.478 107.734 148.949Z" fill="white"/>
<path d="M120.214 146.653C122.039 149.773 126.69 148.537 126.749 144.946C126.749 144.357 125.866 144.357 125.866 144.946C125.807 147.713 122.392 148.596 120.98 146.241C120.685 145.711 119.92 146.123 120.214 146.653Z" fill="white"/>
<path d="M116.682 150.539C117.094 152.246 116.741 153.953 115.681 155.366C115.328 155.837 116.093 156.249 116.447 155.837C117.624 154.248 117.977 152.246 117.565 150.303C117.389 149.773 116.506 150.009 116.682 150.539Z" fill="white"/>
<path d="M117.036 150.48C116.859 152.717 118.095 154.836 120.156 155.778C120.686 156.014 121.098 155.249 120.627 155.013C118.861 154.189 117.742 152.423 117.919 150.48C117.919 149.891 117.036 149.891 117.036 150.48Z" fill="white"/>
<path d="M102.67 155.719C107.851 155.307 111.148 159.546 114.622 162.667C115.034 163.02 115.681 162.431 115.269 162.019C111.619 158.722 108.087 154.424 102.67 154.778C102.14 154.836 102.14 155.719 102.67 155.719Z" fill="white"/>
<path d="M112.325 166.081C118.978 161.842 126.867 160.429 134.579 162.137C135.109 162.255 135.345 161.43 134.815 161.313C126.867 159.605 118.743 161.018 111.913 165.375C111.383 165.61 111.854 166.376 112.325 166.081Z" fill="white"/>
<path d="M129.046 174.147C134.521 174.5 139.702 172.793 143.882 169.201C144.294 168.848 143.705 168.201 143.234 168.554C139.231 171.969 134.286 173.617 129.046 173.264C128.516 173.264 128.516 174.147 129.046 174.147Z" fill="white"/>
<path d="M127.456 132.347C126.161 134.525 125.866 137.057 126.632 139.471C126.808 140 127.633 139.765 127.456 139.235C126.749 137.057 126.985 134.761 128.162 132.818C128.516 132.288 127.75 131.817 127.456 132.347Z" fill="white"/>
<path d="M104.143 137.822C105.556 138.705 106.439 140.059 106.792 141.649C106.91 142.179 107.734 141.943 107.616 141.413C107.204 139.588 106.144 138.058 104.555 137.057C104.084 136.762 103.672 137.528 104.143 137.822Z" fill="white"/>
<path d="M135.286 147.242C136.405 148.596 137.7 149.773 139.172 150.656C139.643 150.951 140.114 150.185 139.643 149.891C138.23 149.008 136.935 147.889 135.934 146.594C135.522 146.182 134.933 146.83 135.286 147.242Z" fill="white"/>
<path d="M171.611 176.149C170.374 173.028 164.428 175.148 162.485 176.384C159.012 178.68 157.481 182.978 158.776 186.922C158.953 187.452 159.777 187.217 159.601 186.687C158.6 183.567 159.424 180.211 161.897 177.915C162.956 176.914 164.369 176.208 165.782 175.854C166.783 175.56 170.198 174.912 170.728 176.325C170.963 176.914 171.787 176.678 171.611 176.149Z" fill="white"/>
<path d="M159.483 186.981C154.891 185.038 150.004 184.862 145.236 186.334C144.706 186.51 144.941 187.334 145.471 187.158C150.122 185.686 154.773 185.922 159.247 187.805C159.777 188.041 160.013 187.158 159.483 186.981Z" fill="white"/>
<path d="M321.207 431.835C318.793 437.604 318.793 441.902 318.44 452.97C318.028 466.629 316.85 480.228 316.733 493.828C316.615 505.308 316.438 522.676 315.967 545.283C334.807 546.343 355.648 546.578 378.255 545.46C399.803 544.4 419.702 542.222 437.658 539.514C429.18 510.842 423.587 489.942 419.584 473.752C417.465 465.098 414.344 452.146 405.749 437.015C401.039 428.714 396.152 422.474 392.561 418.294C391.619 417.47 370.837 399.984 346.817 408.226C345.639 408.697 328.154 415.056 321.207 431.835Z" fill="#5E5E5E"/>
<path d="M355.883 466.158C359.828 473.164 363.772 480.17 367.658 487.176C368.188 488.176 369.718 487.293 369.189 486.292C365.244 479.287 361.3 472.281 357.414 465.275C356.884 464.274 355.353 465.157 355.883 466.158Z" fill="#282828"/>
<path d="M355.412 465.805C364.479 477.108 369.719 490.002 372.545 504.131C375.194 517.495 376.901 531.036 377.902 544.636C377.961 545.755 379.727 545.755 379.668 544.636C378.608 530.683 376.842 516.73 374.134 503.013C371.308 488.824 365.774 475.872 356.708 464.568C356.001 463.626 354.706 464.922 355.412 465.805Z" fill="#282828"/>
<path opacity="0.19" d="M369.601 406.873C371.662 410.994 374.605 417.058 377.902 424.358C387.499 445.67 397.448 468.16 402.747 495.83C404.925 507.016 406.986 523.206 406.102 543.4C411.048 543.164 416.288 542.752 421.763 542.163C427.238 541.574 432.478 540.868 437.423 540.044C435.892 534.863 433.42 526.621 430.653 516.436C422.94 487.941 421.88 479.051 415.287 460.271C410.4 446.318 405.867 436.839 399.332 427.773C393.445 419.589 387.911 414.467 380.905 410.876C376.548 408.639 372.486 407.52 369.601 406.873Z" fill="#3F3F3F"/>
<path opacity="0.11" d="M355.53 466.452C357.826 475.048 359.828 485.292 360.77 496.831C362.418 516.789 360.299 533.803 357.709 546.52C364.479 546.108 371.191 545.696 377.961 545.283C377.254 531.919 375.724 520.674 374.252 512.138C370.543 490.414 366.657 482.348 363.537 477.167C360.593 472.398 357.65 468.807 355.53 466.452Z" fill="#3F3F3F"/>
<path d="M280.113 331.515C278.17 332.81 276.993 335.283 274.697 340.169C272.813 344.173 271.93 347.293 270.517 351.944C266.631 365.131 267.043 362.894 265.689 367.898C263.923 374.551 260.744 386.208 258.978 401.574C257.271 416.469 257.624 427.949 257.683 430.716C258.33 448.201 261.392 461.212 263.452 469.572C267.102 484.585 271.989 497.066 281.703 521.969C283.822 527.327 285.589 531.742 286.825 534.804C285.942 534.922 284.529 535.098 282.821 535.334C273.932 536.393 272.695 536.158 269.104 536.923C264.512 537.924 260.391 538.925 258.801 542.398C258.095 543.988 257.8 546.225 258.683 546.991C259.802 547.932 261.98 545.813 265.748 544.577C268.927 543.576 271.753 543.635 273.696 543.929C272.165 546.932 271.282 549.64 270.752 551.583C269.457 556.057 268.456 559.707 270.105 562.298C270.929 563.593 272.519 564.77 273.814 564.417C274.52 564.24 275.168 563.593 276.934 558.942C278.641 554.291 278.759 552.819 280.172 550.994C281.409 549.463 282.821 548.639 283.763 548.168C283.292 549.64 282.763 551.818 282.527 554.467C282.409 556.057 282.233 557.529 282.527 559.413C282.763 561.12 283.292 564.77 286.001 566.772C286.472 567.125 288.414 568.597 289.592 567.832C290.593 567.243 290.298 565.594 290.71 560.296C291.064 555.821 291.417 554.585 291.711 553.879C292.477 551.818 293.654 550.346 294.537 549.463C294.243 553.702 294.302 557.234 294.419 559.825C294.655 564.005 295.067 565.889 296.421 567.066C297.187 567.714 298.482 568.361 299.541 567.891C300.601 567.42 300.954 565.948 301.249 564.123C302.544 557.234 301.779 555.233 303.25 551.759C303.839 550.405 304.487 548.757 306.076 547.579C309.432 545.107 314.201 546.578 314.848 546.755C317.674 547.638 318.734 549.169 320.147 548.521C321.324 547.991 321.972 546.284 322.031 544.871C322.09 541.398 318.263 538.748 314.966 536.57C313.318 535.451 310.845 533.98 307.548 532.802C304.663 527.091 301.013 518.79 298.011 508.252C296.009 501.187 295.067 495.771 294.184 490.649C291.064 472.693 292.182 465.804 288.709 447.966C287.885 443.668 287.06 440.254 286.589 438.311C286.825 435.367 287.237 430.775 287.826 425.182C289.769 406.931 291.064 395.51 295.008 382.087C298.128 371.549 301.308 362.894 301.308 362.894C305.311 352.12 306.606 350.649 306.135 347.175C304.487 336.225 287.355 326.687 280.113 331.515Z" fill="white"/>
<path d="M275.58 337.108C265.101 361.305 258.507 387.15 257.094 413.525C255.622 440.43 260.273 466.747 268.987 492.18C273.932 506.721 279.937 520.851 286.06 534.981C286.531 536.04 288.003 535.098 287.591 534.097C276.993 509.606 266.632 484.762 261.686 458.504C256.8 432.6 257.801 405.813 263.453 380.085C266.632 365.661 271.224 351.591 277.111 338.05C277.523 336.99 276.051 336.048 275.58 337.108Z" fill="#161616"/>
<path d="M297.54 370.724C290.122 393.155 286.236 416.645 285.824 440.253C285.824 441.372 287.59 441.372 287.59 440.253C288.003 416.763 291.888 393.508 299.247 371.195C299.601 370.136 297.893 369.665 297.54 370.724Z" fill="#161616"/>
<path d="M279.643 429.539C284.883 436.839 287.002 445.552 288.238 454.265C289.533 463.155 290.122 472.163 291.417 481.053C294.008 499.127 298.247 517.142 306.783 533.332C307.313 534.333 308.844 533.45 308.314 532.449C299.424 515.611 295.244 496.831 292.772 478.109C290.593 461.683 291.241 442.667 281.173 428.656C280.526 427.772 278.995 428.656 279.643 429.539Z" fill="#161616"/>
<path d="M285.824 534.156C280.349 534.45 274.874 534.98 269.517 535.981C265.69 536.747 261.628 537.983 258.978 541.044C257.448 542.869 255.505 547.226 258.861 548.462C260.332 548.992 261.628 547.991 262.864 547.285C265.925 545.519 269.104 543.694 272.755 544.694C273.873 544.989 274.344 543.281 273.226 542.987C270.223 542.163 267.515 542.869 264.807 544.223C263.982 544.636 263.217 545.048 262.452 545.519C261.981 545.754 261.569 546.048 261.098 546.343C260.568 545.401 259.979 544.459 259.449 543.517C259.567 542.045 262.511 540.338 263.57 539.749C266.455 538.218 269.811 537.688 272.99 537.218C277.288 536.57 281.586 536.158 285.883 535.922C287.002 535.863 287.002 534.097 285.824 534.156Z" fill="#161616"/>
<path d="M280.997 539.396C276.346 540.161 272.519 543.34 270.753 547.638C268.869 552.112 267.279 558.765 269.458 563.357C271.106 566.831 275.168 568.067 276.699 563.828C277.641 561.179 277.464 558.294 278.406 555.645C279.584 552.348 281.585 549.522 284.529 547.579C285.471 546.932 284.588 545.401 283.646 546.049C280.879 547.874 278.818 550.346 277.464 553.349C276.758 554.879 276.228 556.469 275.875 558.118C275.58 559.472 275.404 566.301 272.166 564.299C270.341 563.181 270.164 559.589 270.223 557.764C270.341 555.056 271.047 551.936 271.93 549.345C273.402 544.989 276.876 541.869 281.409 541.103C282.586 540.927 282.115 539.219 280.997 539.396Z" fill="#161616"/>
<path d="M286.53 543.753C282.88 546.108 281.585 551.23 281.232 555.351C280.878 559.766 282.115 564.535 285.412 567.655C287.354 569.48 290.357 570.422 290.887 567.008C291.77 561.297 289.474 553.231 295.714 549.817C296.715 549.287 295.832 547.756 294.831 548.286C292.594 549.522 291.181 551.524 290.298 553.938C289.062 557.47 289.768 561.061 289.238 564.711C289.003 566.36 288.532 568.126 286.707 566.419C286.059 565.83 285.47 565.065 284.999 564.299C283.881 562.533 283.233 560.532 283.057 558.471C282.645 554.35 283.704 547.756 287.472 545.283C288.355 544.636 287.472 543.105 286.53 543.753Z" fill="#161616"/>
<path d="M294.891 548.462C293.772 552.701 292.713 557.117 293.419 561.532C293.713 563.651 294.95 568.832 297.658 569.362C300.719 569.951 301.956 564.535 302.25 562.533C302.898 558.176 302.073 552.937 305.488 549.581C306.312 548.757 305.076 547.52 304.252 548.344C300.131 552.407 301.543 558.294 300.307 563.475C299.895 565.359 298.718 568.185 296.775 566.006C295.715 564.888 295.421 562.71 295.185 561.238C294.596 557.117 295.597 552.995 296.657 548.992C296.893 547.873 295.185 547.402 294.891 548.462Z" fill="#161616"/>
<path d="M307.607 534.333C311.081 535.746 314.672 537.276 317.38 539.984C318.617 541.221 320.147 543.105 320.501 544.871C321.384 549.757 317.734 546.637 316.379 546.048C312.67 544.4 305.311 545.577 303.192 549.345C302.662 550.346 304.193 551.229 304.723 550.228C305.841 548.168 308.903 547.638 311.022 547.344C312.317 547.167 313.789 547.049 315.025 547.403C316.438 547.815 317.321 549.051 318.676 549.463C320.618 550.052 322.09 548.698 322.385 546.814C322.914 543.752 320.265 540.338 318.205 538.336C315.32 535.569 311.611 534.038 307.961 532.566C307.019 532.213 306.607 533.921 307.607 534.333Z" fill="#161616"/>
<path opacity="0.13" d="M295.715 351.708C288.944 352.12 284.882 369.429 282.645 379.025C280.113 389.799 277.817 404.635 278.288 426.242C278.7 445.552 281.173 460.27 281.997 465.392C285.706 487.411 291.535 505.897 297.246 520.38C299.129 525.678 300.955 530.977 302.838 536.217C301.779 540.573 300.719 545.048 299.718 549.699C298.423 555.821 297.245 561.826 296.304 567.596C297.422 567.714 298.953 567.655 300.013 566.595C301.367 565.241 301.19 563.063 301.249 561.179C301.308 559.413 301.484 550.876 305.311 547.697C307.666 545.754 311.434 545.754 314.024 546.696C316.674 547.697 317.851 549.64 319.617 549.051C320.971 548.639 321.913 546.99 322.09 545.695C322.679 541.397 314.436 536.982 313.082 536.275C310.433 534.862 309.197 534.686 307.489 532.92C305.37 530.682 304.664 528.033 304.369 526.856C299.483 508.252 297.069 509.429 293.772 488.058C291.299 471.927 292.889 472.869 290.357 460.035C288.591 450.968 287.119 447.259 286.648 439.429C286.118 430.834 287.119 424.122 288.179 418.176C292.595 393.861 301.072 364.425 303.133 357.419C301.249 354.475 298.658 351.532 295.715 351.708Z" fill="#3F3F3F"/>
<path d="M415.876 109.681C414.051 109.622 412.638 112.919 412.285 113.802C411.755 115.097 410.931 117.629 411.519 121.22C411.519 121.22 411.873 123.693 413.05 138.646C413.345 142.002 413.403 146.889 412.52 153.011C410.165 159.487 407.928 164.551 406.397 167.847C401.217 178.916 397.743 183.331 390.502 197.343C387.794 202.583 387.558 203.407 384.379 209.883C376.431 225.955 370.603 236.023 364.656 246.796C359.417 256.216 352.058 270.051 343.403 287.831C342.991 289.362 340.931 297.545 345.699 304.728C350.762 312.322 361.36 315.737 371.603 312.44C373.193 310.203 375.43 306.729 377.491 302.196C379.492 297.781 380.434 294.366 381.082 292.188C381.73 290.009 384.32 282.65 389.56 267.814C391.208 263.222 393.21 257.747 397.272 247.032C403.454 230.606 406.515 222.423 408.576 217.301C413.227 205.644 416.759 197.578 423.706 181.918C427.356 173.676 431.831 163.726 437.012 152.423C440.014 150.715 444.135 148.066 448.551 144.239C454.909 138.764 458.088 134.113 464.211 125.282C468.155 119.513 471.158 114.45 470.334 109.386C470.216 108.68 469.922 106.619 468.803 106.325C467.39 105.913 465.624 108.739 463.681 111.212C461.679 113.743 458.677 117.04 454.202 120.455C455.733 116.216 457.264 112.919 458.324 110.741C460.737 105.795 462.739 102.616 463.975 97.1408C465.329 91.3124 464.093 90.2527 463.74 89.9583C462.15 88.7808 459.442 91.018 457.853 89.7228C456.44 88.4865 457.676 85.7783 456.557 85.1307C455.439 84.4831 452.966 86.4259 451.2 88.4865C448.139 92.0189 447.432 95.4335 446.313 98.7304C445.254 101.968 443.311 106.384 439.661 111.27C438.778 111.388 437.6 111.447 437.07 110.741C436.482 109.916 437.306 108.562 438.071 106.384C438.248 105.854 438.13 106.148 439.366 100.732C439.837 98.6715 440.721 94.8448 441.427 91.7834C442.428 87.3679 442.899 85.5428 441.957 83.6C441.78 83.1879 441.015 81.5983 439.896 81.5394C438.601 81.4806 437.6 83.5411 436.835 85.1307C433.715 91.5479 432.125 94.7859 431.713 95.9045C429.652 101.497 426.885 110.034 426.473 112.978C426.414 113.331 426.297 114.567 425.708 116.157C425.414 116.922 425.237 117.217 425.06 117.688C423.588 120.984 424.825 123.163 423.294 124.34C423.117 124.458 422.234 125.106 421.528 124.87C420.763 124.635 420.409 123.634 419.997 120.278C419.408 115.686 419.762 114.332 418.702 112.33C417.996 111.447 417.112 109.74 415.876 109.681Z" fill="white"/>
<path d="M413.05 136.939C413.462 132.641 412.814 128.461 412.579 124.163C412.461 122.103 412.461 119.983 412.756 117.923C412.932 116.745 413.168 115.568 413.521 114.449C414.11 112.742 414.169 111.329 416.052 111.27C417.819 111.211 417.701 112.271 417.995 113.743C418.29 115.038 418.349 116.392 418.407 117.687C418.525 119.512 418.584 121.396 418.996 123.163C419.408 124.988 420.527 126.518 422.587 125.871C423.647 125.518 423.235 123.81 422.116 124.163C420.056 124.752 420.232 117.805 420.115 116.628C419.938 114.744 419.761 112.801 419.055 111.035C418.054 108.562 415.758 107.326 413.815 109.622C411.284 112.565 410.754 117.864 410.754 121.514C410.754 126.695 411.755 131.758 411.284 136.939C411.225 138.057 412.991 138.057 413.05 136.939Z" fill="#161616"/>
<path d="M423.293 125.164C426.237 119.454 427.12 112.978 428.827 106.855C430.653 100.261 432.949 93.785 436.363 87.8977C437.129 86.6025 437.894 84.7774 439.013 83.7766C441.191 81.7749 441.191 85.6016 441.014 87.2501C440.661 90.9002 439.719 94.6092 438.895 98.2005C438.129 101.497 437.07 104.677 436.304 107.973C435.892 109.798 435.892 111.388 437.187 112.801C437.953 113.625 439.189 112.389 438.424 111.565C436.952 109.975 438.483 106.796 438.954 105.089C439.483 103.146 440.013 101.203 440.425 99.2602C441.25 95.6689 442.074 92.0188 442.604 88.3098C442.898 86.367 443.31 82.9523 441.603 81.4805C440.131 80.2442 438.659 81.4216 437.658 82.5991C433.361 87.9566 430.711 95.0213 428.592 101.497C426.178 108.974 425.413 117.334 421.763 124.34C421.233 125.282 422.764 126.165 423.293 125.164Z" fill="#161616"/>
<path d="M437.599 112.977C439.365 113.154 440.013 111.859 440.837 110.446C442.133 108.209 443.31 105.854 444.429 103.558C446.607 99.0834 448.138 94.1969 450.787 90.0169C451.376 89.075 452.082 87.8975 453.024 87.191C453.789 86.3079 454.79 86.0136 456.085 86.4257C456.262 87.2499 456.38 88.0741 456.38 88.8983C456.439 91.7831 455.497 94.6679 454.496 97.3761C452.494 102.734 450.257 108.032 448.079 113.39C447.667 114.449 449.374 114.92 449.786 113.861C451.022 110.799 463.739 83.953 455.438 83.7764C453.789 83.7175 451.905 85.7781 450.964 86.8967C449.315 88.8395 448.138 91.0767 447.078 93.3727C445.842 96.1397 444.723 98.9068 443.428 101.615C442.662 103.263 441.779 104.971 440.955 106.56C440.425 107.62 439.13 111.27 437.658 111.152C436.481 111.094 436.481 112.86 437.599 112.977Z" fill="#161616"/>
<path d="M458.441 91.3123C459.088 87.8976 462.797 90.2525 463.268 92.4308C463.68 94.2559 462.974 96.081 462.385 97.7883C461.502 100.379 460.501 102.91 459.441 105.383C457.381 110.211 454.967 114.803 452.259 119.336C451.67 120.337 453.201 121.22 453.79 120.219C456.321 116.039 458.558 111.682 460.56 107.267C462.267 103.44 464.328 99.2013 464.975 95.0213C465.388 92.372 464.622 88.9573 461.679 88.0154C459.5 87.3089 457.145 88.663 456.733 90.9001C456.557 91.9599 458.264 92.4308 458.441 91.3123Z" fill="#161616"/>
<path d="M455.026 120.925C457.263 118.394 459.441 115.862 461.679 113.331C462.856 111.977 463.916 110.505 465.211 109.327C465.623 108.974 466.035 108.68 466.388 108.327C467.389 108.68 468.39 109.033 469.45 109.386C469.744 109.916 469.038 111.447 468.861 111.918C467.036 117.511 464.387 122.809 461.266 127.755C454.967 137.704 446.313 146.064 436.187 152.128C435.186 152.717 436.128 154.248 437.07 153.659C449.668 146.123 460.03 135.055 466.565 121.926C468.155 118.747 469.685 115.391 470.686 111.977C471.275 109.975 471.628 107.267 469.332 106.207C467.095 105.147 464.74 107.208 463.327 108.68C459.971 112.153 456.91 116.039 453.731 119.689C453.024 120.513 454.261 121.75 455.026 120.925Z" fill="#161616"/>
<path d="M411.519 135.114C411.931 140.53 412.343 146.064 411.46 151.481C410.577 156.838 408.34 161.783 405.867 166.611C400.863 176.384 395.623 186.039 390.501 195.753C380.257 215.181 370.013 234.551 359.769 253.979C353.882 265.106 347.995 276.292 342.107 287.419C341.578 288.419 343.108 289.303 343.638 288.302C364.774 248.209 386.321 208.293 407.103 167.965C409.576 163.196 411.872 158.31 412.873 153.07C414.05 147.124 413.638 141.119 413.167 135.114C413.226 133.995 411.46 133.995 411.519 135.114Z" fill="#161616"/>
<path d="M436.069 151.716C417.229 191.514 400.804 232.254 386.321 273.819C382.082 285.888 377.843 297.957 372.721 309.673C372.25 310.732 373.781 311.616 374.252 310.556C383.024 290.598 389.441 269.698 396.977 249.328C404.689 228.369 413.049 207.587 421.939 187.099C427.002 175.501 432.183 164.021 437.599 152.599C438.07 151.598 436.54 150.715 436.069 151.716Z" fill="#161616"/>
<path opacity="0.1" d="M462.679 90.6059C460.266 90.2527 457.028 100.143 455.144 105.089C449.433 120.278 444.605 122.044 432.36 142.65C427.826 150.244 421.586 161.666 415.287 176.561C396.447 216.241 377.667 255.981 358.827 295.661C363.419 301.254 367.952 306.906 372.545 312.499C374.841 305.964 378.196 296.368 382.376 284.77C389.971 263.87 399.803 236.965 413.697 204.231C419.231 191.279 426.884 173.794 436.716 153.247C439.424 151.54 443.192 148.89 447.313 145.24C452.848 140.413 460.148 133.878 465.152 123.222C466.742 119.925 468.743 114.862 469.803 108.209C469.038 107.856 467.919 107.444 466.683 107.679C464.563 108.091 463.445 110.152 462.562 111.565C459.147 116.804 454.143 120.278 453.495 119.866C453.142 119.571 454.143 117.864 456.851 112.33C462.385 100.968 460.089 103.97 462.267 100.143C463.504 97.965 464.74 96.0811 464.328 93.6673C464.328 92.6076 463.68 90.7825 462.679 90.6059Z" fill="#3F3F3F"/>
<path opacity="0.13" d="M459.089 130.757C456.145 132.641 451.965 135.408 447.196 139.058C441.721 143.18 435.834 147.654 430.888 153.306C424.177 160.959 421.233 168.554 419.467 172.969C403.277 214.298 384.025 259.16 378.55 271.641C375.548 278.47 370.838 288.773 364.597 301.136C367.423 304.845 370.308 308.554 373.134 312.263C381.258 287.478 390.619 261.515 401.334 234.61C412.873 205.703 424.824 178.68 436.835 153.541C440.073 151.363 443.723 148.596 447.432 145.005C452.671 140 456.439 134.937 459.089 130.757Z" fill="#3F3F3F"/>
<path d="M302.544 301.195C300.366 302.667 295.479 306.082 290.475 311.616C285.294 317.326 282.292 322.684 279.819 327.217C277.876 330.69 276.463 333.752 275.462 335.989C276.993 338.933 279.466 343.466 282.88 348.882C288.944 358.479 293.654 363.659 301.779 374.08C305.193 378.437 310.139 384.972 316.026 393.214C316.968 397.629 317.792 402.28 318.499 407.167C319.912 417.175 320.441 426.477 320.441 434.837C322.62 437.192 326.388 440.607 331.922 443.02C341.106 447.083 349.466 445.905 353.823 445.199C363.478 443.727 370.072 439.429 374.605 436.427C382.847 431.01 388.44 424.534 392.149 419.177C391.384 409.993 390.383 400.514 389.146 390.682C388.087 382.322 386.909 374.198 385.614 366.309C385.496 360.127 384.908 351.708 382.906 341.935C381.257 333.752 379.256 324.214 373.31 312.911C365.892 298.84 356.648 290.304 353.057 287.183C349.878 284.416 346.993 282.356 344.874 280.884C336.278 286.359 328.86 289.774 323.797 291.834C314.378 295.72 309.962 296.309 302.544 301.195Z" fill="white"/>
<path d="M276.405 336.225C278.23 329.277 283.293 322.801 287.649 317.15C292.241 311.262 297.422 305.905 303.604 301.607C304.546 300.96 303.663 299.429 302.721 300.076C296.363 304.492 291.005 309.967 286.295 316.031C281.762 321.859 276.64 328.453 274.756 335.695C274.462 336.872 276.169 337.284 276.405 336.225Z" fill="#161616"/>
<path d="M275.109 336.813C287.237 358.008 301.602 377.907 317.91 396.098C318.676 396.923 319.912 395.686 319.147 394.862C302.956 376.788 288.709 357.007 276.64 335.93C276.051 334.929 274.521 335.812 275.109 336.813Z" fill="#161616"/>
<path d="M324.916 292.658C331.51 288.007 338.751 284.534 346.464 282.297C347.582 282.002 347.111 280.295 345.993 280.589C338.104 282.885 330.745 286.418 324.033 291.128C323.091 291.775 323.974 293.306 324.916 292.658Z" fill="#161616"/>
<path d="M344.992 282.768C373.133 302.373 385.202 336.755 383.848 370.018C383.789 371.137 385.555 371.137 385.614 370.018C387.027 336.048 374.546 301.195 345.875 281.237C344.992 280.59 344.109 282.12 344.992 282.768Z" fill="#161616"/>
<path d="M314.084 392.625C317.145 398.924 317.498 406.754 318.146 413.584C318.853 420.531 319.088 427.537 319.088 434.543C319.088 435.661 320.854 435.661 320.854 434.543C320.913 426.771 320.56 419 319.677 411.288C318.97 404.753 318.499 397.688 315.614 391.683C315.085 390.682 313.613 391.565 314.084 392.625Z" fill="#161616"/>
<path d="M320.207 434.896C329.038 445.729 344.109 448.79 357.238 445.434C364.538 443.55 371.308 439.959 377.372 435.485C383.436 431.01 389.206 425.829 392.621 419C393.15 417.999 391.62 417.116 391.09 418.117C387.793 424.652 382.259 429.656 376.43 433.954C370.779 438.134 364.479 441.549 357.65 443.491C344.816 447.083 330.038 444.316 321.384 433.66C320.736 432.776 319.5 434.013 320.207 434.896Z" fill="#161616"/>
<path d="M384.496 367.368C387.381 384.618 390.207 401.868 391.208 419.295C391.267 420.413 393.033 420.413 392.974 419.295C391.914 401.691 389.088 384.265 386.204 366.897C386.027 365.779 384.32 366.25 384.496 367.368Z" fill="#161616"/>
<path opacity="0.13" d="M327.153 290.304C333.688 298.016 342.637 310.026 350.114 326.275C361.064 350.06 363.243 370.606 364.891 388.092C366.186 401.397 366.893 419.942 364.302 442.079C369.306 439.9 376.371 436.132 383.201 429.597C386.968 425.947 389.794 422.297 391.914 419.118C389.971 402.692 388.028 386.208 386.085 369.782C386.439 356.241 384.319 345.291 382.317 337.873C376.136 314.913 364.243 300.135 360.24 295.484C354.765 289.067 349.407 284.357 345.463 281.237C339.34 284.298 333.276 287.301 327.153 290.304Z" fill="#3F3F3F"/>
<path opacity="0.14" d="M371.014 310.909C369.954 311.203 372.427 320.8 374.782 334.988C374.782 334.988 378.373 356.536 379.139 377.377C379.669 391.153 378.962 411.288 372.78 436.309C375.606 434.896 379.08 432.835 382.671 429.951C387.028 426.418 390.148 422.709 392.267 419.765C391.502 396.04 389.5 383.735 387.616 376.788C387.263 375.434 386.321 372.255 385.556 367.78C384.143 359.42 384.849 355.829 384.084 348.882C383.495 343.348 382.377 339.698 380.316 332.928C377.196 322.743 372.192 310.556 371.014 310.909Z" fill="#3F3F3F"/>
<path d="M301.722 204.349C297.836 206.527 292.891 209.824 288.122 214.828C278.232 225.366 275.053 237.141 273.934 242.97C273.051 242.852 270.637 242.675 268.694 244.206C265.81 246.443 265.751 250.859 266.869 253.449C267.281 254.391 267.87 255.156 269.106 256.687C270.578 258.512 271.52 259.631 273.051 260.278C273.699 260.573 275.17 260.985 277.29 260.514C277.937 262.457 278.997 265.165 280.587 268.285C282.647 272.288 285.768 278.235 292.008 283.415C293.833 284.946 296.659 286.948 300.486 288.773C301.899 290.598 304.489 294.425 304.784 299.606C305.372 308.731 298.72 316.326 292.42 319.681C281.47 325.51 269.577 319.681 265.221 317.503C262.866 316.326 251.032 310.203 246.087 296.78C240.082 280.589 247.912 264.399 252.563 254.744C257.273 245.03 259.451 245.678 263.042 236.199C267.811 223.659 265.28 219.244 270.755 209.647C272.874 205.879 277.172 198.344 286.18 194.811C293.892 191.809 301.016 193.339 304.077 194.223C306.609 192.692 311.083 190.514 316.735 190.514C330.158 190.514 338.753 203.23 340.814 206.292C346.937 215.299 343.699 218.066 349.174 230.724C356.062 246.679 362.774 245.737 368.955 260.69C371.958 267.991 376.962 280.06 371.428 291.599C365.717 303.491 352.706 306.965 351.058 307.377C348.055 308.142 339.99 310.144 331.924 305.846C331.159 305.434 321.033 299.9 320.208 290.421C319.914 286.948 320.915 283.71 321.15 283.003C322.387 279.177 324.506 276.704 325.154 275.88C327.685 272.759 330.747 266.99 332.866 255.51C333.867 255.451 335.515 255.215 337.164 254.273C340.637 252.271 342.286 248.209 342.109 244.677C342.05 243.853 341.815 239.143 338.4 237.553C336.987 236.906 335.515 237.082 334.691 237.259C323.741 226.191 312.731 215.299 301.722 204.349Z" fill="#212121"/>
<path d="M301.721 204.29C295.186 208.116 290.652 212.355 287.768 215.475C278.171 225.896 275.11 236.788 274.462 239.319C274.05 240.909 273.756 242.204 273.638 243.146C272.99 242.91 271.519 242.498 270.047 243.146C267.81 244.147 267.339 246.855 267.103 248.209C266.514 251.329 267.692 253.802 268.163 254.744C268.81 256.098 269.87 258.276 272.402 259.395C274.462 260.337 276.405 259.984 277.229 259.807C278.054 261.926 279.231 264.87 281.056 268.226C283.823 273.524 286.414 278.411 291.418 282.767C293.361 284.475 296.54 286.83 301.132 288.655C302.074 290.127 303.369 292.423 304.076 295.425C304.664 297.78 304.782 299.782 304.723 301.312C306.254 302.078 309.139 303.255 312.73 303.196C319.618 303.079 324.151 298.781 325.211 297.721C324.092 294.365 323.092 290.244 322.679 285.476C322.503 283.297 322.444 281.237 322.444 279.353C324.269 277.41 326.506 274.643 328.331 270.934C331.569 264.517 332.099 258.571 332.158 255.097C332.982 255.215 334.631 255.391 336.397 254.685C338.87 253.684 339.988 251.506 340.636 250.269C340.812 249.975 343.285 244.912 341.048 239.908C340.518 238.789 339.635 236.729 337.869 236.552C336.574 236.434 335.514 237.435 335.102 237.847C332.688 234.962 328.155 229.605 321.796 222.246C316.321 215.829 312.848 211.825 307.019 207.704C304.9 206.174 303.016 205.055 301.721 204.29Z" fill="white"/>
<path d="M293.596 266.754C293.007 268.108 295.774 270.522 297.07 271.523C299.778 273.524 302.663 273.819 303.722 273.878C304.959 273.995 309.021 274.29 312.73 271.64C313.613 270.993 316.086 269.286 317.028 266.106C317.675 263.81 317.499 260.631 316.262 260.101C315.32 259.748 314.437 260.926 312.436 262.339C308.903 264.752 305.253 265.341 302.133 265.812C296.834 266.636 294.185 265.577 293.596 266.754Z" fill="black"/>
<path d="M274.933 253.154C277.053 261.985 280.467 270.64 286.119 277.822C291.124 284.239 298.542 290.421 307.196 289.597C315.203 288.831 321.738 282.591 325.976 276.233C330.981 268.815 333.394 259.925 333.159 250.976C333.1 249.857 331.334 249.857 331.393 250.976C331.628 259.159 329.509 267.166 325.211 274.113C321.149 280.648 314.437 287.536 306.254 287.889C297.6 288.243 290.476 281.178 285.884 274.584C281.292 267.99 278.466 260.396 276.582 252.624C276.346 251.565 274.639 252.036 274.933 253.154Z" fill="#161616"/>
<path d="M299.954 288.773C302.427 292.541 303.663 296.662 303.663 301.195C303.663 302.314 305.429 302.314 305.429 301.195C305.429 296.426 304.075 291.893 301.485 287.89C300.896 286.889 299.365 287.772 299.954 288.773Z" fill="#161616"/>
<path d="M304.488 301.901C311.67 306.022 320.972 304.021 325.859 297.427C326.565 296.544 325.034 295.661 324.328 296.544C319.971 302.372 311.611 304.021 305.371 300.371C304.37 299.841 303.487 301.371 304.488 301.901Z" fill="#161616"/>
<path d="M321.443 280.883C321.502 286.241 322.326 291.539 324.033 296.661C324.387 297.721 326.094 297.25 325.741 296.19C324.151 291.186 323.268 286.123 323.209 280.883C323.209 279.706 321.443 279.706 321.443 280.883Z" fill="#161616"/>
<path d="M276.699 258.747C275.934 259.571 274.05 259.277 273.167 258.806C272.46 258.453 271.813 257.923 271.283 257.393C270.105 256.275 269.163 254.92 268.575 253.449C267.397 250.682 266.867 242.734 272.107 244.147C273.226 244.441 273.697 242.734 272.578 242.439C266.102 240.732 265.101 249.328 266.75 253.625C268.045 257.099 273.991 264.281 277.994 259.984C278.701 259.159 277.464 257.923 276.699 258.747Z" fill="#161616"/>
<path d="M335.867 238.142C336.573 235.787 339.635 240.32 339.988 241.144C340.695 243.028 340.93 245.089 340.636 247.09C340.165 251.094 336.986 254.921 332.57 253.802C331.451 253.508 330.98 255.215 332.099 255.509C339.223 257.334 343.049 249.916 342.402 243.852C342.107 241.203 341.048 237.788 338.516 236.376C336.868 235.492 334.748 235.728 334.16 237.612C333.806 238.789 335.514 239.201 335.867 238.142Z" fill="#161616"/>
<path d="M282.999 225.661C284.942 221.952 288.356 219.538 292.478 218.949C293.596 218.773 293.125 217.065 292.007 217.242C287.473 217.89 283.588 220.715 281.468 224.778C280.938 225.779 282.469 226.662 282.999 225.661Z" fill="#161616"/>
<path d="M310.198 216.594C315.144 215.417 320.089 217.889 322.326 222.364C322.856 223.365 324.328 222.481 323.857 221.481C321.267 216.241 315.379 213.533 309.727 214.887C308.609 215.181 309.08 216.889 310.198 216.594Z" fill="#161616"/>
<path d="M297.364 223.836C298.482 230.076 298.777 236.493 298.129 242.852C297.894 244.794 296.952 247.562 297.835 249.504C298.777 251.624 301.308 253.449 302.898 255.097C303.663 255.922 304.959 254.685 304.134 253.861C303.075 252.742 302.015 251.683 300.955 250.564C299.307 248.857 299.13 248.327 299.483 245.854C299.778 243.617 300.072 241.321 300.19 239.025C300.425 233.785 300.013 228.545 299.071 223.424C298.895 222.246 297.187 222.717 297.364 223.836Z" fill="#161616"/>
<path d="M289.946 238.966C289.063 237.553 288.651 236.022 288.768 234.374C288.768 234.021 289.004 232.49 289.298 232.431C289.475 232.431 289.769 234.492 289.828 234.727C289.946 235.492 290.005 236.317 290.005 237.082C290.005 237.317 289.946 239.26 289.946 238.083C289.887 236.376 290.005 234.668 290.064 232.961C289.475 233.02 288.886 233.138 288.356 233.196C288.651 235.021 288.827 236.847 288.827 238.73C289.416 238.73 290.005 238.73 290.593 238.73C290.593 238.495 290.593 238.259 290.593 238.024C290.593 236.905 288.827 236.905 288.827 238.024C288.827 238.259 288.827 238.495 288.827 238.73C288.827 239.849 290.593 239.849 290.593 238.73C290.593 236.729 290.417 234.727 290.064 232.725C289.887 231.725 288.356 232.019 288.356 232.961C288.297 234.845 288.062 236.905 288.297 238.789C288.415 239.672 288.827 240.497 289.828 240.673C292.772 241.262 291.889 235.492 291.653 234.079C291.477 232.961 291.3 231.254 290.24 230.606C289.357 230.076 288.415 230.606 287.885 231.43C286.413 233.903 287.238 237.553 288.592 239.79C289.004 240.791 290.535 239.908 289.946 238.966Z" fill="#161616"/>
<path d="M317.146 235.846C316.262 234.433 315.85 232.902 315.968 231.254C315.968 230.9 316.204 229.37 316.498 229.311C316.675 229.311 316.969 231.371 317.028 231.607C317.146 232.372 317.204 233.196 317.204 233.962C317.204 234.197 317.146 236.14 317.146 234.963C317.087 233.255 317.204 231.548 317.263 229.841C316.675 229.9 316.086 230.017 315.556 230.076C315.85 231.901 316.027 233.726 316.027 235.61C316.616 235.61 317.204 235.61 317.793 235.61C317.793 235.375 317.793 235.139 317.793 234.904C317.793 233.785 316.027 233.785 316.027 234.904C316.027 235.139 316.027 235.375 316.027 235.61C316.027 236.729 317.793 236.729 317.793 235.61C317.793 233.609 317.617 231.607 317.263 229.605C317.087 228.604 315.556 228.899 315.556 229.841C315.497 231.725 315.262 233.785 315.497 235.669C315.615 236.552 316.027 237.376 317.028 237.553C319.971 238.142 319.088 232.372 318.853 230.959C318.676 229.841 318.5 228.133 317.44 227.486C316.557 226.956 315.615 227.486 315.085 228.31C313.613 230.783 314.437 234.433 315.791 236.67C316.204 237.73 317.734 236.847 317.146 235.846Z" fill="#161616"/>
<path d="M281.233 244.382C282.352 244.382 282.352 242.616 281.233 242.616C280.114 242.616 280.114 244.382 281.233 244.382Z" fill="#161616"/>
<path d="M288.18 245.677C288.239 245.677 288.298 245.677 288.415 245.677C288.886 245.677 289.299 245.265 289.299 244.794C289.299 244.323 288.886 243.911 288.415 243.911C288.357 243.911 288.298 243.911 288.18 243.911C287.709 243.911 287.297 244.323 287.297 244.794C287.297 245.265 287.65 245.677 288.18 245.677Z" fill="#161616"/>
<path d="M284.058 251.094C285.177 251.094 285.177 249.328 284.058 249.328C282.94 249.328 282.881 251.094 284.058 251.094Z" fill="#161616"/>
<path d="M317.498 243.499C317.557 243.499 317.616 243.499 317.734 243.499C318.205 243.499 318.617 243.087 318.617 242.616C318.617 242.145 318.205 241.733 317.734 241.733C317.675 241.733 317.616 241.733 317.498 241.733C317.027 241.733 316.615 242.145 316.615 242.616C316.615 243.087 316.968 243.499 317.498 243.499Z" fill="#161616"/>
<path d="M323.975 239.143C325.093 239.143 325.093 237.376 323.975 237.376C322.856 237.376 322.856 239.143 323.975 239.143Z" fill="#161616"/>
<path d="M323.092 243.911C323.15 243.911 323.209 243.911 323.327 243.911C323.798 243.911 324.21 243.499 324.21 243.028C324.21 242.557 323.798 242.145 323.327 242.145C323.268 242.145 323.209 242.145 323.092 242.145C322.621 242.145 322.208 242.557 322.208 243.028C322.267 243.499 322.621 243.911 323.092 243.911Z" fill="#161616"/>
<path d="M295.068 268.108C294.126 266.754 292.595 264.811 293.243 263.045C294.008 261.044 296.422 261.338 298.011 261.573C299.954 261.868 301.544 262.221 303.428 261.632C304.959 261.161 306.313 260.161 307.726 259.395C311.081 257.511 315.026 257.335 316.086 261.75C319.088 273.819 297.776 277.234 294.479 266.637C294.126 265.577 292.419 265.989 292.772 267.108C296.834 280.118 322.032 275.291 317.616 260.867C316.851 258.453 315.026 256.393 312.435 256.098C308.197 255.686 305.43 259.925 301.367 260.219C298.365 260.455 294.715 258.159 292.301 260.985C290.122 263.516 291.889 266.754 293.478 268.991C294.185 269.933 295.715 269.05 295.068 268.108Z" fill="#161616"/>
<path d="M291.653 264.752C292.949 268.344 299.425 267.225 302.251 266.813C307.667 265.989 312.612 263.634 316.792 260.16C317.675 259.454 316.439 258.159 315.556 258.924C312.495 261.514 308.962 263.398 305.077 264.458C303.369 264.929 294.362 266.931 293.42 264.34C292.949 263.222 291.241 263.693 291.653 264.752Z" fill="#161616"/>
<path d="M302.133 290.598C309.021 292.364 318.205 288.007 322.091 282.297C322.738 281.355 321.208 280.472 320.56 281.414C317.145 286.418 308.609 290.421 302.604 288.89C301.485 288.596 301.014 290.303 302.133 290.598Z" fill="#161616"/>
<path d="M302.78 291.128C308.903 294.954 318.97 289.538 321.914 283.709C322.444 282.709 320.913 281.826 320.383 282.826C317.911 287.772 308.903 292.894 303.663 289.656C302.662 289.008 301.779 290.539 302.78 291.128Z" fill="#161616"/>
<path opacity="0.2" d="M327.213 228.722C327.625 230.841 328.155 234.197 328.508 238.259C329.332 249.092 330.745 267.225 319.795 279.294C317.44 281.884 312.435 286.476 303.192 289.067C306.136 288.949 309.727 288.596 313.613 287.595C315.556 287.124 317.322 286.535 318.912 285.888C319.147 291.127 319.324 296.367 319.559 301.607C321.561 300.312 323.504 299.075 325.505 297.78C322.797 291.775 322.797 287.124 323.15 284.18C323.68 280.059 325.211 276.704 326.742 273.348C328.096 270.404 329.509 268.049 330.627 266.401C330.745 267.637 331.039 268.932 331.864 270.169C335.455 275.526 346.7 276.056 353.764 271.464C360.299 267.225 363.478 258.629 361.83 249.799C362.949 250.74 364.126 251.859 365.245 253.213C366.128 254.273 368.424 257.334 371.603 268.108C372.604 271.464 373.075 273.171 373.369 274.878C373.722 277.233 374.37 281.708 373.134 286.771C371.014 295.484 364.715 300.488 362.831 301.901C361.477 302.902 357.356 305.905 351.174 307.318C348.23 307.965 339.399 310.085 331.098 305.257C327.978 303.432 326.271 302.078 325.329 300.429C324.328 298.604 324.21 296.897 324.092 295.602C323.562 287.536 323.327 283.474 323.857 280.707C325.446 272.7 329.038 271.876 331.039 262.751C331.746 259.454 331.922 256.687 331.981 254.92C332.747 255.038 333.924 255.156 335.337 254.803C338.281 254.037 339.753 251.624 340.282 250.74C342.402 247.385 343.344 241.38 340.047 238.613C339.576 238.201 337.928 236.964 334.748 237.2C332.335 234.374 329.803 231.548 327.213 228.722Z" fill="#3F3F3F"/>
<path opacity="0.13" d="M299.307 247.797C302.309 248.68 305.371 249.622 308.373 250.505C307.608 251.212 306.842 251.859 306.018 252.566C305.253 253.213 304.546 253.743 303.781 254.332C302.839 253.625 301.485 252.389 300.425 250.505C299.836 249.504 299.483 248.562 299.307 247.797Z" fill="#3F3F3F"/>
<path opacity="0.16" d="M252.09 255.156C245.673 277.822 250.442 296.132 260.038 300.135C267.574 303.255 281.174 298.84 283.705 291.127C284.059 290.127 284.412 288.36 283.058 282.944C281.88 278.175 279.466 270.993 274.05 262.809C273.108 262.221 271.872 261.279 270.694 259.866C268.634 257.334 268.045 254.626 267.868 253.331C269.576 255.097 272.048 257.334 273.638 256.628C275.169 255.921 276.111 253.802 275.581 251.682C276.111 254.391 276.935 258.1 278.466 262.397C280.467 268.108 282.469 273.642 287.12 278.882C289.239 281.296 293.419 285.24 300.484 288.066C301.662 289.538 303.84 292.717 304.546 297.368C304.664 298.074 305.076 301.312 304.017 305.375C303.781 306.317 302.368 311.439 297.717 315.854C292.301 321.035 285.825 321.977 283.705 322.271C267.751 324.391 255.387 310.438 253.209 308.024C251.031 305.551 247.439 301.43 245.379 295.072C242.082 284.946 244.613 275.82 246.439 269.168C248.146 262.927 250.442 258.217 252.09 255.156Z" fill="#3F3F3F"/>
</svg>
