<svg width="630" height="543" viewBox="0 0 630 543" fill="none" xmlns="http://www.w3.org/2000/svg">
<path d="M83.0753 542.087H2.62804C1.16802 542.087 0 540.919 0 539.46V538C0 536.54 1.16802 535.372 2.62804 535.372H83.0753C84.5353 535.372 85.7034 536.54 85.7034 538V539.46C85.5574 540.919 84.3893 542.087 83.0753 542.087Z" fill="#ADBEC4"/>
<path d="M522.008 275.798H373.432C369.028 275.798 365.44 272.208 365.44 267.802V29.2117C365.44 24.8055 369.028 21.2152 373.432 21.2152H522.008C526.411 21.2152 529.999 24.8055 529.999 29.2117V267.802C529.999 272.208 526.411 275.798 522.008 275.798Z" fill="#A16CEB"/>
<path d="M409.477 192.569H397.083V204.972H409.477V192.569Z" stroke="#AF90E0" stroke-width="0.9814" stroke-miterlimit="10"/>
<path d="M422.688 198.771H499.177" stroke="#AF90E0" stroke-width="0.9814" stroke-miterlimit="10"/>
<path d="M409.478 214.111H397.083V226.514H409.478V214.111Z" stroke="#AF90E0" stroke-width="0.9814" stroke-miterlimit="10"/>
<path d="M422.688 220.312H499.177" stroke="#AF90E0" stroke-width="0.9814" stroke-miterlimit="10"/>
<path d="M409.478 235.489H397.083V247.892H409.478V235.489Z" stroke="#AF90E0" stroke-width="0.9814" stroke-miterlimit="10"/>
<path d="M422.688 241.69H499.177" stroke="#AF90E0" stroke-width="0.9814" stroke-miterlimit="10"/>
<path d="M420.078 169.559H475.366" stroke="#AF90E0" stroke-width="0.9814" stroke-miterlimit="10"/>
<path d="M386.481 34.9236C386.481 37.0451 384.687 38.8403 382.567 38.8403C380.447 38.8403 378.653 37.0451 378.653 34.9236C378.653 32.8021 380.447 31.007 382.567 31.007C384.687 31.007 386.481 32.8021 386.481 34.9236Z" stroke="#AF90E0" stroke-width="0.9814" stroke-miterlimit="10"/>
<path d="M401.159 34.9236C401.159 37.0451 399.365 38.8403 397.245 38.8403C395.125 38.8403 393.331 37.0451 393.331 34.9236C393.331 32.8021 395.125 31.007 397.245 31.007C399.365 31.007 401.159 32.8021 401.159 34.9236Z" stroke="#AF90E0" stroke-width="0.9814" stroke-miterlimit="10"/>
<path d="M477.323 152.423H420.894V119.621C420.894 111.462 427.581 104.771 435.735 104.771H462.319C470.474 104.771 477.16 111.462 477.16 119.621V152.423H477.323Z" fill="#651882"/>
<path d="M454.508 90.8189C461.755 87.8337 465.21 79.5358 462.227 72.2849C459.244 65.0341 450.951 61.5761 443.705 64.5613C436.459 67.5465 433.003 75.8444 435.986 83.0952C438.969 90.3461 447.262 93.8041 454.508 90.8189Z" fill="#1F2B6B"/>
<path d="M460.363 82.5764C460.037 82.5764 459.711 82.5764 459.385 82.7395V79.1493C459.385 78.1701 459.221 77.1909 458.895 76.2118C450.088 79.1493 442.423 77.0277 439.487 76.0486C439.161 77.0277 438.998 78.0069 438.998 79.1493V82.25C438.672 82.0868 438.183 82.0868 437.856 82.0868C436.226 82.0868 434.758 83.3923 434.758 85.1875C434.758 86.8194 436.062 88.2881 437.856 88.2881C438.346 88.2881 438.672 88.125 438.998 88.125V91.2256C438.998 95.3055 441.444 98.8958 445.033 100.528V104.934H440.955C440.955 105.26 440.955 105.587 440.955 105.75C440.955 110.319 444.706 114.073 449.273 114.073C453.839 114.073 457.591 110.319 457.591 105.75C457.591 105.424 457.591 105.097 457.591 104.934H453.513V100.528C457.101 98.8958 459.548 95.3055 459.548 91.2256V88.6145C459.874 88.7777 460.2 88.7777 460.526 88.7777C462.157 88.7777 463.625 87.4722 463.625 85.677C463.462 83.8819 461.994 82.5764 460.363 82.5764Z" fill="#EE6C8A"/>
<path d="M430.516 152.424V122.722" stroke="#BCD5FC" stroke-width="0.368" stroke-miterlimit="10"/>
<path d="M467.049 152.424V122.722" stroke="#BCD5FC" stroke-width="0.368" stroke-miterlimit="10"/>
<path d="M495.083 110.894C501.174 84.7367 484.919 58.5914 458.778 52.4972C432.637 46.4029 406.508 62.6676 400.418 88.8252C394.327 114.983 410.582 141.128 436.723 147.222C462.864 153.317 488.993 137.052 495.083 110.894Z" stroke="#AF90E0" stroke-width="0.9814" stroke-miterlimit="10"/>
<path opacity="0.4" d="M385.174 259.805V21.2152H373.432C369.028 21.2152 365.44 24.8055 365.44 29.2117V267.802H377.183C381.586 267.802 385.174 264.211 385.174 259.805Z" fill="#1F2B6B"/>
<path d="M283.568 275.798H134.991C130.588 275.798 127 272.208 127 267.802V29.2117C127 24.8055 130.588 21.2152 134.991 21.2152H283.568C287.971 21.2152 291.559 24.8055 291.559 29.2117V267.802C291.559 272.208 287.971 275.798 283.568 275.798Z" fill="#93BBFA"/>
<path d="M171.035 192.569H158.64V204.972H171.035V192.569Z" stroke="#BCD5FC" stroke-width="0.9814" stroke-miterlimit="10"/>
<path d="M184.243 198.771H260.733" stroke="#BCD5FC" stroke-width="0.9814" stroke-miterlimit="10"/>
<path d="M171.034 214.111H158.639V226.513H171.034V214.111Z" stroke="#BCD5FC" stroke-width="0.9814" stroke-miterlimit="10"/>
<path d="M184.243 220.312H260.733" stroke="#BCD5FC" stroke-width="0.9814" stroke-miterlimit="10"/>
<path d="M171.034 235.489H158.639V247.892H171.034V235.489Z" stroke="#BCD5FC" stroke-width="0.9814" stroke-miterlimit="10"/>
<path d="M184.243 241.69H260.733" stroke="#BCD5FC" stroke-width="0.9814" stroke-miterlimit="10"/>
<path d="M181.637 169.559H236.925" stroke="#BCD5FC" stroke-width="0.9814" stroke-miterlimit="10"/>
<path d="M148.038 34.9236C148.038 37.0451 146.244 38.8403 144.123 38.8403C142.003 38.8403 140.209 37.0451 140.209 34.9236C140.209 32.8021 142.003 31.007 144.123 31.007C146.244 31.007 148.038 32.8021 148.038 34.9236Z" stroke="#BCD5FC" stroke-width="0.9814" stroke-miterlimit="10"/>
<path d="M162.554 34.9236C162.554 37.0451 160.76 38.8403 158.64 38.8403C156.519 38.8403 154.725 37.0451 154.725 34.9236C154.725 32.8021 156.519 31.007 158.64 31.007C160.923 31.007 162.554 32.8021 162.554 34.9236Z" stroke="#BCD5FC" stroke-width="0.9814" stroke-miterlimit="10"/>
<path d="M223.875 111.298H197.454V80.4547C197.454 73.9269 202.836 68.5415 209.36 68.5415H212.133C218.656 68.5415 224.038 73.9269 224.038 80.4547V111.298H223.875Z" fill="#1F2B6B"/>
<path d="M238.88 152.423H182.45V119.621C182.45 111.462 189.137 104.771 197.292 104.771H223.876C232.03 104.771 238.717 111.462 238.717 119.621V152.423H238.88Z" fill="#A16CEB"/>
<path d="M220.289 104.771H201.044V152.423H220.289V104.771Z" fill="#ECB8B8"/>
<path d="M220.289 104.771H201.044V120.111H220.289V104.771Z" fill="#EE6C8A"/>
<path d="M214.741 104.771V93.5103H206.586V104.771H203.977L210.664 112.604L217.35 104.771H214.741Z" fill="#EE6C8A"/>
<path d="M213.274 78.4963C209.849 83.3922 203.162 83.7186 200.39 83.7186V90.8991C200.39 96.4477 204.956 101.017 210.501 101.017C216.046 101.017 220.613 96.4477 220.613 90.8991V84.0449C215.72 83.7186 213.274 78.4963 213.274 78.4963Z" fill="#EE6C8A"/>
<path d="M192.727 152.423V124.354" stroke="#1F2B6B" stroke-width="0.368" stroke-miterlimit="10"/>
<path d="M227.791 152.423V124.354" stroke="#1F2B6B" stroke-width="0.368" stroke-miterlimit="10"/>
<path d="M243.562 134.313C262.542 115.321 262.542 84.5296 243.562 65.5378C224.582 46.5461 193.81 46.5461 174.83 65.5378C155.85 84.5296 155.85 115.321 174.83 134.313C193.81 153.305 224.582 153.305 243.562 134.313Z" stroke="#BCD5FC" stroke-width="0.9814" stroke-miterlimit="10"/>
<path opacity="0.4" d="M283.567 21.2152H207.077V259.805C207.077 264.211 210.665 267.802 215.068 267.802H291.558V29.2117C291.558 24.8055 287.97 21.2152 283.567 21.2152Z" fill="#1F2B6B"/>
<path d="M370.005 262.743H221.429C217.025 262.743 213.437 259.152 213.437 254.746V16.1562C213.437 11.7499 217.025 8.15967 221.429 8.15967H370.005C374.408 8.15967 377.996 11.7499 377.996 16.1562V254.746C377.996 259.152 374.408 262.743 370.005 262.743Z" fill="#ECB8B8"/>
<path d="M257.474 179.677H245.079V192.079H257.474V179.677Z" stroke="#FBE0B9" stroke-width="0.9814" stroke-miterlimit="10"/>
<path d="M270.683 185.878H347.01" stroke="#FBE0B9" stroke-width="0.9814" stroke-miterlimit="10"/>
<path d="M257.474 201.055H245.079V213.458H257.474V201.055Z" stroke="#FBE0B9" stroke-width="0.9814" stroke-miterlimit="10"/>
<path d="M270.683 207.256H347.01" stroke="#FBE0B9" stroke-width="0.9814" stroke-miterlimit="10"/>
<path d="M257.474 222.433H245.079V234.836H257.474V222.433Z" stroke="#FBE0B9" stroke-width="0.9814" stroke-miterlimit="10"/>
<path d="M270.683 228.635H347.01" stroke="#FBE0B9" stroke-width="0.9814" stroke-miterlimit="10"/>
<path d="M268.074 156.666H323.362" stroke="#FBE0B9" stroke-width="0.9814" stroke-miterlimit="10"/>
<path d="M234.477 21.8678C234.477 23.9894 232.683 25.7845 230.563 25.7845C228.443 25.7845 226.649 23.9894 226.649 21.8678C226.649 19.7463 228.443 17.9512 230.563 17.9512C232.683 17.9512 234.477 19.7463 234.477 21.8678Z" stroke="#FBE0B9" stroke-width="0.9814" stroke-miterlimit="10"/>
<path d="M248.993 21.8678C248.993 23.9894 247.199 25.7845 245.079 25.7845C242.959 25.7845 241.165 23.9894 241.165 21.8678C241.165 19.7463 242.959 17.9512 245.079 17.9512C247.199 17.9512 248.993 19.7463 248.993 21.8678Z" stroke="#FBE0B9" stroke-width="0.9814" stroke-miterlimit="10"/>
<path d="M325.32 139.368H268.89V106.566C268.89 98.4058 275.577 91.7148 283.732 91.7148H310.316C318.47 91.7148 325.157 98.4058 325.157 106.566V139.368H325.32Z" fill="#93BBFA"/>
<path d="M302.324 101.833L297.105 100.364L291.886 101.833C290.255 102.323 288.625 101.017 288.625 99.385V92.3677C288.625 90.083 290.419 88.2878 292.702 88.2878H301.672C303.955 88.2878 305.749 90.083 305.749 92.3677V99.385C305.586 101.017 303.955 102.323 302.324 101.833Z" fill="#BCD5FC"/>
<path d="M301.183 91.7149V80.4545H293.029V91.7149C292.05 91.7149 291.398 92.8572 292.05 93.6732L297.106 99.5482L302.162 93.6732C302.814 92.8572 302.325 91.7149 301.183 91.7149Z" fill="#EE6C8A"/>
<path d="M288.787 72.1315C288.787 73.7634 287.483 75.2321 285.689 75.2321C284.058 75.2321 282.59 73.9266 282.59 72.1315C282.59 70.4995 283.895 69.0308 285.689 69.0308C287.483 69.0308 288.787 70.3363 288.787 72.1315Z" fill="#EE6C8A"/>
<path d="M308.194 75.5586C309.905 75.5586 311.292 74.1703 311.292 72.4579C311.292 70.7454 309.905 69.3572 308.194 69.3572C306.482 69.3572 305.095 70.7454 305.095 72.4579C305.095 74.1703 306.482 75.5586 308.194 75.5586Z" fill="#EE6C8A"/>
<path d="M306.563 58.2601C306.726 56.465 306.4 54.5067 304.443 53.5275C300.365 51.2428 293.026 50.59 286.176 50.7532C279.979 50.7532 279 61.3608 285.361 64.1351C285.361 64.4615 285.361 64.9511 285.361 65.2775V68.7046C285.361 75.2323 290.743 80.4545 297.103 80.4545C303.627 80.4545 308.846 75.0691 308.846 68.7046L309.988 62.9928C309.988 60.3817 309.988 57.6074 306.563 58.2601Z" fill="#651882"/>
<path d="M287.483 62.9927C287.157 63.9718 286.994 64.951 286.994 66.0934V78.0065C286.994 83.5551 291.56 88.1246 297.106 88.1246C302.651 88.1246 307.217 83.5551 307.217 78.0065V66.0934C307.217 65.1142 307.054 64.135 306.728 63.1559C298.084 66.0934 290.419 63.9718 287.483 62.9927Z" fill="#EE6C8A"/>
<path d="M279.167 139.368V109.666" stroke="#1F2B6B" stroke-width="0.368" stroke-miterlimit="10"/>
<path d="M314.067 139.368V109.666" stroke="#1F2B6B" stroke-width="0.368" stroke-miterlimit="10"/>
<path d="M287.808 72.6211C287.808 70.4996 289.602 68.7045 291.722 68.7045C293.842 68.7045 295.636 70.4996 295.636 72.6211C295.636 74.7427 293.842 76.5378 291.722 76.5378C289.602 76.5378 287.808 74.7427 287.808 72.6211Z" stroke="#BCD5FC" stroke-width="0.368" stroke-miterlimit="10"/>
<path d="M298.573 72.6211C298.573 70.4996 300.367 68.7045 302.487 68.7045C304.607 68.7045 306.401 70.4996 306.401 72.6211C306.401 74.7427 304.607 76.5378 302.487 76.5378C300.367 76.5378 298.573 74.7427 298.573 72.6211Z" stroke="#BCD5FC" stroke-width="0.368" stroke-miterlimit="10"/>
<path d="M295.799 72.6212H298.572" stroke="#BCD5FC" stroke-width="0.368" stroke-miterlimit="10"/>
<path d="M329.98 121.26C348.959 102.269 348.959 71.4769 329.98 52.4851C311 33.4934 280.227 33.4933 261.248 52.4851C242.268 71.4768 242.268 102.269 261.248 121.26C280.227 140.252 311 140.252 329.98 121.26Z" stroke="#FBE0B9" stroke-width="0.9814" stroke-miterlimit="10"/>
<path d="M377.344 48.3055C390.675 48.3055 401.482 37.4919 401.482 24.1527C401.482 10.8135 390.675 0 377.344 0C364.014 0 353.207 10.8135 353.207 24.1527C353.207 37.4919 364.014 48.3055 377.344 48.3055Z" fill="#EE6C8A"/>
<path d="M366.418 23.4999L375.225 31.1701L387.947 15.6666" stroke="#FBE0B9" stroke-width="1.9629" stroke-miterlimit="10"/>
<path d="M616.13 542.087H535.683C534.223 542.087 533.055 540.919 533.055 539.46V538C533.055 536.54 534.223 535.372 535.683 535.372H616.13C617.59 535.372 618.758 536.54 618.758 538V539.46C618.758 540.919 617.59 542.087 616.13 542.087Z" fill="#ADBEC4"/>
<path d="M194.913 542.087H114.466C113.006 542.087 111.838 540.919 111.838 539.46V538C111.838 536.54 113.006 535.372 114.466 535.372H194.913C196.373 535.372 197.541 536.54 197.541 538V539.46C197.541 540.919 196.373 542.087 194.913 542.087Z" fill="#ADBEC4"/>
<path d="M346.755 542.087H216.667C215.207 542.087 214.039 540.919 214.039 539.46V538C214.039 536.54 215.207 535.372 216.667 535.372H346.755C348.215 535.372 349.383 536.54 349.383 538V539.46C349.237 540.919 348.069 542.087 346.755 542.087Z" fill="#ADBEC4"/>
<path d="M492.758 542.087H367.05C365.59 542.087 364.422 540.919 364.422 539.46V538C364.422 536.54 365.59 535.372 367.05 535.372H492.758C494.218 535.372 495.386 536.54 495.386 538V539.46C495.386 540.919 494.218 542.087 492.758 542.087Z" fill="#ADBEC4"/>
<path d="M38.6895 436.113C38.6895 436.113 60.5898 494.501 61.9038 513.039C61.9038 513.039 67.4519 517.418 76.7961 513.477C76.7961 513.477 77.0881 457.57 67.8899 440.346C58.6918 423.121 38.6895 436.113 38.6895 436.113Z" fill="#EBA493"/>
<path d="M33.8725 538.73H80.0092C81.9073 531.431 78.9872 525.3 78.9872 525.3C78.9872 525.3 81.0312 517.272 80.1552 514.645C79.4252 512.017 69.9351 508.806 67.307 511.579C65.555 513.477 65.409 515.958 65.555 517.272C64.241 509.974 60.8829 509.39 57.6709 512.163C54.3128 515.083 58.4009 513.623 57.8169 518.44C57.8169 518.732 57.6709 519.17 57.5249 519.462C57.2329 520.191 56.7949 520.775 56.2109 521.359C55.7728 521.797 55.0428 522.381 54.3128 522.673C54.0208 522.965 53.5828 523.111 53.1448 523.257C52.4148 523.549 51.5388 523.841 50.6628 524.133C49.3487 524.571 47.8887 524.862 46.2827 525.008C40.0046 525.592 37.3766 526.03 34.4565 529.388C31.5365 532.599 33.4345 535.226 33.4345 535.226L33.8725 538.73Z" fill="#CFD8DC"/>
<path d="M57.6714 519.462C57.3794 520.191 56.9414 520.775 56.3574 521.359C60.4455 519.754 62.7815 522.673 62.7815 522.673L63.9495 521.213C61.0295 517.564 57.9635 519.316 57.6714 519.462Z" fill="#ADBEC4"/>
<path d="M58.547 526.03L60.1531 525.008C59.2771 522.381 57.525 521.505 56.357 521.359C55.919 521.797 55.189 522.381 54.459 522.673C57.671 523.257 58.547 526.03 58.547 526.03Z" fill="#ADBEC4"/>
<path d="M54.1671 527.782L55.9192 526.906C55.4812 524.863 54.4591 523.841 53.4371 523.257C52.7071 523.549 51.8311 523.841 50.9551 524.133C53.5831 525.301 54.1671 527.782 54.1671 527.782Z" fill="#ADBEC4"/>
<path d="M132.863 527.636C134.177 526.906 135.345 525.446 136.367 523.695C136.367 523.695 137.243 518.294 136.367 512.455C135.491 506.762 137.973 502.091 146.003 500.34C153.887 498.588 158.559 502.383 156.807 518.294C157.975 524.863 158.267 532.453 155.493 538.73H131.257C131.257 538.73 127.461 530.555 132.863 527.636Z" fill="#CFD8DC"/>
<path d="M111.691 442.243C111.691 442.243 111.691 458.008 120.598 474.211C129.65 490.706 140.892 513.331 140.892 513.331C140.892 513.331 148.338 520.629 153.156 508.514C153.156 508.514 149.798 466.475 142.06 451.002C134.322 435.821 111.691 442.243 111.691 442.243Z" fill="#EBA493"/>
<path d="M151.405 514.937C151.405 514.937 153.595 510.412 151.697 508.368C149.653 506.47 147.317 510.12 143.959 509.244C140.601 508.368 139.725 506.032 138.849 509.244C137.827 512.601 138.849 523.111 151.405 514.937Z" fill="#CFD8DC"/>
<path d="M138.557 514.791C138.557 514.791 147.755 518.002 152.427 514.791L151.259 518.732C151.259 518.732 141.331 519.754 139.871 517.272L138.557 514.791Z" fill="#ADBEC4"/>
<path d="M138.556 519.754C138.556 519.754 147.024 518.586 150.966 520.629V522.527C150.966 522.527 140.016 519.9 136.512 522.527L138.556 519.754Z" fill="#ADBEC4"/>
<path d="M151.404 526.614C151.404 526.614 149.798 522.673 144.688 522.381C139.578 522.089 136.074 524.863 136.074 524.863C136.074 524.863 144.25 521.651 151.404 526.614Z" fill="#ADBEC4"/>
<path d="M149.068 438.156C149.068 438.156 148.192 440.2 146.294 442.681C146.002 442.973 145.856 443.265 145.564 443.557C140.454 449.834 129.358 458.154 109.064 449.98C109.064 449.98 108.626 448.812 107.896 446.915C107.75 446.623 107.604 446.185 107.458 445.893C106.144 442.535 104.538 437.864 103.808 433.631C98.5515 404.145 96.5075 382.834 93.7335 370.718C85.9953 389.548 68.4751 426.041 67.745 427.5C66.723 429.398 70.6651 441.952 70.6651 441.952C56.0649 446.769 35.1865 440.638 35.1865 440.638C35.1865 440.638 28.9084 422.1 27.8864 408.816C27.1564 398.744 52.7068 341.962 64.679 315.979C64.971 315.249 65.263 314.666 65.555 313.936C68.7671 307.075 70.6651 302.842 70.6651 302.842L91.1054 309.703L140.746 332.036C140.746 332.036 141.622 333.058 142.498 343.276C142.498 343.568 142.498 343.86 142.644 344.152C143.082 350.282 143.52 359.332 143.812 373.054V373.929C143.812 376.849 143.958 380.06 143.958 383.563V384.439C143.958 392.322 143.958 401.372 143.958 411.736C143.958 412.028 143.958 412.32 143.958 412.612C143.958 415.823 143.958 419.18 143.812 422.683C143.812 425.895 146.294 431.88 147.9 435.383C148.046 435.675 148.192 435.967 148.192 436.259C148.776 437.426 149.068 438.156 149.068 438.156Z" fill="#0C476B"/>
<path d="M146.441 442.681C146.149 442.973 146.003 443.265 145.711 443.557C143.375 439.762 139.871 433.193 139.141 428.668C137.973 422.245 137.389 396.847 139.141 370.134C140.893 344.297 135.199 318.899 135.053 318.607L136.075 318.315C136.075 318.607 141.915 344.151 140.163 370.134C138.411 396.701 138.995 421.954 140.163 428.376C140.893 432.609 144.105 438.886 146.441 442.681Z" fill="#0E3944"/>
<path d="M138.702 340.94C122.787 335.247 118.845 322.256 118.699 322.11L119.721 321.818C119.721 321.964 123.663 334.371 138.994 339.918L138.702 340.94Z" fill="#0E3944"/>
<path d="M80.1559 311.892C79.8639 312.184 79.2799 312.184 77.8199 312.184C74.7538 312.33 69.2058 312.768 64.6797 316.271C64.9717 315.541 65.2637 314.957 65.5557 314.228C69.9358 311.6 74.8998 311.308 77.6739 311.016C78.4039 311.016 79.2799 310.87 79.4259 310.87L80.1559 311.892Z" fill="#0E3944"/>
<path d="M93.2951 371.156C81.7609 348.093 96.6531 317.293 96.7991 317.001L97.8211 317.439C97.6751 317.731 82.9289 348.239 94.3171 370.718L93.2951 371.156Z" fill="#0E3944"/>
<path d="M91.1055 348.677C90.0835 348.677 89.3535 348.385 89.3535 348.385L89.6455 347.363C89.6455 347.363 91.8355 348.093 93.7336 346.779C95.3396 345.757 96.5076 343.568 96.7996 340.356C97.9677 330.576 105.414 318.607 105.706 318.169L106.582 318.753C106.436 318.899 98.9897 331.014 97.8216 340.502C97.3836 344.006 96.2156 346.487 94.1716 347.801C93.1496 348.531 91.9816 348.677 91.1055 348.677Z" fill="#0E3944"/>
<path d="M35.4782 95.2725C35.4782 95.2725 37.2302 91.1854 44.9683 91.1854C50.8084 91.1854 53.1445 94.3967 53.1445 94.3967C56.6485 104.615 60.4446 144.027 61.7586 145.34C62.4886 146.07 106.289 179.497 106.289 179.497C82.6369 179.935 81.7609 219.201 81.7609 219.201C81.0309 209.567 48.0344 185.482 39.7123 169.717C31.8281 155.12 28.0321 119.212 35.4782 95.2725Z" fill="#F2A668"/>
<path d="M177.247 235.55C173.597 275.108 159.289 313.498 154.325 329.409C153.303 332.912 152.573 334.809 152.573 334.809C152.573 334.809 74.8993 324.737 65.7012 303.718C65.7012 303.718 65.8472 303.134 66.1392 302.112C68.4752 292.624 80.0094 253.942 81.3234 222.266C82.7834 187.088 94.6096 174.68 101.764 176.286C101.764 176.286 117.824 188.985 128.19 188.985C138.41 188.985 163.085 177.746 163.085 177.746C163.085 177.746 181.627 187.38 177.247 235.55Z" fill="#FFB878"/>
<path d="M128.19 174.388C130.77 174.388 132.862 172.297 132.862 169.717C132.862 167.137 130.77 165.046 128.19 165.046C125.609 165.046 123.518 167.137 123.518 169.717C123.518 172.297 125.609 174.388 128.19 174.388Z" fill="#F24052"/>
<path d="M224.259 98.0461C224.259 98.0461 222.507 93.9589 214.769 93.9589C208.929 93.9589 206.593 97.1702 206.593 97.1702C203.089 107.388 199.293 146.8 197.979 148.114C197.249 148.844 153.448 182.271 153.448 182.271C152.426 209.713 177.976 221.975 177.976 221.975C178.706 212.34 211.703 188.255 220.025 172.491C227.909 157.894 231.705 121.985 224.259 98.0461Z" fill="#F2A668"/>
<path d="M118.262 188.401C118.262 188.401 114.028 190.153 113.152 191.905C112.276 193.802 115.488 201.393 121.766 201.977C128.044 202.56 140.016 195.262 139.432 192.926C139.14 190.591 130.234 187.526 118.262 188.401Z" fill="#F2A668"/>
<path d="M117.678 179.497C117.678 179.497 120.014 189.131 116.51 192.926C116.51 192.926 122.35 202.268 135.49 192.78C135.49 192.78 133.008 186.504 135.49 182.271L117.678 179.497Z" fill="#EF6E4B"/>
<path d="M154.908 153.223C154.908 150.887 153.302 148.99 151.112 148.552C151.988 147.676 152.426 146.508 152.426 145.194C152.426 142.567 150.382 140.523 147.753 140.523C148.191 139.794 148.483 138.918 148.483 137.896C148.483 135.268 146.293 133.079 143.665 133.079C142.497 133.079 141.475 133.517 140.745 134.101C140.745 131.473 138.555 129.43 135.927 129.43C134.321 129.43 132.861 130.305 131.985 131.619C131.401 129.722 129.649 128.408 127.459 128.408C125.707 128.408 124.101 129.43 123.371 130.743C122.495 129.868 121.327 129.43 120.159 129.43C117.677 129.43 115.633 131.327 115.487 133.809C114.757 133.371 113.881 133.079 113.005 133.079C110.377 133.079 108.187 135.268 108.187 137.896C108.187 138.334 108.187 138.626 108.333 139.064H108.187C105.559 139.064 103.369 141.253 103.369 143.881C103.369 145.194 103.953 146.362 104.683 147.238C102.493 147.676 100.887 149.573 100.887 151.909C100.887 153.952 102.201 155.704 103.953 156.288C102.785 157.164 101.909 158.478 101.909 160.083C101.909 162.565 103.661 164.462 105.997 164.754C107.311 169.133 110.231 170.739 110.231 170.739C112.421 172.783 129.941 174.68 138.263 173.95C139.139 174.826 140.307 175.41 141.621 175.41C144.249 175.41 146.439 173.221 146.439 170.593C148.775 170.301 150.674 168.404 150.674 165.922C150.674 165.484 150.528 165.046 150.528 164.608C152.28 163.878 153.448 162.273 153.448 160.229C153.448 159.061 153.01 158.04 152.28 157.164C154.178 156.434 154.908 154.974 154.908 153.223Z" fill="#F24052"/>
<path d="M143.519 162.127C143.519 162.127 148.483 157.164 149.067 163.003C149.797 169.717 143.665 172.345 142.497 170.301C141.329 168.112 143.519 162.127 143.519 162.127Z" fill="#EBA493"/>
<path d="M108.77 162.565C108.77 162.565 103.806 157.602 103.222 163.44C102.492 170.155 108.624 172.783 109.792 170.739C110.96 168.549 108.77 162.565 108.77 162.565Z" fill="#EBA493"/>
<path d="M126.729 186.504C137.679 186.504 143.957 179.351 143.957 157.748C143.957 146.654 138.263 139.794 125.999 139.794C113.735 139.794 108.479 146.654 108.479 157.748C108.479 180.957 115.341 186.504 126.729 186.504Z" fill="#EBA493"/>
<path d="M112.129 165.484C111.983 166.652 112.859 167.674 114.319 167.966C115.633 168.258 116.947 167.528 117.239 166.36C117.385 165.192 116.509 164.17 115.049 163.878C113.589 163.586 112.275 164.316 112.129 165.484Z" fill="#DB614D"/>
<path d="M134.76 166.068C134.76 167.236 136.074 167.966 137.388 167.966C138.848 167.82 139.87 166.944 139.724 165.776C139.578 164.608 138.41 163.879 137.096 163.879C135.636 163.879 134.614 164.9 134.76 166.068Z" fill="#DB614D"/>
<path d="M116.948 153.806C117.094 153.806 117.24 153.806 117.386 153.661C119.138 152.347 121.766 152.785 121.766 152.785C122.058 152.785 122.35 152.639 122.35 152.347C122.35 152.055 122.204 151.763 121.912 151.763C121.766 151.763 118.7 151.179 116.656 152.785C116.364 152.931 116.364 153.369 116.51 153.515C116.656 153.806 116.802 153.806 116.948 153.806Z" fill="#F24052"/>
<path d="M137.972 153.952C138.118 153.952 138.264 153.806 138.264 153.806C138.41 153.515 138.41 153.223 138.118 153.077C136.074 151.325 133.008 151.763 132.862 151.909C132.57 151.909 132.424 152.201 132.424 152.493C132.424 152.785 132.716 152.931 133.008 152.931C133.008 152.931 135.636 152.493 137.388 153.952C137.68 153.952 137.826 153.952 137.972 153.952Z" fill="#F24052"/>
<path d="M118.115 160.083C118.115 161.397 118.699 162.565 119.429 162.565C120.159 162.565 120.743 161.397 120.743 160.083C120.743 158.769 120.159 157.602 119.429 157.602C118.699 157.602 118.115 158.769 118.115 160.083Z" fill="#1A4850"/>
<path d="M132.715 160.083C132.715 161.397 133.299 162.565 134.029 162.565C134.759 162.565 135.343 161.397 135.343 160.083C135.343 158.769 134.759 157.602 134.029 157.602C133.299 157.602 132.715 158.769 132.715 160.083Z" fill="#1A4850"/>
<path d="M138.994 145.048C138.994 145.048 131.402 144.465 114.465 143.297C114.465 143.297 108.333 149.72 108.771 165.484C108.771 165.484 98.989 137.02 127.605 137.02C156.368 137.02 143.374 164.754 143.374 164.754C143.374 164.754 144.396 150.449 138.994 145.048Z" fill="#F24052"/>
<path d="M126 167.382L126.876 166.506L124.686 164.316C126.73 161.397 126.73 154.39 126.73 154.098H125.562C125.562 154.244 125.562 161.543 123.372 163.878L122.934 164.316L126 167.382Z" fill="#DB614D"/>
<path d="M133.299 171.031C133.299 171.031 122.495 171.469 116.947 170.009C116.947 170.009 115.925 177.892 124.393 178.329C133.299 178.767 133.299 171.031 133.299 171.031Z" fill="#1A4850"/>
<path d="M45.6996 90.1637C45.6996 90.1637 37.5234 90.6016 37.5234 93.0831C37.5234 95.7106 37.5234 98.7759 44.3855 98.484C51.2477 98.192 51.2477 95.4186 51.3937 92.9371C51.5397 90.3097 47.8896 89.8717 45.6996 90.1637Z" fill="#FFB878"/>
<path d="M216.813 91.6234C216.813 91.6234 208.637 91.6234 208.491 94.2509C208.345 96.8783 208.199 99.9437 215.061 99.9437C221.924 99.9437 222.07 97.3162 222.362 94.6888C222.654 92.2073 219.15 91.4774 216.813 91.6234Z" fill="#FFB878"/>
<path d="M32.8508 73.815C34.0189 75.1288 35.9169 80.3837 35.9169 80.3837C36.7929 84.7628 37.2309 87.0983 38.6909 89.1419C40.151 91.1855 39.4209 94.6888 39.4209 94.6888C39.4209 94.6888 45.261 97.7541 50.2251 93.9589C50.2251 93.9589 49.6411 90.4556 50.2251 89.4338C51.2471 87.3902 54.4592 86.3685 55.6272 82.4273C56.7952 78.4861 60.1533 73.961 60.1533 73.961C60.1533 73.961 59.1313 71.9174 57.3792 73.0852C55.6272 74.3989 54.4592 77.6103 53.5832 77.9022C53.4372 77.9022 53.1452 78.0482 52.9992 78.0482C52.2691 78.1941 51.5391 78.0482 51.1011 77.6102C51.1011 77.6102 50.9551 77.6103 50.9551 77.4643C49.3491 75.5667 48.9111 70.1658 49.0571 67.6843C49.2031 64.327 49.0571 59.5099 47.0131 60.3857C44.969 61.1156 46.8671 63.0132 45.261 70.6037H44.385C44.239 71.1876 42.779 66.0786 42.487 61.2615C42.195 57.9042 40.151 59.218 39.5669 60.2398C39.1289 61.2615 39.859 64.6189 40.005 66.9544C40.151 68.5601 40.297 70.1658 40.297 71.1876L39.4209 71.6255C36.2089 65.9326 37.2309 63.5971 35.3329 63.4511C33.4348 63.3052 34.1649 68.1222 35.1869 70.0198C35.6249 70.7497 36.0629 72.5013 36.3549 74.107C32.9968 70.1658 33.4348 68.2682 31.8288 68.4141C30.3688 68.7061 31.6828 72.5013 32.8508 73.815Z" fill="#EBA493"/>
<path d="M47.4518 82.7191C48.6198 79.6538 52.7079 78.1941 53.1459 78.0481C52.4159 78.1941 51.6859 78.0481 51.2479 77.6102C47.1598 79.3618 47.4518 82.7191 47.4518 82.7191Z" fill="#EF6E4B"/>
<path d="M227.179 74.8368C226.011 76.1505 224.113 81.4054 224.113 81.4054C223.237 85.7845 222.799 88.1201 221.339 90.1636C219.879 92.2072 220.609 95.7105 220.609 95.7105C220.609 95.7105 214.769 98.7759 209.805 94.9807C209.805 94.9807 210.389 91.4774 209.805 90.4556C208.783 88.412 205.571 87.3902 204.403 83.449C203.235 79.5078 199.877 74.9828 199.877 74.9828C199.877 74.9828 200.899 72.9392 202.651 74.1069C204.403 75.4207 205.571 78.632 206.447 78.9239C206.593 78.9239 206.885 79.0699 207.031 79.0699C207.761 79.2159 208.491 79.0699 208.929 78.632C208.929 78.632 209.075 78.632 209.075 78.486C210.681 76.5884 211.119 71.1875 210.973 68.706C210.827 65.3487 210.973 60.5317 213.017 61.4075C215.061 62.1373 213.163 64.035 214.769 71.6254L215.499 71.7714C215.645 72.3553 217.105 67.2463 217.397 62.4293C217.689 59.072 219.733 60.3857 220.317 61.4075C220.755 62.4293 220.025 65.7866 219.879 68.1222C219.733 69.7278 219.587 71.3335 219.587 72.3553L220.463 72.7932C223.675 67.1004 222.653 64.7648 224.551 64.6189C226.449 64.4729 225.719 69.2899 224.697 71.1875C224.259 71.9174 223.821 73.669 223.529 75.2747C226.887 71.3335 226.449 69.4359 228.055 69.5819C229.661 69.7278 228.347 73.523 227.179 74.8368Z" fill="#EBA493"/>
<path d="M212.579 83.741C211.411 80.6756 207.323 79.2159 206.885 79.0699C207.615 79.2159 208.345 79.0699 208.783 78.632C212.871 80.3836 212.579 83.741 212.579 83.741Z" fill="#EF6E4B"/>
<path d="M154.469 329.409C153.447 332.912 152.717 334.809 152.717 334.809C152.717 334.809 75.0438 324.737 65.8457 303.718C65.8457 303.718 65.9917 303.134 66.2837 302.112C71.1018 310.286 130.671 330.138 154.469 329.409Z" fill="#F2A668"/>
<path d="M438.445 538.73H476.259C478.887 523.695 474.653 508.66 474.653 508.66L457.425 505.74C455.819 515.228 453.921 519.024 451.293 520.921C449.395 522.381 447.059 522.819 444.285 523.695C441.073 524.862 439.321 526.906 438.445 529.096C436.693 533.621 438.445 538.73 438.445 538.73Z" fill="#0E3944"/>
<path d="M438.445 529.096C447.789 530.263 468.23 532.307 467.062 526.906C466.04 522.381 457.426 521.213 451.44 520.921C449.542 522.381 447.205 522.819 444.431 523.695C440.927 524.863 439.321 526.906 438.445 529.096Z" fill="#205260"/>
<path d="M565.03 538.73H602.844C602.844 538.73 604.012 535.226 603.428 531.431C602.99 528.366 601.384 525.154 597.004 523.695C593.792 522.527 591.164 522.089 589.12 520.191C586.93 518.148 585.178 514.207 583.864 505.74L566.636 508.66C566.636 508.66 562.402 523.695 565.03 538.73Z" fill="#0E3944"/>
<path d="M603.575 531.431C603.137 528.366 601.531 525.154 597.151 523.695C593.939 522.527 591.311 522.089 589.267 520.191C584.449 521.651 577.733 524.425 575.689 528.512C572.769 534.059 594.961 533.183 603.575 531.431Z" fill="#205260"/>
<path d="M586.638 508.222C586.638 508.222 583.718 517.564 564.884 511.141C564.884 511.141 550.867 406.043 548.677 403.853C546.487 401.518 524.295 332.912 524.295 332.912H517.287C517.287 332.912 495.094 401.518 492.904 403.853C490.714 406.189 476.844 511.141 476.844 511.141C458.01 517.564 455.09 508.222 455.09 508.222L464.142 394.949L482.976 278.173L520.791 282.406L558.606 278.173L563.57 308.681L563.716 309.848L577.44 394.949L586.638 508.222Z" fill="#8B383E"/>
<path d="M563.862 309.994C550.868 306.637 546.926 294.959 546.926 294.814L547.948 294.522C547.948 294.668 551.598 305.469 563.716 308.827L563.862 309.994Z" fill="#662C33"/>
<path d="M523.565 322.548C522.543 323.57 521.229 324.153 519.769 324.153C519.769 326.927 519.769 329.992 519.623 332.912H518.455C519.039 320.65 517.725 308.097 517.725 307.951L518.747 307.805C518.747 307.951 519.477 314.519 519.623 322.986C520.937 322.986 521.813 322.548 522.689 321.818C526.339 318.023 524.149 306.929 524.149 306.929L525.171 306.783C525.463 307.075 527.507 318.315 523.565 322.548Z" fill="#662C33"/>
<path d="M625.329 72.9391C623.577 73.2311 618.905 76.2964 618.905 76.2964C615.693 79.2158 613.795 80.9675 611.459 81.5514C609.123 82.2812 608.831 86.6603 608.831 86.6603C608.831 86.6603 599.633 90.6015 597.881 84.6167C597.881 84.6167 601.823 76.0045 601.969 74.8367C602.407 72.6472 600.363 69.8737 601.823 65.9326C603.283 61.9913 603.283 56.4444 603.283 56.4444C603.283 56.4444 605.327 55.4227 605.911 57.4662C606.495 59.5098 605.473 62.7212 606.057 63.597C606.203 63.743 606.349 63.889 606.495 64.0349C607.079 64.6188 607.663 64.9108 608.393 64.7648H608.539C610.875 64.1809 614.525 60.0937 615.985 58.0501C618.029 55.2767 620.949 51.6274 622.117 53.525C623.285 55.4227 620.657 55.7146 617.445 62.7212L618.029 63.3051C617.883 63.889 621.971 60.6776 625.183 57.0283C627.373 54.5468 628.395 56.8824 628.103 57.9041C627.811 59.0719 625.329 61.2615 623.723 63.0131C622.701 64.1809 621.533 65.4946 620.949 66.2245L621.387 67.1003C627.373 64.4729 627.957 61.9913 629.563 63.0131C631.169 64.0349 627.665 67.5382 625.767 68.414C624.891 68.852 623.577 69.8737 622.409 70.8955C627.373 69.8737 628.395 67.9761 629.417 69.1439C630.585 70.3117 627.081 72.5012 625.329 72.9391Z" fill="#EBA493"/>
<path d="M608.393 71.3334C609.415 68.122 606.933 64.6188 606.641 64.1809C607.225 64.7647 607.809 65.0567 608.539 64.9107C610.583 68.7059 608.393 71.3334 608.393 71.3334Z" fill="#EF6E4B"/>
<path d="M341.646 126.948C343.398 126.656 348.8 127.678 348.8 127.678C352.888 129.284 355.224 130.159 357.706 129.867C360.188 129.575 361.94 133.663 361.94 133.663C361.94 133.663 372.015 133.955 371.431 127.824C371.431 127.824 364.568 121.255 363.984 120.233C362.816 118.336 363.692 114.978 360.772 111.913C357.998 108.848 355.808 103.739 355.808 103.739C355.808 103.739 353.472 103.447 353.764 105.636C353.91 107.826 356.1 110.453 355.808 111.475C355.808 111.621 355.662 111.913 355.662 112.059C355.37 112.789 354.786 113.227 354.202 113.373H354.056C351.574 113.811 346.756 111.183 344.712 109.87C341.792 107.972 337.704 105.636 337.412 107.826C336.974 110.015 339.602 109.432 345.15 114.687L344.858 115.416C345.296 115.854 340.186 114.395 335.952 112.205C333.032 110.745 332.886 113.227 333.616 114.103C334.2 115.124 337.412 116.146 339.602 117.314C341.062 118.044 342.522 118.774 343.398 119.212V120.233C336.828 120.087 335.368 117.898 334.346 119.504C333.324 121.109 337.704 123.007 339.894 123.007C340.77 123.007 342.376 123.591 343.982 124.175C338.872 125.05 337.412 123.591 336.828 125.05C335.806 126.364 339.894 127.24 341.646 126.948Z" fill="#EBA493"/>
<path d="M356.685 119.212C354.641 116.584 355.517 112.351 355.663 111.913C355.371 112.643 354.787 113.081 354.203 113.227C353.765 117.606 356.685 119.212 356.685 119.212Z" fill="#EF6E4B"/>
<path d="M611.312 88.4118C611.312 88.4118 610.29 92.0612 608.684 97.754C607.954 100.089 607.224 102.571 606.348 105.344C605.034 109.578 603.573 114.395 601.967 119.066C601.091 121.693 600.215 124.175 599.339 126.656C597.003 132.933 594.667 138.772 592.477 142.859C592.185 143.443 591.893 144.027 591.601 144.464C590.725 145.924 589.557 147.53 587.951 149.281C585.469 152.201 582.111 155.558 578.169 159.061C576.271 160.813 574.227 162.565 572.183 164.462C568.825 167.382 565.175 170.447 561.671 173.366C559.481 175.118 557.291 177.016 555.101 178.621C544.151 187.379 535.098 194.094 535.098 194.094L518.746 160.813C523.418 157.602 532.032 152.347 540.938 146.946C542.983 145.632 545.173 144.318 547.363 143.151C550.575 141.253 553.933 139.355 556.853 137.458C559.189 136.144 561.379 134.83 563.423 133.663C566.197 132.057 568.533 130.597 570.285 129.575C572.037 128.554 573.205 127.824 573.205 127.824C573.205 127.824 573.935 126.364 575.249 124.029C576.709 121.255 578.899 117.022 581.235 112.351C582.257 110.307 583.425 108.118 584.593 105.928C586.491 102.425 588.389 98.7757 590.287 95.2724C591.455 93.0829 592.623 90.8933 593.791 88.8497C596.857 83.1569 599.485 78.6318 600.945 76.8802C600.799 76.8802 609.122 79.6536 611.312 88.4118Z" fill="#CFD8DC"/>
<path d="M561.67 173.366C559.48 175.118 557.29 177.016 555.1 178.621C553.202 163.586 545.902 152.639 541.084 146.8C543.128 145.486 545.318 144.173 547.508 143.005C552.326 149.135 558.896 159.499 561.67 173.366Z" fill="#8BBDDB"/>
<path d="M578.17 159.207C576.272 160.959 574.228 162.71 572.184 164.608C568.388 150.157 561.38 141.691 556.854 137.458C559.19 136.144 561.38 134.83 563.424 133.663C568.096 138.48 574.228 146.654 578.17 159.207Z" fill="#8BBDDB"/>
<path d="M592.477 143.005C592.185 143.589 591.893 144.173 591.601 144.61C590.725 146.07 589.557 147.676 587.951 149.427C581.673 139.356 574.811 133.225 570.139 129.576C571.891 128.554 573.059 127.824 573.059 127.824C573.059 127.824 573.789 126.364 575.103 124.029C579.775 127.824 586.345 133.809 592.477 143.005Z" fill="#8BBDDB"/>
<path d="M601.966 119.212C601.09 121.839 600.214 124.32 599.338 126.802C593.06 120.379 585.906 115.416 581.088 112.497C582.11 110.453 583.278 108.264 584.446 106.074C588.972 108.702 595.688 113.227 601.966 119.212Z" fill="#8BBDDB"/>
<path d="M608.684 97.7539C607.954 100.089 607.224 102.571 606.348 105.344C600.8 100.235 594.23 97.024 589.996 95.2724C591.164 93.0828 592.332 90.8933 593.5 88.8497C597.734 90.6013 603.428 93.5207 608.684 97.7539Z" fill="#8BBDDB"/>
<path d="M473.487 169.425L470.567 206.356C470.567 206.356 460.347 203.582 447.498 199.787C445.016 199.057 442.534 198.327 439.906 197.452C435.38 195.992 430.708 194.532 426.182 192.926C423.7 192.051 421.364 191.175 419.028 190.299C413.626 188.255 408.662 186.212 404.866 184.314C402.822 183.292 401.07 182.271 399.902 181.249C399.464 180.957 399.026 180.519 398.588 180.081C395.522 177.454 391.871 173.512 387.929 169.133C386.323 167.236 384.717 165.338 382.965 163.294C379.753 159.353 376.395 155.266 373.329 151.325C371.723 149.282 370.263 147.238 368.803 145.486C363.693 138.626 360.043 133.663 360.043 133.663C360.335 125.05 366.759 122.569 366.759 122.569C369.095 124.029 374.351 128.116 380.483 133.225C382.381 134.684 384.279 136.29 386.177 137.896C389.389 140.669 392.747 143.443 395.96 146.07C398.004 147.676 399.902 149.282 401.508 150.741C404.282 153.223 406.764 155.266 408.37 156.58C409.976 157.894 410.852 158.769 410.852 158.769C410.852 158.769 412.458 159.061 415.086 159.499C417.422 159.791 420.634 160.375 424.43 160.959C426.766 161.251 429.248 161.689 431.73 162.127C434.942 162.711 438.3 163.149 441.658 163.732C444.14 164.17 446.476 164.462 448.958 164.9C458.887 166.652 468.231 168.257 473.487 169.425Z" fill="#CFD8DC"/>
<path d="M447.498 199.787C445.016 199.057 442.534 198.327 439.906 197.451C438.592 183.146 440.052 171.615 441.95 163.732C444.432 164.17 446.768 164.462 449.25 164.9C447.352 172.637 445.6 184.752 447.498 199.787Z" fill="#8BBDDB"/>
<path d="M431.877 162.127C429.541 168.549 426.475 179.351 426.037 192.926C423.555 192.051 421.219 191.175 418.883 190.299C419.613 177.746 422.241 167.674 424.577 160.959C426.767 161.251 429.249 161.689 431.877 162.127Z" fill="#8BBDDB"/>
<path d="M415.232 159.499C411.728 166.214 407.494 175.264 404.866 184.168C402.822 183.146 401.07 182.125 399.902 181.103C399.464 180.811 399.026 180.373 398.588 179.935C401.362 171.323 405.158 163.003 408.516 156.58C410.122 157.894 410.998 158.769 410.998 158.769C410.998 158.769 412.458 159.061 415.232 159.499Z" fill="#8BBDDB"/>
<path d="M401.507 150.741C397.419 155.412 392.017 162.127 387.782 169.133C386.176 167.236 384.57 165.338 382.818 163.294C387.052 156.58 392.017 150.595 395.959 146.07C397.857 147.676 399.755 149.282 401.507 150.741Z" fill="#8BBDDB"/>
<path d="M386.178 137.896C382.382 141.399 377.418 146.216 373.184 151.325C371.578 149.282 370.118 147.238 368.658 145.486C372.6 140.815 376.834 136.582 380.484 133.225C382.236 134.685 384.134 136.29 386.178 137.896Z" fill="#8BBDDB"/>
<path d="M571.162 287.077C571.162 287.077 550.721 308.389 522.981 313.644C498.599 318.315 476.698 318.315 476.698 318.315C476.698 318.315 475.53 312.768 473.486 304.01C473.048 301.82 472.464 299.339 471.88 296.711C470.858 292.04 469.69 286.785 468.522 281.092C467.938 278.757 467.5 276.275 466.916 273.794C465.894 269.269 465.018 264.598 463.996 259.927C463.558 257.445 462.974 255.11 462.536 252.628C461.368 246.643 460.2 240.805 459.032 235.258C458.594 232.776 458.01 230.295 457.572 227.959C456.258 221.245 455.236 215.26 454.506 210.297C454.068 207.377 453.776 204.896 453.484 202.852C453.484 202.122 453.338 201.393 453.338 200.809C453.046 195.7 452.754 191.029 452.754 186.796C452.754 184.022 452.754 181.541 452.754 179.205C452.9 171.177 453.338 166.214 453.338 166.214C459.178 162.273 498.891 174.972 498.891 174.972C498.891 174.972 528.237 149.719 532.909 151.471C535.537 152.493 538.019 154.828 540.355 158.185C541.669 160.083 542.983 162.273 544.151 164.754C546.195 168.987 548.239 173.804 550.137 179.205C551.013 181.687 551.743 184.314 552.619 187.088C553.934 191.613 555.248 196.284 556.416 201.101C557 203.582 557.584 206.064 558.168 208.545C559.19 213.216 560.212 218.033 561.234 222.85C561.818 225.332 562.256 227.959 562.694 230.441C563.57 234.82 564.3 239.053 564.884 243.14C565.322 245.768 565.76 248.395 566.198 250.877C567.074 256.423 567.804 261.678 568.534 266.349C568.972 269.123 569.264 271.75 569.556 274.232C570.724 282.406 571.162 287.077 571.162 287.077Z" fill="#CFD8DC"/>
<path d="M544.296 165.046C535.39 174.096 519.768 187.379 501.81 191.029C498.16 191.759 494.218 192.051 489.984 192.051C478.303 192.051 464.871 189.715 453.045 186.942C453.045 184.168 453.045 181.687 453.045 179.351C468.813 183.146 487.793 186.358 500.496 183.876C517.432 180.519 532.616 166.798 540.646 158.477C541.668 160.375 542.982 162.565 544.296 165.046Z" fill="#8BBDDB"/>
<path d="M552.618 187.38C543.566 195.846 520.79 211.757 477.573 211.757C470.419 211.757 462.827 211.319 454.651 210.297C454.213 207.377 453.921 204.896 453.629 202.852C516.702 210.589 544.004 186.066 550.136 179.497C551.012 182.125 551.888 184.752 552.618 187.38Z" fill="#8BBDDB"/>
<path d="M558.313 208.983C540.793 218.909 504.876 235.55 462.535 235.55C461.367 235.55 460.345 235.55 459.323 235.55C458.885 233.068 458.301 230.587 457.863 228.251C501.81 229.565 539.917 211.173 556.561 201.685C557.145 203.874 557.729 206.502 558.313 208.983Z" fill="#8BBDDB"/>
<path d="M562.693 230.879C547.509 239.199 508.672 257.883 464.142 260.073C463.704 257.591 463.12 255.256 462.682 252.774C508.088 250.731 548.239 230.441 561.233 223.142C561.817 225.77 562.255 228.397 562.693 230.879Z" fill="#8BBDDB"/>
<path d="M566.198 251.314C548.823 261.532 510.863 280.508 468.522 281.238C467.938 278.903 467.5 276.421 466.916 273.94C509.841 273.502 549.261 252.92 564.884 243.578C565.468 246.205 565.906 248.833 566.198 251.314Z" fill="#8BBDDB"/>
<path d="M569.701 274.67C551.743 284.596 512.03 304.156 476.259 304.156C475.383 304.156 474.507 304.156 473.631 304.156C473.193 301.966 472.609 299.485 472.025 296.857C508.672 298.609 552.181 276.275 568.679 266.933C568.971 269.707 569.263 272.334 569.701 274.67Z" fill="#8BBDDB"/>
<path d="M504.438 160.521C504.438 160.521 503.27 170.447 506.92 173.512C506.92 173.512 505.022 180.519 499.62 181.979C493.342 183.584 489.692 176.87 489.692 176.87C489.692 176.87 491.298 167.236 487.355 164.754L504.438 160.521Z" fill="#EF6E4B"/>
<path d="M509.257 139.501C509.257 139.501 513.053 132.933 503.855 122.569C503.855 122.569 499.475 112.643 484.437 110.307C469.398 107.972 458.156 124.467 458.156 133.517C458.156 142.567 463.558 133.517 463.558 133.517C463.558 133.517 464.726 139.793 466.478 142.713C466.478 142.713 465.894 151.763 471.734 151.909C477.283 151.909 509.257 139.501 509.257 139.501Z" fill="#105E99"/>
<path d="M474.655 150.449C474.655 150.449 468.669 147.53 469.837 152.931C471.297 159.207 477.575 159.791 478.013 157.456C478.451 155.12 474.655 150.449 474.655 150.449Z" fill="#EBA493"/>
<path d="M506.191 140.231C506.191 140.231 509.111 134.247 511.447 139.356C514.075 145.194 509.403 149.573 507.651 147.968C506.045 146.216 506.191 140.231 506.191 140.231Z" fill="#EBA493"/>
<path d="M497.285 167.382C487.357 170.739 479.473 166.068 472.902 146.508C469.544 136.436 472.61 128.554 483.707 124.758C494.949 120.963 501.665 125.634 505.023 135.706C512.177 156.726 507.505 163.878 497.285 167.382Z" fill="#EBA493"/>
<path d="M504.147 143.735C504.731 144.61 504.147 145.924 502.979 146.654C501.811 147.238 500.497 147.092 499.913 146.07C499.329 145.194 499.913 143.881 501.081 143.151C502.249 142.567 503.563 142.859 504.147 143.735Z" fill="#DB614D"/>
<path d="M483.853 151.179C484.145 152.201 483.269 153.368 481.955 153.66C480.641 153.952 479.327 153.368 479.181 152.347C478.889 151.325 479.765 150.157 481.079 149.865C482.247 149.573 483.561 150.157 483.853 151.179Z" fill="#DB614D"/>
<path d="M496.118 135.122C495.972 135.122 495.826 135.122 495.68 135.122C493.782 134.101 491.446 134.976 491.446 134.976C491.153 135.122 490.861 134.976 490.715 134.684C490.569 134.392 490.715 134.101 491.007 133.955C491.153 133.955 493.928 132.933 496.118 134.101C496.41 134.246 496.41 134.538 496.41 134.83C496.41 135.122 496.264 135.122 496.118 135.122Z" fill="#FFB878"/>
<path d="M477.428 141.545C477.282 141.545 477.136 141.545 476.99 141.545C476.698 141.399 476.552 141.107 476.698 140.815C477.72 138.48 480.64 137.604 480.786 137.604C481.078 137.458 481.37 137.75 481.37 137.896C481.516 138.188 481.224 138.48 481.078 138.48C481.078 138.48 478.596 139.21 477.72 141.107C477.574 141.399 477.574 141.399 477.428 141.545Z" fill="#FFB878"/>
<path d="M497.138 140.815C497.576 141.983 497.284 143.297 496.7 143.443C495.97 143.735 495.094 142.859 494.656 141.545C494.218 140.377 494.51 139.064 495.094 138.918C495.824 138.772 496.7 139.501 497.138 140.815Z" fill="#1A4850"/>
<path d="M483.707 145.194C484.145 146.362 483.853 147.676 483.269 147.822C482.539 148.114 481.663 147.238 481.225 145.924C480.787 144.756 481.079 143.443 481.663 143.297C482.393 143.151 483.269 144.027 483.707 145.194Z" fill="#1A4850"/>
<path d="M488.232 158.477C488.232 158.477 497.431 156.726 501.227 152.931C501.227 152.931 500.643 159.791 495.679 160.813C490.714 161.981 488.232 158.477 488.232 158.477Z" fill="#1A4850"/>
<path d="M494.365 152.931C493.343 153.223 492.321 153.369 492.029 153.369V152.201C493.197 152.201 494.803 151.763 495.095 151.179C495.241 151.033 494.949 150.595 494.657 150.303C492.175 147.676 489.255 140.085 489.109 139.793L490.131 139.356C490.131 139.502 493.051 147.092 495.387 149.573C496.117 150.303 496.263 151.033 496.117 151.617C495.825 152.347 495.095 152.639 494.365 152.931Z" fill="#DB614D"/>
<path d="M480.932 120.379C458.594 128.7 472.026 149.719 472.026 149.719L475.238 152.639C473.778 146.654 474.8 143.297 474.8 143.297C473.194 140.961 473.048 136.582 473.486 134.539C476.26 132.203 483.268 127.678 496.116 126.218C496.262 126.364 499.62 129.722 499.912 133.079C499.912 133.079 505.022 137.75 507.212 143.297L507.65 138.188C507.65 138.188 502.54 112.351 480.932 120.379Z" fill="#FFB878"/>
<path d="M478.305 510.557L468.523 512.893C468.523 512.893 453.193 430.566 449.688 421.954C446.622 414.509 433.628 385.753 429.394 363.712C429.248 363.857 427.788 363.566 426.036 363.274C425.598 363.128 425.16 363.128 424.576 362.982C424.138 362.836 423.7 362.836 423.116 362.69C422.824 384.731 418.006 411.736 416.546 419.326C414.794 428.522 415.67 512.309 415.67 512.309L405.596 512.017C386.469 444.141 396.544 418.742 396.544 418.742C396.544 418.742 379.023 357.727 385.155 336.123C387.199 328.971 389.682 322.402 392.164 317.001C392.31 316.563 392.602 316.125 392.748 315.687C397.42 305.469 401.654 299.193 401.654 299.193L422.24 301.82L422.386 301.528L422.97 301.674V308.097L425.598 307.951H426.182L434.65 307.513H435.818L443.264 307.075C443.264 307.075 447.79 314.228 454.069 325.613C454.361 326.051 454.507 326.489 454.799 326.927C456.989 331.014 459.471 335.685 462.099 340.648C472.319 360.5 468.815 417.72 468.815 417.72C468.815 417.72 483.853 440.346 478.305 510.557Z" fill="#8BBDDB"/>
<path d="M408.516 301.236C408.516 301.382 403.114 313.936 392.164 316.709C392.31 316.271 392.602 315.833 392.748 315.395C402.53 312.33 407.348 300.944 407.348 300.798L408.516 301.236Z" fill="#6097B2"/>
<path d="M454.944 326.489C442.68 323.862 436.401 311.016 434.795 307.075C434.503 306.345 434.357 305.907 434.357 305.907L435.379 305.615C435.379 305.615 435.525 306.199 435.963 307.075C437.715 311.162 443.41 322.402 454.214 325.175C454.36 325.613 454.652 326.051 454.944 326.489Z" fill="#6097B2"/>
<path d="M425.89 363.128C425.452 362.982 425.014 362.982 424.43 362.836C422.678 359.624 419.466 352.472 416.692 340.648C412.896 323.716 421.51 305.615 421.656 305.469L422.678 305.907C422.532 306.053 414.064 323.862 417.86 340.356C418.006 341.086 418.152 341.67 418.298 342.4C418.444 342.692 418.444 343.13 418.59 343.422C421.218 354.369 424.43 360.646 425.89 363.128Z" fill="#6097B2"/>
<path d="M418.005 343.568H417.859V342.546C418.443 342.546 419.173 342.254 419.611 341.67C420.341 340.794 421.947 338.167 420.633 331.744C418.881 323.132 425.305 307.951 425.597 307.367L426.62 307.805C426.62 307.951 420.049 323.278 421.655 331.598C422.969 338.313 421.363 341.232 420.341 342.4C419.757 343.13 418.881 343.568 418.005 343.568Z" fill="#6097B2"/>
<path d="M418.297 221.537C418.297 221.537 421.509 215.698 416.983 205.626C412.457 195.554 413.333 167.674 436.256 168.841C436.256 168.841 449.834 166.652 456.696 175.556C463.558 184.46 469.106 215.844 461.952 239.053C454.652 262.116 409.099 255.84 418.297 221.537Z" fill="#F24052"/>
<path d="M443.41 306.637C443.41 306.637 421.948 314.228 401.799 298.901C401.799 298.901 398.003 221.828 405.157 216.574C408.223 214.384 414.501 216.136 420.341 218.909C427.934 222.412 435.38 227.667 435.38 227.667C435.38 227.667 448.666 225.77 459.178 226.937C465.894 227.667 471.442 229.565 471.588 234.09C472.172 245.33 443.41 306.637 443.41 306.637Z" fill="#EBA493"/>
<path d="M459.763 227.083C455.237 226.646 454.507 230.003 449.981 231.609C445.455 233.214 440.053 234.528 438.009 234.674C435.965 234.82 434.943 237.447 434.943 237.447C434.943 237.447 434.213 233.944 433.044 233.652C432.022 233.36 422.386 223.726 420.488 218.763C428.08 222.266 435.527 227.521 435.527 227.521C435.527 227.521 448.813 225.624 459.325 226.792C459.471 227.083 459.763 227.083 459.763 227.083Z" fill="#EF6E4B"/>
<path d="M400.923 520.337C401.507 516.104 400.047 513.185 401.069 511.141C402.821 508.076 404.573 512.017 404.573 512.017C404.719 507.2 412.749 507.2 413.479 509.39C413.625 509.974 413.917 510.557 414.209 510.995C414.647 509.828 415.523 508.66 416.691 509.39C420.925 512.017 415.669 518.586 419.465 523.403C424.43 529.534 421.364 538.73 421.364 538.73H397.711C394.937 525.738 400.339 524.571 400.923 520.337Z" fill="#CFD8DC"/>
<path d="M415.67 518.732C415.67 518.732 410.122 515.812 402.676 519.754L404.136 517.126C404.136 517.126 409.1 514.061 415.086 516.396L415.67 518.732Z" fill="#ADBEC4"/>
<path d="M416.545 523.257C416.545 523.257 408.515 520.483 401.215 524.425L402.675 521.651C402.675 521.651 409.683 518.586 415.669 520.921L416.545 523.257Z" fill="#ADBEC4"/>
<path d="M482.683 520.337C482.099 516.104 483.559 513.185 482.537 511.141C480.785 508.076 479.033 512.017 479.033 512.017C478.887 507.2 470.857 507.2 470.127 509.39C469.981 509.974 469.689 510.557 469.397 510.995C468.959 509.828 468.083 508.66 466.915 509.39C462.681 512.017 467.937 518.586 464.141 523.403C459.177 529.534 462.243 538.73 462.243 538.73H485.895C488.669 525.738 483.267 524.571 482.683 520.337Z" fill="#CFD8DC"/>
<path d="M468.082 518.732C468.082 518.732 473.63 515.812 481.076 519.754L479.616 517.126C479.616 517.126 474.652 514.061 468.666 516.396L468.082 518.732Z" fill="#ADBEC4"/>
<path d="M467.061 523.257C467.061 523.257 475.091 520.483 482.391 524.425L480.931 521.651C480.931 521.651 473.923 518.586 467.937 520.921L467.061 523.257Z" fill="#ADBEC4"/>
<path d="M433.627 202.122C433.627 202.122 435.379 222.704 429.539 225.624C429.539 225.624 433.773 233.36 445.161 228.689C445.161 228.689 443.263 218.033 450.709 205.48C455.819 197.16 433.627 202.122 433.627 202.122Z" fill="#EF6E4B"/>
<path d="M454.36 195.116C454.36 195.116 458.594 190.153 459.616 195.554C460.784 201.685 455.236 204.75 454.068 202.852C452.754 200.809 454.36 195.116 454.36 195.116Z" fill="#EBA493"/>
<path d="M422.093 197.889C422.093 197.889 417.129 193.656 416.983 199.057C416.837 205.334 422.677 207.378 423.553 205.334C424.429 203.29 422.093 197.889 422.093 197.889Z" fill="#EBA493"/>
<path d="M440.343 218.763C450.563 218.033 455.819 210.881 454.359 190.883C453.629 180.519 447.789 174.534 436.401 175.41C424.866 176.286 420.486 183 421.362 193.364C422.968 214.968 429.83 219.639 440.343 218.763Z" fill="#EBA493"/>
<path d="M425.305 200.225C425.159 201.247 426.181 202.269 427.495 202.269C428.809 202.414 429.977 201.685 429.977 200.663C430.123 199.641 429.101 198.619 427.787 198.619C426.473 198.473 425.305 199.203 425.305 200.225Z" fill="#DB614D"/>
<path d="M446.33 199.203C446.476 200.225 447.644 200.955 448.958 200.809C450.272 200.663 451.148 199.641 451.002 198.619C450.856 197.597 449.688 196.868 448.374 197.014C447.206 197.16 446.184 198.181 446.33 199.203Z" fill="#DB614D"/>
<path d="M428.955 189.423C429.101 189.569 429.394 189.423 429.54 189.277C430.854 187.672 433.336 187.526 433.336 187.526C433.628 187.526 433.774 187.234 433.774 186.942C433.774 186.65 433.482 186.504 433.19 186.504C433.044 186.504 430.27 186.65 428.664 188.547C428.517 188.839 428.517 189.277 428.955 189.423C428.809 189.423 428.809 189.423 428.955 189.423Z" fill="#F24052"/>
<path d="M443.701 186.796C443.847 186.796 443.847 186.796 443.993 186.796C443.993 186.796 446.475 186.504 448.081 187.963C448.227 188.109 448.665 188.109 448.811 187.963C448.957 187.817 448.957 187.379 448.811 187.234C446.913 185.482 444.139 185.774 443.993 185.92C443.701 185.92 443.555 186.212 443.555 186.504C443.409 186.504 443.555 186.65 443.701 186.796Z" fill="#F24052"/>
<path d="M430.414 194.824C430.56 196.138 431.144 197.014 431.874 197.014C432.604 197.014 433.042 195.846 433.042 194.678C432.896 193.364 432.312 192.488 431.582 192.488C430.852 192.488 430.414 193.656 430.414 194.824Z" fill="#1A4850"/>
<path d="M444.577 193.656C444.723 194.97 445.307 195.846 446.037 195.846C446.767 195.846 447.205 194.678 447.205 193.51C447.059 192.197 446.475 191.321 445.745 191.321C445.015 191.321 444.431 192.489 444.577 193.656Z" fill="#1A4850"/>
<path d="M443.702 206.21C443.702 206.21 437.424 207.523 433.92 206.064C433.92 206.064 436.11 210.589 439.614 210.005C443.118 209.421 443.702 206.21 443.702 206.21Z" fill="#1A4850"/>
<path d="M433.775 193.948C433.775 193.948 432.607 190.883 431.439 191.175C430.271 191.467 429.541 194.24 429.541 194.24L427.643 193.364L429.541 193.51C429.541 193.51 430.271 190.591 431.439 190.591C433.191 190.445 433.775 193.948 433.775 193.948Z" fill="#1A4850"/>
<path d="M443.848 193.656C443.848 193.656 444.578 190.445 445.746 190.591C447.06 190.737 448.082 193.364 448.082 193.364L449.834 192.197L448.082 192.634C448.082 192.634 446.914 189.861 445.746 190.007C443.994 190.007 443.848 193.656 443.848 193.656Z" fill="#1A4850"/>
<path d="M438.154 201.393C438.446 201.539 438.592 201.539 438.884 201.685L439.03 200.663C438.154 200.517 437.862 199.933 437.862 199.495C437.862 198.911 438.154 198.327 438.446 198.181C438.592 198.035 438.884 198.181 439.03 198.473L439.906 197.743C439.176 196.722 438.3 196.868 438.008 197.014C437.132 197.306 436.548 198.473 436.694 199.495C436.986 200.371 437.424 201.101 438.154 201.393Z" fill="#DB614D"/>
<path d="M440.052 178.767C440.052 178.767 443.848 177.6 445.454 183.292C448.228 193.364 450.126 209.567 456.696 217.595C461.368 223.434 464.288 221.099 464.288 221.099C464.288 221.099 465.602 215.26 463.558 209.567C461.514 203.728 464.142 183 456.696 175.41C449.25 167.82 436.256 172.637 436.256 172.637C436.256 172.637 429.978 168.841 423.846 172.637C417.713 176.432 415.962 193.072 422.24 200.517C422.24 200.517 421.948 194.24 424.722 191.759C427.35 189.277 428.81 175.702 440.052 178.767Z" fill="#F24052"/>
<path d="M392.017 96.5863C389.681 104.177 395.521 107.534 391.141 112.789C388.513 116 384.424 113.373 384.424 113.373C382.526 109.286 377.854 104.031 375.518 101.695C373.182 99.3597 374.788 99.3597 374.788 99.3597C374.496 99.2138 374.35 98.9218 374.058 98.7759C372.306 97.4621 370.846 96.7323 372.452 96.1484C374.35 95.5645 379.606 99.0678 379.606 99.0678C373.474 92.2072 370.992 92.937 372.744 92.2072C374.934 91.1854 381.212 96.4403 381.358 96.5863C378.292 91.7693 375.664 90.3096 377.416 90.1636C379.168 90.0176 385.447 97.6081 387.783 100.527C388.367 101.111 388.659 101.549 388.659 101.549C390.265 95.1266 392.017 96.5863 392.017 96.5863Z" fill="#EBA493"/>
<path d="M387.928 100.381C388.512 100.965 388.804 101.403 388.804 101.403C388.804 101.403 386.906 103.301 387.928 106.658C387.782 106.658 385.154 103.885 387.928 100.381Z" fill="#EF6E4B"/>
<path d="M380.191 103.155C379.607 102.571 376.395 99.5057 374.935 99.2137C374.643 99.0677 374.497 98.7758 374.205 98.6298C375.519 97.608 379.607 102.425 380.191 103.155Z" fill="#EF6E4B"/>
<path d="M391.141 112.643C391.141 112.643 390.265 162.711 387.637 172.637C387.637 172.637 396.689 204.02 410.414 215.406C410.414 215.406 412.604 223.872 400.778 240.659C400.778 240.659 377.855 199.641 374.205 176.286L384.425 113.227L391.141 112.643Z" fill="#EBA493"/>
<path d="M421.217 219.347C422.385 223.434 422.969 238.031 436.84 245.476C450.71 252.92 465.456 241.972 469.398 230.149C469.398 230.149 471.004 227.667 476.552 233.798C476.552 233.798 505.315 247.665 508.965 254.964C512.615 262.116 510.425 289.851 498.891 290.288C487.356 290.726 473.486 277.881 469.836 286.347C466.186 294.814 444.87 324.737 400.631 300.652C400.631 300.652 395.083 293.646 395.083 287.515C395.083 281.384 392.309 240.367 392.309 240.367C392.309 240.367 375.957 235.696 380.045 197.16C380.045 197.16 391.287 203.436 390.995 182.854C390.995 182.854 400.193 178.621 403.405 195.846C405.449 207.377 416.837 215.844 416.837 215.844C416.837 215.844 419.465 213.07 421.217 219.347Z" fill="#105E99"/>
<path d="M515.535 269.269C525.317 265.182 546.779 247.373 554.517 237.155L549.845 232.922C549.845 232.922 524.587 250.147 514.805 253.212C505.022 256.277 499.912 261.824 501.08 268.685C502.394 275.545 513.491 270.145 515.535 269.269Z" fill="#EBA493"/>
<path d="M562.547 222.704C557.729 229.127 551.597 226.354 549.991 232.922C548.969 237.009 553.349 238.615 553.349 238.615C557.729 237.885 564.737 238.323 568.095 238.907C571.307 239.491 570.431 238.031 570.431 238.031C570.723 238.177 571.015 238.177 571.307 238.323C573.497 238.907 574.957 239.783 574.373 238.177C573.789 236.28 567.803 234.236 567.803 234.236C577.001 235.258 577.877 237.593 577.439 235.842C576.855 233.506 569.117 231.463 568.825 231.317C574.373 231.025 577.293 232.192 576.417 230.733C575.541 229.273 565.613 228.543 561.963 228.397C561.087 228.397 560.649 228.397 560.649 228.397C564.591 223.288 562.547 222.704 562.547 222.704Z" fill="#EBA493"/>
<path d="M561.817 228.251C560.941 228.251 560.503 228.251 560.503 228.251C560.503 228.251 560.065 230.879 556.707 232.046C556.707 232.046 560.649 232.484 561.817 228.251Z" fill="#EF6E4B"/>
<path d="M564.006 236.134C564.736 236.279 569.116 237.155 570.284 238.177C570.576 238.323 570.868 238.323 571.16 238.469C571.306 236.717 565.028 236.134 564.006 236.134Z" fill="#EF6E4B"/>
<path d="M287.187 335.831C293.465 314.228 305.729 298.317 305.729 298.317L324.271 301.382L324.417 301.09L325.877 301.382H326.023L345.15 305.177C345.15 305.177 353.472 320.504 358.874 342.254C364.422 364.003 347.924 418.888 347.924 418.888C347.924 418.888 357.122 444.579 335.806 511.725H325.731C325.731 511.725 329.528 428.084 328.067 418.888C326.753 410.86 325.147 381.52 326.023 359.186C324.855 359.478 323.687 359.478 322.373 359.478C322.373 381.958 319.891 411.152 318.285 419.034C316.533 428.23 317.409 512.017 317.409 512.017L307.335 511.725C288.209 443.849 298.283 418.45 298.283 418.45C298.283 418.45 281.055 357.435 287.187 335.831Z" fill="#EBA493"/>
<path d="M373.62 233.944C373.036 222.558 337.411 227.521 337.411 227.521C337.411 227.521 314.343 211.319 307.189 216.574C304.707 218.471 303.539 229.273 303.101 242.556C300.473 247.373 298.137 254.526 302.809 260.948C302.955 280.363 303.831 298.901 303.831 298.901C323.979 314.228 345.441 306.637 345.441 306.637C345.441 306.637 353.91 288.537 361.648 270.291C366.612 266.349 367.634 260.511 367.488 255.694C371.284 245.914 373.912 237.593 373.62 233.944Z" fill="#0E3944"/>
<path d="M369.239 175.994C358.873 158.331 332.738 160.521 323.832 172.053C313.028 185.92 318.722 218.325 318.722 218.325C318.722 218.325 343.542 197.597 358.435 225.916C358.581 225.77 380.773 195.7 369.239 175.994Z" fill="#FFB878"/>
<path d="M303.101 520.338C303.685 516.104 302.225 513.185 303.247 511.141C304.999 508.076 306.751 512.017 306.751 512.017C306.897 507.2 314.927 507.2 315.657 509.39C315.803 509.974 316.095 510.558 316.387 510.995C316.825 509.828 317.701 508.66 318.869 509.39C323.103 512.017 317.847 518.586 321.643 523.403C326.607 529.534 323.541 538.73 323.541 538.73H299.889C297.115 525.738 302.517 524.571 303.101 520.338Z" fill="#0E3944"/>
<path d="M317.701 518.732C317.701 518.732 312.153 515.812 304.707 519.754L306.167 517.126C306.167 517.126 311.131 514.061 317.117 516.396L317.701 518.732Z" fill="#205260"/>
<path d="M318.723 523.257C318.723 523.257 310.693 520.484 303.393 524.425L304.853 521.651C304.853 521.651 311.861 518.586 317.847 520.921L318.723 523.257Z" fill="#205260"/>
<path d="M340.916 520.338C340.332 516.104 341.792 513.185 340.77 511.141C339.018 508.076 337.266 512.017 337.266 512.017C337.12 507.2 329.09 507.2 328.36 509.39C328.214 509.974 327.922 510.558 327.63 510.995C327.192 509.828 326.316 508.66 325.148 509.39C320.913 512.017 326.17 518.586 322.373 523.403C317.409 529.534 320.475 538.73 320.475 538.73H344.128C346.902 525.738 341.5 524.571 340.916 520.338Z" fill="#0E3944"/>
<path d="M326.314 518.732C326.314 518.732 331.863 515.812 339.309 519.754L337.849 517.126C337.849 517.126 332.885 514.061 326.898 516.396L326.314 518.732Z" fill="#205260"/>
<path d="M325.293 523.257C325.293 523.257 333.323 520.484 340.623 524.425L339.163 521.651C339.163 521.651 332.155 518.586 326.169 520.921L325.293 523.257Z" fill="#205260"/>
<path d="M335.805 202.122C335.805 202.122 336.827 214.53 331.717 225.624C331.717 225.624 335.951 233.36 347.339 228.689C347.339 228.689 345.441 218.033 352.887 205.48C357.851 197.16 335.805 202.122 335.805 202.122Z" fill="#EF6E4B"/>
<path d="M360.917 196.284C360.917 196.284 366.319 192.635 365.881 198.035C365.443 204.312 359.311 205.772 358.581 203.582C357.851 201.393 360.917 196.284 360.917 196.284Z" fill="#EBA493"/>
<path d="M328.944 190.737C328.944 190.737 325.294 185.336 323.688 190.591C321.936 196.576 327.046 200.079 328.506 198.327C329.966 196.576 328.944 190.737 328.944 190.737Z" fill="#EBA493"/>
<path d="M341.208 215.698C351.282 217.595 358.29 212.049 361.94 192.343C363.838 182.125 359.75 174.972 348.508 172.783C337.266 170.739 331.28 175.994 329.382 186.212C325.44 207.377 330.842 213.8 341.208 215.698Z" fill="#EBA493"/>
<path d="M331.426 193.802C330.988 194.824 331.718 195.992 333.032 196.43C334.2 196.868 335.514 196.43 335.952 195.554C336.39 194.532 335.66 193.364 334.346 192.927C333.032 192.489 331.864 192.927 331.426 193.802Z" fill="#DB614D"/>
<path d="M352.158 198.327C352.012 199.349 353.034 200.371 354.348 200.517C355.662 200.663 356.831 199.933 356.977 198.911C357.123 197.889 356.1 196.868 354.786 196.722C353.326 196.576 352.158 197.306 352.158 198.327Z" fill="#DB614D"/>
<path d="M337.705 184.314C337.851 184.46 338.143 184.46 338.289 184.314C339.895 183.146 342.377 183.584 342.377 183.584C342.669 183.584 342.961 183.438 342.961 183.146C342.961 182.854 342.815 182.563 342.523 182.563C342.377 182.563 339.603 181.979 337.559 183.438C337.559 183.73 337.559 184.022 337.705 184.314Z" fill="#FFB878"/>
<path d="M352.742 185.482C352.742 185.482 352.888 185.628 353.034 185.628C353.034 185.628 355.516 186.066 356.684 187.818C356.83 188.109 357.122 188.109 357.414 187.963C357.706 187.817 357.706 187.526 357.56 187.234C356.246 185.19 353.326 184.606 353.18 184.606C352.888 184.606 352.596 184.752 352.596 185.044C352.596 185.19 352.596 185.482 352.742 185.482Z" fill="#FFB878"/>
<path d="M337.849 190.007C337.557 191.321 337.995 192.343 338.725 192.489C339.455 192.635 340.185 191.759 340.477 190.445C340.769 189.131 340.331 188.109 339.601 187.963C338.871 187.817 338.141 188.693 337.849 190.007Z" fill="#1A4850"/>
<path d="M351.574 192.78C351.282 194.094 351.72 195.116 352.45 195.262C353.18 195.408 353.91 194.532 354.202 193.218C354.494 191.905 354.056 190.883 353.326 190.737C352.596 190.591 351.866 191.467 351.574 192.78Z" fill="#1A4850"/>
<path d="M347.778 204.458C347.778 204.458 341.354 204.166 338.434 201.831C338.434 201.831 339.456 206.794 342.96 207.086C346.464 207.232 347.778 204.458 347.778 204.458Z" fill="#1A4850"/>
<path d="M341.354 190.007C341.354 190.007 341.062 186.796 339.748 186.796C338.434 186.796 337.12 189.277 337.12 189.277L335.514 187.963L337.266 188.547C337.266 188.547 338.726 185.92 339.894 186.212C341.646 186.358 341.354 190.007 341.354 190.007Z" fill="#1A4850"/>
<path d="M351.135 192.197C351.135 192.197 352.595 189.277 353.763 189.715C354.931 190.153 355.369 192.927 355.369 192.927L357.267 192.343L355.369 192.197C355.369 192.197 354.931 189.277 353.763 188.985C352.157 188.839 351.135 192.197 351.135 192.197Z" fill="#1A4850"/>
<path d="M343.69 198.327C343.836 198.473 344.128 198.619 344.42 198.765L344.858 197.744C343.982 197.306 343.982 196.722 343.982 196.284C344.128 195.7 344.566 195.262 344.858 195.116C345.004 195.116 345.296 195.262 345.442 195.554L346.464 195.116C346.026 193.948 345.15 193.948 344.858 193.948C343.982 194.094 343.106 194.97 342.96 195.992C342.668 197.014 342.96 197.744 343.69 198.327Z" fill="#DB614D"/>
<path d="M328.359 194.094C328.359 194.094 324.125 181.833 331.717 171.761C339.309 161.689 359.895 169.133 363.691 176.87C367.487 184.606 360.041 200.225 360.041 200.225C360.041 200.225 365.735 179.497 354.347 176.14C354.347 176.14 352.887 181.395 343.981 185.044C335.221 188.693 329.965 188.109 329.965 188.109L328.359 194.094Z" fill="#FFB878"/>
<path d="M364.421 227.375C364.421 227.375 377.415 227.667 409.098 259.489C413.478 263.868 408.514 277.735 395.374 269.269C380.919 259.781 371.283 250.147 368.217 253.65C368.217 253.65 360.771 235.404 364.421 227.375Z" fill="#EF6E4B"/>
<path d="M411.142 257.737C410.996 247.081 402.674 220.515 396.104 209.567L390.41 212.195C390.41 212.195 396.688 242.118 395.958 252.19C395.082 262.408 398.294 269.269 405.156 270.729C411.872 272.188 411.142 259.927 411.142 257.737Z" fill="#EBA493"/>
<path d="M385.738 196.576C389.826 203.436 385.008 208.107 390.41 212.049C393.768 214.53 396.98 211.027 396.98 211.027C397.856 206.648 401.068 200.371 402.821 197.597C404.573 194.824 402.967 195.116 402.967 195.116C403.113 194.824 403.405 194.678 403.551 194.386C405.011 192.635 406.179 191.613 404.573 191.467C402.675 191.321 398.44 195.992 398.44 195.992C402.821 187.817 405.303 187.963 403.551 187.672C401.214 187.234 396.25 193.802 396.104 193.948C397.856 188.693 400.046 186.504 398.44 186.65C396.688 186.942 392.308 195.846 390.848 199.203C390.556 199.933 390.264 200.371 390.264 200.371C387.052 194.824 385.738 196.576 385.738 196.576Z" fill="#EBA493"/>
<path d="M390.557 199.495C390.265 200.225 389.973 200.663 389.973 200.663C389.973 200.663 392.309 202.123 392.163 205.626C392.163 205.626 394.061 202.123 390.557 199.495Z" fill="#EF6E4B"/>
<path d="M398.732 200.225C399.17 199.641 401.506 195.846 402.966 195.262C403.112 194.97 403.404 194.824 403.55 194.532C401.944 193.802 399.17 199.349 398.732 200.225Z" fill="#EF6E4B"/>
<path d="M311.569 215.552C311.569 215.552 298.721 212.778 261.052 237.593C255.796 240.951 257.84 255.694 272.586 250.001C288.647 243.724 300.911 236.134 303.101 240.221C303.247 240.221 313.613 224.31 311.569 215.552Z" fill="#EF6E4B"/>
<path d="M259.737 235.404C262.073 225.04 275.651 200.663 284.411 191.321L289.376 195.116C289.376 195.116 276.965 223.142 275.797 233.214C274.483 243.286 269.957 249.417 262.949 249.417C255.941 249.563 259.153 237.593 259.737 235.404Z" fill="#EBA493"/>
<path d="M297.114 180.957C291.712 186.796 295.508 192.343 289.376 195.262C285.58 197.014 283.098 192.926 283.098 192.926C283.098 188.401 281.2 181.687 280.032 178.475C278.864 175.41 280.47 175.994 280.47 175.994C280.324 175.702 280.178 175.41 280.032 175.264C279.01 173.22 277.988 172.053 279.74 172.199C281.638 172.491 284.85 177.892 284.85 177.892C282.222 168.987 279.74 168.549 281.638 168.695C284.12 168.841 287.478 176.14 287.624 176.286C287.04 170.739 285.288 168.112 286.894 168.695C288.5 169.279 290.982 178.913 291.858 182.563C292.004 183.438 292.15 183.876 292.15 183.876C296.092 178.913 297.114 180.957 297.114 180.957Z" fill="#EBA493"/>
<path d="M291.713 182.709C291.859 183.584 292.005 184.022 292.005 184.022C292.005 184.022 289.523 184.898 288.939 188.401C288.939 188.255 287.771 184.606 291.713 182.709Z" fill="#EF6E4B"/>
<path d="M283.535 181.833C283.243 181.103 281.637 176.87 280.469 175.994C280.323 175.702 280.177 175.41 280.031 175.264C281.783 174.826 283.389 180.957 283.535 181.833Z" fill="#EF6E4B"/>
<path d="M303.685 295.106C303.685 295.106 260.322 354.515 273.9 417.429C273.9 417.429 288.647 431.004 300.035 426.333C311.569 421.662 323.395 438.74 333.761 433.193C343.981 427.792 353.18 423.705 360.334 426.625C367.488 429.544 379.46 417.429 379.46 417.429C379.46 417.429 374.204 347.801 347.777 301.966C347.777 301.966 326.315 311.746 303.685 295.106Z" fill="#FFB878"/>
<path d="M321.644 523.403C321.644 523.403 326.316 529.388 324.418 538.73H320.476C320.476 538.73 319.6 530.264 321.644 523.403Z" fill="#07262D"/>
<path d="M180.896 361.96C180.896 361.96 188.781 386.921 208.199 420.348C208.199 420.348 204.841 455.819 259.738 521.505L267.33 517.272C267.33 517.272 239.151 451.294 234.479 431.734C229.953 412.174 231.851 386.045 217.105 345.173L180.896 361.96Z" fill="#EBA493"/>
<path d="M214.331 311.746L188.343 301.236C183.817 315.687 172.137 326.051 173.159 348.677C173.597 359.916 180.897 371.302 180.897 371.302C211.557 370.134 222.07 357.289 222.07 357.289L217.397 335.685C217.251 335.685 214.185 321.088 214.331 311.746Z" fill="#CE364C"/>
<path d="M152.719 345.173C152.719 345.173 151.843 371.302 158.998 409.254C158.998 409.254 144.105 441.514 173.89 521.797L182.358 520.338C182.358 520.338 177.832 448.666 180.022 428.668C182.212 408.67 193.746 391.154 192.432 341.378L152.719 345.173Z" fill="#EBA493"/>
<path d="M214.331 311.746L204.111 329.117L201.483 333.35L196.227 342.4L192.869 366.485L192.723 367.507V368.091C166.297 365.025 152.28 373.2 152.28 373.2L151.988 370.864V370.134C151.988 369.988 151.842 369.842 151.842 369.696C149.36 362.544 146.002 343.13 150.09 329.847C156.807 308.243 168.779 310.287 177.831 298.171C177.685 298.463 214.331 311.746 214.331 311.746Z" fill="#F24052"/>
<path d="M168.633 514.353C168.633 514.353 171.991 521.797 170.969 526.906C170.385 529.972 167.027 533.913 169.655 538.73H190.095C190.095 538.73 192.431 533.183 187.613 528.22C184.985 525.446 182.941 512.309 182.941 512.309C180.605 512.601 181.189 514.499 181.189 514.499C181.189 514.499 181.189 508.368 176.079 509.098C169.801 510.12 171.407 515.52 171.407 515.52C171.407 515.52 170.823 513.477 168.633 514.353Z" fill="#0C476B"/>
<path d="M291.714 538.73H257.258C257.258 538.73 256.236 531.431 257.842 528.95C260.032 525.446 252.439 517.564 252.439 517.564C252.439 517.564 256.966 511.871 261.054 515.083C261.054 515.083 260.762 507.93 265.726 507.93C265.726 507.93 270.398 520.046 275.946 524.425C276.092 524.571 276.238 524.571 276.384 524.717C280.472 527.636 287.918 528.366 290.692 532.453C291.86 534.059 292.298 535.956 291.714 538.73Z" fill="#0C476B"/>
<path d="M194.184 366.923L193.892 367.945C193.454 367.799 193.016 367.653 192.578 367.507C170.97 361.522 156.077 368.528 151.843 370.864V370.134C151.843 369.988 151.697 369.842 151.697 369.696C153.595 368.674 157.245 366.923 162.355 365.609C162.063 363.566 160.603 349.698 162.355 334.226C164.253 317.439 180.606 307.367 180.898 307.221L181.482 308.097C181.336 308.243 169.802 315.395 165.129 327.511C180.314 327.365 186.446 308.243 186.446 308.097L187.468 308.389C187.468 308.535 181.044 328.533 164.837 328.533H164.691C164.107 330.284 163.669 332.182 163.377 334.226C161.625 349.26 163.085 362.836 163.377 365.171C170.678 363.566 180.752 362.836 192.724 366.193C193.308 366.631 193.746 366.777 194.184 366.923Z" fill="#CE364C"/>
<path d="M205.426 316.709C205.426 316.855 203.966 331.744 197.104 343.13L197.98 343.714C204.988 332.182 206.448 317.001 206.594 316.855L205.426 316.709Z" fill="#CE364C"/>
<path d="M252.585 309.995C252.585 309.995 249.957 321.964 247.329 322.986C244.701 324.008 247.037 316.855 247.037 316.855C247.037 316.855 228.057 309.265 220.319 308.681C212.434 307.951 223.385 293.208 252.585 309.995Z" fill="#0C476B"/>
<path d="M249.226 312.184C249.226 312.184 229.224 303.134 215.353 303.718C201.483 304.448 234.626 258.467 242.802 263.138C250.978 267.809 252.876 306.345 249.226 312.184Z" fill="#0C476B"/>
<path d="M199.732 223.872C199.732 223.872 201.63 218.909 211.559 217.887C221.487 216.866 230.247 227.229 228.349 233.36C226.451 239.491 199.732 223.872 199.732 223.872Z" fill="#0C476B"/>
<path d="M215.5 180.373C215.5 180.373 214.77 167.528 202.798 165.63C190.825 163.732 181.335 166.506 185.569 183.73C189.803 200.955 187.029 207.669 179.145 208.545C171.261 209.275 171.845 200.079 171.845 200.079C171.845 200.079 170.239 208.545 178.853 211.611C178.853 211.611 169.801 212.34 173.013 218.033C176.225 223.726 186.299 222.704 190.241 218.033C190.241 218.033 190.533 221.829 195.497 220.515C195.497 220.515 193.453 219.931 193.745 217.303C193.891 214.676 207.47 219.055 211.704 203.144C215.938 187.088 207.47 184.46 207.47 184.46L215.5 180.373Z" fill="#0E3944"/>
<path d="M238.13 231.025C230.83 230.733 230.538 237.885 234.334 245.038C237.984 252.044 273.463 284.012 279.011 278.027C281.055 275.691 275.069 265.036 275.069 265.036C275.069 265.036 264.995 256.131 251.855 241.242C245.723 234.382 241.926 231.317 238.13 231.025Z" fill="#EBA493"/>
<path d="M283.829 266.495C285.873 256.132 282.953 228.397 278.573 216.282L272.441 217.741C272.441 217.741 272.733 248.249 269.958 258.175C267.184 267.955 268.936 275.254 275.361 278.173C281.785 280.946 283.391 268.685 283.829 266.495Z" fill="#EBA493"/>
<path d="M265.434 209.567C272.004 213.946 269.668 220.223 276.238 221.537C277.552 221.829 278.72 221.537 279.45 220.953C281.056 219.931 281.64 218.033 281.348 216.136C280.618 211.757 280.91 206.064 281.202 203.144C281.64 199.787 280.18 200.955 280.18 200.955C280.18 200.663 280.326 200.371 280.326 200.079C280.91 197.889 281.64 196.43 279.888 197.014C277.99 197.743 276.238 203.728 276.238 203.728C276.676 194.532 279.012 193.51 277.26 193.948C274.924 194.532 273.318 202.56 273.318 202.852C272.588 197.306 273.756 194.386 272.296 195.408C270.836 196.43 270.69 206.356 270.69 210.005C270.69 210.881 270.69 211.319 270.69 211.319C265.872 207.377 265.434 209.567 265.434 209.567Z" fill="#EBA493"/>
<path d="M270.982 210.005C270.982 210.881 270.982 211.319 270.982 211.319C270.982 211.319 273.61 211.611 275.07 214.822C275.07 214.822 275.363 210.881 270.982 210.005Z" fill="#EF6E4B"/>
<path d="M278.719 207.231C278.865 206.502 279.449 201.977 280.471 200.809C280.471 200.517 280.617 200.225 280.617 199.933C278.865 200.079 278.719 206.356 278.719 207.231Z" fill="#EF6E4B"/>
<path d="M227.473 230.587C227.473 230.587 237.255 226.5 249.373 233.652C261.345 240.805 268.645 252.336 268.645 252.336C268.645 252.336 268.791 230.879 272.441 227.375C272.441 227.375 276.967 232.776 282.516 233.798C282.516 233.798 296.824 263.576 287.772 281.968C278.719 300.361 251.563 281.968 251.563 281.968L227.473 230.587Z" fill="#0C476B"/>
<path d="M177.686 298.463C177.686 298.463 184.84 279.487 181.19 268.685C174.912 250.147 178.27 234.528 184.986 230.003C195.644 222.558 218.128 231.025 218.128 231.025C218.128 231.025 239.883 228.689 242.219 235.404C244.409 241.972 249.665 268.831 239.299 283.136C228.932 297.441 214.478 319.629 214.478 319.629C214.478 319.629 183.526 316.709 177.686 298.463Z" fill="#CFD8DC"/>
<path d="M190.242 309.995C190.242 309.995 187.322 320.212 183.38 319.629C179.584 318.899 162.939 310.141 162.939 308.535C162.939 307.075 165.275 303.718 165.275 303.718C165.275 303.718 164.399 295.835 166.444 295.106C168.488 294.376 190.242 309.995 190.242 309.995Z" fill="#0C476B"/>
<path d="M225.283 227.375C225.283 227.375 248.06 266.933 246.892 316.709C246.892 316.709 257.258 313.936 259.156 295.397C261.054 276.713 254.484 241.097 245.432 231.755C245.432 231.755 238.861 224.894 225.283 227.375Z" fill="#105E99"/>
<path d="M206.009 225.77C206.009 225.77 222.946 286.493 190.241 309.995C190.241 309.995 176.517 309.265 166.589 298.463C156.661 287.661 170.093 230.003 170.093 230.003C170.093 230.003 187.613 218.325 206.009 225.77Z" fill="#105E99"/>
<path d="M209.515 244.746C209.515 244.746 209.369 226.5 207.325 221.683C205.281 216.866 199.732 223.872 199.732 223.872C199.732 223.872 201.192 232.338 209.515 244.746Z" fill="#0C476B"/>
<path d="M232.581 242.994C232.581 242.994 234.625 225.04 228.493 221.829C222.361 218.617 222.215 229.857 222.215 229.857C222.215 229.857 227.617 229.419 232.581 242.994Z" fill="#0C476B"/>
<path d="M214.769 206.21C214.769 206.21 216.229 218.617 211.703 229.857C211.703 229.857 218.273 239.491 224.551 233.214C224.551 233.214 225.135 221.829 232.143 208.983C236.67 200.371 214.769 206.21 214.769 206.21Z" fill="#EF6E4B"/>
<path d="M204.695 206.648C204.695 206.648 199.147 203.144 199.731 208.545C200.461 214.822 206.593 215.99 207.177 213.8C207.907 211.611 204.695 206.648 204.695 206.648Z" fill="#EBA493"/>
<path d="M236.378 199.787C236.378 199.787 239.882 194.24 241.634 199.349C243.678 205.334 238.714 208.983 237.108 207.378C235.648 205.772 236.378 199.787 236.378 199.787Z" fill="#EBA493"/>
<path d="M224.99 225.186C214.916 227.376 207.908 222.121 203.528 202.561C201.192 192.489 204.988 185.044 216.23 182.563C227.472 180.081 233.604 185.19 235.794 195.262C240.466 216.428 235.356 222.996 224.99 225.186Z" fill="#EBA493"/>
<path d="M234.042 203.144C234.48 204.166 233.75 205.334 232.582 205.772C231.414 206.21 230.1 205.918 229.662 204.896C229.224 203.874 229.954 202.706 231.122 202.269C232.29 201.685 233.604 202.123 234.042 203.144Z" fill="#DB614D"/>
<path d="M213.456 208.253C213.602 209.275 212.726 210.297 211.411 210.443C210.097 210.589 208.929 210.005 208.783 208.983C208.637 207.961 209.513 206.94 210.827 206.794C212.141 206.502 213.31 207.232 213.456 208.253Z" fill="#DB614D"/>
<path d="M227.034 193.948C226.888 193.948 226.888 193.948 226.742 193.802C224.99 192.635 222.654 193.218 222.508 193.218C222.216 193.364 221.924 193.073 221.924 192.781C221.924 192.489 222.07 192.197 222.362 192.197C222.508 192.197 225.282 191.467 227.326 192.927C227.618 193.073 227.618 193.364 227.472 193.656C227.326 193.948 227.18 193.948 227.034 193.948Z" fill="#0E3944"/>
<path d="M208.2 198.181C208.054 198.181 208.054 198.181 207.908 198.035C207.616 197.889 207.616 197.598 207.762 197.306C209.076 195.116 211.85 194.532 211.996 194.532C212.288 194.532 212.58 194.678 212.58 194.97C212.58 195.262 212.434 195.554 212.142 195.554C212.142 195.554 209.66 195.992 208.638 197.744C208.492 198.035 208.346 198.181 208.2 198.181Z" fill="#0E3944"/>
<path d="M227.471 199.495C227.763 200.809 227.471 201.831 226.741 201.977C226.011 202.123 225.281 201.247 224.989 199.933C224.697 198.619 224.989 197.598 225.719 197.452C226.449 197.306 227.179 198.181 227.471 199.495Z" fill="#1A4850"/>
<path d="M213.602 202.561C213.894 203.874 213.602 204.896 212.872 205.042C212.142 205.188 211.412 204.312 211.12 202.998C210.828 201.685 211.12 200.663 211.85 200.517C212.434 200.371 213.31 201.393 213.602 202.561Z" fill="#1A4850"/>
<path d="M218.42 213.946C218.42 213.946 223.822 214.092 228.056 211.027C228.056 211.027 229.224 218.471 224.114 219.201C220.464 219.639 218.42 213.946 218.42 213.946Z" fill="#1A4850"/>
<path d="M223.966 199.641C223.966 199.641 224.258 196.43 225.426 196.284C226.74 196.284 228.2 198.619 228.2 198.619L229.806 197.306L228.054 197.89C228.054 197.89 226.448 195.408 225.28 195.554C223.674 195.992 223.966 199.641 223.966 199.641Z" fill="#1A4850"/>
<path d="M214.331 202.123C214.331 202.123 212.725 199.203 211.557 199.787C210.389 200.225 210.097 203.144 210.097 203.144L208.053 202.56L209.951 202.415C209.951 202.415 210.243 199.495 211.411 199.203C213.163 198.765 214.331 202.123 214.331 202.123Z" fill="#1A4850"/>
<path d="M221.338 208.399L220.754 207.378C221.63 206.94 221.63 206.356 221.63 205.918C221.484 205.334 221.046 204.896 220.608 204.896C220.462 204.896 220.17 205.042 220.17 205.48L219.148 205.042C219.586 203.874 220.462 203.728 220.754 203.874C221.63 203.874 222.506 204.75 222.652 205.772C222.944 206.794 222.36 207.815 221.338 208.399Z" fill="#DB614D"/>
<path d="M205.425 210.151C205.425 210.151 204.111 205.334 203.673 199.933C203.089 192.781 207.469 186.066 214.331 183.876C216.667 183.147 219.295 182.855 222.361 183.001C226.887 183.292 230.829 186.358 232.581 190.445C234.041 193.802 235.793 198.473 237.107 203.874C237.107 203.874 238.859 198.035 237.253 188.985C235.647 179.935 228.201 172.491 211.119 176.14C196.519 179.351 190.241 197.014 205.425 210.151Z" fill="#1A4850"/>
<path d="M226.887 180.811C226.887 180.811 224.989 194.678 206.008 196.43C206.008 196.43 217.543 192.343 217.543 184.314C217.543 184.314 213.016 194.678 202.066 193.51C201.92 193.51 200.898 176.724 226.887 180.811Z" fill="#1A4850"/>
<path d="M169.071 234.382C178.269 237.155 184.547 252.044 182.649 253.796C180.751 255.548 137.097 263.868 137.097 263.868L163.669 302.112L159.143 308.681C159.143 308.681 117.678 272.042 117.97 259.489C118.116 247.081 169.071 234.382 169.071 234.382Z" fill="#EBA493"/>
<path d="M163.814 301.09C163.814 301.09 169.655 301.674 173.159 302.696C176.809 303.572 181.627 304.448 181.773 305.324C181.919 306.053 173.743 305.324 173.743 305.324C173.743 305.324 180.459 308.097 180.605 309.119C180.751 310.141 172.137 308.389 172.137 308.389C172.137 308.389 177.539 311.746 177.247 312.622C176.955 313.498 170.239 311.308 170.239 311.308C170.239 311.308 171.553 314.52 172.721 315.979C172.721 315.979 171.407 316.709 168.778 313.79C166.15 310.87 161.916 311.746 158.558 309.265C155.346 306.345 160.748 300.652 163.814 301.09Z" fill="#EBA493"/>
<path d="M170.093 229.857C170.093 229.857 186.299 231.755 187.029 255.694C187.759 279.633 151.405 271.896 151.405 271.896C151.405 271.896 160.311 282.114 157.537 293.5C157.537 293.5 147.609 293.354 148.047 298.317C148.047 298.317 132.862 299.193 117.97 278.611C103.078 258.175 123.956 235.112 170.093 229.857Z" fill="#0C476B"/>
<path d="M252.293 252.92C253.315 256.423 252.585 259.781 250.395 260.365C248.351 260.949 245.723 258.613 244.701 255.11C243.679 251.606 244.409 248.249 246.599 247.665C248.789 247.081 251.271 249.271 252.293 252.92Z" fill="#0C476B"/>
<path d="M205.686 257.011C205.866 252.984 203.334 249.6 200.031 249.453C196.728 249.305 193.905 252.45 193.726 256.477C193.546 260.504 196.078 263.888 199.381 264.035C202.683 264.182 205.506 261.037 205.686 257.011Z" fill="#0C476B"/>
<path d="M151.404 247.373C147.462 248.249 143.666 246.351 142.936 242.994C142.206 239.783 144.834 236.425 148.776 235.55C152.718 234.674 156.514 236.571 157.244 239.929C157.974 243.14 155.346 246.497 151.404 247.373Z" fill="#105E99"/>
<path d="M170.531 531.139C170.531 531.139 176.079 523.841 187.614 529.68C187.614 529.68 188.052 534.789 182.795 533.767C177.247 532.891 174.181 536.832 170.531 531.139Z" fill="#105E99"/>
<path d="M290.838 532.453C283.538 535.956 268.354 527.636 268.354 527.636C270.69 528.074 274.34 526.176 276.53 524.717C280.618 527.782 287.918 528.512 290.838 532.453Z" fill="#105E99"/>
</svg>
