<svg width="250" height="90" viewBox="0 0 250 90" fill="none" xmlns="http://www.w3.org/2000/svg">
<rect width="250" height="90" rx="20" fill="white"/>
<path d="M104.111 38.998V51H102.173V38.998H104.111ZM111.692 41.48C112.78 41.48 113.653 41.8313 114.31 42.534C114.968 43.2367 115.296 44.2397 115.296 45.543V51H113.358V45.747C113.358 44.9083 113.143 44.2623 112.712 43.809C112.282 43.3443 111.692 43.112 110.944 43.112C110.174 43.112 109.556 43.3613 109.091 43.86C108.627 44.3473 108.394 45.067 108.394 46.019V51H106.456V41.633H108.394V43.69C108.644 42.9873 109.063 42.4433 109.652 42.058C110.242 41.6727 110.922 41.48 111.692 41.48ZM122.272 49.317V51H121.082C120.084 51 119.325 50.762 118.804 50.286C118.294 49.7987 118.039 48.994 118.039 47.872V43.282H116.696V41.633H118.039V39.304H119.994V41.633H122.255V43.282H119.994V47.906C119.994 48.4387 120.09 48.807 120.283 49.011C120.487 49.215 120.838 49.317 121.337 49.317H122.272ZM132.791 45.866C132.791 46.1833 132.768 46.461 132.723 46.699H125.515C125.549 47.6623 125.815 48.3763 126.314 48.841C126.813 49.3057 127.43 49.538 128.167 49.538C128.813 49.538 129.357 49.3737 129.799 49.045C130.252 48.7163 130.53 48.28 130.632 47.736H132.706C132.581 48.3933 132.321 48.977 131.924 49.487C131.527 49.997 131.012 50.3993 130.377 50.694C129.742 50.9773 129.034 51.119 128.252 51.119C127.345 51.119 126.541 50.9263 125.838 50.541C125.147 50.1557 124.603 49.6003 124.206 48.875C123.809 48.1497 123.611 47.294 123.611 46.308C123.611 45.3333 123.809 44.4833 124.206 43.758C124.603 43.0327 125.147 42.4773 125.838 42.092C126.541 41.7067 127.345 41.514 128.252 41.514C129.17 41.514 129.969 41.7067 130.649 42.092C131.34 42.466 131.867 42.9873 132.23 43.656C132.604 44.3133 132.791 45.05 132.791 45.866ZM130.836 45.815C130.859 45.203 130.751 44.693 130.513 44.285C130.286 43.8657 129.969 43.5597 129.561 43.367C129.164 43.163 128.728 43.061 128.252 43.061C127.493 43.061 126.858 43.2933 126.348 43.758C125.838 44.2227 125.56 44.9083 125.515 45.815H130.836ZM136.6 43.469C136.918 42.857 137.371 42.3753 137.96 42.024C138.55 41.6613 139.23 41.48 140 41.48V43.588H139.422C138.572 43.588 137.887 43.7977 137.365 44.217C136.855 44.625 136.6 45.305 136.6 46.257V51H134.662V41.633H136.6V43.469ZM145.294 48.994L147.946 41.633H150.02L146.45 51H144.104L140.534 41.633H142.608L145.294 48.994ZM151.174 38.913C151.174 38.5843 151.288 38.3123 151.514 38.097C151.741 37.8817 152.041 37.774 152.415 37.774C152.789 37.774 153.09 37.8817 153.316 38.097C153.554 38.3123 153.673 38.5843 153.673 38.913C153.673 39.2417 153.554 39.508 153.316 39.712C153.09 39.916 152.789 40.018 152.415 40.018C152.041 40.018 151.741 39.916 151.514 39.712C151.288 39.508 151.174 39.2417 151.174 38.913ZM153.384 41.633V51H151.446V41.633H153.384ZM164.434 45.866C164.434 46.1833 164.411 46.461 164.366 46.699H157.158C157.192 47.6623 157.458 48.3763 157.957 48.841C158.455 49.3057 159.073 49.538 159.81 49.538C160.456 49.538 161 49.3737 161.442 49.045C161.895 48.7163 162.173 48.28 162.275 47.736H164.349C164.224 48.3933 163.963 48.977 163.567 49.487C163.17 49.997 162.654 50.3993 162.02 50.694C161.385 50.9773 160.677 51.119 159.895 51.119C158.988 51.119 158.183 50.9263 157.481 50.541C156.789 50.1557 156.245 49.6003 155.849 48.875C155.452 48.1497 155.254 47.294 155.254 46.308C155.254 45.3333 155.452 44.4833 155.849 43.758C156.245 43.0327 156.789 42.4773 157.481 42.092C158.183 41.7067 158.988 41.514 159.895 41.514C160.813 41.514 161.612 41.7067 162.292 42.092C162.983 42.466 163.51 42.9873 163.873 43.656C164.247 44.3133 164.434 45.05 164.434 45.866ZM162.479 45.815C162.501 45.203 162.394 44.693 162.156 44.285C161.929 43.8657 161.612 43.5597 161.204 43.367C160.807 43.163 160.371 43.061 159.895 43.061C159.135 43.061 158.501 43.2933 157.991 43.758C157.481 44.2227 157.203 44.9083 157.158 45.815H162.479ZM179.429 41.633L176.828 51H174.686L172.374 43.758L170.028 51H167.903L165.302 41.633H167.257L169.042 49.215L171.388 41.633H173.428L175.808 49.215L177.593 41.633H179.429ZM189.452 45.866C189.452 46.1833 189.43 46.461 189.384 46.699H182.176C182.21 47.6623 182.477 48.3763 182.975 48.841C183.474 49.3057 184.092 49.538 184.828 49.538C185.474 49.538 186.018 49.3737 186.46 49.045C186.914 48.7163 187.191 48.28 187.293 47.736H189.367C189.243 48.3933 188.982 48.977 188.585 49.487C188.189 49.997 187.673 50.3993 187.038 50.694C186.404 50.9773 185.695 51.119 184.913 51.119C184.007 51.119 183.202 50.9263 182.499 50.541C181.808 50.1557 181.264 49.6003 180.867 48.875C180.471 48.1497 180.272 47.294 180.272 46.308C180.272 45.3333 180.471 44.4833 180.867 43.758C181.264 43.0327 181.808 42.4773 182.499 42.092C183.202 41.7067 184.007 41.514 184.913 41.514C185.831 41.514 186.63 41.7067 187.31 42.092C188.002 42.466 188.529 42.9873 188.891 43.656C189.265 44.3133 189.452 45.05 189.452 45.866ZM187.497 45.815C187.52 45.203 187.412 44.693 187.174 44.285C186.948 43.8657 186.63 43.5597 186.222 43.367C185.826 43.163 185.389 43.061 184.913 43.061C184.154 43.061 183.519 43.2933 183.009 43.758C182.499 44.2227 182.222 44.9083 182.176 45.815H187.497ZM195.08 41.514C195.93 41.514 196.656 41.7237 197.256 42.143C197.857 42.5623 198.276 43.1177 198.514 43.809V38.42H200.469V51H198.514V48.824C198.276 49.5153 197.857 50.0707 197.256 50.49C196.656 50.9093 195.93 51.119 195.08 51.119C194.264 51.119 193.533 50.9263 192.887 50.541C192.253 50.1557 191.754 49.6003 191.391 48.875C191.029 48.1497 190.847 47.294 190.847 46.308C190.847 45.3333 191.029 44.4833 191.391 43.758C191.754 43.0327 192.253 42.4773 192.887 42.092C193.533 41.7067 194.264 41.514 195.08 41.514ZM195.675 43.214C194.814 43.214 194.123 43.4917 193.601 44.047C193.091 44.591 192.836 45.3447 192.836 46.308C192.836 47.2713 193.091 48.0307 193.601 48.586C194.123 49.13 194.814 49.402 195.675 49.402C196.219 49.402 196.707 49.2773 197.137 49.028C197.568 48.7673 197.908 48.4047 198.157 47.94C198.407 47.4753 198.531 46.9313 198.531 46.308C198.531 45.696 198.407 45.1577 198.157 44.693C197.908 44.217 197.568 43.8543 197.137 43.605C196.707 43.3443 196.219 43.214 195.675 43.214Z" fill="#232946"/>
<path d="M69.4734 38.6949L69.398 38.5928L69.383 38.5629L62.5364 28.3991L55.6896 38.563L55.6753 38.5916L55.5992 38.695C54.5006 40.1829 53.9199 41.9505 53.9199 43.8071C53.9199 48.5583 57.7853 52.4234 62.5363 52.4234C67.2872 52.4234 71.1526 48.5582 71.1526 43.8071C71.1528 41.9504 70.572 40.1826 69.4734 38.6949Z" fill="black"/>
<path d="M62.536 55.3591C56.1661 55.3591 50.9839 50.1769 50.9839 43.8071C50.9839 41.3309 51.7553 38.9714 53.215 36.9814L57.7159 30.2998L50.7773 20L36.3207 41.4603C34.0478 44.5535 32.8467 48.2209 32.8467 52.0693C32.8467 61.9563 40.8903 70 50.7774 70C60.1455 70 67.8574 62.7782 68.6412 53.6095C66.8686 54.7176 64.776 55.3591 62.536 55.3591Z" fill="black"/>
</svg>
