<svg width="740" height="743" viewBox="0 0 740 743" fill="none" xmlns="http://www.w3.org/2000/svg">
<path d="M144.783 642.986C196.88 642.986 248.978 642.986 301.075 642.986C353.002 642.986 404.929 642.986 456.799 642.986C486.146 642.986 515.551 642.986 544.898 642.986C545.979 642.986 545.979 641.279 544.898 641.279C492.801 641.279 440.703 641.279 388.606 641.279C336.679 641.279 284.752 641.279 232.882 641.279C203.534 641.279 174.13 641.279 144.783 641.279C143.702 641.279 143.702 642.986 144.783 642.986Z" fill="#232946"/>
<path d="M555.42 607.584C554.965 623.976 556.614 640.368 560.368 656.362C560.596 657.443 562.245 656.988 562.018 655.907C558.321 640.084 556.671 623.863 557.183 607.584C557.126 606.503 555.42 606.503 555.42 607.584Z" fill="#232946"/>
<path d="M623.158 608.893C624.75 624.033 623.783 639.344 620.314 654.142C620.087 655.224 621.679 655.679 621.963 654.597C625.49 639.628 626.513 624.204 624.864 608.893C624.75 607.812 623.044 607.812 623.158 608.893Z" fill="#232946"/>
<path d="M561.051 657.956C580.729 662.964 601.545 662.281 620.826 655.907C621.85 655.565 621.395 653.915 620.371 654.256C601.318 660.517 580.9 661.257 561.506 656.305C560.425 656.077 559.97 657.728 561.051 657.956Z" fill="#232946"/>
<path d="M556.216 608.381C578.34 613.105 601.261 612.991 623.329 608.097C624.409 607.869 623.954 606.218 622.874 606.446C601.091 611.284 578.454 611.341 556.671 606.731C555.59 606.503 555.135 608.153 556.216 608.381Z" fill="#232946"/>
<path d="M569.696 609.007C566.738 602.348 569.411 594.209 571.629 587.664C573.904 580.89 577.146 574.459 581.127 568.54C580.672 568.596 580.217 568.653 579.762 568.71C581.071 570.19 582.492 571.215 584.256 572.068C584.938 572.353 585.677 571.898 585.507 571.101C584.824 568.027 583.63 565.011 584.995 561.937C585.962 559.774 587.327 557.612 588.464 555.563C588.066 555.676 587.668 555.79 587.27 555.847C588.464 556.587 589.659 557.27 590.853 558.01C591.649 558.522 592.332 557.555 592.047 556.815C590.853 554.197 590.057 551.578 591.706 548.96C592.673 547.367 593.924 545.944 595.005 544.464C597.394 541.276 599.896 538.089 602.399 534.959C607.176 528.982 612.124 523.177 617.243 517.485C616.788 517.428 616.333 517.371 615.878 517.315C623.158 526.877 627.765 538.317 629.016 550.269C629.642 556.018 629.471 561.937 628.447 567.629C627.936 570.532 627.196 573.377 626.286 576.166C626.116 576.736 625.888 577.305 625.718 577.817C625.092 579.411 624.068 580.094 622.419 580.435C621.281 580.663 620.656 580.492 619.689 581.232C619.234 581.573 619.12 582.143 619.518 582.598C620.769 583.907 621.281 584.135 620.826 585.899C620.542 587.037 619.859 588.233 619.347 589.371C618.324 591.648 617.186 593.867 615.992 596.03C613.546 600.47 610.759 604.682 607.631 608.666C606.949 609.52 608.143 610.715 608.826 609.861C614.854 602.12 619.632 593.64 623.215 584.533C623.329 584.249 623.215 583.907 622.987 583.679C622.248 582.939 621.509 582.143 620.712 581.403C620.656 581.858 620.599 582.313 620.542 582.769C621.85 581.858 623.329 582.484 624.694 581.915C625.774 581.517 626.343 580.72 626.798 579.695C628.049 577.02 628.846 573.947 629.528 571.101C630.95 564.84 631.405 558.408 630.95 552.034C629.983 539.171 625.262 526.706 617.414 516.461C617.129 516.062 616.504 515.835 616.049 516.29C609.736 523.291 603.65 530.519 597.849 537.918C595.232 541.22 592.446 544.521 590.171 548.106C588.123 551.351 589.09 554.424 590.512 557.725C590.91 557.327 591.308 556.929 591.706 556.53C590.512 555.79 589.317 555.107 588.123 554.367C587.725 554.14 587.156 554.253 586.929 554.652C585.507 557.27 583.289 560.173 582.492 563.076C581.81 565.637 583.232 568.995 583.801 571.499C584.199 571.158 584.654 570.873 585.052 570.532C583.402 569.792 582.094 568.824 580.9 567.458C580.502 567.003 579.819 567.174 579.535 567.629C575.099 574.231 571.629 581.46 569.241 589.086C567.193 595.689 565.202 603.202 568.103 609.804C568.672 610.829 570.151 609.975 569.696 609.007Z" fill="#232946"/>
<path d="M615.992 530.405C613.717 556.189 596.085 576.849 588.748 601.096C588.407 602.177 590.056 602.576 590.398 601.551C597.735 577.134 615.423 556.416 617.698 530.405C617.812 529.267 616.049 529.324 615.992 530.405Z" fill="#232946"/>
<path d="M594.493 544.122C596.313 553.514 598.417 562.791 600.806 572.011C601.09 573.093 602.74 572.638 602.455 571.556C600.067 562.336 597.962 553.001 596.142 543.667C595.972 542.586 594.322 543.041 594.493 544.122Z" fill="#232946"/>
<path d="M613.717 550.155C618.665 546.57 622.931 542.301 626.627 537.349C627.31 536.495 625.831 535.642 625.149 536.495C621.679 541.163 617.584 545.261 612.864 548.676C612.011 549.359 612.864 550.838 613.717 550.155Z" fill="#232946"/>
<path d="M608.427 525.795C609.963 530.69 610.873 536.666 614.627 540.366C615.423 541.163 616.617 539.91 615.821 539.17C612.352 535.699 611.442 529.836 610.02 525.34C609.735 524.315 608.086 524.771 608.427 525.795Z" fill="#232946"/>
<path d="M566.283 608.552C562.814 605.82 560.709 602.006 558.946 598.022C556.956 593.355 555.249 588.574 553.714 583.736C550.813 574.459 548.709 564.897 547.458 555.278C544.898 535.129 546.946 514.753 544.5 494.548C543.988 494.719 543.419 494.832 542.908 495.003C549.278 509.346 564.179 517.941 576.578 526.478C576.464 526.08 576.35 525.681 576.293 525.283C574.587 527.73 572.881 530.178 571.175 532.625C570.776 533.194 571.288 533.934 571.914 533.934C574.132 533.934 576.066 533.65 578.17 532.91C577.829 532.796 577.545 532.625 577.203 532.511C579.308 535.756 581.412 539 583.516 542.244C583.573 541.902 583.63 541.561 583.63 541.219C582.606 542.187 581.753 543.269 580.9 544.464C580.616 544.862 580.9 545.659 581.412 545.716C586.076 546.399 587.725 550.838 588.92 554.823C589.261 555.847 590.91 555.449 590.569 554.367C589.147 549.871 587.099 544.805 581.867 544.065C582.038 544.464 582.208 544.919 582.379 545.318C583.118 544.179 583.858 543.382 584.825 542.472C585.109 542.244 585.166 541.732 584.938 541.447C582.834 538.203 580.73 534.959 578.625 531.714C578.455 531.43 578.056 531.202 577.658 531.316C575.725 531.942 573.848 532.284 571.857 532.227C572.084 532.682 572.369 533.08 572.596 533.536C574.303 531.088 576.009 528.641 577.715 526.194C578 525.795 577.772 525.283 577.431 524.998C565.259 516.632 550.643 508.265 544.386 494.149C544.045 493.41 542.68 493.751 542.794 494.605C545.296 515.55 543.078 536.723 546.036 557.611C547.458 567.686 549.789 577.589 553.031 587.208C555.648 595.006 558.378 604.511 565.032 609.804C565.942 610.43 567.136 609.235 566.283 608.552Z" fill="#232946"/>
<path d="M543.249 496.255C547.855 509.005 551.723 522.437 557.922 534.56C560.994 540.537 564.349 546.399 567.25 552.489C570.378 559.091 573.165 565.808 576.009 572.467C576.407 573.491 577.885 572.581 577.487 571.613C574.814 565.238 572.084 558.864 569.184 552.603C566.34 546.456 563.041 540.593 559.856 534.617C553.486 522.437 549.562 508.777 544.841 495.857C544.5 494.775 542.85 495.231 543.249 496.255Z" fill="#232946"/>
<path d="M545.41 539.512C551.553 540.252 558.264 540.593 562.928 545.204C563.724 546 564.918 544.748 564.122 544.008C559.117 539.113 552.008 538.658 545.41 537.861C544.329 537.691 544.329 539.398 545.41 539.512Z" fill="#232946"/>
<path d="M561.847 516.461C560.823 520.16 560.141 523.974 559.856 527.844C559.629 531.145 559.231 535.016 560.368 538.203C560.71 539.227 562.359 538.772 562.018 537.748C560.937 534.731 561.335 530.974 561.563 527.787C561.847 524.087 562.53 520.445 563.497 516.859C563.781 515.834 562.131 515.379 561.847 516.461Z" fill="#232946"/>
<path d="M549.277 570.532C553.714 570.645 557.979 570.702 562.302 571.898C566.567 573.093 570.776 574.345 575.042 575.597C576.122 575.882 576.577 574.231 575.497 573.947C570.947 572.637 566.454 571.215 561.847 570.019C557.695 568.938 553.543 568.995 549.277 568.881C548.197 568.767 548.197 570.475 549.277 570.532Z" fill="#232946"/>
<path d="M611.499 606.958C615.309 606.446 619.063 606.446 622.874 606.958C622.703 606.56 622.533 606.104 622.362 605.706C622.021 606.218 618.608 606.275 617.926 606.332C616.39 606.56 614.798 606.787 613.262 607.129C613.034 607.186 611.499 607.357 611.442 607.527C611.556 607.243 613.831 607.3 614.172 607.3C615.821 607.3 617.471 607.471 619.12 607.584C619.12 607.015 619.12 606.446 619.12 605.877C617.698 605.82 616.447 605.991 615.025 606.389C614.115 606.617 614.286 608.04 615.253 608.04C617.471 608.04 619.461 607.584 621.623 607.015C622.703 606.731 622.248 605.08 621.168 605.365C619.234 605.877 617.3 606.332 615.253 606.332C615.309 606.901 615.423 607.47 615.48 607.983C616.674 607.641 617.869 607.527 619.12 607.527C620.201 607.527 620.201 605.877 619.12 605.82C616.617 605.706 612.978 604.795 610.703 606.218C609.793 606.787 608.484 608.267 609.679 609.178C610.191 609.576 610.759 609.349 611.385 609.292C613.091 608.95 614.741 608.552 616.447 608.267C618.438 607.926 622.419 608.438 623.784 606.56C624.068 606.161 623.784 605.365 623.272 605.308C619.291 604.739 615.423 604.739 611.442 605.251C610.418 605.365 610.418 607.072 611.499 606.958Z" fill="#232946"/>
<path d="M556.956 608.04C557.752 607.812 558.548 607.641 559.344 607.584C559.742 607.584 560.084 607.527 560.482 607.584C560.652 607.584 561.449 607.527 561.506 607.584C561.449 607.3 561.335 607.015 561.278 606.731C561.278 606.788 561.221 606.844 561.221 606.844C561.562 606.674 561.904 606.446 562.245 606.275C562.188 606.275 562.131 606.275 562.131 606.275C562.302 606.446 562.529 606.674 562.7 606.844C562.7 606.788 562.7 606.731 562.643 606.731C562.359 605.649 560.766 606.105 560.994 607.186C560.994 607.243 560.994 607.3 561.051 607.3C561.107 607.584 561.392 607.812 561.619 607.869C561.676 607.869 561.733 607.869 561.733 607.869C562.188 607.983 562.586 607.755 562.757 607.3C562.757 607.243 562.814 607.186 562.814 607.186C562.927 606.901 562.814 606.56 562.586 606.332C561.961 605.706 560.596 605.82 559.799 605.82C558.662 605.82 557.467 606.048 556.387 606.332C555.477 606.674 555.932 608.324 556.956 608.04Z" fill="#232946"/>
<path d="M558.263 619.48C579.023 623.066 600.578 624.773 621.054 618.626C622.077 618.285 621.679 616.691 620.599 616.976C600.465 623.009 579.193 621.358 558.718 617.829C557.638 617.659 557.183 619.309 558.263 619.48Z" fill="#232946"/>
<path d="M629.755 642.873C666.212 642.873 702.726 642.873 739.183 642.873C740.264 642.873 740.264 641.165 739.183 641.165C702.726 641.165 666.212 641.165 629.755 641.165C628.618 641.165 628.618 642.873 629.755 642.873Z" fill="#232946"/>
<path d="M602.171 679.47C636.524 679.47 670.933 679.47 705.285 679.47C706.366 679.47 706.366 677.762 705.285 677.762C670.933 677.762 636.524 677.762 602.171 677.762C601.091 677.762 601.091 679.47 602.171 679.47Z" fill="#232946"/>
<path d="M617.812 679.299C613.717 682.714 609.622 686.073 605.584 689.487C604.73 690.17 605.925 691.366 606.778 690.683C610.873 687.268 614.968 683.91 619.006 680.495C619.859 679.812 618.608 678.56 617.812 679.299Z" fill="#232946"/>
<path d="M606.096 691.309C607.176 691.309 607.176 689.601 606.096 689.601C605.015 689.601 605.015 691.309 606.096 691.309Z" fill="#232946"/>
<path d="M623.443 689.601C588.806 689.601 554.169 689.601 519.532 689.601C518.451 689.601 518.451 691.309 519.532 691.309C554.169 691.309 588.806 691.309 623.443 691.309C624.523 691.309 624.523 689.601 623.443 689.601Z" fill="#232946"/>
<path d="M519.361 707.245C525.504 702.123 531.817 697.228 538.301 692.504C539.154 691.878 538.357 690.398 537.447 691.024C530.85 695.805 524.423 700.814 518.167 705.993C517.314 706.733 518.508 707.928 519.361 707.245Z" fill="#232946"/>
<path d="M1.57121 676.169C41.725 676.169 81.8787 676.169 122.032 676.169C133.407 676.169 144.782 676.169 156.157 676.169C157.238 676.169 157.238 674.461 156.157 674.461C116.004 674.461 75.85 674.461 35.6962 674.461C24.3212 674.461 12.9462 674.461 1.57121 674.461C0.490586 674.461 0.490586 676.169 1.57121 676.169Z" fill="#232946"/>
<path d="M22.558 691.024C27.9612 686.414 33.4212 681.804 38.8243 677.193C39.6774 676.454 38.4262 675.258 37.6299 675.998C32.2268 680.608 26.7668 685.219 21.3637 689.829C20.5106 690.512 21.7618 691.764 22.558 691.024Z" fill="#232946"/>
<path d="M2.99309 692.675C40.3031 692.675 77.6131 692.675 114.923 692.675C116.004 692.675 116.004 690.967 114.923 690.967C77.6131 690.967 40.3031 690.967 2.99309 690.967C1.91246 690.967 1.91246 692.675 2.99309 692.675Z" fill="#232946"/>
<path d="M101.899 692.333C97.6333 697.114 93.2539 701.781 88.8176 706.449C88.0782 707.245 89.2726 708.441 90.012 707.644C94.4483 702.977 98.7708 698.31 103.093 693.529C103.89 692.732 102.638 691.537 101.899 692.333Z" fill="#232946"/>
<path d="M72.7787 709.181C105.596 709.181 138.356 709.181 171.172 709.181C172.253 709.181 172.253 707.473 171.172 707.473C138.356 707.473 105.596 707.473 72.7787 707.473C71.6981 707.473 71.6981 709.181 72.7787 709.181Z" fill="#232946"/>
<path d="M49.517 647.54C63.3945 647.54 77.272 647.54 91.2064 647.54C92.287 647.54 92.287 645.832 91.2064 645.832C77.3289 645.832 63.4514 645.832 49.517 645.832C48.4364 645.832 48.4364 647.54 49.517 647.54Z" fill="#232946"/>
<path d="M101.728 653.118C105.994 653.118 110.316 653.118 114.582 653.118C115.663 653.118 115.663 651.41 114.582 651.41C110.316 651.41 105.994 651.41 101.728 651.41C100.591 651.41 100.591 653.118 101.728 653.118Z" fill="#232946"/>
<path d="M70.8452 348.784C70.8452 358.062 70.8452 367.396 70.8452 376.673C70.8452 377.755 72.5515 377.755 72.5515 376.673C72.5515 367.396 72.5515 358.062 72.5515 348.784C72.5515 347.703 70.8452 347.703 70.8452 348.784Z" fill="#232946"/>
<path d="M42.2367 378.039C65.1005 378.039 87.9642 378.039 110.828 378.039C111.909 378.039 111.909 376.332 110.828 376.332C87.9642 376.332 65.1005 376.332 42.2367 376.332C41.1561 376.332 41.1561 378.039 42.2367 378.039Z" fill="#232946"/>
<path d="M90.1255 378.836C90.1255 386.008 90.1255 393.122 90.1255 400.294C90.1255 401.375 91.8317 401.375 91.8317 400.294C91.8317 393.122 91.8317 386.008 91.8317 378.836C91.8317 377.698 90.1255 377.698 90.1255 378.836Z" fill="#232946"/>
<path d="M71.1861 403.253C89.3861 403.253 107.643 403.253 125.843 403.253C126.924 403.253 126.924 401.546 125.843 401.546C107.643 401.546 89.3861 401.546 71.1861 401.546C70.0486 401.546 70.0486 403.253 71.1861 403.253Z" fill="#232946"/>
<path d="M530.167 328.807C530.167 331.083 530.167 333.303 530.167 335.58C530.167 336.661 531.874 336.661 531.874 335.58C531.874 333.303 531.874 331.083 531.874 328.807C531.874 327.725 530.167 327.725 530.167 328.807Z" fill="#232946"/>
<path d="M531.533 330.173C570.663 330.173 609.793 330.173 648.922 330.173C650.003 330.173 650.003 328.465 648.922 328.465C609.793 328.465 570.663 328.465 531.533 328.465C530.452 328.465 530.452 330.173 531.533 330.173Z" fill="#232946"/>
<path d="M532.556 336.433C571.345 336.433 610.134 336.433 648.865 336.433C649.946 336.433 649.946 334.726 648.865 334.726C610.077 334.726 571.288 334.726 532.556 334.726C531.475 334.726 531.475 336.433 532.556 336.433Z" fill="#232946"/>
<path d="M648.638 328.807C648.41 331.14 648.524 333.474 648.922 335.807C649.093 336.889 650.742 336.433 650.572 335.352C650.174 333.189 650.117 330.969 650.344 328.807C650.458 327.725 648.752 327.725 648.638 328.807Z" fill="#232946"/>
<path d="M539.552 328.863C539.552 312.984 539.552 297.104 539.552 281.224C539.552 280.143 537.846 280.143 537.846 281.224C537.846 297.104 537.846 312.984 537.846 328.863C537.846 330.002 539.552 330.002 539.552 328.863Z" fill="#232946"/>
<path d="M539.552 281.509C544.386 279.574 549.505 279.858 553.998 282.533C554.965 283.102 555.818 281.623 554.851 281.053C550.016 278.208 544.272 277.752 539.097 279.858C538.073 280.257 538.528 281.907 539.552 281.509Z" fill="#232946"/>
<path d="M553.714 282.135C553.714 297.389 553.714 312.699 553.714 327.953C553.714 329.034 555.42 329.034 555.42 327.953C555.42 312.699 555.42 297.389 555.42 282.135C555.42 281.053 553.714 281.053 553.714 282.135Z" fill="#232946"/>
<path d="M555.647 294.884C559.117 293.461 562.757 293.689 565.999 295.681C566.965 296.25 567.819 294.77 566.852 294.201C563.269 292.038 559.06 291.64 555.192 293.234C554.169 293.632 554.624 295.283 555.647 294.884Z" fill="#232946"/>
<path d="M565.657 295.624C565.657 306.324 565.657 316.968 565.657 327.668C565.657 328.75 567.364 328.75 567.364 327.668C567.364 316.968 567.364 306.324 567.364 295.624C567.364 294.543 565.657 294.543 565.657 295.624Z" fill="#232946"/>
<path d="M539.779 294.6C544.614 293.518 549.391 293.86 554.055 295.51C555.079 295.852 555.534 294.201 554.51 293.86C549.562 292.095 544.443 291.868 539.324 292.949C538.3 293.177 538.755 294.827 539.779 294.6Z" fill="#232946"/>
<path d="M554.453 314.35C558.093 313.382 561.733 313.268 565.43 314.065C566.511 314.293 566.966 312.642 565.885 312.414C561.904 311.561 557.979 311.618 553.998 312.699C552.974 312.984 553.373 314.634 554.453 314.35Z" fill="#232946"/>
<path d="M587.156 328.294C587.156 325.107 587.156 321.92 587.156 318.732C587.156 317.651 585.45 317.651 585.45 318.732C585.45 321.92 585.45 325.107 585.45 328.294C585.45 329.376 587.156 329.376 587.156 328.294Z" fill="#232946"/>
<path d="M586.303 319.244C604.788 319.244 623.215 319.244 641.7 319.244C642.78 319.244 642.78 317.537 641.7 317.537C623.215 317.537 604.788 317.537 586.303 317.537C585.166 317.537 585.166 319.244 586.303 319.244Z" fill="#232946"/>
<path d="M642.268 320.155C643.349 320.155 643.349 318.448 642.268 318.448C641.131 318.448 641.131 320.155 642.268 320.155Z" fill="#232946"/>
<path d="M641.415 319.301C641.415 322.204 641.415 325.107 641.415 328.01C641.415 329.091 643.121 329.091 643.121 328.01C643.121 325.107 643.121 322.204 643.121 319.301C643.121 318.22 641.415 318.22 641.415 319.301Z" fill="#232946"/>
<path d="M597.905 318.106C597.905 315.09 597.905 312.13 597.905 309.113C597.905 308.032 596.199 308.032 596.199 309.113C596.199 312.13 596.199 315.09 596.199 318.106C596.199 319.188 597.905 319.188 597.905 318.106Z" fill="#232946"/>
<path d="M597.053 309.683C615.196 309.683 633.339 309.683 651.539 309.683C652.619 309.683 652.619 307.975 651.539 307.975C633.396 307.975 615.253 307.975 597.053 307.975C595.972 307.975 595.972 309.683 597.053 309.683Z" fill="#232946"/>
<path d="M650.97 308.829C650.97 311.333 650.97 313.837 650.97 316.342C650.97 317.423 652.676 317.423 652.676 316.342C652.676 313.837 652.676 311.333 652.676 308.829C652.676 307.69 650.97 307.69 650.97 308.829Z" fill="#232946"/>
<path d="M641.074 319.529C644.373 319.529 647.671 319.529 650.97 319.529C652.051 319.529 652.051 317.822 650.97 317.822C647.671 317.822 644.373 317.822 641.074 317.822C639.936 317.822 639.936 319.529 641.074 319.529Z" fill="#232946"/>
<path d="M650.856 316.399C650.742 317.025 650.742 317.594 650.913 318.163C651.027 318.618 651.539 318.903 651.937 318.732C652.392 318.618 652.676 318.106 652.506 317.708C652.449 317.423 652.392 317.082 652.449 316.854C652.506 316.399 652.335 315.886 651.88 315.83C651.482 315.716 650.913 315.943 650.856 316.399Z" fill="#232946"/>
<path d="M610.02 309.227C610.759 312.13 610.93 315.09 610.532 318.106C610.418 319.188 612.124 319.188 612.238 318.106C612.636 314.976 612.409 311.845 611.669 308.772C611.385 307.747 609.735 308.203 610.02 309.227Z" fill="#232946"/>
<path d="M622.874 319.131C623.272 321.976 623.044 324.765 622.362 327.497C622.078 328.579 623.727 329.034 624.011 327.953C624.808 324.879 624.978 321.806 624.523 318.675C624.409 317.594 622.76 318.049 622.874 319.131Z" fill="#232946"/>
<path d="M611.726 388.398C611.726 392.895 611.726 397.334 611.726 401.831C611.726 402.912 613.432 402.912 613.432 401.831C613.432 397.334 613.432 392.895 613.432 388.398C613.432 387.26 611.726 387.26 611.726 388.398Z" fill="#232946"/>
<path d="M598.531 402.058C609.906 402.058 621.281 402.058 632.656 402.058C633.737 402.058 633.737 400.351 632.656 400.351C621.281 400.351 609.906 400.351 598.531 400.351C597.451 400.351 597.451 402.058 598.531 402.058Z" fill="#232946"/>
<path d="M579.137 210.591C579.137 220.836 579.137 231.138 579.137 241.383C579.137 242.464 580.843 242.464 580.843 241.383C580.843 231.138 580.843 220.836 580.843 210.591C580.843 209.509 579.137 209.509 579.137 210.591Z" fill="#232946"/>
<path d="M581.298 210.534C594.265 210.534 607.176 210.534 620.144 210.534C621.224 210.534 621.224 208.826 620.144 208.826C607.176 208.826 594.265 208.826 581.298 208.826C580.217 208.826 580.217 210.534 581.298 210.534Z" fill="#232946"/>
<path d="M620.201 210.306C620.201 220.209 620.201 230.113 620.201 239.96C620.201 241.041 621.907 241.041 621.907 239.96C621.907 230.056 621.907 220.153 621.907 210.306C621.907 209.225 620.201 209.225 620.201 210.306Z" fill="#232946"/>
<path d="M579.763 242.35C593.526 242.35 607.29 242.35 621.054 242.35C622.134 242.35 622.134 240.643 621.054 240.643C607.29 240.643 593.526 240.643 579.763 240.643C578.682 240.643 578.682 242.35 579.763 242.35Z" fill="#232946"/>
<path d="M582.947 214.119C582.947 221.917 582.947 229.658 582.947 237.455C582.947 238.537 584.653 238.537 584.653 237.455C584.653 229.658 584.653 221.917 584.653 214.119C584.653 213.038 582.947 213.038 582.947 214.119Z" fill="#232946"/>
<path d="M584.199 214.802C594.834 214.802 605.527 214.802 616.162 214.802C617.243 214.802 617.243 213.095 616.162 213.095C605.527 213.095 594.834 213.095 584.199 213.095C583.118 213.095 583.118 214.802 584.199 214.802Z" fill="#232946"/>
<path d="M615.537 214.119C615.537 221.348 615.537 228.519 615.537 235.748C615.537 236.829 617.243 236.829 617.243 235.748C617.243 228.519 617.243 221.348 617.243 214.119C617.243 213.038 615.537 213.038 615.537 214.119Z" fill="#232946"/>
<path d="M584.199 238.309C594.777 238.309 605.356 238.309 615.992 238.309C617.072 238.309 617.072 236.601 615.992 236.601C605.413 236.601 594.834 236.601 584.199 236.601C583.118 236.601 583.118 238.309 584.199 238.309Z" fill="#232946"/>
<path d="M604.332 228.064C599.839 224.649 606.551 217.534 609.679 221.803C612.579 225.674 607.859 230.341 603.821 228.178C602.854 227.666 602.001 229.145 602.968 229.658C605.584 231.081 609.053 230.682 610.93 228.235C612.864 225.787 612.636 221.917 610.191 219.868C607.631 217.762 603.991 219.185 602.228 221.575C600.351 224.194 600.92 227.609 603.479 229.544C604.389 230.17 605.186 228.69 604.332 228.064Z" fill="#232946"/>
<path d="M598.929 236.488C598.702 231.991 604.219 230.284 607.688 230.284C611.954 230.284 613.319 234.097 615.082 237.341C615.594 238.309 617.072 237.455 616.561 236.488C615.366 234.325 614.229 231.479 612.238 229.885C610.418 228.462 608.143 228.519 605.982 228.747C602 229.202 596.939 231.65 597.223 236.488C597.28 237.569 598.986 237.569 598.929 236.488Z" fill="#232946"/>
<path d="M584.938 232.39C586.189 230.056 590.796 230.967 592.503 231.877C594.266 232.845 595.29 234.439 595.745 236.374C595.972 237.455 597.621 237 597.394 235.918C596.711 232.959 594.664 230.625 591.706 229.658C589.204 228.861 584.938 228.804 583.516 231.479C582.948 232.503 584.426 233.357 584.938 232.39Z" fill="#232946"/>
<path d="M588.237 228.178C586.36 228.121 586.815 225.332 587.611 224.364C588.635 223.112 590.683 222.941 591.877 224.137C592.844 225.047 593.128 226.755 592.332 227.836C591.763 228.633 590.91 228.804 590 228.804C589.659 228.804 588.237 228.861 588.009 228.576C587.384 227.666 585.905 228.519 586.531 229.43C587.213 230.455 588.635 230.511 589.773 230.511C591.138 230.568 592.446 230.227 593.413 229.202C595.233 227.21 594.607 223.852 592.446 222.372C590.114 220.836 586.872 221.689 585.678 224.194C584.654 226.413 585.393 229.772 588.237 229.828C589.374 229.942 589.374 228.235 588.237 228.178Z" fill="#232946"/>
<path d="M240.162 361.875C242.835 364.038 246.134 363.127 248.636 361.021C252.163 358.119 253.926 353.167 254.608 348.784C256.371 337.629 251.878 327.042 250.115 316.228C246.93 296.136 255.689 274.622 271.955 262.556C279.861 256.636 292.885 250.318 289.814 238.195C289.53 237.114 287.88 237.569 288.164 238.651C291.065 250.205 277.643 256.067 270.306 261.645C263.708 266.71 258.362 273.256 254.551 280.598C250.798 287.713 248.523 295.624 247.897 303.649C247.158 313.382 249.717 322.432 251.821 331.823C253.073 337.515 253.869 343.491 252.788 349.297C252.276 351.972 251.366 354.59 249.944 356.923C248.352 359.428 244.541 363.298 241.356 360.737C240.56 359.997 239.309 361.192 240.162 361.875Z" fill="#232946"/>
<path d="M289.188 237.512C282.761 237.797 277.13 232.788 277.472 226.186C277.813 219.299 285.946 212.924 292.828 214.746C298.97 216.396 303.691 223.169 302.155 229.487C300.62 235.805 293.51 237.171 288.05 238.081C286.97 238.252 287.425 239.903 288.505 239.732C295.558 238.594 303.748 236.089 304.203 227.552C304.544 220.608 298.345 213.095 291.235 212.81C283.728 212.469 276.164 218.616 275.765 226.243C275.424 233.756 281.851 239.561 289.188 239.277C290.269 239.163 290.269 237.455 289.188 237.512Z" fill="#232946"/>
<path d="M280.77 233.073C283.5 226.186 298.06 225.047 299.767 233.243C299.994 234.325 301.644 233.87 301.416 232.788C299.312 222.771 282.42 224.251 279.121 232.617C278.723 233.642 280.372 234.04 280.77 233.073Z" fill="#232946"/>
<path d="M289.302 225.389C288.108 224.535 287.653 222.885 288.449 221.632C289.359 220.096 291.293 219.925 292.771 220.722C293.909 221.348 294.136 222.771 293.454 223.852C292.601 225.161 290.781 225.332 289.359 224.991C288.278 224.763 287.823 226.413 288.904 226.641C291.179 227.153 293.909 226.641 295.046 224.421C296.07 222.429 295.331 220.039 293.283 219.071C291.008 218.047 288.278 218.502 286.97 220.722C285.662 222.828 286.515 225.446 288.449 226.812C289.359 227.552 290.212 226.072 289.302 225.389Z" fill="#232946"/>
<path d="M313.417 207.859C319.389 192.036 336.565 183.954 352.547 182.872C363.126 182.132 373.704 183.783 384.056 185.775C393.838 187.71 404.019 190.784 414.029 190.442C422.276 190.157 430.75 186.743 434.618 179.059C435.129 178.091 433.651 177.237 433.139 178.205C428.646 187.084 418.294 189.361 409.138 188.621C398.445 187.767 387.923 184.58 377.401 182.815C360.339 179.969 342.139 179.571 326.953 189.19C320.071 193.572 314.611 199.719 311.711 207.403C311.369 208.428 313.019 208.883 313.417 207.859Z" fill="#232946"/>
<path d="M441.5 178.091C456.515 178.091 471.586 178.091 486.601 178.091C487.682 178.091 487.682 176.384 486.601 176.384C471.586 176.384 456.515 176.384 441.5 176.384C440.362 176.384 440.362 178.091 441.5 178.091Z" fill="#232946"/>
<path d="M440.874 176.27C438.201 173.652 441.101 169.212 443.206 167.22C445.765 164.716 449.291 163.748 452.704 165.114C452.988 165.228 453.557 165.057 453.671 164.716C455.718 159.935 460.552 156.463 465.842 156.69C471.359 156.918 476.022 161.073 477.387 166.309C477.501 166.822 478.184 167.106 478.639 166.822C481.141 165.285 483.7 167.106 484.724 169.44C485.634 171.603 485.407 174.05 485.179 176.384C485.065 177.465 486.772 177.465 486.885 176.384C487.227 172.969 487.454 168.928 484.724 166.309C482.79 164.488 480.117 163.919 477.842 165.342C478.24 165.513 478.695 165.683 479.094 165.854C477.558 160.162 472.667 155.609 466.695 155.04C460.552 154.414 454.637 158.227 452.249 163.862C452.59 163.748 452.874 163.577 453.216 163.464C448.666 161.642 443.888 163.577 440.931 167.334C438.713 170.123 436.779 174.619 439.793 177.522C440.476 178.262 441.67 177.067 440.874 176.27Z" fill="#232946"/>
<path d="M473.236 184.637C480.231 183.84 484.326 191.182 485.407 197.101C486.545 203.191 485.464 209.282 484.838 215.372C483.871 224.535 484.497 235.577 493.199 240.927C494.109 241.496 495.019 240.017 494.052 239.447C482.165 232.162 487.113 215.941 487.568 204.785C487.91 196.305 484.554 181.677 473.236 182.929C472.155 183.043 472.155 184.75 473.236 184.637Z" fill="#232946"/>
<path d="M502.64 231.308C497.521 244.228 492.459 257.148 487.34 270.012C486.942 271.036 488.592 271.491 488.99 270.467C494.108 257.547 499.17 244.627 504.289 231.764C504.687 230.739 503.038 230.341 502.64 231.308Z" fill="#232946"/>
<path d="M503.436 232.39C512.309 231.934 521.124 232.162 529.94 233.187C529.656 232.845 529.371 232.447 529.144 232.105C524.935 245.594 521.523 259.254 518.793 273.085C518.565 274.167 520.214 274.622 520.442 273.54C523.172 259.71 526.641 246.05 530.793 232.56C530.964 231.991 530.509 231.536 529.997 231.479C521.181 230.455 512.366 230.227 503.493 230.682C502.356 230.739 502.356 232.447 503.436 232.39Z" fill="#232946"/>
<path d="M487.739 271.662C492.971 271.89 498.147 272.174 503.379 272.516C508.441 272.801 513.844 272.687 518.622 274.622C519.646 275.02 520.101 273.37 519.077 272.971C514.527 271.093 509.351 271.207 504.517 270.922C498.943 270.581 493.369 270.296 487.739 270.012C486.658 269.898 486.658 271.605 487.739 271.662Z" fill="#232946"/>
<path d="M504.233 238.081C509.693 238.195 515.153 238.594 520.556 239.334C521.636 239.504 522.091 237.854 521.011 237.683C515.437 236.886 509.863 236.431 504.233 236.317C503.095 236.317 503.095 238.024 504.233 238.081Z" fill="#232946"/>
<path d="M502.583 241.952C505.654 241.838 508.725 241.895 511.797 242.179C512.877 242.293 512.877 240.586 511.797 240.472C508.725 240.187 505.654 240.073 502.583 240.244C501.502 240.301 501.502 242.009 502.583 241.952Z" fill="#232946"/>
<path d="M498.829 249.635C505.37 249.237 511.569 248.668 517.996 250.262C519.077 250.546 519.532 248.896 518.451 248.611C511.854 247.017 505.54 247.53 498.829 247.928C497.692 247.985 497.692 249.692 498.829 249.635Z" fill="#232946"/>
<path d="M499.114 254.644C502.867 254.359 506.621 254.359 510.375 254.701C511.456 254.815 511.456 253.107 510.375 252.994C506.621 252.652 502.867 252.652 499.114 252.937C498.033 253.05 497.976 254.758 499.114 254.644Z" fill="#232946"/>
<path d="M496.156 261.246C501.275 260.905 506.28 261.076 511.342 261.759C512.422 261.929 512.422 260.222 511.342 260.051C506.28 259.368 501.218 259.197 496.156 259.539C495.076 259.596 495.076 261.303 496.156 261.246Z" fill="#232946"/>
<path d="M213.146 184.864C215.421 187.938 218.72 189.19 222.076 190.727C226.057 192.548 229.697 194.995 232.654 198.24C239.366 205.468 241.584 215.201 241.754 224.82C242.152 242.862 236.067 261.759 244.257 278.834C244.712 279.801 246.191 278.947 245.736 277.98C237.147 259.994 244.769 239.846 243.29 220.949C242.664 212.753 240.332 204.728 235.043 198.353C232.541 195.337 229.469 192.719 226.057 190.784C222.246 188.621 217.298 187.653 214.625 184.01C213.999 183.157 212.521 184.01 213.146 184.864Z" fill="#232946"/>
<path d="M193.695 160.789C192.216 158.91 192.33 157.601 194.036 156.861C194.775 156.463 195.515 156.178 196.368 156.008C197.449 155.78 198.643 155.723 199.78 155.78C203.193 155.951 206.662 156.861 206.492 161.016C206.321 165.911 205.411 170.749 204.217 175.473C202.965 180.311 201.43 185.035 199.78 189.759C199.439 190.784 199.155 191.979 198.643 192.946C197.619 194.711 196.027 194.654 194.32 194.654C192.216 194.654 189.543 194.939 187.495 194.369C185.22 193.743 184.709 191.467 186.927 189.987C187.95 189.304 189.372 189.19 190.567 189.19C192.102 189.19 193.467 189.531 194.775 188.507C197.278 186.572 197.676 181.335 198.245 178.547C199.098 174.505 200.52 169.554 200.235 165.456C200.008 162.325 196.937 162.211 194.719 160.902C193.752 160.333 192.899 161.813 193.865 162.382C195.629 163.407 198.188 163.521 198.529 165.854C198.927 168.586 197.79 172.286 197.278 175.018C196.766 177.636 196.197 180.254 195.515 182.815C195.003 184.75 194.775 187.084 192.216 187.596C191.192 187.824 189.941 187.482 188.86 187.653C186.13 188.052 183.457 189.987 183.855 193.06C184.367 196.931 188.974 196.248 191.818 196.361C195.344 196.475 198.87 196.988 200.463 193.231C202.454 188.564 203.875 183.441 205.24 178.603C206.662 173.595 207.743 168.415 208.141 163.236C208.482 159.195 208.653 155.951 204.16 154.869C200.235 153.902 194.832 153.446 191.761 156.634C189.714 158.74 190.225 162.894 193.752 162.61C194.775 162.382 194.775 160.675 193.695 160.789Z" fill="#232946"/>
<path d="M186.813 166.879C186.756 166.822 186.699 166.765 186.642 166.708C186.415 166.48 186.073 166.423 185.789 166.48C184.14 167.049 183.514 169.724 183.059 171.204C182.263 173.936 182.092 176.725 182.49 179.571C182.604 180.652 184.31 180.652 184.197 179.571C183.969 177.579 183.912 175.644 184.253 173.652C184.424 172.627 186.187 168.643 185.562 168.074C186.358 168.871 187.552 167.675 186.813 166.879Z" fill="#232946"/>
<path d="M181.069 160.618C175.836 167.277 172.481 175.302 174.699 183.84C174.983 184.921 176.633 184.466 176.348 183.384C174.301 175.53 177.486 167.96 182.263 161.813C182.946 160.959 181.751 159.764 181.069 160.618Z" fill="#232946"/>
<path d="M173.902 152.934C165.2 164.374 161.105 178.831 162.584 193.174C162.698 194.255 164.404 194.255 164.29 193.174C162.869 179.116 166.793 165.057 175.381 153.788C176.007 152.934 174.528 152.08 173.902 152.934Z" fill="#232946"/>
<path d="M161.788 211.103C157.409 213.209 153.314 216.111 150.072 219.754C146.773 223.511 145.749 227.552 145.238 232.447C144.1 243.659 139.948 255.953 128.687 260.677C127.663 261.076 128.118 262.726 129.142 262.328C138.128 258.571 143.361 250.034 145.579 240.813C146.887 235.292 146.261 228.747 149.162 223.795C152.119 218.73 157.466 215.03 162.641 212.526C163.665 212.127 162.812 210.647 161.788 211.103Z" fill="#232946"/>
<path d="M104.629 290.9C100.875 291.014 96.6093 289.42 95.2443 285.55C93.6518 280.997 97.0643 276.557 100.704 274.223C107.757 269.67 117.255 267.906 125.445 267.792C129.597 267.735 134.317 267.792 137.957 270.012C142.621 272.857 143.417 278.208 139.777 282.249C134.261 288.396 124.762 289.022 117.141 289.591C116.061 289.648 116.061 291.355 117.141 291.298C124.762 290.729 133.294 290.046 139.436 284.924C145.067 280.257 145.465 272.516 138.867 268.475C132.042 264.32 121.634 265.686 114.241 267.28C107.131 268.816 97.4055 271.605 94.2205 278.948C90.9218 286.461 97.2349 292.721 104.742 292.494C105.766 292.551 105.766 290.843 104.629 290.9Z" fill="#232946"/>
<path d="M104.345 291.583C102.923 293.86 101.558 296.136 100.136 298.356C99.6808 299.096 100.591 299.893 101.33 299.551C104.799 297.673 108.553 296.478 112.079 294.827C114.013 293.974 115.89 292.949 117.71 291.811C118.336 291.412 119.075 291.185 119.246 290.388C119.359 289.989 119.132 289.42 118.677 289.363C118.62 289.363 118.563 289.363 118.506 289.306C118.108 289.249 117.539 289.42 117.483 289.876C117.483 289.932 117.483 289.932 117.483 289.989C117.255 291.071 118.904 291.526 119.132 290.445C119.132 290.388 119.132 290.388 119.132 290.331C118.791 290.502 118.449 290.729 118.108 290.9C118.165 290.9 118.222 290.9 118.279 290.957C118.108 290.615 117.881 290.274 117.71 289.932C117.539 290.502 114.354 291.811 113.672 292.209C111.966 293.12 110.203 293.86 108.383 294.6C105.709 295.681 103.093 296.706 100.591 298.072C100.989 298.47 101.387 298.868 101.785 299.267C103.207 296.99 104.572 294.713 105.994 292.494C106.392 291.526 104.913 290.672 104.345 291.583Z" fill="#232946"/>
<path d="M106.221 281.736C106.164 281.623 106.164 281.395 106.335 281.395C106.79 281.395 106.278 281.964 106.221 282.021C105.937 282.192 104.97 282.419 105.027 281.85C105.084 281.167 106.392 280.427 106.619 281.452C106.676 281.736 106.449 282.078 106.164 282.135C105.994 282.192 105.88 282.192 105.766 282.078C105.709 282.021 105.595 281.964 105.709 281.964C106.79 282.021 106.79 280.314 105.709 280.257C104.572 280.143 103.719 281.338 104.003 282.419C104.287 283.501 105.539 284.07 106.562 283.785C107.586 283.501 108.382 282.59 108.382 281.509C108.382 280.427 107.529 279.517 106.562 279.289C104.458 278.777 102.24 281.85 104.06 283.387C105.539 284.639 108.496 283.501 108.325 281.395C108.212 280.257 106.96 279.346 105.823 279.744C104.685 280.143 104.23 281.566 104.799 282.59C105.254 283.558 106.733 282.704 106.221 281.736Z" fill="#232946"/>
<path d="M118.791 280.2C118.734 279.858 118.563 279.403 118.905 279.118C119.075 278.947 119.359 278.947 119.587 278.947C120.156 279.061 120.042 279.687 119.644 279.972C119.416 280.143 119.189 280.143 119.018 279.915C118.848 279.687 118.904 279.63 119.075 279.517C119.189 279.46 118.848 279.517 119.132 279.46C119.814 279.346 118.677 280.143 118.848 279.574C118.506 280.655 120.156 281.053 120.497 280.029C120.781 279.004 119.814 277.98 118.791 278.151C117.596 278.378 117.312 279.801 118.051 280.655C118.734 281.452 119.985 281.281 120.497 280.37C121.009 279.46 120.668 278.264 119.644 277.923C118.62 277.581 117.483 278.208 117.255 279.232C116.971 280.37 117.767 281.509 118.905 281.793C120.952 282.249 122.658 279.46 121.179 277.923C120.44 277.183 119.246 277.126 118.336 277.525C117.085 278.151 117.028 279.46 117.255 280.655C117.312 281.736 118.961 281.281 118.791 280.2Z" fill="#232946"/>
<path d="M131.417 276.386C131.645 276.386 131.872 276.443 132.156 276.443V276.386C132.213 276.329 132.213 276.215 132.27 276.159C132.327 276.045 132.498 275.931 132.611 275.874C132.896 275.76 133.18 275.76 133.351 276.045C133.578 276.5 133.18 277.354 132.611 277.012C132.27 276.785 132.213 276.215 132.725 276.329C132.839 276.329 132.896 276.386 132.953 276.443C132.953 276.443 132.953 276.557 132.953 276.443C132.953 276.329 132.953 276.5 132.896 276.5C132.725 276.614 132.668 276.728 132.498 276.614C132.1 276.329 131.531 276.557 131.303 276.898C131.076 277.354 131.246 277.809 131.588 278.094C133.237 279.289 135.455 276.898 134.147 275.305C132.953 273.882 130.393 274.793 130.507 276.671C130.564 277.638 131.303 278.492 132.213 278.72C133.123 278.947 134.09 278.492 134.602 277.695C135.74 275.931 134.147 273.484 132.043 274.167C131.076 274.508 130.223 275.476 130.336 276.557C130.45 277.752 132.156 278.378 132.782 277.183C133.351 276.272 131.929 275.419 131.417 276.386Z" fill="#232946"/>
<path d="M165.769 226.755C172.765 222.885 178.85 217.762 183.912 211.558C184.595 210.704 183.4 209.509 182.718 210.363C177.77 216.453 171.798 221.462 164.916 225.275C163.949 225.787 164.802 227.267 165.769 226.755Z" fill="#232946"/>
<path d="M250.854 228.235C249.603 235.406 249.091 242.635 249.432 249.92C249.489 251.001 251.196 251.001 251.139 249.92C250.797 242.805 251.252 235.691 252.504 228.69C252.674 227.609 251.025 227.153 250.854 228.235Z" fill="#232946"/>
<path d="M242.152 394.602C242.152 385.894 246.247 377.641 253.243 372.405C254.096 371.779 253.243 370.299 252.39 370.925C244.882 376.503 240.503 385.211 240.503 394.602C240.446 395.684 242.152 395.684 242.152 394.602Z" fill="#232946"/>
<path d="M337.418 624.432C338.328 632.628 339.75 641.621 342.025 651.353C345.097 664.501 349.021 675.998 352.945 685.674C351.865 686.642 348.623 689.203 343.845 689.544C340.831 689.772 338.442 689.032 337.077 688.52C335.03 681.405 333.039 674.006 331.219 666.322C327.465 650.5 324.735 635.417 322.745 621.358C327.693 622.383 332.584 623.407 337.418 624.432Z" fill="#191919"/>
<path d="M465.103 619.082C464.363 627.221 463.112 636.27 461.008 646.003C458.05 659.777 454.126 671.73 450.145 681.804C450.713 682.316 453.955 685.389 458.96 685.162C463.283 684.991 466.07 682.43 466.752 681.804C468.06 674.917 469.312 667.973 470.563 661.029C473.293 645.832 475.738 630.863 478.07 616.065C473.748 617.033 469.425 618.057 465.103 619.082Z" fill="#191919"/>
<path d="M363.41 596.372C364.718 605.08 366.254 614.073 368.017 623.293C370.577 636.669 373.477 649.418 376.548 661.484C375.24 662.281 372.624 663.59 369.041 663.818C366.027 663.989 363.638 663.306 362.273 662.793C360.567 654.711 358.917 646.515 357.268 638.319C354.253 623.123 351.467 608.153 348.793 593.355C353.685 594.323 358.519 595.347 363.41 596.372Z" fill="#191919"/>
<path d="M443.661 594.664C442.125 603.259 440.76 612.252 439.566 621.586C437.917 634.449 436.779 646.743 436.097 658.468C437.064 659.094 439.339 660.403 442.58 660.574C446.05 660.688 448.609 659.322 449.576 658.752C449.007 652.036 448.78 644.58 449.121 636.612C449.804 618.911 453.045 603.657 456.628 591.648C452.306 592.615 447.984 593.64 443.661 594.664Z" fill="#191919"/>
<path d="M544.728 404.221C554.681 421.979 547.003 441.615 528.348 490.393C519.361 513.843 502.925 556.929 479.72 618.342C456.913 626.651 419.148 636.896 372.453 633.652C345.324 631.774 322.574 625.912 305.341 619.878C302.781 615.268 293.909 598.022 300.563 581.289C304.26 572.011 311.711 565.352 327.522 557.498C343.106 549.757 370.577 538.886 410.503 536.894C394.862 458.975 421.65 395.114 463.34 380.373C490.696 370.754 531.021 379.804 544.728 404.221Z" fill="white" stroke="#191919" stroke-width="2" stroke-miterlimit="10"/>
<path d="M541.088 410.653C524.594 431.541 520.841 459.601 514.527 484.701C507.759 511.566 499.967 538.374 488.308 563.588C481.881 577.419 474.317 590.737 465.274 603.031C464.648 603.942 466.127 604.796 466.753 603.885C482.621 582.256 493.825 557.725 502.47 532.454C511.229 506.728 517.03 480.205 523.855 453.966C527.722 439.054 532.67 424.142 542.339 411.905C542.965 410.994 541.77 409.799 541.088 410.653Z" fill="#191919"/>
<path d="M305.682 607.527C343.618 621.472 384.966 625.57 424.892 619.366C436.324 617.602 447.642 614.984 458.733 611.569C459.756 611.227 459.358 609.576 458.278 609.918C419.603 621.87 378.084 623.692 338.499 615.268C327.522 612.935 316.659 609.747 306.137 605.877C305.113 605.478 304.658 607.129 305.682 607.527Z" fill="#191919"/>
<path d="M439.224 562.791C448.779 565.921 456.912 572.239 462.372 580.777C462.941 581.687 464.42 580.833 463.851 579.923C458.164 571.044 449.689 564.441 439.679 561.14C438.599 560.799 438.144 562.449 439.224 562.791Z" fill="#191919"/>
<path d="M268.144 636.498C272.694 643.328 277.244 650.215 281.737 657.045C252.617 683.227 248.864 690.683 251.025 692.504C255.347 696.09 286.344 680.153 289.529 678.502C301.075 672.583 309.777 666.835 315.578 662.737C313.53 657.159 310.8 650.898 307.047 644.296C302.099 635.587 296.639 628.245 291.463 622.269C283.671 626.936 275.879 631.717 268.144 636.498Z" fill="#191919"/>
<path d="M438.314 502.345C440.362 506.785 442.523 513.103 442.864 520.729C443.376 532.227 439.622 541.39 436.779 546.684C435.243 548.676 432.513 551.977 428.475 555.563C428.475 555.563 419.318 563.645 404.758 569.849C389.914 576.223 346.746 583.907 288.107 585.387C289.814 592.672 292.885 601.608 298.345 611.227C301.359 616.52 304.658 621.187 307.9 625.229C305.739 628.074 299.596 635.303 287.368 639.856C275.595 644.239 264.789 643.726 260.523 643.385C254.381 637.75 248.067 631.034 242.209 623.009C224.976 599.275 220.938 576.337 220.199 561.596C224.464 558.522 230.721 554.31 238.911 549.814C255.973 540.423 271.614 535.3 284.467 531.487C306.592 524.998 327.749 520.502 376.434 512.249C391.677 509.688 412.777 506.159 438.314 502.345Z" fill="white" stroke="#191919" stroke-width="2" stroke-miterlimit="10"/>
<path opacity="0.19" d="M384.283 512.135C382.634 523.006 377.97 537.121 363.524 545.887C349.476 554.424 337.702 550.952 309.549 557.782C289.302 562.677 262.514 569.166 255.063 583.566C247.271 598.705 262.002 620.049 287.766 637.579C289.927 637.295 292.657 636.726 295.558 635.587C303.009 632.628 306.649 627.79 308.014 625.684C304.715 621.7 301.302 617.089 298.174 611.796C292.259 601.893 289.074 592.672 287.254 585.216C317.398 583.964 342.707 581.346 361.931 578.841C385.079 575.825 401.118 572.808 416.417 564.157C429.214 556.928 434.333 549.814 436.153 547.082C441.67 538.715 442.125 531.088 442.353 526.82C442.921 516.404 439.509 507.923 436.665 502.573C419.204 505.76 401.744 508.948 384.283 512.135Z" fill="#6C6D6D"/>
<path opacity="0.19" d="M437.234 503.768C436.096 514.355 432.058 531.088 415.963 544.293C406.066 552.432 395.431 556.075 353.684 567.344C335.257 572.296 312.962 578.158 287.596 584.533C319.844 584.192 346.063 581.516 364.889 578.955C384.397 576.28 393.952 573.947 403.848 569.678C413.233 565.637 432.172 557.441 439.907 540.195C447.358 523.462 439.85 508.436 437.234 503.768Z" fill="#6C6D6D"/>
<path opacity="0.22" d="M287.766 585.387C287.539 592.9 287.88 601.494 289.302 610.942C290.667 620.277 292.885 628.644 295.274 635.929C297.208 634.791 299.426 633.254 301.587 631.376C304.203 629.099 306.137 626.936 307.559 625.058C304.26 620.732 300.904 615.723 297.776 610.089C292.714 600.982 289.7 592.558 287.766 585.387Z" fill="#6C6D6D"/>
<path d="M285.15 669.168C289.529 677.763 293.852 686.357 298.231 695.008C270.249 727.906 266.609 737.241 268.713 739.517C272.865 744.071 302.667 723.979 305.739 721.93C316.829 714.474 325.247 707.246 330.82 702.123C328.83 695.122 326.214 687.268 322.574 678.901C317.853 667.973 312.564 658.753 307.615 651.183C300.108 657.216 292.6 663.192 285.15 669.168Z" fill="#191919"/>
<path d="M448.722 500.581C450.713 506.216 452.76 514.07 453.102 523.689C453.613 538.146 449.973 549.643 447.243 556.302C445.765 558.807 443.148 562.962 439.281 567.515C439.281 567.515 430.522 577.703 416.531 585.501C402.255 593.469 360.737 603.202 304.43 605.023C306.08 614.187 308.98 625.399 314.27 637.466C317.17 644.125 320.355 649.987 323.484 655.053C321.436 658.639 315.521 667.688 303.748 673.437C292.43 678.958 282.079 678.332 277.927 677.819C272.012 670.762 265.926 662.281 260.352 652.207C243.745 622.383 239.877 593.526 239.195 575.028C243.29 571.215 249.319 565.864 257.167 560.23C273.604 548.448 288.562 541.959 300.961 537.178C322.175 529.039 342.593 523.405 389.402 512.989C403.848 509.745 424.209 505.362 448.722 500.581Z" fill="white" stroke="#191919" stroke-width="2" stroke-miterlimit="10"/>
<path opacity="0.19" d="M396.795 512.875C395.203 526.535 390.71 544.236 376.832 555.278C363.353 566.035 351.978 561.653 324.962 570.247C305.511 576.394 279.747 584.59 272.581 602.69C265.073 621.7 279.235 648.564 303.975 670.534C306.08 670.193 308.696 669.453 311.483 668.03C318.649 664.33 322.119 658.24 323.427 655.565C320.242 650.557 316.943 644.751 313.929 638.092C308.241 625.627 305.17 614.073 303.464 604.682C332.47 603.088 356.755 599.844 375.297 596.713C397.592 592.957 412.948 589.143 427.679 578.272C439.964 569.166 444.912 560.23 446.618 556.815C451.907 546.285 452.362 536.723 452.59 531.373C453.102 518.282 449.86 507.639 447.13 500.923C430.352 504.85 413.574 508.834 396.795 512.875Z" fill="#6C6D6D"/>
<path opacity="0.19" d="M447.642 502.345C446.561 515.607 442.694 536.666 427.224 553.286C417.669 563.531 407.488 568.084 367.391 582.256C349.646 588.517 328.261 595.86 303.862 603.885C334.859 603.429 360.111 600.128 378.197 596.884C396.966 593.526 406.18 590.623 415.621 585.273C424.664 580.151 442.807 569.906 450.315 548.163C457.424 527.104 450.201 508.265 447.642 502.345Z" fill="#6C6D6D"/>
<path opacity="0.22" d="M304.032 604.966C303.805 614.414 304.146 625.229 305.511 637.067C306.876 648.849 308.924 659.322 311.255 668.428C313.132 666.948 315.237 665.07 317.341 662.68C319.844 659.834 321.721 657.102 323.086 654.768C319.9 649.304 316.659 643.043 313.701 635.929C308.81 624.546 305.852 613.902 304.032 604.966Z" fill="#6C6D6D"/>
<path d="M281.908 412.133C280.828 411.62 278.666 410.653 278.723 409.571C278.837 407.807 284.695 406.612 289.074 406.669C292.032 406.669 297.492 407.295 303.862 411.734C297.89 413.612 289.074 415.32 281.908 412.133Z" fill="white" stroke="#191919" stroke-width="2" stroke-miterlimit="10"/>
<path d="M418.693 338.312C407.886 336.889 398.161 353.11 397.251 354.59C393.952 360.225 393.554 363.981 391.279 374.283C385.762 399.383 382.805 412.133 374.615 419.816C367.221 426.703 358.576 428.354 356.301 428.695C346.575 430.232 337.76 426.589 320.583 419.247C306.08 413.043 304.317 410.767 296.411 409.856C292.373 409.401 280.6 408.091 272.808 415.661C267.803 420.499 265.585 428.24 267.405 429.834C269.737 431.883 279.292 424.654 279.406 424.825C279.463 424.939 276.562 426.305 274.173 429.264C272.979 430.687 270.931 433.761 271.671 434.558C272.979 436.151 280.998 426.476 289.814 428.183C295.843 429.321 296.98 434.785 303.976 435.81C308.071 436.436 311.654 435.184 313.929 434.102C317.91 438.428 324.394 444.575 333.778 449.584C339.352 452.543 359.031 462.731 383.089 456.812C408.626 450.551 421.48 430.574 425.518 424.313C427.793 420.727 444.514 393.976 436.438 363.981C435.016 359.143 429.84 339.791 418.693 338.312Z" fill="white" stroke="#191919" stroke-width="2" stroke-miterlimit="10"/>
<path opacity="0.25" d="M417.555 338.482C413.858 340.418 421.025 353.85 420.115 373.088C419.262 391.586 411.356 405.246 407.83 411.506C403.052 419.873 396.739 430.801 384.17 437.916C367.278 447.478 346.348 446.055 331.446 439.566C327.01 437.631 322.517 431.37 312.735 427.557C308.469 425.906 305.113 425.223 301.189 424.427C291.577 422.548 283.046 420.841 275.14 424.825C271.386 426.76 268.258 429.72 268.486 430.118C268.713 430.517 273.093 428.297 276.96 426.191C272.296 432.395 271.557 434.159 271.898 434.501C272.296 434.842 273.718 433.533 277.358 431.484C281.283 429.321 284.126 427.785 287.596 428.069C289.359 428.24 290.724 428.809 291.52 429.151C294.648 430.517 295.388 432.11 298.516 433.704C300.45 434.672 302.042 435.07 302.895 435.241C304.715 435.639 308.469 436.151 313.417 434.387C317.74 438.94 337.589 459.089 366.652 458.69C381.61 458.463 392.587 452.885 396.91 450.665C420.627 438.314 430.068 416.401 432.457 410.368C439.85 391.699 442.467 364.038 428.93 346.678C425.688 342.467 420.115 337.173 417.555 338.482Z" fill="#6C6D6D"/>
<path d="M268.429 429.834C270.647 426.532 273.548 423.914 277.017 422.036C277.757 421.638 277.074 420.556 276.392 420.955C272.752 422.947 269.68 425.736 267.348 429.208C266.837 429.891 267.974 430.517 268.429 429.834Z" fill="#191919"/>
<path d="M269.111 422.491C271.329 419.019 274.912 417.198 278.496 415.434C279.235 415.092 278.609 413.954 277.87 414.352C274.059 416.174 270.306 418.166 267.974 421.865C267.576 422.548 268.656 423.174 269.111 422.491Z" fill="#191919"/>
<path opacity="0.29" d="M433.879 358.972C433.025 364.721 431.49 373.031 428.76 382.82C423.414 402.172 418.579 419.589 405.953 433.419C390.312 450.494 369.098 455.162 356.927 456.584C365.97 458.69 373.079 458.292 377.572 457.666C411.697 452.885 430.125 416.174 435.13 400.123C435.983 397.277 437.803 391.415 438.03 383.39C438.429 372.689 435.812 364.095 433.879 358.972Z" fill="#6C6D6D"/>
<path opacity="0.26" d="M290.952 427.5C294.194 429.094 298.63 430.858 304.09 431.883C308.412 432.679 312.28 432.85 315.351 432.736C307.559 436.891 303.521 436.379 301.246 435.013C299.824 434.159 298.232 432.452 293.852 429.435C292.658 428.581 291.634 427.898 290.952 427.5Z" fill="#6C6D6D"/>
<path d="M175.95 521.071C175.95 548.391 175.95 575.768 175.95 603.088C175.95 606.389 181.069 606.389 181.069 603.088C181.069 575.768 181.069 548.391 181.069 521.071C181.069 517.827 175.95 517.77 175.95 521.071Z" fill="#161616"/>
<path d="M268.998 519.99C268.998 524.372 268.998 528.755 268.998 533.137C268.998 536.438 274.116 536.438 274.116 533.137C274.116 528.755 274.116 524.372 274.116 519.99C274.116 516.688 268.998 516.688 268.998 519.99Z" fill="#161616"/>
<path d="M105.312 517.713C132.896 491.702 160.48 465.634 188.122 439.623C232.768 440.42 277.358 441.217 322.005 442.014C314.725 467.285 307.445 492.499 300.165 517.77C235.214 517.713 170.263 517.713 105.312 517.713Z" fill="white" stroke="#191919" stroke-width="2" stroke-miterlimit="10"/>
<path d="M106.96 520.673C156.84 520.673 206.662 520.673 256.542 520.673C270.533 520.673 284.467 520.673 298.459 520.673C301.757 520.673 301.757 515.55 298.459 515.55C248.579 515.55 198.757 515.55 148.877 515.55C134.886 515.55 120.952 515.55 106.96 515.55C103.662 515.55 103.662 520.673 106.96 520.673Z" fill="#161616"/>
<path d="M121.578 519.819C121.578 576.451 121.578 633.083 121.578 689.658C121.578 705.538 121.578 721.361 121.578 737.241C121.578 740.542 126.696 740.542 126.696 737.241C126.696 680.608 126.696 623.976 126.696 567.401C126.696 551.521 126.696 535.699 126.696 519.819C126.696 516.518 121.578 516.518 121.578 519.819Z" fill="#161616"/>
<path d="M277.586 519.819C277.586 576.451 277.586 633.083 277.586 689.658C277.586 705.538 277.586 721.361 277.586 737.241C277.586 740.542 282.705 740.542 282.705 737.241C282.705 680.608 282.705 623.976 282.705 567.401C282.705 551.521 282.705 535.699 282.705 519.819C282.705 516.518 277.586 516.518 277.586 519.819Z" fill="#161616"/>
<path d="M124.137 625.513C164.29 625.513 204.444 625.513 244.598 625.513C255.973 625.513 267.348 625.513 278.723 625.513C282.022 625.513 282.022 620.391 278.723 620.391C238.569 620.391 198.415 620.391 158.262 620.391C146.887 620.391 135.512 620.391 124.137 620.391C120.838 620.391 120.838 625.513 124.137 625.513Z" fill="#161616"/>
<path d="M321.323 442.014C314.839 467.342 307.389 492.442 298.857 517.144C298.118 519.25 301.417 520.103 302.156 518.054C310.687 493.296 318.138 468.252 324.622 442.924C325.134 440.818 321.892 439.908 321.323 442.014Z" fill="#161616"/>
<path d="M49.0048 742.818C79.2055 742.818 109.349 742.818 139.55 742.818C142.849 742.818 142.849 737.696 139.55 737.696C109.349 737.696 79.2055 737.696 49.0048 737.696C45.7061 737.696 45.7061 742.818 49.0048 742.818Z" fill="#161616"/>
<path d="M152.233 741.68C159.172 741.68 166.168 741.68 173.106 741.68C176.405 741.68 176.405 736.557 173.106 736.557C166.168 736.557 159.172 736.557 152.233 736.557C148.935 736.557 148.935 741.68 152.233 741.68Z" fill="#161616"/>
<path d="M242.778 742.42C269.965 742.42 297.151 742.42 324.394 742.42C327.693 742.42 327.693 737.297 324.394 737.297C297.208 737.297 270.021 737.297 242.778 737.297C239.48 737.297 239.48 742.42 242.778 742.42Z" fill="#161616"/>
<path d="M342.992 740.599C347.826 740.599 352.661 740.599 357.552 740.599C360.851 740.599 360.851 735.476 357.552 735.476C352.718 735.476 347.883 735.476 342.992 735.476C339.693 735.476 339.693 740.599 342.992 740.599Z" fill="#161616"/>
<path d="M21.5912 724.776C33.3644 724.776 45.1375 724.776 56.8537 724.776C60.1525 724.776 60.1525 719.653 56.8537 719.653C45.0806 719.653 33.3075 719.653 21.5912 719.653C18.2925 719.653 18.2925 724.776 21.5912 724.776Z" fill="#161616"/>
<path d="M270.363 506.956C235.271 506.045 200.122 505.191 165.03 504.281C185.847 484.36 206.606 464.382 227.422 444.461C251.423 445.713 275.482 446.965 299.483 448.218C289.757 467.854 280.088 487.376 270.363 506.956Z" fill="white" stroke="#191919" stroke-width="2" stroke-miterlimit="10"/>
<path d="M226.228 444.063C205.81 463.813 185.392 483.62 164.973 503.37C164.063 471.724 163.097 440.022 162.187 408.376C182.889 395.285 203.592 382.194 224.294 369.103C224.863 394.09 225.545 419.076 226.228 444.063Z" fill="white" stroke="#191919" stroke-width="2" stroke-miterlimit="10"/>
<path d="M164.063 411.393C165.713 439.566 166.793 467.797 167.362 496.028C167.362 496.597 168.215 496.597 168.215 496.028C167.646 467.797 166.566 439.566 164.916 411.393C164.86 410.88 164.006 410.88 164.063 411.393Z" fill="#191919"/>
<path d="M164.519 411.506C183.572 399.099 202.625 386.691 221.678 374.283C222.133 373.998 221.735 373.258 221.223 373.543C202.17 385.951 183.117 398.359 164.063 410.766C163.608 411.108 164.007 411.848 164.519 411.506Z" fill="#191919"/>
<path d="M221.45 374.226C221.393 396.936 222.076 419.702 223.554 442.355C223.611 442.924 224.464 442.924 224.408 442.355C222.986 419.645 222.246 396.936 222.303 374.226C222.303 373.714 221.45 373.714 221.45 374.226Z" fill="#191919"/>
<path d="M167.931 497.223C186.586 479.18 205.298 461.138 223.953 443.152C224.351 442.754 223.725 442.184 223.327 442.526C204.672 460.569 185.96 478.611 167.305 496.597C166.964 496.995 167.533 497.621 167.931 497.223Z" fill="#191919"/>
<path d="M254.324 487.547C257.793 482.026 261.263 476.448 264.618 470.814C264.903 470.358 264.163 469.903 263.879 470.358C260.523 475.993 257.054 481.571 253.584 487.092C253.243 487.547 253.983 488.002 254.324 487.547Z" fill="#191919"/>
<path d="M264.391 470.643C268.884 470.814 273.377 470.814 277.87 470.586C278.439 470.586 278.439 469.732 277.87 469.732C273.377 469.903 268.884 469.903 264.391 469.789C263.822 469.789 263.822 470.643 264.391 470.643Z" fill="#191919"/>
<path d="M277.302 470.358C274.742 475.936 272.126 481.514 269.51 487.092C269.282 487.604 270.022 488.002 270.249 487.547C272.865 481.969 275.482 476.391 278.041 470.814C278.268 470.244 277.529 469.846 277.302 470.358Z" fill="#191919"/>
<path d="M254.039 488.002C259.044 488.742 264.334 488.401 269.396 488.173C269.964 488.173 269.964 487.319 269.396 487.319C264.448 487.547 259.215 487.889 254.267 487.206C253.698 487.092 253.471 487.945 254.039 488.002Z" fill="#191919"/>
<path d="M272.694 470.415C270.419 476.107 267.803 481.628 264.846 486.978C264.561 487.433 265.301 487.889 265.585 487.433C268.543 481.969 271.216 476.391 273.548 470.643C273.718 470.131 272.922 469.903 272.694 470.415Z" fill="#191919"/>
<path d="M190.283 496.198C202.795 480.717 215.763 465.577 229.128 450.779C229.47 450.381 228.901 449.754 228.503 450.153C215.137 464.894 202.169 480.034 189.657 495.572C189.316 496.028 189.941 496.597 190.283 496.198Z" fill="#191919"/>
<path d="M205.412 497.166C216.616 481.514 228.446 466.374 240.845 451.69C241.186 451.291 240.617 450.665 240.219 451.064C227.764 465.805 215.934 481.002 204.672 496.711C204.331 497.166 205.07 497.621 205.412 497.166Z" fill="#191919"/>
<path d="M221.678 499.5C231.404 483.221 242.039 467.512 253.528 452.429C253.869 451.974 253.13 451.576 252.788 451.974C241.3 467.057 230.664 482.766 220.938 499.044C220.654 499.5 221.393 499.955 221.678 499.5Z" fill="#191919"/>
<path d="M235.328 500.922C244.883 483.108 256.201 466.317 269.168 450.836C269.51 450.437 268.941 449.811 268.543 450.21C255.518 465.748 244.143 482.595 234.532 500.467C234.304 500.979 235.043 501.435 235.328 500.922Z" fill="#191919"/>
<path d="M197.563 486.978C212.123 485.441 226.683 487.263 241.186 489.198C241.754 489.255 241.698 488.401 241.186 488.344C226.739 486.409 212.179 484.53 197.563 486.124C197.051 486.181 197.051 487.035 197.563 486.978Z" fill="#191919"/>
<path d="M204.9 478.668C218.663 478.156 232.427 479.18 245.963 481.798C246.475 481.912 246.703 481.059 246.191 481.002C232.598 478.383 218.72 477.359 204.9 477.871C204.388 477.814 204.388 478.668 204.9 478.668Z" fill="#191919"/>
<path d="M211.497 470.643C224.749 469.789 238.001 470.984 250.911 474.172C251.423 474.285 251.651 473.489 251.139 473.375C238.171 470.131 224.862 468.935 211.497 469.789C210.928 469.846 210.928 470.7 211.497 470.643Z" fill="#191919"/>
<path d="M218.322 462.618C231.062 462.675 243.688 463.984 256.144 466.545C256.656 466.659 256.883 465.805 256.371 465.748C243.859 463.187 231.119 461.878 218.322 461.821C217.81 461.764 217.81 462.618 218.322 462.618Z" fill="#191919"/>
<path d="M225.09 455.162C237.205 455.389 249.262 456.812 261.035 459.487C261.547 459.601 261.774 458.804 261.263 458.69C249.376 456.015 237.261 454.535 225.09 454.365C224.521 454.308 224.521 455.162 225.09 455.162Z" fill="#191919"/>
<path d="M264.107 463.813C258.533 472.009 253.016 480.205 247.442 488.401C247.158 488.856 247.897 489.311 248.182 488.856C253.756 480.66 259.272 472.464 264.846 464.268C265.187 463.756 264.448 463.358 264.107 463.813Z" fill="#191919"/>
<path d="M169.921 451.405C177.031 448.388 184.709 450.096 192.216 449.982C198.529 449.925 204.558 448.161 209.961 444.973C210.416 444.689 210.018 443.949 209.506 444.234C202.852 448.161 195.799 449.413 188.178 449.071C181.808 448.787 175.495 448.161 169.466 450.722C169.011 450.893 169.409 451.633 169.921 451.405Z" fill="#191919"/>
<path d="M189.088 447.876C201.26 440.989 206.89 426.475 219.573 420.385C220.085 420.158 219.63 419.418 219.118 419.645C206.378 425.792 200.805 440.249 188.633 447.136C188.178 447.421 188.576 448.161 189.088 447.876Z" fill="#191919"/>
<path d="M204.559 407.295C202.454 405.644 202.795 402.969 203.99 400.863C204.559 399.838 205.412 398.757 206.379 398.131C208.142 396.993 209.791 397.903 211.156 399.099C211.554 399.44 212.18 398.871 211.782 398.472C208.938 396.082 206.265 396.31 203.933 399.383C202.056 401.887 201.089 405.644 203.933 407.921C204.388 408.262 205.014 407.636 204.559 407.295Z" fill="#191919"/>
<path d="M379.733 365.688C364.149 382.991 359.94 402.001 357.665 412.759C353.514 432.679 357.893 440.648 358.177 478.497C358.291 494.605 357.609 507.639 357.097 515.835C360.623 518.567 382.463 534.845 411.64 529.495C433.252 525.567 446.277 512.021 450.372 507.411C451.339 502.004 452.704 494.036 454.296 484.36C462.714 432.167 466.865 405.701 461.633 386.748C458.505 375.251 450.77 357.037 428.816 338.198C419.602 340.133 397.478 346.052 379.733 365.688Z" fill="#9B9B9B"/>
<path opacity="0.19" d="M395.601 355.216C401.004 371.38 403.905 385.211 405.611 395.342C410.104 422.15 416.872 462.333 397.819 501.264C391.734 513.672 384.624 522.779 379.619 528.413C386.217 529.95 399.298 532.056 414.882 528.015C433.423 523.234 445.025 512.477 449.803 507.582C453.5 486.409 456.457 468.252 458.732 454.08C462.657 429.151 463.567 421.581 463.169 410.937C462.714 397.277 462.088 382.934 453.898 367.453C446.049 352.655 435.015 343.776 428.247 339.222C422.73 340.19 414.939 342.239 406.692 347.02C402.142 349.752 398.445 352.655 395.601 355.216Z" fill="#6C6D6D"/>
<path opacity="0.18" d="M460.211 382.365C459.188 382.422 461.349 398.188 457.993 419.93C451.794 460.17 431.887 488.059 424.209 497.963C417.782 506.216 407.716 517.599 392.985 528.812C398.274 529.608 405.327 529.95 413.403 528.413C432.57 524.827 444.741 513.046 449.405 507.98C450.599 501.036 452.533 490.165 454.979 476.733C460.723 445.315 461.861 441.558 462.771 431.769C465.273 405.075 461.406 382.365 460.211 382.365Z" fill="#6C6D6D"/>
<path d="M279.519 424.654C278.439 423.914 276.277 422.548 276.505 421.41C276.96 419.589 283.501 419.304 288.221 420.101C291.406 420.613 297.207 422.264 303.293 428.012C296.468 428.98 286.629 429.264 279.519 424.654Z" fill="white" stroke="#191919" stroke-width="2" stroke-miterlimit="10"/>
<path d="M440.078 370.128C428.646 366.77 415.28 382.194 414.086 383.674C409.536 389.081 408.455 392.952 404.189 403.424C393.838 429.037 388.435 441.957 378.198 448.673C369.041 454.706 359.429 454.934 356.869 454.934C346.12 454.877 337.248 449.527 319.958 438.826C305.398 429.777 303.919 427.045 295.501 424.768C291.236 423.63 278.723 420.215 268.998 426.874C262.798 431.086 258.988 438.94 260.694 440.932C262.855 443.494 274.458 437.46 274.514 437.688C274.571 437.802 271.159 438.769 268.088 441.501C266.552 442.811 263.822 445.656 264.448 446.681C265.585 448.616 275.936 439.737 285.15 443.038C291.406 445.258 291.748 451.234 299.084 453.568C303.407 454.934 307.502 454.194 310.118 453.454C313.644 458.747 319.616 466.317 328.83 473.204C334.347 477.302 353.798 491.417 380.814 489.311C409.479 487.092 426.883 468.138 432.286 462.276C435.414 458.918 458.107 433.476 454.638 400.351C454.126 394.944 451.908 373.657 440.078 370.128Z" fill="white" stroke="#191919" stroke-width="2" stroke-miterlimit="10"/>
<path opacity="0.25" d="M438.826 370.128C434.504 371.551 439.907 386.975 435.528 407.181C431.376 426.589 420.456 439.68 415.508 445.656C408.853 453.682 400.151 464.154 385.307 469.504C365.401 476.676 343.049 471.61 328.091 462.219C323.655 459.373 319.901 452.031 309.948 446.282C305.625 443.778 302.156 442.526 298.004 440.989C287.994 437.347 279.008 434.045 269.851 436.948C265.471 438.314 261.547 440.932 261.775 441.388C262.002 441.9 267.064 440.249 271.614 438.713C265.528 444.461 264.391 446.226 264.675 446.681C265.016 447.136 266.836 445.941 271.102 444.461C275.766 442.811 279.008 441.729 282.761 442.64C284.638 443.095 286.003 443.949 286.856 444.461C289.985 446.396 290.496 448.275 293.568 450.494C295.445 451.86 297.151 452.543 298.061 452.885C299.938 453.625 303.919 454.82 309.55 453.795C313.417 459.373 331.333 484.075 362.785 488.629C378.994 490.962 391.791 486.978 396.853 485.327C424.608 476.334 438.656 454.82 442.296 448.844C453.557 430.403 461.235 401.603 449.633 380.885C446.903 375.706 441.784 369.16 438.826 370.128Z" fill="#6C6D6D"/>
<path d="M261.717 441.103C264.732 437.973 268.258 435.696 272.353 434.33C273.149 434.045 272.808 432.85 272.012 433.078C267.746 434.558 263.936 436.948 260.808 440.192C260.239 440.818 261.149 441.729 261.717 441.103Z" fill="#191919"/>
<path d="M263.765 433.476C266.78 430.118 270.988 428.809 275.197 427.614C275.993 427.386 275.652 426.134 274.856 426.362C270.477 427.671 266.04 429.094 262.912 432.566C262.287 433.192 263.197 434.045 263.765 433.476Z" fill="#191919"/>
<path opacity="0.29" d="M452.875 394.602C450.941 400.522 447.813 409.059 443.206 418.962C434.049 438.485 425.802 456.072 409.707 468.537C389.857 483.904 366.083 485.213 352.718 484.587C362.102 488.401 369.894 489.198 374.842 489.311C412.493 490.108 438.883 454.422 447.073 438.371C448.495 435.525 451.453 429.606 453.159 421.182C455.377 409.856 454.069 400.351 452.875 394.602Z" fill="#6C6D6D"/>
<path opacity="0.26" d="M286.515 442.469C289.7 444.689 294.193 447.307 299.938 449.356C304.488 450.95 308.64 451.746 311.938 452.145C302.781 455.161 298.516 453.966 296.298 452.145C294.933 451.007 293.511 448.901 289.245 444.973C288.165 443.892 287.198 443.038 286.515 442.469Z" fill="#6C6D6D"/>
<path d="M351.921 255.327C351.296 258.97 350.67 262.612 350.158 266.426C347.94 281.907 347.03 296.535 346.973 310.138C350.101 309.796 353.173 309.455 356.301 309.17C355.959 312.187 354.993 323.229 362.045 334.157C368.699 344.459 378.254 348.215 381.212 349.24C380.871 354.817 380.586 360.338 380.245 365.916C386.388 360.452 394.748 354.021 405.384 348.272C413.517 343.889 421.195 340.873 427.736 338.824C420.399 329.717 417.612 321.123 416.418 316.171C414.37 307.633 414.768 300.291 415.166 293.803C415.564 287.143 416.531 281.623 417.384 277.752C420.058 265.572 413.062 246.277 399.128 239.333C385.364 232.447 364.832 238.252 351.921 255.327Z" fill="white" stroke="#161616" stroke-width="2" stroke-miterlimit="10"/>
<path d="M354.993 309.569C356.585 309.341 358.234 309.17 359.827 308.999C360.396 308.943 360.396 308.089 359.827 308.146C358.121 308.316 356.471 308.544 354.765 308.772C354.253 308.772 354.481 309.626 354.993 309.569Z" fill="#161616"/>
<path d="M406.294 264.149C399.412 265.914 398.161 271.89 389.459 284.355C380.643 296.99 375.07 304.902 365.116 309.512C358.69 312.471 355.505 311.675 352.661 315.488C347.77 322.09 351.068 332.961 353.969 338.539C357.325 344.971 362.443 348.841 366.652 352.029C370.69 355.045 374.387 357.037 377.003 358.232C374.216 353.964 374.046 352.655 374.387 352.256C375.297 351.346 379.165 356.24 383.715 355.614C385.023 355.444 387.355 354.704 392.53 346.565C396.056 341.044 398.445 337.23 400.038 331.766C403.507 320.041 398.616 316.854 400.038 301.43C400.265 299.096 401.858 280.826 408.341 279.631C410.673 279.175 413.062 281.11 414.2 282.59C416.588 285.721 416.304 290.729 413.346 295.055C414.313 294.372 423.584 288.111 423.47 277.923C423.47 276.329 423.413 270.467 418.977 266.653C413.915 262.328 406.863 264.035 406.294 264.149Z" fill="#161616" stroke="#161616" stroke-width="2" stroke-miterlimit="10"/>
<path d="M360.453 290.046C361.772 290.046 362.841 288.135 362.841 285.777C362.841 283.42 361.772 281.509 360.453 281.509C359.133 281.509 358.064 283.42 358.064 285.777C358.064 288.135 359.133 290.046 360.453 290.046Z" fill="#161616"/>
<path d="M342.253 292.038C343.572 292.038 344.641 290.127 344.641 287.77C344.641 285.412 343.572 283.501 342.253 283.501C340.933 283.501 339.864 285.412 339.864 287.77C339.864 290.127 340.933 292.038 342.253 292.038Z" fill="#161616"/>
<path d="M338.67 280.769C340.205 279.004 342.594 278.834 344.3 280.541C345.096 281.338 346.291 280.086 345.495 279.346C343.163 277.069 339.58 277.126 337.418 279.574C336.793 280.427 337.987 281.623 338.67 280.769Z" fill="#161616"/>
<path d="M357.325 277.809C359.315 276.159 361.932 276.386 363.638 278.264C364.377 279.061 365.572 277.866 364.832 277.069C362.443 274.508 358.747 274.394 356.073 276.614C355.277 277.297 356.472 278.492 357.325 277.809Z" fill="#161616"/>
<path d="M349.988 262.1C350.613 258.002 352.206 251.286 356.585 244.342C358.121 241.895 361.42 236.715 366.652 233.186C376.662 226.527 392.075 227.039 403.28 235.235C414.257 243.261 419.717 257.604 417.328 271.833C394.862 268.646 372.453 265.401 349.988 262.1Z" fill="#494949"/>
<path d="M313.246 262.612C347.769 267.052 382.349 271.491 416.873 275.874C420.114 276.272 420.114 271.15 416.873 270.751C382.349 266.312 347.769 261.872 313.246 257.49C310.004 257.035 310.004 262.157 313.246 262.612Z" fill="#161616"/>
<path d="M379.221 229.032C388.094 230.967 394.805 238.138 395.942 246.733C396.966 254.246 393.667 261.872 387.411 266.54C397.251 267.849 407.147 269.215 416.986 270.524C417.498 267.906 417.953 263.921 417.328 259.254C415.849 248.326 409.536 241.326 407.488 239.22C405.27 236.943 397.421 229.316 385.762 228.633C383.089 228.519 380.814 228.747 379.221 229.032Z" fill="#333333"/>
<path d="M295.416 12.2569H299.026V21.1257L298.869 23.7942H299.026C299.576 22.8524 300.413 22.0675 301.538 21.4396C302.689 20.8117 303.879 20.4978 305.109 20.4978C307.463 20.4978 309.268 21.178 310.524 22.5384C311.806 23.8727 312.447 25.7825 312.447 28.2678V40.3546H308.837V28.9742C308.837 25.5209 307.306 23.7942 304.245 23.7942C302.78 23.7942 301.538 24.409 300.517 25.6386C299.523 26.842 299.026 28.2548 299.026 29.8768V40.3546H295.416V12.2569ZM320.57 14.4937C320.57 15.2001 320.322 15.8018 319.824 16.2988C319.327 16.7959 318.726 17.0445 318.019 17.0445C317.313 17.0445 316.711 16.7959 316.214 16.2988C315.717 15.8018 315.469 15.2001 315.469 14.4937C315.469 13.7873 315.717 13.1856 316.214 12.6885C316.711 12.1915 317.313 11.9429 318.019 11.9429C318.726 11.9429 319.327 12.1915 319.824 12.6885C320.322 13.1856 320.57 13.7873 320.57 14.4937ZM319.824 21.1257V40.3546H316.214V21.1257H319.824ZM327.348 40.3546H323.738V21.1257H327.191V24.2651H327.348C327.715 23.2448 328.46 22.3814 329.585 21.6751C330.736 20.9426 331.861 20.5763 332.96 20.5763C334.006 20.5763 334.896 20.7333 335.628 21.0472L334.53 24.5398C334.085 24.3567 333.379 24.2651 332.411 24.2651C331.05 24.2651 329.86 24.8145 328.839 25.9133C327.845 27.0121 327.348 28.294 327.348 29.7591V40.3546ZM344.655 40.9824C341.829 40.9824 339.501 40.0145 337.669 38.0785C335.838 36.1425 334.922 33.6964 334.922 30.7401C334.922 27.81 335.812 25.377 337.591 23.441C339.37 21.4789 341.646 20.4978 344.419 20.4978C347.271 20.4978 349.534 21.4265 351.208 23.284C352.909 25.1153 353.759 27.6923 353.759 31.0148L353.72 31.4072H338.611C338.664 33.2909 339.291 34.8083 340.495 35.9594C341.698 37.1105 343.137 37.6861 344.812 37.6861C347.114 37.6861 348.919 36.5349 350.227 34.2327L353.445 35.8024C352.582 37.4244 351.378 38.6933 349.835 39.6089C348.317 40.5246 346.591 40.9824 344.655 40.9824ZM338.886 28.4248H349.913C349.808 27.0906 349.259 25.9918 348.265 25.1284C347.297 24.2389 345.989 23.7942 344.341 23.7942C342.98 23.7942 341.803 24.2128 340.809 25.0499C339.841 25.8871 339.2 27.0121 338.886 28.4248ZM374.101 12.0999V40.3546H370.491V15.3963H365.075C362.93 15.3963 361.857 16.5997 361.857 19.0066V21.1257H366.88V24.4221H361.857V40.3546H358.247V24.4221H354.637V21.1257H358.247V18.5749C358.247 16.6389 358.875 15.0823 360.131 13.905C361.386 12.7016 363.035 12.0999 365.075 12.0999H374.101ZM376.428 30.7401C376.428 27.7838 377.356 25.3377 379.214 23.4018C381.097 21.4658 383.465 20.4978 386.317 20.4978C389.168 20.4978 391.523 21.4658 393.38 23.4018C395.264 25.3377 396.206 27.7838 396.206 30.7401C396.206 33.7226 395.264 36.1687 393.38 38.0785C391.523 40.0145 389.168 40.9824 386.317 40.9824C383.465 40.9824 381.097 40.0145 379.214 38.0785C377.356 36.1425 376.428 33.6964 376.428 30.7401ZM380.038 30.7401C380.038 32.8069 380.64 34.4812 381.843 35.7632C383.046 37.0451 384.538 37.6861 386.317 37.6861C388.096 37.6861 389.587 37.0451 390.79 35.7632C391.994 34.4812 392.596 32.8069 392.596 30.7401C392.596 28.6995 391.994 27.0382 390.79 25.7563C389.561 24.4482 388.07 23.7942 386.317 23.7942C384.564 23.7942 383.073 24.4482 381.843 25.7563C380.64 27.0382 380.038 28.6995 380.038 30.7401ZM425.935 21.1257L419.735 40.3546H416.046L411.258 25.5993L406.51 40.3546H402.86L396.66 21.1257H400.427L404.705 35.6454H404.744L409.492 21.1257H413.22L417.969 35.6454H418.008L422.246 21.1257H425.935Z" fill="#232946"/>
<g clip-path="url(#clip0)">
<path d="M232.685 26.6046C235.656 29.1534 239.024 32.0423 245.538 32.0423C252.053 32.0422 255.421 29.1534 258.392 26.6046C261.203 24.1944 263.63 22.1126 268.692 22.1126C273.754 22.1126 276.181 24.1944 278.991 26.6046C279.813 27.3101 281.052 27.2154 281.758 26.3928C282.463 25.5702 282.368 24.3315 281.546 23.626C278.574 21.0773 275.206 18.1884 268.692 18.1884C262.177 18.1884 258.809 21.0772 255.838 23.626C253.027 26.0363 250.6 28.118 245.538 28.118C240.476 28.118 238.05 26.0364 235.24 23.626C234.417 22.9206 233.178 23.0152 232.473 23.8378C231.767 24.6604 231.862 25.8992 232.685 26.6046Z" fill="#232946"/>
<path d="M232.685 15.8724C235.656 18.4212 239.024 21.31 245.538 21.31C252.053 21.31 255.421 18.4212 258.392 15.8724C261.203 13.4621 263.629 11.3804 268.692 11.3804C273.754 11.3804 276.181 13.462 278.991 15.8724C279.813 16.578 281.052 16.483 281.758 15.6603C282.463 14.8378 282.368 13.5989 281.546 12.8935C278.574 10.3447 275.206 7.45609 268.692 7.45609C262.177 7.45609 258.809 10.3449 255.838 12.8937C253.027 15.304 250.6 17.3857 245.538 17.3857C240.476 17.3857 238.05 15.3041 235.24 12.8937C234.417 12.1882 233.178 12.2829 232.473 13.1056C231.767 13.9281 231.862 15.1669 232.685 15.8724Z" fill="#232946"/>
<path d="M281.546 34.3582C278.574 31.8094 275.206 28.9205 268.692 28.9205C262.177 28.9205 258.809 31.8093 255.837 34.3582C253.027 36.7684 250.6 38.8502 245.538 38.8502C240.477 38.8502 238.05 36.7685 235.24 34.3583L235.24 34.3582C234.417 33.6529 233.178 33.7476 232.473 34.5701C231.767 35.3926 231.862 36.6314 232.685 37.3369C235.656 39.8857 239.024 42.7744 245.538 42.7744C252.053 42.7744 255.421 39.8856 258.392 37.3368C261.203 34.9265 263.629 32.8448 268.692 32.8448C273.754 32.8448 276.181 34.9265 278.991 37.3368C279.813 38.0422 281.052 37.9475 281.758 37.125C282.463 36.3023 282.368 35.0636 281.546 34.3582Z" fill="#232946"/>
</g>
<defs>
<clipPath id="clip0">
<rect width="50.2305" height="50.2305" fill="white" transform="translate(232)"/>
</clipPath>
</defs>
</svg>
