<svg width="250" height="90" viewBox="0 0 250 90" fill="none" xmlns="http://www.w3.org/2000/svg">
<rect width="250" height="90" rx="15" fill="white"/>
<path d="M109.33 38.399H104.264L103.346 41H101.272L105.692 29.185H107.919L112.322 41H110.248L109.33 38.399ZM108.786 36.903L106.797 31.293L104.808 36.903H108.786ZM119.133 31.514C119.949 31.514 120.674 31.7067 121.309 32.092C121.955 32.4773 122.459 33.0327 122.822 33.758C123.185 34.4833 123.366 35.3333 123.366 36.308C123.366 37.294 123.185 38.1497 122.822 38.875C122.459 39.6003 121.955 40.1557 121.309 40.541C120.674 40.9263 119.949 41.119 119.133 41.119C118.283 41.119 117.558 40.9093 116.957 40.49C116.356 40.0707 115.937 39.5153 115.699 38.824V45.454H113.761V31.633H115.699V33.809C115.937 33.1177 116.356 32.5623 116.957 32.143C117.558 31.7237 118.283 31.514 119.133 31.514ZM118.538 33.214C117.994 33.214 117.507 33.3443 117.076 33.605C116.645 33.8543 116.305 34.217 116.056 34.693C115.807 35.1577 115.682 35.696 115.682 36.308C115.682 36.9313 115.807 37.4753 116.056 37.94C116.305 38.4047 116.645 38.7673 117.076 39.028C117.507 39.2773 117.994 39.402 118.538 39.402C119.399 39.402 120.091 39.13 120.612 38.586C121.133 38.0307 121.394 37.2713 121.394 36.308C121.394 35.356 121.133 34.6023 120.612 34.047C120.091 33.4917 119.399 33.214 118.538 33.214ZM130.605 31.514C131.421 31.514 132.146 31.7067 132.781 32.092C133.427 32.4773 133.931 33.0327 134.294 33.758C134.656 34.4833 134.838 35.3333 134.838 36.308C134.838 37.294 134.656 38.1497 134.294 38.875C133.931 39.6003 133.427 40.1557 132.781 40.541C132.146 40.9263 131.421 41.119 130.605 41.119C129.755 41.119 129.029 40.9093 128.429 40.49C127.828 40.0707 127.409 39.5153 127.171 38.824V45.454H125.233V31.633H127.171V33.809C127.409 33.1177 127.828 32.5623 128.429 32.143C129.029 31.7237 129.755 31.514 130.605 31.514ZM130.01 33.214C129.466 33.214 128.978 33.3443 128.548 33.605C128.117 33.8543 127.777 34.217 127.528 34.693C127.278 35.1577 127.154 35.696 127.154 36.308C127.154 36.9313 127.278 37.4753 127.528 37.94C127.777 38.4047 128.117 38.7673 128.548 39.028C128.978 39.2773 129.466 39.402 130.01 39.402C130.871 39.402 131.562 39.13 132.084 38.586C132.605 38.0307 132.866 37.2713 132.866 36.308C132.866 35.356 132.605 34.6023 132.084 34.047C131.562 33.4917 130.871 33.214 130.01 33.214ZM138.642 28.42V41H136.704V28.42H138.642ZM140.715 28.913C140.715 28.5843 140.829 28.3123 141.055 28.097C141.282 27.8817 141.582 27.774 141.956 27.774C142.33 27.774 142.631 27.8817 142.857 28.097C143.095 28.3123 143.214 28.5843 143.214 28.913C143.214 29.2417 143.095 29.508 142.857 29.712C142.631 29.916 142.33 30.018 141.956 30.018C141.582 30.018 141.282 29.916 141.055 29.712C140.829 29.508 140.715 29.2417 140.715 28.913ZM142.925 31.633V41H140.987V31.633H142.925ZM149.436 31.514C150.648 31.514 151.651 31.837 152.445 32.483C153.238 33.1177 153.731 33.9847 153.924 35.084H151.867C151.753 34.4947 151.476 34.0357 151.034 33.707C150.603 33.367 150.059 33.197 149.402 33.197C148.654 33.197 148.03 33.4633 147.532 33.996C147.033 34.5173 146.784 35.288 146.784 36.308C146.784 37.328 147.033 38.1043 147.532 38.637C148.03 39.1697 148.654 39.436 149.402 39.436C150.059 39.436 150.603 39.266 151.034 38.926C151.476 38.586 151.753 38.1213 151.867 37.532H153.924C153.731 38.6313 153.238 39.504 152.445 40.15C151.651 40.796 150.648 41.119 149.436 41.119C148.529 41.119 147.724 40.9263 147.022 40.541C146.33 40.1557 145.786 39.6003 145.39 38.875C144.993 38.1497 144.795 37.294 144.795 36.308C144.795 35.3333 144.993 34.4833 145.39 33.758C145.786 33.0327 146.33 32.4773 147.022 32.092C147.724 31.7067 148.529 31.514 149.436 31.514ZM159.553 31.514C160.403 31.514 161.128 31.7237 161.729 32.143C162.33 32.5623 162.755 33.1177 163.004 33.809V31.633H164.942V41H163.004V38.824C162.755 39.5153 162.33 40.0707 161.729 40.49C161.128 40.9093 160.403 41.119 159.553 41.119C158.737 41.119 158.006 40.9263 157.36 40.541C156.725 40.1557 156.227 39.6003 155.864 38.875C155.501 38.1497 155.32 37.294 155.32 36.308C155.32 35.3333 155.501 34.4833 155.864 33.758C156.227 33.0327 156.725 32.4773 157.36 32.092C158.006 31.7067 158.737 31.514 159.553 31.514ZM160.148 33.214C159.287 33.214 158.595 33.4917 158.074 34.047C157.564 34.591 157.309 35.3447 157.309 36.308C157.309 37.2713 157.564 38.0307 158.074 38.586C158.595 39.13 159.287 39.402 160.148 39.402C160.692 39.402 161.179 39.2773 161.61 39.028C162.041 38.7673 162.381 38.4047 162.63 37.94C162.879 37.4753 163.004 36.9313 163.004 36.308C163.004 35.696 162.879 35.1577 162.63 34.693C162.381 34.217 162.041 33.8543 161.61 33.605C161.179 33.3443 160.692 33.214 160.148 33.214ZM171.977 39.317V41H170.787C169.789 41 169.03 40.762 168.509 40.286C167.999 39.7987 167.744 38.994 167.744 37.872V33.282H166.401V31.633H167.744V29.304H169.699V31.633H171.96V33.282H169.699V37.906C169.699 38.4387 169.795 38.807 169.988 39.011C170.192 39.215 170.543 39.317 171.042 39.317H171.977ZM173.52 28.913C173.52 28.5843 173.633 28.3123 173.86 28.097C174.087 27.8817 174.387 27.774 174.761 27.774C175.135 27.774 175.435 27.8817 175.662 28.097C175.9 28.3123 176.019 28.5843 176.019 28.913C176.019 29.2417 175.9 29.508 175.662 29.712C175.435 29.916 175.135 30.018 174.761 30.018C174.387 30.018 174.087 29.916 173.86 29.712C173.633 29.508 173.52 29.2417 173.52 28.913ZM175.73 31.633V41H173.792V31.633H175.73ZM182.359 31.514C183.266 31.514 184.082 31.7067 184.807 32.092C185.533 32.4773 186.099 33.0327 186.507 33.758C186.915 34.4833 187.119 35.3333 187.119 36.308C187.119 37.294 186.915 38.1497 186.507 38.875C186.099 39.6003 185.533 40.1557 184.807 40.541C184.082 40.9263 183.266 41.119 182.359 41.119C181.453 41.119 180.637 40.9263 179.911 40.541C179.197 40.1557 178.631 39.6003 178.211 38.875C177.803 38.1383 177.599 37.2827 177.599 36.308C177.599 35.3333 177.803 34.4833 178.211 33.758C178.631 33.0327 179.197 32.4773 179.911 32.092C180.637 31.7067 181.453 31.514 182.359 31.514ZM182.359 33.197C181.861 33.197 181.402 33.3103 180.982 33.537C180.563 33.7637 180.223 34.115 179.962 34.591C179.713 35.0557 179.588 35.628 179.588 36.308C179.588 36.9993 179.713 37.5773 179.962 38.042C180.223 38.5067 180.563 38.8523 180.982 39.079C181.402 39.3057 181.861 39.419 182.359 39.419C182.858 39.419 183.317 39.3057 183.736 39.079C184.156 38.8523 184.49 38.5067 184.739 38.042C185 37.5773 185.13 36.9993 185.13 36.308C185.13 35.628 185 35.0557 184.739 34.591C184.49 34.115 184.156 33.7637 183.736 33.537C183.317 33.3103 182.858 33.197 182.359 33.197ZM194.219 31.48C195.307 31.48 196.179 31.8313 196.837 32.534C197.494 33.2367 197.823 34.2397 197.823 35.543V41H195.885V35.747C195.885 34.9083 195.669 34.2623 195.239 33.809C194.808 33.3443 194.219 33.112 193.471 33.112C192.7 33.112 192.082 33.3613 191.618 33.86C191.153 34.3473 190.921 35.067 190.921 36.019V41H188.983V31.633H190.921V33.69C191.17 32.9873 191.589 32.4433 192.179 32.058C192.768 31.6727 193.448 31.48 194.219 31.48ZM108.48 63L105.488 58.206H104.111V63H102.173V50.998H106.406C107.777 50.998 108.814 51.3323 109.517 52.001C110.231 52.6697 110.588 53.5537 110.588 54.653C110.588 55.5937 110.322 56.3643 109.789 56.965C109.268 57.5657 108.508 57.951 107.511 58.121L110.656 63H108.48ZM104.111 56.829H106.253C107.817 56.829 108.599 56.1377 108.599 54.755C108.599 54.0977 108.406 53.5877 108.021 53.225C107.647 52.851 107.058 52.664 106.253 52.664H104.111V56.829ZM121.037 57.866C121.037 58.1833 121.014 58.461 120.969 58.699H113.761C113.795 59.6623 114.061 60.3763 114.56 60.841C115.059 61.3057 115.676 61.538 116.413 61.538C117.059 61.538 117.603 61.3737 118.045 61.045C118.498 60.7163 118.776 60.28 118.878 59.736H120.952C120.827 60.3933 120.567 60.977 120.17 61.487C119.773 61.997 119.258 62.3993 118.623 62.694C117.988 62.9773 117.28 63.119 116.498 63.119C115.591 63.119 114.787 62.9263 114.084 62.541C113.393 62.1557 112.849 61.6003 112.452 60.875C112.055 60.1497 111.857 59.294 111.857 58.308C111.857 57.3333 112.055 56.4833 112.452 55.758C112.849 55.0327 113.393 54.4773 114.084 54.092C114.787 53.7067 115.591 53.514 116.498 53.514C117.416 53.514 118.215 53.7067 118.895 54.092C119.586 54.466 120.113 54.9873 120.476 55.656C120.85 56.3133 121.037 57.05 121.037 57.866ZM119.082 57.815C119.105 57.203 118.997 56.693 118.759 56.285C118.532 55.8657 118.215 55.5597 117.807 55.367C117.41 55.163 116.974 55.061 116.498 55.061C115.739 55.061 115.104 55.2933 114.594 55.758C114.084 56.2227 113.806 56.9083 113.761 57.815H119.082ZM126.75 60.994L129.402 53.633H131.476L127.906 63H125.56L121.99 53.633H124.064L126.75 60.994ZM132.63 50.913C132.63 50.5843 132.744 50.3123 132.97 50.097C133.197 49.8817 133.497 49.774 133.871 49.774C134.245 49.774 134.546 49.8817 134.772 50.097C135.01 50.3123 135.129 50.5843 135.129 50.913C135.129 51.2417 135.01 51.508 134.772 51.712C134.546 51.916 134.245 52.018 133.871 52.018C133.497 52.018 133.197 51.916 132.97 51.712C132.744 51.508 132.63 51.2417 132.63 50.913ZM134.84 53.633V63H132.902V53.633H134.84ZM145.89 57.866C145.89 58.1833 145.867 58.461 145.822 58.699H138.614C138.648 59.6623 138.914 60.3763 139.413 60.841C139.911 61.3057 140.529 61.538 141.266 61.538C141.912 61.538 142.456 61.3737 142.898 61.045C143.351 60.7163 143.629 60.28 143.731 59.736H145.805C145.68 60.3933 145.419 60.977 145.023 61.487C144.626 61.997 144.11 62.3993 143.476 62.694C142.841 62.9773 142.133 63.119 141.351 63.119C140.444 63.119 139.639 62.9263 138.937 62.541C138.245 62.1557 137.701 61.6003 137.305 60.875C136.908 60.1497 136.71 59.294 136.71 58.308C136.71 57.3333 136.908 56.4833 137.305 55.758C137.701 55.0327 138.245 54.4773 138.937 54.092C139.639 53.7067 140.444 53.514 141.351 53.514C142.269 53.514 143.068 53.7067 143.748 54.092C144.439 54.466 144.966 54.9873 145.329 55.656C145.703 56.3133 145.89 57.05 145.89 57.866ZM143.935 57.815C143.957 57.203 143.85 56.693 143.612 56.285C143.385 55.8657 143.068 55.5597 142.66 55.367C142.263 55.163 141.827 55.061 141.351 55.061C140.591 55.061 139.957 55.2933 139.447 55.758C138.937 56.2227 138.659 56.9083 138.614 57.815H143.935ZM160.885 53.633L158.284 63H156.142L153.83 55.758L151.484 63H149.359L146.758 53.633H148.713L150.498 61.215L152.844 53.633H154.884L157.264 61.215L159.049 53.633H160.885ZM170.908 57.866C170.908 58.1833 170.886 58.461 170.84 58.699H163.632C163.666 59.6623 163.933 60.3763 164.431 60.841C164.93 61.3057 165.548 61.538 166.284 61.538C166.93 61.538 167.474 61.3737 167.916 61.045C168.37 60.7163 168.647 60.28 168.749 59.736H170.823C170.699 60.3933 170.438 60.977 170.041 61.487C169.645 61.997 169.129 62.3993 168.494 62.694C167.86 62.9773 167.151 63.119 166.369 63.119C165.463 63.119 164.658 62.9263 163.955 62.541C163.264 62.1557 162.72 61.6003 162.323 60.875C161.927 60.1497 161.728 59.294 161.728 58.308C161.728 57.3333 161.927 56.4833 162.323 55.758C162.72 55.0327 163.264 54.4773 163.955 54.092C164.658 53.7067 165.463 53.514 166.369 53.514C167.287 53.514 168.086 53.7067 168.766 54.092C169.458 54.466 169.985 54.9873 170.347 55.656C170.721 56.3133 170.908 57.05 170.908 57.866ZM168.953 57.815C168.976 57.203 168.868 56.693 168.63 56.285C168.404 55.8657 168.086 55.5597 167.678 55.367C167.282 55.163 166.845 55.061 166.369 55.061C165.61 55.061 164.975 55.2933 164.465 55.758C163.955 56.2227 163.678 56.9083 163.632 57.815H168.953ZM176.536 53.514C177.386 53.514 178.112 53.7237 178.712 54.143C179.313 54.5623 179.732 55.1177 179.97 55.809V50.42H181.925V63H179.97V60.824C179.732 61.5153 179.313 62.0707 178.712 62.49C178.112 62.9093 177.386 63.119 176.536 63.119C175.72 63.119 174.989 62.9263 174.343 62.541C173.709 62.1557 173.21 61.6003 172.847 60.875C172.485 60.1497 172.303 59.294 172.303 58.308C172.303 57.3333 172.485 56.4833 172.847 55.758C173.21 55.0327 173.709 54.4773 174.343 54.092C174.989 53.7067 175.72 53.514 176.536 53.514ZM177.131 55.214C176.27 55.214 175.579 55.4917 175.057 56.047C174.547 56.591 174.292 57.3447 174.292 58.308C174.292 59.2713 174.547 60.0307 175.057 60.586C175.579 61.13 176.27 61.402 177.131 61.402C177.675 61.402 178.163 61.2773 178.593 61.028C179.024 60.7673 179.364 60.4047 179.613 59.94C179.863 59.4753 179.987 58.9313 179.987 58.308C179.987 57.696 179.863 57.1577 179.613 56.693C179.364 56.217 179.024 55.8543 178.593 55.605C178.163 55.3443 177.675 55.214 177.131 55.214Z" fill="#232946"/>
<g clip-path="url(#clip0)">
<path d="M65.9093 40.5505C68.4031 37.7584 69.8969 25.9105 69.8969 25.9105C69.8969 25.9105 58.2923 28.7275 55.7985 31.5197C53.3049 34.3118 53.9786 38.113 56.7708 40.6067C59.5627 43.1006 63.4154 43.3425 65.9093 40.5505Z" fill="black"/>
<path d="M41.5437 58.9581C39.0499 61.7503 39.7238 65.5515 42.5159 68.0453C45.308 70.5391 49.1608 70.7812 51.6545 67.989C54.1484 65.1971 55.6422 53.3491 55.6422 53.3491C55.6422 53.3491 44.0375 56.1663 41.5437 58.9581Z" fill="black"/>
<path d="M61.3934 49.893C59.9439 51.5155 60.3355 53.7248 61.9581 55.1743C63.5809 56.6239 65.8204 56.7644 67.2699 55.1418C68.7194 53.519 69.5874 46.6329 69.5874 46.6329C69.5874 46.6329 62.8428 48.2702 61.3934 49.893Z" fill="black"/>
<path d="M45.7572 49.5119C48.251 46.7196 49.7447 34.872 49.7447 34.872C49.7447 34.872 38.1403 37.6889 35.6463 40.4811C33.1524 43.2732 33.8263 47.0743 36.6185 49.568C39.4106 52.0619 43.2634 52.304 45.7572 49.5119Z" fill="black"/>
<path d="M46.6633 28.1465C48.2109 29.5289 50.3468 29.6632 51.7292 28.1153C53.1116 26.5676 53.9395 20 53.9395 20C53.9395 20 47.5067 21.5615 46.1242 23.1092C44.7419 24.657 45.1154 26.7641 46.6633 28.1465Z" fill="black"/>
</g>
<defs>
<clipPath id="clip0">
<rect width="50" height="50" fill="white" transform="translate(27 20)"/>
</clipPath>
</defs>
</svg>
