<svg width="250" height="90" viewBox="0 0 250 90" fill="none" xmlns="http://www.w3.org/2000/svg">
<rect width="250" height="90" rx="20" fill="white"/>
<path d="M110.061 37.804C110.061 38.3933 109.919 38.943 109.636 39.453C109.353 39.9517 108.922 40.354 108.344 40.66C107.766 40.966 107.058 41.119 106.219 41.119C105.403 41.119 104.672 40.9773 104.026 40.694C103.38 40.3993 102.864 39.9913 102.479 39.47C102.094 38.9487 101.873 38.348 101.816 37.668H103.89C103.947 38.1893 104.168 38.637 104.553 39.011C104.95 39.385 105.477 39.572 106.134 39.572C106.723 39.572 107.177 39.4133 107.494 39.096C107.823 38.7787 107.987 38.3707 107.987 37.872C107.987 37.4413 107.868 37.09 107.63 36.818C107.392 36.5347 107.097 36.3137 106.746 36.155C106.395 35.9963 105.913 35.815 105.301 35.611C104.553 35.373 103.941 35.135 103.465 34.897C103 34.659 102.604 34.3133 102.275 33.86C101.946 33.4067 101.782 32.8117 101.782 32.075C101.782 31.429 101.941 30.8623 102.258 30.375C102.575 29.8877 103.029 29.5137 103.618 29.253C104.207 28.981 104.887 28.845 105.658 28.845C106.882 28.845 107.851 29.1397 108.565 29.729C109.29 30.3183 109.704 31.089 109.806 32.041H107.715C107.636 31.5877 107.42 31.2023 107.069 30.885C106.729 30.5563 106.259 30.392 105.658 30.392C105.114 30.392 104.678 30.5337 104.349 30.817C104.02 31.089 103.856 31.4857 103.856 32.007C103.856 32.415 103.969 32.755 104.196 33.027C104.423 33.2877 104.706 33.4973 105.046 33.656C105.397 33.8033 105.873 33.979 106.474 34.183C107.233 34.421 107.851 34.6647 108.327 34.914C108.814 35.152 109.222 35.5033 109.551 35.968C109.891 36.4327 110.061 37.0447 110.061 37.804ZM116.166 31.514C117.379 31.514 118.382 31.837 119.175 32.483C119.968 33.1177 120.461 33.9847 120.654 35.084H118.597C118.484 34.4947 118.206 34.0357 117.764 33.707C117.333 33.367 116.789 33.197 116.132 33.197C115.384 33.197 114.761 33.4633 114.262 33.996C113.763 34.5173 113.514 35.288 113.514 36.308C113.514 37.328 113.763 38.1043 114.262 38.637C114.761 39.1697 115.384 39.436 116.132 39.436C116.789 39.436 117.333 39.266 117.764 38.926C118.206 38.586 118.484 38.1213 118.597 37.532H120.654C120.461 38.6313 119.968 39.504 119.175 40.15C118.382 40.796 117.379 41.119 116.166 41.119C115.259 41.119 114.455 40.9263 113.752 40.541C113.061 40.1557 112.517 39.6003 112.12 38.875C111.723 38.1497 111.525 37.294 111.525 36.308C111.525 35.3333 111.723 34.4833 112.12 33.758C112.517 33.0327 113.061 32.4773 113.752 32.092C114.455 31.7067 115.259 31.514 116.166 31.514ZM127.763 31.48C128.851 31.48 129.723 31.8313 130.381 32.534C131.038 33.2367 131.367 34.2397 131.367 35.543V41H129.429V35.747C129.429 34.9083 129.213 34.2623 128.783 33.809C128.352 33.3443 127.763 33.112 127.015 33.112C126.244 33.112 125.626 33.3613 125.162 33.86C124.697 34.3473 124.465 35.067 124.465 36.019V41H122.527V28.42H124.465V33.69C124.714 32.9873 125.133 32.4433 125.723 32.058C126.312 31.6727 126.992 31.48 127.763 31.48ZM142.337 35.866C142.337 36.1833 142.314 36.461 142.269 36.699H135.061C135.095 37.6623 135.361 38.3763 135.86 38.841C136.359 39.3057 136.976 39.538 137.713 39.538C138.359 39.538 138.903 39.3737 139.345 39.045C139.798 38.7163 140.076 38.28 140.178 37.736H142.252C142.127 38.3933 141.867 38.977 141.47 39.487C141.073 39.997 140.558 40.3993 139.923 40.694C139.288 40.9773 138.58 41.119 137.798 41.119C136.891 41.119 136.087 40.9263 135.384 40.541C134.693 40.1557 134.149 39.6003 133.752 38.875C133.355 38.1497 133.157 37.294 133.157 36.308C133.157 35.3333 133.355 34.4833 133.752 33.758C134.149 33.0327 134.693 32.4773 135.384 32.092C136.087 31.7067 136.891 31.514 137.798 31.514C138.716 31.514 139.515 31.7067 140.195 32.092C140.886 32.466 141.413 32.9873 141.776 33.656C142.15 34.3133 142.337 35.05 142.337 35.866ZM140.382 35.815C140.405 35.203 140.297 34.693 140.059 34.285C139.832 33.8657 139.515 33.5597 139.107 33.367C138.71 33.163 138.274 33.061 137.798 33.061C137.039 33.061 136.404 33.2933 135.894 33.758C135.384 34.2227 135.106 34.9083 135.061 35.815H140.382ZM147.965 31.514C148.815 31.514 149.54 31.7237 150.141 32.143C150.742 32.5623 151.161 33.1177 151.399 33.809V28.42H153.354V41H151.399V38.824C151.161 39.5153 150.742 40.0707 150.141 40.49C149.54 40.9093 148.815 41.119 147.965 41.119C147.149 41.119 146.418 40.9263 145.772 40.541C145.137 40.1557 144.639 39.6003 144.276 38.875C143.913 38.1497 143.732 37.294 143.732 36.308C143.732 35.3333 143.913 34.4833 144.276 33.758C144.639 33.0327 145.137 32.4773 145.772 32.092C146.418 31.7067 147.149 31.514 147.965 31.514ZM148.56 33.214C147.699 33.214 147.007 33.4917 146.486 34.047C145.976 34.591 145.721 35.3447 145.721 36.308C145.721 37.2713 145.976 38.0307 146.486 38.586C147.007 39.13 147.699 39.402 148.56 39.402C149.104 39.402 149.591 39.2773 150.022 39.028C150.453 38.7673 150.793 38.4047 151.042 37.94C151.291 37.4753 151.416 36.9313 151.416 36.308C151.416 35.696 151.291 35.1577 151.042 34.693C150.793 34.217 150.453 33.8543 150.022 33.605C149.591 33.3443 149.104 33.214 148.56 33.214ZM164.316 31.633V41H162.361V38.96C162.123 39.6513 161.709 40.1897 161.12 40.575C160.531 40.949 159.845 41.136 159.063 41.136C157.975 41.136 157.102 40.7847 156.445 40.082C155.788 39.3793 155.459 38.3763 155.459 37.073V31.633H157.397V36.869C157.397 37.719 157.612 38.3763 158.043 38.841C158.474 39.2943 159.063 39.521 159.811 39.521C160.582 39.521 161.199 39.2717 161.664 38.773C162.129 38.2743 162.361 37.549 162.361 36.597V31.633H164.316ZM168.575 28.42V41H166.637V28.42H168.575ZM179.624 35.866C179.624 36.1833 179.601 36.461 179.556 36.699H172.348C172.382 37.6623 172.648 38.3763 173.147 38.841C173.646 39.3057 174.263 39.538 175 39.538C175.646 39.538 176.19 39.3737 176.632 39.045C177.085 38.7163 177.363 38.28 177.465 37.736H179.539C179.414 38.3933 179.154 38.977 178.757 39.487C178.36 39.997 177.845 40.3993 177.21 40.694C176.575 40.9773 175.867 41.119 175.085 41.119C174.178 41.119 173.374 40.9263 172.671 40.541C171.98 40.1557 171.436 39.6003 171.039 38.875C170.642 38.1497 170.444 37.294 170.444 36.308C170.444 35.3333 170.642 34.4833 171.039 33.758C171.436 33.0327 171.98 32.4773 172.671 32.092C173.374 31.7067 174.178 31.514 175.085 31.514C176.003 31.514 176.802 31.7067 177.482 32.092C178.173 32.466 178.7 32.9873 179.063 33.656C179.437 34.3133 179.624 35.05 179.624 35.866ZM177.669 35.815C177.692 35.203 177.584 34.693 177.346 34.285C177.119 33.8657 176.802 33.5597 176.394 33.367C175.997 33.163 175.561 33.061 175.085 33.061C174.326 33.061 173.691 33.2933 173.181 33.758C172.671 34.2227 172.393 34.9083 172.348 35.815H177.669ZM185.252 31.514C186.102 31.514 186.828 31.7237 187.428 32.143C188.029 32.5623 188.448 33.1177 188.686 33.809V28.42H190.641V41H188.686V38.824C188.448 39.5153 188.029 40.0707 187.428 40.49C186.828 40.9093 186.102 41.119 185.252 41.119C184.436 41.119 183.705 40.9263 183.059 40.541C182.425 40.1557 181.926 39.6003 181.563 38.875C181.201 38.1497 181.019 37.294 181.019 36.308C181.019 35.3333 181.201 34.4833 181.563 33.758C181.926 33.0327 182.425 32.4773 183.059 32.092C183.705 31.7067 184.436 31.514 185.252 31.514ZM185.847 33.214C184.986 33.214 184.295 33.4917 183.773 34.047C183.263 34.591 183.008 35.3447 183.008 36.308C183.008 37.2713 183.263 38.0307 183.773 38.586C184.295 39.13 184.986 39.402 185.847 39.402C186.391 39.402 186.879 39.2773 187.309 39.028C187.74 38.7673 188.08 38.4047 188.329 37.94C188.579 37.4753 188.703 36.9313 188.703 36.308C188.703 35.696 188.579 35.1577 188.329 34.693C188.08 34.217 187.74 33.8543 187.309 33.605C186.879 33.3443 186.391 33.214 185.847 33.214ZM109.262 50.998V52.562H104.111V56.285H108.361V57.781H104.111V63H102.173V50.998H109.262ZM115.272 53.514C116.179 53.514 116.995 53.7067 117.72 54.092C118.446 54.4773 119.012 55.0327 119.42 55.758C119.828 56.4833 120.032 57.3333 120.032 58.308C120.032 59.294 119.828 60.1497 119.42 60.875C119.012 61.6003 118.446 62.1557 117.72 62.541C116.995 62.9263 116.179 63.119 115.272 63.119C114.366 63.119 113.55 62.9263 112.824 62.541C112.11 62.1557 111.544 61.6003 111.124 60.875C110.716 60.1383 110.512 59.2827 110.512 58.308C110.512 57.3333 110.716 56.4833 111.124 55.758C111.544 55.0327 112.11 54.4773 112.824 54.092C113.55 53.7067 114.366 53.514 115.272 53.514ZM115.272 55.197C114.774 55.197 114.315 55.3103 113.895 55.537C113.476 55.7637 113.136 56.115 112.875 56.591C112.626 57.0557 112.501 57.628 112.501 58.308C112.501 58.9993 112.626 59.5773 112.875 60.042C113.136 60.5067 113.476 60.8523 113.895 61.079C114.315 61.3057 114.774 61.419 115.272 61.419C115.771 61.419 116.23 61.3057 116.649 61.079C117.069 60.8523 117.403 60.5067 117.652 60.042C117.913 59.5773 118.043 58.9993 118.043 58.308C118.043 57.628 117.913 57.0557 117.652 56.591C117.403 56.115 117.069 55.7637 116.649 55.537C116.23 55.3103 115.771 55.197 115.272 55.197ZM123.834 55.469C124.151 54.857 124.604 54.3753 125.194 54.024C125.783 53.6613 126.463 53.48 127.234 53.48V55.588H126.656C125.806 55.588 125.12 55.7977 124.599 56.217C124.089 56.625 123.834 57.305 123.834 58.257V63H121.896V53.633H123.834V55.469ZM134.608 50.998V63H132.67V50.998H134.608ZM142.189 53.48C143.277 53.48 144.15 53.8313 144.807 54.534C145.465 55.2367 145.793 56.2397 145.793 57.543V63H143.855V57.747C143.855 56.9083 143.64 56.2623 143.209 55.809C142.779 55.3443 142.189 55.112 141.441 55.112C140.671 55.112 140.053 55.3613 139.588 55.86C139.124 56.3473 138.891 57.067 138.891 58.019V63H136.953V53.633H138.891V55.69C139.141 54.9873 139.56 54.4433 140.149 54.058C140.739 53.6727 141.419 53.48 142.189 53.48ZM152.769 61.317V63H151.579C150.581 63 149.822 62.762 149.301 62.286C148.791 61.7987 148.536 60.994 148.536 59.872V55.282H147.193V53.633H148.536V51.304H150.491V53.633H152.752V55.282H150.491V59.906C150.491 60.4387 150.587 60.807 150.78 61.011C150.984 61.215 151.335 61.317 151.834 61.317H152.769ZM163.288 57.866C163.288 58.1833 163.265 58.461 163.22 58.699H156.012C156.046 59.6623 156.312 60.3763 156.811 60.841C157.31 61.3057 157.927 61.538 158.664 61.538C159.31 61.538 159.854 61.3737 160.296 61.045C160.749 60.7163 161.027 60.28 161.129 59.736H163.203C163.078 60.3933 162.818 60.977 162.421 61.487C162.024 61.997 161.509 62.3993 160.874 62.694C160.239 62.9773 159.531 63.119 158.749 63.119C157.842 63.119 157.038 62.9263 156.335 62.541C155.644 62.1557 155.1 61.6003 154.703 60.875C154.306 60.1497 154.108 59.294 154.108 58.308C154.108 57.3333 154.306 56.4833 154.703 55.758C155.1 55.0327 155.644 54.4773 156.335 54.092C157.038 53.7067 157.842 53.514 158.749 53.514C159.667 53.514 160.466 53.7067 161.146 54.092C161.837 54.466 162.364 54.9873 162.727 55.656C163.101 56.3133 163.288 57.05 163.288 57.866ZM161.333 57.815C161.356 57.203 161.248 56.693 161.01 56.285C160.783 55.8657 160.466 55.5597 160.058 55.367C159.661 55.163 159.225 55.061 158.749 55.061C157.99 55.061 157.355 55.2933 156.845 55.758C156.335 56.2227 156.057 56.9083 156.012 57.815H161.333ZM167.097 55.469C167.415 54.857 167.868 54.3753 168.457 54.024C169.047 53.6613 169.727 53.48 170.497 53.48V55.588H169.919C169.069 55.588 168.384 55.7977 167.862 56.217C167.352 56.625 167.097 57.305 167.097 58.257V63H165.159V53.633H167.097V55.469ZM175.791 60.994L178.443 53.633H180.517L176.947 63H174.601L171.031 53.633H173.105L175.791 60.994ZM181.672 50.913C181.672 50.5843 181.785 50.3123 182.012 50.097C182.238 49.8817 182.539 49.774 182.913 49.774C183.287 49.774 183.587 49.8817 183.814 50.097C184.052 50.3123 184.171 50.5843 184.171 50.913C184.171 51.2417 184.052 51.508 183.814 51.712C183.587 51.916 183.287 52.018 182.913 52.018C182.539 52.018 182.238 51.916 182.012 51.712C181.785 51.508 181.672 51.2417 181.672 50.913ZM183.882 53.633V63H181.944V53.633H183.882ZM194.931 57.866C194.931 58.1833 194.908 58.461 194.863 58.699H187.655C187.689 59.6623 187.955 60.3763 188.454 60.841C188.952 61.3057 189.57 61.538 190.307 61.538C190.953 61.538 191.497 61.3737 191.939 61.045C192.392 60.7163 192.67 60.28 192.772 59.736H194.846C194.721 60.3933 194.46 60.977 194.064 61.487C193.667 61.997 193.151 62.3993 192.517 62.694C191.882 62.9773 191.174 63.119 190.392 63.119C189.485 63.119 188.68 62.9263 187.978 62.541C187.286 62.1557 186.742 61.6003 186.346 60.875C185.949 60.1497 185.751 59.294 185.751 58.308C185.751 57.3333 185.949 56.4833 186.346 55.758C186.742 55.0327 187.286 54.4773 187.978 54.092C188.68 53.7067 189.485 53.514 190.392 53.514C191.31 53.514 192.109 53.7067 192.789 54.092C193.48 54.466 194.007 54.9873 194.37 55.656C194.744 56.3133 194.931 57.05 194.931 57.866ZM192.976 57.815C192.998 57.203 192.891 56.693 192.653 56.285C192.426 55.8657 192.109 55.5597 191.701 55.367C191.304 55.163 190.868 55.061 190.392 55.061C189.632 55.061 188.998 55.2933 188.488 55.758C187.978 56.2227 187.7 56.9083 187.655 57.815H192.976ZM209.926 53.633L207.325 63H205.183L202.871 55.758L200.525 63H198.4L195.799 53.633H197.754L199.539 61.215L201.885 53.633H203.925L206.305 61.215L208.09 53.633H209.926Z" fill="#232946"/>
<path d="M72.8748 26.8021C70.9033 23.4505 68.9633 20.7277 68.8816 20.6134C68.6067 20.2284 68.1628 20 67.6897 20C67.2167 20 66.7728 20.2284 66.4978 20.6134C66.4161 20.7276 64.4761 23.4505 62.5046 26.8021C62.2221 27.2822 61.9552 27.7479 61.7021 28.2008C62.3362 29.2251 62.9855 30.2969 63.6324 31.3966C67.0264 37.1663 69.3788 41.9907 70.7246 45.9564C74.3725 44.695 76.9996 41.2262 76.9996 37.155C76.9996 34.9069 75.6504 31.5204 72.8748 26.8021Z" fill="black"/>
<path d="M53.1916 20.6134C52.9166 20.2284 52.4727 20 51.9996 20C51.5266 20 51.0826 20.2284 50.8076 20.6134C50.7681 20.6688 46.8021 26.2347 42.892 32.8819C37.5521 41.9596 34.8447 48.6762 34.8447 52.845C34.8446 62.3043 42.5403 70 51.9996 70C61.4589 70 69.1546 62.3043 69.1546 52.845C69.1546 48.6762 66.4471 41.9596 61.1073 32.8819C57.1971 26.2347 53.2312 20.6688 53.1916 20.6134Z" fill="black"/>
<path d="M39.9463 32.1175C38.6144 30.0199 37.5615 28.542 37.5019 28.4585C37.2269 28.0735 36.7829 27.8451 36.3099 27.8451C35.8368 27.8451 35.3929 28.0735 35.1179 28.4585C35.0362 28.5728 33.0962 31.2956 31.1247 34.6472C28.3492 39.3655 27 42.752 27 45C27 48.547 28.9941 51.6367 31.92 53.2079C31.8777 50.8338 32.1775 45.4872 39.9463 32.1175Z" fill="black"/>
</svg>
