<svg width="25" height="24" viewBox="0 0 25 24" fill="none" xmlns="http://www.w3.org/2000/svg">
<g clip-path="url(#clip0)">
<path d="M12.5002 15C14.1518 15 15.4907 13.6569 15.4907 12C15.4907 10.3431 14.1518 9 12.5002 9C10.8486 9 9.50977 10.3431 9.50977 12C9.50977 13.6569 10.8486 15 12.5002 15Z" stroke="#FFFFFE" stroke-width="2" stroke-linecap="round" stroke-linejoin="round"/>
<path d="M19.8767 15C19.744 15.3016 19.7045 15.6362 19.7631 15.9606C19.8217 16.285 19.9759 16.5843 20.2057 16.82L20.2655 16.88C20.4509 17.0657 20.5979 17.2863 20.6982 17.5291C20.7986 17.7719 20.8502 18.0322 20.8502 18.295C20.8502 18.5578 20.7986 18.8181 20.6982 19.0609C20.5979 19.3037 20.4509 19.5243 20.2655 19.71C20.0803 19.896 19.8605 20.0435 19.6184 20.1441C19.3764 20.2448 19.117 20.2966 18.855 20.2966C18.593 20.2966 18.3336 20.2448 18.0915 20.1441C17.8495 20.0435 17.6296 19.896 17.4445 19.71L17.3847 19.65C17.1497 19.4195 16.8514 19.2648 16.528 19.206C16.2046 19.1472 15.8711 19.1869 15.5705 19.32C15.2756 19.4468 15.0242 19.6572 14.8471 19.9255C14.67 20.1938 14.5749 20.5082 14.5736 20.83V21C14.5736 21.5304 14.3636 22.0391 13.9897 22.4142C13.6158 22.7893 13.1087 23 12.58 23C12.0512 23 11.5441 22.7893 11.1703 22.4142C10.7964 22.0391 10.5863 21.5304 10.5863 21V20.91C10.5786 20.579 10.4718 20.258 10.2798 19.9887C10.0878 19.7194 9.81951 19.5143 9.50976 19.4C9.2091 19.2669 8.87558 19.2272 8.55222 19.286C8.22885 19.3448 7.93047 19.4995 7.69554 19.73L7.63573 19.79C7.45057 19.976 7.23069 20.1235 6.98867 20.2241C6.74664 20.3248 6.48722 20.3766 6.22522 20.3766C5.96322 20.3766 5.7038 20.3248 5.46177 20.2241C5.21974 20.1235 4.99987 19.976 4.81471 19.79C4.62935 19.6043 4.4823 19.3837 4.38197 19.1409C4.28164 18.8981 4.23 18.6378 4.23 18.375C4.23 18.1122 4.28164 17.8519 4.38197 17.6091C4.4823 17.3663 4.62935 17.1457 4.81471 16.96L4.87452 16.9C5.10433 16.6643 5.25848 16.365 5.31712 16.0406C5.37575 15.7162 5.33617 15.3816 5.20347 15.08C5.07711 14.7842 4.8673 14.532 4.59986 14.3543C4.33242 14.1766 4.01903 14.0813 3.69827 14.08H3.52881C3.00006 14.08 2.49296 13.8693 2.11908 13.4942C1.7452 13.1191 1.53516 12.6104 1.53516 12.08C1.53516 11.5496 1.7452 11.0409 2.11908 10.6658C2.49296 10.2907 3.00006 10.08 3.52881 10.08H3.61852C3.94846 10.0723 4.26846 9.96512 4.5369 9.77251C4.80533 9.5799 5.00981 9.31074 5.12373 9C5.25642 8.69838 5.296 8.36381 5.23737 8.03941C5.17874 7.71502 5.02458 7.41568 4.79477 7.18L4.73497 7.12C4.5496 6.93425 4.40255 6.71368 4.30222 6.47088C4.2019 6.22808 4.15025 5.96783 4.15025 5.705C4.15025 5.44217 4.2019 5.18192 4.30222 4.93912C4.40255 4.69632 4.5496 4.47575 4.73497 4.29C4.92012 4.10405 5.14 3.95653 5.38202 3.85588C5.62405 3.75523 5.88348 3.70343 6.14547 3.70343C6.40747 3.70343 6.6669 3.75523 6.90892 3.85588C7.15095 3.95653 7.37082 4.10405 7.55598 4.29L7.61579 4.35C7.85072 4.58054 8.14911 4.73519 8.47247 4.794C8.79584 4.85282 9.12935 4.81312 9.43001 4.68H9.50976C9.80459 4.55324 10.056 4.34276 10.2331 4.07447C10.4103 3.80618 10.5053 3.49179 10.5066 3.17V3C10.5066 2.46957 10.7166 1.96086 11.0905 1.58579C11.4644 1.21071 11.9715 1 12.5002 1C13.029 1 13.5361 1.21071 13.91 1.58579C14.2838 1.96086 14.4939 2.46957 14.4939 3V3.09C14.4952 3.41179 14.5902 3.72618 14.7673 3.99447C14.9444 4.26276 15.1959 4.47324 15.4907 4.6C15.7914 4.73312 16.1249 4.77282 16.4482 4.714C16.7716 4.65519 17.07 4.50054 17.3049 4.27L17.3647 4.21C17.5499 4.02405 17.7698 3.87653 18.0118 3.77588C18.2538 3.67523 18.5133 3.62343 18.7752 3.62343C19.0372 3.62343 19.2967 3.67523 19.5387 3.77588C19.7807 3.87653 20.0006 4.02405 20.1858 4.21C20.3711 4.39575 20.5182 4.61632 20.6185 4.85912C20.7188 5.10192 20.7705 5.36217 20.7705 5.625C20.7705 5.88783 20.7188 6.14808 20.6185 6.39088C20.5182 6.63368 20.3711 6.85425 20.1858 7.04L20.1259 7.1C19.8961 7.33568 19.742 7.63502 19.6834 7.95941C19.6247 8.28381 19.6643 8.61838 19.797 8.92V9C19.9234 9.29577 20.1332 9.54802 20.4006 9.72569C20.668 9.90337 20.9814 9.99872 21.3022 10H21.4717C22.0004 10 22.5075 10.2107 22.8814 10.5858C23.2553 10.9609 23.4653 11.4696 23.4653 12C23.4653 12.5304 23.2553 13.0391 22.8814 13.4142C22.5075 13.7893 22.0004 14 21.4717 14H21.3819C21.0612 14.0013 20.7478 14.0966 20.4804 14.2743C20.2129 14.452 20.0031 14.7042 19.8767 15V15Z" stroke="#FFFFFE" stroke-width="2" stroke-linecap="round" stroke-linejoin="round"/>
</g>
<defs>
<clipPath id="clip0">
<rect width="23.9238" height="24" fill="white" transform="translate(0.539062)"/>
</clipPath>
</defs>
</svg>
