<svg width="1025" height="657" viewBox="0 0 1025 657" fill="none" xmlns="http://www.w3.org/2000/svg">
<path d="M904.573 584.576C897.402 566.35 896.356 546.406 901.66 527.583C901.137 527.807 900.539 528.031 900.016 528.255C901.361 529.151 902.631 530.122 903.975 531.019C904.498 531.392 905.544 531.019 905.618 530.346C910.548 495.613 925.039 462.746 947.448 435.706C946.851 435.557 946.178 435.408 945.581 435.183C957.831 486.5 942.668 539.161 924.143 586.966C923.62 588.311 925.786 588.908 926.309 587.564C944.983 539.31 960.072 486.35 947.747 434.586C947.598 433.839 946.403 433.465 945.88 434.063C923.321 461.402 908.532 494.642 903.527 529.749C904.05 529.525 904.647 529.301 905.17 529.077C903.826 528.18 902.556 527.209 901.211 526.313C900.614 525.865 899.717 526.313 899.568 526.985C894.19 546.182 895.161 566.649 902.481 585.173C902.929 586.518 905.096 585.92 904.573 584.576Z" fill="#D6D6D6"/>
<path d="M951.184 486.798C955.889 475.37 961.79 464.539 968.737 454.231C968.214 454.38 967.691 454.53 967.169 454.604C968.065 455.277 969.036 455.949 969.932 456.547C970.455 456.92 971.202 456.621 971.501 456.173C978 444.446 985.619 433.391 994.358 423.232C993.76 423.157 993.163 423.083 992.565 423.008C1004.07 442.802 995.329 467.228 988.308 487.023C980.689 508.759 971.202 529.823 959.4 549.543C952.677 560.748 945.208 571.504 936.991 581.588C936.095 582.708 937.664 584.277 938.56 583.157C953.649 564.632 966.048 544.24 976.132 522.653C981.137 511.971 985.544 501.065 989.577 490.01C993.536 479.03 997.421 467.826 999.213 456.248C1001.08 444.446 1000.48 432.345 994.433 421.813C994.059 421.215 993.163 421.066 992.64 421.589C983.826 431.971 976.057 443.101 969.409 454.978C969.932 454.829 970.455 454.679 970.978 454.604C970.082 453.932 969.111 453.26 968.214 452.662C967.691 452.289 967.019 452.588 966.646 453.036C959.624 463.419 953.723 474.474 948.868 486.126C948.494 487.545 950.661 488.143 951.184 486.798Z" fill="#D6D6D6"/>
<path d="M944.386 436.453C934.526 482.093 919.512 526.537 912.416 572.699C912.192 574.118 914.358 574.716 914.582 573.297C921.678 527.06 936.692 482.616 946.552 437.051C946.851 435.632 944.685 435.034 944.386 436.453Z" fill="#D6D6D6"/>
<path d="M993.163 423.531C985.469 470.44 962.612 512.643 940.054 553.801C939.382 555.071 941.324 556.191 941.996 554.921C964.629 513.54 987.561 471.187 995.329 424.128C995.553 422.709 993.387 422.112 993.163 423.531Z" fill="#D6D6D6"/>
<path d="M913.761 491.355C919.064 499.572 922.575 508.684 924.069 518.395C924.293 519.814 926.459 519.217 926.235 517.797C924.741 507.938 921.155 498.6 915.703 490.235C914.881 489.039 912.939 490.16 913.761 491.355Z" fill="#D6D6D6"/>
<path d="M929.447 504.95C936.991 493.372 944.535 481.719 952.08 470.141C952.901 468.946 950.959 467.826 950.138 469.021C942.593 480.599 935.049 492.251 927.505 503.829C926.683 505.024 928.625 506.145 929.447 504.95Z" fill="#D6D6D6"/>
<path d="M959.475 465.585C959.176 481.122 960.296 496.584 962.686 511.896C962.911 513.316 965.077 512.718 964.853 511.299C962.462 496.136 961.417 480.898 961.715 465.585C961.79 464.091 959.549 464.091 959.475 465.585Z" fill="#D6D6D6"/>
<path d="M981.137 475.295C987.262 469.095 993.237 462.597 998.914 455.949C999.811 454.829 998.242 453.26 997.346 454.38C991.669 461.028 985.768 467.452 979.568 473.727C978.522 474.772 980.091 476.341 981.137 475.295Z" fill="#D6D6D6"/>
<path d="M95.0904 545.808C78.8067 534.231 67.5275 516.677 63.718 497.032C63.4939 497.48 63.1952 497.928 62.9711 498.376C64.7638 497.854 66.4071 498.302 67.7516 499.646C68.7227 500.617 69.9925 499.422 69.5443 498.302C59.6097 475.893 54.381 451.617 54.3063 427.116C54.0075 427.49 53.7834 427.863 53.4846 428.162C54.2316 428.535 55.0533 428.984 55.8002 429.357C56.3231 430.253 57.9664 429.955 57.8917 428.76C57.3689 422.261 56.846 415.762 56.3231 409.264C55.8749 403.512 55.2027 397.462 58.9375 392.607C58.4146 392.756 57.8917 392.905 57.3689 392.98C62.5976 396.715 65.6601 402.765 68.7227 408.218C71.7105 413.596 74.549 419.124 77.238 424.651C82.8403 436.304 87.6208 448.33 91.5797 460.655C99.4228 484.707 104.129 509.656 105.697 534.903C105.772 536.322 108.013 536.322 107.938 534.903C106.295 508.61 101.29 482.541 92.9242 457.518C88.816 445.267 83.9607 433.316 78.2838 421.738C75.3706 415.762 72.3081 409.936 69.0215 404.185C66.183 399.18 63.2699 394.399 58.4893 390.963C57.9664 390.59 57.2942 390.889 56.9207 391.337C53.5593 395.744 53.4847 401.271 53.7834 406.649C54.3063 413.97 54.9786 421.29 55.5761 428.685C56.2484 428.461 56.9954 428.311 57.6676 428.087C56.5472 426.145 54.9786 425.548 52.8124 425.846C52.3642 425.921 51.9907 426.444 51.9907 426.892C52.1401 451.841 57.4435 476.416 67.5275 499.198C68.1251 498.75 68.7227 498.302 69.3202 497.854C67.3781 495.837 64.9879 495.239 62.3735 495.986C61.7759 496.136 61.4771 496.733 61.6265 497.331C65.5854 517.573 77.238 535.5 93.97 547.452C95.1651 548.572 96.2856 546.63 95.0904 545.808Z" fill="#D6D6D6"/>
<path d="M88.3676 443.624C87.6953 439.366 87.1724 435.109 86.9484 430.851C86.7243 426.892 85.6038 420.991 88.5917 417.854C90.3097 416.136 91.1313 415.314 91.5048 412.7C92.0277 408.517 92.0277 404.259 92.4759 400.076C93.3722 391.337 94.6421 382.747 96.4348 374.157C96.7336 372.737 96.883 370.048 97.6299 368.779C99.4226 365.865 102.186 368.928 103.606 370.347C106.145 372.887 108.162 375.875 109.88 379.012C117.051 392.159 118.993 408.368 120.935 423.008C123.101 439.292 123.998 455.725 123.55 472.158C123.101 490.832 120.562 509.432 114.138 527.06C113.615 528.404 115.781 529.002 116.304 527.657C128.778 493.222 127.658 454.156 122.504 418.452C120.338 403.288 118.022 386.033 108.834 373.186C106.818 370.422 100.692 361.608 96.7336 365.567C94.6421 367.583 94.4927 372.289 93.9698 374.904C92.9988 379.834 92.1024 384.764 91.4301 389.768C90.7579 394.623 90.235 399.479 89.7868 404.334C89.5627 406.948 89.7868 409.936 89.1892 412.476C88.5917 414.941 86.799 415.688 85.6038 417.63C83.6617 420.618 84.4087 425.324 84.5581 428.685C84.7822 433.839 85.3797 438.993 86.2014 444.147C86.4255 445.641 88.5917 445.043 88.3676 443.624Z" fill="#D6D6D6"/>
<path d="M97.4059 367.21C109.432 413.82 112.793 462.298 107.34 510.104C107.191 511.523 109.432 511.523 109.581 510.104C115.034 462.074 111.598 413.372 99.5721 366.612C99.1986 365.268 97.0324 365.865 97.4059 367.21Z" fill="#D6D6D6"/>
<path d="M55.8005 392.532C73.3541 437.424 87.0235 483.736 96.8087 530.944C97.1075 532.363 99.2737 531.766 98.9749 530.346C89.2644 483.138 75.5203 436.827 57.9667 391.934C57.3691 390.59 55.2029 391.187 55.8005 392.532Z" fill="#D6D6D6"/>
<path d="M56.1738 461.252C68.424 464.688 78.5827 472.756 84.7824 483.885C85.4547 485.155 87.3968 484.035 86.7245 482.765C80.226 471.187 69.4697 462.746 56.7714 459.161C55.3522 458.713 54.7546 460.879 56.1738 461.252Z" fill="#D6D6D6"/>
<path d="M80.9728 432.27C79.6282 443.848 79.4042 455.426 80.3005 467.004C80.3752 468.423 82.6161 468.423 82.5414 467.004C81.645 455.426 81.8691 443.848 83.2137 432.27C83.363 430.851 81.1222 430.851 80.9728 432.27Z" fill="#D6D6D6"/>
<path d="M88.8909 417.331C99.0496 430.552 106.146 445.79 109.731 462.074C110.03 463.493 112.196 462.896 111.897 461.477C108.237 445.043 101.141 429.581 90.833 416.211C90.0113 415.016 88.0692 416.136 88.8909 417.331Z" fill="#D6D6D6"/>
<path d="M114.885 390.44C111.15 399.105 108.536 408.069 107.117 417.406C106.893 418.825 109.059 419.423 109.283 418.003C110.628 408.89 113.167 400.076 116.827 391.561C117.425 390.291 115.483 389.096 114.885 390.44Z" fill="#D6D6D6"/>
<path d="M16.8091 599.216C57.2944 584.949 100.469 596.303 141.104 603.549C184.502 611.242 228.349 616.322 272.27 618.637C297.144 619.982 322.018 620.43 346.966 619.982C348.385 619.982 348.385 617.741 346.966 617.741C302.074 618.488 257.107 616.396 212.438 611.541C189.731 609.076 167.098 605.864 144.614 601.905C124.521 598.395 104.502 594.062 84.2597 591.672C61.4774 589.058 38.0975 589.356 16.2115 597.05C14.867 597.573 15.4645 599.739 16.8091 599.216Z" fill="#D6D6D6"/>
<path d="M251.43 597.349C318.432 613.782 387.825 609.45 455.799 603.175C490.756 599.963 525.64 596.154 560.672 594.286C595.63 592.419 630.513 593.016 665.396 596.452C705.956 600.486 746.068 607.881 785.956 616.247C787.375 616.546 787.973 614.38 786.553 614.081C717.235 599.515 647.245 588.833 576.284 591.373C506.816 593.838 437.946 605.267 368.404 606.536C329.338 607.283 290.122 604.52 252.102 595.183C250.608 594.809 250.011 596.975 251.43 597.349Z" fill="#D6D6D6"/>
<path d="M544.164 644.781C599.14 633.427 655.088 644.183 709.84 651.429C764.294 658.6 819.121 659.795 873.649 652.848C903.826 649.039 933.63 642.914 962.836 634.697C964.255 634.323 963.658 632.157 962.238 632.531C909.279 647.47 854.377 655.238 799.326 655.463C771.987 655.537 744.798 653.67 717.683 650.234C689.971 646.723 662.408 642.167 634.621 639.552C604.22 636.714 573.52 636.415 543.492 642.689C542.147 642.914 542.745 645.08 544.164 644.781Z" fill="#D6D6D6"/>
<path d="M790.736 587.564C818.672 597.947 848.7 591.821 876.711 585.099C907.71 577.704 938.56 571.579 970.455 569.786C988.158 568.815 1005.94 568.964 1023.64 570.085C1025.06 570.16 1025.06 567.919 1023.64 567.844C992.864 565.827 962.014 567.022 931.464 571.429C916.226 573.67 901.137 576.807 886.198 580.468C871.333 584.053 856.394 587.863 841.156 589.73C824.349 591.821 807.318 591.299 791.333 585.323C789.989 584.949 789.391 587.116 790.736 587.564Z" fill="#D6D6D6"/>
<path d="M768.103 348.386C765.937 355.109 763.696 361.757 761.53 368.48C761.007 370.198 760.484 371.841 761.007 373.634C761.754 376.024 764.294 377.443 764.368 380.132C764.817 379.759 765.339 379.385 765.788 379.087C756.974 376.472 757.272 390.515 757.571 395.445C758.094 405.23 761.231 414.642 766.46 422.859C767.207 424.054 769.149 422.933 768.402 421.738C764.667 415.912 762.053 409.488 760.708 402.691C759.961 399.03 757.347 378.862 765.19 381.178C765.862 381.402 766.609 380.805 766.609 380.132C766.609 378.34 765.937 377.144 764.891 375.725C762.949 372.961 763.099 370.945 764.144 367.733C766.161 361.458 768.253 355.258 770.269 348.984C770.718 347.565 768.551 346.967 768.103 348.386Z" fill="#D6D6D6"/>
<path d="M768.85 348.685C777.29 357.275 779.382 371.244 780.054 382.747C780.801 395.146 779.009 407.546 775.05 419.273C774.601 420.618 776.768 421.215 777.216 419.871C781.548 407.098 783.341 393.503 782.146 380.058C781.175 368.629 778.784 355.557 770.493 347.042C769.373 346.071 767.804 347.64 768.85 348.685Z" fill="#D6D6D6"/>
<path d="M782.221 381.925C783.715 371.916 786.254 362.205 789.765 352.719C789.242 352.943 788.645 353.167 788.122 353.391C789.69 354.437 791.259 355.557 792.828 356.603C793.575 357.126 794.471 356.454 794.546 355.632C795.218 338.975 808.215 326.202 811.726 310.366C810.979 310.366 810.307 310.366 809.56 310.366C815.535 346.37 807.991 383.867 788.57 414.791C787.823 415.987 789.765 417.107 790.512 415.912C810.232 384.465 817.776 346.37 811.726 309.769C811.576 308.648 809.784 308.723 809.56 309.769C805.974 325.903 792.977 338.676 792.305 355.632C792.902 355.333 793.425 354.96 794.023 354.661C792.454 353.615 790.886 352.495 789.317 351.449C788.645 351.001 787.898 351.524 787.674 352.121C784.163 361.608 781.623 371.318 780.129 381.327C779.831 382.747 781.997 383.344 782.221 381.925Z" fill="#D6D6D6"/>
<path d="M809.335 314.997C806.945 342.56 799.475 369.451 787.3 394.25C786.702 395.52 788.57 396.64 789.242 395.37C801.567 370.123 809.186 342.934 811.576 314.997C811.651 313.503 809.41 313.578 809.335 314.997Z" fill="#D6D6D6"/>
<path d="M767.804 350.478C770.867 372.737 773.78 395.445 769.074 417.63C768.775 419.049 770.942 419.647 771.24 418.227C776.096 395.594 773.108 372.513 769.97 349.88C769.821 348.461 767.655 349.059 767.804 350.478Z" fill="#D6D6D6"/>
<path d="M659.271 425.324C670.774 424.427 682.352 425.249 693.556 428.013C703.043 430.328 712.454 435.109 722.389 433.615C732.622 432.046 741.212 425.249 751.745 424.875C761.903 424.502 771.913 428.013 781.922 425.099C783.341 424.726 782.744 422.56 781.324 422.933C770.867 425.921 760.335 421.813 749.802 422.784C740.241 423.68 732.249 429.432 722.987 431.299C712.305 433.391 701.698 427.564 691.39 425.324C680.783 423.008 669.952 422.336 659.196 423.232C657.851 423.157 657.852 425.398 659.271 425.324Z" fill="#D6D6D6"/>
<path d="M0.375669 530.048C20.9918 549.319 50.8703 528.479 74.549 536.173C75.8935 536.621 76.4911 534.455 75.1465 534.007C62.5229 529.898 49.6005 533.11 36.9021 535.052C25.0254 536.845 11.356 537.144 1.94428 528.404C0.898536 527.508 -0.744773 529.077 0.375669 530.048Z" fill="#D6D6D6"/>
<path d="M889.186 557.312C767.506 565.005 639.028 569.711 504.276 570.384C368.553 571.056 239.105 567.545 116.603 561.047C128.629 539.908 140.73 518.843 152.905 497.854C162.691 480.898 172.625 464.016 182.56 447.21C287.881 453.185 401.718 455.576 522.95 452.588C637.161 449.749 744.574 442.429 844.293 432.196C853.481 445.118 864.088 462.597 872.753 484.632C883.957 513.241 887.841 538.862 889.186 557.312Z" fill="white" stroke="#161616" stroke-width="3" stroke-miterlimit="10"/>
<path d="M172.999 545.809C215.426 550.365 258.153 551.784 300.879 550.066C302.298 549.992 302.298 547.751 300.879 547.825C258.227 549.543 215.501 548.124 172.999 543.568C171.58 543.418 171.58 545.659 172.999 545.809Z" fill="#161616"/>
<path d="M248.517 535.052C269.207 535.874 289.973 535.351 310.664 535.351C331.653 535.276 352.568 535.276 373.558 535.202C374.977 535.202 374.977 532.961 373.558 532.961C352.568 533.035 331.653 533.035 310.664 533.11C289.973 533.185 269.207 533.633 248.517 532.811C247.097 532.737 247.097 534.978 248.517 535.052Z" fill="#161616"/>
<path d="M524.668 529.599C587.936 525.566 651.129 520.785 714.322 515.258C715.741 515.108 715.741 512.867 714.322 513.017C651.204 518.544 587.936 523.325 524.668 527.359C523.249 527.433 523.249 529.674 524.668 529.599Z" fill="#161616"/>
<path d="M689.597 491.206C738.598 489.413 787.524 486.35 836.375 481.794C837.794 481.644 837.794 479.404 836.375 479.553C787.524 484.035 738.598 487.172 689.597 488.965C688.178 488.965 688.178 491.206 689.597 491.206Z" fill="#161616"/>
<path d="M732.473 539.161C773.63 537.368 814.788 535.575 855.945 533.708C857.365 533.633 857.365 531.392 855.945 531.467C814.788 533.26 773.63 535.052 732.473 536.92C731.053 536.994 731.053 539.235 732.473 539.161Z" fill="#161616"/>
<path d="M189.432 444.521C191.299 448.031 193.166 451.542 195.109 455.127C196.827 456.248 202.653 459.684 209.973 458.339C213.036 457.816 215.426 456.621 216.995 455.65C219.086 451.99 221.178 448.33 223.269 444.67C219.161 443.4 213.11 441.906 205.641 441.981C198.843 442.056 193.316 443.325 189.432 444.521Z" fill="white" stroke="#161616" stroke-width="3" stroke-miterlimit="10"/>
<path d="M190.702 445.79C197.425 449.973 207.06 449.002 214.605 448.554C216.024 448.479 216.024 446.238 214.605 446.313C207.509 446.687 198.171 447.807 191.822 443.848C190.627 443.101 189.507 445.043 190.702 445.79Z" fill="#161616"/>
<path d="M173.298 395.445C179.647 411.878 185.996 428.311 192.27 444.745C192.793 446.089 194.959 445.492 194.437 444.147C188.087 427.714 181.738 411.281 175.464 394.848C174.941 393.503 172.775 394.026 173.298 395.445Z" fill="#161616"/>
<path d="M182.858 395.819C186.145 412.625 190.029 429.357 194.436 445.94C194.81 447.359 196.976 446.761 196.602 445.342C192.121 428.76 188.236 412.028 185.024 395.221C184.726 393.802 182.56 394.399 182.858 395.819Z" fill="#161616"/>
<path d="M173.746 387.079C172.625 383.494 175.613 380.132 174.791 376.398C173.82 372.439 169.936 370.795 170.384 366.239C170.683 363.102 172.252 360.114 171.729 356.902C171.355 354.885 170.086 353.69 169.189 351.897C168.143 349.656 168.592 347.565 169.189 345.249C169.787 342.635 170.758 339.796 169.712 337.107C169.189 335.688 168.143 335.016 167.247 333.895C165.156 331.43 165.454 328.891 165.977 325.903C167.621 316.641 167.695 307.752 165.305 298.564C164.932 297.145 162.765 297.742 163.139 299.162C164.483 304.39 165.23 309.694 165.081 315.072C164.931 319.628 163.736 323.886 163.363 328.368C163.064 332.028 164.259 333.597 166.5 336.211C169.413 339.722 166.948 343.755 166.425 347.714C166.276 348.984 166.276 350.329 166.65 351.598C167.247 353.69 169.114 355.109 169.488 357.35C170.086 360.935 167.845 364.446 168.069 368.032C168.368 371.916 172.401 373.933 172.7 377.667C172.999 381.178 170.459 384.017 171.579 387.677C172.028 389.021 174.194 388.424 173.746 387.079Z" fill="#E8E8E8"/>
<path d="M184.577 385.361C182.261 383.195 185.174 380.954 184.353 378.414C183.904 376.995 182.41 375.949 182.336 374.381C182.261 372.962 183.232 371.393 183.456 369.974C183.83 367.285 182.41 366.015 181.738 363.55C180.842 360.188 182.859 356.454 183.456 353.167C183.904 350.627 183.68 348.461 182.784 346.071C182.037 344.129 181.29 342.485 181.439 340.394C181.589 338.676 182.336 337.107 182.709 335.464C184.203 329.488 178.9 323.139 181.439 317.612C182.037 316.342 180.095 315.147 179.497 316.491C176.509 322.84 182.037 328.891 180.394 335.464C179.572 338.751 178.601 341.141 179.721 344.502C180.394 346.37 181.365 348.162 181.439 350.254C181.589 352.345 180.842 354.362 180.319 356.304C179.647 358.844 178.9 361.533 179.572 364.147C180.17 366.314 181.589 367.957 181.066 370.347C180.767 371.542 180.244 372.663 180.17 373.933C180.095 375.128 180.244 376.024 180.842 377.07C181.141 377.593 182.037 378.414 182.112 378.788C182.261 379.385 181.738 380.581 181.589 381.103C181.066 383.419 181.215 385.137 183.008 386.855C184.054 387.901 185.622 386.332 184.577 385.361Z" fill="#E8E8E8"/>
<path d="M83.8862 140.51C98.676 145.141 114.362 144.843 129.675 144.544C144.315 144.245 158.881 143.274 173.372 141.78C202.28 138.718 230.888 133.265 258.974 125.72C315.818 110.482 370.271 86.8784 421.139 57.4481C449.972 40.7908 477.61 22.2662 504.127 2.17289C505.247 1.27653 504.127 -0.665568 503.007 0.230786C456.62 35.4127 406.574 65.8887 353.39 89.6421C300.057 113.47 243.437 130.65 185.398 138.12C169.488 140.211 153.428 141.556 137.369 142.079C119.89 142.676 101.44 143.647 84.5585 138.344C83.1392 137.971 82.5417 140.062 83.8862 140.51Z" fill="#E8E8E8"/>
<path d="M470.738 26.0757C490.682 43.3305 514.211 55.6554 538.413 65.8887C564.407 76.8691 591.297 85.982 618.636 93.0034C672.716 107.046 728.813 113.321 784.611 111.603C816.432 110.632 849.672 108.466 880.073 98.3069C881.418 97.8587 880.82 95.6925 879.475 96.1407C852.435 105.254 823.229 107.569 794.919 108.988C767.506 110.333 740.018 109.735 712.753 107.196C657.553 102.116 603.1 89.1939 551.559 68.8019C523.399 57.6721 495.537 44.4509 472.456 24.507C471.186 23.536 469.617 25.1046 470.738 26.0757Z" fill="#E8E8E8"/>
<path d="M171.206 64.2454C198.619 80.081 231.261 83.9652 262.186 87.2518C294.006 90.6132 326.126 91.5095 358.17 90.0903C421.363 87.2518 484.257 75.3004 544.014 54.6096C577.702 42.957 610.345 28.5406 641.642 11.5846C642.912 10.9123 641.792 8.97023 640.522 9.6425C585.471 39.5957 526.013 61.3323 464.687 74.3294C403.212 87.3265 339.795 91.5095 277.125 86.4302C259.347 85.0109 241.495 82.9941 223.941 79.7822C205.94 76.4956 188.237 71.5656 172.326 62.378C171.131 61.631 170.011 63.5731 171.206 64.2454Z" fill="#E8E8E8"/>
<path d="M263.231 112.723C263.231 121.986 263.231 131.323 263.231 140.585C263.231 142.004 265.472 142.004 265.472 140.585C265.472 131.323 265.472 121.986 265.472 112.723C265.472 111.229 263.231 111.229 263.231 112.723Z" fill="#161616"/>
<path d="M263.904 158.96C263.904 169.866 263.904 180.697 263.904 191.602C263.904 193.022 266.145 193.022 266.145 191.602C266.145 180.697 266.145 169.866 266.145 158.96C266.145 157.541 263.904 157.466 263.904 158.96Z" fill="#161616"/>
<path d="M301.999 189.586C301.999 203.18 301.999 216.775 301.999 230.37C301.999 231.789 304.24 231.789 304.24 230.37C304.24 216.775 304.24 203.18 304.24 189.586C304.24 188.092 301.999 188.092 301.999 189.586Z" fill="#161616"/>
<path d="M300.654 263.012C300.654 269.585 300.654 276.158 300.654 282.732C300.654 284.151 302.895 284.151 302.895 282.732C302.895 276.158 302.895 269.585 302.895 263.012C302.895 261.593 300.654 261.593 300.654 263.012Z" fill="#161616"/>
<path d="M378.189 62.378C378.189 74.4041 378.189 86.4302 378.189 98.4563C378.189 99.8755 380.43 99.8755 380.43 98.4563C380.43 86.4302 380.43 74.4041 380.43 62.378C380.43 60.9588 378.189 60.9588 378.189 62.378Z" fill="#161616"/>
<path d="M378.189 111.304C378.189 120.342 378.189 129.455 378.189 138.493C378.189 139.913 380.43 139.913 380.43 138.493C380.43 129.455 380.43 120.342 380.43 111.304C380.43 109.885 378.189 109.885 378.189 111.304Z" fill="#161616"/>
<path d="M699.159 75.9727C699.159 91.5842 699.159 107.27 699.159 122.882C699.159 124.301 701.4 124.301 701.4 122.882C701.4 107.27 701.4 91.5842 701.4 75.9727C701.4 74.5535 699.159 74.5535 699.159 75.9727Z" fill="#161616"/>
<path d="M698.486 141.257C698.486 149.399 698.486 157.616 698.486 165.758C698.486 167.177 700.727 167.177 700.727 165.758C700.727 157.616 700.727 149.399 700.727 141.257C700.727 139.838 698.486 139.838 698.486 141.257Z" fill="#161616"/>
<path d="M565.154 48.7833C565.154 58.7926 565.154 68.7272 565.154 78.7365C565.154 80.1557 567.395 80.1557 567.395 78.7365C567.395 68.7272 567.395 58.7926 567.395 48.7833C567.395 47.3641 565.154 47.2894 565.154 48.7833Z" fill="#161616"/>
<path d="M565.9 107.27C565.9 116.309 565.9 125.422 565.9 134.46C565.9 135.879 568.141 135.879 568.141 134.46C568.141 125.422 568.141 116.309 568.141 107.27C568.141 105.851 565.9 105.851 565.9 107.27Z" fill="#161616"/>
<path d="M774.004 156.196C774.004 165.011 774.004 173.899 774.004 182.714C774.004 184.133 776.245 184.133 776.245 182.714C776.245 173.899 776.245 165.011 776.245 156.196C776.245 154.777 774.004 154.777 774.004 156.196Z" fill="#161616"/>
<path d="M774.676 201.089C774.676 208.11 774.676 215.132 774.676 222.153C774.676 223.572 776.917 223.572 776.917 222.153C776.917 215.132 776.917 208.11 776.917 201.089C776.917 199.67 774.676 199.67 774.676 201.089Z" fill="#161616"/>
<path d="M264.95 163.293C271.798 163.293 277.349 157.741 277.349 150.893C277.349 144.045 271.798 138.493 264.95 138.493C258.102 138.493 252.55 144.045 252.55 150.893C252.55 157.741 258.102 163.293 264.95 163.293Z" fill="#7C7C7C"/>
<path d="M302.372 297.223C307.075 297.223 310.888 293.41 310.888 288.707C310.888 284.005 307.075 280.192 302.372 280.192C297.669 280.192 293.857 284.005 293.857 288.707C293.857 293.41 297.669 297.223 302.372 297.223Z" fill="#7C7C7C"/>
<path d="M380.281 154.404C382.508 154.404 384.314 152.598 384.314 150.37C384.314 148.142 382.508 146.337 380.281 146.337C378.053 146.337 376.247 148.142 376.247 150.37C376.247 152.598 378.053 154.404 380.281 154.404Z" fill="#7C7C7C"/>
<path d="M569.112 165.758C572.248 165.758 574.789 163.216 574.789 160.081C574.789 156.945 572.248 154.404 569.112 154.404C565.977 154.404 563.436 156.945 563.436 160.081C563.436 163.216 565.977 165.758 569.112 165.758Z" fill="#7C7C7C"/>
<path d="M568.739 95.319C571.627 95.319 573.968 92.9781 573.968 90.0903C573.968 87.2026 571.627 84.8616 568.739 84.8616C565.852 84.8616 563.511 87.2026 563.511 90.0903C563.511 92.9781 565.852 95.319 568.739 95.319Z" fill="#7C7C7C"/>
<path d="M301.626 257.41C304.843 257.41 307.452 254.801 307.452 251.583C307.452 248.366 304.843 245.757 301.626 245.757C298.408 245.757 295.799 248.366 295.799 251.583C295.799 254.801 298.408 257.41 301.626 257.41Z" fill="#2D2D2D"/>
<path d="M378.563 64.843C381.739 64.843 384.314 62.2679 384.314 59.0914C384.314 55.9149 381.739 53.3398 378.563 53.3398C375.386 53.3398 372.811 55.9149 372.811 59.0914C372.811 62.2679 375.386 64.843 378.563 64.843Z" fill="#2D2D2D"/>
<path d="M378.563 115.711C381.739 115.711 384.314 113.136 384.314 109.959C384.314 106.783 381.739 104.208 378.563 104.208C375.386 104.208 372.811 106.783 372.811 109.959C372.811 113.136 375.386 115.711 378.563 115.711Z" fill="#2D2D2D"/>
<path d="M566.274 144.245C567.842 144.245 569.112 142.974 569.112 141.407C569.112 139.839 567.842 138.568 566.274 138.568C564.706 138.568 563.436 139.839 563.436 141.407C563.436 142.974 564.706 144.245 566.274 144.245Z" fill="#2D2D2D"/>
<path d="M700.354 189.511C706.913 189.511 712.23 184.194 712.23 177.634C712.23 171.075 706.913 165.758 700.354 165.758C693.794 165.758 688.477 171.075 688.477 177.634C688.477 184.194 693.794 189.511 700.354 189.511Z" fill="#2D2D2D"/>
<path d="M777.067 245.234C780.202 245.234 782.743 242.693 782.743 239.557C782.743 236.422 780.202 233.88 777.067 233.88C773.931 233.88 771.39 236.422 771.39 239.557C771.39 242.693 773.931 245.234 777.067 245.234Z" fill="#2D2D2D"/>
<path d="M700.279 95.319C703.167 95.319 705.508 92.9781 705.508 90.0903C705.508 87.2026 703.167 84.8616 700.279 84.8616C697.391 84.8616 695.05 87.2026 695.05 90.0903C695.05 92.9781 697.391 95.319 700.279 95.319Z" fill="#2D2D2D"/>
<path d="M700.354 116.757C702.582 116.757 704.388 114.951 704.388 112.723C704.388 110.496 702.582 108.69 700.354 108.69C698.126 108.69 696.32 110.496 696.32 112.723C696.32 114.951 698.126 116.757 700.354 116.757Z" fill="#7C7C7C"/>
<path d="M775.797 194.067C778.024 194.067 779.83 192.261 779.83 190.034C779.83 187.806 778.024 186 775.797 186C773.569 186 771.763 187.806 771.763 190.034C771.763 192.261 773.569 194.067 775.797 194.067Z" fill="#7C7C7C"/>
<path d="M209.301 248.073C205.79 253.6 202.279 259.053 198.769 264.581C196.005 268.913 193.241 273.469 192.27 278.623C190.702 287.512 196.677 293.488 201.757 299.912C204.67 303.572 207.359 307.755 206.089 312.536C204.969 316.868 201.383 320.603 201.906 325.383C202.13 327.4 203.176 328.969 204.072 330.687C205.566 333.675 206.612 336.887 206.985 340.173C207.658 346.298 206.238 352.423 203.026 357.652C202.279 358.922 204.222 360.042 204.969 358.772C209.898 350.631 210.87 340.397 207.06 331.583C205.715 328.446 203.475 325.906 204.446 322.171C205.118 319.706 206.537 317.54 207.508 315.225C208.927 311.714 209.077 308.203 207.583 304.692C204.222 296.775 194.885 291.621 194.287 282.433C193.913 276.233 197.574 270.556 200.711 265.552C204.222 260.024 207.732 254.497 211.243 249.044C211.99 247.998 210.048 246.878 209.301 248.073Z" fill="#E8E8E8"/>
<path d="M347.265 332.704C341.737 338.306 338.974 346.149 339.87 353.992C340.318 358.1 341.961 361.536 343.904 365.196C346.817 370.724 347.489 374.907 345.248 380.733C343.904 384.169 342.186 387.68 342.634 391.415C343.082 395.672 346.369 397.913 348.385 401.424C352.643 409.043 344.053 417.035 346.07 425.177C346.443 426.597 348.609 425.999 348.236 424.58C346.369 417.26 353.39 410.761 351.597 403.366C350.701 399.781 347.788 397.54 345.995 394.477C343.455 390.145 345.846 385.588 347.414 381.331C348.684 377.969 349.58 374.608 348.833 371.023C347.862 366.616 344.875 363.03 343.306 358.847C340.169 350.407 342.559 340.621 348.833 334.272C349.879 333.226 348.311 331.658 347.265 332.704Z" fill="#E8E8E8"/>
<path d="M832.193 348.987C824.723 357.727 817.478 369.006 818.225 381.032C818.598 386.784 821.138 391.415 824.275 396.121C827.935 401.573 831.072 406.727 829.28 413.525C826.889 422.414 818.075 431.302 821.138 441.088C823.005 447.063 828.981 450.35 830.4 456.624C832.043 464.094 828.607 471.937 825.545 478.585C824.947 479.855 826.889 481.05 827.487 479.706C830.027 474.178 832.492 468.426 832.94 462.301C833.388 456.475 831.446 451.844 827.86 447.362C823.603 442.208 821.661 437.801 823.902 431.302C825.62 426.298 828.682 421.816 830.549 416.886C832.342 412.255 832.79 407.474 830.848 402.769C828.831 397.839 825.097 394.029 822.706 389.323C815.984 375.878 825.022 360.789 833.761 350.631C834.732 349.51 833.164 347.942 832.193 348.987Z" fill="#E8E8E8"/>
<path d="M853.182 428.539C849.298 432.199 846.833 436.979 846.161 442.283C845.339 448.632 847.729 453.039 850.269 458.567C853.406 465.364 847.281 471.489 848.925 478.361C849.821 482.096 851.838 484.934 851.763 488.893C851.614 493.002 849.97 496.736 847.132 499.65C846.161 500.695 847.729 502.264 848.701 501.218C852.51 497.334 854.527 492.03 853.855 486.578C853.481 483.44 851.763 480.751 851.091 477.689C850.12 473.581 852.361 469.846 853.182 465.962C854.602 459.388 850.12 455.504 848.701 449.528C846.982 442.432 849.447 434.963 854.751 430.033C855.871 429.136 854.303 427.568 853.182 428.539Z" fill="#E8E8E8"/>
<path d="M645.452 220.211C641.194 226.784 636.488 234.553 638.953 242.695C640.148 246.654 643.435 248.297 645.228 251.733C646.946 255.169 645.302 259.202 644.107 262.489C642.389 267.195 639.999 272.947 644.331 276.98C646.049 278.549 648.141 279.445 648.888 281.91C649.485 283.927 648.962 286.317 648.589 288.259C647.842 291.845 646.796 295.43 647.244 299.09C647.394 300.509 649.635 300.509 649.485 299.09C648.813 292.965 653.295 286.093 650.68 280.192C649.187 276.756 644.555 275.785 644.107 271.901C643.734 268.988 645.302 265.776 646.273 263.087C648.141 257.933 649.485 252.779 645.452 248.297C641.717 244.189 639.775 240.23 640.97 234.553C641.941 229.697 644.779 225.365 647.469 221.257C648.215 220.062 646.273 218.941 645.452 220.211Z" fill="#E8E8E8"/>
<path d="M338.376 141.332C333.969 144.394 333.222 149.847 336.285 154.105C339.048 157.84 334.791 159.558 335.612 163.068C335.911 164.338 336.957 165.085 337.554 166.206C339.048 168.969 337.33 171.883 335.911 174.348C335.164 175.617 337.106 176.738 337.853 175.468C339.198 173.152 340.692 170.463 340.468 167.7C340.393 166.43 339.87 165.608 339.347 164.488C338.974 163.815 338.525 163.591 338.227 162.77C337.853 161.35 338.376 161.052 339.048 159.707C340.019 157.84 340.393 156.271 339.347 154.329C338.376 152.536 336.807 151.491 336.658 149.25C336.509 146.859 337.629 144.544 339.571 143.199C340.692 142.452 339.571 140.51 338.376 141.332Z" fill="#2B2B2B"/>
<path d="M231.486 197.354C230.067 198.923 229.17 200.641 229.021 202.732C228.872 205.122 230.814 207.587 229.768 209.754C229.021 211.322 228.199 211.92 228.349 213.862C228.498 215.879 231.859 221.406 228.797 222.601C227.452 223.124 228.05 225.29 229.395 224.768C233.129 223.348 232.382 219.389 231.337 216.327C230.515 213.937 231.187 212.741 232.233 210.501C232.457 209.978 232.831 209.604 232.905 209.007C233.055 207.812 232.382 207.139 231.934 206.168C230.739 203.554 231.038 201.014 232.98 198.923C234.026 197.877 232.382 196.234 231.486 197.354Z" fill="#2B2B2B"/>
<path d="M803.061 220.585C800.073 220.36 797.907 222.601 797.459 225.514C796.787 229.772 800.297 232.76 802.09 236.196C803.285 238.586 802.837 240.454 802.09 242.769C801.717 243.964 801.268 243.591 801.194 244.936C801.119 246.056 801.567 246.878 802.314 247.699C804.331 250.015 805.974 251.061 805.75 254.497C805.526 257.559 804.107 260.472 802.762 263.087C802.09 264.357 804.032 265.477 804.704 264.207C806.273 261.219 807.842 257.933 807.991 254.497C808.215 251.135 806.871 249.641 805.078 247.102C804.48 246.728 804.256 246.131 804.331 245.309C803.733 244.413 803.883 243.666 804.63 242.993C804.779 242.321 805.153 241.798 805.302 241.051C805.601 239.483 805.302 237.914 804.704 236.345C804.107 234.702 803.061 233.358 802.09 231.938C801.268 230.743 800.297 229.399 799.924 227.979C799.326 225.813 799.924 222.527 803.136 222.751C804.48 222.975 804.48 220.734 803.061 220.585Z" fill="#2B2B2B"/>
<path d="M571.877 533.857C557.161 536.098 544.762 536.621 536.172 536.621C531.466 605.117 532.138 639.851 538.263 640.822C543.417 641.644 552.456 618.488 565.303 571.355C583.006 566.947 600.784 562.54 618.487 558.133C620.28 540.804 616.246 534.081 612.213 531.019C604.743 525.416 594.285 530.346 571.877 533.857Z" fill="#161616" stroke="#161616" stroke-width="3" stroke-miterlimit="10"/>
<path d="M499.645 412.476C487.246 423.755 491.503 454.38 509.953 486.425C514.286 485.902 521.083 485.454 529.225 486.126C532.586 486.425 543.118 487.471 570.009 497.256C575.611 499.347 583.38 502.261 592.642 506.219C585.396 508.162 578.151 510.104 570.831 512.046C571.652 520.785 573.146 530.72 575.835 541.327C580.765 560.972 588.085 577.032 594.808 589.058C611.615 584.128 625.359 579.272 635.293 575.687C659.121 566.947 671.745 560.673 683.846 552.232C696.768 543.194 703.566 535.575 705.657 526.014C706.852 520.486 706.18 515.706 705.956 513.988C704.462 504.726 699.308 498.451 693.93 492.475C682.128 479.254 676.227 472.681 666.591 465.361C644.556 448.703 624.462 439.964 602.128 430.478C584.873 423.157 573.37 418.302 556.638 414.269C529.897 408.069 509.804 403.213 499.645 412.476Z" fill="#424242"/>
<path opacity="0.11" d="M506.144 439.292C513.091 440.86 523.249 443.475 535.276 447.434C544.164 450.347 560.971 456.248 599.589 475.743C612.586 482.317 629.692 491.206 649.486 502.335C624.463 513.614 599.365 524.893 574.342 536.173C573.296 531.766 572.4 526.686 571.951 521.084C571.727 518.47 571.653 515.93 571.653 513.614C578.375 511.149 585.098 508.759 591.821 506.294C573.669 498.152 559.477 493.372 550.215 490.608C544.613 488.89 539.01 487.396 531.84 486.574C522.951 485.529 515.481 485.902 510.178 486.5C508.833 470.664 507.489 454.978 506.144 439.292Z" fill="#3D3D3D"/>
<path opacity="0.11" d="M509.879 485.08C522.204 483.213 541.475 481.794 564.258 486.649C583.753 490.757 598.842 498.003 608.851 503.754C596.9 510.851 585.023 517.947 573.072 525.043C572.474 521.233 571.877 517.499 571.279 513.689C578.076 511.149 584.874 508.61 591.597 506.07C577.18 499.796 565.005 495.463 555.966 492.625C546.256 489.488 541.55 488.442 538.786 487.844C526.91 485.379 516.9 485.006 509.879 485.08Z" fill="#3D3D3D"/>
<path d="M413.147 557.984C424.277 561.868 435.407 565.752 446.462 569.637C448.778 617.666 452.139 641.793 456.471 641.942C461.775 642.166 468.572 607.508 476.938 537.891C459.235 533.633 441.607 529.301 423.904 525.043C420.393 536.023 416.808 547.004 413.147 557.984Z" fill="#161616" stroke="#161616" stroke-width="3" stroke-miterlimit="10"/>
<path d="M510.103 486.201C509.431 464.763 506.966 446.985 504.575 433.988C499.571 406.575 495.238 402.242 491.429 400.45C483.137 396.64 474.697 403.96 453.632 413.596C436.378 421.514 438.619 418.153 409.039 429.282C387.377 437.424 361.233 448.629 333.446 464.913C327.471 468.423 313.428 476.864 299.908 492.102C287.209 506.369 286.313 513.913 286.313 517.573C286.313 521.308 287.209 529.674 299.46 542.223C313.876 556.938 330.16 563.287 377.144 578.301C390.066 582.41 401.868 586.144 412.4 589.356C418.077 578.525 422.409 569.114 425.547 561.793C434.361 541.177 436.228 531.467 436.975 526.537C437.797 521.084 438.17 516.528 438.245 513.39C430.626 511.374 422.932 509.431 415.313 507.415C423.978 502.485 434.734 497.405 447.582 493.372C472.829 485.529 495.014 485.08 510.103 486.201Z" fill="#424242"/>
<path opacity="0.13" d="M494.491 445.417C462.372 461.028 441.233 472.009 431.746 476.565C406.798 488.367 382.447 499.198 358.768 509.207C376.919 506.668 394.697 515.183 403.661 530.645C413.446 547.452 410.757 569.263 396.938 583.829C402.017 585.622 407.022 587.414 412.101 589.282C416.583 580.841 419.944 573.745 422.335 568.591C428.236 555.668 432.045 547.302 434.958 535.874C437.199 527.209 438.095 519.964 438.469 515.183C430.551 512.569 422.633 509.88 414.716 507.265C421.886 503.381 430.103 499.497 439.365 496.136C466.928 486.126 492.026 484.856 509.953 485.678C509.804 480.748 509.654 475.743 509.281 470.515C508.609 459.684 507.488 449.45 506.144 439.889C503.455 441.084 499.421 443.101 494.491 445.417Z" fill="#3D3D3D"/>
<path opacity="0.15" d="M507.563 484.931C507.563 484.259 488.814 482.167 465.061 485.529C438.768 489.263 418.227 497.853 404.856 504.726C411.653 509.805 418.451 514.959 425.248 520.038C421.588 542.372 418.002 564.707 414.342 587.041C421.961 574.865 430.701 557.536 435.332 535.426C436.975 527.583 437.872 520.262 438.245 513.54C435.705 512.793 433.091 512.046 430.402 511.299C425.248 509.88 420.169 508.535 415.239 507.415C419.646 504.95 425.846 501.738 433.689 498.6C472.755 482.541 507.563 485.827 507.563 484.931Z" fill="#3D3D3D"/>
<path d="M564.632 238.434C568.441 237.164 574.193 243.065 577.629 246.501C583.156 252.103 585.92 257.78 586.742 259.498C596.9 280.562 595.108 272.196 603.698 291.767C614.23 315.894 621.401 338.676 621.401 338.676C624.911 349.806 627.078 358.097 633.875 368.33C641.569 379.834 647.918 382.896 650.532 383.942C659.197 387.527 667.413 385.959 671.074 384.988C675.032 381.103 678.095 377.742 680.187 375.352C684.444 370.497 686.237 367.882 689.598 367.509C690.345 367.434 693.781 367.061 695.574 369.077C696.396 369.974 696.545 370.945 697.367 371.169C698.412 371.468 699.458 370.272 700.728 369.077C701.251 368.554 704.687 365.343 708.272 363.849C710.14 363.027 713.725 361.981 714.771 363.326C715.817 364.67 713.501 367.509 714.547 368.554C715.593 369.6 718.132 367.21 720.821 368.33C722.315 369.003 723.585 370.646 723.66 372.215C723.809 374.157 722.166 374.605 721.867 377.145C721.568 379.236 722.539 379.609 722.39 381.327C722.091 383.942 719.701 384.315 716.414 388.125C714.547 390.291 715.07 390.44 711.708 395.445C710.438 397.312 708.795 399.777 707.525 401.197C702.595 406.724 694.229 407.172 689.822 407.471C681.307 407.919 674.584 405.38 670.775 403.587C668.235 405.38 664.351 407.621 659.346 409.339C646.424 413.596 635.07 410.608 630.439 409.339C611.989 404.185 601.158 390.216 593.987 380.655C583.306 366.463 579.421 354.138 572.4 331.729C570.234 324.932 563.735 303.345 561.196 274.437C560.15 261.291 558.432 240.525 564.632 238.434Z" fill="white"/>
<path d="M566.723 241.123C573.296 243.289 577.852 248.592 581.662 254.195C585.621 259.946 589.132 265.997 592.493 272.196C599.29 284.895 604.967 298.116 610.271 311.487C615.649 324.932 620.579 338.527 625.583 352.047C629.617 362.803 634.472 374.231 643.809 381.402C652.474 388.05 664.799 390.814 674.509 384.764C675.704 384.017 674.584 382.074 673.389 382.821C663.081 389.245 649.785 384.764 641.792 376.622C632.679 367.21 628.795 354.138 624.388 342.187C615.051 316.641 605.49 290.646 592.119 266.818C586.293 256.435 579.421 242.99 567.32 238.957C565.976 238.508 565.378 240.675 566.723 241.123Z" fill="#161616"/>
<path d="M565.976 313.503C572.624 336.51 578.226 360.562 591.895 380.581C603.174 397.163 619.906 410.384 640.448 412.028C651.577 412.924 662.857 410.235 671.82 403.512C672.941 402.691 671.82 400.674 670.7 401.57C660.242 409.488 646.722 411.505 634.024 408.89C621.475 406.276 610.644 399.031 602.054 389.768C582.558 368.629 576.06 339.796 568.291 312.981C567.768 311.561 565.602 312.159 565.976 313.503Z" fill="#161616"/>
<path d="M674.733 385.062C677.871 380.655 680.784 375.576 684.593 371.766C686.834 369.526 690.494 367.285 693.706 369.077C696.47 370.646 696.694 374.231 695.051 376.622C694.229 377.817 696.171 378.937 696.993 377.742C700.504 372.737 696.843 366.015 690.718 366.314C687.058 366.538 684.07 368.853 681.83 371.617C678.618 375.501 675.854 379.834 672.866 383.942C671.97 385.062 673.912 386.183 674.733 385.062Z" fill="#161616"/>
<path d="M685.116 375.277C683.473 378.564 685.49 382.373 689.15 382.971C693.557 383.643 696.769 379.908 697.516 375.949C697.815 374.53 695.648 373.933 695.35 375.352C694.901 377.742 693.632 380.207 691.017 380.73C688.552 381.253 685.788 379.087 687.058 376.472C687.656 375.128 685.714 374.007 685.116 375.277Z" fill="#161616"/>
<path d="M670.327 404.185C678.917 405.903 687.059 409.861 695.947 407.994C703.118 406.5 709.243 402.093 713.202 396.043C714.024 394.848 712.082 393.727 711.26 394.922C707.376 400.823 701.251 404.932 694.229 406.052C686.162 407.322 678.618 403.587 670.849 402.018C669.505 401.794 668.907 403.96 670.327 404.185Z" fill="#161616"/>
<path d="M691.465 380.73C689.075 382.149 689.374 385.436 691.391 387.154C693.109 388.573 695.424 388.349 697.516 388.349C701.101 388.274 704.089 388.872 707.226 390.664C708.496 391.337 709.617 389.469 708.347 388.722C706.031 387.378 703.566 386.482 700.877 386.183C699.607 386.033 698.338 386.108 696.993 386.108C696.171 386.108 695.35 386.183 694.603 386.033C693.706 385.809 690.793 383.792 692.586 382.747C693.781 381.925 692.661 379.983 691.465 380.73Z" fill="#161616"/>
<path d="M692.959 381.701C698.562 378.489 705.434 379.161 710.214 383.568C711.26 384.539 712.828 382.971 711.783 382C706.255 376.92 698.337 376.024 691.839 379.759C690.569 380.506 691.689 382.448 692.959 381.701Z" fill="#161616"/>
<path d="M697.815 372.588C700.28 370.795 702.67 369.077 705.135 367.285C706.181 366.538 707.152 365.791 708.272 365.118C709.019 364.67 709.766 364.222 710.588 363.923C714.098 362.728 714.92 364.446 712.978 369.077C711.633 369.526 712.231 371.692 713.576 371.243C717.609 369.824 719.028 364.371 714.845 362.056C712.53 360.711 709.766 361.682 707.674 362.878C703.865 365.044 700.354 368.106 696.769 370.646C695.499 371.542 696.619 373.484 697.815 372.588Z" fill="#161616"/>
<path d="M702.595 378.564C705.583 376.696 708.571 374.754 711.559 372.887C712.903 372.065 714.248 371.094 715.742 370.422C716.862 369.824 718.057 369.6 719.327 369.6C721.941 369.6 722.912 371.169 722.24 374.231C721.344 375.352 722.912 376.92 723.809 375.8C726.647 372.215 724.108 367.808 719.775 367.434C716.937 367.135 714.397 368.554 712.081 369.974C708.496 372.14 704.985 374.455 701.475 376.696C700.205 377.369 701.325 379.311 702.595 378.564Z" fill="#161616"/>
<path d="M711.335 382.074C713.351 380.954 715.368 379.908 717.385 378.937C718.057 378.564 720.298 377.219 720.971 377.369C722.838 377.742 721.568 379.609 721.12 380.356C720.373 381.552 722.315 382.747 723.062 381.477C724.257 379.535 725.303 375.725 722.091 375.128C720.373 374.754 718.506 375.949 717.012 376.696C714.696 377.817 712.38 378.937 710.14 380.207C708.944 380.879 710.14 382.821 711.335 382.074Z" fill="#161616"/>
<path d="M708.197 381.552C713.575 384.539 714.621 391.187 710.363 395.669C709.392 396.715 710.961 398.284 711.932 397.238C717.161 391.785 715.966 383.27 709.318 379.609C708.123 378.937 706.927 380.879 708.197 381.552Z" fill="#161616"/>
<path d="M721.941 380.73C719.551 383.792 716.787 386.482 713.725 388.722C712.604 389.544 713.65 391.486 714.845 390.665C718.132 388.274 721.045 385.51 723.584 382.299C724.406 381.178 722.838 379.61 721.941 380.73Z" fill="#161616"/>
<path d="M685.639 389.469C690.345 389.843 694.752 391.337 698.711 393.951C699.906 394.773 701.027 392.831 699.831 392.009C695.499 389.245 690.793 387.677 685.639 387.229C684.22 387.154 684.22 389.395 685.639 389.469Z" fill="#161616"/>
<path opacity="0.09" d="M557.087 256.51C558.431 266.071 560.598 279.517 563.81 295.651C565.901 306.108 567.395 313.802 570.159 324.035C574.342 339.572 577.778 352.644 585.845 367.807C591.148 377.742 594.734 384.539 602.203 391.86C607.507 397.014 621.4 410.608 642.315 410.907C655.088 411.057 665.172 406.201 671.073 402.541C674.584 404.483 680.634 407.098 688.478 407.247C692.138 407.322 699.01 407.396 705.508 402.915C707.749 401.346 713.725 397.312 714.173 390.515C714.248 389.469 714.546 383.792 710.513 380.805C706.031 377.518 698.711 379.46 698.113 381.776C697.59 383.942 702.969 385.735 702.819 388.797C702.595 392.681 693.781 395.072 692.138 395.52C639.552 409.712 611.242 386.183 611.242 386.183C602.652 379.012 598.095 371.243 587.488 344.726C578.749 322.915 567.768 293.111 557.087 256.51Z" fill="#3D3D3D"/>
<path d="M343.68 399.777C347.116 402.317 356.229 408.218 368.703 408.143C380.356 408.069 388.572 402.765 393.204 399.777C400.897 394.848 405.304 389.395 409.338 384.166C421.887 368.256 426.891 351.673 430.477 339.647C433.689 328.891 432.419 329.488 435.482 320.151C441.233 302.672 446.163 298.714 451.093 286.239C459.235 265.623 459.758 241.048 453.334 238.359C450.346 237.164 445.939 240.675 437.2 247.845C434.585 250.012 429.954 253.821 425.099 259.722C421.215 264.503 414.417 273.914 406.873 296.398C400.748 314.773 402.092 317.761 394.847 338.078C390.365 350.702 387.527 355.856 384.091 360.562C380.206 365.791 373.783 374.306 362.13 378.788C353.241 382.224 345.249 381.776 340.841 381.178C340.244 378.19 338.227 369.974 331.28 365.94C329.562 364.894 325.379 362.504 322.392 364.297C320.674 365.343 320.076 367.285 319.852 368.33C316.565 363.699 312.98 361.682 310.963 360.786C309.021 359.964 305.062 358.172 303.419 359.815C301.925 361.309 303.269 364.745 303.419 365.193C301.327 364.073 298.937 364.222 297.219 365.492C295.949 366.463 294.53 368.405 295.053 370.497C295.426 371.916 296.547 372.812 296.92 373.036C296.472 374.306 296.098 376.248 296.771 378.265C297.144 379.311 297.592 379.983 300.281 382.971C303.717 386.855 303.792 386.706 304.464 387.677C306.332 390.44 305.958 391.934 307.154 394.399C309.245 398.956 313.727 401.122 315.221 401.794C320.001 404.11 324.408 403.512 331.654 402.467C336.285 401.944 340.319 400.898 343.68 399.777Z" fill="white"/>
<path d="M453.11 236.342C441.681 242.094 431.373 250.012 423.381 260.096C415.388 270.18 409.861 281.832 405.678 293.933C401.495 306.183 398.507 318.807 395.295 331.281C392.232 343.382 387.078 355.931 379.011 365.567C369.599 376.846 354.959 381.178 340.692 379.535C339.273 379.385 339.273 381.626 340.692 381.776C351.971 383.046 363.698 380.879 373.035 374.231C382.895 367.21 389.095 355.483 393.502 344.428C398.208 332.7 400.299 319.927 403.735 307.826C407.396 294.755 411.877 281.757 419.048 270.18C427.564 256.361 439.739 245.605 454.23 238.359C455.575 237.612 454.379 235.67 453.11 236.342Z" fill="#161616"/>
<path d="M437.05 309.694C430.253 335.539 424.725 363.4 407.694 384.838C400.299 394.101 390.664 402.018 379.011 405.156C366.91 408.442 353.838 406.575 344.053 398.508C342.933 397.611 341.364 399.18 342.485 400.076C357.349 412.326 378.563 411.057 394.1 400.599C411.13 389.171 421.214 369.899 427.788 351.001C432.419 337.705 435.631 323.886 439.216 310.291C439.59 308.872 437.423 308.275 437.05 309.694Z" fill="#161616"/>
<path d="M341.887 380.655C339.273 376.622 336.808 372.364 333.894 368.554C331.878 365.865 329.189 363.326 325.603 363.027C319.403 362.653 316.714 369.75 319.702 374.455C320.449 375.651 322.391 374.53 321.644 373.335C320.225 371.094 320.3 367.359 322.839 365.791C326.425 363.55 330.085 367.21 332.027 369.75C334.94 373.559 337.331 377.742 339.945 381.776C340.692 382.971 342.634 381.85 341.887 380.655Z" fill="#161616"/>
<path d="M328.74 373.186C329.936 375.725 327.471 378.265 324.856 377.369C322.69 376.622 321.719 374.157 321.346 372.065C321.121 370.646 318.955 371.244 319.179 372.663C319.852 376.398 322.541 380.282 326.798 379.759C330.458 379.311 332.102 375.202 330.683 372.065C330.085 370.721 328.143 371.841 328.74 373.186Z" fill="#161616"/>
<path d="M343.455 398.806C336.583 400.3 329.861 403.96 322.69 402.84C315.892 401.794 310.216 397.462 306.78 391.71C306.033 390.44 304.09 391.636 304.837 392.831C308.348 398.732 313.876 403.213 320.673 404.782C328.89 406.649 336.21 402.691 344.053 400.973C345.472 400.674 344.875 398.508 343.455 398.806Z" fill="#161616"/>
<path d="M323.736 379.385C324.259 379.759 324.333 380.506 324.109 381.029C323.661 382.523 322.018 382.672 320.673 382.821C319.254 382.896 317.835 382.672 316.341 382.821C313.801 383.12 311.486 384.017 309.32 385.361C308.124 386.108 309.245 388.05 310.44 387.303C313.204 385.585 315.967 384.913 319.254 384.988C321.196 385.062 323.213 385.212 324.782 383.867C326.798 382.224 327.023 378.862 324.782 377.443C323.661 376.696 322.541 378.638 323.736 379.385Z" fill="#161616"/>
<path d="M324.557 376.547C318.656 372.737 311.187 373.783 306.257 378.788C305.211 379.834 306.854 381.402 307.825 380.356C312.083 376.099 318.283 375.202 323.437 378.489C324.632 379.236 325.752 377.294 324.557 376.547Z" fill="#161616"/>
<path d="M320.374 367.583C317.312 365.118 314.324 362.504 311.112 360.263C309.17 358.919 306.705 357.574 304.314 358.47C299.609 360.188 300.58 366.463 304.688 368.032C306.032 368.554 306.63 366.388 305.285 365.865C302.522 362.579 302.746 361.085 305.958 361.384C307.153 360.786 308.199 360.861 309.095 361.608C310.365 362.205 311.56 363.475 312.68 364.297C314.697 365.94 316.789 367.583 318.805 369.227C319.851 370.048 321.495 368.48 320.374 367.583Z" fill="#161616"/>
<path d="M315.743 373.41C312.531 371.169 309.319 368.853 306.107 366.687C304.016 365.268 301.7 363.923 299.161 364.147C295.127 364.521 292.662 368.928 295.127 372.364C295.949 373.484 297.891 372.364 297.069 371.244C295.426 368.256 296.77 366.687 300.953 366.538C301.924 366.836 302.821 367.21 303.642 367.733C304.688 368.33 305.659 369.077 306.63 369.75C309.319 371.617 312.008 373.484 314.697 375.352C315.818 376.173 316.938 374.231 315.743 373.41Z" fill="#161616"/>
<path d="M307.75 376.92C305.734 375.651 303.642 374.455 301.476 373.41C300.057 372.663 298.115 371.318 296.397 371.916C293.708 372.887 294.753 376.472 295.799 378.265C296.471 379.535 298.413 378.414 297.741 377.145C297.517 376.696 296.695 375.352 296.92 374.829C297.218 374.082 298.413 374.53 298.936 374.68C299.534 374.829 300.132 375.277 300.729 375.576C302.746 376.622 304.688 377.742 306.63 378.937C307.825 379.61 309.02 377.667 307.75 376.92Z" fill="#161616"/>
<path d="M308.498 376.398C302.223 380.282 301.401 388.573 306.107 394.026C307.078 395.146 308.647 393.503 307.676 392.457C303.941 388.125 304.613 381.402 309.618 378.34C310.813 377.593 309.693 375.651 308.498 376.398Z" fill="#161616"/>
<path d="M295.351 378.863C297.592 382 300.206 384.838 303.269 387.303C304.389 388.2 305.958 386.631 304.837 385.735C301.924 383.419 299.459 380.805 297.293 377.742C296.397 376.547 294.455 377.667 295.351 378.863Z" fill="#161616"/>
<path d="M330.085 384.017C325.379 384.465 320.972 386.033 317.088 388.797C315.892 389.619 317.013 391.561 318.208 390.739C321.793 388.2 325.678 386.631 330.085 386.257C331.579 386.108 331.579 383.867 330.085 384.017Z" fill="#161616"/>
<path opacity="0.17" d="M449.375 266.071C440.038 288.779 432.867 307.08 428.31 319.031C417.629 346.818 414.641 356.528 404.557 369.301C395.967 380.132 385.808 393.652 368.628 396.267C357.872 397.91 348.759 394.623 343.455 392.233C342.111 393.279 331.877 400.599 321.943 396.715C316.415 394.549 310.962 388.947 312.083 385.511C313.203 382 320.673 382.224 320.598 380.581C320.524 379.236 315.37 377.369 310.738 378.788C310.066 379.012 305.51 380.506 304.016 384.614C302.074 390.067 307.153 395.669 308.498 397.163C315.37 404.782 325.902 404.409 327.769 404.334C335.313 404.11 340.841 400.749 343.455 398.956C346.817 401.794 352.718 405.977 360.934 407.471C376.098 410.31 388.348 401.794 395.07 397.611C414.267 385.436 421.513 366.015 427.414 351.374C430.252 344.278 431.522 339.647 438.469 311.337C442.801 293.41 446.536 278.023 449.375 266.071Z" fill="#3D3D3D"/>
<path opacity="0.17" d="M298.563 365.716C301.103 365.268 304.389 371.99 306.63 377.369C305.51 383.12 304.091 384.39 303.045 384.539C300.057 385.062 294.978 377.742 295.874 371.094C295.949 370.571 296.546 366.089 298.563 365.716Z" fill="#3D3D3D"/>
<path d="M452.288 236.865C438.17 253.074 437.872 273.093 437.797 308.2C437.722 350.702 445.341 386.482 453.483 413.148C465.733 416.808 483.511 420.692 505.098 420.692C526.387 420.692 543.94 416.808 556.116 413.148C558.879 401.72 562.54 384.913 565.378 364.446C575.163 295.053 581.587 249.414 556.116 227.005C530.42 204.447 476.415 209.153 452.288 236.865Z" fill="white" stroke="#161616" stroke-width="3" stroke-miterlimit="10"/>
<path opacity="0.1" d="M522.278 214.083C525.49 220.656 529.748 230.815 532.437 243.737C534.902 255.539 538.711 281.757 517.124 347.042C510.999 365.641 501.737 390.59 487.918 419.273C493.819 419.871 500.168 420.244 506.891 420.17C526.088 420.095 542.745 416.958 555.966 413.223C561.643 385.436 565.677 361.757 568.44 343.755C571.876 321.645 574.267 302.971 573.52 279.367C572.623 249.489 567.544 240.824 564.706 236.79C552.53 219.013 530.569 215.128 522.278 214.083Z" fill="#3D3D3D"/>
<path opacity="0.13" d="M572.325 258.527C568.964 268.686 564.108 284.372 559.328 303.942C553.352 328.368 552.456 338.601 549.169 351.673C544.762 368.704 535.575 392.756 513.987 420.244C521.083 420.468 530.57 419.945 541.326 417.032C547.003 415.464 552.008 413.447 556.116 411.505C559.925 390.739 563.287 371.243 566.275 353.167C571.578 321.496 573.445 308.424 573.67 291.094C573.894 277.425 573.072 266.221 572.325 258.527Z" fill="#3D3D3D"/>
<path d="M489.113 196.454C486.648 199.816 487.843 202.878 487.321 215.427C486.947 223.644 486.125 230.217 485.528 234.4C488.068 236.193 495.238 240.749 505.397 240.749C517.348 240.749 525.341 234.475 527.507 232.607C526.536 229.918 525.341 225.885 524.37 220.88C521.606 206.613 524.445 202.206 521.233 197.351C515.481 188.761 495.014 188.387 489.113 196.454Z" fill="white" stroke="#161616" stroke-width="3" stroke-miterlimit="10"/>
<path d="M458.861 156.193C458.562 166.8 460.952 174.718 462.895 181.067C465.808 190.404 469.02 200.862 478.282 210.423C486.349 218.789 495.761 223.121 503.156 225.362C508.833 223.046 518.17 218.34 526.685 209.078C535.947 198.994 539.458 188.761 542.072 181.067C544.313 174.419 548.123 162.393 546.554 146.707C545.434 135.726 544.239 123.85 534.827 114.662C520.933 101.142 500.616 104.653 497.778 105.176C478.058 108.836 468.123 124.447 465.733 128.705C459.309 139.611 459.01 150.292 458.861 156.193Z" fill="white" stroke="#161616" stroke-width="3" stroke-miterlimit="10"/>
<path d="M498.077 164.335C497.628 173.896 498.525 183.383 500.84 192.645C501.064 193.392 502.185 193.765 502.708 193.168C504.426 191.151 505.546 188.985 506.069 186.37C506.368 184.951 504.202 184.354 503.903 185.773C503.455 188.088 502.633 189.806 501.139 191.599C501.737 191.749 502.409 191.898 503.007 192.122C500.766 183.009 499.944 173.747 500.317 164.41C500.317 162.916 498.077 162.916 498.077 164.335Z" fill="#161616"/>
<path d="M513.763 167.622C519.066 173.224 529.748 174.793 532.586 165.754C533.035 164.41 530.868 163.812 530.42 165.157C528.105 172.552 519.44 170.236 515.406 165.978C514.286 165.007 512.717 166.576 513.763 167.622Z" fill="#161616"/>
<path d="M476.34 182.113C476.34 181.889 476.266 182.187 476.191 182.187C476.116 182.262 475.967 182.262 475.817 182.262C475.593 181.814 475.294 181.366 475.07 180.918C475.145 180.843 475.145 180.768 475.22 180.694C474.622 180.843 474.249 181.441 474.473 182.038C474.622 182.636 475.294 183.009 475.817 182.785C476.49 182.561 476.938 182.113 477.237 181.441C477.461 180.918 477.013 180.171 476.49 180.096C475.519 179.872 474.398 180.395 474.174 181.441C474.099 182.038 474.323 182.71 474.921 182.785C475.519 183.084 476.266 182.785 476.34 182.113Z" fill="#161616"/>
<path d="M487.395 179.2C487.245 180.32 486.947 180.395 486.498 179.424C485.677 178.751 485.826 178.453 486.947 178.602C486.424 178.303 485.752 178.453 485.378 178.976C485.079 179.498 485.229 180.245 485.752 180.544C487.021 181.291 488.59 179.648 487.619 178.453C486.648 177.258 484.706 178.303 485.079 179.722C485.229 180.32 485.901 180.694 486.424 180.469C487.245 180.469 487.544 179.797 487.395 179.2Z" fill="#161616"/>
<path d="M483.361 186.968C483.361 187.117 483.287 187.267 483.137 187.416C483.287 187.267 482.988 187.491 483.063 187.416C483.137 187.342 482.839 187.491 483.063 187.416C482.913 187.416 482.839 187.416 482.913 187.416C482.988 187.416 482.988 187.416 482.764 187.416C482.689 187.416 482.689 187.341 482.615 187.341C482.689 187.416 482.689 187.341 482.54 187.267C482.241 186.968 482.241 186.52 482.465 186.221C482.764 185.922 483.287 186.072 483.436 186.37C483.137 185.848 482.465 185.698 481.868 185.997C481.345 186.296 481.121 187.043 481.494 187.566C481.942 188.313 482.913 188.537 483.66 188.088C484.407 187.715 484.706 186.744 484.258 185.997C483.361 184.578 480.971 185.399 480.971 186.968C480.971 187.566 481.494 188.088 482.092 188.088C482.839 188.088 483.361 187.64 483.361 186.968Z" fill="#161616"/>
<path d="M521.382 177.482C521.905 177.556 522.204 177.855 522.278 178.229C522.353 178.677 522.054 178.976 521.382 179.2C521.158 179.125 521.009 179.125 520.785 179.05C520.411 178.826 520.336 178.527 520.56 178.154C520.934 177.556 522.054 177.78 521.83 178.602C521.98 178.004 521.681 177.332 521.083 177.258C520.486 177.108 519.888 177.407 519.739 178.004C519.44 179.05 520.336 180.171 521.457 180.021C522.428 179.872 523.025 178.901 522.727 177.93C522.577 177.407 522.054 176.959 521.457 176.959C521.009 176.959 520.56 177.258 520.336 177.631C519.888 178.453 520.486 179.797 521.531 179.722C522.129 179.648 522.652 179.274 522.652 178.602C522.503 178.079 522.054 177.407 521.382 177.482Z" fill="#161616"/>
<path d="M529.823 178.303C529.897 178.303 529.897 178.229 529.823 178.303C529.748 178.378 529.599 178.527 529.449 178.677C529.001 178.527 528.628 178.378 528.179 178.154C528.179 177.93 528.179 177.78 528.179 177.556C528.179 177.482 528.254 177.482 528.254 177.407C528.403 177.258 528.553 177.108 528.627 177.033C529.076 177.183 529.449 177.332 529.897 177.556C529.897 177.78 529.897 177.93 529.897 178.154V178.079C530.047 177.482 529.748 176.809 529.15 176.735C528.553 176.585 527.955 176.884 527.806 177.482C527.432 178.976 529.673 179.872 530.345 178.378C530.644 177.78 530.346 177.033 529.748 176.735C529.076 176.361 528.329 176.585 527.955 177.183C527.582 177.706 527.881 178.453 528.329 178.751C528.852 179.05 529.524 178.751 529.823 178.303Z" fill="#161616"/>
<path d="M525.714 185.698C525.639 185.474 525.714 185.698 525.639 185.773C525.639 185.848 525.415 185.997 525.639 185.848C525.042 185.773 524.444 185.698 523.847 185.623C523.398 184.951 524.22 184.354 524.818 184.652C524.295 184.354 523.622 184.503 523.249 185.026C522.95 185.549 523.1 186.296 523.622 186.595C524.22 186.893 524.967 186.819 525.415 186.296C525.863 185.848 526.013 185.026 525.639 184.428C525.266 183.831 524.369 183.681 523.847 184.204C523.324 184.727 523.1 185.549 523.324 186.221C523.548 186.819 524.071 187.192 524.668 186.968C525.49 186.968 525.938 186.296 525.714 185.698Z" fill="#161616"/>
<path d="M493.147 198.845C498.45 204.372 506.891 204.223 511.896 198.322C512.792 197.201 511.223 195.633 510.327 196.753C506.144 201.683 499.272 201.982 494.715 197.276C493.744 196.23 492.176 197.799 493.147 198.845Z" fill="#161616"/>
<path d="M479.403 153.579C481.644 151.114 484.781 150.068 488.068 150.74C489.487 151.039 490.085 148.873 488.665 148.574C484.632 147.753 480.598 148.948 477.834 152.01C476.863 153.056 478.432 154.625 479.403 153.579Z" fill="#161616"/>
<path d="M514.51 149.022C517.946 148.649 521.083 149.471 523.847 151.487C525.042 152.309 526.162 150.367 524.967 149.545C521.905 147.304 518.245 146.333 514.51 146.781C513.091 146.931 513.091 149.172 514.51 149.022Z" fill="#161616"/>
<path d="M475.369 168.294C480.673 173.896 491.354 175.465 494.193 166.427C494.641 165.082 492.475 164.484 492.026 165.829C489.711 173.224 481.046 170.908 477.012 166.651C475.967 165.605 474.323 167.248 475.369 168.294Z" fill="#161616"/>
<path d="M500.019 121.385C504.874 127.211 510.7 133.486 517.722 139.835C527.283 148.499 536.62 155.222 544.762 160.301C544.314 167.024 542.894 177.332 537.815 188.91C532.81 200.413 526.162 208.406 521.606 213.261C521.158 216.847 521.008 222.972 523.922 229.097C530.719 243.364 550.289 249.788 565.303 244.932C567.096 244.335 579.72 240.077 583.828 228.723C584.948 225.586 585.546 221.776 583.828 211.692C581.363 197.127 577.031 186.445 575.761 183.159C572.175 174.046 567.544 160.899 563.361 143.719C562.017 137.743 556.489 116.305 537.068 103.906C531.989 100.619 521.083 93.6725 507.339 95.764C501.363 96.6603 496.732 98.9759 493.819 100.769C487.545 101.292 476.34 103.084 465.584 110.853C441.233 128.332 441.905 159.853 441.98 163.065C441.233 167.024 439.963 173 437.722 180.096C432.195 197.425 427.563 199.592 426.518 210.273C426.219 212.962 424.874 226.557 433.838 237.687C435.705 240.002 441.457 246.949 451.242 248.891C464.239 251.506 478.208 244.185 483.959 232.682C487.171 226.258 487.096 220.058 486.798 216.772C484.631 214.83 464.687 196.753 467.078 168.593C469.767 136.548 498.674 122.057 500.019 121.385Z" fill="#444444"/>
<path opacity="0.11" d="M527.657 148.499C529.001 153.579 530.495 161.273 529.673 170.535C528.628 182.337 524.445 190.628 520.112 199.143C516.676 205.866 511.298 215.054 502.783 224.69C504.127 224.466 505.696 224.017 507.264 223.42C510.925 222.075 513.688 220.208 515.556 218.639C514.958 225.661 514.361 232.682 513.838 239.704C518.095 237.836 522.353 236.043 526.611 234.176C525.714 226.706 524.743 219.311 523.847 211.842C525.64 209.601 528.179 206.314 530.868 202.057C534.603 196.156 539.907 187.64 542.67 175.764C543.567 171.954 544.463 166.352 544.388 159.48C538.861 155.894 533.259 152.16 527.657 148.499Z" fill="#3D3D3D"/>
<path opacity="0.16" d="M544.463 160.824C543.866 160.675 542.222 168.369 537.218 179.872C537.218 179.872 533.483 188.387 529.225 195.633C525.266 202.355 517.423 213.635 502.633 225.437C504.277 226.184 505.995 226.93 507.638 227.677C512.493 227.155 517.348 226.706 522.204 226.184C521.98 222.075 521.681 217.967 521.457 213.933C527.283 207.958 535.276 198.172 540.28 184.13C544.314 172.402 545.21 160.974 544.463 160.824Z" fill="#3D3D3D"/>
<path opacity="0.29" d="M432.643 193.915C432.493 196.38 432.643 200.637 434.66 205.194C437.573 211.692 444.37 218.789 451.69 218.714C460.579 218.639 470.439 207.883 469.991 192.645C471.41 196.23 473.576 200.563 476.788 205.194C480.448 210.497 484.407 214.456 487.544 217.22C487.619 219.685 487.395 223.494 486.051 227.752C485.304 230.142 483.436 234.998 479.253 239.554C477.46 241.496 471.634 247.771 462.222 249.339C448.553 251.58 438.245 242.094 436.378 240.301C424.127 228.574 426.219 211.991 426.592 209.452C427.638 202.206 430.626 196.903 432.643 193.915Z" fill="#0A0A0A"/>
<path opacity="0.12" d="M544.986 160.526C545.583 164.186 546.405 170.012 547.003 177.332C548.273 193.018 547.003 197.201 549.542 205.194C549.916 206.464 555.667 224.092 564.108 224.241C570.681 224.391 578.002 214.083 580.915 198.919C583.23 206.464 584.201 212.888 584.65 217.444C585.397 224.839 584.724 227.304 584.425 228.499C582.334 235.296 576.806 239.031 573.893 241.048C563.585 248.069 552.456 247.024 550.812 246.8C548.198 246.501 536.097 244.932 528.03 234.774C526.76 233.205 522.726 227.902 521.531 219.984C521.158 217.369 521.158 215.054 521.307 213.485C525.864 209.003 531.914 201.907 536.844 191.898C542.969 179.2 544.538 167.622 544.986 160.526Z" fill="#0A0A0A"/>
</svg>
