<svg width="141" height="152" viewBox="0 0 141 152" fill="none" xmlns="http://www.w3.org/2000/svg">
<path d="M131.292 124.221C130.775 127.73 130.258 131.221 129.759 134.73C137.516 144.942 140.895 150.538 139.88 151.499C138.79 152.533 132.585 148.193 121.264 138.479C121.652 132.44 122.039 126.419 122.427 120.38C125.382 121.654 128.337 122.947 131.292 124.221Z" fill="#191919"/>
<path d="M100.69 76.9242C104.772 78.2539 112.898 81.375 120.987 88.2081C124.403 91.0892 127.875 94.0625 130.719 99.1966C133.157 103.592 133.878 107.323 134.949 113.158C135.761 117.591 136.611 123.944 136.5 131.756C134.062 131.571 131.477 131.313 128.743 130.906C125.29 130.408 122.095 129.78 119.158 129.078C119.195 125.218 118.863 120.398 117.607 114.987C116.776 111.422 115.723 108.32 114.652 105.679C106.988 98.5872 99.8778 95.2629 94.6329 93.5639C88.2983 91.4955 83.0534 91.2554 78.9904 86.5091C76.5711 83.7019 73.9487 78.5678 75.7401 75.6499C79.2859 69.9248 97.9756 76.0377 100.69 76.9242Z" fill="white" stroke="#191919" stroke-width="0.5" stroke-miterlimit="10"/>
<path opacity="0.14" d="M77.9565 74.062C79.0831 74.2837 78.7691 77.2201 79.7479 79.861C81.5209 84.5888 86.8027 86.6757 91.0504 88.3563C116.038 98.2921 118.789 100.25 120.95 103.26C123 106.123 123.887 109.17 125.641 115.264C127.432 121.451 128.079 126.825 128.337 130.667C125.272 130.168 122.206 129.669 119.14 129.171C119.159 127.139 119.066 124.96 118.845 122.67C118.161 115.818 116.462 110.019 114.653 105.476C113.489 104.516 111.864 103.223 109.851 101.783C105.751 98.8462 102.796 96.7223 98.7516 95.0787C95.5935 93.7859 95.335 94.2476 87.4491 91.5882C85.2699 90.8495 84.0879 90.4063 82.6474 89.4829C79.3232 87.359 77.6795 84.6258 76.9408 83.3884C75.7034 81.2831 74.7985 79.7502 75.1494 77.7926C75.4818 75.798 76.9777 73.8589 77.9565 74.062Z" fill="#6C6D6D"/>
<path opacity="0.16" d="M104.642 97.6641C111.383 98.9014 114.984 101.949 116.647 103.666C119.786 106.917 121.079 110.98 123.554 118.958C124.976 123.556 125.881 127.435 126.453 130.149C124.145 129.854 121.855 129.558 119.546 129.244C119.472 125.348 119.066 122.06 118.641 119.549C118.383 117.96 117.939 115.412 116.942 112.143C116.129 109.484 115.225 107.249 114.449 105.55C111.18 102.927 107.911 100.287 104.642 97.6641Z" fill="#6C6D6D"/>
<path d="M127.764 93.3051C127.044 92.5664 125.936 91.5875 124.385 90.9042C120.248 89.0944 115.982 90.6087 113.415 91.4952C107.671 93.4898 101.577 94.524 96.0732 97.0726C87.7441 100.932 76.811 106.011 65.3793 108.043C52.5625 110.314 49.8292 106.861 32.4877 109.446C26.0977 110.388 20.9267 111.681 17.547 112.641C19.0245 115.614 20.5573 116.556 21.7393 116.833C22.5334 117.018 22.9397 116.852 23.5307 117.24C25.0081 118.2 24.2325 120.379 25.3221 122.023C26.3932 123.63 28.4616 123.482 30.6963 124.017C35.2394 125.089 35.6827 127.766 40.8537 131.202C43.3654 132.864 48.0932 135.985 53.412 135.782C59.1186 135.56 59.8389 131.737 66.1734 129.595C74.0777 126.935 76.4786 131.756 87.0977 130.998C89.3324 130.832 100.339 130.057 108.022 122.429C113.267 117.24 112.307 113.454 118.179 107.489C122.667 102.927 127.691 100.563 131.144 99.3072C130.719 98.4207 130.239 97.5158 129.722 96.5739C129.076 95.392 128.411 94.3208 127.764 93.3051Z" fill="white" stroke="#191919" stroke-width="0.5" stroke-miterlimit="10"/>
<path d="M125.493 93.268C122.926 93.3419 120.433 93.9144 118.087 94.9671C117.847 95.0779 117.626 94.727 117.884 94.6162C120.303 93.5266 122.852 92.9356 125.493 92.8433C125.77 92.8433 125.77 93.268 125.493 93.268Z" fill="#191919"/>
<path d="M119.38 103.74C115.022 106.233 112.713 110.887 109.684 114.691C106.471 118.717 102.334 121.949 97.6616 124.128C97.4215 124.239 97.2183 123.888 97.4584 123.778C102.334 121.488 106.619 118.071 109.887 113.768C112.695 110.074 115.003 105.771 119.158 103.389C119.398 103.241 119.62 103.61 119.38 103.74Z" fill="#191919"/>
<path d="M39.9119 116.63C34.7039 116.685 29.4959 116.39 24.3248 115.762C24.0663 115.725 24.0663 115.319 24.3248 115.337C29.4959 115.965 34.7039 116.26 39.9119 116.205C40.1889 116.224 40.1889 116.63 39.9119 116.63Z" fill="#191919"/>
<path d="M41.4817 123.519C39.5611 124.221 37.6034 124.812 35.6274 125.255C35.3688 125.31 35.258 124.923 35.5166 124.849C37.5111 124.387 39.4687 123.814 41.3709 123.113C41.6295 123.02 41.7403 123.427 41.4817 123.519Z" fill="#191919"/>
<path d="M106.249 110.758C101.687 114.802 96.1655 118.016 90.2558 119.622C87.2824 120.416 84.2536 120.546 81.2434 119.899C78.0669 119.216 75.112 117.849 72.2863 116.261C72.0463 116.132 72.2679 115.762 72.4895 115.91C75.1858 117.425 78.0114 118.736 81.0217 119.438C84.1798 120.176 87.3378 120.029 90.4589 119.142C96.184 117.517 101.503 114.414 105.954 110.481C106.157 110.277 106.452 110.573 106.249 110.758Z" fill="#191919"/>
<path d="M80.5232 108.319C79.3044 108.559 78.1963 109.095 77.3098 109.981C76.3495 110.942 75.3337 113.176 77.2175 113.804C77.476 113.897 77.3652 114.284 77.1067 114.211C75.6661 113.73 75.463 112.105 76.1094 110.886C76.9589 109.28 78.6949 108.264 80.4124 107.931C80.671 107.876 80.7818 108.282 80.5232 108.319Z" fill="#191919"/>
<path d="M74.2069 119.142C70.2363 116.575 65.4716 116.076 60.873 115.651C60.6145 115.633 60.6145 115.208 60.873 115.227C65.5454 115.651 70.3841 116.169 74.4101 118.773C74.6317 118.92 74.4286 119.29 74.2069 119.142Z" fill="#191919"/>
<path d="M112.879 94.3398C108.798 95.4294 105.585 98.2181 102.186 100.564C98.6591 103.001 94.7993 104.922 90.7363 106.27C90.4777 106.363 90.3669 105.956 90.6255 105.864C94.8731 104.46 98.8438 102.429 102.482 99.8433C105.732 97.5533 108.872 94.9678 112.787 93.9151C113.027 93.8781 113.138 94.266 112.879 94.3398Z" fill="#191919"/>
<path opacity="0.13" d="M117.367 90.1841C112.141 92.6219 108.392 95.1889 105.935 97.0911C103.313 99.1226 102.463 100.175 99.6194 101.948C98.0865 102.909 94.91 104.885 90.4038 106.288C84.8634 108.024 82.4626 107.267 80.3387 109.705C80.0617 110.019 78.4735 111.829 78.7135 114.045C79.009 116.815 81.9824 119.308 86.2116 119.936C85.0111 119.955 83.663 119.881 82.204 119.678C78.7505 119.197 75.9618 118.126 73.9303 117.129C74.5767 117.886 75.2415 118.754 75.0384 119.013C74.7614 119.364 72.97 118.348 71.7141 117.738C69.4056 116.612 67.8728 116.464 62.4247 115.615C50.402 113.749 49.2385 113.214 45.4526 113.565C42.5346 113.842 39.1365 114.562 39.1365 115.19C39.1549 115.836 42.904 116.076 42.8855 116.39C42.8486 116.778 36.2001 118.588 29.5885 116.224C28.0926 115.688 24.3436 114.137 23.0323 115.541C22.663 115.929 22.4783 116.575 21.8319 116.741C21.0563 116.944 20.2437 116.261 19.7081 115.799C19.1356 115.319 18.2122 114.377 17.5843 112.734C17.9352 112.623 18.4338 112.475 19.0248 112.309C20.2806 111.958 24.0111 110.924 29.4223 110C31.1029 109.723 34.2425 109.188 37.9545 108.892C45.7296 108.264 47.7795 109.243 54.8343 109.058C56.6442 109.003 62.0923 108.8 68.7408 107.359C74.669 106.067 78.9352 104.368 86.0454 101.468C92.2322 98.9564 92.9339 98.3285 97.551 96.4448C102.076 94.5795 108.724 92.1602 117.367 90.1841Z" fill="#6C6D6D"/>
<path opacity="0.18" d="M63.6436 130.26C61.7044 129.447 59.3959 128.671 56.7365 128.136C55.6284 127.914 54.5757 127.748 53.5785 127.619C53.874 128.32 54.1879 129.022 54.5203 129.742C55.3699 131.608 56.2563 133.325 57.1613 134.95C59.322 133.399 61.4828 131.829 63.6436 130.26Z" fill="#6C6D6D"/>
<path opacity="0.15" d="M30.235 119.696C34.9259 120.767 38.3979 120.453 38.4164 120.712C38.4349 120.933 36.0894 121.358 25.7104 122.337C25.3964 121.617 25.064 120.823 24.7685 119.955C24.4915 119.142 24.2698 118.366 24.0852 117.646C25.5257 118.292 27.6126 119.105 30.235 119.696Z" fill="#6C6D6D"/>
<path opacity="0.22" d="M80.3567 108.19C80.4306 108.338 78.6207 108.744 77.7158 110.314C77.0509 111.478 77.1063 112.826 77.3833 113.989C77.1986 113.915 76.1275 113.472 75.8505 112.456C75.5735 111.404 76.3491 110.499 76.7923 109.982C78.159 108.357 80.2828 108.024 80.3567 108.19Z" fill="#6C6D6D"/>
<path opacity="0.15" d="M54.4463 108.874C48.0563 108.246 39.9119 108.098 30.6594 109.649C25.9316 110.443 21.6655 111.533 17.9534 112.715C18.1012 113.232 18.4336 114.1 19.1538 114.931C19.1538 114.931 19.8925 115.781 21.0376 116.372C23.8632 117.831 28.2771 116.372 28.5356 116.279C27.3167 116.113 25.9685 115.836 24.528 115.43C23.697 115.19 22.9398 114.931 22.2195 114.654C24.6573 113.638 27.3352 112.678 30.2347 111.847C39.4502 109.169 47.8347 108.652 54.4463 108.874Z" fill="#6C6D6D"/>
<path d="M43.8093 114.729C43.6062 114.489 43.3107 114.507 42.535 114.359C41.6116 114.175 40.8914 113.935 40.3927 113.75C37.6041 112.974 35.5726 111.94 34.1875 111.109C31.2326 109.318 29.9029 107.619 28.1299 108.006C27.0034 108.265 25.9692 109.318 26.0615 110.204C26.1354 110.961 26.9849 111.46 31.2326 113.067C37.8257 115.56 37.2162 114.895 39.1923 115.929C41.0022 116.89 42.0179 117.702 42.9413 117.296C43.8463 116.853 44.308 115.301 43.8093 114.729Z" fill="#191919"/>
<path d="M8.99682 99.8615C11.7116 102.004 11.6562 105.494 11.6562 105.79C11.6193 106.935 11.3238 107.84 11.1022 108.375C14.371 110.037 14.9066 110.721 14.8143 111.035C14.5557 111.847 9.6986 111.977 7.46396 109.243C6.94686 108.615 6.74371 107.987 6.35588 106.769C5.58022 104.349 4.52755 99.4737 6.04193 98.6795C6.90993 98.2363 8.33197 99.3444 8.99682 99.8615Z" fill="#191919"/>
<path d="M28.5546 109.65C28.1483 108.819 27.151 108.634 25.3042 108.209C23.2727 107.748 19.8377 106.954 17.917 106.233C15.7008 105.384 14.3896 104.202 12.1365 102.17C7.63026 98.1074 7.42711 95.5957 5.39562 95.5034C2.8655 95.3926 -0.292534 99.1047 0.0214233 102.41C0.261507 104.996 2.53308 106.455 6.76226 109.151C7.74107 109.779 11.9703 112.402 18.4895 113.824C22.3678 114.673 25.1195 115.246 27.0402 113.639C28.2406 112.642 29.1086 110.795 28.5546 109.65Z" fill="#191919"/>
<path d="M4.21411 100.988C6.92891 103.131 6.87351 106.621 6.87351 106.917C6.83657 108.062 6.54108 108.967 6.31947 109.502C9.58831 111.164 10.1239 111.848 10.0315 112.162C9.77299 112.974 4.9159 113.103 2.68127 110.37C2.16416 109.742 1.96102 109.114 1.57319 107.895C0.797528 105.476 -0.255164 100.601 1.25922 99.8065C2.14568 99.3448 3.56772 100.471 4.21411 100.988Z" fill="#191919"/>
<path d="M7.37207 97.2947C7.03965 96.9807 6.59643 96.5375 6.11626 95.965C5.82077 95.6141 4.71269 94.2844 3.51226 91.7173C2.82895 90.2768 2.29335 89.1318 1.92399 87.4327C1.5731 85.7891 1.27762 84.3301 1.99787 83.0743C2.58885 82.0401 3.27217 81.486 3.27217 81.486C3.88162 81.0059 4.39872 80.8212 4.38025 80.5257C4.34332 80.2671 3.88162 80.0455 3.45685 80.0455C2.16409 80.0271 1.20375 82.2986 1.03754 82.668C0.18801 84.681 0.501971 86.6017 0.649716 87.2665C0.742056 87.6544 0.742043 87.5436 1.44383 89.6489C2.12715 91.7173 2.10869 91.7543 2.40418 92.5853C3.40146 95.3925 3.95548 96.9438 5.24824 97.424C5.6176 97.5717 6.31939 97.701 7.37207 97.2947Z" fill="#191919"/>
<path d="M32.5072 112.789C33.1536 112.475 34.9265 111.625 35.0189 110.333C35.0373 110.111 34.8342 109.317 34.4464 107.747C34.2801 107.082 34.2617 107.045 34.1878 106.713C33.9477 105.623 34.0216 105.402 33.8 104.903C33.7076 104.7 33.3013 103.758 32.7657 103.74C32.2856 103.721 31.75 104.478 31.5469 105.605C30.6235 105.586 29.4415 105.568 28.5181 105.549C27.5208 105.531 26.3389 105.513 25.3601 105.494C25.1754 105.199 24.8614 104.774 24.3997 104.331C23.9565 103.906 23.6425 103.61 23.3655 103.684C22.9962 103.777 22.9223 104.534 22.793 105.494C22.3313 108.837 21.925 109.114 22.2759 110.019C22.6453 110.942 23.384 111.422 24.215 111.958C24.3813 112.087 28.5735 114.691 32.5072 112.789Z" fill="#191919"/>
<path d="M33.08 108.413C32.4336 108.284 31.8796 108.671 31.381 109.041C31.3071 109.096 31.2332 108.967 31.3071 108.93C31.8427 108.524 32.4152 108.154 33.117 108.284C33.1908 108.284 33.1539 108.431 33.08 108.413Z" fill="white"/>
<path d="M28.6658 109.04C28.0748 108.597 27.41 108.32 26.6898 108.227C26.5974 108.209 26.5974 108.08 26.6898 108.08C27.4469 108.172 28.1303 108.449 28.7397 108.911C28.7951 108.966 28.7397 109.095 28.6658 109.04Z" fill="white"/>
<path d="M31.879 107.046C31.6944 106.898 31.4727 106.842 31.2327 106.898C31.1403 106.916 31.1034 106.787 31.1957 106.769C31.4727 106.695 31.7498 106.769 31.9714 106.953C32.0452 107.009 31.9529 107.101 31.879 107.046Z" fill="white"/>
<path d="M28.7027 106.953C28.4996 106.879 28.2964 106.898 28.1118 107.027C28.0379 107.082 27.964 106.953 28.0379 106.916C28.241 106.787 28.4996 106.75 28.7212 106.842C28.832 106.861 28.7951 106.99 28.7027 106.953Z" fill="white"/>
<path d="M30.1991 109.835C30.1806 109.816 30.1621 109.798 30.1437 109.761C30.1806 109.742 30.1991 109.724 30.236 109.705C30.2175 109.798 30.236 109.89 30.2914 109.964C30.273 109.945 30.236 109.945 30.2176 109.927C30.273 109.853 30.273 109.779 30.236 109.724C30.273 109.742 30.3099 109.742 30.3468 109.761C30.3468 109.835 30.3468 109.908 30.3284 109.982C30.2914 110.001 30.2545 110.019 30.2176 110.038C30.2176 109.982 30.2176 109.908 30.1991 109.835C30.2545 109.835 30.2914 109.835 30.3468 109.835C30.3099 110.038 30.3283 110.259 30.4392 110.444C30.4761 110.518 30.5684 110.647 30.6608 110.703C30.9563 110.85 30.9563 110.462 30.9563 110.333C30.9563 110.241 31.104 110.241 31.104 110.333C31.104 110.499 31.0855 110.684 30.9563 110.813C30.827 110.924 30.6792 110.906 30.55 110.795C30.2545 110.573 30.1621 110.167 30.236 109.816C30.2545 109.742 30.3653 109.761 30.3653 109.835C30.3653 109.908 30.3653 109.982 30.3653 110.056C30.3653 110.112 30.2914 110.149 30.2545 110.112C30.1437 109.982 30.1437 109.816 30.2729 109.705C30.3099 109.668 30.3653 109.687 30.3838 109.742C30.4392 109.89 30.4576 110.056 30.2729 110.112C30.236 110.13 30.2176 110.112 30.1991 110.075C30.1067 109.964 30.0883 109.835 30.1252 109.705C30.1437 109.668 30.1806 109.65 30.2176 109.65C30.3284 109.687 30.3653 109.742 30.3838 109.853C30.3468 109.927 30.1991 109.927 30.1991 109.835Z" fill="white"/>
<path d="M30.2542 109.89C30.4019 110.222 30.3465 110.758 29.9771 110.943C29.5708 111.146 29.4046 110.629 29.3677 110.333C29.3677 110.241 29.497 110.241 29.5154 110.333C29.5339 110.462 29.5339 110.592 29.6078 110.702C29.737 110.906 29.9587 110.85 30.0879 110.684C30.2541 110.462 30.2542 110.185 30.1434 109.927C30.0879 109.853 30.2172 109.816 30.2542 109.89Z" fill="white"/>
<path d="M31.787 109.483C32.2118 109.262 32.618 109.022 33.0059 108.763C33.0797 108.708 33.1536 108.837 33.0798 108.874C32.6919 109.132 32.2856 109.373 31.8609 109.594C31.7685 109.65 31.6946 109.52 31.787 109.483Z" fill="white"/>
<path d="M31.9351 109.927C32.3414 109.871 32.7477 109.871 33.1724 109.927C33.2648 109.945 33.2648 110.075 33.1724 110.075C32.7661 110.019 32.3598 110.019 31.9351 110.075C31.8427 110.075 31.8427 109.927 31.9351 109.927Z" fill="white"/>
<path d="M31.9534 110.148C32.3413 110.277 32.6921 110.518 32.9507 110.831C33.0061 110.905 32.9138 110.998 32.8583 110.924C32.6183 110.61 32.2858 110.388 31.9165 110.277C31.8241 110.24 31.8611 110.111 31.9534 110.148Z" fill="white"/>
<path d="M28.7769 110.037C28.2044 109.649 27.558 109.428 26.8747 109.391C26.7823 109.391 26.7823 109.243 26.8747 109.243C27.5949 109.299 28.2598 109.52 28.8507 109.908C28.9246 109.963 28.8507 110.093 28.7769 110.037Z" fill="white"/>
<path d="M28.5185 110.37C27.9829 110.204 27.4473 110.259 26.9672 110.517C26.8933 110.554 26.8194 110.444 26.8933 110.407C27.4104 110.13 27.9829 110.074 28.5554 110.24C28.6477 110.259 28.6108 110.388 28.5185 110.37Z" fill="white"/>
<path d="M28.2966 110.703C27.8534 110.795 27.484 111.017 27.1885 111.349C27.1331 111.423 27.0408 111.312 27.0962 111.257C27.4101 110.906 27.798 110.666 28.2597 110.573C28.352 110.536 28.3889 110.684 28.2966 110.703Z" fill="white"/>
<path d="M23.7161 104.608C23.9562 104.978 24.1224 105.384 24.1963 105.809C24.1963 105.864 24.1594 105.901 24.1039 105.901C24.0301 105.883 24.0301 105.864 23.9562 105.827C23.9931 105.846 23.5868 105.55 23.7161 105.827C23.753 105.883 23.6792 105.956 23.6238 105.92C23.5499 105.92 23.476 105.938 23.4022 105.938C23.4576 106.012 23.3652 106.104 23.3098 106.03C23.2544 105.956 23.2359 105.864 23.3098 105.79C23.4206 105.679 23.5684 105.735 23.6976 105.809C23.6607 105.846 23.6422 105.864 23.6053 105.901C23.5499 105.79 23.4945 105.642 23.6422 105.55C23.8454 105.421 23.9931 105.716 24.1409 105.772C24.1039 105.809 24.0855 105.827 24.0485 105.864C23.9747 105.439 23.8085 105.052 23.5868 104.701C23.5499 104.608 23.6607 104.534 23.7161 104.608Z" fill="white"/>
<path d="M32.8766 104.681C32.7842 104.995 32.7473 105.309 32.7657 105.623C32.7103 105.623 32.6734 105.623 32.618 105.623C32.618 105.402 32.8766 105.235 33.0428 105.439C33.0797 105.476 33.0797 105.531 33.1166 105.549C33.1536 105.586 33.209 105.605 33.2644 105.642C33.3752 105.753 33.3937 105.882 33.3567 106.011C33.3383 106.103 33.209 106.067 33.2274 105.974C33.2459 105.808 33.1905 105.697 33.0243 105.66C32.9874 105.66 32.9689 105.623 32.9689 105.586C32.895 105.586 32.8396 105.586 32.7657 105.586C32.7657 105.679 32.6365 105.679 32.618 105.586C32.5811 105.254 32.618 104.922 32.7288 104.608C32.7658 104.552 32.895 104.589 32.8766 104.681Z" fill="white"/>
<path d="M39.7832 117.462C39.5801 117.222 39.2846 117.241 38.5089 117.093C37.5855 116.908 36.8653 116.668 36.3666 116.483C33.5779 115.708 31.5465 114.674 30.1614 113.842C27.2065 112.051 25.8768 110.352 24.1038 110.74C22.9773 110.998 21.9431 112.051 22.0354 112.938C22.1093 113.695 22.9588 114.193 27.2065 115.8C33.7996 118.293 33.1901 117.628 35.1662 118.663C36.9761 119.623 37.9918 120.436 38.9152 120.029C39.8386 119.605 40.2818 118.053 39.7832 117.462Z" fill="#191919"/>
<path d="M91.9361 37.2729C93.3028 36.5527 95.0757 37.3468 96.0545 37.7901C97.7905 38.5657 99.7481 40.154 101.983 45.3804C103.239 48.2984 104.827 52.9523 105.325 59.1576C107.283 60.0071 110.053 60.9305 113.433 61.0967C117.09 61.263 118.992 60.4319 120.008 61.6138C121.282 63.0913 120.192 66.6372 118.198 68.7056C115.963 71.0326 112.897 71.1803 110.847 71.2726C109.352 71.3465 103.903 71.4204 98.991 67.6714C94.2447 64.0332 92.9704 59.0837 91.5114 53.5064C91.142 51.9181 87.984 39.3414 91.9361 37.2729Z" fill="white" stroke="#191919" stroke-width="0.5" stroke-miterlimit="10"/>
<path opacity="0.12" d="M93.4507 37.07C95.0575 37.6425 94.1525 42.2595 94.5588 47.4675C94.6512 48.5756 95.2975 56.3137 98.5664 60.9677C103.83 68.4472 116.019 68.0225 118.863 67.8747C118.53 68.4472 117.939 69.2783 116.961 69.9801C115.852 70.7558 114.652 71.0512 113.064 71.1805C111.402 71.3098 108.761 71.5314 105.27 70.4787C103.46 69.9247 98.8619 68.5396 95.7777 64.2735C94.9282 63.11 94.448 61.965 93.4692 59.6749C92.9521 58.456 91.7147 55.3719 90.7729 50.8841C90.7729 50.8841 90.145 47.8738 90.1819 40.4866C90.1819 39.6555 90.3666 38.9353 90.8837 38.2889C91.4747 37.4763 92.6935 36.793 93.4507 37.07Z" fill="#6C6D6D"/>
<path opacity="0.25" d="M91.3457 50.5701C91.5488 50.5147 92.1029 53.4881 94.6515 58.0681C96.3136 61.0784 98.5113 64.9013 102.556 67.7639C106.693 70.6818 110.589 71.0512 110.552 71.162C110.516 71.3097 102.63 71.0512 97.2555 65.8616C91.2534 60.0627 90.9948 50.6624 91.3457 50.5701Z" fill="#6C6D6D"/>
<path d="M91.6966 34.0779C94.2636 35.8508 95.778 37.8084 96.4983 38.7503C100.764 44.3646 101.263 50.4775 101.429 53.1554C101.817 59.1021 100.192 60.3764 99.9702 69.6843C99.8964 72.7685 100.007 75.2986 100.1 76.8869C97.8464 78.5305 93.0078 81.6147 86.1007 82.4827C77.6239 83.5538 71.1047 80.6728 68.63 79.417C67.1895 78.0688 65.2134 76.0189 63.385 73.1748C61.5013 70.2568 60.1901 67.1357 58.4171 59.8778C57.3644 55.5563 56.1455 49.8127 55.2037 42.8687C56.6811 40.7449 61.8891 33.8748 71.4371 31.4185C73.1546 30.9753 83.3859 28.3528 91.6966 34.0779Z" fill="#3A3A3A"/>
<path opacity="0.09" d="M72.6927 31.1602C72.0833 33.0439 71.3815 35.7956 71.1599 39.1568C70.772 44.7526 71.8801 49.6651 74.244 55.9074C78.307 66.6742 83.9582 75.742 88.4829 82.0951C86.7654 82.3905 84.7893 82.5937 82.6101 82.5752C76.6633 82.5383 71.8801 80.8946 68.7406 79.4911C67.6509 78.4384 66.1366 76.8317 64.6037 74.6709C63.9389 73.7475 61.9258 70.8111 60.079 65.8247C56.7178 56.7754 55.6098 45.5468 55.3697 42.8135C56.8471 40.6158 59.7835 36.9407 64.7145 34.152C67.7248 32.4344 70.5689 31.6034 72.6927 31.1602Z" fill="#050505"/>
<path opacity="0.14" d="M55.8502 45.9907C58.4542 53.0455 61.1506 58.6598 63.2559 62.6489C65.546 66.9889 66.8572 69.4267 69.1288 72.1784C73.7273 77.7373 79.2493 80.9138 83.5708 82.7606C81.7425 82.7237 79.5817 82.539 77.2178 82.0958C73.912 81.4494 71.1603 80.4521 69.0364 79.4918C67.7252 78.4576 65.9338 76.8693 64.2163 74.5793C62.0001 71.6059 60.7443 68.5587 59.1191 62.3534C58.011 58.1427 56.7736 52.6208 55.8502 45.9907Z" fill="#6C6D6D"/>
<path d="M99.1018 107.599C100.838 110.683 102.574 113.767 104.31 116.851C116.702 120.175 122.796 122.539 122.575 123.924C122.353 125.42 114.781 125.79 99.896 125.014C96.5163 120.009 93.1367 114.986 89.7385 109.981C92.8596 109.187 95.9807 108.393 99.1018 107.599Z" fill="#191919"/>
<path d="M66.3767 75.6678C61.6304 78.4749 60.8917 86.6932 63.0894 92.3998C66.6353 101.56 77.3652 103.204 77.8269 103.259C73.6162 98.4204 71.5293 96.0011 71.5293 95.9826C71.5478 95.9642 78.067 103.37 91.087 118.181C92.3613 118.015 97.6616 117.202 101.411 112.548C103.59 109.852 104.292 107.027 104.532 105.512C96.7567 96.5367 89.0001 87.5797 81.225 78.6042C76.6819 74.3196 70.5136 73.23 66.3767 75.6678Z" fill="white" stroke="#191919" stroke-width="0.5" stroke-miterlimit="10"/>
<path opacity="0.16" d="M66.0253 76.1479C65.8776 78.5488 65.9699 82.1685 67.5581 86.0284C69.5896 90.9963 73.0616 93.8773 75.444 95.798C82.3511 101.375 90.2369 107.636 99.2124 114.395C98.566 115.005 97.7534 115.67 96.7377 116.279C94.6139 117.572 92.5824 118.07 91.1973 118.274C86.728 113.25 82.2587 108.227 77.7895 103.204C76.5152 103.019 74.7238 102.631 72.7292 101.8C70.8455 101.006 67.5212 99.547 64.9542 96.038C62.738 92.9724 62.2578 89.9251 62.0177 88.263C61.7407 86.3054 61.3713 83.8307 62.4794 80.9681C63.4582 78.4934 65.0834 76.9236 66.0253 76.1479Z" fill="#6C6D6D"/>
<path opacity="0.19" d="M62.498 82.3716C62.9043 84.8094 63.7723 88.189 65.7853 91.7903C69.6267 98.5865 75.2779 101.966 77.9004 103.333C75.832 103 71.5104 102.003 67.6691 98.5127C66.5795 97.5154 64.4002 95.5024 63.0705 92.0488C61.4454 87.7458 62.1287 83.9229 62.498 82.3716Z" fill="#6C6D6D"/>
<path opacity="0.12" d="M71.7879 95.9087C72.2865 95.4101 80.2463 102.391 95.6855 116.852C94.2266 117.369 92.7861 117.867 91.3271 118.384C77.8269 103.887 71.3077 96.3889 71.7879 95.9087Z" fill="#6C6D6D"/>
<path d="M122.297 46.064C122.113 46.064 121.91 46.064 121.725 46.064C121.669 45.8608 121.614 45.6392 121.559 45.436C121.337 45.8977 120.968 46.6549 120.506 47.5968C118.474 51.7152 118.068 52.3985 117.699 53.6359C117.403 54.6516 117.052 56.1106 116.942 57.9759C116.591 57.7358 116.074 57.4033 115.409 57.034C111.826 55.0764 108.834 55.0579 106.138 54.5777C104.125 54.2084 101.299 53.3958 97.9934 51.4197C98.1966 51.6967 98.3997 51.9922 98.6028 52.2692C98.2889 52.38 97.9565 52.5093 97.6425 52.6201C97.4578 52.8602 97.2177 53.248 97.0146 53.7467C95.9434 56.3876 97.5317 59.2871 99.0646 61.9465C105.325 72.9534 105.972 73.5259 107.098 74.08C107.56 74.3201 112.214 76.5916 115.52 74.4863C116.203 74.0615 117.44 73.0458 119.029 65.8617C120.118 60.9677 120.247 58.2344 121.282 51.8075C121.669 49.3697 122.039 47.3752 122.297 46.064Z" fill="white" stroke="#191919" stroke-width="0.5" stroke-miterlimit="10"/>
<path d="M121.245 47.0796C119.675 50.4408 118.123 53.8573 117.643 57.551C117.625 57.6433 117.496 57.6433 117.496 57.551C117.976 53.8204 119.527 50.3853 121.115 47.0057C121.171 46.9318 121.282 47.0057 121.245 47.0796Z" fill="#191919"/>
<path d="M121.836 46.4873C120.912 48.4449 120.155 50.4579 119.527 52.5263C119.509 52.6187 119.361 52.5817 119.398 52.4894C120.026 50.4025 120.802 48.3895 121.725 46.4134C121.762 46.3395 121.873 46.4134 121.836 46.4873Z" fill="#191919"/>
<path d="M119.306 52.4175C118.696 54.0797 118.29 55.7972 118.05 57.5517C118.031 57.644 117.902 57.644 117.902 57.5517C118.142 55.7787 118.548 54.0612 119.158 52.3806C119.195 52.3067 119.343 52.3437 119.306 52.4175Z" fill="#191919"/>
<path d="M120.913 49.7935C120.063 51.8804 119.324 54.0227 118.715 56.202C118.696 56.2943 118.549 56.2574 118.586 56.165C119.195 53.9858 119.934 51.8435 120.783 49.7566C120.802 49.6643 120.949 49.7012 120.913 49.7935Z" fill="#191919"/>
<path d="M116.609 58.4382C114.301 56.9053 111.715 55.9081 108.964 55.5202C108.871 55.5018 108.908 55.3725 109.001 55.391C111.771 55.7788 114.356 56.7761 116.683 58.3089C116.757 58.3643 116.683 58.4936 116.609 58.4382Z" fill="#191919"/>
<path d="M115.464 58.2162C113.063 56.7573 110.349 56.2032 107.652 55.5938C104.79 54.9474 102.001 54.0794 99.2862 52.9713C99.2123 52.9344 99.2492 52.8051 99.3231 52.842C102.13 54.0055 105.03 54.8735 108.003 55.5384C110.607 56.1293 113.23 56.7018 115.538 58.1054C115.593 58.1423 115.538 58.2532 115.464 58.2162Z" fill="#191919"/>
<path d="M115.908 58.8616C113.064 57.5134 110.165 56.6823 107.117 55.9436C104.126 55.2049 101.226 54.0599 98.3082 53.0626C98.2158 53.0257 98.2528 52.8964 98.3451 52.9333C101.355 53.9675 104.366 55.168 107.468 55.8882C110.405 56.59 113.23 57.458 115.982 58.7508C116.056 58.7877 115.982 58.8985 115.908 58.8616Z" fill="#191919"/>
<path d="M122.39 46.0273C121.042 50.2935 119.675 54.5411 118.327 58.8072C117.662 59.0289 116.997 59.2505 116.332 59.4721C110.016 57.3852 103.718 55.3168 97.4024 53.2299C97.1808 53.4146 96.9592 53.5992 96.7375 53.8024C96.0173 62.5747 95.2786 71.3286 94.5583 80.1009C94.8169 80.2671 95.057 80.4149 95.3155 80.5811C101.724 81.5599 108.114 82.5387 114.522 83.5175C115.446 83.2959 116.351 83.0743 117.274 82.8526C118.087 79.2514 118.918 75.6686 119.73 72.0673C120.931 63.5535 122.131 55.0398 123.332 46.526C123.018 46.3413 122.704 46.1936 122.39 46.0273Z" fill="white" stroke="#191919" stroke-width="0.5" stroke-miterlimit="10"/>
<path d="M118.641 58.9166C118.346 66.9132 117.773 74.9284 117.33 82.925C117.311 83.1836 116.905 83.1836 116.905 82.925C117.348 74.9284 117.921 66.9317 118.216 58.9166C118.235 58.658 118.641 58.658 118.641 58.9166Z" fill="#191919"/>
<path d="M116.72 59.4348C116.461 61.7064 116.351 63.978 116.351 66.268C116.351 66.5266 115.944 66.5266 115.926 66.268C115.926 63.978 116.037 61.7064 116.295 59.4348C116.332 59.1578 116.757 59.1578 116.72 59.4348Z" fill="#191919"/>
<path d="M111.678 60.0628C111.567 61.4479 111.475 62.833 111.364 64.2181C107.283 62.9807 103.201 61.7249 99.1384 60.4875C99.2677 59.047 99.397 57.6065 99.5078 56.166C103.571 57.4772 107.615 58.77 111.678 60.0628Z" fill="#707070"/>
<path opacity="0.16" d="M105.233 55.9999C105.159 57.8467 105.215 61.9835 107.579 66.4343C110.09 71.1622 113.765 73.5999 115.354 74.5233C115.428 73.009 115.52 71.4946 115.594 69.9987C116.222 71.0514 116.831 72.104 117.459 73.1567C117.33 76.444 117.182 79.7313 117.053 83.0371C116.166 83.2218 115.28 83.4065 114.375 83.6096C108.151 82.6124 101.909 81.6151 95.6852 80.6178C95.3527 80.4885 95.0388 80.3408 94.7063 80.2115C95.4081 71.3284 96.1099 62.4637 96.8117 53.5806C99.6188 54.3932 102.426 55.1873 105.233 55.9999Z" fill="#6C6D6D"/>
<path opacity="0.1" d="M116.628 59.6011C116.757 59.6011 116.905 63.0177 116.812 66.7297C116.702 72.0116 116.203 74.3201 116.351 79.3619C116.406 81.0056 116.499 82.3537 116.572 83.2217C115.889 83.3141 115.187 83.4064 114.504 83.4987C114.633 82.5938 114.818 81.2826 115.003 79.7128C116.443 67.9671 116.425 59.6011 116.628 59.6011Z" fill="#6C6D6D"/>
<path d="M122.279 58.8621C122.482 58.936 122.464 59.3054 122.63 61.0229C122.741 62.1864 122.777 62.2048 122.741 62.4819C122.648 63.2575 122.371 63.4053 122.279 64.2917C122.223 64.8642 122.334 64.9381 122.242 65.4183C122.131 66.0093 121.873 66.4525 121.669 66.7295C121.669 66.9142 121.632 67.2282 121.485 67.5421C121.189 68.1146 120.506 68.6133 120.137 68.4286C119.933 68.3362 119.878 67.9484 119.786 67.1912C119.693 66.4894 119.749 66.4525 119.675 65.6399C119.601 64.9751 119.546 64.8458 119.601 64.5133C119.656 64.107 119.804 63.9778 119.952 63.553C120.155 62.962 120.063 62.7404 120.192 62.131C120.377 61.1152 120.857 60.395 121.115 60.0071C121.374 59.5824 121.946 58.7513 122.279 58.8621Z" fill="white"/>
<path d="M122.427 58.6772C123.424 60.8379 122.427 63.2572 120.173 64.0514C119.915 64.1437 119.804 63.7374 120.063 63.6451C122.057 62.9433 122.944 60.801 122.057 58.8803C121.946 58.6587 122.316 58.4371 122.427 58.6772Z" fill="#191919"/>
<path d="M122.353 59.0283C121.023 60.2656 120.247 61.8908 120.136 63.7007C120.118 63.9593 119.712 63.9593 119.712 63.7007C119.822 61.78 120.635 60.044 122.057 58.7328C122.26 58.5481 122.556 58.8436 122.353 59.0283Z" fill="#191919"/>
<path d="M122.888 61.2631C123.369 63.4239 122.094 65.4738 119.897 65.9355C119.638 65.9909 119.527 65.5846 119.786 65.5292C121.743 65.1229 122.925 63.3315 122.482 61.3554C122.445 61.1153 122.833 61.0045 122.888 61.2631Z" fill="#191919"/>
<path d="M122.501 63.9958C122.889 65.6395 121.891 67.2092 120.229 67.5232C119.971 67.5786 119.86 67.1723 120.119 67.1169C121.559 66.8583 122.446 65.5471 122.113 64.1066C122.039 63.848 122.427 63.7372 122.501 63.9958Z" fill="#191919"/>
<path d="M121.965 66.6182C122.039 67.4124 121.577 68.2065 120.838 68.502C120.524 68.6313 120.118 68.6497 119.878 68.3727C119.619 68.0772 119.73 67.634 119.878 67.32C119.97 67.0799 120.377 67.1907 120.284 67.4308C120.192 67.634 120.007 68.0403 120.303 68.1695C120.524 68.2619 120.875 68.0403 121.042 67.911C121.429 67.597 121.614 67.1169 121.559 66.6182C121.522 66.3597 121.928 66.3597 121.965 66.6182Z" fill="#191919"/>
<path d="M120.063 67.4862C119.657 67.4862 119.49 67.0799 119.435 66.729C119.361 66.3042 119.435 65.861 119.657 65.4916C119.786 65.2515 120.155 65.4732 120.008 65.6948C119.878 65.9164 119.804 66.1565 119.804 66.3966C119.804 66.5258 119.841 67.0614 120.063 67.0614C120.321 67.0799 120.321 67.4862 120.063 67.4862Z" fill="#191919"/>
<path d="M119.546 65.7877C119.287 65.5476 119.287 65.0859 119.342 64.7535C119.398 64.3287 119.582 63.9594 119.878 63.6454C120.063 63.4423 120.358 63.7378 120.173 63.9409C119.989 64.1441 119.841 64.3842 119.786 64.6796C119.749 64.8828 119.693 65.326 119.86 65.4922C120.026 65.6954 119.73 65.9909 119.546 65.7877Z" fill="#191919"/>
<path d="M60.5591 39.7483C65.287 39.8221 68.3527 47.0616 69.2761 49.2409C70.6058 52.3989 70.3657 53.7101 72.2864 61.8915C72.9512 64.7725 73.5791 67.0995 73.9854 68.5954C75.703 69.4264 79.0641 70.7377 83.3118 70.3683C85.8419 70.1467 88.7045 69.8881 90.7544 67.8013C92.749 65.7698 92.5458 63.4982 94.6512 62.7964C96.0178 62.3347 97.6615 62.7595 97.8646 63.3874C97.9939 63.8306 97.3845 64.1815 96.6088 65.6774C96.3318 66.2315 96.1286 66.6932 96.0178 67.0441C98.4925 67.7089 100.561 67.9675 102.094 68.0783C105.806 68.3368 108.281 67.8567 109.019 69.1679C109.315 69.685 109.426 70.7007 108.927 71.4025C108.668 71.7719 108.318 71.9566 108.096 72.0489C108.133 72.1043 108.668 72.7876 108.391 73.6372C108.133 74.4313 107.413 74.7083 107.339 74.7268C107.376 74.8191 107.69 75.5763 107.246 76.3335C106.822 77.0537 106.064 77.2015 105.972 77.2015C106.046 77.46 106.12 77.9033 105.935 78.328C105.658 78.9929 104.938 79.2884 104.31 79.4915C100.93 80.5442 98.1416 80.101 98.1416 80.101C94.9836 79.6023 92.6382 78.1803 91.2715 77.1646C89.831 78.4758 86.8761 80.8028 82.4807 81.9478C80.911 82.3541 76.0354 83.573 70.6796 81.56C64.9915 79.4361 62.1289 74.9484 59.6542 71.0701C56.9948 66.8963 56.016 63.3689 54.7232 58.7334C52.8949 52.1588 52.0084 48.7976 53.6521 45.3256C54.7602 42.8509 57.438 39.6929 60.5591 39.7483Z" fill="white" stroke="#191919" stroke-width="0.5" stroke-miterlimit="10"/>
<path d="M108.354 72.0675C105.935 72.8616 103.405 72.9539 100.949 72.3629C100.69 72.3075 100.801 71.9012 101.059 71.9566C103.46 72.5291 105.898 72.4368 108.244 71.6612C108.502 71.5873 108.613 71.9751 108.354 72.0675Z" fill="#191919"/>
<path d="M107.357 74.8562C104.993 75.4471 102.574 75.4656 100.192 74.9485C99.9331 74.8931 100.044 74.4868 100.302 74.5422C102.611 75.0408 104.956 75.0039 107.246 74.4499C107.505 74.376 107.616 74.7823 107.357 74.8562Z" fill="#191919"/>
<path d="M106.212 77.2756C104.088 77.922 101.909 78.0328 99.7484 77.5895C99.4898 77.5341 99.6006 77.1278 99.8592 77.1832C101.965 77.608 104.07 77.4972 106.101 76.8693C106.36 76.7954 106.471 77.2017 106.212 77.2756Z" fill="#191919"/>
<path opacity="0.12" d="M56.2745 41.4287C56.4223 44.8268 56.9579 49.924 58.8047 55.8153C60.947 62.6485 63.2185 69.888 70.0702 74.3942C71.7877 75.5207 76.2754 78.4387 82.4253 77.9216C87.0239 77.5338 90.3296 75.4284 91.844 74.3019C94.8174 75.7054 97.3844 76.2595 99.0835 76.4811C101.263 76.7766 102.796 76.6842 103.202 76.6473C104.956 76.518 106.378 76.1487 107.413 75.7978C106.988 76.2779 106.563 76.7581 106.157 77.2198C106.212 77.5707 106.231 78.1432 105.898 78.6418C105.529 79.2144 104.882 79.436 103.719 79.6576C102.131 79.9531 101.337 80.1008 99.933 80.0824C98.6587 80.0454 96.8673 79.99 94.725 79.1589C93.8386 78.8081 92.6381 78.2355 91.3639 77.2198C90.5697 77.8847 89.3878 78.7896 87.8365 79.6576C86.0451 80.6733 82.333 82.7233 77.2358 82.6864C75.7768 82.6679 72.3972 82.6125 68.7405 80.6733C66.395 79.4175 64.973 77.9401 63.5325 76.3887C60.5037 73.1384 58.9524 70.0542 57.7335 67.561C55.7944 63.6088 55.0187 60.5986 53.8737 56.037C52.4886 50.6258 52.6179 48.9821 52.858 47.8002C53.4305 44.8268 55.0926 42.6845 56.2745 41.4287Z" fill="#6C6D6D"/>
<path opacity="0.2" d="M53.4121 52.5283C55.1665 58.6228 57.3273 63.3875 59.0264 66.6564C63.2001 74.7269 66.1181 76.7584 67.1338 77.4233C70.6058 79.6764 74.0224 80.1196 75.4629 80.2858C84.3091 81.2461 90.9946 76.4445 91.2716 76.9985C91.4932 77.4417 87.4487 80.8214 81.8529 82.0403C80.1908 82.4096 75.2229 83.4254 69.8302 81.0245C65.8411 79.2516 63.6249 76.4999 61.9258 74.376C59.4881 71.3473 58.343 68.6325 57.0503 65.456C55.7945 62.4641 54.2985 58.0872 53.4121 52.5283Z" fill="#6C6D6D"/>
<path opacity="0.12" d="M105.806 78.3464C104.513 78.7527 102.906 79.1035 101.004 79.1959C96.4608 79.399 92.9334 77.8847 91.0866 76.9243C91.7699 77.5707 94.891 80.3778 99.5819 80.2855C102.611 80.2301 104.827 78.9927 105.806 78.3464Z" fill="#6C6D6D"/>
<path d="M92.564 9.33094C93.1734 10.3651 93.3212 12.2858 93.6167 16.1272C93.9306 20.2825 93.709 22.1662 93.8568 25.2504C93.9676 27.6697 94.3 31.1232 95.2788 35.3155C93.6167 38.4735 91.6221 39.674 90.5325 40.1726C85.029 42.7212 78.1405 38.6951 73.5788 36.0173C71.3442 34.706 69.6451 33.4317 68.5925 32.5822C69.0357 31.6958 69.6451 30.3661 70.1253 28.667C70.9194 25.9337 70.8456 24.2901 71.0672 21.2059C71.6028 13.911 71.6212 12.2858 72.7293 10.0697C73.2833 8.96158 73.7451 8.00124 74.7054 7.0963C79.3039 2.79325 89.5906 4.34456 92.564 9.33094Z" fill="white" stroke="#161616" stroke-width="0.5" stroke-miterlimit="10"/>
<path d="M93.986 21.6125C94.7432 22.6651 96.1653 24.9367 96.627 28.1871C96.8117 29.5537 96.9779 32.1762 95.8883 35.1865C95.4081 36.4977 94.2446 39.508 91.1235 41.6318C89.3506 42.8507 87.5961 43.294 86.5434 43.4971C87.1713 42.8138 87.7808 42.1305 88.4087 41.4472C87.7438 41.8165 86.1556 42.5737 84.0318 42.4814C83.3854 42.4444 81.2985 42.2782 79.3593 40.8008C77.9373 39.7112 77.3463 38.4738 76.3675 36.3315C75.0748 33.5244 74.1698 31.5113 74.2252 28.8704C74.2991 25.4354 75.9428 24.6228 75.3518 21.4093C75.2225 20.6891 74.8162 18.4729 73.4865 18.1405C72.8586 17.9927 72.1753 18.3067 71.8059 18.6945C71.0118 19.5256 71.0856 21.2246 72.2676 22.6097C71.6951 22.4805 70.3839 22.0557 69.4605 20.8368C68.0569 18.9531 68.4078 16.2383 69.7375 14.6869C70.0699 14.2991 70.6794 13.5789 71.6028 13.4681C72.8401 13.3203 73.8743 14.3915 75.7027 16.5522C79.5256 21.0769 79.4702 21.871 81.3908 23.2746C83.6993 24.9552 85.7862 25.2691 86.3957 25.3615C87.4299 25.4908 88.9812 25.6754 90.6803 24.8998C92.7117 23.9394 93.6721 22.2404 93.986 21.6125Z" fill="#161616"/>
<path d="M88.3532 16.4042C88.8334 18.805 89.1104 21.2797 89.0919 23.736C89.0919 24.2716 89.0919 25.0842 88.427 25.2504C87.7253 25.4166 86.6911 24.5486 86.174 24.1977C85.8785 23.9945 86.1555 23.5144 86.451 23.7175C86.9127 24.0315 88.4455 25.158 88.5379 24.0869C88.5933 23.2928 88.5194 22.4432 88.4825 21.6491C88.3901 19.9316 88.15 18.2325 87.8176 16.5519C87.7437 16.2195 88.2793 16.0718 88.3532 16.4042Z" fill="#161616"/>
<path d="M91.2163 18.4729C91.4933 18.0297 91.5118 17.4941 91.2347 17.0509C91.4009 17.0324 91.5672 17.0139 91.7334 16.977C91.5302 17.4941 91.4379 18.0482 91.5118 18.6022C91.3825 18.5468 91.2347 18.4914 91.1055 18.436C91.1609 18.399 91.2163 18.3806 91.2717 18.3436C91.5856 18.1774 91.8626 18.6576 91.5487 18.8238C91.4933 18.8607 91.4379 18.8792 91.3825 18.9162C91.2347 18.99 90.9947 18.9346 90.9762 18.7499C90.8838 18.0851 90.9392 17.4387 91.1978 16.8293C91.2901 16.6076 91.5672 16.5522 91.6964 16.7554C92.0658 17.3648 92.0658 18.122 91.678 18.7315C91.5118 19.0639 91.0316 18.7869 91.2163 18.4729Z" fill="#161616"/>
<path d="M83.2746 18.3064C83.3854 18.1032 83.4592 17.9001 83.4592 17.66C83.4592 17.5492 83.4408 17.4568 83.4223 17.346C83.4038 17.2906 83.3854 17.2352 83.3669 17.1798C83.293 17.069 83.3484 17.0505 83.5331 17.1059C83.5516 17.1244 83.4038 17.6969 83.4038 17.7523C83.3854 18.0109 83.4223 18.2694 83.4777 18.528C83.33 18.491 83.1638 18.4541 83.016 18.3987C83.1453 18.2879 83.2192 18.1771 83.2192 17.9924C83.2376 17.6415 83.7917 17.6415 83.7732 17.9924C83.7547 18.3064 83.6439 18.5834 83.4038 18.7865C83.2561 18.9158 82.9975 18.8789 82.9421 18.6573C82.8498 18.214 82.8313 17.7523 82.9052 17.3091C82.9606 17.0136 83.0714 16.5334 83.4592 16.5704C83.8286 16.6073 83.9394 17.1059 83.9764 17.4014C84.0318 17.8077 83.9394 18.1956 83.7363 18.5649C83.5701 18.8973 83.0899 18.6203 83.2746 18.3064Z" fill="#161616"/>
<path d="M83.7731 17.3096C83.7362 17.642 83.7177 17.9744 83.6808 18.3068C83.6439 18.6577 83.0898 18.6577 83.1268 18.3068C83.1637 17.9744 83.1822 17.642 83.2191 17.3096C83.256 16.9587 83.8101 16.9587 83.7731 17.3096Z" fill="#161616"/>
<path d="M83.81 18.0663C83.8654 18.3064 83.8839 18.5834 83.6992 18.7496C83.5145 18.9158 83.219 18.9528 83.0528 18.7496C82.9605 18.6388 82.942 18.4726 83.0528 18.3618C83.1452 18.2694 83.3483 18.251 83.4407 18.3618C83.4776 18.4172 83.4037 18.3433 83.3668 18.3248C83.3483 18.3248 83.3114 18.3248 83.3299 18.3248C83.3483 18.3248 83.2929 18.3433 83.3299 18.3248C83.3114 18.3433 83.3114 18.3618 83.2929 18.3802C83.2744 18.3987 83.2929 18.3433 83.2929 18.3618C83.2929 18.3802 83.2929 18.3248 83.2929 18.3064C83.2929 18.3433 83.2929 18.2879 83.2929 18.2879C83.2929 18.251 83.2745 18.2325 83.2745 18.1956C83.2375 18.0478 83.3114 17.8816 83.4591 17.8631C83.6069 17.8447 83.7731 17.9185 83.81 18.0663Z" fill="#161616"/>
<path d="M91.8255 16.8842C91.9732 17.4382 91.9732 18.0292 91.7701 18.5832C91.6593 18.9156 91.1237 18.7679 91.2345 18.4355C91.4007 17.9738 91.4192 17.5121 91.2899 17.0319C91.1975 16.6995 91.7331 16.5517 91.8255 16.8842Z" fill="#161616"/>
<path d="M91.3269 17.8447C91.3823 17.6231 91.3638 17.383 91.3084 17.1614C91.4931 17.106 91.6593 17.069 91.844 17.0136C91.9178 17.3645 91.9179 17.6969 91.8625 18.0478C91.844 18.1956 91.6593 18.2695 91.53 18.2325C91.3823 18.1956 91.3084 18.0478 91.3453 17.9001C91.3823 17.66 91.3823 17.4015 91.3269 17.1614C91.253 16.8105 91.7701 16.6627 91.8625 17.0136C91.9363 17.3461 91.9363 17.66 91.8809 17.9924C91.7886 18.3433 91.2715 18.1956 91.3269 17.8447Z" fill="#161616"/>
<path d="M92.5273 15.8316C92.2318 14.9636 91.1791 14.7973 90.5881 15.4807C90.4034 15.6838 90.1264 15.3883 90.2926 15.1852C91.1052 14.2618 92.5273 14.5757 92.9151 15.7207C93.0259 15.9793 92.6196 16.0901 92.5273 15.8316Z" fill="#161616"/>
<path d="M84.6968 15.8316C84.032 14.7605 82.4622 15.4623 82.0744 16.3857C81.982 16.6257 81.5757 16.5149 81.6681 16.2748C82.1852 15.0005 84.1797 14.2434 85.0477 15.61C85.1955 15.8501 84.8261 16.0532 84.6968 15.8316Z" fill="#161616"/>
<path d="M100.099 10.5132C89.9417 11.8614 79.8028 13.1911 69.6453 14.5392C68.5927 14.687 68.5927 13.0064 69.6453 12.8771C79.8028 11.529 89.9417 10.1993 100.099 8.85108C101.152 8.70334 101.152 10.3655 100.099 10.5132Z" fill="#161616"/>
<path d="M93.0073 9.81115C92.7672 8.59226 92.1947 6.59771 90.7542 4.56622C90.1817 3.75363 89.1844 2.33159 87.4669 1.31584C84.2165 -0.623302 79.2301 -0.438624 75.6289 1.99916C72.1015 4.38154 70.3655 8.59226 71.1596 12.7845C78.436 11.7872 85.7309 10.8084 93.0073 9.81115Z" fill="#848484"/>
<path d="M83.0532 0.151866C80.2091 0.724376 78.0853 3.03289 77.8268 5.74769C77.6051 7.98233 78.6948 10.217 80.6339 11.5467C77.4389 11.953 74.2624 12.3777 71.0674 12.784C70.9012 12.0084 70.735 10.8449 70.9382 9.47824C71.3814 6.3756 73.2467 4.41799 74.0778 3.56846C74.7241 2.92207 77.088 0.576631 80.8001 0.151866C81.7051 0.0410575 82.4992 0.0964617 83.0532 0.151866Z" fill="#686868"/>
<path opacity="0.24" d="M81.1878 13.0249C80.8923 14.0591 80.5968 15.4442 80.6153 17.0879C80.6522 20.2828 81.7788 22.7206 82.499 23.9765C81.8896 23.681 81.0216 23.1823 80.1905 22.3513C79.5995 21.7603 79.3779 21.3355 78.75 20.4121C78.75 20.4121 77.6973 18.8608 76.1275 16.9771C75.5181 16.2383 74.6132 15.2041 73.3573 14.0406C75.9798 13.6898 78.5838 13.3573 81.1878 13.0249Z" fill="#6C6D6D"/>
<path opacity="0.22" d="M73.6897 18.1032C74.1698 18.2879 74.4469 18.6572 74.6315 18.9158C74.8531 19.2298 75.0932 19.673 75.2594 20.8549C75.4072 21.8707 75.5549 22.7941 75.3518 23.976C75.204 24.8625 75.0194 24.881 74.7239 25.9706C74.5946 26.4323 74.1883 27.9467 74.2806 29.7196C74.336 31.0678 74.65 32.0097 75.0932 33.3394C75.4995 34.5398 76.1644 36.1834 77.2725 38.0487C75.241 36.9037 73.1726 35.6479 71.0857 34.2997C70.2177 33.7457 69.3866 33.1916 68.5555 32.6191C69.0172 31.825 69.4789 30.9016 69.8668 29.8674C71.0118 26.8386 71.178 24.0684 71.0857 22.1292C71.4366 22.277 71.7874 22.4247 72.1199 22.5725C71.0303 20.855 71.0857 19.082 71.8982 18.4172C72.2676 18.0847 73.0248 17.8447 73.6897 18.1032Z" fill="#6C6D6D"/>
<path opacity="0.21" d="M71.5105 19.1011C71.6768 19.7844 71.9168 20.5785 72.3231 21.4465C72.6186 22.0744 72.9326 22.61 73.2281 23.0717C72.674 23.6627 71.7691 24.8262 71.3813 26.5068C70.9565 28.3166 71.3443 29.7756 71.7876 31.3823C72.1015 32.5643 72.7294 34.3188 73.9668 36.221C72.2308 35.039 70.4948 33.8755 68.7588 32.6936C69.4237 31.2161 70.1254 29.277 70.5687 26.9131C70.9011 25.1032 70.9934 23.4595 70.975 22.1114C71.4182 22.2776 71.843 22.4438 72.2862 22.61C72.0831 22.4069 71.5844 21.8528 71.3813 20.9848C71.1781 20.0984 71.4182 19.3596 71.5105 19.1011Z" fill="#6C6D6D"/>
<path opacity="0.19" d="M81.3169 12.9507C79.1192 13.7263 76.903 14.502 74.7053 15.2777C74.2067 14.8714 73.7081 14.4466 73.1909 14.0403C75.9058 13.6709 78.6021 13.3016 81.3169 12.9507Z" fill="#6C6D6D"/>
</svg>
