<svg width="157" height="155" viewBox="0 0 157 155" fill="none" xmlns="http://www.w3.org/2000/svg">
<path d="M98.3047 142.13C98.4608 143.085 98.6168 144.04 98.7729 144.98C96.9995 146.947 95.3821 148.215 94.2045 149.027C92.8851 149.939 91.0265 151.036 89.4091 153.316C89.1963 153.616 89.0402 153.858 88.9409 154.029C90.5157 153.573 92.1047 153.117 93.6796 152.661C97.1981 151.635 100.717 150.609 104.221 149.569C103.653 145.992 103.072 142.429 102.504 138.853C101.1 139.95 99.7093 141.033 98.3047 142.13Z" fill="black"/>
<path d="M89.8916 95.0619C89.92 95.9596 89.9767 97.2564 90.0902 98.8239C90.2463 101.204 90.6719 106.647 92.871 118.09C94.4316 126.198 96.049 133.038 97.6663 139.864C97.9075 140.876 98.1061 141.702 98.248 142.272C99.7803 141.987 101.312 141.688 102.845 141.403C102.632 139.864 102.334 137.555 101.979 134.762C100.617 123.918 99.7661 117.021 99.383 108.842C99.2269 105.436 99.1134 100.619 99.2837 94.7769C96.1483 94.8624 93.0128 94.9621 89.8916 95.0619Z" fill="white"/>
<path opacity="0.11" d="M95.0278 96.5435C95.1697 97.5695 95.3825 99.1227 95.6379 100.989C96.6168 108.029 97.383 113.216 97.539 114.327C98.2059 118.83 99.2841 126.753 101.128 141.687C101.682 141.63 102.249 141.588 102.803 141.531C102.561 139.977 102.207 137.569 101.809 134.634C100.873 127.651 99.6388 118.36 99.2132 106.732C99.128 104.409 99.0429 101.061 99.0571 96.9995C97.7235 96.857 96.3757 96.7002 95.0278 96.5435Z" fill="#606060"/>
<path d="M89.6366 95.29C90.6155 108.4 93.1976 121.31 96.1345 134.107C96.9715 137.769 97.837 141.417 98.7166 145.079C98.7733 145.35 99.1848 145.236 99.128 144.966C96.1061 132.255 93.07 119.515 91.2823 106.562C90.7574 102.814 90.3601 99.0662 90.0764 95.29C90.048 95.0192 89.6224 95.0192 89.6366 95.29Z" fill="#161616"/>
<path d="M98.9005 97.3701C98.8863 111.007 99.9504 124.645 102.079 138.111C102.689 141.958 103.384 145.777 104.164 149.596C104.221 149.867 104.632 149.753 104.576 149.482C101.852 136.116 100.177 122.536 99.5815 108.898C99.4113 105.051 99.3404 101.218 99.3404 97.3701C99.3262 97.0993 98.9005 97.0993 98.9005 97.3701Z" fill="#161616"/>
<path d="M98.8015 144.894C96.9571 146.448 95.1269 148.015 93.2825 149.568C91.7219 150.894 89.9769 152.162 88.8844 153.943C88.7851 154.1 88.9412 154.314 89.1256 154.257C94.2473 152.76 99.369 151.278 104.491 149.782C104.76 149.711 104.647 149.298 104.377 149.369C99.2555 150.865 94.1338 152.347 89.0121 153.843C89.0972 153.943 89.1682 154.057 89.2533 154.157C90.3599 152.333 92.1901 151.036 93.7933 149.682C95.5667 148.186 97.326 146.69 99.0994 145.194C99.3122 145.023 99.0001 144.723 98.8015 144.894Z" fill="#161616"/>
<path d="M113.656 139.807C114.294 141.816 114.918 143.811 115.557 145.821C114.081 146.861 112.79 147.787 111.712 148.585C109.385 150.281 108.477 150.993 107.427 152.019C106.704 152.732 106.151 153.359 105.782 153.801C107.2 153.573 110.393 153.045 113.67 152.333C116.38 151.734 115.883 151.72 117.032 151.535C117.784 151.421 118.692 151.321 119.785 150.794C120.21 150.594 120.537 150.395 120.764 150.238C120.707 149.697 120.65 149.141 120.579 148.585C120.196 145.607 119.558 142.871 118.806 140.42C117.075 140.206 115.372 140.007 113.656 139.807Z" fill="black"/>
<path d="M102.349 96.5012C102.633 98.6102 103.073 101.474 103.711 104.837C104.193 107.374 105.3 112.874 107.343 120.028C108.946 125.642 109.457 126.398 112.465 136.13C113.458 139.337 114.238 141.959 114.735 143.669C116.21 143.255 117.686 142.828 119.161 142.415C118.863 140.819 118.424 138.439 117.913 135.56C116.154 125.628 114.536 116.565 113.373 105.764C112.961 101.987 112.465 96.715 112.124 90.3452C108.861 92.383 105.598 94.435 102.349 96.5012Z" fill="white"/>
<path d="M102.221 97.1282C103.952 110.081 107.825 122.607 111.811 135.005C112.975 138.596 114.138 142.187 115.302 145.778C115.387 146.034 115.798 145.92 115.713 145.664C111.67 133.181 107.357 120.712 104.547 107.873C103.767 104.282 103.115 100.662 102.618 97.0142C102.59 96.7434 102.192 96.8574 102.221 97.1282Z" fill="#161616"/>
<path d="M111.968 92.6676C113.046 107.63 115.032 122.521 117.912 137.256C118.735 141.431 119.615 145.592 120.579 149.739C120.636 150.01 121.048 149.896 120.991 149.625C117.614 135.047 115.117 120.27 113.528 105.393C113.074 101.161 112.705 96.9283 112.393 92.6818C112.379 92.3826 111.953 92.3826 111.968 92.6676Z" fill="#161616"/>
<path d="M115.316 145.864C111.826 148.158 108.307 150.495 105.484 153.616C105.342 153.772 105.484 154.015 105.697 153.972C109.045 153.302 112.393 152.618 115.727 151.948C116.55 151.777 117.373 151.621 118.196 151.45C118.834 151.321 119.544 151.25 120.154 150.965C120.906 150.609 121.374 149.697 120.75 148.999C120.565 148.785 120.267 149.098 120.452 149.298C121.601 150.623 117.983 151.065 117.401 151.179C116.068 151.45 114.748 151.72 113.415 151.991C110.804 152.518 108.194 153.046 105.583 153.573C105.654 153.687 105.725 153.815 105.796 153.929C108.605 150.837 112.081 148.514 115.543 146.234C115.756 146.077 115.543 145.707 115.316 145.864Z" fill="#161616"/>
<path opacity="0.1" d="M109.357 98.5248C109.541 99.7788 110.038 103.213 110.222 104.496C112.989 123.648 113.741 129.205 115.685 137.057C116.068 138.596 116.607 140.676 117.316 143.127C117.955 142.928 118.593 142.743 119.231 142.543C118.976 141.147 118.621 139.066 118.182 136.572C116.238 125.514 115.259 120 114.734 116.537C113.982 111.678 113.088 104.809 112.535 96.3018C111.471 97.0428 110.407 97.7838 109.357 98.5248Z" fill="#606060"/>
<path d="M91.4527 70.8652C90.7008 73.1452 90.0056 75.6675 89.4665 78.4177C87.9768 85.899 88.0335 92.5537 88.5726 97.755C89.7502 98.2822 91.4385 98.952 93.5241 99.5077C95.8792 100.12 100.022 101.175 105.158 100.32C107.101 99.9922 110.18 99.237 113.585 97.2277C113.486 93.5085 113.117 89.1907 112.252 84.417C111.301 79.2157 109.953 74.7127 108.605 70.9792C102.888 70.9507 97.1702 70.908 91.4527 70.8652Z" fill="#7F7F7F"/>
<path opacity="0.11" d="M104.959 71.3212C105.428 72.5752 105.853 73.8862 106.236 75.2685C108.847 84.7447 108.152 93.48 106.761 100.092C107.981 99.7785 109.386 99.3082 110.904 98.5957C111.855 98.154 112.706 97.6695 113.444 97.2135C113.472 95.2042 113.415 93.0667 113.231 90.8295C112.578 82.9207 110.578 76.2232 108.464 71.022C107.3 71.1075 106.137 71.2215 104.959 71.3212Z" fill="#606060"/>
<path d="M94.2046 40.2847C93.8357 40.5554 93.3391 40.9402 92.8 41.4532C91.0691 43.0919 90.1753 44.7307 89.9341 45.1867C89.1964 46.6117 88.9126 47.8229 88.4728 49.7752C87.962 51.9982 88.0472 52.7677 87.2527 53.8079C86.4865 54.8197 85.5076 55.3041 85.0536 55.5179C83.72 56.1734 82.5282 56.1876 81.8189 56.1876C80.2299 56.2019 78.953 55.7601 78.1585 55.3897C78.0024 55.5892 77.8322 55.8029 77.6761 56.0024C77.2221 55.7744 76.5269 55.4324 75.6615 55.0904C73.959 54.4064 73.0935 54.0644 72.072 54.1784C71.8592 54.2069 70.0432 54.4207 69.6318 55.5891C69.4899 56.0024 69.5041 56.6009 69.8162 56.8716C70.1851 57.1851 70.8945 57.0141 71.5187 56.8716C72.0437 56.7576 72.299 56.6151 72.6112 56.7434C72.8382 56.8431 72.98 57.0426 73.0935 57.2991C73.5334 58.2111 73.2496 58.9236 73.3915 60.4199C73.4624 61.2321 73.5192 61.6596 73.8171 61.8876C73.9164 61.9731 74.2711 62.2011 75.8317 61.7594C76.3992 61.6026 77.2079 61.3319 78.1443 60.8474C78.0875 61.2321 78.0166 61.6169 77.9599 62.0159C78.9246 62.2581 80.3292 62.5431 82.0459 62.6856C84.557 62.8994 86.2737 63.0419 88.3167 62.3151C90.5867 61.5029 92.0622 60.0636 92.7574 59.2514C94.1336 57.6696 94.6727 56.1021 94.9565 55.2756C96.9569 49.5044 94.5734 41.5102 94.2046 40.2847Z" fill="white"/>
<path opacity="0.1" d="M94.8715 42.2939C94.758 43.2629 94.5593 44.6879 94.2614 46.3979C93.6088 50.0459 93.2966 51.8699 92.3745 53.7367C91.8495 54.7912 90.7003 57.1424 88.2885 58.6957C84.1315 61.3747 79.1943 59.7929 78.3004 59.4937C76.8391 60.2347 75.3778 60.9614 73.9165 61.7024C74.2996 61.7737 74.7678 61.8164 75.3211 61.7594C76.5838 61.6454 77.5201 61.1182 78.0025 60.7762C78.0025 61.2179 78.0025 61.6739 78.0025 62.1157C78.9673 62.3437 80.3718 62.6145 82.0885 62.7285C84.5146 62.8852 86.3022 62.9992 88.3594 62.2439C91.9346 60.9187 93.6939 57.8977 94.0202 57.2849C95.0133 55.4894 95.1978 53.9362 95.4248 51.7844C95.6518 49.6184 95.7369 46.3267 94.8715 42.2939Z" fill="#606060"/>
<path d="M94.0911 40.0423C91.8778 41.6383 90.147 43.847 89.168 46.412C88.0614 49.3333 88.0756 52.6108 86.444 55.3325C86.3021 55.5748 86.671 55.7885 86.8129 55.5463C88.3026 53.0525 88.4445 50.117 89.2815 47.3953C90.147 44.588 91.9204 42.137 94.3039 40.4128C94.5309 40.256 94.3181 39.8855 94.0911 40.0423Z" fill="#161616"/>
<path d="M77.9885 55.4608C78.102 57.5271 78.0453 59.5933 77.8183 61.6453C77.7899 61.9161 78.2155 61.9161 78.2439 61.6453C78.4851 59.5933 78.5419 57.5271 78.4142 55.4608C78.4 55.1758 77.9743 55.1758 77.9885 55.4608Z" fill="#161616"/>
<path d="M78.0166 55.6603C80.0596 56.3158 82.3438 56.7718 84.4436 56.0736C86.0326 55.5463 87.3946 54.4206 87.9763 52.8103C88.0756 52.5538 87.6641 52.4398 87.5648 52.6963C86.9831 54.2923 85.536 55.3611 83.9328 55.7743C82.0033 56.2731 79.9887 55.8456 78.1443 55.2471C77.8748 55.1616 77.7613 55.5748 78.0166 55.6603Z" fill="#161616"/>
<path d="M77.974 62.101C81.2513 62.9703 85.1529 63.4833 88.4728 62.5C91.4805 61.6023 93.3959 59.0231 94.8288 56.3726C94.9565 56.1303 94.5876 55.9166 94.4599 56.1588C93.027 58.7951 91.14 61.3458 88.1181 62.158C84.9259 63.013 81.2372 62.5285 78.0875 61.702C77.8322 61.6165 77.7186 62.0298 77.974 62.101Z" fill="#161616"/>
<path d="M77.9317 55.6748C77.0663 55.6891 76.2008 55.0906 75.4205 54.7343C74.8247 54.4636 74.2004 54.207 73.562 54.0645C72.427 53.808 71.2068 53.8935 70.2705 54.6488C69.6888 55.1191 68.9652 56.2021 69.5753 56.9146C69.859 57.2281 70.313 57.3706 70.7245 57.3848C71.2494 57.3991 72.6398 56.5441 72.8952 57.1996C72.9945 57.4561 73.4059 57.3421 73.3066 57.0856C73.0512 56.4158 72.3986 56.4158 71.8027 56.6438C71.221 56.8576 69.7313 57.4133 69.8023 56.0881C69.8307 55.5181 70.4975 54.9623 70.9515 54.7058C72.2142 54.0218 73.7464 54.4635 74.9665 55.0051C75.8887 55.4183 76.896 56.1308 77.9317 56.1166C78.2155 56.1023 78.2155 55.6748 77.9317 55.6748Z" fill="#161616"/>
<path d="M73.9876 62.0014C75.3922 62.2864 76.7968 61.9871 77.946 61.1178C78.1588 60.9611 77.946 60.5906 77.7332 60.7473C76.6691 61.5453 75.4064 61.8446 74.1011 61.5881C73.8316 61.5311 73.7181 61.9444 73.9876 62.0014Z" fill="#161616"/>
<path d="M99.6394 37.5062C98.9016 37.5062 98.178 37.5062 97.4403 37.5062C97.4403 37.948 97.4403 38.3897 97.4403 38.8315C96.9012 38.917 96.1492 39.088 95.3122 39.487C94.6454 39.8147 94.1346 40.1995 93.7799 40.513C93.2834 43.192 92.7726 45.3437 92.3895 46.84C91.822 49.0202 91.5099 49.9322 91.439 51.6137C91.3822 52.882 91.5383 53.0387 91.5809 55.504C91.595 56.5727 91.6234 57.898 91.5099 59.4797C91.4248 60.6197 91.3113 61.4605 90.9282 63.8117C90.2472 67.9728 90.1479 68.215 89.9777 69.3978C89.7365 71.0793 89.5379 73.5018 89.7649 76.537C90.1054 76.765 90.6587 77.1213 91.3822 77.4918C92.7017 78.19 93.3685 78.3468 94.4609 78.8883C95.0568 79.1875 95.908 79.672 96.8728 80.4273C97.1707 78.2185 97.4545 76.0098 97.7524 73.8153C98.1497 76.1665 98.5327 78.5178 98.93 80.869C99.5826 80.926 100.547 80.9545 101.711 80.869C103.229 80.755 106.109 80.4843 108.734 78.589C110.096 77.6058 110.706 76.6795 110.862 76.4515C111.528 75.4255 111.784 74.428 111.883 73.801C111.656 72.5043 111.387 70.6945 111.145 68.5C110.862 65.764 110.734 63.2703 110.706 59.1663C110.677 55.789 110.706 51.3857 110.918 46.156C111.387 44.6312 111.841 43.1207 112.309 41.596C111.372 40.9832 110.252 40.342 108.946 39.7577C107.244 38.9882 105.655 38.518 104.335 38.2187C104.364 37.6772 104.378 37.1357 104.406 36.5942C103.924 36.9505 102.803 37.663 101.257 37.6915C100.604 37.7342 100.065 37.6345 99.6394 37.5062Z" fill="white"/>
<path opacity="0.09" d="M110.847 48.4644C110.521 49.5189 110.038 51.2146 109.528 53.3236C107.655 61.1184 107.967 64.6239 106.747 69.4974C106.052 72.2476 104.675 76.2661 101.554 80.8974C103.47 80.7121 104.959 80.2419 105.952 79.8714C107.669 79.2159 109.386 78.5604 110.634 76.8504C111.514 75.6676 111.826 74.4421 111.954 73.6869C111.528 71.2359 111.173 68.6424 110.932 65.8921C110.322 59.4369 110.421 53.5801 110.847 48.4644Z" fill="#606060"/>
<path opacity="0.12" d="M101.029 38.1612C100.873 38.2182 101.072 38.774 100.817 39.629C100.66 40.1135 100.419 40.484 100.235 40.7262C101.072 41.0682 101.895 41.0397 102.207 40.655C102.803 39.9282 101.356 38.0472 101.029 38.1612Z" fill="#606060"/>
<path opacity="0.12" d="M97.369 73.5303C97.0852 74.3853 96.8157 75.3258 96.5603 76.3233C96.2624 77.5203 96.0496 78.6603 95.9077 79.7005C96.3049 79.9143 96.688 80.1423 97.0852 80.356C97.1845 78.0903 97.2838 75.8103 97.369 73.5303Z" fill="#606060"/>
<path d="M99.4689 37.335C98.7737 37.335 98.0927 37.3777 97.3975 37.4632C97.2982 37.4775 97.1705 37.5487 97.1847 37.677C97.2556 38.3182 97.3266 38.9595 97.3975 39.615C97.4259 39.8857 97.8515 39.8857 97.8231 39.615C97.7522 38.9737 97.6812 38.3325 97.6103 37.677C97.5394 37.7482 97.4684 37.8195 97.3975 37.8907C98.0785 37.8052 98.7737 37.7482 99.4689 37.7625C99.7526 37.7625 99.7526 37.335 99.4689 37.335Z" fill="#161616"/>
<path d="M97.4254 37.9191C97.9645 38.3893 98.2908 39.0021 98.4043 39.7146C98.4469 39.9853 98.8583 39.8713 98.8157 39.6006C98.688 38.8311 98.305 38.1328 97.7233 37.6198C97.5247 37.4346 97.2267 37.7338 97.4254 37.9191Z" fill="#161616"/>
<path d="M93.9354 40.6836C95.0136 39.8713 96.2054 39.2728 97.5107 38.9166C97.7802 38.8453 97.6667 38.4321 97.3972 38.5033C96.0635 38.8738 94.8292 39.4866 93.7225 40.3131C93.4955 40.4841 93.7083 40.8546 93.9354 40.6836Z" fill="#161616"/>
<path d="M105.172 38.3751C107.697 39.0733 110.038 40.2276 112.124 41.8236C112.336 41.9946 112.549 41.6241 112.336 41.4531C110.223 39.8428 107.839 38.6743 105.285 37.9618C105.016 37.8906 104.902 38.3038 105.172 38.3751Z" fill="#161616"/>
<path d="M92.8147 45.443C89.9772 51.5705 92.0486 58.382 91.7223 64.8372C91.7081 65.108 92.1337 65.108 92.1479 64.8372C92.46 58.4817 90.3886 51.6987 93.1836 45.6567C93.2971 45.4145 92.9282 45.2007 92.8147 45.443Z" fill="#161616"/>
<path d="M91.41 57.755C91.5377 60.9755 90.6155 64.082 90.0764 67.2313C89.5656 70.295 89.4521 73.4016 89.5656 76.5081C89.5798 76.7788 90.0054 76.7788 89.9912 76.5081C89.8777 73.2591 89.9912 70.01 90.5729 66.818C91.1262 63.8113 91.9491 60.8473 91.8214 57.7693C91.8214 57.4843 91.3958 57.4843 91.41 57.755Z" fill="#161616"/>
<path d="M89.6931 76.6933C90.7714 77.4058 91.9206 78.0186 93.1123 78.5173C94.4743 79.0731 95.6093 79.6858 96.7869 80.5836C96.9997 80.7546 97.2125 80.3841 96.9997 80.2131C95.964 79.4151 94.9283 78.7881 93.7082 78.3036C92.3746 77.7763 91.0977 77.1208 89.8918 76.3371C89.679 76.1661 89.4661 76.5366 89.6931 76.6933Z" fill="#161616"/>
<path d="M97.2268 80.3983C97.4538 78.0186 97.6666 75.6389 97.8936 73.2734C97.922 73.0026 97.4964 73.0026 97.468 73.2734C97.241 75.6531 97.0282 78.0329 96.8012 80.3983C96.7728 80.6691 97.1984 80.6691 97.2268 80.3983Z" fill="#161616"/>
<path d="M97.5106 73.3735C97.7376 75.9242 98.1349 78.4465 98.674 80.9545C98.7307 81.2252 99.1422 81.1112 99.0854 80.8405C98.5463 78.3752 98.1633 75.8815 97.9363 73.3735C97.9079 73.1027 97.4823 73.0885 97.5106 73.3735Z" fill="#161616"/>
<path d="M99.0005 81.2103C101.54 81.31 104.065 80.8683 106.421 79.9135C108.308 79.1441 110.478 78.0468 111.23 76.0091C111.329 75.7526 110.918 75.6386 110.819 75.8951C110.053 77.9756 107.541 79.0728 105.612 79.771C103.484 80.5405 101.242 80.8683 99.0005 80.797C98.7309 80.7828 98.7309 81.2103 99.0005 81.2103Z" fill="#161616"/>
<path d="M110.676 48.3076C110.137 56.8576 110.435 65.4361 111.542 73.9148C111.584 74.1856 112.01 74.1856 111.967 73.9148C110.847 65.4218 110.549 56.8433 111.102 48.3076C111.116 48.0368 110.691 48.0368 110.676 48.3076Z" fill="#161616"/>
<path d="M111.585 73.5865C111.414 74.755 111.017 75.838 110.379 76.8355C110.237 77.0635 110.606 77.2772 110.747 77.0492C111.4 76.0232 111.826 74.9117 111.996 73.7005C112.039 73.4297 111.627 73.3157 111.585 73.5865Z" fill="#161616"/>
<path d="M98.5463 40.3132C98.901 40.7407 99.426 40.983 99.9793 40.9972C100.249 40.9972 100.249 40.5697 99.9793 40.5697C99.5253 40.5555 99.128 40.356 98.8443 40.014C98.6598 39.8002 98.3619 40.0995 98.5463 40.3132Z" fill="#161616"/>
<path d="M99.8089 41.7097C97.0707 51.0434 99.3407 60.8617 97.9503 70.3664C97.9078 70.6372 98.3192 70.7512 98.3618 70.4804C99.7522 60.9757 97.4963 51.1574 100.22 41.8237C100.305 41.5529 99.894 41.4532 99.8089 41.7097Z" fill="#161616"/>
<path d="M98.745 43.0068C98.7308 42.9925 98.7308 42.9925 98.745 43.0068C98.7308 43.0068 98.7308 43.0068 98.7591 43.021C98.745 43.0068 98.745 43.0068 98.7591 43.0353C98.7591 43.021 98.7591 43.0068 98.745 43.0068C98.7591 43.0353 98.7733 43.0353 98.745 43.0068C98.7591 42.9925 98.7591 42.9925 98.7591 43.021C98.7591 43.0068 98.7591 43.0068 98.745 43.0068C98.7591 43.021 98.7591 43.0353 98.745 43.0068C98.7591 42.9783 98.7591 42.9925 98.745 43.0068C98.7591 42.9925 98.7591 43.0068 98.745 43.021C98.7591 43.0068 98.7591 43.0068 98.7308 43.021C98.745 43.0068 98.745 43.0068 98.7166 43.021C98.7024 43.021 98.6882 43.021 98.6598 43.021C98.6882 43.021 98.674 43.021 98.6598 43.021C98.674 43.0353 98.674 43.0353 98.6598 43.021C98.674 43.0353 98.674 43.0353 98.6882 43.0495C98.674 43.021 98.674 43.021 98.6882 43.0495C98.674 43.021 98.674 43.021 98.6882 43.0495C98.6882 43.078 98.6882 43.0638 98.6882 43.0353C98.6882 43.0638 98.6882 43.0495 98.6882 43.021C98.6882 43.0068 98.7024 42.9925 98.7166 42.9783C98.7024 42.9925 98.7024 42.9925 98.7166 42.9783C98.7308 42.964 98.745 42.964 98.7733 42.964C98.745 42.964 98.7591 42.964 98.7875 42.964C98.7591 42.9498 98.7733 42.964 98.8017 42.964C98.7875 42.964 98.7875 42.9498 98.7733 42.9498C98.8017 42.964 98.8017 42.964 98.7875 42.9498C98.8017 42.9783 98.8017 42.9783 98.7875 42.964C98.7733 42.9498 98.7733 42.9498 98.7875 42.9783C98.7875 42.9498 98.7875 42.964 98.7875 42.9925C98.7875 43.021 98.7733 43.0353 98.7875 43.0068C98.7733 43.0353 98.7733 43.0353 98.7875 43.021C98.8585 42.9213 98.8017 42.7788 98.7166 42.7218C98.6031 42.6648 98.4896 42.7075 98.4186 42.793C98.2484 43.0353 98.4754 43.3631 98.745 43.3773C98.8726 43.3916 99.0003 43.3203 99.0713 43.2063C99.1422 43.0781 99.128 42.9213 99.0571 42.8073C98.9152 42.565 98.5463 42.5365 98.4045 42.793C98.2768 43.021 98.3903 43.3488 98.6598 43.4058C98.7733 43.4343 98.8868 43.3631 98.9152 43.2633C98.9294 43.1636 98.8585 43.0353 98.745 43.0068Z" fill="#161616"/>
<path d="M98.163 47.6516C98.163 47.5661 98.1488 47.4806 98.1488 47.3951C98.0921 47.4663 98.0495 47.5376 97.9928 47.5946C98.0211 47.5946 98.0211 47.5803 98.007 47.5946C97.9928 47.5946 97.9928 47.5946 98.0211 47.5946C97.9786 47.5803 98.0495 47.5946 98.007 47.5946C98.007 47.5946 98.0211 47.5946 98.0211 47.6088C98.007 47.5946 98.007 47.5946 98.0211 47.6088V47.6231C98.007 47.6088 98.0211 47.6088 98.0211 47.5946C98.0211 47.6231 98.007 47.6231 98.0211 47.5946C98.007 47.6088 98.007 47.6088 97.9928 47.6231C98.007 47.6231 98.0353 47.6231 97.9928 47.6088C98.0495 47.6231 98.0921 47.6516 98.1488 47.6658C98.1488 47.6658 98.1346 47.6373 98.1346 47.6231C98.1346 47.6088 98.1346 47.5946 98.1346 47.5803C98.2056 47.3096 97.7941 47.1956 97.7232 47.4663C97.6807 47.6373 97.709 47.8511 97.8509 47.9793C98.007 48.1361 98.2907 47.9936 98.39 47.8368C98.6028 47.5091 98.2481 47.0816 97.8935 47.2098C97.8083 47.2383 97.7232 47.3238 97.7374 47.4093C97.7374 47.4948 97.7516 47.5803 97.7516 47.6658C97.7658 47.7798 97.8367 47.8796 97.9644 47.8796C98.0495 47.8653 98.163 47.7656 98.163 47.6516Z" fill="#161616"/>
<path d="M97.8798 51.7697C97.8514 51.727 97.8797 51.784 97.8656 51.7412C97.8656 51.7555 97.8656 51.7555 97.8656 51.727C97.8656 51.7412 97.8656 51.7412 97.8656 51.727C97.8656 51.727 97.8656 51.7127 97.8798 51.7127C97.8656 51.727 97.8798 51.7127 97.8939 51.6985L97.8798 51.7127C97.823 51.6985 97.7663 51.6985 97.7095 51.6842C97.6669 51.6557 97.7237 51.7127 97.6953 51.67C97.7095 51.6842 97.7095 51.6842 97.6953 51.67C97.6953 51.6557 97.6953 51.6557 97.6953 51.6842C97.6953 51.6557 97.6953 51.6557 97.6953 51.67C97.6953 51.6842 97.6953 51.6842 97.6953 51.6985C97.6953 51.6557 97.6953 51.7127 97.6953 51.7127C97.6811 51.7555 97.7095 51.6985 97.6811 51.727C97.6528 51.7555 97.7095 51.7127 97.6669 51.7412C97.6953 51.727 97.6811 51.7412 97.6669 51.7412C97.6386 51.7412 97.7379 51.727 97.6811 51.7412C97.7521 51.8125 97.823 51.8837 97.8939 51.955C97.8939 51.8695 97.8798 51.784 97.8798 51.6985C97.8798 51.5845 97.7804 51.4847 97.6669 51.4847C97.5535 51.4847 97.4541 51.5845 97.4541 51.6985C97.4541 51.784 97.4683 51.8695 97.4683 51.955C97.4683 52.069 97.5676 52.1687 97.6811 52.1687C98.0216 52.1545 98.2486 51.7412 98.0642 51.442C98.0074 51.3565 97.9223 51.271 97.823 51.271C97.7237 51.271 97.6244 51.3422 97.5676 51.4135C97.44 51.556 97.4116 51.784 97.5109 51.955C97.6528 52.2257 98.0216 51.9977 97.8798 51.7697Z" fill="#161616"/>
<path d="M97.7941 55.5176C97.8083 55.5461 97.8225 55.5603 97.8225 55.5888C97.8225 55.5603 97.8225 55.5888 97.8225 55.6031C97.8367 55.5603 97.8083 55.6458 97.8225 55.6031C97.8367 55.5746 97.8083 55.6316 97.8225 55.6031C97.8225 55.5888 97.8651 55.5746 97.8225 55.6031C97.8509 55.5888 97.7941 55.6173 97.8225 55.6031C97.8367 55.6031 97.7799 55.6031 97.7657 55.6031C97.8083 55.6031 97.7374 55.5746 97.7657 55.6031C97.7374 55.5746 97.709 55.5461 97.6948 55.5318C97.7232 55.5888 97.7232 55.6601 97.6948 55.7456C97.7374 55.7028 97.7941 55.6458 97.8367 55.6031C97.8083 55.6173 97.8083 55.6173 97.8367 55.6031C97.8651 55.6031 97.8651 55.6031 97.8367 55.6031H97.8509C97.8651 55.6173 97.8651 55.6173 97.8509 55.6031C97.8651 55.6173 97.8651 55.6173 97.8509 55.6173C97.8367 55.6031 97.8509 55.6031 97.8509 55.6316C97.8509 55.6601 97.8509 55.6601 97.8509 55.6316C97.8509 55.6601 97.8509 55.6601 97.8509 55.6316C97.8934 55.5176 97.8083 55.4036 97.709 55.3751C97.5813 55.3466 97.4962 55.4178 97.4536 55.5176C97.3685 55.7313 97.5388 55.9736 97.7516 56.0163C97.8083 56.0306 97.8792 56.0306 97.936 56.0021C98.0353 55.9736 98.0779 55.9023 98.0921 55.8026C98.1204 55.6743 98.1204 55.5461 98.0779 55.4178C98.0353 55.2896 97.9502 55.1898 97.8083 55.1756C97.6948 55.1613 97.5955 55.2041 97.5104 55.2753C97.3401 55.4178 97.326 55.6458 97.4678 55.8168C97.5388 55.9023 97.6948 55.8881 97.7657 55.8168C97.8792 55.7313 97.8792 55.6031 97.7941 55.5176Z" fill="#161616"/>
<path d="M97.8084 58.8665C97.7942 58.8523 97.7942 58.838 97.8084 58.8665C97.8084 58.8665 97.8084 58.8665 97.7942 58.838C97.7942 58.8665 97.8084 58.8095 97.7942 58.8523C97.7375 58.8808 97.6665 58.9235 97.6098 58.952C97.6665 58.952 97.5814 58.952 97.624 58.952C97.5956 58.9378 97.5956 58.9378 97.6098 58.952C97.624 58.9663 97.624 58.952 97.5956 58.9378C97.624 58.9805 97.5814 58.895 97.6098 58.952C97.624 58.9663 97.624 59.009 97.6098 58.9663C97.6098 58.9805 97.624 59.0233 97.6098 58.9805C97.6098 58.9948 97.6098 59.0518 97.6098 58.9948C97.6098 59.009 97.5814 59.0375 97.6098 59.009C97.6098 58.9948 97.624 58.9948 97.624 58.9805C97.6098 58.9948 97.6098 58.9948 97.624 58.9805C97.6665 58.9663 97.6949 58.9663 97.7375 58.952C97.6949 58.952 97.7658 58.9663 97.7658 58.9663L97.78 58.9805C97.7659 58.9663 97.7658 58.9663 97.7658 58.9663C97.78 58.9948 97.78 59.009 97.7658 59.0375C97.8226 58.9378 97.7942 58.8095 97.6949 58.7383C97.5956 58.6813 97.4537 58.7098 97.397 58.8095C97.3119 58.9805 97.3544 59.18 97.5105 59.2798C97.5956 59.3368 97.7091 59.3652 97.8084 59.3368C97.8935 59.3083 97.9503 59.2228 97.9787 59.1515C98.0922 58.8665 97.9077 58.5103 97.5814 58.5103C97.5105 58.5103 97.4254 58.553 97.397 58.61C97.3119 58.7953 97.326 58.9948 97.4821 59.1373C97.7091 59.3653 98.007 59.0518 97.8084 58.8665Z" fill="#161616"/>
<path d="M97.7235 62.2725C97.7519 62.2867 97.7519 62.2867 97.7661 62.301C97.7661 62.301 97.7661 62.2867 97.7519 62.2867C97.7661 62.301 97.7661 62.3152 97.7519 62.301C97.7519 62.2867 97.7519 62.2867 97.7519 62.301C97.7519 62.3152 97.7519 62.3152 97.7519 62.2867C97.7519 62.3152 97.7519 62.3295 97.7235 62.3437C97.6526 62.358 97.5816 62.3865 97.5107 62.4007C97.5532 62.415 97.4823 62.3865 97.5107 62.4007C97.4823 62.3865 97.4823 62.3722 97.4965 62.4007L97.4823 62.3865C97.4823 62.4007 97.4965 62.4007 97.4965 62.415C97.4965 62.4007 97.4965 62.4007 97.4823 62.3865C97.4823 62.4007 97.4823 62.4007 97.4965 62.415C97.4965 62.3865 97.4965 62.3722 97.4965 62.4007C97.4965 62.4007 97.4965 62.4577 97.4965 62.4292C97.4965 62.415 97.4965 62.415 97.4965 62.4292C97.4965 62.4435 97.4965 62.4435 97.4965 62.4292C97.5107 62.415 97.4965 62.415 97.4965 62.4292C97.5107 62.4007 97.5249 62.4007 97.5107 62.415C97.4965 62.4292 97.5107 62.4292 97.5249 62.4007C97.5107 62.415 97.5107 62.415 97.5391 62.4007C97.6242 62.4292 97.6951 62.472 97.7802 62.5005C97.7802 62.529 97.7802 62.5147 97.7802 62.5005C97.7802 62.5147 97.7802 62.529 97.7802 62.529C97.7802 62.5005 97.7944 62.5005 97.7802 62.529C97.7802 62.5432 97.7661 62.5432 97.7519 62.5575C97.8512 62.4862 97.8937 62.3722 97.8228 62.2582C97.7661 62.1585 97.6242 62.1157 97.5249 62.187C97.3546 62.301 97.2837 62.529 97.3972 62.7142C97.4398 62.7855 97.5533 62.8425 97.6384 62.814C97.8086 62.757 97.9221 62.586 97.9079 62.4007C97.8937 62.2155 97.7944 62.0445 97.61 62.0017C97.5391 61.9875 97.4539 62.0017 97.3972 62.0587C97.2128 62.2725 97.2979 62.6002 97.5674 62.7C97.6809 62.7427 97.7944 62.6572 97.8228 62.5575C97.8937 62.415 97.8228 62.3152 97.7235 62.2725Z" fill="#161616"/>
<path d="M97.4824 66.3763C97.4824 66.4048 97.4824 66.4191 97.4682 66.4476L97.454 66.4618C97.4682 66.4476 97.4682 66.4476 97.454 66.4618C97.4398 66.4761 97.4114 66.4761 97.4398 66.4761C97.4114 66.4761 97.3263 66.4476 97.3689 66.4761C97.3405 66.4333 97.2979 66.3906 97.2696 66.3478C97.2696 66.3621 97.2837 66.3763 97.2837 66.3906C97.2837 66.4048 97.2837 66.4191 97.2837 66.3906C97.2837 66.4048 97.2837 66.4191 97.2837 66.4333C97.2837 66.4048 97.2837 66.4333 97.2696 66.4476C97.2554 66.4761 97.2837 66.4191 97.2696 66.4618C97.2696 66.4618 97.2412 66.4903 97.2554 66.4903C97.2412 66.5046 97.227 66.5046 97.2128 66.5188C97.3121 66.5473 97.4114 66.5758 97.5108 66.5901C97.4966 66.5758 97.4824 66.5473 97.4682 66.5188C97.454 66.4903 97.4682 66.4903 97.454 66.5188C97.4398 66.5473 97.4398 66.5901 97.4114 66.6043C97.3405 66.6613 97.2412 66.5758 97.2128 66.5046C97.2412 66.6186 97.3689 66.6898 97.4682 66.6471C97.5817 66.6186 97.6527 66.4903 97.6101 66.3906C97.5533 66.1911 97.3121 66.1341 97.1419 66.2481C96.9574 66.3906 97.0142 66.6186 97.1277 66.7896C97.1986 66.8893 97.3121 66.9321 97.4256 66.8608C97.5533 66.7896 97.6385 66.6756 97.681 66.5331C97.7236 66.3906 97.7094 66.1911 97.5959 66.1056C97.3405 65.8918 96.9574 66.1911 97.0425 66.4903C97.1419 66.7611 97.5533 66.6471 97.4824 66.3763Z" fill="#161616"/>
<path d="M97.2128 70.7797C97.2411 70.7084 97.2695 70.6372 97.3121 70.5659C97.2695 70.5944 97.2269 70.6372 97.1844 70.6657C97.156 70.6799 97.1418 70.6657 97.1134 70.6514C97.0993 70.6372 97.0993 70.6372 97.1134 70.6514C97.0993 70.6229 97.0851 70.5944 97.0993 70.5517C97.1135 70.5232 97.1276 70.5089 97.156 70.5089C97.1276 70.5089 97.1418 70.5089 97.1702 70.5089C97.1844 70.5089 97.1986 70.5089 97.2128 70.5232C97.1134 70.4662 96.9858 70.4947 96.9148 70.5944C96.8581 70.6942 96.8864 70.8367 96.9858 70.8937C97.2553 71.0362 97.61 70.7797 97.4823 70.4804C97.4256 70.3522 97.2979 70.2524 97.156 70.2524C97.0567 70.2524 96.9716 70.2952 96.929 70.3949C96.9006 70.4519 96.8723 70.5089 96.8581 70.5802C96.8155 70.6799 96.8297 70.8082 96.929 70.8794C97.0141 70.9079 97.1702 70.8794 97.2128 70.7797Z" fill="#161616"/>
<path d="M102.888 36.8787C102.405 37.0355 101.937 37.1922 101.455 37.349C101.228 37.4202 100.859 37.4772 100.731 37.7052C100.618 37.9047 100.717 38.0757 100.76 38.2752C100.887 38.8452 100.745 39.401 100.433 39.8997C100.277 40.1277 100.646 40.3415 100.802 40.1135C101.143 39.6005 101.299 39.002 101.214 38.375C101.214 38.3465 101.1 38.0187 101.128 37.976C101.199 37.8192 101.639 37.7337 101.781 37.691C102.192 37.5485 102.59 37.4202 103.001 37.2777C103.257 37.1922 103.143 36.779 102.888 36.8787Z" fill="#161616"/>
<path d="M100.93 38.033C101.355 38.5033 101.639 39.0448 101.752 39.6718C101.809 39.9425 102.221 39.8285 102.164 39.5578C102.036 38.8595 101.71 38.2468 101.228 37.7338C101.043 37.52 100.745 37.8335 100.93 38.033Z" fill="#161616"/>
<path d="M102.646 37.4774C103.228 37.2066 103.824 37.0214 104.448 36.9074C104.363 36.8361 104.264 36.7649 104.179 36.7079C104.235 37.2779 104.15 37.8336 103.909 38.3466C103.796 38.5889 104.165 38.8169 104.278 38.5604C104.562 37.9761 104.675 37.3491 104.604 36.7079C104.59 36.5654 104.477 36.4799 104.335 36.5084C103.668 36.6224 103.044 36.8361 102.434 37.1211C102.178 37.2209 102.391 37.5914 102.646 37.4774Z" fill="#161616"/>
<path d="M104.448 38.2608C104.746 38.3321 105.044 38.3606 105.342 38.3463C105.611 38.3463 105.611 37.9188 105.342 37.9188C105.072 37.9188 104.817 37.9046 104.562 37.8476C104.292 37.7763 104.179 38.1896 104.448 38.2608Z" fill="#161616"/>
<path d="M112.308 41.624C112.89 41.624 113.202 42.8068 113.925 44.5595C115.472 48.3643 116.238 50.2595 116.564 51.4708C117.132 53.6083 117.727 56.6435 117.742 60.3628C117.302 61.3175 116.635 62.6143 115.614 64.0393C114.706 65.3075 113.046 67.5875 110.052 69.4115C109.101 69.9957 107.683 70.7225 105.81 71.2498C105.711 70.5373 105.611 69.8248 105.512 69.1123C105.2 69.269 104.746 69.5255 104.193 69.8533C103.313 70.3805 103.114 70.5658 102.731 70.7368C102.235 70.9505 101.469 71.1358 100.319 70.8793C99.7377 69.1835 99.2554 67.787 98.8581 66.6898C98.7304 66.3193 98.475 65.6495 98.7872 65.0653C98.9574 64.7518 99.2412 64.5808 99.4398 64.481C99.1986 64.025 99.1135 63.6403 99.0709 63.3838C99.0284 63.056 99 62.828 99.1419 62.6428C99.383 62.3435 99.8938 62.4148 99.9505 62.429C99.8512 61.7593 99.7519 61.061 99.6526 60.377C99.3972 58.4248 99.1986 56.5438 99.0709 54.7198C99.681 54.3493 100.291 53.9788 100.901 53.6225C103.923 51.8128 106.931 50.1028 109.91 48.4783C109.924 48.1078 109.967 47.5948 110.052 47.0105C110.166 46.184 110.322 45.5143 110.421 45.1723C110.478 44.8588 111.343 41.624 112.308 41.624Z" fill="white"/>
<path opacity="0.07" d="M112.095 41.4814C112.62 42.7354 113.273 44.5167 113.854 46.6969C114.748 50.1027 115.642 53.3659 115.103 57.4272C114.819 59.5219 114.493 62.0157 112.62 64.4097C110.265 67.4164 106.987 68.3284 105.739 68.5992C105.285 68.3712 104.519 68.0862 103.54 68.0862C101.497 68.0862 100.121 69.3829 99.8086 69.7107C99.9788 70.1097 100.149 70.4944 100.319 70.8934C101.256 71.0074 101.923 70.8507 102.362 70.6797C103.171 70.3662 103.54 69.8817 104.703 69.4257C105.101 69.2689 105.427 69.1834 105.654 69.1264C105.682 69.7107 105.696 70.3092 105.725 70.8934C107.285 70.6939 108.449 70.2664 109.172 69.9387C112.35 68.4994 114.166 65.8917 116.053 63.1699C116.862 62.0157 117.444 61.0182 117.813 60.3769C117.798 59.1514 117.713 57.5412 117.444 55.6744C116.919 51.9694 115.982 49.2904 115.755 48.6919C115.06 46.7824 113.954 44.2317 112.095 41.4814Z" fill="#606060"/>
<path opacity="0.1" d="M108.789 49.1193C108.917 50.2022 108.988 51.4135 108.931 52.7245C108.733 57.5125 106.987 61.246 105.64 63.5402C106.392 63.07 107.214 62.4857 108.052 61.7732C109.57 60.4765 110.69 59.1512 111.499 58.0255C111.598 56.5577 111.527 55.318 111.428 54.4202C111.258 52.7815 110.932 51.4847 110.619 50.302C110.407 49.447 110.194 48.7487 110.038 48.25C109.626 48.535 109.215 48.8343 108.789 49.1193Z" fill="#606060"/>
<path opacity="0.1" d="M117.217 54.563C116.947 54.563 116.976 57.014 115.826 60.4482C115.429 61.6168 114.876 63.2413 113.783 64.937C113.003 66.134 111.386 68.2145 108.364 69.9388C109.442 69.5398 110.719 68.9413 112.024 68.0293C115.528 65.5498 117.132 62.2295 117.813 60.5337C117.614 55.6175 117.387 54.563 117.217 54.563Z" fill="#606060"/>
<path d="M110.534 49.6751C111.031 52.4681 111.499 55.2753 111.187 58.1253C111.159 58.3961 111.584 58.3961 111.613 58.1253C111.939 55.2468 111.457 52.3968 110.946 49.5611C110.903 49.2903 110.492 49.4043 110.534 49.6751Z" fill="#161616"/>
<path d="M111.272 57.9257C110.336 59.3507 109.215 60.6332 107.91 61.7447C107.257 62.3004 106.562 62.7992 105.824 63.2552C105.328 63.5687 104.633 63.7682 104.434 64.3667C104.349 64.6232 104.76 64.7372 104.845 64.4807C104.959 64.096 105.526 63.9249 105.838 63.7397C106.193 63.5259 106.548 63.298 106.888 63.0557C107.498 62.6282 108.08 62.1722 108.633 61.6734C109.783 60.6332 110.776 59.4505 111.627 58.1537C111.783 57.9114 111.414 57.6977 111.272 57.9257Z" fill="#161616"/>
<path d="M104.42 64.5379C105.016 66.6326 105.37 68.7844 105.498 70.9504C105.512 71.2211 105.938 71.2211 105.924 70.9504C105.796 68.7416 105.427 66.5471 104.831 64.4239C104.76 64.1674 104.349 64.2814 104.42 64.5379Z" fill="#161616"/>
<path d="M112.01 41.5812C115.613 47.1245 117.529 53.6653 117.472 60.2915C117.472 60.5623 117.898 60.5623 117.898 60.2915C117.954 53.594 116.025 46.9677 112.379 41.3675C112.223 41.1395 111.854 41.3532 112.01 41.5812Z" fill="#161616"/>
<path d="M105.767 71.2783C111.612 70.2523 115.4 65.279 118.068 60.3628C118.195 60.1205 117.827 59.9068 117.699 60.149C115.074 64.9798 111.385 69.8675 105.654 70.865C105.384 70.9078 105.498 71.321 105.767 71.2783Z" fill="#161616"/>
<path d="M104.32 64.4095C103.497 63.925 102.675 63.3978 101.823 62.956C101.185 62.614 100.348 62.2008 99.5958 62.2578C98.3473 62.3575 98.7304 64.039 99.3547 64.6233C99.5533 64.8085 99.8512 64.5093 99.6526 64.324C99.2554 63.9535 98.7872 62.8135 99.681 62.6853C100.206 62.614 100.929 62.9988 101.383 63.2125C102.32 63.6685 103.214 64.2528 104.107 64.78C104.349 64.9225 104.561 64.552 104.32 64.4095Z" fill="#161616"/>
<path d="M99.4539 64.2811C98.5601 64.5946 98.4041 65.5066 98.5885 66.3474C98.7446 67.0741 99.0141 67.7866 99.2269 68.5134C99.4397 69.1974 99.5816 69.9526 99.8654 70.6081C100.263 71.4916 101.426 71.1639 102.178 70.9929C102.703 70.8646 103.285 70.7079 103.71 70.3659C104.235 69.9384 104.519 69.4966 105.242 69.3256C105.512 69.2686 105.399 68.8554 105.129 68.9124C104.448 69.0691 104.079 69.4111 103.597 69.8956C103.242 70.2376 102.788 70.3944 102.334 70.5226C101.965 70.6224 101.185 70.8789 100.816 70.7649C100.149 70.5369 100.064 69.8101 99.8937 69.2259C99.7661 68.8126 99.6526 68.4136 99.5249 68.0004C99.2695 67.1596 98.3047 65.1361 99.5816 64.7086C99.8228 64.6088 99.7093 64.1956 99.4539 64.2811Z" fill="#161616"/>
<path d="M104.108 64.5237C104.562 66.077 104.888 67.6444 105.115 69.2547C105.158 69.5254 105.569 69.4114 105.527 69.1407C105.3 67.5447 104.959 65.963 104.519 64.4097C104.448 64.1532 104.037 64.2672 104.108 64.5237Z" fill="#161616"/>
<path d="M100.234 62.2724C99.8511 60.5909 99.5815 58.8809 99.4397 57.1567C99.4113 56.7434 99.3829 56.3302 99.3545 55.9169C99.3403 55.5749 99.2127 55.0049 99.4255 54.7057C99.6383 54.4207 100.248 54.1499 100.546 53.9647C100.887 53.7509 101.227 53.5229 101.568 53.3092C104.349 51.5707 107.243 50.0174 110.123 48.4642C110.023 48.4214 109.91 48.3787 109.811 48.3359C110.364 50.3309 110.818 52.3402 111.173 54.3922C111.215 54.6629 111.627 54.5489 111.584 54.2782C111.229 52.2404 110.775 50.2169 110.222 48.2219C110.18 48.0794 110.023 48.0224 109.91 48.0937C106.746 49.7894 103.582 51.4994 100.56 53.4374C100.177 53.6797 99.8085 53.9219 99.4397 54.1784C99.2694 54.2924 98.9857 54.4064 98.9005 54.6059C98.7728 54.8767 98.9147 55.4609 98.9289 55.7602C98.9431 56.1734 98.9715 56.5867 99.014 56.9999C99.1559 58.8097 99.4397 60.5909 99.8369 62.3579C99.8937 62.6572 100.305 62.5432 100.234 62.2724Z" fill="#161616"/>
<path d="M94.8856 19.18C93.7222 19.8783 92.9561 20.3628 92.3744 21.3318C91.5799 22.6428 91.6366 24.0108 91.6934 24.652C91.1826 26.0485 90.6719 27.445 90.1611 28.8415C90.7286 28.8415 91.3103 28.8415 91.8778 28.8415C91.8778 29.4115 91.9346 30.3093 92.3034 31.3068C92.5304 31.9196 93.2256 33.6866 95.1268 34.6983C96.7867 35.5676 98.3757 35.3538 98.929 35.2541C99.0709 36.0806 99.2128 36.8928 99.3546 37.7193C99.9931 37.6908 100.915 37.5626 101.937 37.1066C104.959 35.7528 106.037 32.6605 106.349 31.7485C107.456 28.5565 106.633 25.8063 106.349 24.9085C105.696 22.8138 104.59 21.4885 103.895 20.662C102.49 18.9948 101.298 17.584 99.4823 17.3988C98.0778 17.2563 96.9711 17.926 94.8856 19.18Z" fill="white"/>
<path d="M91.6082 24.6668C92.1899 23.4128 92.6722 22.4723 92.729 22.3583C93.5661 20.7908 97.1129 18.2401 97.4534 17.9978C97.8791 17.3423 98.2338 16.5871 97.95 16.1596C97.4109 15.3473 94.6159 15.8746 92.729 17.2853C92.4878 17.4563 89.3949 19.8646 90.0617 22.8571C90.3029 23.9401 90.9555 24.6953 91.3954 25.1228C91.4521 25.0088 91.523 24.8521 91.6082 24.6668Z" fill="#1C1C1C"/>
<path d="M95.7087 17.1996C95.2405 18.1686 95.51 19.1946 95.7938 20.2634C95.8505 20.4629 96.6734 23.4126 99.4684 24.9231C100.277 25.3506 101.398 25.9634 102.434 25.5501C102.973 25.3364 103.143 24.9659 103.597 25.0086C104.349 25.0656 105.016 26.0204 105.143 26.9324C105.158 27.0321 105.314 28.3574 104.477 28.8989C103.937 29.2551 103.228 29.1126 103.171 29.0984C102.76 29.0129 102.689 28.8276 102.391 28.8134C102.249 28.7991 101.852 28.8846 101.057 29.7396C99.6954 31.1931 99.3265 33.3021 99.2272 34.1429C99.4684 33.7439 99.6954 33.3306 99.9366 32.9316C99.7521 33.5586 99.5535 34.6274 99.7237 35.9099C99.7947 36.3801 100.093 38.6031 101.823 40.0851C104.193 42.0944 108.194 41.8664 110.35 39.7716C111.811 38.3609 112.038 36.4941 112.124 35.7674C112.464 33.0884 111.088 32.8461 110.152 27.8159C109.882 26.3481 109.598 24.9231 108.974 22.6859C108.818 22.1159 108.577 21.4604 108.179 20.6481C107.286 18.7814 106.434 17.0571 104.59 15.9884C101.554 14.2214 96.8295 14.8484 95.7087 17.1996Z" fill="#1C1C1C"/>
<path d="M93.4101 33.6016C93.1831 34.1288 92.8993 34.9838 92.8568 36.0668C92.8142 37.0928 92.7575 38.2898 93.5378 39.2161C94.4316 40.2848 96.3611 40.8548 97.8366 39.9001C98.8865 39.2161 99.4398 37.9051 99.2412 36.5798C99.1561 36.1666 99.0709 35.7533 99 35.3543C98.4041 35.4256 97.5671 35.4398 96.6023 35.2261C95.0417 34.8556 93.9634 34.0718 93.4101 33.6016Z" fill="#1C1C1C"/>
<path opacity="0.06" d="M97.4255 23.3415C98.1065 24.4815 98.6172 25.5075 99.0003 26.334C99.7806 28.044 100.178 28.9275 100.149 29.8538C100.121 30.723 99.8657 30.9083 99.3692 32.9603C99.1422 33.915 98.9861 34.6988 98.901 35.226C99.1847 34.9268 99.4543 34.6275 99.738 34.3283C99.6671 34.884 99.6104 35.796 99.8941 36.8505C99.9509 37.0643 100.76 39.8573 103.455 41.0543C105.895 42.1373 108.974 41.5103 109.158 40.641C109.244 40.185 108.52 39.9143 107.64 39.0593C105.356 36.879 103.966 32.775 105.129 29.925C105.839 28.2008 106.974 28.158 107.215 26.505C107.513 24.5385 106.151 22.8285 105.64 22.2015C102.703 18.4965 97.2978 18.696 96.3756 18.7388C96.0919 18.9953 95.8223 19.266 95.5386 19.5225C95.6946 20.064 95.9216 20.6625 96.2196 21.3038C96.6026 22.116 97.0283 22.8 97.4255 23.3415Z" fill="#606060"/>
<path opacity="0.13" d="M90.2749 28.7847C90.9843 28.5852 91.566 28.514 91.9774 28.4712C92.6442 28.4142 92.8429 28.4855 92.8996 28.5995C92.9706 28.742 92.8571 28.9415 92.6301 29.2977C92.474 29.5685 92.3179 29.768 92.1902 29.9105C92.1193 29.6255 92.0484 29.3547 91.9774 29.0697C91.4099 28.9842 90.8424 28.8845 90.2749 28.7847Z" fill="#606060"/>
<path d="M91.6652 24.5098C91.1119 25.9918 90.5586 27.4596 89.9769 28.9273C89.9343 29.0413 90.0478 29.2123 90.1755 29.1981C90.7572 29.1268 91.3247 29.0983 91.9064 29.0841C92.1759 29.0841 92.1759 28.6566 91.9064 28.6566C91.3247 28.6566 90.743 28.6993 90.1755 28.7706C90.2464 28.8561 90.3174 28.9558 90.3741 29.0413C90.9416 27.5736 91.5091 26.1058 92.0624 24.6238C92.1759 24.3673 91.7645 24.2533 91.6652 24.5098Z" fill="#161616"/>
<path d="M91.8353 28.9702C91.9488 30.8369 92.5731 33.0314 94.0344 34.2854C95.3822 35.4397 97.2549 35.6819 98.9574 35.5679C99.2269 35.5536 99.2269 35.1262 98.9574 35.1404C97.3684 35.2401 95.595 35.0549 94.3323 33.9861C92.9419 32.8177 92.3602 30.7229 92.2609 28.9702C92.2467 28.6994 91.8211 28.6994 91.8353 28.9702Z" fill="#161616"/>
<path d="M98.7729 35.5254C99.0992 36.1809 99.2269 36.8934 99.1985 37.6201C99.1844 37.8909 99.61 37.8909 99.6242 37.6201C99.6668 36.8079 99.4965 36.0384 99.1418 35.3116C99.0283 35.0551 98.6594 35.2831 98.7729 35.5254Z" fill="#161616"/>
<path d="M102.59 25.6924C103.54 24.3387 104.959 26.2624 104.945 27.2599C104.931 28.4997 103.668 29.3974 102.576 28.6564C102.348 28.4997 102.136 28.8702 102.363 29.0269C103.867 30.0671 105.583 28.5567 105.342 26.9037C105.143 25.5214 103.313 23.9254 102.221 25.4787C102.065 25.7067 102.434 25.9204 102.59 25.6924Z" fill="#161616"/>
<path d="M94.2475 23.8832C94.2333 24.154 94.2475 24.439 94.2901 24.7097C94.3184 24.9377 94.3468 25.2227 94.4603 25.4222C94.6164 25.6787 95.0136 25.579 94.9427 25.2655C94.8717 24.9947 94.4745 25.1087 94.5313 25.3795C94.5313 25.3937 94.5313 25.3937 94.5313 25.408C94.5454 25.3367 94.5738 25.2655 94.588 25.1942C94.6022 25.18 94.6164 25.18 94.6306 25.1657C94.7015 25.18 94.7724 25.2085 94.8434 25.2227C94.7724 25.1657 94.7299 24.7667 94.7157 24.6242C94.6873 24.382 94.6731 24.1255 94.6873 23.8832C94.6731 23.6125 94.2475 23.6125 94.2475 23.8832Z" fill="#161616"/>
<path d="M94.3606 24.0395C94.545 24.4528 94.6017 24.9088 94.5734 25.3648C94.5592 25.6355 94.9848 25.6355 94.9989 25.3648C95.0415 24.8233 94.9422 24.3245 94.7294 23.8257C94.6301 23.5692 94.2613 23.783 94.3606 24.0395Z" fill="#161616"/>
<path d="M93.7225 22.6858C94.3468 21.6883 95.4818 22.4293 95.8506 23.213C95.9641 23.4553 96.333 23.2415 96.2195 22.9993C95.7088 21.902 94.134 21.218 93.3679 22.472C93.2118 22.7143 93.5807 22.928 93.7225 22.6858Z" fill="#161616"/>
<path d="M92.4456 31.0362C93.2969 31.3212 94.2333 30.9507 94.6731 30.167C94.8008 29.9247 94.4461 29.711 94.3042 29.9532C93.9495 30.5802 93.226 30.851 92.5591 30.623C92.2896 30.5375 92.1761 30.9507 92.4456 31.0362Z" fill="#161616"/>
<path d="M94.063 30.0959C94.3326 30.0674 94.6021 30.2811 94.6163 30.5661C94.6305 30.8369 95.0561 30.8369 95.042 30.5661C95.0136 30.0674 94.5738 29.6256 94.063 29.6684C93.7934 29.6826 93.7934 30.1101 94.063 30.0959Z" fill="#161616"/>
<path d="M95.0844 26.8758C95.354 26.8758 95.354 26.4482 95.0844 26.4482C94.8006 26.4482 94.8006 26.8758 95.0844 26.8758Z" fill="#161616"/>
<path d="M96.2051 26.0208C96.4747 26.0208 96.4747 25.5933 96.2051 25.5933C95.9355 25.5933 95.9355 26.0208 96.2051 26.0208Z" fill="#161616"/>
<path d="M95.8223 26.7186C95.8223 26.7329 95.8223 26.7614 95.8223 26.7756C95.8223 26.8896 95.9216 26.9894 96.0351 26.9894C96.1486 26.9894 96.2479 26.8896 96.2479 26.7756C96.2479 26.7614 96.2479 26.7329 96.2479 26.7186C96.2479 26.6046 96.1486 26.5049 96.0351 26.5049C95.9216 26.5049 95.8223 26.5904 95.8223 26.7186Z" fill="#161616"/>
<path d="M44.8182 138.482C44.6905 142.03 44.5486 145.579 44.4209 149.127C55.4588 151.008 61.1338 151.364 61.4601 150.21C61.7438 149.198 57.9841 147.046 50.181 143.74C51.0748 136.544 50.9471 132.768 49.7838 132.412C48.819 132.127 47.1733 134.15 44.8182 138.482Z" fill="black"/>
<path d="M56.0843 76.7512C56.0843 77.9624 56.0843 79.7864 56.0843 82.0094C56.0985 90.7162 56.1978 94.5494 56.212 97.7842C56.2688 109.64 55.1905 119.387 54.5946 124.617C54.0413 129.49 53.4455 133.523 52.9773 136.345C52.4949 136.843 51.6436 137.57 50.4235 138.04C49.8418 138.268 49.3736 138.354 49.0473 138.425C48.5366 138.525 46.5503 138.853 44.1243 138.112C43.5 137.926 42.6488 137.599 41.7124 137.029C42.4076 133.081 43.2446 127.894 43.9966 121.795C44.6066 116.794 45.5998 107.645 46.0112 96.0457C46.2098 90.1747 46.295 83.0782 46.0112 75.0127C49.3736 75.5827 52.7361 76.1669 56.0843 76.7512Z" fill="white"/>
<path opacity="0.09" d="M46.4212 89.02C47.1306 87.2388 48.0386 85.258 48.5635 85.3863C49.3438 85.5715 48.8756 90.2313 48.5635 93.751C47.8541 101.731 47.7548 109.754 47.2157 117.748C46.8894 122.721 46.5205 129.775 46.407 138.368C44.8464 137.969 43.2716 137.556 41.7109 137.157C43.2999 128.079 44.6194 118.218 45.4706 107.631C45.9956 101.161 46.2935 94.948 46.4212 89.02Z" fill="#606060"/>
<path d="M55.7568 78.3615C56.3952 93.4238 55.9412 108.529 54.409 123.52C53.9691 127.781 53.4442 132.041 52.8341 136.288C52.7916 136.559 53.203 136.673 53.2456 136.402C55.3879 121.468 56.4803 106.377 56.452 91.2863C56.452 86.9828 56.3527 82.6793 56.1682 78.3758C56.1682 78.0908 55.7426 78.0765 55.7568 78.3615Z" fill="#161616"/>
<path d="M46.2795 89.1484C45.8113 101.603 44.7898 114.043 43.215 126.398C42.761 130.003 42.2502 133.608 41.6969 137.199C41.6544 137.47 42.0658 137.584 42.1084 137.313C44.0237 124.887 45.3857 112.376 46.1802 99.8216C46.4072 96.2734 46.5774 92.7109 46.7193 89.1484C46.7193 88.8776 46.2937 88.8776 46.2795 89.1484Z" fill="#161616"/>
<path d="M41.8815 137.542C43.8252 138.425 45.9391 138.838 48.0672 138.667C49.8407 138.525 51.9262 138.097 53.0187 136.558C53.1747 136.33 52.8059 136.117 52.6498 136.345C51.5715 137.855 49.3015 138.197 47.5849 138.268C45.6979 138.34 43.8252 137.955 42.0943 137.171C41.8531 137.057 41.6403 137.428 41.8815 137.542Z" fill="#161616"/>
<path d="M28.9843 134.706C27.6365 139.024 26.3029 143.327 24.9551 147.645C35.5673 150.78 41.072 151.863 41.4693 150.88C41.7956 150.067 38.5751 147.816 31.8076 144.139C35.2694 139.522 36.1774 135.361 34.7586 134.036C33.3115 132.697 29.6653 134.378 28.9843 134.706Z" fill="black"/>
<path d="M36.362 77.4208C36.291 77.7343 36.1775 78.8031 35.9647 80.9263C35.6242 84.2323 35.4398 86.6833 35.4256 86.8543C34.7162 96.2308 33.411 104.382 33.411 104.382C31.9639 113.402 29.9634 120.47 28.573 125.272C27.5515 128.835 26.601 131.799 25.8916 133.894C27.0692 135.376 28.2751 136.302 29.1122 136.858C30.389 137.698 31.9071 138.71 33.9501 138.61C34.7588 138.568 35.3972 138.368 35.8229 138.211C36.4329 136.43 37.4828 133.338 38.6462 129.448C40.7885 122.28 42.5619 114.143 46.0237 98.1688C46.1797 97.4563 48.166 88.2651 48.3079 87.6523C49.5564 86.1703 50.819 84.6883 52.0676 83.2063C54.1815 78.2473 54.1106 73.2028 51.6703 71.0796C47.5843 67.5313 37.5112 72.5616 36.362 77.4208Z" fill="white"/>
<path opacity="0.11" d="M36.2201 80.2568C36.3903 81.4966 36.6031 83.3633 36.7592 85.6433C37.4402 96.2026 35.7661 103.67 34.2055 112.063C33.1272 117.848 31.6659 126.398 30.3181 137.271C28.8426 136.145 27.3671 135.02 25.8916 133.908C26.6435 131.671 27.7218 128.379 28.8426 124.332C32.4746 111.279 33.8933 100.606 34.8865 92.9251C35.2837 89.7616 35.7945 85.4438 36.2201 80.2568Z" fill="#606060"/>
<path d="M35.7515 78.3754C35.2692 93.0386 33.1127 107.645 29.3246 121.809C28.2606 125.814 27.0546 129.775 25.721 133.708C25.6359 133.965 26.0473 134.079 26.1324 133.822C30.8285 119.886 33.9355 105.422 35.3685 90.7871C35.7657 86.6546 36.0353 82.5221 36.1772 78.3754C36.1914 78.0904 35.7657 78.0904 35.7515 78.3754Z" fill="#161616"/>
<path d="M51.3583 83.6336C50.2942 84.9731 49.2301 86.3126 48.1661 87.6521C47.9958 87.8659 48.2938 88.1651 48.464 87.9514C49.5281 86.6119 50.5921 85.2724 51.6562 83.9328C51.8264 83.7191 51.5285 83.4198 51.3583 83.6336Z" fill="#161616"/>
<path d="M48.2081 87.4389C45.626 100.777 42.8594 114.086 39.0997 127.154C38.0356 130.859 36.8865 134.535 35.6522 138.183C35.567 138.44 35.9785 138.554 36.0636 138.297C40.4192 125.429 43.5972 112.205 46.3495 98.8959C47.1298 95.1196 47.8818 91.3291 48.6053 87.5529C48.6621 87.2964 48.2506 87.1681 48.2081 87.4389Z" fill="#161616"/>
<path d="M25.8205 133.993C26.4022 134.82 27.2251 135.432 28.0054 136.074C28.7431 136.672 29.5092 137.242 30.3321 137.727C31.9637 138.681 34.0492 139.351 35.8936 138.624C36.149 138.525 36.0355 138.111 35.7801 138.211C33.9641 138.938 31.9353 138.211 30.3463 137.242C29.566 136.772 28.8282 136.216 28.1189 135.632C27.4379 135.076 26.7001 134.52 26.1752 133.794C26.0333 133.566 25.6644 133.779 25.8205 133.993Z" fill="#161616"/>
<path d="M52.8056 32.9322C53.5291 32.7754 54.4939 34.0009 55.0188 34.6564C55.8275 35.6682 56.1822 36.6799 56.4092 37.4494C57.1611 39.9574 57.3172 42.4512 57.303 44.3464C57.4307 45.2014 57.7428 46.5267 58.5231 47.9659C58.7927 48.4504 60.0554 50.6592 62.7794 52.2409C64.4819 53.2242 66.0992 53.5804 67.1917 53.7229C66.9789 53.9367 66.7661 54.1504 66.5532 54.3642C67.1633 54.4212 67.6315 54.5494 67.9578 54.6492C68.6814 54.8772 69.0644 54.9912 69.1921 55.0482C69.4333 55.1479 69.6319 55.2477 69.7596 55.3189C69.6745 55.4187 69.4901 55.6894 69.4901 56.0742C69.4901 56.5017 69.7171 56.9292 70.0717 57.1287C70.4122 57.3282 70.9088 57.2284 71.8735 57.0289C72.058 56.9862 72.2141 56.9577 72.3275 56.9292C72.5546 56.9007 72.9234 56.9007 73.2923 57.0717C73.874 57.3424 74.101 57.8982 74.4131 58.5964C74.6401 59.1094 74.9522 59.8077 74.8104 60.6769C74.7678 60.9334 74.6827 61.4179 74.2996 61.8027C74.2145 61.8882 74.1577 61.9309 73.4625 62.3157C72.6539 62.7574 72.4978 62.8144 72.3417 62.8857C71.831 63.0709 71.5756 63.1707 71.2777 63.0567C70.9939 62.9569 70.7102 62.6719 70.7102 62.3869C70.7244 62.0449 71.15 61.9879 71.1642 61.7172C71.1784 61.3752 70.5683 61.3039 69.8731 60.6484C69.3907 60.1924 69.4759 60.0499 68.9793 59.6367C68.7949 59.4799 68.4544 59.2092 67.972 59.0239C67.745 58.9242 67.6031 58.9099 67.2484 58.7389C66.7802 58.5252 66.6667 58.4112 66.5958 58.3114C66.4539 58.0977 66.5391 57.9837 66.4114 57.8412C66.2411 57.6702 65.9716 57.7272 65.6452 57.7272C65.3615 57.7272 64.9784 57.6702 64.5102 57.4422C64.3258 58.7532 64.1414 60.0642 63.9427 61.3894C63.2192 61.2184 62.1693 60.9049 61.0343 60.2637C59.4879 59.3802 57.8563 57.9409 55.714 53.8512C54.125 50.8302 52.1104 46.9684 51.628 41.4109C51.3017 37.9624 51.5145 33.2172 52.8056 32.9322Z" fill="white"/>
<path opacity="0.09" d="M52.9474 33.0605C52.9758 33.944 53.0609 35.084 53.2312 36.4235C53.3163 37.0648 53.4865 38.2048 53.8696 39.929C54.5364 42.8503 55.3451 45.287 55.87 46.7975C57.6293 51.785 58.5231 54.3358 60.3249 55.9745C61.6727 57.2 63.0631 57.884 63.9995 58.2545C64.0137 59.2378 64.0279 60.221 64.0421 61.2043C63.6306 61.2328 63.0064 61.2185 62.3112 60.9905C61.2329 60.6485 60.5661 59.993 60.1263 59.537C58.2536 57.6275 57.3172 56.6728 56.4092 55.1765C52.6779 49.0633 52.1529 42.152 52.1529 42.152C52.011 40.0288 52.0252 36.851 52.9474 33.0605Z" fill="#606060"/>
<path opacity="0.08" d="M66.7943 54.4784C66.8795 54.5497 66.5248 54.9487 66.2978 55.5614C65.9857 56.3879 66.0566 57.1859 66.1701 57.7559C65.631 57.6419 65.0919 57.5279 64.5527 57.4282C64.6662 56.9437 64.9074 56.1884 65.5033 55.4759C66.014 54.8632 66.695 54.3787 66.7943 54.4784Z" fill="#606060"/>
<path opacity="0.09" d="M71.4618 60.4067C72.0293 60.0505 72.0861 59.965 72.3273 59.8225C72.6961 59.6087 73.4339 59.2953 74.725 59.452C74.7817 59.851 74.8385 60.6632 74.4412 61.3187C74.2993 61.561 74.0581 61.8317 74.0298 61.8602C73.9021 62.017 73.6467 62.2735 73.292 62.53C73.0225 62.7152 72.5968 63.0002 72.0151 63.0287C71.6321 63.043 71.022 62.9717 70.9369 62.701C70.866 62.4445 71.32 62.245 71.2632 61.9172C71.2065 61.5182 70.4829 61.4755 70.4829 61.1762C70.4687 60.9625 70.7667 60.8485 71.4618 60.4067Z" fill="#606060"/>
<path d="M52.2663 32.9465C53.2594 33.5165 54.2809 34.0865 55.0754 34.9415C55.9976 35.9247 56.3239 37.1787 56.5225 38.4755C56.9624 41.297 57.161 44.1612 57.2035 47.0255C57.2035 47.2962 57.6292 47.2962 57.6292 47.0255C57.5866 43.9902 57.4022 40.898 56.863 37.9055C56.6502 36.7227 56.2672 35.6255 55.4585 34.7277C54.6356 33.8157 53.5432 33.1887 52.4933 32.5902C52.2379 32.4477 52.0251 32.8182 52.2663 32.9465Z" fill="#161616"/>
<path d="M57.1328 41.7529C56.764 47.1536 60.2257 52.0984 65.4042 53.5946C65.6737 53.6659 65.7872 53.2526 65.5177 53.1814C60.5095 51.7279 57.2038 46.9684 57.5585 41.7529C57.5868 41.4821 57.1612 41.4821 57.1328 41.7529Z" fill="#161616"/>
<path d="M65.2765 53.5807C65.9292 53.6377 66.525 53.7802 67.1351 54.0367C67.1209 53.9085 67.1067 53.7802 67.0783 53.652C64.4395 55.1625 63.6875 57.9982 63.9429 60.8767C63.9713 61.1475 64.3969 61.1475 64.3685 60.8767C64.1273 58.1407 64.78 55.4617 67.2912 54.0225C67.4614 53.9227 67.4047 53.6947 67.2344 53.6377C66.596 53.367 65.9433 53.2102 65.2623 53.1532C65.007 53.1247 65.007 53.5522 65.2765 53.5807Z" fill="#161616"/>
<path d="M55.7565 54.5352C56.6503 56.2309 57.8278 57.7557 59.2466 59.0381C60.5944 60.2494 62.226 61.4891 64.1271 61.4179C64.3967 61.4036 64.3967 60.9761 64.1271 60.9904C62.226 61.0616 60.5235 59.6652 59.2182 58.4254C57.9697 57.2427 56.934 55.8462 56.1253 54.3214C55.9976 54.0792 55.6288 54.2929 55.7565 54.5352Z" fill="#161616"/>
<path d="M66.6951 54.4356C67.7734 54.7349 68.8516 55.0341 69.9157 55.3334C70.1853 55.4046 70.2988 54.9914 70.0292 54.9201C68.951 54.6209 67.8727 54.3216 66.8087 54.0224C66.5391 53.9511 66.4256 54.3644 66.6951 54.4356Z" fill="#161616"/>
<path d="M72.4268 56.986C73.3631 57.0715 74.0157 57.8268 74.2853 58.696C74.413 59.1093 74.4556 59.551 74.4697 59.9785C74.4697 60.121 74.4556 61.8738 74.0441 61.5745C73.8171 61.4178 73.6043 61.7883 73.8313 61.945C75.1082 62.8428 74.9095 59.7505 74.8528 59.2945C74.6825 57.955 73.8597 56.6725 72.4268 56.5443C72.143 56.53 72.1572 56.9575 72.4268 56.986Z" fill="#161616"/>
<path d="M73.5195 59.7651C73.6756 60.6629 73.8175 61.6889 73.0088 62.3016C72.7959 62.4726 73.0939 62.7719 73.3067 62.6009C74.2289 61.8741 74.1012 60.6771 73.931 59.6369C73.8884 59.3804 73.477 59.4944 73.5195 59.7651Z" fill="#161616"/>
<path d="M72.4553 60.4202C72.6114 61.1755 72.7816 62.1587 72.0155 62.6432C71.7885 62.7857 72.0013 63.1562 72.2283 63.0137C73.1789 62.4152 73.0654 61.261 72.8667 60.3062C72.81 60.0497 72.3986 60.1637 72.4553 60.4202Z" fill="#161616"/>
<path d="M71.5186 60.6058C71.7598 61.4038 71.6888 62.2018 71.3058 62.9285C71.1781 63.1708 71.547 63.3845 71.6746 63.1423C72.1145 62.3158 72.1996 61.3895 71.93 60.4918C71.8591 60.2353 71.4476 60.3493 71.5186 60.6058Z" fill="#161616"/>
<path d="M64.4818 57.713C65.0777 57.8555 65.6878 57.998 66.2836 58.1405C66.5532 58.1975 66.6667 57.7842 66.3971 57.7272C65.8013 57.5847 65.1912 57.4422 64.5953 57.2997C64.34 57.2285 64.2265 57.6417 64.4818 57.713Z" fill="#161616"/>
<path d="M64.2409 61.3896C65.0354 60.392 65.5745 59.2805 65.8441 58.0408C65.9008 57.77 65.4894 57.656 65.4326 57.9268C65.1772 59.0953 64.6807 60.1498 63.9429 61.0903C63.7727 61.2898 64.0706 61.6033 64.2409 61.3896Z" fill="#161616"/>
<path d="M64.2124 57.7272C64.2976 58.6107 64.2692 59.4799 64.1131 60.3492C64.0564 60.6199 64.4394 60.7339 64.5246 60.4632C64.7941 59.5797 65.0921 58.6962 65.4042 57.8127C65.4893 57.5989 65.1914 57.4849 65.0495 57.5989C64.9644 57.5989 64.8793 57.5847 64.7941 57.5847C64.78 57.7129 64.7658 57.8412 64.7374 57.9694C64.8651 57.9409 65.163 57.9552 65.2056 58.1262C65.234 58.2117 64.9928 58.5252 64.9644 58.5964C64.8225 58.8814 64.6664 59.1522 64.5246 59.4372C64.3969 59.6794 64.7374 59.8647 64.8935 59.6509C65.3191 59.0809 65.5035 58.4254 65.4751 57.7129C65.461 57.4992 65.1914 57.4279 65.0779 57.5989C64.6523 58.2544 64.3827 58.9669 64.2692 59.7507C64.4111 59.7649 64.553 59.7934 64.6806 59.8077C64.6806 59.2377 64.78 58.6962 65.007 58.1689C64.8651 58.1547 64.7232 58.1262 64.5955 58.1119C64.5388 58.5964 64.4394 59.0809 64.3259 59.5512C64.2692 59.8219 64.6664 59.9359 64.7374 59.6652C64.8651 59.1522 64.9502 58.6249 65.0211 58.1119C65.0495 57.8554 64.6806 57.8554 64.6097 58.0549C64.3685 58.6249 64.2692 59.1949 64.2692 59.8077C64.2692 60.0357 64.6523 60.1069 64.6806 59.8647C64.78 59.1237 65.0353 58.4539 65.4468 57.8269C65.3191 57.7842 65.1772 57.7557 65.0495 57.7129C65.0779 58.3542 64.8935 58.9242 64.5246 59.4372C64.6523 59.5084 64.7658 59.5797 64.8935 59.6509C65.0921 59.2804 65.2907 58.9099 65.4751 58.5252C65.5745 58.3257 65.7022 58.1547 65.6596 57.9267C65.5603 57.4279 65.007 57.4564 64.6239 57.5562C64.4253 57.6132 64.4394 57.8412 64.5671 57.9409C64.8225 58.1404 65.1063 58.0977 65.3475 57.8839C65.234 57.8127 65.1063 57.7414 64.9928 57.6702C64.6806 58.5394 64.3827 59.4229 64.1131 60.3207C64.255 60.3634 64.3827 60.3919 64.5246 60.4347C64.6948 59.5227 64.7374 58.6107 64.6381 57.6987C64.6097 57.4564 64.1841 57.4564 64.2124 57.7272Z" fill="#161616"/>
<path d="M37.4546 33.8156C38.5187 38.1903 39.4125 43.2063 39.8665 48.7923C40.817 60.4061 39.4976 70.3526 37.8518 77.7768C39.4692 78.5178 42.4912 79.6436 46.3927 79.5581C51.4009 79.4441 55.0187 77.3921 56.551 76.3946C56.1537 70.2386 55.5011 63.6836 54.5363 56.8008C53.2453 47.6238 51.557 39.1451 49.6984 31.4501C49.0883 31.0938 46.109 29.4836 42.4486 30.4811C39.6253 31.2506 37.9937 33.1173 37.4546 33.8156Z" fill="#7F7F7F"/>
<path d="M41.3277 29.27C41.1149 29.2843 40.8028 29.3128 40.4339 29.4268C39.4692 29.726 38.9017 30.3673 38.5754 30.7235C37.9511 31.3933 37.0573 32.2625 35.6669 33.4025C34.9859 38.6323 34.9008 42.5653 34.9434 45.23C34.9575 46.3273 35.0285 48.2368 35.0285 51.2293C35.0285 53.153 35.0285 55.2763 34.9434 57.143C34.7873 60.7625 34.3049 63.47 33.326 68.7283C32.8862 71.0938 32.2619 74.2715 31.3965 78.0478C32.9287 78.917 34.2765 79.4728 35.2697 79.829C37.1708 80.4988 38.9017 81.0973 41.0724 80.798C41.7959 80.6983 42.3918 80.5273 42.7607 80.399C43.0302 78.9455 43.3991 76.7653 43.7254 74.0863C44.7753 65.5363 44.5625 58.796 44.3639 53.6803C44.2645 51.0013 44.1227 47.3533 43.5552 42.5083C42.9735 37.2358 42.108 32.7613 41.3277 29.27Z" fill="white"/>
<path d="M45.5132 30.1677C45.9956 30.4812 46.6766 30.9942 47.2866 31.7922C48.6912 33.6447 48.7196 35.7822 48.7337 36.6514C48.8472 41.1687 49.9681 45.6004 50.3511 50.0892C50.5923 52.8964 50.4646 51.0867 51.2449 59.6509C51.9259 67.0609 52.0536 68.7852 52.1387 69.8539C52.3374 72.4759 52.536 75.7534 52.7062 79.5724C53.4156 79.6294 54.2385 79.6579 55.1181 79.5724C56.2815 79.4727 57.4307 79.3729 58.665 78.6746C59.4737 78.2187 60.0554 77.6629 60.4384 77.2212C60.3391 75.5397 60.1405 72.9034 59.8 69.6972C59.4169 66.1774 58.665 60.3064 55.2032 43.9474C54.6216 41.2114 53.8129 37.4067 52.7914 32.8467C51.174 31.9062 49.9397 31.0939 49.0884 30.4954C48.1095 29.8114 47.2582 29.1702 46.4212 29.4409C45.9672 29.5692 45.6834 29.8969 45.5132 30.1677Z" fill="white"/>
<path opacity="0.08" d="M34.9577 44.332C35.1138 45.301 35.3691 46.8543 35.5961 48.7923C36.6886 57.6558 36.1778 62.3868 36.7311 72.6753C36.8304 74.4708 37.0007 77.164 37.2986 80.4558C36.5467 80.1993 35.7664 79.9 34.9577 79.558C33.6099 78.988 32.4039 78.3753 31.3257 77.7768C31.7371 76.252 32.2621 74.1715 32.7728 71.7063C34.1348 65.1655 34.6172 59.9785 34.7874 57.613C35.0712 53.8938 35.2131 49.4193 34.9577 44.332Z" fill="#606060"/>
<path opacity="0.1" d="M45.7543 30.4098C45.0733 30.6948 47.2298 36.0385 48.3364 43.933C48.5918 45.7855 48.7904 47.7378 48.9749 52.2693C49.3863 62.173 49.287 72.4473 49.1309 79.2303C50.2659 78.9596 51.3867 78.6888 52.5217 78.4181C52.4934 77.2353 52.4508 75.4968 52.3657 73.4021C51.8975 62.0163 50.8192 53.1528 49.9538 46.0278C49.5566 42.8358 49.0033 38.6178 48.2655 33.6445C46.5914 30.7945 45.9955 30.31 45.7543 30.4098Z" fill="#606060"/>
<path opacity="0.14" d="M51.0743 33.5594C51.1594 34.1864 51.2729 35.0699 51.4006 36.1529C51.7694 39.4304 51.9255 41.9384 52.039 44.0046C52.1951 46.8404 52.266 49.0349 52.2802 49.6334C52.2802 49.6761 52.2802 49.7331 52.2802 49.7474C52.4504 56.1171 53.3017 79.5726 52.9612 79.6011C52.7909 79.6154 52.2093 73.4166 50.7479 52.9109C50.7763 51.4289 50.8047 49.9469 50.8331 48.4506C50.7763 42.7791 50.7905 38.8176 50.9608 37.5921C51.0033 37.2929 51.1168 36.5946 50.7905 35.8679C50.5351 35.2836 50.2797 35.3121 50.0102 34.6709C49.7122 33.9441 49.7548 33.2031 49.769 32.8611C49.7974 32.3196 49.8825 32.2484 49.8541 31.8779C49.7974 31.2936 49.5136 30.8519 49.2866 30.5669C49.8257 30.9089 50.3791 31.2509 50.9182 31.5929C50.9749 32.2626 51.0317 32.9181 51.0743 33.5594Z" fill="#606060"/>
<path d="M41.6396 29.7828C41.3559 28.6 39.6959 29.5548 39.1852 29.968C37.8657 31.0368 36.603 32.2053 35.3687 33.3595C35.1701 33.5448 35.468 33.844 35.6667 33.6588C36.4612 32.9035 37.2699 32.1768 38.1069 31.45C38.4332 31.165 40.987 28.8138 41.2424 29.8968C41.2991 30.1675 41.6964 30.0535 41.6396 29.7828Z" fill="#161616"/>
<path d="M34.6877 44.7739C34.9857 50.5024 34.858 56.2451 34.2763 61.9594C34.2479 62.2301 34.6735 62.2301 34.7019 61.9594C35.2694 56.2451 35.4113 50.5024 35.1134 44.7739C35.0992 44.5031 34.6735 44.5031 34.6877 44.7739Z" fill="#161616"/>
<path d="M41.0725 29.099C39.7673 29.498 38.916 30.8517 39.0721 32.2197C39.1714 33.0605 39.7389 33.5877 40.1504 34.286C40.7604 35.2835 40.1645 36.6087 40.122 37.7202C40.051 40.043 40.732 42.3087 41.3563 44.5175C42.0089 46.7975 42.7041 49.049 43.2574 51.3575C43.91 54.0507 44.3499 56.801 44.3073 59.5797C44.3073 59.8505 44.7329 59.8505 44.7329 59.5797C44.8039 53.951 42.9311 48.6072 41.4414 43.2492C41.0442 41.8385 40.6895 40.3992 40.576 38.9315C40.5192 38.1477 40.5192 37.364 40.6469 36.5945C40.732 36.0387 40.959 35.483 40.8597 34.913C40.6753 33.8442 39.597 33.2315 39.4694 32.1485C39.3417 31.0085 40.0652 29.8685 41.1577 29.5265C41.4556 29.4267 41.3421 29.0135 41.0725 29.099Z" fill="#161616"/>
<path d="M41.1147 29.6548C43.711 42.3658 44.8176 55.3903 43.9948 68.3435C43.7536 72.0628 43.3705 75.7678 42.803 79.4585C42.7605 79.7293 43.1719 79.8433 43.2145 79.5725C45.1723 66.605 45.1014 53.3953 43.3705 40.4135C42.8882 36.7655 42.2639 33.1318 41.5262 29.5265C41.4694 29.27 41.058 29.384 41.1147 29.6548Z" fill="#161616"/>
<path d="M45.9811 29.6972C46.5628 29.2412 47.7262 29.8682 48.2369 30.2245C48.9037 30.6805 49.4003 31.3217 49.7124 32.077C49.8117 32.3335 50.2232 32.2195 50.1239 31.963C49.7266 31.0082 49.074 30.2245 48.1944 29.6972C47.485 29.284 46.4067 28.828 45.6832 29.398C45.4562 29.569 45.7683 29.8682 45.9811 29.6972Z" fill="#161616"/>
<path d="M45.5129 30.5954C48.4072 32.1201 48.4497 36.0959 48.8186 38.9316C49.2442 42.1806 49.6415 45.4439 50.0103 48.7071C50.7339 55.2336 51.344 61.7601 51.8405 68.3151C52.1243 72.0486 52.3655 75.7964 52.5641 79.5441C52.5783 79.8149 53.0039 79.8149 52.9897 79.5441C52.252 65.8214 50.9893 52.1414 49.2017 38.5184C48.8186 35.6114 48.6909 31.7781 45.7399 30.2391C45.4845 30.0966 45.2717 30.4671 45.5129 30.5954Z" fill="#161616"/>
<path d="M49.6844 31.8919C49.8405 32.6756 49.4007 33.4451 49.5851 34.2289C49.7553 34.9556 50.3938 35.4544 50.6491 36.1526C50.9471 36.9791 50.8761 37.9054 50.862 38.7604C50.8478 39.7579 50.8336 40.7411 50.8194 41.7386C50.7485 45.5576 50.6066 49.3766 50.408 53.1956C50.3938 53.4664 50.8194 53.4664 50.8336 53.1956C51.0464 49.2769 51.1883 45.3724 51.2592 41.4536C51.2734 40.5131 51.2876 39.5726 51.3018 38.6179C51.316 37.8341 51.3443 37.0219 51.1315 36.2524C50.9329 35.5541 50.4363 35.0981 50.1242 34.4569C49.727 33.6161 50.2661 32.6614 50.0958 31.7779C50.0391 31.5071 49.6277 31.6211 49.6844 31.8919Z" fill="#161616"/>
<path d="M49.1167 30.9086C50.3794 31.4929 51.5286 32.2624 52.5501 33.2029C52.7488 33.3881 53.0467 33.0889 52.8481 32.9036C51.7982 31.9346 50.6206 31.1366 49.3296 30.5381C49.0742 30.4241 48.8614 30.7946 49.1167 30.9086Z" fill="#161616"/>
<path d="M55.7279 47.3245C57.8986 57.1997 59.4025 67.2032 60.2112 77.278C60.2395 77.5487 60.6652 77.5487 60.6368 77.278C59.8281 67.1605 58.3242 57.1142 56.1394 47.2105C56.0684 46.954 55.657 47.068 55.7279 47.3245Z" fill="#161616"/>
<path d="M52.7767 79.7289C54.2948 80.1564 55.827 79.8572 57.2883 79.3585C58.4659 78.9595 59.8279 78.589 60.5798 77.5202C60.7359 77.2922 60.367 77.0785 60.211 77.3065C59.5016 78.304 58.0403 78.6745 56.9336 79.0307C55.6142 79.4582 54.2522 79.6862 52.8902 79.3157C52.6206 79.2444 52.5071 79.6577 52.7767 79.7289Z" fill="#161616"/>
<path d="M34.3899 60.4351C33.5813 66.1778 32.5172 71.8921 31.1977 77.5351C31.141 77.8059 31.5524 77.9199 31.6092 77.6491C32.9286 72.0061 33.9927 66.2918 34.8014 60.5491C34.8439 60.2783 34.4325 60.1643 34.3899 60.4351Z" fill="#161616"/>
<path d="M31.2971 78.0475C32.4888 78.6887 33.6948 79.273 34.9433 79.786C36.1634 80.2847 37.4403 80.8262 38.7455 81.0115C39.8096 81.1682 41.1007 81.154 42.1647 80.9117C43.1437 80.698 42.9876 79.7717 43.4416 79.0592C43.5835 78.8312 43.2146 78.6175 43.0727 78.8455C42.8883 79.1447 42.8173 79.4582 42.718 79.8002C42.4768 80.5555 41.9519 80.5127 41.2851 80.584C40.1075 80.6837 38.9725 80.698 37.8233 80.3702C35.6385 79.7432 33.5103 78.76 31.5241 77.677C31.2687 77.5487 31.0559 77.9192 31.2971 78.0475Z" fill="#161616"/>
<path d="M36.5614 32.7754C35.6676 33.3739 34.4617 34.2716 33.1422 35.4971C32.3193 36.2524 31.6383 36.9791 30.5743 38.2189C28.1057 41.0831 26.843 42.5509 25.4526 44.8024C23.8494 47.3816 23.0549 48.6784 22.7428 50.6591C22.3739 53.0531 22.8847 55.1336 23.1684 56.3021C23.5799 57.9694 24.119 59.1379 24.6581 60.3064C25.3107 61.7029 26.4032 63.3274 28.5738 66.5336C30.4608 69.3266 31.2127 70.3099 32.6315 71.1791C33.4402 71.6636 34.1779 71.9486 34.7028 72.1054C35.015 71.2931 35.3129 70.4809 35.625 69.6686C35.852 69.9109 36.15 70.2386 36.4763 70.6661C37.0438 71.4071 37.1857 71.7491 37.3985 71.7349C37.739 71.7206 37.9518 70.8941 38.1788 70.0249C39.2428 65.8639 39.2287 65.2369 38.8882 65.0231C38.647 64.8664 38.4625 65.0944 37.8241 65.0231C37.1147 64.9519 36.5614 64.6099 36.1925 64.3106C36.5047 63.3701 36.3628 62.8001 36.1925 62.4581C35.852 61.7884 35.2703 61.8026 34.4191 60.9619C34.2347 60.7766 34.1495 60.6626 33.2841 59.3231C32.3619 57.8981 31.9079 57.1856 31.7944 56.9576C31.4681 56.3306 31.0425 55.3759 30.7303 54.0934C31.0141 53.0959 31.4255 51.9701 32.0072 50.8016C33.6813 47.4529 35.9939 45.2869 37.6255 44.0044C37.9234 42.6791 38.2072 40.6841 37.9802 38.2901C37.7532 35.9104 37.1005 34.0151 36.5614 32.7754Z" fill="white"/>
<path opacity="0.08" d="M35.9934 33.2744C35.511 33.8159 34.8158 34.6282 34.0071 35.6399C31.0987 39.2452 28.9848 41.8529 27.6653 45.2159C27.3958 45.9142 26.2466 48.9637 26.3175 53.0819C26.4168 59.8792 29.7225 64.6387 31.0136 66.4484C32.56 68.6144 34.1632 70.1392 35.284 71.0939C35.0996 71.4217 34.9009 71.7637 34.7165 72.0914C34.1206 71.7779 33.2268 71.2649 32.2195 70.5239C28.7861 67.9447 27.1404 64.7669 25.5939 61.7317C23.9056 58.4114 23.0686 56.7442 22.8132 54.5069C22.4727 51.4289 23.0402 47.7097 24.8846 45.4297C25.0264 45.2444 25.1541 45.1162 25.5939 44.5747C27.3532 42.4229 28.4882 40.7699 28.7294 40.4279C29.6232 39.1597 31.5243 37.0364 35.9934 33.2744Z" fill="#606060"/>
<path d="M35.7095 32.9186C33.2267 35.1559 30.9 37.5641 28.7718 40.1434C26.7856 42.5516 24.7284 45.1024 23.4657 47.9809C22.1747 50.9164 22.2456 53.8804 23.2671 56.8871C24.2602 59.8226 25.7215 62.6299 27.4382 65.2091C28.3888 66.6484 29.4528 68.0164 30.5878 69.2989C31.6519 70.4959 32.7869 71.6501 34.3192 72.2059C34.5745 72.2914 34.688 71.8781 34.4327 71.7926C32.9713 71.2654 31.8931 70.1396 30.8858 68.9996C29.8785 67.8596 28.9421 66.6484 28.0767 65.3944C26.4025 62.9576 24.998 60.3071 23.9481 57.5284C23.3806 56.0179 22.9266 54.4219 22.8698 52.7974C22.8273 51.2014 23.1962 49.6481 23.8346 48.1946C25.0263 45.4586 26.9558 43.0361 28.8286 40.7419C31.0277 38.0486 33.4395 35.5406 36.0217 33.2179C36.2203 33.0326 35.9082 32.7334 35.7095 32.9186Z" fill="#161616"/>
<path d="M37.0432 44.46C33.8226 46.8398 31.51 50.274 30.5453 54.1785C30.4744 54.4493 30.8858 54.5633 30.9567 54.2925C31.8931 50.502 34.1206 47.139 37.256 44.8305C37.483 44.6595 37.2702 44.289 37.0432 44.46Z" fill="#161616"/>
<path d="M30.1478 53.1814C31.0417 56.9292 33.1414 60.3064 36.0924 62.7717C36.3052 62.9427 36.6032 62.6434 36.3903 62.4724C33.4819 60.0499 31.4389 56.7582 30.5451 53.0674C30.4883 52.7967 30.0769 52.9107 30.1478 53.1814Z" fill="#161616"/>
<path d="M36.0644 62.4868C36.1353 64.1113 36.0502 65.7358 35.809 67.3318C35.6955 68.0728 35.5536 68.8138 35.3692 69.5548C35.2841 69.8968 35.199 70.2388 35.0996 70.5808C35.0429 70.7803 34.8301 71.849 34.5889 71.8918C34.674 71.9203 34.7449 71.963 34.8301 71.9915C34.8159 71.963 34.8017 71.9488 34.7875 71.9203C34.6456 71.6923 34.2768 71.906 34.4186 72.134C34.4328 72.1625 34.447 72.1768 34.4612 72.2053C34.5179 72.2908 34.6031 72.3193 34.7024 72.305C35.2273 72.2195 35.3124 71.3645 35.4401 70.9513C35.7239 70.0108 35.9367 69.0703 36.107 68.1013C36.4333 66.2488 36.5468 64.3678 36.4758 62.4868C36.4758 62.216 36.0502 62.2018 36.0644 62.4868Z" fill="#161616"/>
<path d="M36.1919 64.3816C36.8587 64.923 37.639 65.208 38.5044 65.2223C38.774 65.2223 38.774 64.7948 38.5044 64.7948C37.7667 64.7806 37.0715 64.5526 36.4898 64.0823C36.277 63.9113 35.9791 64.2106 36.1919 64.3816Z" fill="#161616"/>
<path d="M35.5962 70.1388C36.0502 70.1958 36.2914 70.7373 36.5326 71.0793C36.7596 71.4213 37.0292 71.7348 37.4264 71.8631C37.6818 71.9486 37.7953 71.5353 37.5399 71.4498C37.0717 71.2931 36.8447 70.7658 36.5752 70.3811C36.3198 70.0248 36.036 69.7683 35.5962 69.7113C35.3267 69.6828 35.3267 70.1103 35.5962 70.1388Z" fill="#161616"/>
<path d="M38.235 63.3131C38.9302 64.9376 38.6748 66.7046 38.3485 68.3719C38.0364 69.9964 37.6675 71.5069 36.6886 72.8749C36.5325 73.1029 36.9014 73.3166 37.0575 73.0886C38.1357 71.5639 38.5188 69.8111 38.8451 67.9871C39.143 66.3341 39.2707 64.6669 38.5897 63.0851C38.5046 62.8429 38.1357 63.0566 38.235 63.3131Z" fill="#161616"/>
<path d="M40.0794 17.9694C39.8524 17.9124 39.2991 17.7984 38.689 18.0264C38.5472 18.0834 37.5115 18.4681 37.3696 19.4799C37.2419 20.3064 37.7952 21.0474 38.3911 21.3609C38.6465 21.4891 38.8877 21.5319 39.0579 21.5461C39.1572 21.8739 39.2707 22.3869 39.3558 22.9996C39.4977 24.0541 39.3417 24.0969 39.4693 24.6954C39.7957 26.0919 40.9306 26.9611 40.9732 26.9896C41.4556 27.3459 41.6258 27.2889 41.8103 27.5881C42.1224 28.0726 41.9947 28.6996 41.8103 29.6401C41.711 30.1389 41.5975 30.5379 41.5123 30.7944C41.6826 31.0081 42.1933 31.5781 43.073 31.8204C43.9526 32.0626 44.6903 31.8489 44.9457 31.7634C45.1869 30.7801 45.4281 29.7826 45.6693 28.7994C46.1942 28.6996 46.9603 28.4716 47.7832 28.0156C48.067 27.8589 48.6345 27.5311 49.1736 26.9896C49.5283 26.6334 50.0248 26.0064 50.564 24.3819C50.8193 23.5981 51.3585 21.9451 51.401 19.6651C51.4294 18.5394 51.3017 17.9836 51.472 16.6869C51.5713 15.8461 51.7415 15.1621 51.855 14.6919C52.0253 14.2929 51.9969 14.0221 51.9401 13.8226C51.6564 12.8964 50.039 12.6399 49.0885 12.4831C48.4075 12.3691 47.8683 12.3691 47.2015 12.3691C46.1516 12.3691 45.6267 12.3691 45.116 12.5116C43.9668 12.8394 43.2007 13.5804 42.7325 14.0364C42.165 14.5921 42.2785 14.6634 41.5975 15.3189C40.959 15.9174 40.6185 16.0884 40.349 16.6014C40.0794 17.1286 40.0652 17.6274 40.0794 17.9694Z" fill="white"/>
<path d="M39.8241 21.575C39.8383 22.0453 39.8241 22.5583 39.7674 23.1283C39.6964 23.8693 39.5546 24.539 39.4127 25.0948C39.2141 25.337 38.8168 25.736 38.2068 25.9783C36.9299 26.4628 35.7665 25.8358 35.5821 25.7218C35.5253 25.1233 35.426 24.2398 35.2132 23.1853C34.745 20.834 34.1349 19.5373 33.9221 18.725C33.5107 17.186 33.7944 14.7635 37.015 10.916C36.0928 10.8875 35.88 10.745 35.8374 10.6025C35.7239 10.1608 37.469 9.29153 38.8594 8.80703C40.718 8.15153 42.2076 8.09453 42.1934 7.88078C42.1793 7.65278 40.5335 7.65278 40.5193 7.45328C40.5051 7.22528 42.3779 6.68378 44.4067 6.82628C44.8891 6.86903 47.2868 7.08278 49.5993 8.87828C50.3513 9.46253 51.6707 10.517 52.2524 12.284C52.4368 12.8398 52.8766 14.1793 52.1956 15.02C52.0112 15.248 51.7984 15.3763 51.6423 15.4475C51.6707 15.1625 51.6707 14.6495 51.4011 14.1508C51.0323 13.5095 50.408 13.253 49.7979 13.0393C49.5 12.9253 48.5636 12.6118 47.1449 12.6688C46.3362 12.6973 44.8891 12.7543 43.4987 13.6663C43.4136 13.7233 43.5129 13.652 41.8955 15.1483C40.7889 16.1743 40.2923 16.616 40.2923 17.2573C40.2923 17.5993 40.4484 17.8558 40.2923 17.9983C40.0795 18.212 39.6397 17.8273 39.058 17.87C38.3344 17.927 37.4548 18.6253 37.3839 19.5515C37.3129 20.5775 38.3344 21.2188 38.4338 21.29C39.0013 21.632 39.5971 21.6035 39.8241 21.575Z" fill="#1C1C1C"/>
<path opacity="0.12" d="M44.5345 13.0679C44.194 13.6379 43.7542 14.4786 43.3428 15.5189C42.7753 16.9439 41.8673 19.1954 41.9808 22.0596C42.1084 24.9951 43.2576 27.2466 44.0379 28.5006C43.7116 29.6264 43.3853 30.7521 43.059 31.8779C42.2219 31.7069 41.8956 31.3934 41.7538 31.1084C41.5268 30.6666 41.7396 30.2391 41.8105 29.3129C41.8673 28.6004 41.8105 28.0161 41.7538 27.6171C41.1579 27.1041 40.5194 26.4344 39.9094 25.5936C39.7108 25.3086 39.5263 25.0379 39.3703 24.7814C39.3135 24.9666 39.1858 25.2374 38.9305 25.4939C38.4906 25.9499 37.9373 26.0354 37.5685 26.0924C36.6888 26.2349 35.9511 25.9926 35.5538 25.8216C35.4971 25.1661 35.412 24.4536 35.2843 23.6984C35.0715 22.4871 34.7735 21.4041 34.4756 20.4779C34.66 21.1476 35.2133 21.6321 35.8943 21.7319C36.5895 21.8316 37.2847 21.4896 37.6394 20.8626C37.1003 20.0219 37.2705 18.9389 37.9657 18.3546C38.5332 17.8701 39.3845 17.8131 40.0796 18.1979C40.0938 17.7561 40.1506 17.3856 40.2357 17.0579C40.9734 14.4074 43.9244 13.2816 44.5345 13.0679Z" fill="#606060"/>
<path d="M51.2877 15.3194C51.3161 17.4142 51.2735 19.5232 51.0181 21.6037C50.777 23.5132 50.2236 25.4654 48.8758 26.8904C47.5138 28.3297 45.4992 28.8284 43.5981 28.2727C41.8246 27.7597 40.4626 26.3774 39.6681 24.7387C39.5546 24.4964 39.1858 24.7102 39.2993 24.9524C40.945 28.3439 45.3148 30.3247 48.5495 27.7597C50.1101 26.5199 50.9047 24.6104 51.2735 22.6867C51.7275 20.2784 51.7559 17.7704 51.7133 15.3337C51.7133 15.0344 51.2877 15.0344 51.2877 15.3194Z" fill="#161616"/>
<path d="M47.9111 15.9891C48.0388 17.0436 48.209 18.0838 48.4218 19.1241C48.5353 19.6228 48.8191 20.3068 48.7481 20.8198C48.6772 21.4468 47.9536 21.8316 47.3861 22.0311C47.1308 22.1308 47.2443 22.5441 47.4996 22.4443C48.209 22.1878 49.3015 21.5893 49.2163 20.6916C49.1454 19.9933 48.8758 19.2808 48.7481 18.5968C48.5779 17.7276 48.436 16.8583 48.3367 15.9748C48.3083 15.7183 47.8827 15.7183 47.9111 15.9891Z" fill="#161616"/>
<path d="M45.9959 17.1005C45.9534 17.5708 45.8399 18.0268 45.6696 18.4685C45.5703 18.725 45.9818 18.839 46.0811 18.5825C46.2655 18.098 46.3648 17.6135 46.4216 17.1005C46.4499 16.8298 46.0243 16.8298 45.9959 17.1005Z" fill="#161616"/>
<path d="M45.8965 16.9724C45.6979 17.4996 45.6128 18.0554 45.6128 18.6111C45.6128 18.8819 46.0384 18.8819 46.0384 18.6111C46.0384 18.0839 46.1235 17.5851 46.308 17.0864C46.4073 16.8156 45.9959 16.7159 45.8965 16.9724Z" fill="#161616"/>
<path d="M44.6478 15.7894C45.2579 15.2194 46.1943 15.2052 46.8043 15.7751C47.003 15.9604 47.3009 15.6612 47.1023 15.4759C46.322 14.7492 45.116 14.7492 44.3357 15.4902C44.1513 15.6754 44.4492 15.9746 44.6478 15.7894Z" fill="#161616"/>
<path d="M49.2448 15.7324C49.7271 15.3619 50.4507 15.5756 50.7203 16.1029C50.848 16.3451 51.2168 16.1314 51.0891 15.8891C50.6919 15.0911 49.6278 14.9059 48.9468 15.4331C48.7198 15.5899 49.032 15.8891 49.2448 15.7324Z" fill="#161616"/>
<path d="M48.2943 23.8695C47.287 24.468 46.0385 24.0832 45.5845 22.9717C45.4852 22.7152 45.0737 22.8292 45.1731 23.0857C45.7264 24.4395 47.2303 24.981 48.5072 24.2257C48.7483 24.0975 48.5213 23.727 48.2943 23.8695Z" fill="#161616"/>
<path d="M40.278 18.0982C39.2849 16.8015 37.3837 18.1267 37.1284 19.3808C36.802 20.9768 38.4194 22.2735 39.8807 21.504C40.1219 21.3758 39.9091 21.0053 39.6679 21.1335C38.4478 21.7748 37.2277 20.5635 37.5965 19.2952C37.8519 18.3975 39.2423 17.4427 39.9801 18.3975C40.1503 18.6113 40.4483 18.312 40.278 18.0982Z" fill="#161616"/>
<path d="M50.1669 17.457C50.1243 17.9272 50.0108 18.3832 49.8405 18.825C49.7412 19.0815 50.1527 19.1955 50.252 18.939C50.4364 18.4545 50.5357 17.97 50.5925 17.457C50.6209 17.1862 50.1952 17.1862 50.1669 17.457Z" fill="#161616"/>
<path d="M50.0674 17.314C49.8688 17.8413 49.7837 18.397 49.7837 18.9528C49.7837 19.2235 50.2093 19.2235 50.2093 18.9528C50.2093 18.4255 50.2944 17.9268 50.4789 17.428C50.564 17.1715 50.1526 17.0575 50.0674 17.314Z" fill="#161616"/>
<path d="M45.8678 28.5431C45.5131 29.2983 45.2578 30.0963 45.1159 30.9228C45.0733 31.1936 45.4848 31.3076 45.5273 31.0368C45.655 30.2388 45.8962 29.4836 46.2367 28.7568C46.3502 28.5146 45.9813 28.3008 45.8678 28.5431Z" fill="#161616"/>
<path d="M41.7819 27.9162C41.7819 28.5005 41.7393 29.0848 41.6116 29.6548C41.5407 29.9825 41.3421 30.353 41.413 30.695C41.5265 31.2507 42.1933 31.7067 42.6757 31.9062C43.5695 32.291 45.3997 32.2482 45.5274 30.98C45.5558 30.7092 45.1302 30.7092 45.1018 30.98C45.045 31.55 44.1512 31.7067 43.7114 31.6925C43.1723 31.6782 42.619 31.4787 42.2217 31.1082C41.6684 30.5952 41.9947 29.9968 42.1082 29.3698C42.1933 28.8853 42.2217 28.4007 42.2217 27.902C42.1933 27.6312 41.7677 27.6312 41.7819 27.9162Z" fill="#161616"/>
<path d="M42.8744 28.4294C43.7114 28.9424 44.6194 29.3129 45.5558 29.5694C45.8254 29.6407 45.9389 29.2274 45.6693 29.1562C44.7471 28.9139 43.8959 28.5434 43.0872 28.0589C42.8602 27.9164 42.6474 28.2869 42.8744 28.4294Z" fill="#161616"/>
<path d="M44.7049 29.042C45.0312 29.156 45.3575 29.2273 45.698 29.27C45.9676 29.3128 46.0811 28.8995 45.8115 28.8568C45.471 28.814 45.1447 28.7285 44.8184 28.6288C44.5489 28.5433 44.4354 28.9565 44.7049 29.042Z" fill="#161616"/>
<path d="M66.1273 58.4544C65.8152 58.5969 65.8152 59.0814 65.801 59.6942C65.7868 60.2499 65.7726 60.8057 66.1273 61.0195C66.3685 61.162 66.6806 61.0765 66.8367 61.0195C66.8509 61.0907 66.8934 61.4755 67.2481 61.732C67.7021 62.0455 68.2129 61.8317 68.2412 61.8175C68.3264 61.9742 68.5392 62.2735 68.9081 62.4872C69.0074 62.5442 69.6174 62.9005 70.2701 62.6582C70.6957 62.5015 71.1639 62.0882 71.0929 61.789C71.0078 61.447 70.3126 61.6322 69.9012 61.1192C69.4898 60.6204 69.8019 60.0077 69.4046 59.7084C69.1493 59.5232 68.7946 59.5802 68.4966 59.6657C68.4966 59.1812 68.1845 58.7964 67.8298 58.7537C67.5319 58.7109 67.3049 58.9104 67.2481 58.9674C66.8792 58.5399 66.4252 58.3262 66.1273 58.4544Z" fill="white"/>
<path d="M66.3969 60.7626C65.8719 60.9336 65.9145 58.9956 66.1131 58.7676C66.3543 58.7534 66.5813 58.7391 66.8225 58.7249C66.8934 58.8531 66.9218 58.9814 66.9218 59.1239C66.936 59.2806 66.936 59.4516 66.9218 59.6084C66.9076 59.8221 66.9076 60.0359 66.8934 60.2496C66.8934 60.3209 66.8793 60.3921 66.8793 60.4634C66.8935 60.6486 66.8083 60.7911 66.5955 60.8766C66.5246 60.6059 66.1131 60.7199 66.1841 60.9906C66.255 61.2471 66.482 61.4039 66.7516 61.3611C67.0637 61.3184 67.2198 61.0476 67.2765 60.7484C67.39 60.2354 67.39 59.5941 67.3475 59.0669C67.3191 58.6821 67.1488 58.2831 66.7941 58.0979C65.9145 57.6561 65.6733 58.6821 65.6024 59.3234C65.5314 59.8649 65.574 61.4609 66.5104 61.1474C66.7658 61.0904 66.6523 60.6771 66.3969 60.7626Z" fill="#161616"/>
<path d="M67.4754 61.6603C67.3051 61.1046 67.2058 60.5346 67.2058 59.9503C67.2058 59.7651 67.1633 59.4373 67.2768 59.2663C67.7591 58.9386 68.0571 59.0241 68.1422 59.5086C68.1848 59.6796 68.199 59.8506 68.2131 60.0216C68.2415 60.2923 68.6671 60.2923 68.6388 60.0216C68.5962 59.5513 68.5253 59.0383 68.128 58.7248C67.8443 58.5111 67.4328 58.4541 67.1491 58.6963C66.3829 59.3233 66.8227 61.0048 67.0497 61.7743C67.1491 62.0451 67.5605 61.9311 67.4754 61.6603Z" fill="#161616"/>
<path d="M66.9926 61.8029C67.3898 62.1449 67.8438 62.2589 68.3546 62.1164C68.4681 62.0879 68.539 61.9597 68.4964 61.8599C68.4113 61.5607 68.3688 61.2472 68.383 60.9337C68.3971 60.7199 68.4539 60.0929 68.6383 59.9362C69.1207 59.5372 69.6315 60.9622 69.7733 61.2329C69.901 61.4752 70.2699 61.2614 70.1422 61.0192C69.901 60.5489 69.3761 59.0242 68.5532 59.4374C67.7871 59.8222 67.9006 61.3042 68.0708 61.9739C68.1134 61.8884 68.1701 61.8029 68.2127 61.7174C67.858 61.8172 67.5459 61.7602 67.2621 61.5179C67.0777 61.3184 66.7798 61.6177 66.9926 61.8029Z" fill="#161616"/>
<path d="M69.7026 62.6295C69.4898 62.5583 69.2486 62.5013 69.0784 62.3445C68.7237 62.031 68.9932 61.6035 69.3905 61.4753C69.9154 61.3043 70.4971 61.4753 70.8944 61.8458C71.093 62.031 71.3909 61.7318 71.1923 61.5465C70.5539 60.948 69.3763 60.7058 68.7095 61.404C67.9717 62.1735 68.8939 62.8433 69.5891 63.057C69.8445 63.114 69.958 62.7008 69.7026 62.6295Z" fill="#161616"/>
<path d="M69.2484 62.7432C69.8727 63.3132 70.7523 62.957 71.2063 62.3442C71.8306 61.4892 70.5395 60.9477 69.9153 60.6912C69.6599 60.5915 69.4471 60.9477 69.7024 61.0617C69.9862 61.19 71.0928 61.589 70.9084 62.045C70.7239 62.5152 69.9436 62.8002 69.5606 62.4582C69.3477 62.2445 69.0498 62.5437 69.2484 62.7432Z" fill="#161616"/>
</svg>
